<svg class="write-page" color-interpolation="linearRGB" width="928px" height="442.984px" xmlns="http://www.w3.org/2000/svg" xmlns:xlink="http://www.w3.org/1999/xlink">
  <g class="write-content write-v3" xruling="0" yruling="0" marginLeft="0" papercolor="#FFFFFF" rulecolor="#9F000023">
    <g class="ruleline write-std-ruling write-scale-down" fill="none" stroke="#000023" stroke-opacity="0.624" stroke-width="1" shape-rendering="crispEdges" vector-effect="non-scaling-stroke">
      <rect class="pagerect" fill="#FFFFFF" stroke="none" x="0" y="0" width="928" height="442.984" />
    </g>
    <path class="write-flat-pen" fill="#000000" stroke-width="1.6" __comx="57.081" __comy="33.09" __timestamp="0x1810b2f20be" d="M61.804 14.953 l0.057 -1.184 -1.078 -0.013 -0.828 0.732 -0.726 1.264 -0.727 1.873 -0.84 2.253 -0.841 2.773 -0.829 2.974 -0.955 3.095 -0.828 3.098 -0.827 2.87 -0.575 2.371 -0.387 1.816 -0.12 1.161 0.035 0.611 1.132 0.387 0.362 -1.013 -0.472 -0.365 -0.89 0.604 1.132 0.387 0.035 -0.534 0.134 -1.016 0.373 -1.734 0.565 -2.325 0.821 -2.856 0.82 -3.087 0.946 -3.09 0.819 -2.982 0.807 -2.725 0.807 -2.214 0.667 -1.792 0.542 -1.026 0.313 -0.299 -0.571 -0.013 0.057 0" />
    <path class="write-flat-pen" fill="#000000" stroke-width="1.6" __comx="63.42" __comy="33.09" __timestamp="0x1810b2f21b6" d="M59.877 14.69 l0.39 -0.584 -0.139 0.076 0.19 0.041 0.16 0.033 0.308 0.372 0.573 1.119 0.731 1.625 0.743 2.029 0.81 2.437 0.747 2.711 0.622 2.935 0.438 3.056 0.315 2.953 0.189 2.618 0.127 2.094 0.007 1.64 0.016 1.26 0.04 0.729 -0.176 0.434 -0.96 0.576 0.297 0.712 1.4 -0.408 0.711 -0.94 0.04 -1.104 0.016 -1.26 0.007 -1.682 -0.126 -2.144 -0.191 -2.651 -0.319 -3.003 -0.449 -3.128 -0.646 -3.021 -0.774 -2.786 -0.838 -2.488 -0.778 -2.094 -0.79 -1.697 -0.695 -1.286 -0.832 -0.888 -0.727 0.033 -0.317 0.041 -0.646 0.191 0.057 1.369" />
    <path class="write-flat-pen" fill="#000000" stroke-width="1.6" __comx="57.417" __comy="33.09" __timestamp="0x1810b2f227a" d="M47.743 36.867 l-1.526 -0.307 -0.234 -0.16 0.038 -0.046 0.033 0.026 0.203 -0.212 1.113 -0.598 1.915 -0.722 2.387 -0.845 2.641 -0.794 2.971 -0.857 2.895 -0.797 2.756 -0.627 2.502 -0.472 2.025 -0.342 1.415 -0.126 1.29 -0.296 0 -0.425 -1.29 -0.296 -1.501 -0.126 -2.158 0.231 -2.569 0.445 -2.821 0.632 -2.936 0.806 -2.987 0.861 -2.683 0.81 -2.43 0.873 -2.015 0.767 -1.422 0.776 -0.684 0.819 0.033 0.828 0.418 0.641 0.78 0.299 1.701 0.179" />
    <path class="write-flat-pen" fill="#000000" stroke-width="1.6" __comx="74.964" __comy="33.09" __timestamp="0x1810b2f2416" d="M72.43 29.579 l0.115 -0.5 0.05 -0.057 0.053 -0.057 -1.206 0 -0.087 0.63 -0.015 1.088 -0.014 1.432 -0.009 1.578 -0.367 1.57 -0.385 1.494 -0.26 1.223 -0.187 0.951 -0.194 0.7 -0.079 0.5 0.001 0.173 1.483 0 -0.038 -0.505 0.398 -0.753 0.673 -1.128 0.744 -1.147 0.704 -1.115 0.56 -1.012 0.611 -0.823 0.468 -0.634 0.423 -0.373 0.324 -0.198 0.196 -0.047 0.153 0.011 0.317 0.011 -0.264 0.013 -0.06 -0.11 0.098 0.814 -0.004 1.212 -0.004 1.489 0 1.546 0 1.317 0 0.974 0 0.63 0.004 1.139 1.077 -0.044 0.718 -0.395 0.779 -0.917 0.878 -1.414 -0.398 -0.342 -1.239 1.045 -0.742 0.572 -0.296 0.064 0.697 -0.044 0.004 0.337 0 -0.63 0 -0.974 0 -1.317 0 -1.546 -0.004 -1.489 -0.004 -1.307 -0.156 -1.133 -0.44 -0.912 -0.644 0.013 -0.317 0.011 -0.354 0.011 -0.564 0.182 -0.564 0.375 -0.591 0.543 -0.546 0.741 -0.656 0.895 -0.581 1.05 -0.69 1.061 -0.777 1.144 -0.721 1.163 -0.616 1.08 -0.038 0.869 1.483 0 0.001 -0.056 0.048 -0.302 0.186 -0.674 0.194 -0.996 0.247 -1.182 0.375 -1.484 0.394 -1.752 -0.009 -1.743 -0.014 -1.432 -0.015 -1.088 -0.087 -0.63 -1.206 0 0.053 0.057 0.05 0.057 0.115 0.5" />
    <path class="write-flat-pen" fill="#000000" stroke-width="1.6" __comx="84.732" __comy="33.09" __timestamp="0x1810b2f2576" d="M87.048 28.705 l0.61 -0.933 0.282 -0.432 0.151 -0.349 0.038 -0.145 -1.075 -0.559 -0.69 0.421 -0.835 1.062 -0.976 1.29 -0.841 1.34 -0.693 1.079 -0.61 0.917 -0.31 0.77 -0.089 0.485 0.001 0.431 0.254 0.687 0.945 0.188 0.703 0.211 0.746 0.28 0.773 0.266 0.712 0.394 0.52 0.419 0.291 0.375 0.075 0.333 0 0.509 -0.028 0.256 -0.512 0.461 -1.087 0.706 -1.181 0.73 -1.114 0.615 -1.012 0.514 -0.563 0.305 -0.368 0.103 -0.198 0.081 0.205 1.389 0.266 -0.254 1.161 -0.371 -0.017 -0.302 -1.17 -0.239 -0.241 -0.254 0.205 1.389 0.182 -0.033 0.519 -0.126 0.705 -0.382 1.017 -0.517 1.168 -0.645 1.227 -0.759 1.195 -0.783 1.009 -0.913 0.098 -0.89 0 -0.751 -0.179 -0.812 -0.596 -0.77 -0.748 -0.612 -0.936 -0.522 -0.875 -0.307 -0.775 -0.292 -0.818 -0.247 -0.196 -0.041 0.127 0.344 0.001 -0.028 0.038 -0.203 0.197 -0.49 0.531 -0.801 0.701 -1.097 0.807 -1.295 0.926 -1.23 0.686 -0.885 0.451 -0.381 -1.075 -0.559 0.038 -0.03 0.024 0.109 -0.099 0.369 -0.451 0.984" />
    <path class="write-flat-pen" fill="#000000" stroke-width="1.6" __comx="94.015" __comy="33.09" __timestamp="0x1810b2f25f6" d="M91.719 39.448 l1.142 -0.012 0.606 0.064 0.507 0.033 0.262 0.014 0.157 0.121 0.293 0.264 0.223 0.294 0.184 0.354 0.222 0.672 0.869 0 0.222 -0.884 -0.196 -0.791 -0.411 -0.622 -0.468 -0.423 -0.604 -0.452 -0.752 0.014 -0.507 0.033 -0.662 0.064 -1.182 0.198" />
    <path class="write-flat-pen" fill="#000000" stroke-width="1.6" __comx="134.398" __comy="70.043" __timestamp="0x1810b2fda56" d="M140.051 70.322 l-0.372 -0.674 -0.418 -0.214 -0.296 -0.174 -0.22 -0.121 -0.224 -0.195 -0.296 -0.243 -0.259 -0.346 -0.368 -0.453 -0.405 -0.56 -0.552 -0.502 -0.683 -0.388 -0.877 -0.145 -1.106 -0.002 -1.225 0.59 -1.142 1.29 -1.068 1.622 -0.927 1.85 -0.666 1.86 -0.396 1.847 -0.2 1.449 0 1.137 0.002 1.281 1.281 0.226 1.17 -0.013 1.42 -0.693 1.416 -1.243 1.287 -1.421 1.157 -1.349 0.918 -1.244 0.639 -1.036 0.4 -0.549 0.022 -0.001 -0.795 0.011 -0.007 -0.21 -0.013 1.317 -0.017 1.787 0.064 1.927 0.193 1.825 0.264 1.493 0.336 1.148 0.346 0.905 0.685 0.443 0.8 -0.111 0.522 -1.05 -0.152 -0.168 -0.787 0.133 0.04 -0.111 0.051 -0.015 -0.161 -0.469 -0.298 -1.028 -0.243 -1.37 -0.187 -1.725 -0.063 -1.852 -0.017 -1.763 -0.013 -1.317 -0.007 -1.127 -1.048 0.011 -0.485 0.457 -0.488 0.711 -0.629 1.026 -0.857 1.161 -1.124 1.286 -1.248 1.327 -1.246 1.047 -0.988 0.452 -0.731 -0.013 0.014 -0.003 0.002 -0.093 0 -1.039 0.18 -1.3 0.364 -1.704 0.602 -1.691 0.848 -1.7 0.96 -1.471 0.886 -1.001 0.677 -0.327 0.668 -0.002 0.517 0.084 0.331 0.185 0.335 0.3 0.356 0.471 0.392 0.463 0.374 0.456 0.465 0.33 0.41 0.263 0.414 0.109 0.338 0.055 0.216 0.016 0.429 0.292" />
    <path class="write-flat-pen" fill="#000000" stroke-width="1.6" __comx="149.444" __comy="71.324" __timestamp="0x1810b2fdb1a" d="M146.734 69.001 l0.72 0.288 0.512 0.702 0.764 1.258 0.777 1.644 0.605 1.864 0.427 2.095 0.185 2.162 0.005 2.043 -0.219 1.754 -0.811 1.363 -1.024 1.104 -1.894 0.947 0.402 0.926 2.201 -0.83 1.384 -1.302 1.09 -1.73 0.288 -2.14 0.005 -2.195 -0.195 -2.305 -0.46 -2.257 -0.662 -2.03 -0.87 -1.792 -0.884 -1.376 -0.882 -1.016 -1.136 -0.271" />
    <path class="write-flat-pen" fill="#000000" stroke-width="1.6" __comx="125.685" __comy="72.229" __timestamp="0x1810b2fdc0a" d="M127.645 56.765 l-0.794 -1.382 -0.529 -0.411 -0.756 -0.062 -0.765 0.563 -0.583 1.674 -0.664 2.213 -0.599 2.974 -0.402 3.545 -0.137 3.931 -0.002 4.332 0.324 4.388 1.12 4.071 1.69 3.49 2.64 2.887 0.771 -0.66 -2.33 -2.924 -1.479 -3.267 -1.035 -3.832 -0.31 -4.203 -0.002 -4.258 0.116 -3.857 0.358 -3.441 0.542 -2.868 0.603 -2.14 0.431 -1.304 0.122 -0.124 0.005 -0.062 0.105 0.047 0.719 1.18" />
    <path class="write-flat-pen" fill="#000000" stroke-width="1.6" __comx="178.101" __comy="72.229" __timestamp="0x1810b2fde3c" d="M179.665 66.352 l-0.364 -0.955 -0.294 -0.199 -0.863 0.557 -0.082 0.687 -0.01 1.374 -0.01 1.947 -0.008 2.348 -0.004 2.445 -0.128 2.532 -0.311 2.526 -0.438 2.263 -0.381 1.903 -0.188 1.231 -0.05 0.53 1.391 0.214 -0.059 -0.277 0.871 -1.996 -0.815 -0.419 -1.196 2.026 -0.186 0.41 1.391 0.214 0.077 -0.501 0.193 -1.174 0.38 -1.877 0.449 -2.318 0.323 -2.628 0.125 -2.622 -0.004 -2.48 -0.008 -2.348 -0.01 -1.947 -0.01 -1.374 -0.082 -0.687 -0.863 0.557 -0.04 -0.084 0.292 0.526" />
    <path class="write-flat-pen" fill="#000000" stroke-width="1.6" __comx="184.417" __comy="72.229" __timestamp="0x1810b2fdf94" d="M181.424 66.342 l-0.355 -0.517 0.056 -0.012 0.044 0.124 -0.179 0.363 0.787 -0.112 1.648 -0.227 1.908 -0.286 1.811 -0.282 1.483 -0.112 1.113 -0.056 0.616 -0.001 -0.472 -0.003 0.001 -0.626 -0.135 0.381 -1.026 0.83 -1.736 1.176 -1.948 1.193 -2.102 1.267 -1.946 1.29 -1.59 1.317 -1.259 1.387 -0.608 1.43 -0.074 1.291 -0.005 1.228 0.781 1.103 1.163 0.793 1.335 0.666 1.413 0.58 1.42 0.613 1.397 0.768 1.18 0.796 0.943 0.945 0.822 1.008 0.832 0.891 0.914 0.673 1.388 0.389 0.343 -0.822 -1.082 -0.641 -0.607 -0.587 -0.689 -0.827 -0.826 -1.054 -1.085 -1.117 -1.356 -0.921 -1.519 -0.835 -1.496 -0.647 -1.376 -0.565 -1.2 -0.594 -0.865 -0.582 -0.36 -0.501 -0.005 -0.719 0.053 -1 0.406 -0.975 1.022 -1.132 1.452 -1.203 1.857 -1.23 2.081 -1.253 1.981 -1.212 1.814 -1.229 1.382 -1.117 0.372 -0.993 0.001 -1.085 -0.98 -0.003 -0.652 -0.001 -1.168 0.059 -1.559 0.117 -1.865 0.291 -1.895 0.287 -1.648 0.231 -1.495 0.232 -0.306 0.592 0.044 0.238 0.056 0.446 0.72 0.778" />
    <path class="write-flat-pen" fill="#000000" stroke-width="1.6" __comx="202.7" __comy="72.229" __timestamp="0x1810b2fe0f6" d="M204.925 60.858 l0.169 -0.715 0.057 -0.229 -1.196 0 -0.072 0.286 -0.019 1.088 -0.019 1.626 -0.192 1.847 -0.551 1.928 -0.627 1.92 -0.616 1.671 -0.69 1.421 -0.422 1.045 -0.308 0.49 -0.144 0.219 1.193 0.43 -0.057 -0.057 -0.404 -1.072 -0.425 0 -0.404 1.072 -0.057 0.057 1.193 0.43 0.237 -0.239 0.453 -0.656 0.465 -1.131 0.704 -1.442 0.651 -1.765 0.64 -1.974 0.59 -2.08 0.189 -2.047 -0.019 -1.695 -0.019 -1.088 -0.072 -0.286 -1.196 0 0.057 0.229 0.169 0.715" />
    <path class="write-flat-pen" fill="#000000" stroke-width="1.6" __comx="211.809" __comy="72.229" __timestamp="0x1810b2fe1b8" d="M206.064 63.062 l0.977 -1.604 0.849 -1.103 1.117 -1.147 1.34 -1.01 1.458 -0.914 1.536 -0.685 1.37 -0.307 1.25 0.003 0.594 0.003 0.312 0.734 -0.005 2.137 -0.006 3.223 -1.12 4.209 -1.147 4.831 -0.959 4.68 -0.51 4.199 0.034 3.34 0.294 2.415 1.111 1.949 0.696 -0.302 -0.586 -1.954 -0.086 -2.167 0.034 -3.189 0.504 -4.047 0.942 -4.598 1.135 -4.789 1.162 -4.381 -0.006 -3.42 -0.005 -2.445 -0.829 -1.9 -1.561 0.003 -1.412 0.003 -1.672 0.38 -1.759 0.804 -1.584 1.033 -1.449 1.166 -1.165 1.373 -0.799 1.302 -0.865 1.724" />
    <path class="write-flat-pen" fill="#000000" stroke-width="1.6" __comx="139.438" __comy="143.943" __timestamp="0x1810b2fecae" d="M136.153 139.863 l-0.214 -0.894 -0.217 -0.452 -0.985 -0.063 -0.064 1.233 -0.016 1.085 0.249 1.668 0.304 1.71 0.244 1.915 0.181 2.083 0.059 2.316 -0.003 2.51 0 2.567 -0.063 2.358 -0.248 1.902 -0.192 1.27 -0.065 0.648 1.453 0.073 -0.009 -0.057 -0.015 -1.26 -0.019 -1.639 0.405 -1.801 0.487 -1.734 0.482 -1.257 0.406 -0.787 0.325 -0.461 0.212 -0.11 0.479 -0.082 0.638 0.002 0.714 0.007 0.601 0.088 0.621 0.482 0.512 0.611 0.299 0.731 0.102 0.896 -0.003 0.99 -0.158 0.973 -0.804 1.065 -1.12 1.011 -1.251 0.861 -1.131 0.567 -0.789 0.154 -0.556 0.029 0.087 0.098 -0.14 -1.107 -0.939 0 -0.14 1.894 0.847 0.441 0.965 0.029 1.112 -0.189 1.404 -0.693 1.411 -0.971 1.289 -1.165 1.097 -1.455 0.222 -1.432 -0.003 -1.186 -0.151 -1.166 -0.462 -1.102 -0.756 -0.878 -1.027 -0.778 -1.047 -0.141 -0.807 0.007 -0.757 0.002 -0.789 0.147 -0.675 0.348 -0.562 0.799 -0.481 0.931 -0.532 1.378 -0.527 1.817 -0.482 1.979 -0.019 1.797 -0.015 1.26 -0.009 0.057 1.453 0.073 0.062 -0.612 0.189 -1.249 0.259 -1.992 0.064 -2.452 0 -2.587 -0.003 -2.53 -0.068 -2.38 -0.2 -2.155 -0.263 -1.979 -0.329 -1.726 -0.258 -1.539 -0.016 -0.977 -0.064 -0.027 -0.858 -0.063 -0.09 -0.222 0.308 0.757" />
    <path class="write-flat-pen" fill="#000000" stroke-width="1.6" __comx="151.832" __comy="152.764" __timestamp="0x1810b2fed5a" d="M150.575 150.746 l1.268 0.685 0.663 0.808 0.541 1.163 0.449 1.382 0.169 1.607 -0.005 1.794 0 1.759 -0.681 1.754 -1.13 1.685 -1.194 1.474 -2.041 1.339 0.492 0.848 2.356 -1.215 1.468 -1.618 1.279 -1.866 0.84 -2.14 0 -2.021 -0.005 -1.871 -0.211 -1.829 -0.566 -1.596 -0.727 -1.357 -0.985 -1.025 -1.479 -0.734" />
    <path class="write-flat-pen" fill="#000000" stroke-width="1.6" __comx="124.614" __comy="150.587" __timestamp="0x1810b2fee4a" d="M125.393 148.502 l0.025 -1.027 0.037 -0.688 -0.728 -0.043 -0.615 0.163 -0.424 1.401 -0.589 1.669 -0.591 2.323 -0.652 2.852 -0.335 3.161 -0.075 3.185 -0.003 2.983 0.41 2.652 1.243 2.09 2.015 1.221 2.594 0.032 0.079 -0.909 -2.244 -0.391 -1.407 -0.955 -0.912 -1.576 -0.351 -2.273 -0.003 -2.859 0.051 -3.114 0.299 -3.024 0.615 -2.76 0.55 -2.258 0.551 -1.653 0.209 -0.775 -0.235 0.048 -0.601 -0.043 0.037 -0.459 0.025 1.027" />
    <path class="write-flat-pen" fill="#000000" stroke-width="1.6" __comx="185.929" __comy="157.2" __timestamp="0x1810b301126" d="M187.647 147.568 l0.375 -0.84 0.053 -0.573 0.007 -0.294 0.042 -0.628 -1.246 -0.022 -0.313 1.598 -0.144 1.506 -0.259 1.976 -0.386 2.28 -0.384 2.469 -0.384 2.63 -0.445 2.69 -0.383 2.594 -0.255 2.186 -0.191 1.645 0.008 0.844 1.407 0 -0.122 -0.122 0.611 -2.018 -0.808 -0.308 -0.965 2.112 -0.122 0.336 1.407 0 0.008 -0.76 0.19 -1.562 0.252 -2.166 0.378 -2.56 0.442 -2.693 0.377 -2.638 0.376 -2.456 0.375 -2.301 0.248 -2.033 0.109 -1.472 0.068 -0.463 -1.119 -0.022 0.042 -0.513 0.133 0.279 0.053 0.458 0.375 0.84" />
    <path class="write-flat-pen" fill="#000000" stroke-width="1.6" __comx="194.104" __comy="157.2" __timestamp="0x1810b301278" d="M187.358 149.81 l0.316 -0.774 0.441 -0.25 0.812 -0.246 1.127 -0.232 1.462 -0.086 1.561 -0.04 1.763 0.006 1.48 0.009 1.268 0.161 0.801 0.317 0.237 0.243 0.038 0.416 -0.001 0.569 -0.589 0.653 -1.171 0.741 -1.387 0.763 -1.45 0.491 -1.375 0.392 -1.227 0.335 -1.087 0.171 -0.714 0.214 -0.639 0.433 -0.003 0.647 -0.001 0.649 0.529 0.881 0.945 0.86 1.069 1.084 1.189 1.141 1.192 1.306 1.226 1.285 1.293 1.17 1.16 0.989 0.934 0.729 0.804 0.763 0.563 0.506 0.518 0.941 0.968 -0.39 -0.378 -1.287 -0.705 -0.754 -0.844 -0.84 -0.968 -0.76 -1.121 -0.958 -1.242 -1.121 -1.182 -1.235 -1.216 -1.329 -1.22 -1.149 -1.086 -1.092 -0.829 -0.743 -0.231 -0.379 -0.001 -0.268 -0.003 0.075 -0.132 0.089 0.427 -0.129 1.068 -0.173 1.308 -0.352 1.414 -0.409 1.593 -0.54 1.528 -0.841 1.364 -0.863 1.058 -1.18 -0.001 -1.149 -0.088 -0.958 -0.777 -0.788 -1.227 -0.484 -1.521 -0.183 -1.562 0.009 -1.786 0.006 -1.608 0.074 -1.58 0.143 -1.282 0.341 -0.963 0.441 -0.826 0.666 0.157 1.236" />
    <path class="write-flat-pen" fill="#000000" stroke-width="1.6" __comx="208.311" __comy="157.2" __timestamp="0x1810b301370" d="M208.571 149.102 l0.397 -0.694 0.092 -0.04 -0.754 0.052 -0.031 0.369 -0.012 1.489 -0.014 1.822 -0.063 2.003 -0.374 2.072 -0.383 2.194 -0.256 2.094 -0.124 1.759 0.025 1.341 0.063 1.371 1.316 -0.203 0 -0.733 -0.177 -0.203 0.063 -0.232 0.025 -1.293 0.129 -1.677 0.251 -2.029 0.377 -2.158 0.387 -2.166 0.064 -2.121 -0.014 -1.843 -0.012 -1.489 -0.031 -1.578 -0.88 0.052 -0.668 0.648 0.239 1.16" />
    <path class="write-flat-pen" fill="#000000" stroke-width="1.6" __comx="221.506" __comy="157.2" __timestamp="0x1810b301432" d="M220.812 145.965 l0.773 -0.529 -0.177 0.043 -0.047 -0.02 0.084 1.41 -0.027 2.264 -0.012 2.863 -0.005 3.321 -0.001 3.722 0.001 3.837 0.015 4.003 0.015 3.809 -0.007 3.653 0.532 0.05 0.677 -3.637 0.141 -3.864 0.015 -4.014 0.001 -3.837 -0.001 -3.722 -0.005 -3.321 -0.012 -2.863 -0.027 -2.317 -0.17 -1.682 -0.427 -0.822 -0.937 0.043 -0.988 0.863" />
    <path class="write-flat-pen" fill="#000000" stroke-width="1.6" __comx="136.556" __comy="222.269" __timestamp="0x1810b3016e4" d="M135.683 222.271 l0.165 -0.753 0.056 -0.4 -0.035 -0.436 -0.182 -0.411 -0.386 -0.38 -0.551 -0.119 -0.503 -0.01 -0.841 -0.008 -1.01 0.682 -0.922 1.084 -0.823 1.357 -0.619 1.606 -0.28 1.556 -0.002 1.378 -0.005 1.266 1.012 0.999 1.31 0.486 1.582 0.125 1.802 -0.002 2.027 -0.008 1.97 -0.379 1.835 -0.458 2.081 -0.574 -0.194 -0.929 -2.143 0.306 -1.841 0.344 -1.833 0.308 -1.903 -0.008 -1.747 -0.002 -1.333 -0.104 -0.845 -0.315 -0.383 -0.376 -0.005 -0.681 -0.002 -1.256 0.227 -1.308 0.522 -1.372 0.698 -1.163 0.726 -0.863 0.511 -0.349 0.427 -0.008 0.385 -0.01 0.083 -0.004 -0.006 -0.036 0.071 0.047 0.092 0.137 0.056 0.287 0.165 0.753" />
    <path class="write-flat-pen" fill="#000000" stroke-width="1.6" __comx="150.703" __comy="217.192" __timestamp="0x1810b3017b6" d="M150.601 214.433 l-0.169 -0.981 -1.065 0.557 0.288 0.413 0.515 1.246 0.869 1.946 0.925 2.301 0.74 2.622 0.49 2.719 0.061 2.743 0 2.531 -1.047 2.316 -1.495 2.078 -1.764 1.762 -2.208 1.351 0.485 0.896 2.491 -1.196 2.039 -1.903 1.675 -2.274 1.235 -2.724 0 -2.852 -0.066 -2.869 -0.524 -2.894 -0.781 -2.761 -0.977 -2.395 -0.906 -1.948 -0.626 -1.388 -0.473 -0.503 -1.065 0.557 0.36 0.929" />
    <path class="write-flat-pen" fill="#000000" stroke-width="1.6" __comx="126.207" __comy="216.38" __timestamp="0x1810b301890" d="M128.21 213.131 l-0.964 -0.155 -0.495 -0.014 -0.865 0.72 -0.579 1.59 -0.529 1.987 -0.523 2.606 -0.46 2.954 -0.267 3.14 -0.009 3.061 0 2.769 0.976 2.268 1.558 1.881 2.406 1.024 0.436 -0.901 -2.044 -1.13 -1.231 -1.555 -0.799 -1.855 0 -2.5 -0.009 -3.009 0.24 -3.045 0.427 -2.887 0.491 -2.548 0.485 -1.907 0.435 -1.273 0.276 -0.311 0.012 -0.014 0.905 0.086" />
    <path class="write-flat-pen" fill="#000000" stroke-width="1.6" __comx="189.008" __comy="225.517" __timestamp="0x1810b303ade" d="M187.623 222.83 l-0.97 -0.175 -0.234 -0.044 -0.063 -0.059 -0.625 -0.011 -0.247 1.089 -0.243 0.748 -0.402 1.005 -0.221 1.048 -0.006 0.991 -0.004 0.812 0.185 1.032 1.147 0.892 1.125 0.659 1.314 0.741 1.287 0.831 1.173 0.896 1.019 0.814 0.694 0.786 0.387 0.526 0.079 0.392 0 0.497 0 -0.017 -0.445 0.214 -1.153 0.26 -1.565 0.218 -1.659 0.006 -1.385 0.009 -0.939 -0.33 -0.787 -0.719 -0.552 -1.121 -0.43 -1.666 -0.318 0.013 -0.291 1.86 0.462 1.628 1.115 1.229 1.47 0.586 1.657 0.009 1.764 0.006 1.731 -0.24 1.383 -0.312 1.456 -0.702 0 -0.933 0 -0.648 -0.175 -0.868 -0.627 -0.849 -0.827 -0.932 -1.136 -0.904 -1.236 -0.937 -1.375 -0.887 -1.348 -0.748 -1.03 -0.601 -0.628 -0.482 -0.069 -0.343 -0.004 -0.677 -0.006 -0.842 0.16 -0.785 0.358 -0.942 0.264 -0.856 0.007 -0.056 -0.498 -0.011 0.063 -0.059 0.146 -0.044 0.892 0.105" />
    <path class="write-flat-pen" fill="#000000" stroke-width="1.6" __comx="197.294" __comy="223.314" __timestamp="0x1810b303b6c" d="M188.27 225.967 l1.619 -0.257 1.539 -0.295 1.806 -0.353 1.993 -0.547 2.167 -0.62 2.155 -0.687 2.13 -0.627 1.837 -0.478 1.516 -0.259 1.471 -0.384 -0.021 -0.47 -1.534 -0.248 -1.653 0.084 -1.966 0.438 -2.18 0.633 -2.155 0.687 -2.143 0.64 -1.937 0.598 -1.744 0.449 -1.504 0.392 -1.58 0.386" />
    <path class="write-flat-pen" fill="#000000" stroke-width="1.6" __comx="212.551" __comy="222.288" __timestamp="0x1810b303ca0" d="M218.024 218.548 l0.286 -0.518 0.066 -0.057 -0.825 -0.532 -0.552 0.141 -1.2 1.314 -1.487 1.847 -1.809 2.371 -1.814 2.854 -1.558 2.974 -1.247 3.009 -0.604 2.72 -0.001 2.122 0.436 1.735 1.893 0.699 1.846 -0.008 2.051 -0.016 2.037 -0.521 1.677 -0.759 1.243 -0.811 0.553 -0.917 0.001 -0.988 -0.862 -0.787 -1.937 -0.344 -2.338 -0.122 -2.489 -0.013 -2.117 -0.005 -1.496 -0.162 -0.336 -0.062 -0.09 -0.636 -1.176 0 -0.09 1.686 1.439 0.396 1.673 0.181 2.193 -0.005 2.455 -0.013 2.226 0.107 1.485 0.229 0.153 0.129 0.001 0.043 -0.207 0.343 -0.912 0.563 -1.492 0.615 -1.766 0.395 -1.878 -0.016 -1.577 -0.008 -0.896 -0.332 -0.198 -0.785 -0.001 -1.772 0.537 -2.434 1.161 -2.832 1.485 -2.868 1.736 -2.758 1.741 -2.325 1.428 -1.818 0.955 -1.091 0.208 -0.203 -0.825 -0.532 0.066 0.057 0.286 0.518" />
    <path class="write-flat-pen" fill="#000000" stroke-width="1.6" __comx="142.041" __comy="291.62" __timestamp="0x1810b3045f8" d="M143.77 303.847 l-0.205 -0.854 0.044 -0.391 -0.018 -0.712 -0.024 -0.874 -0.109 -1.016 -0.192 -1.044 -0.319 -0.96 -0.334 -1.042 -0.576 -0.983 -0.788 -0.907 -0.92 -0.695 -1.172 -0.353 -1.119 -0.001 -1.384 -0.001 -1.563 1.21 -1.448 1.486 -1.441 1.715 -1.193 1.856 -0.8 1.745 -0.477 1.479 -0.141 1.142 0 1.078 0.707 0.424 1.371 -0.001 1.785 -0.839 2.097 -1.482 2.372 -1.916 2.431 -2.152 2.244 -2.273 2.106 -2.442 1.989 -2.514 1.673 -2.754 1.476 -2.91 1.28 -3.066 1.081 -2.816 0.889 -2.352 0.627 -1.69 0.427 -0.869 0.248 -0.441 -1.229 -0.317 -0.013 0.053 -0.163 0.856 -0.781 1.34 -0.966 1.849 -1.095 2.199 -1.092 2.599 -1.208 2.966 -1.522 3.371 -1.588 3.72 -1.715 3.787 -1.472 3.698 -1.091 3.246 -0.715 2.643 -0.266 1.984 0.003 1.258 0.189 0.984 1.515 -0.016 1.122 -0.602 1.054 -1.145 0.848 -1.002 0.886 -1.498 -0.529 -0.401 -1.163 1.208 -0.927 0.83 -0.974 0.917 -0.653 0.314 -0.006 -0.016 0.062 0.296 0.003 -1.032 0.241 -1.796 0.679 -2.511 1.064 -3.168 1.444 -3.632 1.707 -3.772 1.581 -3.725 1.52 -3.386 1.2 -2.99 1.063 -2.555 1.06 -2.153 0.936 -1.816 0.867 -1.523 0.217 -1.206 -0.013 -0.176 -1.229 -0.317 -0.259 0.476 -0.46 0.963 -0.641 1.746 -0.885 2.344 -1.074 2.796 -1.255 3.004 -1.439 2.817 -1.623 2.629 -1.941 2.411 -2.077 2.369 -2.193 2.194 -2.386 2.086 -2.318 1.863 -1.96 1.381 -1.384 0.65 -0.657 -0.001 0.326 0.195 0 -0.182 0.113 -0.92 0.41 -1.27 0.721 -1.577 1.089 -1.694 1.347 -1.606 1.341 -1.378 1.099 -0.852 0.897 -0.001 0.91 -0.001 0.73 0.219 0.601 0.45 0.607 0.696 0.439 0.735 0.3 0.905 0.315 0.873 0.188 0.903 0.145 0.931 0.103 0.844 0.109 0.663 0.044 0.525 0.463 0.956" />
    <path class="write-flat-pen" fill="#000000" stroke-width="1.6" __comx="153.538" __comy="291.22" __timestamp="0x1810b3046f0" d="M160.199 287.746 l0.343 -0.08 -0.225 0.043 0.063 0.176 0.241 0.92 0.213 1.296 0.045 1.658 -0.009 1.992 -0.004 2.155 -0.538 2.319 -1.098 2.417 -1.616 2.636 -1.938 2.768 -2.251 2.773 -2.376 2.611 -2.227 2.229 -1.91 1.714 -2.077 1.213 0.37 0.743 2.343 -0.99 2.146 -1.722 2.337 -2.238 2.441 -2.658 2.313 -2.839 1.991 -2.844 1.68 -2.747 1.184 -2.622 0.602 -2.606 -0.004 -2.312 -0.009 -2.017 -0.081 -1.778 -0.294 -1.453 -0.393 -1.142 -0.571 -0.74 -0.732 0.043 -0.401 0.592" />
    <path class="write-flat-pen" fill="#000000" stroke-width="1.6" __comx="119.3" __comy="287.392" __timestamp="0x1810b3047e0" d="M124.982 283.764 l-0.586 -0.847 -0.414 -0.038 -0.625 0.072 -0.878 1.224 -1.109 1.66 -1.49 2.417 -1.744 3.185 -1.614 3.655 -1.418 3.957 -0.969 4.2 -0.517 4.147 0.01 3.832 0.668 3.301 2.189 2.393 0.616 -0.479 -1.585 -2.461 -0.473 -2.884 0.01 -3.613 0.497 -3.985 0.933 -4.046 1.37 -3.831 1.555 -3.561 1.679 -3.115 1.425 -2.394 1.046 -1.661 0.516 -0.838 0.009 -0.043 -0.161 -0.038 0.456 0.33" />
    <path class="write-flat-pen" fill="#000000" stroke-width="1.6" __comx="200.717" __comy="294.439" __timestamp="0x1810b307bf6" d="M200.642 294.33 l0.114 -0.36 0.053 -0.007 0.332 -0.37 0.31 -0.622 0.244 -0.496 0.359 -0.46 0.129 -0.155 -0.115 0.082 -0.872 0.009 -0.004 -0.619 -0.006 1.088 -0.007 1.738 -0.25 2.45 -0.567 3.018 -0.511 3.46 -0.446 3.629 -0.307 3.519 -0.156 3.332 -0.086 2.701 -0.108 2.335 0.325 0.078 0.984 -2.228 0.294 -2.796 0.225 -3.311 0.326 -3.468 0.442 -3.587 0.504 -3.412 0.574 -3.052 0.257 -2.59 -0.007 -1.813 -0.006 -1.088 -0.004 -0.848 -0.999 0.009 -0.495 0.311 -0.251 0.418 -0.402 0.571 -0.263 0.65 -0.197 0.523 -0.175 0.317 -0.2 0.336 0.114 0.712" />
    <path class="write-flat-pen" fill="#000000" stroke-width="1.6" __comx="138.199" __comy="372.238" __timestamp="0x1810b3081ee" d="M130.672 376.858 l-0.406 -0.455 -0.233 0.861 0.816 -0.05 1.114 -0.092 1.526 -0.155 1.594 -0.164 1.693 -0.226 1.733 -0.417 1.612 -0.663 1.497 -0.858 1.34 -1.208 0.852 -1.478 0.488 -1.575 0.134 -1.535 -0.009 -1.464 -0.745 -1.333 -1.444 -0.883 -1.763 -0.445 -1.751 0 -2.027 0.121 -1.842 1.138 -1.67 1.439 -1.483 1.751 -1.008 1.865 -0.819 1.95 -0.277 2.201 -0.004 1.889 0.067 1.979 1.09 1.775 1.316 1.381 1.648 1.055 1.871 0.785 2.046 0.593 2.1 0.344 2.015 0.148 1.805 0.008 1.595 -0.115 1.665 -0.25 0 -0.542 -1.665 -0.25 -1.574 -0.115 -1.744 -0.107 -1.915 -0.195 -1.956 -0.343 -1.884 -0.553 -1.678 -0.704 -1.395 -0.893 -1.092 -1.139 -0.811 -1.317 -0.06 -1.571 -0.004 -1.776 0.231 -1.923 0.702 -1.715 0.893 -1.685 1.306 -1.57 1.499 -1.31 1.454 -0.924 1.649 -0.108 1.545 0 1.406 0.356 0.965 0.606 0.396 0.729 -0.009 1.056 -0.12 1.329 -0.399 1.289 -0.67 1.156 -1.069 0.968 -1.292 0.745 -1.43 0.597 -1.563 0.385 -1.603 0.232 -1.575 0.18 -1.517 0.189 -1.167 0.137 -0.832 0.294 -0.233 0.861 0.493 0.358" />
    <path class="write-flat-pen" fill="#000000" stroke-width="1.6" __comx="156.374" __comy="368.187" __timestamp="0x1810b3082de" d="M152.319 364.551 l1.181 0.226 0.74 0.408 1.052 0.823 1.32 1.257 1.271 1.698 1.212 2.09 0.907 2.52 0.484 2.803 0 3.069 -0.18 2.953 -1.192 2.816 -1.633 2.538 -2.059 2.187 -2.091 1.837 -2.452 1.532 0.279 0.543 2.781 -1.152 2.346 -1.828 2.251 -2.28 1.79 -2.731 1.344 -3.139 0.2 -3.232 0 -3.231 -0.53 -3.038 -0.994 -2.749 -1.323 -2.262 -1.391 -1.853 -1.469 -1.378 -1.23 -0.895 -1.035 -0.508 -1.386 -0.196" />
    <path class="write-flat-pen" fill="#000000" stroke-width="1.6" __comx="122.671" __comy="367.354" __timestamp="0x1810b3083c0" d="M124.919 363.164 l-1.176 -0.045 -0.688 0.504 -0.692 1.405 -0.497 2.003 -0.529 2.658 -0.462 3.354 -0.324 3.983 -0.128 4.149 0.001 4.166 0.407 3.783 1.31 3.098 1.802 2.251 0.61 -0.425 -1.411 -2.368 -1.099 -2.858 -0.353 -3.547 0.001 -4.081 0.126 -4.098 0.31 -3.92 0.425 -3.289 0.485 -2.61 0.391 -1.891 0.448 -1.115 0.199 -0.183 0.844 -0.045" />
    <path class="write-flat-pen" fill="#000000" stroke-width="1.6" __comx="190.968" __comy="371.354" __timestamp="0x1810b30a5ee" d="M192.982 369.884 l0.053 -0.738 0.034 -0.229 0.036 -0.057 0.026 -0.772 -1.39 -0.012 -0.011 1.169 -0.069 1.331 -0.261 1.96 -0.447 2.554 -0.572 2.964 -0.699 3.329 -0.574 3.417 -0.302 3.267 0.085 2.554 0.428 1.607 0.35 0 0.428 -1.607 0.085 -2.486 0.332 -3.147 0.566 -3.34 0.696 -3.314 0.569 -2.991 0.44 -2.6 0.246 -2.049 0.057 -1.418 -0.011 0.138 -1.263 -0.012 0.026 -0.543 0.036 0.057 0.034 0.229 0.053 0.738" />
  </g>
</svg>
