<svg class="write-page" color-interpolation="linearRGB" width="928px" height="98.912px" xmlns="http://www.w3.org/2000/svg" xmlns:xlink="http://www.w3.org/1999/xlink">
  <g class="write-content write-v3" xruling="0" yruling="40" marginLeft="100" papercolor="#FFFFFF" rulecolor="#9F000023">
    <g class="ruleline write-std-ruling write-scale-down" fill="none" stroke="#000023" stroke-opacity="0.624" stroke-width="1" shape-rendering="crispEdges" vector-effect="non-scaling-stroke">
      <rect class="pagerect" fill="#FFFFFF" stroke="none" x="0" y="0" width="928" height="98.912" />
      <path class="yrule_1" d="M0 40 l928 0" />
      <path d="M0 80 l928 0" />
      <path class="leftmargin" stroke="#FF0000" d="M100 0 l0 98.912" />
    </g>
    <path class="write-stroke-pen" fill="none" stroke="#000000" stroke-width="1.6" stroke-linecap="round" stroke-linejoin="round" __comx="72.566" __comy="19.817" __timestamp="0x1810199e7a6" d="M78.936 16.575 l0 0.172 -0.254 0.573 -0.634 0.916 -0.824 1.432 -1.014 1.718 -1.204 1.947 -1.331 2.176 -1.394 2.233 -1.394 2.291 -1.331 2.291 -1.204 2.062 -0.951 1.833 -0.697 1.26 -0.38 0.744 -0.127 0.229" />
    <path class="write-stroke-pen" fill="none" stroke="#000000" stroke-width="1.6" stroke-linecap="round" stroke-linejoin="round" __comx="76.21" __comy="21.482" __timestamp="0x1810199e896" d="M69.048 17.95 l-0.127 0 0 0.172 0 0.229 0 0.687 0.951 1.26 1.458 1.833 1.711 2.405 1.711 2.692 1.648 2.749 1.521 2.806 1.458 2.52 1.331 2.291 1.077 1.89 0.824 1.317 0.507 0.974 0.254 0.573 0.127 0.229" />
    <path class="write-stroke-pen" fill="none" stroke="#000000" stroke-width="1.6" stroke-linecap="round" stroke-linejoin="round" __comx="73.96" __comy="11.344" __timestamp="0x1810199e99c" d="M73.105 7.642 l-0.063 -0.057 0 0.515 0 1.489 0 2.405 0.317 3.321 0.57 3.894 0.444 4.238 0.38 4.181 0.127 3.837 0 3.608 0 3.15" />
    <path class="write-stroke-pen" fill="none" stroke="#000000" stroke-width="1.6" stroke-linecap="round" stroke-linejoin="round" __comx="127.201" __comy="29.541" __timestamp="0x1810199fd2c" d="M134.078 14.685 l-0.19 0 -0.507 0.115 -0.697 0.63 -0.951 0.859 -1.204 1.203 -1.394 1.489 -1.585 1.603 -1.585 1.603 -1.458 1.489 -1.268 1.26 -1.141 1.031 -0.824 0.744 -0.507 0.401 -0.317 0.229 -0.127 0 0 -0.057" />
    <path class="write-stroke-pen" fill="none" stroke="#000000" stroke-width="1.6" stroke-linecap="round" stroke-linejoin="round" __comx="137.944" __comy="29.541" __timestamp="0x1810199fdf6" d="M134.902 14.857 l0.317 0 0.38 0 0.697 0.344 0.824 0.401 0.824 0.286 0.824 0.229 0.761 0.172 0.57 0.115 0.444 0.115 0.317 0.115 0.127 0.286 0 0.458" />
    <path class="write-stroke-pen" fill="none" stroke="#000000" stroke-width="1.6" stroke-linecap="round" stroke-linejoin="round" __comx="131.067" __comy="29.541" __timestamp="0x1810199fec2" d="M127.613 23.39 l-0.254 0 -0.063 0 0.444 0 1.014 -0.229 1.394 -0.229 1.394 -0.401 1.204 -0.172 1.014 -0.115 0.634 0 0.444 0" />
    <path class="write-stroke-pen" fill="none" stroke="#000000" stroke-width="1.6" stroke-linecap="round" stroke-linejoin="round" __comx="133" __comy="29.541" __timestamp="0x1810199ffee" d="M128.12 26.941 l-0.127 0 0 -0.057 0.57 -0.172 1.204 -0.229 1.521 -0.286 1.711 -0.172 1.585 -0.115 1.394 -0.057 1.077 0 0.634 0 0.254 0 0.063 0 -0.063 0.344 -0.634 0.515 -0.824 0.63 -0.887 0.63 -0.824 0.515 -0.824 0.458 -0.697 0.401 -0.634 0.401 -0.634 0.344 -0.507 0.344 -0.444 0.458 -0.317 0.458" />
    <path class="write-stroke-pen" fill="none" stroke="#000000" stroke-width="1.6" stroke-linecap="round" stroke-linejoin="round" __comx="128.247" __comy="29.541" __timestamp="0x181019a00c0" d="M127.423 33.755 l-0.127 -0.344 0 -0.057 -0.063 -0.057 -0.063 -0.057 0 0.172 0 0.573 0.19 0.687 0.317 0.687 0.254 0.687 0.19 0.573 0.254 0.401 0.254 0.286 0.19 0.115 0.19 0.057 0.317 0" />
    <path class="write-stroke-pen" fill="none" stroke="#000000" stroke-width="1.6" stroke-linecap="round" stroke-linejoin="round" __comx="132.398" __comy="29.541" __timestamp="0x181019a01dc" d="M127.423 33.755 l2.092 -0.401 -0.063 0 0 -0.057 0 -0.057 0.57 -0.115 0.761 -0.229 0.951 -0.286 1.077 -0.172 1.077 -0.229 1.077 -0.057 0.824 0 0.634 0 0.507 0 0.254 0.172 0.19 0.458 0 0.573 0 0.744 0 0.63 0 0.63 -0.317 0.573 -0.38 0.458 -0.38 0.401 -0.507 0.401 -0.507 0.286 -0.38 0.344 -0.57 0.401" />
    <path class="write-stroke-pen" fill="none" stroke="#000000" stroke-width="1.6" stroke-linecap="round" stroke-linejoin="round" __comx="134.87" __comy="29.541" __timestamp="0x181019a0272" d="M129.705 39.196 l0.38 0 1.014 -0.115 1.458 -0.115 1.711 -0.172 1.711 -0.057 1.585 0 1.458 0 1.014 0.057" />
    <path class="write-stroke-pen" fill="none" stroke="#000000" stroke-width="1.6" stroke-linecap="round" stroke-linejoin="round" __comx="166.529" __comy="29.541" __timestamp="0x181019a0b6a" d="M159.494 26.941 l0.444 -0.172 0.507 -0.286 0.761 -0.229 0.887 -0.286 1.268 -0.286 1.458 -0.515 1.711 -0.63 1.901 -0.744 1.838 -0.859 1.521 -0.802 1.077 -0.515 0.57 -0.286 0.127 -0.057" />
    <path class="write-stroke-pen" fill="none" stroke="#000000" stroke-width="1.6" stroke-linecap="round" stroke-linejoin="round" __comx="168.209" __comy="29.541" __timestamp="0x181019a0d52" d="M167.607 17.663 l-0.063 -0.344 0 -0.172 0 -0.057 0 -0.057 0 0.115 0 0.802 0 1.203 0 1.718 0 2.233 0 2.634 0 2.978 0.063 3.15 0.127 3.092 0.127 2.749 0.19 2.233 0.19 1.603 0.127 0.974 0.127 0.515 0.063 0.115 -0.317 -0.344 -0.824 -0.687 -0.887 -0.802 -1.014 -0.916 -1.077 -0.974 -1.141 -0.916 -1.141 -0.859 -0.951 -0.63 -0.824 -0.401 -0.444 -0.286 -0.254 -0.115 -0.063 -0.115 0 -0.057 0 -0.057 0.634 -0.229 1.141 -0.401 1.711 -0.63 2.028 -0.974 2.218 -1.145 2.345 -1.374 2.092 -1.26 1.838 -1.145 1.458 -0.916 1.014 -0.573 0.697 -0.573" />
    <path class="write-stroke-pen" fill="none" stroke="#000000" stroke-width="1.6" stroke-linecap="round" stroke-linejoin="round" __comx="180.378" __comy="29.541" __timestamp="0x181019a0e0e" d="M179.586 16.346 l0.063 -0.515 0.063 -0.344 0 -0.172 0.127 -0.057 0.254 0 0.317 0 0.254 0.458 0.317 0.63 0.19 0.687 0 0.744 0 0.744 0 0.744" />
    <path class="write-stroke-pen" fill="none" stroke="#000000" stroke-width="1.6" stroke-linecap="round" stroke-linejoin="round" __comx="174.737" __comy="29.541" __timestamp="0x181019a0eba" d="M174.198 22.302 l-0.19 0 0 0.401 0 0.63 0 0.687 0 0.63 0.127 0.687 0.38 0.458 0.317 0.344 0.254 0.229 0.19 0.057 0.19 0" />
    <path class="write-stroke-pen" fill="none" stroke="#000000" stroke-width="1.6" stroke-linecap="round" stroke-linejoin="round" __comx="182.089" __comy="29.541" __timestamp="0x181019a0fc0" d="M174.198 22.302 l2.409 1.203 0.254 -0.344 0.38 -0.344 0.507 -0.458 0.697 -0.515 0.887 -0.573 1.141 -0.63 1.331 -0.63 1.585 -0.63 1.521 -0.63 1.394 -0.401 1.141 -0.229 0.824 -0.115 0.697 0 0.507 0 0.254 0.344 0.254 0.974 0 1.26 0 1.432 0 1.432 0 1.203 -0.317 1.031 -0.38 0.802 -0.444 0.573 -0.57 0.515 -0.761 0.401 -0.761 0.344" />
    <path class="write-stroke-pen" fill="none" stroke="#000000" stroke-width="1.6" stroke-linecap="round" stroke-linejoin="round" __comx="180.663" __comy="29.541" __timestamp="0x181019a106e" d="M180.346 26.54 l-0.127 0 -0.063 0 -0.127 0.286 -0.127 0.744 -0.063 0.744 0 0.687 0 0.458 0 0.286 0.444 0 0.57 -0.115 0.634 -0.458" />
    <path class="write-stroke-pen" fill="none" stroke="#000000" stroke-width="1.6" stroke-linecap="round" stroke-linejoin="round" __comx="183.072" __comy="29.541" __timestamp="0x181019a111a" d="M180.346 26.54 l4.563 -1.031 0.063 0 0.063 0.172 0.19 0.63 0.127 0.744 0 0.687 0 0.687 0 0.573 0.063 0.458 0.063 0.286 0.063 0.172 0.063 0.057 0.063 0.057 0.063 0.172 0.063 0.229 0 0.401" />
    <path class="write-stroke-pen" fill="none" stroke="#000000" stroke-width="1.6" stroke-linecap="round" stroke-linejoin="round" __comx="183.167" __comy="29.541" __timestamp="0x181019a11d4" d="M178.635 33.469 l-0.19 -0.229 0.19 -0.172 0.761 -0.286 1.014 -0.286 1.268 -0.172 1.521 -0.057 1.521 -0.057 1.331 0 0.951 0 0.634 0 0.254 0" />
    <path class="write-stroke-pen" fill="none" stroke="#000000" stroke-width="1.6" stroke-linecap="round" stroke-linejoin="round" __comx="188.491" __comy="29.541" __timestamp="0x181019a12f3" d="M187.192 31.98 l-0.38 0 -0.254 0 -0.127 0 -0.063 0.229 0 0.515 0 0.802 0 0.859 0 0.916 0 0.974 0 0.916 -0.19 0.974 -0.444 0.859 -0.57 0.859 -0.634 0.63 -0.697 0.458 -0.57 0.286 -0.444 0.115 -0.317 0.057 -0.19 0.057 0.38 0 1.077 0 1.394 0 1.585 0 1.585 0 1.585 -0.115 1.458 -0.057 1.331 -0.057 1.077 0 0.887 0" />
    <path class="write-stroke-pen" fill="none" stroke="#000000" stroke-width="1.6" stroke-linecap="round" stroke-linejoin="round" __comx="207.854" __comy="29.541" __timestamp="0x181019a1416" d="M209.692 16.174 l-0.063 -0.115 0 -0.057 0 0.344 -0.19 1.145 -0.317 1.603 -0.317 1.775 -0.444 1.603 -0.444 1.317 -0.444 1.031 -0.444 0.687 -0.38 0.458 -0.317 0.229 -0.317 0.057" />
    <path class="write-stroke-pen" fill="none" stroke="#000000" stroke-width="1.6" stroke-linecap="round" stroke-linejoin="round" __comx="213.463" __comy="29.541" __timestamp="0x181019a14b4" d="M206.903 24.134 l0.38 -0.172 0.634 -0.172 1.077 -0.286 1.394 -0.401 1.775 -0.515 2.028 -0.573 1.901 -0.573 1.585 -0.458 1.204 -0.286 0.761 -0.115 0.38 0" />
    <path class="write-stroke-pen" fill="none" stroke="#000000" stroke-width="1.6" stroke-linecap="round" stroke-linejoin="round" __comx="213.653" __comy="29.541" __timestamp="0x181019a1560" d="M209.439 27.628 l-0.507 0.229 -0.19 0.057 0.57 0 1.141 -0.344 1.521 -0.401 1.775 -0.401 1.648 -0.229 1.458 -0.057 1.014 0 0.57 0 0.127 0.229" />
    <path class="write-stroke-pen" fill="none" stroke="#000000" stroke-width="1.6" stroke-linecap="round" stroke-linejoin="round" __comx="215.08" __comy="29.541" __timestamp="0x181019a16ee" d="M208.298 32.553 l-0.254 0 -0.063 0 0 0.057 0 0.458 0 0.63 0.127 0.687 0.38 0.63 0.444 0.515 0.317 0.401 0.317 0.172 0.317 0 0.19 0 0.19 -0.057 0.19 -0.458 0.19 -0.573 0.254 -0.63 0.317 -0.63 0.444 -0.687 0.634 -0.744 0.824 -0.63 0.951 -0.63 1.204 -0.401 1.204 -0.344 1.331 -0.286 1.268 -0.115 1.141 -0.057 0.951 0 0.57 0 0.317 0 0.127 0.458 0 0.916 0 1.088 0 1.26 -0.38 1.26 -0.507 1.088 -0.444 0.916 -0.57 0.63 -0.57 0.458 -0.57 0.172 -0.57 0 -0.444 0 -0.444 -0.057" />
    <path class="write-stroke-pen" fill="none" stroke="#000000" stroke-width="1.6" stroke-linecap="round" stroke-linejoin="round" __comx="214.414" __comy="29.541" __timestamp="0x181019a17fc" d="M213.622 22.016 l-0.254 -2.291 -0.127 -2.004 -0.063 -1.603 0 -1.26 0 -0.744 0 -0.401 0 -0.057 0 0.115 0 1.031 0.063 1.603 0.19 2.119 0.254 2.577 0.317 2.806 0.19 3.092 0.19 3.207 0 3.035 0.063 2.692 0.063 2.233 0.063 1.661 0.127 1.203 0.19 0.744 0.127 0.344 0.127 0.172 0.19 0 0.317 0" />
    <path class="write-stroke-pen" fill="none" stroke="#000000" stroke-width="1.6" stroke-linecap="round" stroke-linejoin="round" __comx="227.946" __comy="29.541" __timestamp="0x181019a18ec" d="M226.615 23.676 l0.38 -0.802 0.254 -0.458 0.127 -0.172 0.063 0 0.063 0 0.19 0.515 0.19 1.088 0.254 1.432 0.127 1.603 0.127 1.603 0.127 1.432 0.127 1.203 0.19 0.916 0.19 0.63 0.063 0.401 0.19 0.115" />
    <path class="write-stroke-pen" fill="none" stroke="#000000" stroke-width="1.6" stroke-linecap="round" stroke-linejoin="round" __comx="233.65" __comy="29.541" __timestamp="0x181019a1a44" d="M234.728 17.091 l0.254 -0.916 0.063 -0.515 0.063 -0.401 0.063 -0.229 0 -0.057 0.127 0 0.254 0.344 0.317 1.031 0.38 1.546 0.38 1.947 0.38 2.176 0.317 2.348 0.254 2.577 0.127 2.749 0.127 2.921 0.063 2.863 0 2.692 0 2.462 0 2.119 0 1.775 0 1.317 0 0.859 -0.127 0.515 -0.254 0.286 -0.317 0.057 -0.697 0 -0.951 0 -1.268 -0.687 -1.521 -0.859 -1.648 -0.974 -1.711 -1.145" />
    <path class="write-stroke-pen" fill="none" stroke="#000000" stroke-width="1.6" stroke-linecap="round" stroke-linejoin="round" __comx="256.594" __comy="29.541" __timestamp="0x181019a206c" d="M255.454 16.804 l0.19 0 0.317 0.344 0.444 0.573 0.444 0.515 0.317 0.515 0.317 0.63 0.19 0.515 0.063 0.63 0 0.744 0 0.687 0 0.458 0 0.401 0 0.172" />
    <path class="write-stroke-pen" fill="none" stroke="#000000" stroke-width="1.6" stroke-linecap="round" stroke-linejoin="round" __comx="260.302" __comy="29.541" __timestamp="0x181019a214c" d="M258.369 19.839 l0.127 -0.63 0.19 -0.573 0.254 -0.458 0.254 -0.286 0.38 -0.229 0.507 -0.057 0.507 0 0.634 0 0.57 0 0.317 0.115 0.127 0.63 0 0.744 0 0.974 -0.634 1.031 -0.761 1.031 -0.824 0.859 -0.697 0.687 -0.507 0.344 -0.254 0.229 -0.063 0 0 -0.172 0.444 -0.573 0.761 -0.63 0.824 -0.515" />
    <path class="write-stroke-pen" fill="none" stroke="#000000" stroke-width="1.6" stroke-linecap="round" stroke-linejoin="round" __comx="271.774" __comy="29.541" __timestamp="0x181019a2216" d="M271.236 14.914 l0.19 -0.286 0.063 0.515 0.19 1.26 0.127 1.661 0.19 1.661 0.063 1.432 0.127 1.145 0.127 0.744 0 0.401 0 0.229" />
    <path class="write-stroke-pen" fill="none" stroke="#000000" stroke-width="1.6" stroke-linecap="round" stroke-linejoin="round" __comx="273.264" __comy="29.541" __timestamp="0x181019a22f0" d="M271.743 17.32 l0.507 -0.63 0.634 -0.515 0.761 -0.515 1.077 -0.401 1.077 -0.229 1.077 -0.115 0.887 0 0.57 0 0.19 0.172 0 0.744 -0.254 0.916 -1.014 1.031 -1.204 0.974 -1.268 0.916 -1.204 0.687 -1.077 0.458 -0.887 0.401 -0.887 0.344 -0.824 0.401 -0.951 0.573 -0.951 0.802" />
    <path class="write-stroke-pen" fill="none" stroke="#000000" stroke-width="1.6" stroke-linecap="round" stroke-linejoin="round" __comx="260.904" __comy="29.541" __timestamp="0x181019a23ba" d="M260.271 27.628 l-0.19 -0.057 -0.19 -0.115 0 0.687 0.063 0.974 0.38 0.974 0.38 0.859 0.254 0.687 0.38 0.401 0.317 0.286 0.254 0.115" />
    <path class="write-stroke-pen" fill="none" stroke="#000000" stroke-width="1.6" stroke-linecap="round" stroke-linejoin="round" __comx="269.429" __comy="29.541" __timestamp="0x181019a24c8" d="M263.947 27.914 l0.063 -0.115 0.063 -0.057 0.38 -0.172 0.57 -0.229 0.951 -0.401 1.268 -0.458 1.458 -0.515 1.458 -0.458 1.458 -0.286 1.268 -0.115 1.014 0 0.634 0 0.38 0.057 0 0.687 0 0.859 0 0.974 -0.57 1.031 -0.634 0.916 -0.634 0.802 -0.57 0.687 -0.507 0.401 -0.507 0.229 -0.507 0 -0.634 0 -0.761 0" />
    <path class="write-stroke-pen" fill="none" stroke="#000000" stroke-width="1.6" stroke-linecap="round" stroke-linejoin="round" __comx="267.781" __comy="29.541" __timestamp="0x181019a2574" d="M263.947 27.914 l0.317 0.974 -0.19 -0.057 0.507 0 1.077 -0.115 1.394 -0.229 1.521 -0.229 1.268 -0.172 0.951 -0.057 0.697 0 0.127 0 0 0.401" />
    <path class="write-stroke-pen" fill="none" stroke="#000000" stroke-width="1.6" stroke-linecap="round" stroke-linejoin="round" __comx="268.352" __comy="29.541" __timestamp="0x181019a261a" d="M264.327 31.579 l-0.57 0 -0.317 0.057 -0.063 0 0.19 0 0.824 -0.057 1.141 -0.229 1.458 -0.286 1.521 -0.172 1.585 0 1.331 0 1.077 0 0.634 0.172 0.19 0.458" />
    <path class="write-stroke-pen" fill="none" stroke="#000000" stroke-width="1.6" stroke-linecap="round" stroke-linejoin="round" __comx="267.813" __comy="29.541" __timestamp="0x181019a26dc" d="M259.193 36.504 l-0.761 0.057 -0.507 0 -0.063 0 0.317 0 1.331 0 1.965 -0.401 2.535 -0.515 2.852 -0.458 2.789 -0.458 2.725 -0.344 2.218 -0.286 1.648 -0.229 1.014 -0.115 0.507 0" />
    <path class="write-stroke-pen" fill="none" stroke="#000000" stroke-width="1.6" stroke-linecap="round" stroke-linejoin="round" __comx="270.253" __comy="29.541" __timestamp="0x181019a27bc" d="M270.285 27.399 l0 -0.286 -0.063 0 -0.127 0 -0.19 0.401 -0.254 1.203 -0.127 1.775 -0.063 2.233 0 2.462 0 2.462 0 2.405 0 2.233 0 1.947 0.254 1.546 0.38 1.26 0.38 0.859 0.57 0.344" />
    <path class="write-stroke-pen" fill="none" stroke="#000000" stroke-width="1.6" stroke-linecap="round" stroke-linejoin="round" __comx="297.539" __comy="29.541" __timestamp="0x181019a28ea" d="M291.518 25.337 l-0.38 -0.115 -0.127 -0.057 0 -0.115 0 -0.229 1.014 -0.458 1.458 -0.573 1.901 -0.515 2.092 -0.401 1.965 -0.229 1.775 -0.115 1.394 -0.057 0.951 0 0.507 0" />
    <path class="write-stroke-pen" fill="none" stroke="#000000" stroke-width="1.6" stroke-linecap="round" stroke-linejoin="round" __comx="297.793" __comy="29.541" __timestamp="0x181019a29a4" d="M289.806 32.324 l0.127 0 1.204 -0.286 1.775 -0.687 2.218 -0.802 2.409 -0.63 2.345 -0.458 2.092 -0.229 1.711 -0.057 1.204 0 0.634 0 0.253 0" />
    <path class="write-stroke-pen" fill="none" stroke="#000000" stroke-width="1.6" stroke-linecap="round" stroke-linejoin="round" __comx="294.623" __comy="29.541" __timestamp="0x181019a2a68" d="M296.018 32.954 l-0.38 0.859 -0.57 1.145 -0.507 1.374 -0.444 1.432 -0.38 1.546 -0.254 1.374 -0.19 1.203 -0.063 0.859 0 0.515 0 0.286 0.444 0" />
    <path class="write-stroke-pen" fill="none" stroke="#000000" stroke-width="1.6" stroke-linecap="round" stroke-linejoin="round" __comx="311.8" __comy="29.541" __timestamp="0x181019a2be6" d="M304.955 33.641 l0 -0.057 -0.127 0.687 -0.38 1.088 -0.38 1.374 -0.254 1.432 -0.127 1.432 0 1.145 0 0.916 0.317 0.687 0.824 0.515 1.077 0.401 1.331 0.286 1.394 0.115 1.521 0 1.585 0 1.711 0 1.648 0 1.458 0 1.331 -0.057 0.824 -0.115 0.634 -0.115 0.317 -0.115 0.127 -0.057 0.063 -0.229 0 -0.458 0.063 -0.573 0 -0.802 0 -0.974 0 -1.031 -0.444 -1.374 -0.57 -1.775 -0.697 -2.176 -0.951 -2.52 -0.951 -2.52 -0.824 -2.233" />
    <path class="write-stroke-pen" fill="none" stroke="#000000" stroke-width="1.6" stroke-linecap="round" stroke-linejoin="round" __comx="345.741" __comy="29.541" __timestamp="0x181019a32ac" d="M350.272 15.773 l0.19 -0.172 0.127 -0.057 0.063 -0.057 0 -0.115 -0.063 0 -0.824 0.286 -1.268 0.744 -1.585 0.974 -1.648 0.974 -1.394 0.916 -1.141 0.687 -0.887 0.515 -0.57 0.401 -0.317 0.229 -0.127 0.115 0 0.057 0 0.057 0 0.286 0.254 0.344 0.317 0.63 0.317 1.088 0.254 1.489 0.127 1.89 0.127 2.233 0 2.405 0 2.462 0 2.348 0 2.004 0 1.546 0 1.145 0 0.63 0 0.286 0 -0.687" />
    <path class="write-stroke-pen" fill="none" stroke="#000000" stroke-width="1.6" stroke-linecap="round" stroke-linejoin="round" __comx="349.48" __comy="29.541" __timestamp="0x181019a33e8" d="M344.568 29.002 l0.063 -0.344 0.19 -0.458 0.57 -0.573 0.634 -0.63 1.014 -0.687 1.141 -0.63 1.077 -0.515 0.951 -0.344 0.697 -0.172 0.57 0 0.38 0 0.317 0.172 0.317 0.744 0.253 0.916 0.19 1.203 0.317 1.374 0.19 1.546 0.254 1.661 0.254 1.661 0.19 1.546 0.127 1.374 0.127 1.088 0 0.802 0 0.515 0 0.229 0 0.057 -0.19 0 -0.697 0" />
    <path class="write-stroke-pen" fill="none" stroke="#000000" stroke-width="1.6" stroke-linecap="round" stroke-linejoin="round" __comx="348.149" __comy="29.541" __timestamp="0x181019a348c" d="M345.392 35.817 l-0.063 -0.057 0 -0.057 0 -0.229 0.697 -0.344 1.204 -0.344 1.204 -0.344 1.268 -0.172 0.824 0 0.444 0" />
    <path class="write-stroke-pen" fill="none" stroke="#000000" stroke-width="1.6" stroke-linecap="round" stroke-linejoin="round" __comx="350.843" __comy="29.541" __timestamp="0x181019a351a" d="M346.343 40.627 l-0.317 0.172 -0.063 0 0.824 -0.458 1.268 -0.687 1.521 -0.859 1.521 -0.974 1.648 -0.802 1.521 -0.859 1.458 -0.859" />
    <path class="write-stroke-pen" fill="none" stroke="#000000" stroke-width="1.6" stroke-linecap="round" stroke-linejoin="round" __comx="364.597" __comy="29.541" __timestamp="0x181019a3720" d="M364.977 14.055 l0 -0.687 0 -0.458 0 -0.172 0 -0.229 -0.063 0.687 -0.57 1.432 -0.824 2.004 -0.824 2.291 -0.824 2.291 -0.887 2.119 -0.761 1.89 -0.697 1.432 -0.444 0.916 -0.254 0.401 0 0.172 0.254 -0.515 0.634 -0.859 0.761 -0.916 1.014 -0.859 0.951 -0.859 0.951 -0.859 1.014 -0.802 0.887 -0.687 0.887 -0.63 0.761 -0.515 0.697 -0.344 0.57 -0.115 0.507 0 0.444 0 0.444 0.802 0.254 1.317 0.19 1.718 0.063 2.062 0.063 2.176 0.063 2.233 0.063 2.119 0.063 1.947 0 1.661 0 1.489 0 1.203 0 1.031 0 0.859 -0.19 0.744 -0.254 0.458 -0.254 0.286 -0.19 0.057 -0.444 0 -0.444 0 -0.634 -0.401 -0.887 -0.687" />
    <path class="write-stroke-pen" fill="none" stroke="#000000" stroke-width="1.6" stroke-linecap="round" stroke-linejoin="round" __comx="364.914" __comy="29.541" __timestamp="0x181019a37a0" d="M360.984 33.584 l0 -0.057 0 -0.115 0.063 -0.229 0.697 -0.401 1.077 -0.401 1.521 -0.401 1.585 -0.286 1.521 -0.115 1.394 0" />
    <path class="write-stroke-pen" fill="none" stroke="#000000" stroke-width="1.6" stroke-linecap="round" stroke-linejoin="round" __comx="394.101" __comy="29.541" __timestamp="0x181019a3d40" d="M394.449 11.593 l0 0.401 0 0.859 -0.19 0.974 -0.507 1.203 -0.634 1.26 -0.697 1.432 -0.57 1.317 -0.507 1.031 -0.254 0.687 -0.063 0.286 0 0.115 0.634 0 0.824 -0.115 0.761 -0.515 0.824 -0.573 0.761 -0.63 0.57 -0.63 0.697 -0.573 0.507 -0.515 0.253 -0.286 0.127 -0.229 0.063 -0.115 0.063 0 0.063 0 0 0.458 0 0.687 -0.063 0.63" />
    <path class="write-stroke-pen" fill="none" stroke="#000000" stroke-width="1.6" stroke-linecap="round" stroke-linejoin="round" __comx="399.583" __comy="29.541" __timestamp="0x181019a3dce" d="M396.034 20.126 l-0.127 0.172 -0.127 0.229 -0.063 0.286 0 0.286 0 0.458 0 0.515 0 0.458 0.127 0.344 0.444 0.286 0.697 0.057 0.951 0 1.141 0 1.204 -0.63 1.268 -0.802 1.077 -0.687 0.824 -0.63" />
    <path class="write-stroke-pen" fill="none" stroke="#000000" stroke-width="1.6" stroke-linecap="round" stroke-linejoin="round" __comx="409.693" __comy="29.541" __timestamp="0x181019a3fbe" d="M408.457 12.223 l0 0.401 -0.063 0.802 -0.444 0.916 -0.444 0.916 -0.317 0.687 -0.317 0.573 -0.38 0.401 -0.317 0.344 -0.38 0.172 -0.317 0.229 -0.127 0.286 -0.063 0.229 0 0.229 0 0.229 0.063 0.172 0.634 0.057 0.761 0 0.951 0 0.887 -0.172 1.077 -0.744 1.077 -0.802 1.077 -0.916 1.014 -0.63 0.697 -0.458 0.444 -0.229 0.127 0 -0.063 0 -0.57 0.229 -0.697 0.515 -0.57 0.515 -0.38 0.515 -0.317 0.573 -0.063 0.515 0 0.515 0 0.458 0 0.344 0 0.344 0 0.229 0 0.229 0.063 0.172 0.19 0.344 0.19 0.401 0.38 0.458 0.444 0.573 0.38 0.573 0.444 0.515 0.19 0.573" />
    <path class="write-stroke-pen" fill="none" stroke="#000000" stroke-width="1.6" stroke-linecap="round" stroke-linejoin="round" __comx="399.488" __comy="29.541" __timestamp="0x181019a4180" d="M394.766 30.319 l0 -0.115 0 -0.344 0.697 -0.458 1.014 -0.573 1.331 -0.744 1.458 -0.63 1.521 -0.63 1.331 -0.401 1.014 -0.286 0.697 -0.115 0.254 0 0.127 0 0 0.63 -0.19 0.916 -0.57 1.088 -0.38 1.088 -0.254 0.974 -0.127 0.859 -0.127 0.802 -0.127 0.573 -0.254 0.573 -0.127 0.401 -0.254 0.229 -0.253 0.172" />
    <path class="write-stroke-pen" fill="none" stroke="#000000" stroke-width="1.6" stroke-linecap="round" stroke-linejoin="round" __comx="400.471" __comy="29.541" __timestamp="0x181019a422d" d="M397.175 33.297 l-0.063 -0.172 0.317 -0.172 0.697 -0.286 1.077 -0.401 1.141 -0.401 1.204 -0.344 1.014 -0.172 0.697 -0.172 0.444 0 0.127 0 0 0.115" />
    <path class="write-stroke-pen" fill="none" stroke="#000000" stroke-width="1.6" stroke-linecap="round" stroke-linejoin="round" __comx="400.819" __comy="29.541" __timestamp="0x181019a42c3" d="M399.013 34.156 l-0.634 0.172 -0.317 0.115 -0.063 0.057 0.254 0 0.824 -0.229 1.141 -0.401 1.014 -0.401 0.951 -0.286 0.697 -0.229 0.444 -0.172 0.317 -0.115 0 -0.057" />
    <path class="write-stroke-pen" fill="none" stroke="#000000" stroke-width="1.6" stroke-linecap="round" stroke-linejoin="round" __comx="398.442" __comy="29.541" __timestamp="0x181019a439c" d="M398.569 27.456 l-0.127 -0.286 -0.127 0.802 -0.127 1.317 -0.127 1.775 0 2.176 -0.127 2.462 -0.063 2.52 -0.063 2.462 0 2.119 0 1.718 0 1.26 0.063 0.802 0.317 0.458 0.38 0 0.507 0" />
    <path class="write-stroke-pen" fill="none" stroke="#000000" stroke-width="1.6" stroke-linecap="round" stroke-linejoin="round" __comx="410.96" __comy="29.541" __timestamp="0x181019a447c" d="M411.182 27.112 l0 0.115 0 0.687 -0.063 0.916 -0.19 0.916 -0.127 0.744 -0.063 0.515 0 0.286 0 0.115 0 -0.515 0 -0.744" />
    <path class="write-stroke-pen" fill="none" stroke="#000000" stroke-width="1.6" stroke-linecap="round" stroke-linejoin="round" __comx="416.253" __comy="29.541" __timestamp="0x181019a459a" d="M411.182 27.112 l0.254 0.172 0.317 -0.515 0.19 -0.458 0.38 -0.344 0.317 -0.286 0.38 -0.286 0.57 -0.286 0.697 -0.401 0.761 -0.286 0.887 -0.229 0.824 -0.172 0.761 -0.057 0.634 0 0.507 0 0.444 0 0.38 0.458 0.38 0.974 0.254 1.489 0.254 2.004 0.19 2.348 0.253 2.52 0.19 2.52 0.19 2.233 0.127 1.947 0 1.661 0 1.374 0 1.145 0 0.916 -0.127 0.573 -0.127 0.229 -0.127 0 -0.127 -0.229 -0.127 -0.916 -0.254 -1.031 -0.254 -1.26" />
    <path class="write-stroke-pen" fill="none" stroke="#000000" stroke-width="1.6" stroke-linecap="round" stroke-linejoin="round" __comx="415.714" __comy="29.541" __timestamp="0x181019a46b6" d="M413.591 28.716 l-0.57 -0.515 -0.317 -0.344 -0.19 -0.115 -0.063 -0.057 0.127 0 0.761 0 1.014 0 1.204 0 1.204 0 1.077 0 0.761 0 0.38 0.115 0 0.229 0 0.344 -0.824 0.573 -1.077 0.63 -1.014 0.63 -0.887 0.515 -0.57 0.401 -0.19 0.115 -0.063 0.057 0.38 0 0.761 0 0.824 0 0.697 0 0.507 0" />
    <path class="write-stroke-pen" fill="none" stroke="#000000" stroke-width="1.6" stroke-linecap="round" stroke-linejoin="round" __comx="405.414" __comy="29.541" __timestamp="0x181019a47a6" d="M404.654 36.332 l-0.063 -0.172 0 0.057 0 0.573 0.19 0.687 0.063 0.859 0.063 1.031 0 0.859 0 0.802 0.127 0.63 0.19 0.344 0.19 0.229 0.254 0 0.19 0 0.19 0 0.19 -0.115" />
    <path class="write-stroke-pen" fill="none" stroke="#000000" stroke-width="1.6" stroke-linecap="round" stroke-linejoin="round" __comx="411.087" __comy="29.541" __timestamp="0x181019a48a6" d="M407.316 38.05 l0.127 -0.344 0.254 -0.344 0.253 -0.344 0.38 -0.344 0.57 -0.344 0.634 -0.344 0.761 -0.286 0.761 -0.229 0.634 0 0.634 0 0.444 0 0.38 0 0.254 0.057 0.19 0.573 0.253 0.802 0.19 1.031 0.19 0.974 0.19 1.031 0.19 0.974 0.127 0.859 0.063 0.63 0.063 0.515 0 0.401 0 0.229 0 0.172 0 0.057" />
    <path class="write-stroke-pen" fill="none" stroke="#000000" stroke-width="1.6" stroke-linecap="round" stroke-linejoin="round" __comx="413.844" __comy="29.541" __timestamp="0x181019a49b4" d="M410.612 40.169 l-0.254 -0.286 -0.063 -0.057 0 -0.057 0.19 0 0.634 0 0.761 -0.057 0.697 0 0.507 0 0.254 0 0 0.172 0 0.458 -0.127 0.573 -0.697 0.515 -0.57 0.458 -0.634 0.344 -0.444 0.286 -0.19 0.172 0 0.115 0 0.172 0.19 0 0.887 0 1.204 0 1.521 -0.458 1.521 -0.344 1.394 -0.229" />
    <path class="write-stroke-pen" fill="none" stroke="#000000" stroke-width="1.6" stroke-linecap="round" stroke-linejoin="round" __comx="438.785" __comy="29.541" __timestamp="0x181019a4ee4" d="M437.486 18.064 l-0.063 -0.286 0 -0.172 0.19 0 0.507 0 0.57 0.63 0.507 0.859 0.38 0.974 0.254 1.031 0.19 0.916 0.127 0.859 0 0.573 0 0.286 0 0.057" />
    <path class="write-stroke-pen" fill="none" stroke="#000000" stroke-width="1.6" stroke-linecap="round" stroke-linejoin="round" __comx="443.031" __comy="29.541" __timestamp="0x181019a4fd6" d="M440.781 17.892 l0.19 -0.172 0.254 -0.229 0.444 -0.286 0.634 -0.286 0.761 -0.286 0.887 0 0.697 0 0.444 0.057 0.19 0.63 0 0.916 0 1.203 -0.634 1.26 -0.887 1.374 -0.887 1.088 -0.824 0.744 -0.444 0.458 -0.19 0.229 0.254 0 0.824 -0.458 0.887 -0.573 0.887 -0.573" />
    <path class="write-stroke-pen" fill="none" stroke="#000000" stroke-width="1.6" stroke-linecap="round" stroke-linejoin="round" __comx="452.634" __comy="29.541" __timestamp="0x181019a508e" d="M451.429 16.804 l0 -0.057 0.063 0 0.19 0.802 0.253 1.088 0.317 1.203 0.38 1.203 0.444 0.802 0.317 0.515 0.254 0.286 0.19 0" />
    <path class="write-stroke-pen" fill="none" stroke="#000000" stroke-width="1.6" stroke-linecap="round" stroke-linejoin="round" __comx="457.292" __comy="29.541" __timestamp="0x181019a5186" d="M453.648 17.148 l0 -0.63 0.317 -0.515 0.697 -0.458 0.951 -0.286 1.141 -0.286 1.204 -0.057 1.141 0 1.014 0 0.57 0 0.253 0.63 0 0.859 -0.253 1.031 -0.887 1.031 -1.077 0.916 -1.014 0.744 -0.697 0.515 -0.317 0.344 -0.063 0.172 0.761 0 0.824 -0.115 0.761 0 0.507 0 0.127 0" />
    <path class="write-stroke-pen" fill="none" stroke="#000000" stroke-width="1.6" stroke-linecap="round" stroke-linejoin="round" __comx="445.44" __comy="29.541" __timestamp="0x181019a5250" d="M444.965 29.346 l-0.19 0 0 0.286 0.063 0.63 0.38 0.63 0.38 0.573 0.317 0.401 0.127 0.229 0.063 0.172" />
    <path class="write-stroke-pen" fill="none" stroke="#000000" stroke-width="1.6" stroke-linecap="round" stroke-linejoin="round" __comx="452.222" __comy="29.541" __timestamp="0x181019a535e" d="M444.965 29.346 l1.141 0 0 -0.172 0 -0.229 0.444 -0.286 0.824 -0.401 1.204 -0.401 1.394 -0.458 1.585 -0.515 1.648 -0.458 1.775 -0.401 1.585 -0.286 1.331 -0.229 1.014 -0.057 0.444 0 0.127 0 0 0.344 0 0.744 -0.38 0.916 -0.444 0.974 -0.507 0.916 -0.444 0.916 -0.507 0.916 -0.507 0.859 -0.57 0.744 -0.507 0.573 -0.507 0.344 -0.57 0.172 -0.697 0" />
    <path class="write-stroke-pen" fill="none" stroke="#000000" stroke-width="1.6" stroke-linecap="round" stroke-linejoin="round" __comx="451.778" __comy="29.541" __timestamp="0x181019a540c" d="M447.753 31.121 l-0.317 -0.115 -0.19 -0.057 0 -0.115 0.444 -0.229 0.951 -0.286 1.268 -0.344 1.648 -0.229 1.458 -0.172 1.394 -0.057 1.077 0 0.634 0 0.19 0 0 0.344" />
    <path class="write-stroke-pen" fill="none" stroke="#000000" stroke-width="1.6" stroke-linecap="round" stroke-linejoin="round" __comx="452.285" __comy="29.541" __timestamp="0x181019a54a8" d="M448.134 33.755 l-0.507 0.115 -0.19 0 -0.063 0 0.063 0 0.887 0 1.394 -0.172 1.585 -0.229 1.585 -0.229 1.521 -0.172 1.394 -0.057 0.951 0 0.444 0 0 0.229" />
    <path class="write-stroke-pen" fill="none" stroke="#000000" stroke-width="1.6" stroke-linecap="round" stroke-linejoin="round" __comx="454.218" __comy="29.541" __timestamp="0x181019a555d" d="M444.774 38.566 l-0.38 0.057 -0.19 0 0.127 0 1.141 -0.344 1.711 -0.401 2.155 -0.401 2.282 -0.458 2.535 -0.401 2.409 -0.401 2.472 -0.401 2.092 -0.286 1.585 -0.286 1.077 -0.286 0.444 -0.172" />
    <path class="write-stroke-pen" fill="none" stroke="#000000" stroke-width="1.6" stroke-linecap="round" stroke-linejoin="round" __comx="453.204" __comy="29.541" __timestamp="0x181019a563e" d="M454.282 29.632 l-0.19 -0.344 -0.19 -0.172 -0.317 0 -0.254 0 -0.38 0.172 -0.38 0.916 -0.254 1.374 -0.19 1.833 0 2.062 0 2.348 0 2.405 0.317 2.291 0.444 2.291 0.38 2.233 0.19 2.062 0.127 1.775" />
    <path class="write-stroke-pen" fill="none" stroke="#000000" stroke-width="1.6" stroke-linecap="round" stroke-linejoin="round" __comx="488.413" __comy="29.541" __timestamp="0x181019a5fa6" d="M485.719 21.271 l0.444 -0.172 0.824 -0.401 0.951 -0.286 1.014 -0.115 0.824 -0.115 0.634 0 0.444 0 0.253 0 0 0.229" />
    <path class="write-stroke-pen" fill="none" stroke="#000000" stroke-width="1.6" stroke-linecap="round" stroke-linejoin="round" __comx="488.349" __comy="29.541" __timestamp="0x181019a604a" d="M483.881 26.425 l0.19 0 1.014 -0.286 1.268 -0.401 1.521 -0.286 1.521 -0.172 1.268 -0.172 0.951 -0.229 0.697 -0.344 0.507 -0.458" />
    <path class="write-stroke-pen" fill="none" stroke="#000000" stroke-width="1.6" stroke-linecap="round" stroke-linejoin="round" __comx="500.202" __comy="29.541" __timestamp="0x181019a61ee" d="M495.543 12.567 l0.317 -0.458 0.127 -0.286 0.063 -0.115 0.063 -0.057 0.063 0 0 0.401 0 1.088 0 1.432 -0.19 1.374 -0.38 1.317 -0.38 1.145 -0.253 0.916 -0.254 0.573 -0.127 0.286 0 0.057 0 -0.458 0.57 -0.859 0.634 -0.859 0.761 -0.974 0.824 -1.031 0.951 -0.916 1.268 -0.916 1.268 -0.802 1.268 -0.63 1.204 -0.458 0.951 -0.286 0.697 -0.115 0.507 0 0.317 0 0 0.401 0 1.031 0 1.145 -0.127 1.317 -0.507 1.432 -0.697 1.374 -0.57 1.203 -0.57 1.088 -0.38 0.744 -0.507 0.515 -0.57 0.515 -0.761 0.401" />
    <path class="write-stroke-pen" fill="none" stroke="#000000" stroke-width="1.6" stroke-linecap="round" stroke-linejoin="round" __comx="496.114" __comy="29.541" __timestamp="0x181019a62aa" d="M498.839 19.61 l-0.063 -0.458 0 -0.229 -0.063 -0.229 0 -0.115 0 0.115 -0.063 1.088 -0.19 1.489 -0.507 1.661 -0.697 1.489 -0.887 1.26 -0.951 1.031 -0.761 0.859 -0.57 0.573 -0.444 0.286 -0.254 0" />
    <path class="write-stroke-pen" fill="none" stroke="#000000" stroke-width="1.6" stroke-linecap="round" stroke-linejoin="round" __comx="500.994" __comy="29.541" __timestamp="0x181019a632a" d="M497.698 24.936 l1.014 0 1.141 0 1.141 0 1.268 0 0.951 0 0.634 0 0.38 0.115 0.063 0.458 0 0.401" />
    <path class="write-stroke-pen" fill="none" stroke="#000000" stroke-width="1.6" stroke-linecap="round" stroke-linejoin="round" __comx="492.216" __comy="29.541" __timestamp="0x181019a63ec" d="M491.613 30.491 l0 0.344 0 0.687 0 0.974 0 1.26 0.127 1.203 0.063 1.145 0.19 0.916 0.127 0.63 0.19 0.401 0.127 0.057 0.19 0 0.19 0" />
    <path class="write-stroke-pen" fill="none" stroke="#000000" stroke-width="1.6" stroke-linecap="round" stroke-linejoin="round" __comx="498.237" __comy="29.541" __timestamp="0x181019a6510" d="M493.705 32.095 l0.19 -0.344 0.317 -0.458 0.444 -0.458 0.634 -0.401 0.887 -0.458 1.077 -0.401 1.268 -0.401 1.331 -0.286 1.077 -0.229 0.887 -0.115 0.38 0 0.254 0 0.19 0.115 0.063 0.687 0 0.916 0 1.088 0 1.088 0 1.203 0 1.145 0 1.088 0.063 1.031 0 0.859 0 0.515 0 0.344 0 0.172 -0.127 0 -0.634 0" />
    <path class="write-stroke-pen" fill="none" stroke="#000000" stroke-width="1.6" stroke-linecap="round" stroke-linejoin="round" __comx="498.807" __comy="29.541" __timestamp="0x181019a665a" d="M495.797 35.359 l-0.127 -0.115 0 -0.172 0 -0.229 0.38 -0.229 0.951 -0.344 1.204 -0.229 1.204 -0.057 1.077 0 0.761 0 0.317 0 0.063 0.229 0 0.458 -0.507 0.63 -1.014 0.573 -1.141 0.458 -1.141 0.344 -0.951 0.229 -0.697 0.172 -0.38 0.057 -0.19 0 0.507 0 0.887 -0.115 1.014 -0.115 1.077 -0.057 1.077 0 0.824 0 0.697 0 0.317 0 0 0.286 0 0.344" />
    <path class="write-stroke-pen" fill="none" stroke="#000000" stroke-width="1.6" stroke-linecap="round" stroke-linejoin="round" __comx="497.54" __comy="29.541" __timestamp="0x181019a6768" d="M494.149 40.914 l-0.38 0.115 -0.19 0.115 0.254 -0.115 0.951 -0.458 1.141 -0.458 1.204 -0.401 1.141 -0.286 1.141 -0.229 0.951 -0.115 0.634 0 0.38 0 0.127 0 0 0.458 -0.697 0.687 -0.761 0.916 -0.697 0.974 -0.697 0.916 -0.697 0.916 -0.634 0.687 -0.444 0.573 -0.38 0.286 -0.127 0.115 0 -0.286" />
    <path class="write-stroke-pen" fill="none" stroke="#000000" stroke-width="1.6" stroke-linecap="round" stroke-linejoin="round" __comx="505.621" __comy="29.541" __timestamp="0x181019a67e8" d="M501.374 42.918 l0.57 0 0.507 0.229 0.697 0.458 0.824 0.515 0.824 0.458 0.951 0.344 1.014 0.344 1.077 0.172 1.077 0.115 0.951 0.115" />
    <path class="write-stroke-pen" fill="none" stroke="#000000" stroke-width="1.6" stroke-linecap="round" stroke-linejoin="round" __comx="527.931" __comy="29.541" __timestamp="0x181019a68f6" d="M521.149 28.258 l-0.063 -0.115 0 -0.172 0.127 -0.172 1.077 -0.286 1.585 -0.401 1.965 -0.344 2.028 -0.401 2.028 -0.286 1.711 -0.286 1.521 -0.286 1.077 -0.172 0.507 -0.229 0.063 -0.057" />
    <path class="write-stroke-pen" fill="none" stroke="#000000" stroke-width="1.6" stroke-linecap="round" stroke-linejoin="round" __comx="529.674" __comy="29.541" __timestamp="0x181019a69de" d="M528.882 20.011 l0 -0.057 0 0.229 0 1.031 0 1.546 0.317 2.062 0.254 2.52 0.317 2.863 0.254 2.978 0.19 2.921 0.127 2.634 0.063 2.233 0.063 1.718 0 1.145 0 0.515 0 0.115 -0.127 -0.344" />
    <path class="write-stroke-pen" fill="none" stroke="#000000" stroke-width="1.6" stroke-linecap="round" stroke-linejoin="round" __comx="527.551" __comy="29.541" __timestamp="0x181019a6b5e" d="M524.382 22.932 l0 -0.172 0.063 -0.057 0.57 -0.057 0.887 -0.115 1.077 0 1.331 0 1.458 0 1.394 0 1.268 -0.115 0.951 -0.057 0.57 -0.115 0.253 -0.115 0.127 0 -0.127 0 -0.253 0.286 -0.38 0.229 -0.127 0.229 -0.19 0.229 -0.19 0.172 -0.127 0.344 -0.38 0.573 -0.507 0.916 -0.697 1.26 -0.951 1.489 -1.204 1.833 -1.458 1.89 -1.521 2.004 -1.521 1.833 -1.394 1.603 -1.077 1.203 -0.761 0.744 -0.507 0.401 -0.19 0 0 -0.401" />
    <path class="write-stroke-pen" fill="none" stroke="#000000" stroke-width="1.6" stroke-linecap="round" stroke-linejoin="round" __comx="533.16" __comy="29.541" __timestamp="0x181019a6bf4" d="M529.769 33.927 l0.887 0.744 0.887 0.859 0.887 0.859 0.824 0.859 0.761 0.687 0.634 0.515 0.57 0.344 0.444 0.115 0.317 0 0.253 0 0.317 0" />
    <path class="write-stroke-pen" fill="none" stroke="#000000" stroke-width="1.6" stroke-linecap="round" stroke-linejoin="round" __comx="539.688" __comy="29.541" __timestamp="0x181019a6cae" d="M538.896 21.672 l0 -0.286 0.063 -0.057 0.063 0 0.127 0 0.317 0 0.317 0.286 0.38 0.573 0.253 0.687 0.063 0.63 0 0.687 -0.063 0.687 -0.951 0.573" />
    <path class="write-stroke-pen" fill="none" stroke="#000000" stroke-width="1.6" stroke-linecap="round" stroke-linejoin="round" __comx="538.738" __comy="29.541" __timestamp="0x181019a6d4c" d="M533.952 28.143 l-0.254 0.172 -0.063 0 0.254 0 1.014 0 1.394 -0.229 1.521 -0.229 1.585 -0.115 1.458 0 1.331 0 0.951 0.286 0.634 0.573 0.063 0.63 0 0.802" />
    <path class="write-stroke-pen" fill="none" stroke="#000000" stroke-width="1.6" stroke-linecap="round" stroke-linejoin="round" __comx="542.287" __comy="29.541" __timestamp="0x181019a6df3" d="M539.023 32.954 l-1.521 0.401 -1.268 0.172 -0.824 0.115 -0.317 0.057 -0.127 0 0.127 0 0.951 0 1.458 -0.286 1.711 -0.458 1.775 -0.401 1.775 -0.458 1.648 -0.401 1.585 -0.401 1.394 -0.344 1.077 -0.344 0.761 -0.286 0.38 -0.229" />
    <path class="write-stroke-pen" fill="none" stroke="#000000" stroke-width="1.6" stroke-linecap="round" stroke-linejoin="round" __comx="544.949" __comy="29.541" __timestamp="0x181019a6eda" d="M543.84 18.007 l0 -0.458 0 -0.229 0 -0.115 0 -0.115 0 0.057 0 1.088 0.063 2.176 0.444 3.092 0.444 3.551 0.317 4.009 0.317 3.78 0.063 3.665 0.063 3.264 0.063 3.035 0.254 2.692 0.19 2.176" />
    <path class="write-stroke-pen" fill="none" stroke="#000000" stroke-width="1.6" stroke-linecap="round" stroke-linejoin="round" __comx="572.964" __comy="29.541" __timestamp="0x181019a7402" d="M572.425 22.875 l-0.127 -0.229 0 -0.115 0 -0.057 0 -0.172 0.19 0 0.317 0.573 0.38 1.088 0.253 1.203 0.19 1.317 0 1.145 0 0.802 0 0.515 0 0.115 0 -0.515" />
    <path class="write-stroke-pen" fill="none" stroke="#000000" stroke-width="1.6" stroke-linecap="round" stroke-linejoin="round" __comx="576.608" __comy="29.541" __timestamp="0x181019a75be" d="M573.249 24.593 l0 -0.573 0 -0.458 0 -0.401 0.317 -0.286 0.697 -0.344 0.887 -0.401 1.077 -0.344 1.141 -0.458 1.141 -0.286 0.887 -0.172 0.507 0 0.063 0 0 0.63 -0.38 1.031 -0.824 1.145 -0.824 1.031 -0.761 0.687 -0.57 0.515 -0.317 0.286 -0.19 0.172 -0.063 0.057 0 0.057 0 0.057 0 0.057 0 0.115 0 0.229 0 0.286 0 0.401 0 0.458 0 0.687 0 0.859 0 1.145 0 1.317 0 1.374 0 1.317 0 1.088 0.127 0.916 0.063 0.802 0 0.573 0 0.458 0 0.229 0 0.115 0 -0.057 0 -0.286 -0.19 -0.344 -0.063 -0.401 0 -0.344 0 -0.286" />
    <path class="write-stroke-pen" fill="none" stroke="#000000" stroke-width="1.6" stroke-linecap="round" stroke-linejoin="round" __comx="579.587" __comy="29.541" __timestamp="0x181019a766a" d="M575.974 36.218 l0 -0.286 0.19 -0.229 0.38 -0.286 0.507 -0.286 0.57 -0.401 0.57 -0.401 0.57 -0.344 0.444 -0.344 0.444 -0.344 0.317 -0.229 0.38 -0.344 0.507 -0.286 0.57 -0.344 0.697 -0.286 0.634 -0.229 0.317 -0.115 0.127 0" />
    <path class="write-stroke-pen" fill="none" stroke="#000000" stroke-width="1.6" stroke-linecap="round" stroke-linejoin="round" __comx="577.495" __comy="29.541" __timestamp="0x181019a77c2" d="M570.967 35.015 l-0.253 -0.573 -0.063 -0.344 0 -0.115 0 -0.057 0.317 0.515 0.507 0.916 0.444 1.145 0.19 1.203 0.19 1.145 0.063 0.974 0.063 0.744 0 0.573 0 0.286 0 0.115 0.063 0 0.317 -0.115 0.634 -0.63 1.014 -0.687 1.204 -0.859 1.268 -0.744 1.331 -0.744 1.204 -0.744 1.204 -0.744 1.268 -0.687 1.268 -0.573 1.141 -0.573" />
    <path class="write-stroke-pen" fill="none" stroke="#000000" stroke-width="1.6" stroke-linecap="round" stroke-linejoin="round" __comx="590.33" __comy="29.541" __timestamp="0x181019a7976" d="M593.531 14.743 l0.063 -0.401 0.063 -0.115 0 0.458 -0.38 1.031 -0.761 1.432 -0.951 1.489 -1.077 1.489 -1.077 1.317 -1.014 0.974 -0.761 0.687 -0.444 0.344 -0.19 0.172 0.38 -0.172 1.077 -0.573 1.204 -0.63 1.268 -0.63 1.204 -0.63 1.204 -0.573 1.141 -0.515 1.014 -0.344 0.761 -0.115 0.317 0 0 0.344 0 1.317 -0.57 1.718 -1.014 2.004 -1.394 2.176 -1.521 2.062 -1.585 2.062 -1.521 1.89 -1.331 1.603 -1.141 1.203 -0.951 0.744 -0.634 0.286 -0.507 0 -0.317 -0.115" />
    <path class="write-stroke-pen" fill="none" stroke="#000000" stroke-width="1.6" stroke-linecap="round" stroke-linejoin="round" __comx="595.718" __comy="29.541" __timestamp="0x181019a7a2a" d="M587.953 28.429 l0.317 0 0.697 0.172 0.887 0.515 1.204 0.859 1.458 0.974 1.521 0.974 1.711 0.974 1.901 0.859 1.901 0.744 1.838 0.687 1.268 0.687 0.761 0.515 0.063 0.573 0 0.515" />
    <path class="write-stroke-pen" fill="none" stroke="#000000" stroke-width="1.6" stroke-linecap="round" stroke-linejoin="round" __comx="591.281" __comy="29.541" __timestamp="0x181019a7b04" d="M590.552 36.733 l0 -0.057 0 0.286 0 0.744 0.063 0.859 0.254 0.802 0.127 0.687 0.19 0.401 0.19 0.229 0.253 0.115 0.19 0 0.19 0" />
    <path class="write-stroke-pen" fill="none" stroke="#000000" stroke-width="1.6" stroke-linecap="round" stroke-linejoin="round" __comx="594.83" __comy="29.541" __timestamp="0x181019a7c12" d="M590.552 36.733 l2.852 0.515 0.063 -0.115 0.127 -0.172 0.19 0 0.444 0 0.444 0 0.57 0 0.444 0.057 0.317 0.344 0.253 0.401 0.063 0.458 0 0.687 0 0.687 -0.57 0.744 -0.887 0.744 -0.887 0.458 -0.824 0.286 -0.57 0.229 -0.253 0.057 -0.127 0 0.254 0 0.887 0 1.014 0 1.268 -0.172 1.204 -0.458 1.204 -0.344 1.077 -0.458" />
    <path class="write-stroke-pen" fill="none" stroke="#000000" stroke-width="1.6" stroke-linecap="round" stroke-linejoin="round" __comx="616.634" __comy="29.541" __timestamp="0x181019a7d7a" d="M620.278 15.659 l0.063 0 0 0.573 -0.317 1.145 -0.951 1.546 -1.141 1.775 -1.204 1.432 -1.204 1.317 -0.951 1.088 -0.761 0.802 -0.507 0.458 -0.317 0.229 -0.063 0" />
    <path class="write-stroke-pen" fill="none" stroke="#000000" stroke-width="1.6" stroke-linecap="round" stroke-linejoin="round" __comx="618.44" __comy="29.541" __timestamp="0x181019a7e6a" d="M623.701 19.61 l0.254 -0.229 0.127 -0.172 0 -0.115 0 0.458 -0.761 1.145 -1.268 1.489 -1.648 1.718 -1.711 1.775 -1.648 1.775 -1.394 1.661 -1.077 1.603 -0.887 1.203 -0.57 0.802 -0.254 0.344 -0.063 0 0 -0.744 0.57 -0.916" />
    <path class="write-stroke-pen" fill="none" stroke="#000000" stroke-width="1.6" stroke-linecap="round" stroke-linejoin="round" __comx="619.422" __comy="29.541" __timestamp="0x181019a7f00" d="M617.426 28.716 l0.444 0.229 0.507 0.916 0.507 1.317 0.634 1.661 0.634 1.718 0.444 1.718 0.317 1.603 0.19 1.432 0.063 1.26 0.063 1.031 0 0.63 0.063 0.401 0 0.057 0.127 0" />
    <path class="write-stroke-pen" fill="none" stroke="#000000" stroke-width="1.6" stroke-linecap="round" stroke-linejoin="round" __comx="633.24" __comy="29.541" __timestamp="0x181019a7fe8" d="M627.757 21.042 l0.444 -0.115 0.761 -0.172 1.077 -0.229 1.331 -0.172 1.394 -0.229 1.458 -0.172 1.268 -0.115 1.268 0 1.014 0 0.697 0 0.253 0.115 0 0.344" />
    <path class="write-stroke-pen" fill="none" stroke="#000000" stroke-width="1.6" stroke-linecap="round" stroke-linejoin="round" __comx="630.451" __comy="29.541" __timestamp="0x181019a80c8" d="M629.912 22.588 l-0.254 0.115 -0.444 0.687 -0.634 1.145 -0.697 1.317 -0.634 1.26 -0.38 1.145 -0.127 0.802 0 0.573 0 0.401 0.063 0.286 0.634 0.172 0.887 0 1.141 0 1.268 0 1.331 -0.344 1.141 -0.401 0.951 -0.401" />
    <path class="write-stroke-pen" fill="none" stroke="#000000" stroke-width="1.6" stroke-linecap="round" stroke-linejoin="round" __comx="636.504" __comy="29.541" __timestamp="0x181019a81d0" d="M638.722 21.271 l0.063 0 0 0.057 -0.19 0.916 -0.761 1.088 -0.887 1.203 -0.951 1.145 -0.824 0.916 -0.634 0.802 -0.38 0.515 -0.127 0.286 0 0.172 0 0.115 0.19 0.115 0.697 0.172 0.951 0 1.014 0 1.077 0 1.014 -0.172" />
    <path class="write-stroke-pen" fill="none" stroke="#000000" stroke-width="1.6" stroke-linecap="round" stroke-linejoin="round" __comx="643.381" __comy="29.541" __timestamp="0x181019a82d6" d="M645.821 23.218 l0 -0.057 -0.127 0 -0.697 0 -0.951 0.63 -1.141 0.859 -1.141 1.031 -1.014 0.974 -0.697 0.916 -0.444 0.744 -0.253 0.573 -0.127 0.401 0 0.229 0 0.229 0.507 0.229 0.951 0.057 1.141 0.057 1.268 0 1.394 0 1.268 0 1.077 0 0.697 0" />
    <path class="write-stroke-pen" fill="none" stroke="#000000" stroke-width="1.6" stroke-linecap="round" stroke-linejoin="round" __comx="637.423" __comy="29.541" __timestamp="0x181019a8446" d="M633.081 35.645 l0.444 0 1.014 0 1.204 -0.115 1.331 -0.115 1.394 0 1.141 -0.057 0.951 0 0.634 0 0.38 0 0.19 0 -0.253 0 -0.19 0 -0.127 0 -0.127 0.115 -0.127 0.286 -0.19 0.401 -0.19 0.458 -0.063 0.515 0 0.573 -0.063 0.573 -0.063 0.63 -0.19 0.687 -0.254 0.687 -0.38 0.687 -0.444 0.573 -0.507 0.515 -0.634 0.515 -0.634 0.401" />
    <path class="write-stroke-pen" fill="none" stroke="#000000" stroke-width="1.6" stroke-linecap="round" stroke-linejoin="round" __comx="640.243" __comy="29.541" __timestamp="0x181019a84d6" d="M634.729 44.178 l-0.063 0 0.444 0 1.077 -0.115 1.458 -0.344 1.711 -0.229 1.648 -0.229 1.521 -0.115 1.394 0 1.077 0 0.824 0" />
  </g>
</svg>
