<svg class="write-page" color-interpolation="linearRGB" width="920px" height="384.514px" xmlns="http://www.w3.org/2000/svg" xmlns:xlink="http://www.w3.org/1999/xlink">
  <g class="write-content write-v3" xruling="0" yruling="0" marginLeft="0" papercolor="#FFFFFF" rulecolor="#9F0000FF">
    <g class="ruleline write-std-ruling write-scale-down" fill="none" stroke="#0000FF" stroke-opacity="0.624" stroke-width="1" shape-rendering="crispEdges" vector-effect="non-scaling-stroke">
      <rect class="pagerect" fill="#FFFFFF" stroke="none" x="0" y="0" width="920" height="384.514" />
    </g>
    <path class="write-flat-pen" fill="#000000" stroke-width="1.6" __comx="70.681" __comy="14.159" __timestamp="0x181ec76963c" d="M77.22 9.618 l-0.7 0.874 -0.687 1.447 -1.003 2.142 -1.316 2.476 -1.513 2.713 -1.703 2.941 -1.769 2.953 -1.637 2.83 -1.457 2.277 -0.958 1.724 -0.6 1.083 -0.206 0.654 -0.217 0.918 1.327 0.369 0.278 -0.863 0.173 -0.482 0.537 -0.961 0.936 -1.684 1.448 -2.267 1.647 -2.849 1.767 -2.954 1.707 -2.966 1.518 -2.74 1.336 -2.522 1.017 -2.174 0.702 -1.506 0.059 -1.176" />
    <path class="write-flat-pen" fill="#000000" stroke-width="1.6" __comx="75.063" __comy="15.928" __timestamp="0x181ec76984d" d="M62.294 11.406 l0.866 -0.115 0.484 0.265 1.038 1.055 1.491 1.691 1.941 2.261 2.261 2.836 2.582 3.176 2.768 3.624 2.718 3.639 2.599 3.307 2.16 2.628 1.747 1.979 1.232 1.049 0.831 0.742 1.163 -0.015 -0.038 -0.891 -0.306 -0.964 -1.337 -1.538 -0.626 0.443 0.874 1.587 0.072 0.627 -0.038 -0.664 0.784 -0.015 -0.432 -0.394 -1.167 -0.996 -1.663 -1.883 -2.133 -2.597 -2.578 -3.281 -2.712 -3.631 -2.788 -3.646 -2.595 -3.186 -2.285 -2.843 -1.973 -2.283 -1.54 -1.717 -1.235 -1.217 -1.284 -0.644 -1.223 0.91" />
    <path class="write-flat-pen" fill="#000000" stroke-width="1.6" __comx="71.963" __comy="10.584" __timestamp="0x181ec76999b" d="M70.507 4.67 l-0.054 3.455 0.368 2.395 0.305 2.94 0.37 3.281 0.245 3.726 0.187 3.964 0.126 3.845 0.005 3.623 0.013 3.19 0.111 2.271 0.244 1.641 0.801 0 0.244 -1.659 -0.015 -2.273 0.013 -3.171 0.005 -3.647 -0.127 -3.879 -0.192 -3.988 -0.26 -3.772 -0.387 -3.307 -0.327 -2.967 -0.39 -2.376 -0.615 -3.349" />
    <path class="write-flat-pen" fill="#000000" stroke-width="1.6" __comx="126.397" __comy="30.091" __timestamp="0x181ec76acb4" d="M129.592 15.034 l0.387 -0.326 -1.138 0.043 -0.062 -0.572 -0.008 0.876 -0.122 1.39 -0.49 2.085 -0.812 2.807 -1.006 3.051 -1.077 3.192 -1.019 3.438 -0.829 3.328 -0.577 2.882 -0.325 2.46 0 1.641 0.003 0.909 0.01 0.341 1.5 0 -0.145 -0.795 -0.171 -1.911 -0.869 0 -0.171 1.911 -0.145 0.795 1.5 0 0.01 -0.341 0.003 -0.909 0 -1.54 0.306 -2.311 0.56 -2.798 0.812 -3.261 1.001 -3.378 1.07 -3.17 1.015 -3.083 0.829 -2.872 0.52 -2.231 0.131 -1.564 -0.008 -0.941 -0.062 -0.799 -1.264 0.043 -0.012 1.466" />
    <path class="write-flat-pen" fill="#000000" stroke-width="1.6" __comx="133.491" __comy="30.091" __timestamp="0x181ec76adb1" d="M128.803 14.612 l3.477 4.019 0.759 2.125 0.808 2.703 0.815 2.937 0.752 3.05 0.626 2.817 0.436 2.469 0.247 1.887 0.063 1.318 0.004 0.779 0.033 -0.432 0.13 0.059 -1.278 0.025 -0.105 0.817 1.307 0.358 1.266 0.059 0.033 -0.887 0.004 -0.811 -0.064 -1.409 -0.258 -1.976 -0.448 -2.529 -0.636 -2.863 -0.764 -3.084 -0.827 -2.97 -0.834 -2.75 -0.883 -2.419 -3.981 -3.932" />
    <path class="write-flat-pen" fill="#000000" stroke-width="1.6" __comx="127.77" __comy="30.091" __timestamp="0x181ec76ae7d" d="M116.474 32.049 l5.566 -0.111 3.013 -1.174 3.045 -1.141 2.821 -1.241 2.498 -0.77 2.038 -0.342 1.545 -0.053 1.636 0.713 0.484 -0.896 -1.786 -1.134 -1.99 -0.053 -2.256 0.34 -2.679 0.821 -2.862 1.258 -3.016 1.131 -2.796 1.098 -5.313 0.398" />
    <path class="write-flat-pen" fill="#000000" stroke-width="1.6" __comx="144.459" __comy="30.091" __timestamp="0x181ec76afc7" d="M142.814 29.915 l0.144 3.544 0.311 2.164 0.249 2.487 0.312 2.841 0.314 3.058 0.252 2.947 0.249 2.923 0 2.354 0 1.931 0 1.363 0.003 0.568 1.424 -0.194 -0.092 -0.235 -0.506 -1.344 -0.597 -1.749 -0.629 -2.527 -0.632 0.105 0.234 2.649 0.413 1.886 0.378 1.382 0.034 0.22 1.424 -0.194 0.003 -0.568 0 -1.363 0 -1.931 0 -2.417 -0.256 -2.984 -0.254 -2.96 -0.317 -3.076 -0.319 -2.839 -0.256 -2.511 -0.321 -2.152 -0.457 -3.474" />
    <path class="write-flat-pen" fill="#000000" stroke-width="1.6" __comx="146.511" __comy="30.091" __timestamp="0x181ec76b0c9" d="M142.585 31.692 l1.899 -3.023 0.527 -0.057 1.093 -0.1 1.102 0.003 0.985 0.003 0.757 0.34 0.504 0.497 0.327 0.761 -0.002 0.989 -0.002 1.498 -0.46 1.755 -1.029 1.852 -1.114 2.004 -1.238 1.668 -1.045 1.438 -0.845 0.868 -0.447 0.459 -0.049 0.03 0.719 0.035 -0.085 0.093 -0.148 -1.563 -0.855 0 -0.148 1.563 -0.085 1.229 0.845 0.035 0.583 -0.197 0.69 -0.677 0.923 -0.949 1.102 -1.516 1.288 -1.739 1.159 -2.086 1.117 -2.01 0.55 -2.108 -0.002 -1.682 -0.002 -1.283 -0.557 -1.284 -0.885 -0.866 -1.264 -0.568 -1.288 0.003 -1.171 0.003 -1.18 0.127 -1.241 0.17 -1.794 3.877" />
    <path class="write-flat-pen" fill="#000000" stroke-width="1.6" __comx="155.315" __comy="30.091" __timestamp="0x181ec76b1be" d="M152.942 28.704 l1.682 4.735 0.297 2.295 0.31 2.603 0.312 3.053 0.252 3.173 0.252 3.175 0.188 2.935 0.063 2.477 0 1.809 0.005 1.136 0.01 0.227 1.348 -0.135 -0.33 -1.251 -0.611 -1.903 -0.686 -2.626 -0.589 0.109 0.307 2.733 0.399 1.96 0.175 1.248 1.348 -0.135 0.01 -0.227 0.005 -1.136 0 -1.826 -0.064 -2.521 -0.191 -2.972 -0.253 -3.186 -0.253 -3.189 -0.32 -3.081 -0.322 -2.622 -0.334 -2.476 -2.189 -4.717" />
    <path class="write-flat-pen" fill="#000000" stroke-width="1.6" __comx="159.409" __comy="30.091" __timestamp="0x181ec76b2c2" d="M155.312 28.739 l3.737 -1.437 1.13 -0.097 1.171 0.002 1.055 0 0.577 0.148 0.352 0.497 0.207 0.937 -0.008 1.292 -0.006 1.566 -0.821 1.886 -1.229 2.21 -1.432 2.011 -1.363 1.893 -1.312 1.393 -1.006 0.704 -0.751 0.272 -0.489 0.009 0.099 0.115 -0.103 -0.7 -0.259 -1.629 -0.532 0 -0.259 1.629 -0.103 1.344 0.73 0.569 1.152 0.009 1.143 -0.409 1.267 -0.887 1.466 -1.561 1.416 -1.969 1.472 -2.078 1.296 -2.334 0.947 -2.204 -0.006 -1.841 -0.008 -1.435 -0.298 -1.334 -0.784 -1.093 -1.191 -0.306 -1.218 0 -1.229 0.002 -1.396 0.13 -3.773 1.877" />
    <path class="write-flat-pen" fill="#000000" stroke-width="1.6" __comx="168.303" __comy="30.091" __timestamp="0x181ec76b40c" d="M167.67 8.18 l-0.499 0.907 -0.008 1.376 0.189 1.966 0.246 2.49 0.185 2.706 0.122 3.049 0.062 3.393 -0.001 3.408 0.063 3.181 0 2.833 0.001 2.045 0 1.477 0.005 0.909 0.014 -0.346 1.248 0.063 -0.144 0.056 -0.354 -1.034 -0.251 0 -0.354 1.034 -0.144 1.192 1.374 0.063 0.014 -1.028 0.005 -0.909 0 -1.477 0.001 -2.045 0 -2.847 -0.063 -3.181 -0.001 -3.407 -0.064 -3.422 -0.131 -3.085 -0.193 -2.747 -0.259 -2.508 -0.19 -1.896 -0.008 -1.123 -0.009 -0.856" />
    <path class="write-flat-pen" fill="#000000" stroke-width="1.6" __comx="176.157" __comy="30.091" __timestamp="0x181ec76b4fc" d="M174.046 25.405 l1.552 4.094 0.359 1.629 0.307 1.681 0.249 1.689 0.19 1.369 0.182 1.089 0 0.511 0.013 0.341 1.357 0 -0.405 -0.841 -0.547 0 -0.405 0.841 1.357 0 0.013 -0.341 0 -0.625 -0.197 -1.183 -0.189 -1.357 -0.256 -1.719 -0.325 -1.727 -0.399 -1.779 -1.984 -4.048" />
    <path class="write-flat-pen" fill="#000000" stroke-width="1.6" __comx="174.76" __comy="30.091" __timestamp="0x181ec76b5b9" d="M171.615 22.762 l3.724 0.361 0.736 0.44 1.223 0.753 0.608 -0.811 -1.103 -0.99 -1.032 -0.696 -4.08 -0.169" />
    <path class="write-flat-pen" fill="#000000" stroke-width="1.6" __comx="186.995" __comy="30.091" __timestamp="0x181ec76b744" d="M190.871 25.139 l-4.111 -2.396 -0.787 -0.016 -0.695 -0.011 -0.84 -0.018 -0.755 0.5 -0.635 0.702 -0.447 0.929 -0.35 1.115 -0.206 1.205 -0.136 1.308 -0.001 1.399 -0.002 1.51 0.138 1.502 0.566 1.405 0.718 1.163 0.878 0.791 1.036 0.667 1.15 0.276 1.134 -0.002 1.286 -0.15 1.159 -0.821 0.986 -0.882 1.128 -1.208 -0.507 -0.604 -1.37 0.889 -1.035 0.709 -0.861 0.542 -0.861 0.077 -0.886 -0.002 -0.744 -0.179 -0.732 -0.469 -0.637 -0.573 -0.545 -0.882 -0.444 -1.094 -0.115 -1.224 -0.002 -1.443 -0.001 -1.327 0.116 -1.191 0.173 -1.067 0.281 -0.93 0.31 -0.661 0.375 -0.434 0.256 -0.182 0.423 -0.018 0.695 -0.011 0.476 -0.016 4.052 1.836" />
    <path class="write-flat-pen" fill="#000000" stroke-width="1.6" __comx="199.884" __comy="30.091" __timestamp="0x181ec76b971" d="M202.96 24.041 l-1.746 -3.302 -0.829 -0.187 -0.494 -0.124 -0.58 -0.137 -0.646 -0.005 -0.568 -0.005 -0.846 -0.007 -0.992 0.648 -0.758 1.085 -0.611 1.463 -0.532 1.667 -0.328 1.888 -0.199 1.766 -0.002 1.517 -0.001 1.136 0 0.909 0 0.944 0.72 0.519 0.6 0.18 0.678 0 0.917 -0.167 0.883 -0.873 0.861 -1.09 0.835 -1.296 0.743 -1.256 0.751 -1.155 0.571 -1.052 0.436 -0.798 0.316 -0.568 0.073 -0.132 -0.14 0.128 -0.187 0.004 -0.404 0.015 -0.066 -0.131 0.169 0.739 0.182 0.999 0.188 1.149 0.257 1.173 0.26 0.939 0.276 0.876 0.367 0.661 0.364 0.524 0.56 0.603 0.561 -0.011 0.379 -0.047 0.526 -0.116 0.437 -0.708 -0.154 -0.257 -0.578 -0.099 -0.232 -0.116 -0.379 -0.047 0.056 -0.011 -0.071 -0.079 -0.267 -0.385 -0.264 -0.475 -0.229 -0.715 -0.245 -0.878 -0.248 -1.099 -0.19 -1.123 -0.197 -1.045 -0.21 -0.851 -0.319 -0.812 -0.531 0.015 -0.314 0.004 -0.392 0.355 -0.179 0.322 -0.316 0.568 -0.448 0.792 -0.566 0.993 -0.765 1.116 -0.773 1.243 -0.806 1.203 -0.781 0.955 -0.506 0.49 -0.345 0.06 -0.332 0 -0.158 -0.047 0.089 0.065 0 -0.192 0 -0.909 -0.001 -1.136 -0.002 -1.436 0.18 -1.642 0.303 -1.747 0.478 -1.514 0.525 -1.263 0.504 -0.732 0.397 -0.261 0.417 -0.007 0.568 -0.005 0.49 -0.005 0.43 0.09 0.516 0.104 0.307 0.04 2.015 2.461" />
    <path class="write-flat-pen" fill="#000000" stroke-width="1.6" __comx="212.579" __comy="30.091" __timestamp="0x181ec76ba52" d="M206.617 27.773 l3.925 -1.104 1.581 -0.681 1.62 -0.56 1.573 -0.566 1.424 -0.466 1.019 -0.493 0.64 -0.416 0.469 -0.508 -0.117 -0.509 -0.227 -0.515 -0.575 0 -0.227 0.515 -0.117 -0.054 -0.036 -0.053 -0.496 0.265 -0.875 0.416 -1.354 0.442 -1.584 0.57 -1.663 0.576 -1.576 0.682 -3.731 1.495" />
    <path class="write-flat-pen" fill="#000000" stroke-width="1.6" __comx="216.244" __comy="30.091" __timestamp="0x181ec76bb49" d="M212.973 18.295 l-0.423 4.733 -0.009 1.601 -0.006 1.716 0.059 1.88 0.323 1.875 0.316 1.611 0.335 1.452 0.437 0.921 0.567 0.817 0.824 0.001 0.738 0 0.978 -0.481 0.793 -0.926 0.616 -0.829 0.545 -0.777 0.886 -0.948 -0.577 -0.706 -1.21 0.765 -0.718 0.813 -0.646 0.762 -0.596 0.664 -0.411 0.2 -0.398 0 -0.06 0.001 -0.064 -0.091 -0.321 -0.669 -0.297 -1.274 -0.315 -1.57 -0.308 -1.76 -0.068 -1.755 -0.006 -1.692 -0.009 -1.58 -0.146 -4.73" />
    <path class="write-flat-pen" fill="#000000" stroke-width="1.6" __comx="224.56" __comy="30.091" __timestamp="0x181ec76c0f9" d="M225.824 24.226 l-0.106 -0.725 -1.285 0.333 -0.052 0.114 -0.008 1.022 -0.003 1.818 -0.002 2.158 0 2.214 -0.312 2.015 -0.131 1.648 0 1.25 -0.063 0.795 0.002 0.151 0.338 -0.293 0.031 0.035 0.218 0.062 -0.245 -0.256 -0.535 -1.007 -0.159 0.02 -0.263 1.196 0.26 1.334 0.723 0.062 0.536 0.035 0.59 -0.521 0.002 -0.758 0.064 -0.795 0 -1.25 0.121 -1.533 0.319 -2.074 0 -2.329 -0.002 -2.158 -0.003 -1.818 -0.008 -1.022 -0.052 -0.114 -1.285 0.333 0.56 0.473" />
    <path class="write-flat-pen" fill="#000000" stroke-width="1.6" __comx="225.17" __comy="30.091" __timestamp="0x181ec76c1c1" d="M220.988 18.484 l1.091 0.813 1.025 0.247 1.217 0.346 1.17 0.219 1.092 0.382 1.049 0.519 1.245 0.998 0.476 -0.411 -0.934 -1.523 -1.224 -0.845 -1.307 -0.527 -1.23 -0.236 -1.183 -0.336 -0.869 -0.208 -1.11 -0.375" />
    <path class="write-flat-pen" fill="#000000" stroke-width="1.6" __comx="238.806" __comy="30.091" __timestamp="0x181ec76c356" d="M234.69 25.461 l-0.21 4.28 -0.008 1.704 -0.003 1.931 -0.003 1.815 0.491 1.644 0.616 1.249 0.983 0.708 0.939 0 1.121 0 1.096 -1.365 0.849 -1.648 0.951 -1.724 0.843 -1.883 0.594 -1.807 0.196 -1.481 -0.008 -1.457 -0.164 -1.3 -1.025 -1.075 -1.092 -0.453 -1.026 -0.002 -1.096 -0.005 -1.129 0.259 -0.968 0.531 -0.834 0.678 -0.419 0.627 -0.266 0.319 -0.131 0.479 0.013 0.941 0.79 -0.034 0.884 -0.062 1.16 -0.14 1.274 -0.523 -0.017 -0.179 -1.304 -0.279 -1.113 -0.14 -0.884 -0.062 0.663 -0.034 0.013 0.714 -0.005 0.024 0.113 -0.135 0.339 -0.509 0.555 -0.458 0.673 -0.378 0.765 -0.195 0.925 -0.005 0.742 -0.002 0.55 0.228 0.491 0.515 0.089 0.745 -0.008 1.269 -0.183 1.245 -0.542 1.601 -0.799 1.752 -0.943 1.684 -0.792 1.532 -0.546 0.68 -0.394 0 -0.45 0 -0.28 -0.201 -0.394 -0.796 -0.393 -1.309 -0.003 -1.593 -0.003 -1.931 -0.008 -1.704 -0.21 -4.28" />
    <path class="write-flat-pen" fill="#000000" stroke-width="1.6" __comx="254.565" __comy="30.091" __timestamp="0x181ec76c503" d="M246.91 25.027 l0.898 1.811 0.148 1.269 0.113 1.772 -0.007 2.133 -0.004 2.158 -0.002 2.045 -0.003 1.59 -0.001 1.25 -0.001 0.682 0 0.227 1.494 0 0 -0.114 -0.001 -1.022 0 -1.319 0.172 -1.484 0.467 -1.602 0.653 -1.521 0.744 -1.359 0.679 -1.471 0.802 -1.346 0.757 -1.377 0.612 -1.102 0.513 -0.717 0.537 -0.537 0.305 -0.326 0.035 -0.022 -0.141 0.009 -0.532 0.009 -0.053 -0.25 0.185 1.169 0.442 1.619 0.504 2.055 0.699 2.296 0.758 2.393 0.646 1.978 0.733 1.559 0.634 1.014 0.618 0.636 0.602 0.213 0.75 -0.015 0.555 -0.82 -0.019 -0.987 -0.026 -1.422 -0.776 -0.096 -0.374 1.399 -0.145 0.604 0.05 -0.139 0.245 -0.015 -0.03 -0.014 -0.266 -0.273 -0.502 -0.803 -0.656 -1.394 -0.616 -1.884 -0.757 -2.378 -0.69 -2.248 -0.507 -2.034 -0.442 -1.561 -0.194 -1.102 -0.179 -0.931 -0.658 0.009 -0.394 0.009 -0.47 0.432 -0.326 0.356 -0.599 0.599 -0.624 0.873 -0.65 1.17 -0.758 1.349 -0.839 1.38 -0.71 1.482 -0.771 1.368 -0.736 1.659 -0.543 1.806 -0.206 1.696 0 1.407 -0.001 1.022 0 0.114 1.494 0 0 -0.227 -0.001 -0.682 -0.001 -1.25 -0.003 -1.59 -0.002 -2.045 -0.004 -2.158 -0.007 -2.184 -0.14 -1.863 -0.231 -1.684 -1.753 -1.633" />
    <path class="write-flat-pen" fill="#000000" stroke-width="1.6" __comx="272.187" __comy="30.091" __timestamp="0x181ec76c6a6" d="M272.582 25.204 l1.42 -0.678 0.5 0.011 0.037 -1.556 -1.182 -0.009 -0.821 -0.003 -1.211 -0.004 -1.329 0.262 -1.164 0.653 -0.952 0.731 -0.673 0.603 -0.532 0.545 -0.399 0.717 0 0.54 0 0.559 0.233 0.837 1.178 0.757 1.315 0.591 1.511 0.679 1.695 0.79 1.659 0.803 1.339 0.546 0.885 0.596 0.365 0.363 0.119 0.498 -0.001 0.82 -0.296 0.977 -0.995 1.094 -1.291 1.162 -1.543 0.821 -1.586 0.408 -1.482 0.004 -1.065 0.03 -0.349 -0.178 -0.458 -0.931 -0.637 0.088 -0.117 1.523 1.04 0.958 1.587 0.03 1.675 0.004 1.95 -0.501 1.867 -0.997 1.487 -1.337 1.278 -1.405 0.462 -1.522 -0.001 -1.225 -0.26 -1.092 -0.772 -0.773 -1.136 -0.767 -1.439 -0.59 -1.625 -0.788 -1.714 -0.801 -1.52 -0.685 -1.211 -0.545 -0.59 -0.379 -0.02 -0.072 0 -0.35 0 -0.142 0.106 -0.192 0.352 -0.364 0.59 -0.533 0.816 -0.632 0.856 -0.483 0.944 -0.193 1.062 -0.004 0.821 -0.003 -0.298 -0.009 0.037 -1.329 0.374 0.011 -1.219 1.696" />
    <path class="write-flat-pen" fill="#000000" stroke-width="1.6" __comx="297.361" __comy="30.908" __timestamp="0x181ec76d11d" d="M290.871 32.799 l5.165 -0.164 1.766 -0.224 1.626 -0.111 1.3 -0.111 0.915 0 0.631 -0.001 0.442 0 0.253 -0.004 0.189 -0.02 0.063 -0.057 0.706 -0.146 0 -1.033 -0.706 -0.146 -0.063 -0.057 -0.189 -0.02 -0.253 -0.004 -0.442 0 -0.631 -0.001 -0.979 0 -1.352 0.116 -1.657 0.117 -1.769 0.231 -5.094 0.595" />
    <path class="write-flat-pen" fill="#000000" stroke-width="1.6" __comx="328.33" __comy="30.908" __timestamp="0x181ec76d357" d="M323.232 21.926 l-1.523 -1.103 -0.574 0.999 -0.357 0.871 -0.354 1.237 -0.138 1.563 -0.068 1.736 -0.005 1.957 0.064 2.063 0.749 2.092 0.934 1.804 1.078 1.459 1.216 1.216 1.221 0.904 1.307 0.415 1.298 0 1.498 -0.426 1.506 -1.551 1.437 -2.002 1.483 -2.452 1.229 -2.703 0.837 -2.833 0.376 -2.833 -0.015 -2.939 -0.408 -2.753 -1.022 -2.323 -1.432 -1.803 -1.742 -0.685 -1.957 -0.01 -2.154 0.361 -1.947 1.186 -1.594 0.905 -1.237 0.819 -0.801 0.601 -0.653 0.588 -0.297 0.747 0.048 0.599 0.148 1.209 1.056 0 0.148 -1.209 0.048 -0.309 0.082 -0.162 0.357 -0.321 0.714 -0.535 1.162 -0.771 1.563 -0.913 1.715 -1.086 1.761 -0.32 1.579 -0.01 1.162 0.451 1.094 1.377 0.872 1.994 0.35 2.473 -0.015 2.741 -0.382 2.62 -0.804 2.619 -1.17 2.522 -1.421 2.319 -1.341 1.86 -1.146 1.175 -0.901 0.255 -0.849 0 -0.839 -0.267 -0.926 -0.686 -1.057 -1.056 -0.943 -1.267 -0.834 -1.604 -0.64 -1.77 -0.062 -1.8 -0.005 -1.905 0.058 -1.672 0.115 -1.39 0.277 -1.035 0.274 -0.72 -0.069 0.09 0.771 -0.329" />
    <path class="write-flat-pen" fill="#000000" stroke-width="1.6" __comx="346.775" __comy="30.908" __timestamp="0x181ec76d56c" d="M352.406 19.64 l-1.17 -3.859 -1.178 -0.462 -1.14 -0.369 -1.435 -0.252 -1.388 -0.005 -1.326 -0.002 -1.359 -0.004 -1.372 0.115 -1.325 0.391 -0.901 0.618 -0.722 0.431 -0.469 0.842 -0.161 0.723 -0.071 0.764 0 1.275 0.386 1.388 1.333 1.64 1.795 1.674 2.225 1.413 2.501 1.384 2.638 1.272 2.406 0.908 1.876 0.87 1.143 0.783 0.447 0.724 0.052 0.924 0 1.019 -0.579 0.954 -1.409 1.116 -1.949 0.955 -2.343 0.648 -2.551 0.328 -2.459 0 -2.109 -0.102 -1.763 -0.806 -1.273 -0.909 -0.599 -0.62 -0.157 -0.941 -0.992 0 -0.157 1.414 0.917 1.197 1.505 1.136 2.152 1.011 2.437 0.125 2.593 0 2.753 -0.354 2.582 -0.715 2.219 -1.089 1.748 -1.384 0.936 -1.545 0 -1.48 -0.074 -1.348 -0.815 -1.32 -1.508 -1.035 -2.039 -0.948 -2.393 -0.91 -2.539 -1.227 -2.424 -1.342 -2.068 -1.313 -1.615 -1.507 -1.067 -1.313 -0.246 -0.884 0 -0.997 0.055 -0.599 0.092 -0.413 0.163 -0.294 0.414 -0.25 0.74 -0.518 0.948 -0.29 1.154 -0.112 1.293 -0.004 1.326 -0.002 1.264 -0.005 1.217 0.203 1.007 0.313 0.59 0.22 1.798 2.938" />
    <path class="write-flat-pen" fill="#000000" stroke-width="1.6" __comx="384.901" __comy="30.908" __timestamp="0x181ec76db6d" d="M381.872 16.596 l-1.193 -0.925 0.093 1.033 -0.266 0.017 1.073 0.004 1.515 0.006 1.882 0.003 1.704 -0.235 1.319 -0.226 1.012 -0.123 0.585 -0.234 0.851 -0.055 0 -1.32 -1.1 -0.055 -0.678 0.22 -0.883 0.105 -1.333 0.228 -1.579 0.219 -1.78 0.003 -1.515 0.006 -1.073 0.004 -1.15 0.017 0.093 1.26 2.338 0.296" />
    <path class="write-flat-pen" fill="#000000" stroke-width="1.6" __comx="387.345" __comy="30.908" __timestamp="0x181ec76dc38" d="M387.735 17.408 l0.145 5.336 0.119 2.358 -0.006 2.253 -0.002 2.158 -0.001 2.045 0 1.771 -0.173 1.355 -0.387 1.158 -0.414 1.063 -0.553 0.883 -0.604 0.88 -0.605 0.949 0.107 0.119 1.029 -0.522 0.912 -0.71 0.836 -0.934 0.596 -1.209 0.497 -1.341 0.206 -1.599 0 -1.864 -0.001 -2.045 -0.002 -2.158 -0.006 -2.291 -0.134 -2.413 -0.681 -5.312" />
    <path class="write-flat-pen" fill="#000000" stroke-width="1.6" __comx="390.345" __comy="30.908" __timestamp="0x181ec76dcce" d="M382.341 41.538 l4.984 -1.111 2.099 -0.57 2.089 -0.682 1.959 -0.569 1.706 -0.574 1.469 -0.472 1.025 -0.304 0.915 -0.387 -0.156 -0.779 -1.001 -0.004 -1.122 0.15 -1.561 0.437 -1.703 0.562 -1.955 0.567 -2.078 0.681 -2.068 0.566 -4.844 1.628" />
    <path class="write-flat-pen" fill="#000000" stroke-width="1.6" __comx="405.868" __comy="30.908" __timestamp="0x181ec76de97" d="M399.181 30.989 l-0.05 1.167 0.553 1.361 0.608 1.673 0.487 1.662 0.297 1.299 0.114 1.169 -0.003 0.872 0 0.454 0 0.227 1.447 0 -0.008 -0.568 -0.011 -0.891 0.052 -1.114 0.452 -1.128 0.55 -1.228 0.536 -1.087 0.661 -0.986 0.617 -0.889 0.582 -0.735 0.541 -0.487 0.348 -0.207 0.163 -0.116 -0.028 0.004 0.126 0.005 -0.243 0.007 0.131 0.214 0.409 0.978 0.627 1.367 0.674 1.55 0.497 1.567 0.571 1.602 0.449 1.272 0.48 1.111 0.336 0.484 0.109 0.195 1.349 -0.35 -0.033 -0.114 -0.079 -0.682 -0.191 -1.064 -0.593 -1.324 -0.192 0.039 -0.049 1.368 -0.191 0.981 -0.079 0.682 -0.033 0.114 1.349 -0.35 -0.143 -0.259 -0.295 -0.425 -0.404 -0.934 -0.435 -1.227 -0.565 -1.579 -0.513 -1.614 -0.715 -1.631 -0.636 -1.36 -0.475 -1.067 -0.626 -0.922 -0.495 0.007 -0.126 0.005 -0.407 0.004 -0.469 0.338 -0.41 0.247 -0.721 0.649 -0.681 0.855 -0.646 0.929 -0.728 1.059 -0.601 1.185 -0.587 1.272 -0.558 1.371 -0.074 1.385 -0.011 0.927 -0.008 0.568 1.447 0 0 -0.227 0 -0.454 -0.003 -0.945 -0.138 -1.331 -0.335 -1.428 -0.524 -1.746 -0.655 -1.735 -0.584 -1.366 -0.833 -0.804" />
    <path class="write-flat-pen" fill="#000000" stroke-width="1.6" __comx="418.186" __comy="30.908" __timestamp="0x181ec76df5b" d="M410.698 34.336 l5.641 -0.503 2.301 -0.828 2.231 -0.917 1.873 -0.813 1.436 -0.827 0.891 -0.621 0.729 -0.641 -0.654 -0.909 -0.811 0.468 -0.877 0.515 -1.343 0.763 -1.789 0.777 -2.189 0.901 -2.118 0.763 -5.448 0.76" />
    <path class="write-flat-pen" fill="#000000" stroke-width="1.6" __comx="422.646" __comy="30.908" __timestamp="0x181ec76e069" d="M417.756 24.35 l-0.353 4.39 0.123 1.658 0.321 1.776 0.508 1.728 0.438 1.706 0.452 1.521 0.54 1.34 0.568 0.898 0.693 0.78 0.802 0.181 0.646 0 0.835 0 1.007 -0.421 0.953 -0.622 0.741 -0.597 0.668 -0.482 0.567 -0.53 0.626 -0.691 -0.259 -0.431 -0.942 0.249 -0.696 0.378 -0.721 0.427 -0.775 0.539 -0.815 0.514 -0.635 0.26 -0.554 0 -0.49 0 -0.208 -0.046 -0.317 -0.356 -0.443 -0.692 -0.47 -1.16 -0.432 -1.432 -0.446 -1.702 -0.502 -1.679 -0.311 -1.632 -0.13 -1.523 -0.214 -4.335" />
    <path class="write-flat-pen" fill="#000000" stroke-width="1.6" __comx="431.355" __comy="30.908" __timestamp="0x181ec76e20d" d="M425.374 35.385 l3.848 -1.019 1.793 -0.691 1.773 -0.708 1.499 -0.98 1.131 -1.077 0.861 -0.904 0.413 -1.042 -0.003 -0.699 -0.008 -0.666 -0.537 -0.772 -0.947 -0.462 -0.911 -0.137 -0.808 0.001 -0.849 0 -1.032 0.286 -0.918 0.685 -0.737 0.833 -0.787 0.814 -0.638 0.878 -0.497 0.999 -0.419 1.231 -0.209 1.232 -0.069 1.309 -0.002 1.268 -0.002 1.192 0.634 1.286 0.817 0.803 0.953 0.715 1.185 0.143 1.117 -0.001 1.303 -0.001 1.348 -0.949 0.983 -0.857 0.908 -0.989 0.698 -1.05 0.374 -1.407 -0.706 -0.294 -0.678 1.117 -0.691 0.768 -0.86 0.828 -0.912 0.733 -0.925 0.641 -0.843 -0.001 -1.03 -0.001 -0.709 -0.084 -0.562 -0.421 -0.573 -0.56 -0.376 -0.759 -0.002 -0.852 -0.002 -1.231 0.057 -1.19 0.17 -1.04 0.338 -1.041 0.387 -0.818 0.499 -0.713 0.729 -0.776 0.652 -0.757 0.598 -0.451 0.61 -0.169 0.666 0 0.707 0.001 0.605 0.091 0.442 0.219 0.094 0.137 -0.008 0.242 -0.003 0.436 -0.218 0.549 -0.654 0.686 -1.016 0.968 -1.279 0.837 -1.637 0.655 -1.743 0.672 -3.703 1.332" />
    <path class="write-flat-pen" fill="#000000" stroke-width="1.6" __comx="442.944" __comy="30.908" __timestamp="0x181ec76e348" d="M438.122 26.606 l2.082 3.034 0.504 1.225 0.348 1.484 0.117 1.509 -0.002 1.449 -0.001 1.363 -0.001 1.136 -0.002 0.682 0 -0.368 0.645 -0.003 0.479 -0.001 0.045 0.162 0 -0.584 0 -1.022 0 -1 0.054 -0.89 0.384 -0.987 0.529 -0.952 0.655 -0.968 0.707 -0.856 0.754 -0.754 0.788 -0.663 0.676 -0.498 0.882 -0.544 -0.154 -0.512 -1.146 0.064 -0.966 0.411 -0.98 0.7 -0.887 0.836 -0.808 0.961 -0.734 1.076 -0.608 1.092 -0.5 1.285 -0.072 1.155 0 1.044 0 1.022 0 0.779 0.298 1.07 0.605 -0.001 0.772 -0.003 0 -1.049 -0.002 -0.682 -0.001 -1.136 -0.001 -1.363 -0.002 -1.505 -0.135 -1.672 -0.41 -1.697 -0.633 -1.502 -2.615 -2.856" />
    <path class="write-flat-pen" fill="#000000" stroke-width="1.6" __comx="451.677" __comy="30.908" __timestamp="0x181ec76e437" d="M444.986 31.94 l0.826 1.25 1.609 -0.72 1.697 -0.436 2.035 -0.457 1.911 -0.573 1.655 -0.458 1.349 -0.471 0.965 -0.386 0.788 -0.425 0.358 -0.371 0.191 -0.606 -0.116 -0.162 -0.602 -0.035 -0.4 0.083 -0.727 0.256 -0.93 0.296 -1.303 0.438 -1.628 0.451 -1.877 0.563 -2.006 0.452 -1.839 0.473 -0.917 0.416 -0.715 0.019" />
    <path class="write-flat-pen" fill="#000000" stroke-width="1.6" __comx="455.097" __comy="30.908" __timestamp="0x181ec76e5c0" d="M459.905 22.775 l-0.09 -3.404 -0.027 -1.28 -0.236 -1.626 -0.243 -1.624 -0.443 -1.754 -0.514 -1.661 -0.606 -1.231 -0.699 -1.019 -0.767 -0.7 -0.655 -0.307 -0.586 -0.16 -0.47 -0.009 -0.442 -0.006 -0.647 -0.004 -0.883 0.351 -0.82 1.027 -0.622 1.49 -0.6 1.92 -0.265 2.498 0 2.879 0 3.314 0.192 3.688 0.51 3.558 0.506 3.301 0.44 2.713 0.254 2.171 0.321 1.621 0.258 1.277 0.202 0.725 0.219 0.65 0.354 0.616 0.356 0.294 0.34 0.261 0.599 0.237 0.539 0.018 0.609 -0.379 0 -0.194 -0.469 -0.379 -0.218 -0.209 -0.285 -0.217 -0.165 -0.194 -0.149 -0.16 -0.151 -0.293 -0.159 -0.486 -0.176 -0.638 -0.247 -1.222 -0.31 -1.56 -0.251 -2.145 -0.444 -2.739 -0.504 -3.288 -0.5 -3.485 -0.187 -3.582 0 -3.275 0 -2.801 0.24 -2.273 0.536 -1.715 0.515 -1.237 0.442 -0.563 0.254 -0.104 0.363 -0.004 0.442 -0.006 0.288 -0.009 0.298 0.067 0.355 0.148 0.496 0.436 0.564 0.798 0.53 1.041 0.496 1.519 0.441 1.654 0.262 1.557 0.269 1.555 0.099 1.219 0.346 3.396" />
    <path class="write-flat-pen" fill="#000000" stroke-width="1.6" __comx="467.556" __comy="30.908" __timestamp="0x181ec76e80d" d="M470.266 32.882 l-0.396 -2.555 -0.421 -0.585 -0.504 -0.195 -0.328 -0.135 -0.495 -0.157 -0.61 -0.01 -0.753 -0.008 -0.891 0.474 -0.644 0.64 -0.726 0.71 -0.665 0.836 -0.732 0.957 -0.609 1.096 -0.594 1.306 -0.464 1.312 -0.327 1.293 -0.273 1.226 0 0.877 0 0.568 0 0.341 0 0.857 1.327 -0.001 0.97 -0.584 0.955 -0.742 1.033 -1.054 1.075 -1.032 1.1 -1.175 1.012 -1.259 0.815 -0.907 0.774 -0.929 0.461 -0.592 0.347 -0.499 -0.122 0.219 -1.066 0.005 -0.031 0.082 -0.001 1.363 0 1.919 0.553 1.989 0.806 1.571 0.654 1.059 0.396 0.594 0.487 0.657 0.565 -0.01 0.253 -0.033 0.519 -0.073 0.466 -0.565 0.1 -1.024 -0.188 -0.087 -0.619 0.527 -0.165 -0.111 -0.113 -0.073 -0.253 -0.033 0.186 -0.01 -0.018 -0.025 -0.361 -0.542 -0.609 -0.986 -0.709 -1.383 -0.458 -1.646 0 -1.716 -0.001 -1.363 -0.031 -1.508 -1.192 0.005 -0.248 0.447 -0.285 0.41 -0.423 0.543 -0.741 0.888 -0.827 0.91 -1.009 1.24 -1.046 1.097 -1.072 1.012 -0.987 0.991 -0.813 0.621 -0.545 0.325 0.57 -0.001 0 0.629 0 -0.341 0 -0.568 0 -0.714 0.232 -1.046 0.304 -1.206 0.42 -1.187 0.543 -1.193 0.528 -0.949 0.657 -0.861 0.598 -0.754 0.663 -0.653 0.493 -0.496 0.371 -0.207 0.384 -0.008 0.4 -0.01 0.263 0.07 0.303 0.092 0.127 0.033 0.084 0.096 1.336 2.001" />
    <path class="write-flat-pen" fill="#000000" stroke-width="1.6" __comx="484.951" __comy="30.908" __timestamp="0x181ec76e9bc" d="M486.372 31.845 l1.495 -3.695 0.006 -0.454 0.008 -0.114 0.008 -0.114 0.011 -0.534 -0.618 -0.565 -0.822 -0.173 -0.638 -0.007 -0.631 -0.007 -0.695 -0.011 -0.863 -0.013 -1.066 0.729 -0.909 0.874 -0.765 0.995 -0.738 1.324 -0.613 1.344 -0.401 1.676 -0.332 1.663 -0.068 1.665 -0.001 1.606 -0.001 1.354 0.319 1.147 0.649 0.877 0.7 0.56 0.811 0.438 0.947 0.142 1.068 -0.001 1.073 -0.003 1.426 -0.006 1.475 -0.677 1.296 -0.969 1.18 -0.866 0.862 -0.992 0.619 -1.122 -0.168 -0.16 -1.057 0.636 -1.032 0.598 -1.219 0.724 -1.23 0.849 -1.051 0.458 -1.1 -0.006 -1.073 -0.003 -0.953 -0.001 -0.568 -0.085 -0.452 -0.244 -0.436 -0.348 -0.361 -0.486 -0.186 -0.67 -0.001 -1.145 -0.001 -1.575 0.059 -1.515 0.3 -1.518 0.357 -1.505 0.523 -1.155 0.651 -1.175 0.624 -0.823 0.733 -0.717 0.575 -0.407 0.4 -0.013 0.695 -0.011 0.631 -0.007 0.499 -0.007 0.314 0.054 -0.113 -0.111 0.011 -0.08 0.008 0.114 0.008 0.114 0.006 0.227 -1.109 3.592" />
    <path class="write-flat-pen" fill="#000000" stroke-width="1.6" __comx="501.59" __comy="30.908" __timestamp="0x181ec76ebb7" d="M494.885 33.228 l-0.729 -0.126 0 1.458 0.631 0.004 1.112 0.002 1.2 -0.126 1.395 -0.502 1.119 -0.592 1.128 -0.599 0.956 -0.737 0.817 -0.736 0.725 -0.869 0.161 -0.87 0.075 -0.407 0.001 -0.635 0.002 -0.64 -0.667 -0.687 -0.594 -0.535 -0.478 -0.246 -0.463 -0.338 -0.429 -0.001 -0.253 -0.004 -0.316 -0.003 -0.442 -0.002 -0.637 -0.003 -0.879 0.313 -0.784 0.64 -0.816 0.612 -0.85 1.02 -0.746 1.221 -0.67 1.444 -0.463 1.422 -0.387 1.387 -0.338 1.329 -0.072 1.231 -0.002 1.044 -0.002 0.943 0.441 1.116 1.111 0.934 1.28 0.971 1.542 0.725 1.752 0.728 1.858 0.248 1.82 0 1.894 -0.001 1.898 -0.634 1.574 -0.907 1.109 -1.344 0.517 -1.39 -0.051 -1.318 -0.295 -1.222 -1.462 -0.965 -0.192 0.178 0.611 1.272 -0.043 0.822 -0.051 0.954 -0.367 0.882 -0.785 0.928 -1.204 0.683 -1.512 0.502 -1.641 -0.001 -1.716 0 -1.552 -0.207 -1.531 -0.635 -1.363 -0.638 -1.12 -0.846 -0.783 -0.656 -0.19 -0.475 -0.002 -0.647 -0.002 -1.001 0.055 -1.041 0.293 -1.17 0.37 -1.339 0.421 -1.305 0.593 -1.282 0.643 -1.051 0.665 -0.798 0.699 -0.524 0.606 -0.496 0.384 -0.141 0.373 -0.003 0.442 -0.002 0.316 -0.003 0.253 -0.004 -0.05 -0.001 0.169 0.116 0.406 0.208 0.416 0.374 0.217 0.222 0.002 0.042 0.001 0.501 -0.051 0.275 -0.091 0.493 -0.411 0.494 -0.698 0.627 -0.812 0.626 -1.019 0.537 -1.027 0.544 -1.13 0.407 -0.947 0.101 -1.035 0.002 -0.631 0.004 0 1.458 0.729 -0.126" />
    <path class="write-flat-pen" fill="#000000" stroke-width="1.6" __comx="171.834" __comy="111.593" __timestamp="0x181ec7726ae" d="M167.689 109.673 l3.82 -0.622 0.952 0.004 0.821 0.002 0.34 0.001 -0.115 -0.102 0 0.303 -0.007 0.767 -0.051 0.484 -0.331 0.427 -0.422 0.215 -0.54 0.079 -0.529 -0.012 -0.31 -0.114 -0.42 -0.679 -0.463 -1.042 -0.287 -1.133 -0.059 -1.054 -0.001 -1.004 -0.001 -0.735 0.075 -0.403 0.279 -0.255 0.417 -0.225 0.529 0 0.758 0 0.472 0 0.383 0.414 0.372 0.669 0.208 0.656 0.056 0.921 -0.001 0.862 -0.044 0.552 -0.499 0.568 -0.705 0.485 -0.671 0.299 -0.56 0.181 -0.462 -0.001 0.034 0 -0.129 -0.371 -0.057 -1.024 -0.004 -1.328 0.046 -1.065 0.486 -0.805 0.61 -0.557 0.54 -0.247 0.621 -0.001 0.32 0 0.163 0.209 0.206 0.928 -0.003 1.066 -0.003 1.25 -0.008 1.006 -0.305 0.711 -0.407 0.539 -0.256 0.187 -0.287 0.058 -0.266 -0.005 0.08 0.023 -0.07 -0.254 -0.056 -0.702 -0.001 -0.882 -0.007 -0.733 0.246 -0.462 0.497 -0.547 0.431 -0.242 0.596 -0.095 0.583 -0.002 0.258 -0.001 0.042 0.037 0.066 0.297 -0.003 0.611 -0.006 0.63 -0.097 0.573 -0.494 0.612 -0.546 0.483 -0.481 0.283 -0.447 0.196 -0.179 0.065 -0.134 -0.002 0.496 0 -0.003 -0.031 -0.002 -0.877 -0.009 -0.976 0.095 -0.72 0.349 -0.559 0.331 -0.227 0.385 -0.155 0.379 -0.001 0.254 -0.001 0.092 0.083 0.197 0.429 -0.002 0.65 -0.002 0.682 -0.003 0.574 -0.09 0.247 -0.303 0.2 -0.393 0.233 -0.381 0 -0.631 -0.001 -0.137 0 -0.193 -0.295 -0.198 -0.608 -0.009 -0.805 -0.009 -0.909 -0.008 -0.393 -0.02 0.017 0.194 0 0.379 0 0.194 0 0.09 0.085 0.161 0.373 0.094 0.547 -0.005 0.621 -0.006 0.508 -0.118 0.201 -0.333 0.296 -0.335 0.13 -0.437 -0.001 -0.069 -0.002 -0.187 -0.289 -0.27 -0.873 -0.114 -0.92 -0.002 -0.867 -0.005 -0.795 -0.002 -0.568 0 0.45 -0.361 0 0.253 -0.001 0.253 0.001 -0.209 0.001 -0.156 -0.274 -0.003 0.051 -0.001 0.341 -0.002 0.341 -0.339 0.452 -0.781 0.755 -0.802 0.776 -0.774 0.643 -0.427 0.288 -0.063 0.028 0.715 0 -0.002 0.578 0.117 -0.358 0.419 -0.571 0.424 -0.485 0.395 -0.281 0.256 -0.163 0.224 -0.048 0.607 -0.109 0 -0.962 -0.607 -0.109 -0.533 -0.048 -0.627 0.291 -0.615 0.401 -0.586 0.651 -0.592 0.792 -0.262 0.778 -0.002 1.032 0.968 0 0.442 -0.199 0.583 -0.393 0.868 -0.721 0.84 -0.814 0.861 -0.835 0.671 -0.912 -0.002 -0.795 -0.001 -0.341 -0.003 -0.404 -0.408 -0.729 -0.588 0.001 -0.253 0.001 -0.253 -0.001 -0.993 0 0 0.904 -0.002 0.568 -0.005 0.795 -0.002 0.951 0.138 1.125 0.362 1.171 0.697 1.074 0.815 -0.002 0.7 -0.001 0.801 -0.325 0.677 -0.613 0.387 -0.708 -0.006 -0.856 -0.005 -0.742 -0.158 -0.816 -0.344 -0.763 -0.668 -0.597 -0.69 0 -0.379 0 -0.69 0 -0.778 0.699 -0.008 0.97 -0.009 0.909 -0.009 1.013 0.307 0.983 0.691 1.068 0.874 0 0.631 -0.001 0.756 0 0.743 -0.449 0.707 -0.482 0.289 -0.889 -0.003 -0.789 -0.002 -0.682 -0.002 -0.94 -0.435 -0.934 -0.666 -0.599 -0.756 -0.001 -0.632 -0.001 -0.752 0.299 -0.68 0.455 -0.661 1.031 -0.157 1.098 -0.009 1.069 -0.002 0.94 0.123 1.332 0.748 0 0.371 -0.002 0.452 -0.163 0.564 -0.258 0.656 -0.399 0.717 -0.653 0.768 -0.979 0.156 -1.018 -0.006 -0.733 -0.003 -0.752 -0.186 -0.839 -0.716 -0.644 -0.752 -0.001 -0.68 -0.002 -0.919 0.133 -0.832 0.44 -0.766 0.817 -0.512 0.901 -0.007 1.085 -0.001 0.936 0.07 0.888 0.309 1.109 0.838 0.251 0.618 -0.005 0.723 -0.169 0.628 -0.495 0.603 -0.824 0.452 -1.106 -0.008 -1.266 -0.003 -1.25 -0.003 -1.206 -0.299 -1.344 -0.721 -0.927 -0.943 0 -0.895 -0.001 -0.975 0.435 -0.905 0.806 -0.777 1.24 -0.081 1.434 -0.004 1.399 0.069 1.248 0.503 1.447 0.918 0 0.675 -0.001 0.829 -0.273 0.844 -0.383 0.937 -0.651 0.89 -1.023 0.082 -1.038 -0.001 -0.955 -0.071 -1.123 -0.298 -0.935 -0.512 -0.922 -0.879 -0.949 -1.044 0 -0.758 0 -0.86 0 -0.846 0.457 -0.731 0.654 -0.178 0.961 -0.001 0.856 -0.001 1.041 0.068 1.218 0.344 1.366 0.547 1.23 0.716 1.138 0.953 0.341 0.861 -0.012 0.849 -0.148 0.841 -0.466 0.679 -0.936 0.076 -0.879 -0.007 -0.823 0 -0.833 -0.62 -0.556 -0.796 0.001 -0.821 0.002 -1.068 0.004 -3.88 0.917" />
    <path class="write-flat-pen" fill="#000000" stroke-width="1.6" __comx="213.051" __comy="111.593" __timestamp="0x181ec772db5" d="M221.597 97.48 l0.832 -0.758 0.026 -0.684 -0.512 -0.626 -1.181 -0.311 -1.497 -0.118 -1.734 -0.231 -1.945 -0.001 -2.084 0 -2.047 0 -2.041 0.489 -1.713 0.711 -1.527 0.717 -1.214 0.849 -0.852 0.697 -0.46 0.993 0 0.622 0.001 0.789 0.703 1.106 1.418 1.019 1.881 1.049 2.233 1.147 2.405 1.138 2.518 1.246 2.251 1.124 1.87 1.083 1.111 0.999 0.478 0.853 0.002 0.847 -0.233 0.928 -1.092 0.936 -1.65 0.954 -1.77 0.637 -1.83 0.317 -1.829 0 -1.653 0 -1.518 -0.211 -1.244 -0.426 -0.866 -0.334 -0.44 -0.175 -0.029 -0.021 -0.501 1.305 0.27 -0.019 1.034 -0.264 1.44 -0.14 1.764 -0.422 1.755 -0.727 1.667 -0.943 -0.051 -0.152 -1.895 0.243 -1.78 0.409 -1.645 0.26 -1.464 0.087 -0.987 0.19 -0.108 -0.019 -0.501 1.305 0.223 0.206 0.697 0.279 0.902 0.348 1.408 0.483 1.765 0.244 1.757 0 1.959 0 2.085 -0.365 2.019 -0.726 1.886 -1.09 1.56 -1.336 0.398 -1.571 0.002 -1.425 -0.785 -1.419 -1.415 -1.273 -2.045 -1.188 -2.295 -1.148 -2.533 -1.253 -2.394 -1.134 -2.187 -1.125 -1.781 -0.995 -1.108 -0.798 -0.307 -0.485 0.001 -0.347 0 -0.286 0.172 -0.37 0.537 -0.439 1.059 -0.741 1.377 -0.646 1.57 -0.652 1.748 -0.419 1.867 0 2.084 0 1.844 -0.001 1.675 0.223 1.407 0.109 0.586 0.143 -0.133 -0.172 0.026 -0.229 -0.024 0.781" />
    <path class="write-flat-pen" fill="#000000" stroke-width="1.6" __comx="233.73" __comy="111.593" __timestamp="0x181ec772ff6" d="M227.105 111.052 l-0.241 1.159 -0.003 0.795 0 0.909 -0.002 0.975 0.191 1.033 0.576 0.415 0.577 0.347 0.706 -0.001 0.846 0 0.855 -0.776 0.768 -0.836 0.81 -0.957 0.771 -1.08 0.685 -0.989 0.526 -1.027 0.356 -1.015 0.388 -0.814 0.154 -0.581 0.227 -0.344 0.121 -0.141 -0.071 0.301 -0.249 0.055 -0.23 0.04 -0.125 -0.1 0.194 0.948 0.168 1.672 0.238 2.13 0.051 2.345 -0.004 2.603 -0.005 2.613 -0.003 2.84 -0.002 2.671 -0.361 2.381 -0.66 1.943 -0.706 1.479 -0.778 1 -0.682 0.526 -0.773 0.173 -0.929 0.001 -0.938 0.001 -0.634 -0.24 -0.474 -0.419 -0.142 -0.2 -0.001 -0.343 0 -0.309 0.356 -0.427 1.09 -0.871 1.342 -1.149 1.649 -1.482 1.781 -1.602 1.865 -1.851 1.663 -1.957 1.35 -1.645 0.806 -1.496 0.405 -1.638 -0.748 -0.291 -0.77 1.382 -0.836 1.23 -1.302 1.536 -1.62 1.905 -1.797 1.784 -1.755 1.578 -1.635 1.472 -1.31 1.122 -1.183 0.947 -0.781 0.936 0 0.827 -0.001 0.793 0.49 0.709 0.789 0.717 1.134 0.441 1.209 0.001 1.092 0.001 1.247 -0.281 1.086 -0.837 0.99 -1.272 0.809 -1.701 0.729 -2.147 0.396 -2.618 -0.002 -2.781 -0.003 -2.84 -0.005 -2.613 -0.004 -2.622 -0.076 -2.426 -0.267 -2.186 -0.211 -1.736 -0.311 -1.324 -0.504 -0.555 -0.356 0.04 -0.375 0.055 -0.197 0.528 0.121 0.313 0.1 0.338 -0.099 0.555 -0.37 0.777 -0.654 0.802 -0.736 0.791 -0.83 0.828 -0.871 0.964 -0.831 0.861 -0.747 0.754 -0.408 0.36 -0.291 0 -0.304 -0.001 -0.181 -0.108 -0.055 -0.04 -0.061 -0.33 -0.002 -0.842 0 -0.909 -0.003 -0.795 -0.241 -1.159" />
    <path class="write-flat-pen" fill="#000000" stroke-width="1.6" __comx="244.501" __comy="111.593" __timestamp="0x181ec7731c8" d="M247.167 105.8 l-0.706 -0.316 -0.659 -0.011 -0.622 0.273 -0.662 0.232 -0.895 0.491 -0.859 0.551 -1.01 0.454 -0.921 0.59 -0.71 0.427 -0.571 0.255 -0.581 0.523 0 0.782 0.001 0.682 0.344 1.081 1.119 1.074 1.365 0.982 1.612 0.726 1.687 0.583 1.505 0.451 1.137 0.431 0.679 0.348 0.151 0.225 0.001 0.385 -0.125 0.601 -0.797 0.717 -1.237 0.848 -1.35 0.634 -1.424 0.426 -1.158 0.209 -1.071 0 -0.572 0 -0.001 0.015 -0.064 -0.449 -0.045 -0.815 0.041 -0.735 0.634 -1.182 -0.407 -0.339 -1.22 1.042 -0.337 1.082 -0.045 1.003 0.063 1.142 0.883 0.697 1.069 0 1.202 0 1.368 -0.246 1.606 -0.483 1.555 -0.73 1.414 -0.969 1.224 -1.101 0.254 -1.216 0.001 -0.978 -0.606 -0.911 -1.089 -0.561 -1.263 -0.478 -1.525 -0.458 -1.596 -0.553 -1.418 -0.637 -1.16 -0.836 -0.776 -0.743 -0.161 -0.509 0.001 -0.454 0 -0.127 -0.076 0.069 0.439 -0.199 0.805 -0.482 0.847 -0.546 1.01 -0.454 0.909 -0.585 0.746 -0.418 0.601 -0.222 0.388 -0.181 0.351 -0.011 0.706 -0.316" />
    <path class="write-flat-pen" fill="#000000" stroke-width="1.6" __comx="253.23" __comy="111.593" __timestamp="0x181ec773284" d="M246.023 113.361 l3.921 0.072 1.855 -0.341 1.932 -0.571 1.87 -0.578 1.593 -0.687 1.306 -0.47 1.004 -0.603 0.716 -0.444 0.249 -0.549 -0.114 -0.782 -1.015 0 -0.114 0.46 -0.004 -0.094 -0.421 0.238 -0.89 0.533 -1.22 0.439 -1.564 0.676 -1.792 0.558 -1.856 0.565 -1.681 0.341 -3.804 0.329" />
    <path class="write-flat-pen" fill="#000000" stroke-width="1.6" __comx="259.622" __comy="111.593" __timestamp="0x181ec77338c" d="M254.22 104.77 l-0.155 3.5 0.177 1.858 0.246 2.161 0.246 2.273 0.252 2.177 0.321 1.985 0.465 1.693 0.592 1.206 0.936 0.843 1.031 0 0.994 0 1.141 -0.587 0.964 -0.993 0.839 -0.883 0.795 -0.669 0.774 -0.61 0.601 -0.456 0.739 -0.423 -0.024 -0.161 -0.937 -0.172 -0.914 0.226 -0.993 0.526 -0.973 0.694 -0.929 0.934 -0.804 0.824 -0.627 0.322 -0.648 0 -0.484 0 -0.327 -0.293 -0.418 -0.838 -0.419 -1.488 -0.31 -1.877 -0.254 -2.14 -0.26 -2.271 -0.259 -2.155 -0.202 -1.777 -0.155 -3.431" />
    <path class="write-flat-pen" fill="#000000" stroke-width="1.6" __comx="271.091" __comy="111.593" __timestamp="0x181ec7734fd" d="M266.347 116.688 l4.374 -1.119 1.134 -0.599 1.046 -0.588 0.914 -0.633 0.653 -0.734 0.268 -0.807 0 -0.565 0 -0.566 -0.499 -0.674 -1.05 -0.436 -1.072 -0.241 -1.148 -0.243 -1.082 0 -1.061 -0.001 -1.012 0.151 -0.859 0.768 -0.671 1.057 -0.435 1.262 -0.284 1.574 -0.073 1.652 -0.009 1.605 -0.006 1.562 0.357 1.569 0.743 1.21 0.977 0.947 1.213 0.584 1.183 0 1.307 0 1.411 -0.669 1.234 -0.869 0.978 -0.963 0.824 -0.848 0.599 -0.81 0.285 -0.912 0.12 -1.065 -0.167 -0.093 -0.856 0.692 -0.472 0.679 -0.538 0.553 -0.817 0.743 -0.916 0.854 -1.039 0.722 -0.988 0.467 -0.966 0 -0.837 0 -0.681 -0.325 -0.665 -0.643 -0.519 -0.835 -0.274 -1.158 -0.006 -1.391 -0.009 -1.576 0.053 -1.529 0.222 -1.379 0.322 -1.01 0.465 -0.761 0.404 -0.368 0.503 -0.076 0.959 -0.001 0.939 0 0.999 0.211 0.948 0.213 0.592 0.245 0.006 0.008 0 0.115 0 0.343 -0.11 0.329 -0.357 0.402 -0.727 0.503 -0.975 0.548 -1.013 0.537 -4.085 1.626" />
    <path class="write-flat-pen" fill="#000000" stroke-width="1.6" __comx="287.257" __comy="111.593" __timestamp="0x181ec77378e" d="M277.508 110.202 l-0.179 1.851 0.185 1.279 0.175 1.439 0.057 1.446 0.059 1.48 0.056 1.234 -0.002 1.117 -0.002 0.795 0 0.341 -0.001 0.227 1.487 0 0 -0.114 0 -0.795 -0.004 -1.25 -0.008 -1.28 0.277 -1.224 0.534 -1.299 0.554 -1.229 0.527 -1.067 0.628 -0.827 0.699 -0.738 0.644 -0.527 0.57 -0.413 0.245 -0.126 0.147 0.001 0.189 0.001 -0.363 0 0.052 0.225 0.115 0.876 0.18 1.361 0.181 1.459 0.118 1.447 0.058 1.483 0.122 1.234 -0.002 1.019 0.062 0.682 -0.001 0.307 1.483 0 0 -0.227 -0.004 -0.682 -0.014 -1 0.048 -0.907 0.333 -1.029 0.481 -1.207 0.477 -0.989 0.608 -1.114 0.672 -1.114 0.657 -0.98 0.646 -0.751 0.664 -0.657 0.384 -0.35 0.148 -0.044 0.157 0.002 -0.061 0.002 -0.058 -0.045 0.2 0.583 0.371 0.706 0.426 1.011 0.484 1.005 0.422 1.212 0.439 1.247 0.501 1.474 0.505 1.477 0.498 1.457 0.353 1.267 0.064 1.037 0.034 -0.137 -0.063 0.127 0 1.116 1.432 0.127 0.034 -1.273 -0.062 -1.235 -0.405 -1.459 -0.512 -1.497 -0.505 -1.477 -0.509 -1.479 -0.445 -1.252 -0.462 -1.288 -0.526 -1.039 -0.458 -1.033 -0.387 -0.658 -0.305 -0.781 -0.563 -0.499 -0.44 0.002 -0.348 0.002 -0.61 0.183 -0.626 0.558 -0.725 0.706 -0.743 0.84 -0.732 1.065 -0.717 1.158 -0.655 1.158 -0.533 1.056 -0.529 1.292 -0.424 1.243 -0.079 1.137 -0.014 1.045 -0.004 0.682 0 0.227 1.483 0 -0.001 -0.375 -0.064 -0.681 -0.002 -1.025 -0.131 -1.265 -0.069 -1.471 -0.135 -1.507 -0.197 -1.495 -0.199 -1.366 -0.138 -0.941 -0.327 -1.365 -0.742 0 -0.189 0.001 -0.485 0.001 -0.639 0.328 -0.693 0.495 -0.745 0.609 -0.816 0.853 -0.761 0.99 -0.61 1.205 -0.582 1.27 -0.602 1.427 -0.354 1.503 -0.008 1.447 -0.004 1.25 0 0.795 0 0.114 1.487 0 -0.001 -0.227 0 -0.341 -0.002 -0.795 -0.002 -1.155 -0.07 -1.265 -0.067 -1.474 -0.069 -1.507 -0.204 -1.514 -0.194 -1.22 -0.346 -1.753" />
    <path class="write-flat-pen" fill="#000000" stroke-width="1.6" __comx="343.658" __comy="111.593" __timestamp="0x181ec773db0" d="M344.333 110.931 l1.273 -0.311 0.237 -0.517 0.096 -0.216 0.188 -0.408 0.026 -0.449 0.029 -0.341 0.021 -0.341 0.019 -0.568 0.009 -0.718 -0.362 -0.828 -0.682 -0.691 -0.838 -0.689 -1.012 -0.284 -0.918 -0.129 -0.808 -0.004 -1.071 0 -1.028 1.078 -0.769 1.255 -0.674 1.696 -0.465 1.911 -0.263 2.245 0 2.201 0 2.031 0.5 1.799 0.92 1.379 1.298 0.73 1.389 0.13 1.445 0 1.615 -0.379 1.464 -0.732 1.294 -0.704 0.983 -0.483 0.777 -0.324 0.943 -0.538 -0.019 -0.159 -1.11 -0.292 -0.991 0.13 -1.163 0.426 -1.358 0.66 -1.314 0.631 -1.289 0.303 -1.207 0 -1.011 -0.097 -0.722 -0.406 -0.595 -0.893 -0.384 -1.381 0 -1.831 0 -2.116 0.242 -2.071 0.419 -1.724 0.589 -1.485 0.62 -1.016 0.488 -0.513 0.445 0 0.708 -0.004 0.724 0.098 0.629 0.17 0.551 0.447 0.454 0.445 0.143 0.308 0.009 0.418 0.019 0.568 0.021 0.341 0.029 0.341 0.026 0.233 -0.065 0.274 -0.03 0.238 -0.015 0.165 -0.622 0.738" />
    <path class="write-flat-pen" fill="#000000" stroke-width="1.6" __comx="359.121" __comy="111.593" __timestamp="0x181ec773f91" d="M363.5 111.353 l-2 -3.927 -0.798 -0.215 -0.718 -0.009 -0.79 -0.011 -1.088 0.293 -1.106 1.06 -1 1.199 -0.915 1.409 -0.899 1.496 -0.853 1.535 -0.654 1.763 -0.531 1.546 -0.209 1.367 -0.001 0.963 0 1.063 0.912 0 1.026 -0.001 1.295 -1.509 1.212 -1.493 1.394 -1.834 1.253 -1.705 1.056 -1.351 0.94 -1.14 0.609 -0.78 0.325 -0.339 0.001 -0.001 -0.703 0 0.001 0.101 0.251 1.259 0.182 1.577 0.26 1.652 0.388 1.288 0.287 1.035 0.623 0.8 0.732 0.376 0.612 -0.001 0.604 -0.032 0.698 -0.465 0.407 -1.146 -0.655 -0.364 -0.589 0.646 -0.186 -0.011 -0.28 -0.032 -0.272 -0.001 -0.152 -0.078 -0.261 -0.336 -0.218 -0.782 -0.369 -1.211 -0.245 -1.529 -0.197 -1.604 -0.255 -1.24 -0.125 -1.262 -0.829 0 -0.504 0.227 -0.559 0.57 -0.654 0.81 -0.954 1.132 -1.09 1.375 -1.273 1.703 -1.384 1.801 -1.187 1.46 -0.851 0.99 -0.363 -0.001 0.533 0 0 0.382 -0.001 -0.854 0.17 -1.132 0.479 -1.408 0.608 -1.644 0.789 -1.419 0.869 -1.457 0.853 -1.317 0.894 -1.073 0.788 -0.758 0.554 -0.161 0.599 -0.011 0.545 -0.009 0.086 0.012 2.109 3.21" />
    <path class="write-flat-pen" fill="#000000" stroke-width="1.6" __comx="372.128" __comy="111.593" __timestamp="0x181ec7740c2" d="M370.261 90.929 l1.831 -0.485 -0.971 -0.497 0.241 1.48 0.37 2.149 0.371 2.688 0.186 2.925 0.187 3.284 0.125 3.52 0.189 3.516 0.063 3.275 0 2.72 0 2.045 0 1.363 0 0.568 1.383 -0.214 -0.301 -0.729 -0.33 -1.511 -0.453 -2.319 -0.629 0.058 -0.016 2.399 0.175 1.67 0.204 0.861 1.383 -0.214 0 -0.568 0 -1.363 0 -2.045 0 -2.733 -0.063 -3.313 -0.19 -3.527 -0.128 -3.523 -0.192 -3.304 -0.193 -2.982 -0.387 -2.764 -0.388 -2.168 -0.264 -1.473 -0.971 -0.497 -1.504 1.151" />
    <path class="write-flat-pen" fill="#000000" stroke-width="1.6" __comx="380.853" __comy="111.593" __timestamp="0x181ec7741ce" d="M377.996 87.068 l0.219 3.65 0.246 2.039 0.313 2.401 0.502 2.961 0.503 3.297 0.628 3.521 0.566 3.743 0.567 3.514 0.378 2.949 0.314 2.149 0.121 1.201 0 0.42 1.357 0 -0.136 -0.454 -0.308 -1.484 -0.468 0 -0.308 1.484 -0.136 0.454 1.357 0 0 -0.489 -0.132 -1.299 -0.317 -2.167 -0.379 -2.958 -0.569 -3.529 -0.571 -3.754 -0.634 -3.522 -0.508 -3.291 -0.508 -2.946 -0.319 -2.37 -0.26 -2.051 -0.888 -3.567" />
    <path class="write-flat-pen" fill="#000000" stroke-width="1.6" __comx="397.243" __comy="111.593" __timestamp="0x181ec7743a5" d="M400.174 105.908 l0.41 -2.591 -0.707 -0.265 -0.485 -0.301 -0.64 -0.008 -0.804 -0.005 -1.062 0.134 -1.253 0.659 -1.201 0.955 -1.091 0.921 -0.94 0.843 -0.708 0.891 -0.429 0.771 -0.263 0.63 0 0.603 0.001 0.898 1.095 0.985 1.443 0.618 1.68 0.698 1.948 0.584 1.82 0.452 1.669 0.556 1.186 0.427 0.297 0.178 0.039 0.092 0 0.301 -0.417 0.599 -1.208 0.79 -1.847 0.75 -2.008 0.531 -1.924 0.013 -1.768 0.039 -1.083 0.091 -0.973 0.072 -0.126 0.701 0.992 0.425 1.19 0.091 1.768 0.039 2.117 0.013 2.286 -0.605 2.068 -0.84 1.57 -1.027 0.846 -1.219 0 -1.062 -0.34 -0.816 -0.839 -0.504 -1.339 -0.481 -1.741 -0.58 -1.842 -0.457 -1.841 -0.552 -1.603 -0.665 -1.209 -0.518 -0.421 -0.379 0.001 -0.238 0 -0.306 0.116 -0.279 0.328 -0.592 0.555 -0.699 0.828 -0.748 1.056 -0.896 1.072 -0.862 0.894 -0.477 0.706 -0.093 0.711 -0.005 0.244 -0.008 0.273 0.153 -0.076 -0.037 0.41 1.614" />
    <path class="write-flat-pen" fill="#000000" stroke-width="1.6" __comx="172.769" __comy="187.461" __timestamp="0x181ec774af2" d="M171.737 186.972 l-1.716 0.205 0.041 -0.035 -0.126 -0.024 0.32 -0.017 0.215 0.366 0.005 -0.283 0.004 -0.42 0.174 -0.373 0.541 -0.354 0.721 -0.498 0.852 -0.192 0.81 -0.104 0.904 -0.001 0.38 0.001 0.066 0.078 0.084 0.449 0 0.824 -0.051 0.719 -0.451 0.721 -0.599 0.685 -0.594 0.387 -0.518 0.28 -0.404 0.08 -0.565 0 -0.148 0 0.022 0.025 -0.087 -0.541 -0.009 -0.856 -0.001 -0.777 0.293 -0.702 0.52 -0.657 0.672 -0.505 0.633 -0.415 0.582 -0.262 0.49 0 0.294 -0.004 -0.076 -0.055 0.075 0.475 0 0.857 -0.001 0.841 -0.156 0.745 -0.359 0.645 -0.448 0.502 -0.334 0.344 -0.321 0.128 -0.379 -0.001 -0.098 0 -0.033 -0.048 -0.102 -0.595 -0.014 -0.744 -0.007 -0.823 0.112 -0.426 0.325 -0.293 0.498 -0.301 0.29 -0.15 0.292 -0.001 0.208 0 -0.21 -0.127 0.015 0.12 -0.001 0.525 0 0.323 -0.157 0.339 -0.432 0.431 -0.491 0.292 -0.48 0.257 -0.346 -0.002 -0.442 0 0.228 0 0.025 0.092 0 -0.595 -0.002 -0.795 -0.005 -0.428 0.219 -0.227 0.387 -0.263 0.14 -0.051 0.207 -0.001 0.253 0 -0.176 -0.001 -0.13 -0.232 -0.001 0.407 -0.001 0.341 -0.001 0.454 -0.001 -0.399 0.616 -0.005 0.006 0.005 -0.06 -0.105 0.001 -0.291 -0.001 -0.341 -0.003 -0.114 0 0.4 -0.312 -0.004 0.316 -0.002 0.316 -0.001 0.189 -0.001 -0.557 0 -0.001 -0.392 -0.002 0.227 -0.002 -0.207 0.107 -0.082 -0.239 0 -0.379 -0.002 -0.316 0 0.442 0 -0.006 0.404 0 -0.065 -0.013 0.022 0.271 -0.08 0.311 -0.282 -0.011 0.006 -0.11 0 -0.56 -0.001 0.002 -0.396 0.05 0.454 0.145 0.653 0.853 0 0.145 -0.653 0.05 -0.454 0.002 -0.85 -0.686 -0.001 -0.236 0 -0.389 0.234 -0.194 0.173 -0.487 0.148 -0.392 0.704 0 0.389 -0.006 0.859 0.821 0 0.316 0 0.379 -0.002 0.645 0 0.738 -0.536 -0.002 -0.434 -0.002 -0.227 -0.001 -0.847 -0.683 0 -0.189 -0.001 -0.316 -0.001 -0.316 -0.002 -0.943 -0.004 0 0.855 -0.003 0.114 -0.001 0.341 0.001 0.618 0.319 0.576 0.511 0.46 1.121 -0.005 -0.001 -0.853 -0.001 -0.454 -0.001 -0.341 -0.001 -0.729 -0.382 -0.687 -0.554 -0.001 -0.253 0 -0.424 -0.001 -0.491 0.176 -0.624 0.419 -0.665 0.682 -0.005 0.935 -0.002 0.795 0 0.768 0.278 1 0.733 0 0.442 0 0.664 -0.002 0.783 -0.425 0.645 -0.39 0.705 -0.704 0.348 -0.797 0 -0.586 -0.001 -0.611 -0.111 -0.789 -0.589 -0.355 -0.55 0 -0.592 -0.001 -0.594 0.304 -0.638 0.38 -0.685 0.615 -0.267 0.938 -0.007 0.995 -0.014 0.846 0.15 0.996 0.598 0.861 0.786 0 0.632 -0.001 0.815 -0.326 0.55 -0.565 0.562 -0.634 0.525 -0.946 0.223 -1.072 -0.001 -0.976 0 -0.96 -0.177 -1.115 -0.708 -0.509 -0.716 -0.004 -0.773 0 -0.934 0.42 -0.756 0.494 -0.843 0.631 -0.742 0.933 -0.465 1.116 -0.001 1.041 -0.009 0.962 0.166 1.049 0.653 0.706 0.736 0 0.698 0 0.732 -0.147 0.745 -0.402 0.795 -0.521 0.79 -0.905 0.685 -1.096 0.075 -1.099 0 -0.993 -0.169 -0.914 -0.691 -0.831 -1.009 0.001 -0.99 -0.001 -0.958 0.124 -1.168 0.262 -0.921 0.638 -0.848 0.555 -0.458 0.99 0.004 0.716 0.005 0.626 0.341 0.593 0.446 -0.017 0.126 -0.024 0.167 -0.035 1.623 -1.047" />
    <path class="write-flat-pen" fill="#000000" stroke-width="1.6" __comx="214.985" __comy="187.461" __timestamp="0x181ec77504e" d="M216.212 173.467 l0.118 0.48 -0.015 0.969 -0.003 1.704 -0.005 2.247 -0.189 2.423 -0.622 2.676 -0.632 2.715 -0.692 2.603 -0.632 2.382 -0.571 2.053 -0.385 1.62 -0.195 1.054 -0.061 0.47 1.33 0.216 -0.03 -1.017 0.405 -1.812 -0.311 -0.123 -0.981 1.68 -0.409 1.027 1.33 0.216 0.066 -0.439 0.183 -0.99 0.372 -1.561 0.565 -2.037 0.631 -2.389 0.697 -2.623 0.63 -2.738 0.641 -2.777 0.19 -2.576 -0.005 -2.297 -0.003 -1.704 -0.015 -1.303 -0.508 -0.646" />
    <path class="write-flat-pen" fill="#000000" stroke-width="1.6" __comx="224.681" __comy="187.461" __timestamp="0x181ec77513a" d="M219.941 175.118 l2.943 5.195 1.039 2.228 0.988 2.582 0.928 2.807 0.744 2.923 0.625 2.816 0.438 2.481 0.315 1.928 0.181 1.085 0 -0.124 0.701 0.018 -0.694 -0.541 -1.494 -1.308 -0.445 0.404 1.183 1.636 0.948 1.049 1.079 0.018 0 -1.26 -0.198 -1.187 -0.316 -1.934 -0.446 -2.517 -0.637 -2.863 -0.772 -2.984 -0.967 -2.872 -1.032 -2.644 -1.108 -2.315 -3.296 -5.054" />
    <path class="write-flat-pen" fill="#000000" stroke-width="1.6" __comx="220.808" __comy="187.461" __timestamp="0x181ec7751df" d="M214.174 191.851 l4.847 -0.536 2.021 -0.697 2.093 -0.799 1.728 -0.666 1.404 -0.364 1.301 -0.507 -0.19 -0.793 -1.387 0.137 -1.501 0.318 -1.807 0.697 -2.074 0.791 -1.893 0.666 -4.668 0.952" />
    <path class="write-flat-pen" fill="#000000" stroke-width="1.6" __comx="234.448" __comy="187.461" __timestamp="0x181ec7752fc" d="M232.033 177.905 l1.036 3.812 0.681 2.024 0.545 2.213 0.367 2.56 0.248 2.813 0.189 2.948 0.187 2.61 0.127 2.262 0.061 1.458 0.001 0.78 0.008 0.227 1.331 -0.228 -0.491 -1.181 -0.497 -1.959 -0.575 -2.708 -0.504 0.064 0.12 2.794 0.261 2.13 0.393 1.318 1.331 -0.228 0.008 -0.227 0.001 -0.81 -0.065 -1.496 -0.125 -2.282 -0.192 -2.615 -0.19 -2.959 -0.257 -2.867 -0.391 -2.665 -0.591 -2.331 -0.708 -2.065 -1.405 -3.683" />
    <path class="write-flat-pen" fill="#000000" stroke-width="1.6" __comx="239.801" __comy="187.461" __timestamp="0x181ec7753f3" d="M234.19 178.344 l3.838 -0.897 1.381 -0.328 1.402 -0.329 1.38 -0.106 1.175 0.001 0.748 0.001 0.208 0.21 0.049 1.103 -0.018 1.678 -0.893 2.219 -1.468 2.531 -1.726 2.216 -1.573 1.739 -1.163 0.797 -0.686 0.185 0.197 0.042 -0.138 -0.771 -0.962 0 -0.138 2.009 1.208 0.042 1.082 -0.269 1.489 -1.02 1.71 -1.896 1.809 -2.328 1.562 -2.695 1.001 -2.552 -0.018 -1.957 -0.077 -1.623 -0.928 -0.926 -1.272 0.001 -1.224 0.001 -1.525 0.121 -1.502 0.352 -1.397 0.353 -3.779 1.171" />
    <path class="write-flat-pen" fill="#000000" stroke-width="1.6" __comx="259.087" __comy="187.461" __timestamp="0x181ec775524" d="M253.055 175.847 l3.255 0.22 1.831 0.001 1.957 0.002 1.831 0 1.515 -0.02 0.563 -0.065 0.161 -0.011 0.287 0.834 0.376 0 0.287 -1.132 -0.47 -0.919 -1.205 -0.065 -1.515 -0.02 -1.831 0 -1.957 0.002 -1.831 0.001 -3.255 0.22" />
    <path class="write-flat-pen" fill="#000000" stroke-width="1.6" __comx="261.525" __comy="187.461" __timestamp="0x181ec7755da" d="M261.281 179.015 l-0.148 4.347 0.18 1.844 0.183 2.01 -0.003 2.013 0 2.045 0 2.045 0.002 1.818 0.03 1.501 -0.215 0.98 -0.383 0.826 -0.748 0.854 0.384 0.469 1.11 -0.666 0.753 -0.991 0.416 -1.292 0.03 -1.68 0.002 -1.818 0 -2.045 0 -2.045 -0.003 -2.076 -0.196 -2.08 -0.198 -1.791 -0.289 -4.281" />
    <path class="write-flat-pen" fill="#000000" stroke-width="1.6" __comx="263.396" __comy="187.461" __timestamp="0x181ec7756fd" d="M254.514 200.491 l2.68 0.256 2.715 0 3.22 0 3.446 -0.031 3.228 -0.45 2.474 -0.591 -0.011 -0.229 -2.553 -0.353 -3.212 0.232 -3.373 -0.031 -3.22 0 -2.715 0 -2.68 0.256" />
    <path class="write-flat-pen" fill="#0000FF" stroke-width="1.6" __comx="311.334" __comy="269.636" __timestamp="0x181ec7792e7" d="M307.661 269.598 l-0.713 -0.316 0 1.426 0.264 0.014 0.362 -0.217 0.301 -0.18 0.646 -0.193 0.906 -0.204 0.866 0 0.677 0 0.07 0.015 0.059 0.124 0.053 0.53 0.002 0.648 0.001 0.496 -0.13 0.24 -0.286 0.174 -0.503 0.083 -0.637 0 -0.571 0.003 -0.268 -0.091 -0.227 -0.39 -0.145 -0.398 -0.008 -0.684 -0.004 -0.394 0.026 -0.049 0.267 -0.181 0.309 -0.07 0.431 0 0.505 0 0.442 0 0.193 0.001 0.066 0.04 0.175 0.315 0.094 0.513 -0.001 0.961 0 0.909 -0.233 0.668 -0.497 0.537 -0.215 0.165 0.041 -0.001 0.553 0 -0.005 -0.056 -0.086 -1.104 -0.029 -1.231 -0.019 -1.107 0.452 -0.952 0.537 -0.625 0.457 -0.15 0.281 0 0.17 0.131 0.353 0.833 0.216 1.148 0.054 1.304 -0.007 1.236 -0.006 0.749 -0.131 0.219 0.006 -0.01 -0.142 -0.005 -0.184 0 -0.254 -0.17 -0.414 -0.538 -0.333 -0.653 -0.122 -0.66 -0.013 -0.635 -0.009 -0.467 -0.012 0.032 0.086 -0.022 0.56 0 0.695 0.002 0.736 0.01 0.648 0.206 0.473 0.198 0.142 0.113 -0.029 -0.025 -0.013 0.294 -0.007 0.093 -0.39 0.23 -0.88 0.295 -0.906 0.1 -0.848 -0.001 -0.378 0 -0.194 -0.25 -0.107 -0.255 -0.003 -0.211 -0.003 0.414 -0.326 -0.022 0.631 -0.06 1.028 -0.352 0 -0.415 -1.028 -0.352 -0.631 -0.06 -0.957 -0.022 -0.003 0.869 -0.003 0.47 0.272 0.654 0.69 0.886 1.011 0 0.92 -0.001 1.115 -0.127 1.141 -0.387 1.126 -0.679 -0.007 -0.816 -0.013 -0.615 -0.282 -0.479 -0.49 -0.342 -0.663 -0.256 -0.867 -0.248 -0.905 0.01 -0.695 0.002 -0.703 0 -0.798 0.205 -0.264 0.713 -0.009 0.669 -0.013 0.728 0.13 0.93 0.425 0.937 0.596 0.825 0.756 0.512 0.574 0 0.363 -0.005 0.638 -0.238 0.5 -0.917 -0.006 -1.069 -0.007 -1.264 -0.073 -1.422 -0.289 -1.351 -0.531 -1.211 -0.714 -0.551 -0.855 0 -0.932 0.304 -0.853 0.965 -0.684 1.32 -0.019 1.392 -0.029 1.268 0.04 1.168 0.121 1.307 0.679 0 0.419 -0.001 0.668 -0.516 0.766 -0.827 0.398 -1.15 0 -1.136 -0.001 -1.084 -0.159 -0.85 -0.457 -0.821 -0.692 -0.414 -0.564 0.001 -0.442 0 -0.505 0 -0.579 0 -0.701 0.157 -0.743 0.501 -0.353 0.633 -0.004 0.742 -0.008 0.906 0.234 0.738 0.531 0.973 0.994 0.363 0.818 0.003 0.752 0 0.886 -0.144 0.85 -0.508 0.501 -0.896 0.001 -0.867 0.002 -0.715 -0.074 -0.834 -0.446 -1.012 -0.94 -0.212 -0.839 0 -1.028 0 -1.114 0.25 -0.869 0.261 -0.457 0.274 -0.017 0.01 0.138 0.014 0 1.426 0.713 -0.316" />
    <path class="write-flat-pen" fill="#0000FF" stroke-width="1.6" __comx="343.63" __comy="271.26" __timestamp="0x181ec779fd7" d="M348.977 259.592 l0.969 0.443 -0.266 -1.384 -0.624 0.205 -1.325 0.709 -1.689 1.052 -1.885 1.403 -1.814 1.633 -1.676 1.74 -1.273 1.488 -1 1.125 -0.655 0.707 -0.691 0.933 0.839 0.75 1.376 0.74 1.959 0.816 2.13 0.69 2.038 0.569 1.642 0.45 1.051 0.296 0.36 0.294 0.074 0.461 0 0.902 -0.568 1.115 -1.187 1.28 -1.393 1.416 -1.391 0.939 -1.247 0.51 -1.122 0.202 -0.596 0.006 -0.02 0.011 -0.042 0.013 0.014 -0.399 0.865 -0.712 1.414 -1.343 -0.094 -0.14 -1.757 0.796 -1.408 0.651 -0.365 0.964 -0.042 0.922 0.991 0.693 1.172 0.006 1.404 -0.253 1.531 -0.626 1.639 -1.106 1.512 -1.537 1.339 -1.447 0.821 -1.611 0 -1.37 -0.178 -1.129 -1.029 -0.842 -1.348 -0.386 -1.641 -0.459 -2.003 -0.567 -2.038 -0.673 -1.83 -0.774 -1.149 -0.623 0.334 0.295 -0.186 0.251 0.608 -0.657 1.02 -1.147 1.253 -1.465 1.607 -1.668 1.721 -1.548 1.777 -1.323 1.595 -0.993 1.201 -0.654 0.512 -0.249 -0.266 -1.384 -0.969 0.443" />
    <path class="write-flat-pen" fill="#0000FF" stroke-width="1.6" __comx="360.732" __comy="271.26" __timestamp="0x181ec77a180" d="M350.475 274.059 l3.915 4.553 0.912 1.32 0.792 1.189 0.742 0.743 0.751 0.225 0.874 -0.262 0.637 -1.293 0.702 -1.404 0.563 -1.647 0.546 -1.729 0.422 -1.492 0.352 -1.209 0.323 -0.689 0.216 -0.259 0.124 -0.036 0.228 0.009 0.064 0.021 0.266 0.413 0.519 0.974 0.672 1.456 0.802 1.787 0.74 2.113 0.679 2.337 0.494 2.554 0.308 2.782 0.062 2.688 0 2.605 0 2.272 0 1.753 -0.12 0.65 -0.133 0.079 -0.309 -0.002 -0.687 -0.58 -0.94 -1.27 -0.764 -1.27 -0.448 -1.308 -0.058 -1.474 0 -1.504 0.337 -1.621 0.926 -1.462 1.219 -1.658 1.499 -1.657 1.655 -1.411 1.632 -2.046 -0.535 -0.51 -1.909 1.67 -1.755 1.315 -1.657 1.751 -1.306 1.75 -1.094 1.719 -0.42 2.014 0 1.677 0.068 1.707 0.563 1.645 0.877 1.456 1.08 1.456 1.207 1.01 1.206 -0.002 1.003 -0.603 0.258 -1.395 0 -1.882 0 -2.272 0 -2.621 -0.064 -2.765 -0.323 -2.898 -0.517 -2.672 -0.71 -2.434 -0.775 -2.204 -0.839 -1.848 -0.717 -1.497 -0.618 -1.07 -0.744 -0.95 -0.694 0.021 -0.403 0.009 -0.634 0.191 -0.541 0.649 -0.434 0.902 -0.406 1.29 -0.462 1.462 -0.591 1.679 -0.573 1.534 -0.687 1.322 -0.373 0.751 0.116 -0.035 -0.007 -0.002 -0.394 -0.393 -0.724 -1.083 -0.983 -1.406 -4.307 -4.322" />
    <path class="write-flat-pen" fill="#0000FF" stroke-width="1.6" __comx="375.998" __comy="271.26" __timestamp="0x181ec77a2f2" d="M378.09 264.351 l-3.632 3.576 -1.014 1.02 -0.738 0.762 -0.77 0.621 -0.348 0.617 -0.003 0.411 0 0.114 0 0.684 1.053 0.232 0.928 0.237 1.234 0.112 1.456 0.207 1.251 0.094 0.979 0.187 0.433 0.281 0.176 0.381 -0.001 0.765 -0.011 1.105 -0.502 1.078 -0.777 1.275 -0.815 0.932 -0.855 0.715 -0.657 0.364 -0.52 0.086 -0.116 0.031 -0.023 0.135 -0.421 -1.092 -0.284 0 -0.421 1.464 0.482 0.816 0.894 0.031 0.869 -0.142 0.985 -0.545 1.04 -0.875 0.953 -1.113 0.864 -1.451 0.634 -1.421 -0.011 -1.394 -0.001 -1.053 -0.455 -0.982 -0.956 -0.628 -1.294 -0.267 -1.274 -0.133 -1.448 -0.247 -1.165 -0.115 -0.84 -0.217 0.042 0.004 0 0.457 0 -0.114 -0.003 -0.043 0.031 -0.064 0.619 -0.515 0.777 -0.828 1.006 -1.025 3.425 -3.788" />
    <path class="write-flat-pen" fill="#0000FF" stroke-width="1.6" __comx="387.235" __comy="271.26" __timestamp="0x181ec77a395" d="M381.966 273.557 l5.004 -0.833 2.142 -0.963 1.912 -1.196 1.359 -1.198 0.347 -1.2 -0.188 -1.202 -0.836 0 -0.188 0.997 -0.285 0.618 -1.04 0.846 -1.75 1.076 -1.899 0.854 -4.802 0.983" />
    <path class="write-flat-pen" fill="#0000FF" stroke-width="1.6" __comx="391.424" __comy="271.26" __timestamp="0x181ec77a487" d="M386.318 264.66 l-0.131 4.086 -0.019 1.818 -0.013 2.179 0.125 2.367 0.594 2.281 0.797 1.927 1.001 1.567 0.957 1.196 1.069 0.483 0.877 0 0.809 -0.182 0.913 -0.969 0.933 -1.043 0.896 -1.043 0.906 -1.006 0.661 -1.366 -0.55 -0.382 -0.984 1.002 -0.988 0.812 -0.998 1.002 -0.961 1.002 -0.602 0.621 -0.201 0.045 -0.386 0 -0.446 -0.199 -0.685 -0.849 -0.893 -1.386 -0.718 -1.708 -0.542 -2.036 -0.128 -2.177 -0.013 -2.138 -0.019 -1.818 -0.131 -4.086" />
    <path class="write-flat-pen" fill="#0000FF" stroke-width="1.6" __comx="401.732" __comy="271.26" __timestamp="0x181ec77a5b7" d="M396.72 275.706 l4.718 -0.604 1.307 -0.915 1.034 -0.994 0.641 -0.907 0.402 -0.886 -0.008 -0.837 -0.007 -0.9 -1.224 -0.547 -1.089 -0.259 -1.028 0 -1.085 -0.002 -1.188 0.761 -0.888 1.453 -0.538 1.661 -0.591 1.73 -0.404 1.745 -0.335 1.612 -0.209 1.321 -0.006 1.193 -0.004 1.147 1.02 0.525 1.069 0 1.394 -0.003 1.656 -0.916 1.513 -1.085 1.3 -1.212 1.138 -1.349 0.839 -1.352 0.665 -1.358 0.425 -1.433 -0.389 -0.173 -0.758 1.228 -0.85 1.141 -0.929 1.147 -1.135 1.15 -1.225 1.059 -1.391 0.959 -1.248 0.674 -1.005 -0.003 -0.699 0 0.136 0.071 -0.004 -0.216 -0.006 -1.079 0.17 -1.178 0.296 -1.568 0.354 -1.663 0.546 -1.678 0.472 -1.519 0.628 -1.046 0.58 -0.375 0.683 -0.002 0.866 0 0.806 0.195 0.292 0.135 -0.007 0.009 -0.008 0.526 -0.229 0.477 -0.495 0.684 -0.86 0.823 -0.966 0.676 -4.303 1.143" />
    <path class="write-flat-pen" fill="#0000FF" stroke-width="1.6" __comx="419.305" __comy="271.26" __timestamp="0x181ec77a783" d="M407.561 271.305 l-0.233 2.048 0.047 1.573 0.114 1.479 0.055 1.445 -0.005 1.12 -0.003 0.795 -0.002 0.671 0.244 0.878 1.452 0 -0.013 -0.939 0.031 -0.383 0.41 -0.74 0.714 -0.97 0.927 -1.126 0.937 -1.136 0.882 -1.024 0.736 -0.886 0.691 -0.67 0.725 -0.28 0.633 -0.189 0.597 0.004 0.275 0.052 0.309 0.651 0.411 1.294 0.352 1.394 0.116 1.498 -0.004 1.334 -0.001 0.909 0 0.568 0.999 0.702 0.527 -0.191 0.622 -0.86 0.648 -0.824 0.692 -1.152 0.727 -1.006 0.737 -1.013 0.706 -0.863 0.694 -0.634 0.638 -0.478 0.597 -0.178 0.66 -0.097 0.707 0.009 0.506 0.013 0.563 0.485 0.715 0.903 0.577 1.254 0.41 1.158 0.185 1.013 0.089 1.355 1.236 0 0.089 -1.472 -0.194 -1.259 -0.474 -1.341 -0.685 -1.472 -0.927 -1.142 -1.078 -0.878 -1.01 0.013 -0.808 0.009 -0.855 0.13 -0.918 0.277 -0.878 0.658 -0.821 0.729 -0.809 0.955 -0.778 1.032 -0.789 1.039 -0.697 1.12 -0.615 0.767 -0.389 0.503 -0.104 0.036 0.999 0.702 0 -0.568 -0.001 -0.909 -0.004 -1.393 -0.137 -1.683 -0.405 -1.559 -0.473 -1.433 -0.701 -1.394 -1.115 -0.175 -0.918 0.004 -0.882 0.265 -1.042 0.402 -0.95 0.921 -0.779 0.931 -0.886 1.02 -0.957 1.136 -0.967 1.146 -0.802 1.075 -0.6 1.078 -0.095 0.753 -0.013 -0.485 1.199 0 0.118 0.423 -0.002 -0.465 -0.003 -0.795 -0.005 -1.152 -0.071 -1.508 -0.139 -1.475 -0.08 -1.608 -0.792 -1.976" />
    <path class="write-flat-pen" fill="#0000FF" stroke-width="1.6" __comx="462.921" __comy="271.26" __timestamp="0x181ec77ab52" d="M466.597 274.712 l-1.506 -3.52 -0.588 -0.634 -0.692 -0.325 -0.712 -0.157 -0.828 -0.012 -0.884 -0.01 -1.179 -0.004 -1.173 0.561 -1.159 0.907 -0.917 1.266 -0.759 1.488 -0.423 1.648 -0.001 1.798 -0.001 1.873 0.868 1.824 1.129 1.397 1.435 1.033 1.549 0.531 1.605 0 1.739 -0.138 1.709 -1.178 1.496 -1.411 1.285 -1.089 1.476 -1.424 -0.228 -0.338 -1.892 0.849 -1.494 0.955 -1.535 1.315 -1.322 0.867 -1.291 0.09 -1.299 0 -1.102 -0.378 -1.091 -0.785 -0.892 -1.102 -0.647 -1.357 -0.001 -1.534 -0.001 -1.61 0.335 -1.305 0.63 -1.238 0.724 -1.006 0.862 -0.683 0.721 -0.348 0.842 -0.004 0.884 -0.01 0.687 -0.012 0.424 0.07 0.319 0.13 0.296 0.275 1.89 3.098" />
    <path class="write-flat-pen" fill="#0000FF" stroke-width="1.6" __comx="481.056" __comy="271.26" __timestamp="0x181ec77ace0" d="M481.54 271.889 l-1.062 -1.249 -1.096 -0.005 -1.209 -0.007 -1.061 1.172 -0.998 1.316 -0.925 1.664 -0.804 1.8 -0.405 1.812 -0.202 1.67 -0.003 0.953 -0.001 0.341 1.425 0.302 0.186 -0.424 0.711 -0.644 1.44 -0.871 1.638 -0.916 1.493 -0.903 1.245 -0.6 0.895 -0.754 0.514 -0.465 0.329 -0.296 -0.034 0.022 -0.068 0.002 -0.352 0.003 -0.022 -0.034 0.552 1.117 0.713 1.522 1.039 1.522 0.783 1.174 0.753 0.846 0.575 -0.012 0.747 -0.046 -0.016 -1.634 -0.06 -1.869 -0.521 -0.062 -0.501 1.833 -0.143 0.411 0.494 -0.046 0.07 -0.012 -0.258 -0.29 -0.732 -1.098 -0.981 -1.432 -0.676 -1.431 -0.585 -1.155 -0.401 -0.715 -0.478 0.003 -0.32 0.002 -0.413 0.249 -0.429 0.386 -0.496 0.444 -0.747 0.609 -1.155 0.536 -1.538 0.915 -1.646 0.902 -1.591 0.947 -1.057 0.946 -0.319 0.712 1.425 0.302 -0.001 -0.341 -0.003 -0.865 0.177 -1.51 0.353 -1.596 0.712 -1.608 0.843 -1.517 0.896 -1.183 0.581 -0.645 0.559 -0.007 0.545 -0.005 0.944 0.556" />
    <path class="write-flat-pen" fill="#0000FF" stroke-width="1.6" __comx="491.305" __comy="271.26" __timestamp="0x181ec77adbe" d="M488.233 256.401 l0.38 3.658 0.686 2.503 0.685 2.928 0.621 3.154 0.502 3.295 0.632 3.195 0.565 2.943 0.378 2.264 0.242 1.417 0.006 0.393 1.441 0 -0.028 -0.1 -0.011 -1.592 -0.164 -2.739 -0.91 0 -0.164 2.715 -0.137 1.589 -0.028 0.127 1.441 0 0.006 -0.516 -0.263 -1.536 -0.38 -2.279 -0.571 -2.964 -0.63 -3.167 -0.508 -3.294 -0.642 -3.208 -0.704 -2.979 -0.703 -2.495 -1.249 -3.425" />
    <path class="write-flat-pen" fill="#0000FF" stroke-width="1.6" __comx="498.497" __comy="271.26" __timestamp="0x181ec77ae94" d="M494.714 254.749 l0.709 4.15 0.556 2.712 0.562 3.165 0.567 3.522 0.636 3.555 0.954 3.661 0.824 3.19 0.705 2.381 0.471 1.743 1.286 -0.067 0.294 -1.453 -0.818 -0.273 -0.358 0.502 0.654 -0.067 -0.16 -0.756 -0.684 -2.39 -0.817 -3.171 -0.94 -3.609 -0.627 -3.487 -0.57 -3.521 -0.575 -3.196 -0.581 -2.74 -1.145 -4.064" />
    <path class="write-flat-pen" fill="#0000FF" stroke-width="1.6" __comx="511.071" __comy="271.26" __timestamp="0x181ec77b006" d="M512.61 265.144 l-0.711 -0.063 -0.603 -0.013 -1.002 0.274 -1.097 0.615 -1.217 0.727 -1.053 1.007 -0.824 1.11 -0.599 1.07 -0.155 1.096 -0.001 0.915 0.197 1.065 1.265 0.814 1.151 0.259 1.281 0.243 1.56 -0.004 1.567 0.101 1.538 0.312 0.961 0.36 0.379 0.476 0.099 0.889 -0.008 1.016 -0.192 0.825 -0.474 0.427 -0.689 0.252 -0.715 0.045 -1.077 -0.503 -0.535 0.714 1.153 1.168 1.431 0.045 1.205 -0.43 1.041 -0.936 0.313 -1.447 -0.008 -1.256 -0.154 -1.382 -0.884 -1.114 -1.438 -0.549 -1.745 -0.369 -1.716 -0.126 -1.471 -0.004 -1.118 -0.212 -0.869 -0.195 -0.503 -0.322 -0.056 -0.298 -0.001 -0.676 0.097 -0.722 0.411 -0.748 0.691 -0.935 0.841 -0.811 1.056 -0.636 0.923 -0.521 0.64 -0.181 0.407 -0.013 0.711 -0.063" />
    <path class="write-flat-pen" fill="#0000FF" stroke-width="1.6" __comx="555.657" __comy="271.26" __timestamp="0x181ec77b2a5" d="M557.723 256.95 l-3.399 3.23 -1.297 1.629 -1.342 1.838 -1.324 1.929 -1.25 1.687 -1.116 1.45 -0.987 1.11 -0.603 0.65 -0.606 0.545 0 0.567 0 0.829 1.62 0.389 1.874 0.001 2.974 -0.119 3.306 -1.191 3.084 -1.506 2.499 -1.389 1.774 -1.151 1.304 -0.809 0.858 -0.569 0.423 -0.778 -0.183 -0.522 -0.308 -0.429 -0.177 0 -0.308 0.429 -0.183 0.159 -0.208 0.131 -0.657 0.339 -1.348 0.781 -1.762 1.121 -2.426 1.337 -2.977 1.447 -3.008 1.081 -2.708 0.108 -1.662 0.001 -0.274 -0.066 0 0.375 0 0.113 0.152 -0.136 0.66 -0.713 1.033 -1.162 1.157 -1.504 1.275 -1.721 1.328 -1.933 1.31 -1.797 1.229 -1.551 3.046 -3.469" />
    <path class="write-flat-pen" fill="#0000FF" stroke-width="1.6" __comx="556.37" __comy="271.26" __timestamp="0x181ec77b42f" d="M558.481 260.554 l-0.444 2.49 0.441 2.208 0.497 2.607 0.562 3.061 0.565 3.29 0.568 3.302 0.569 2.961 0.511 2.642 0.513 1.846 0.253 0.909 1.457 -0.199 -0.016 -0.572 -0.635 -1.792 -0.744 -2.346 -0.783 -2.69 -0.815 -2.809 -0.784 -2.475 -0.812 -1.9 -0.443 -1.365 -0.309 -0.804 -0.033 -0.541 0.048 -0.196 -0.138 -0.448 -0.534 -0.063 -0.761 0.163 -0.813 1.132 -0.843 1.626 -1.022 1.938 -1.075 2.261 -1.322 2.371 -1.129 2.141 -1.047 1.657 -0.719 0.97 -0.289 0.313 1.213 0.475 -0.015 -0.07 0.104 -1.284 1.247 -1.836 1.465 -2.189 1.899 -2.111 -0.341 -0.356 -2.245 1.865 -1.692 2.127 -1.531 2.027 -0.275 1.669 -0.015 0.157 1.213 0.475 0.342 -0.369 0.796 -1.074 1.1 -1.751 1.144 -2.176 1.33 -2.4 1.072 -2.283 0.998 -1.924 0.798 -1.554 0.45 -0.686 0.123 -0.064 -0.281 -0.063 -0.012 -0.221 0.174 0.031 0.346 0.368 0.322 0.786 0.441 1.361 0.577 1.962 0.478 2.523 0.574 2.87 0.607 2.762 0.645 2.425 0.501 1.616 -0.016 0.337 1.457 -0.199 -0.252 -0.909 -0.497 -1.789 -0.499 -2.583 -0.567 -2.946 -0.568 -3.287 -0.572 -3.298 -0.574 -3.074 -0.513 -2.618 -0.443 -2.109 -0.712 -2.321" />
    <path class="write-flat-pen" fill="#0000FF" stroke-width="1.6" __comx="563.388" __comy="271.26" __timestamp="0x181ec77b49e" d="M559.324 272.74 l4.002 0.4 0.632 0.213 0.538 0.223 0.689 0.275 0.698 -0.003 0.568 -0.026 0.69 -0.114 0.311 -1.001 -0.197 -0.164 -0.611 0.105 -0.194 -0.114 -0.568 -0.026 -0.439 -0.003 -0.448 -0.179 -0.598 -0.232 -0.883 -0.242 -4.191 0.4" />
    <path class="write-flat-pen" fill="#0000FF" stroke-width="1.6" __comx="573.383" __comy="271.26" __timestamp="0x181ec77b5ce" d="M567.44 266.272 l3.746 3.732 0.845 1.094 0.683 0.894 0.352 0.507 0.387 0.331 0.96 -0.039 -0.064 -1.206 -0.049 -1.034 -0.101 -1.435 -0.413 -1.318 -0.373 -1.005 -0.089 -0.487 0.027 -0.42 0.006 0.066 0.458 -0.042 1.034 0.013 1.04 0.008 0.808 0.104 0.687 0.548 0.428 0.546 0.16 0.585 -0.02 0.578 -0.005 0.374 -0.308 0.277 -0.676 0.288 -0.884 0.169 -1.236 0.273 0 0.645 1.303 0.273 1.136 -0.058 1.092 -0.394 0.955 -0.859 -0.005 -0.989 -0.02 -0.785 -0.345 -1.006 -0.709 -0.817 -1.081 -0.815 -1.213 -0.123 -1.107 0.008 -1.113 0.013 -1.183 0.185 -0.247 0.747 0.027 0.716 0.163 0.649 0.385 1.039 0.344 1.181 0.026 1.292 -0.049 1.01 -0.064 -0.069 0.834 -0.039 0.135 0.104 -0.279 -0.402 -0.706 -0.923 -0.923 -1.178 -4.067 -3.547" />
    <path class="write-flat-pen" fill="#0000FF" stroke-width="1.6" __comx="598.262" __comy="271.26" __timestamp="0x181ec77b774" d="M600.217 256.262 l-1.559 4.853 -0.261 2.552 -0.315 2.824 -0.441 3.049 -0.501 3.152 -0.629 2.827 -0.508 2.626 -0.382 2.06 -0.2 1.319 0.001 0.626 1.533 0 -0.024 -0.486 0.326 -1.637 0.503 -2.729 0.796 -3.681 -0.955 -0.246 -1.092 3.635 -0.633 2.723 -0.431 1.771 -0.024 0.65 1.533 0 0.001 -0.51 0.179 -1.18 0.376 -2.029 0.502 -2.599 0.634 -2.852 0.509 -3.209 0.443 -3.085 0.316 -2.856 0.245 -2.446 0.941 -4.893" />
    <path class="write-flat-pen" fill="#0000FF" stroke-width="1.6" __comx="606.457" __comy="271.26" __timestamp="0x181ec77b831" d="M600.861 262.197 l1.96 3.773 1.422 1.651 1.574 1.82 1.565 1.804 1.313 1.687 1.103 1.433 0.583 1.049 0.252 0.625 0.005 0.318 0.014 -0.465 -0.318 0.03 -1.452 0.075 -1.649 0.091 -2.315 -1.062 -0.361 0.713 2.439 1.343 1.886 0.091 1.452 0.075 1.702 0.03 0.014 -0.919 0.005 -0.59 -0.38 -0.966 -0.679 -1.223 -1.17 -1.52 -1.339 -1.721 -1.592 -1.831 -1.583 -1.815 -1.356 -1.53 -2.211 -3.471" />
    <path class="write-flat-pen" fill="#0000FF" stroke-width="1.6" __comx="604.497" __comy="271.26" __timestamp="0x181ec77b8ab" d="M598.755 272.086 l3.462 1.12 1.851 -1.34 1.884 -1.27 1.974 -1.527 2.313 -1.644 -0.507 -0.82 -2.548 1.362 -2.067 1.426 -1.905 1.23 -1.306 0.932 -2.884 -0.511" />
    <path class="write-flat-pen" fill="#0000FF" stroke-width="1.6" __comx="616.91" __comy="271.26" __timestamp="0x181ec77b98f" d="M614.53 259.965 l-0.148 3.567 0.061 2.127 0.522 2.357 0.694 2.613 0.63 2.836 0.692 2.719 0.496 2.452 0.246 1.989 0.063 1.203 0.005 1.186 1.467 -0.011 0.181 -1.718 -0.08 -2.316 -0.211 -3.371 -0.834 0 -0.211 3.371 -0.08 2.228 -0.072 0.327 1.341 -0.011 0.005 0.277 -0.063 -1.296 -0.259 -2.101 -0.515 -2.546 -0.697 -2.733 -0.632 -2.844 -0.696 -2.612 -0.488 -2.187 -0.065 -1.962 -0.148 -3.544" />
    <path class="write-flat-pen" fill="#0000FF" stroke-width="1.6" __comx="619.802" __comy="271.26" __timestamp="0x181ec77ba63" d="M616.236 261.78 l4.519 -0.038 1.748 -0.223 1.658 0 1.021 0 0.274 0.205 0 1.082 -0.177 1.958 -1.529 2.525 -2.276 2.649 -2.786 2.671 -2.398 1.833 -1.692 0.609 -1.796 -0.045 -0.105 1.229 2.085 0.287 2.222 -0.754 2.653 -2.029 2.896 -2.782 2.397 -2.803 1.754 -2.928 0.202 -2.359 0 -1.871 -1.242 -0.931 -1.504 0 -1.751 0 -1.788 0.232 -4.443 0.474" />
    <path class="write-flat-pen" fill="#0000FF" stroke-width="1.6" __comx="636.313" __comy="271.26" __timestamp="0x181ec77be5c" d="M632.959 262.879 l-1.338 -0.759 -0.028 1.443 0.815 -0.094 1.167 -0.346 1.427 -0.332 1.574 -0.354 1.433 -0.586 1.254 -0.456 0.905 -0.366 0.718 -0.371 0.39 -0.894 -1.063 -0.591 -0.328 0.396 -0.292 0.084 -0.863 0.316 -1.271 0.453 -1.345 0.55 -1.456 0.328 -1.478 0.349 -1.106 0.336 -0.7 0.133 -0.028 1.443 1.523 -0.217" />
    <path class="write-flat-pen" fill="#0000FF" stroke-width="1.6" __comx="636.096" __comy="271.26" __timestamp="0x181ec77bf0f" d="M636.557 263.46 l-1.262 5.334 -0.006 2.792 -0.005 2.954 -0.002 2.726 0 2.158 0.003 1.477 0.011 0.795 0.038 0.341 0.083 -0.229 0.165 0.1 -0.822 0.274 0 0.392 0.959 0.274 0.923 -0.127 0.083 -0.684 0.038 -0.341 0.011 -0.795 0.003 -1.477 0 -2.158 -0.002 -2.726 -0.005 -2.954 -0.006 -2.66 0.664 -5.308" />
    <path class="write-flat-pen" fill="#0000FF" stroke-width="1.6" __comx="640.125" __comy="271.26" __timestamp="0x181ec77bf78" d="M632.564 282.747 l2.69 -0.102 2.094 -0.571 2.47 -0.576 2.667 -0.826 2.595 -0.865 2.729 -0.781 -0.129 -0.699 -2.895 0.257 -2.708 0.726 -2.636 0.764 -2.455 0.56 -2.073 0.565 -2.473 0.93" />
    <path class="write-flat-pen" fill="#0000FF" stroke-width="1.6" __comx="674.434" __comy="271.26" __timestamp="0x181ec77c231" d="M671.925 263.363 l0.706 0.201 0.2 0.008 0.441 0.367 0.623 0.716 0.685 1.008 0.654 0.824 0.387 0.459 0.415 0.48 1.094 -0.032 -0.271 -1.454 -0.842 0 -0.271 0.07 0.968 -0.032 0.036 0.026 -0.37 -0.45 -0.609 -0.767 -0.704 -1.037 -0.766 -0.874 -0.948 -0.769 -0.936 0.008 -0.683 0.618" />
    <path class="write-flat-pen" fill="#0000FF" stroke-width="1.6" __comx="680.274" __comy="271.26" __timestamp="0x181ec77c319" d="M674.892 258.908 l4.656 -0.702 1.472 -0.461 1.352 -0.442 1.022 -0.204 0.748 0 0.09 0 0.002 0.008 0.052 0.981 -0.003 1.57 -0.001 1.66 -0.176 1.474 -0.397 1.226 -0.485 0.884 -0.488 0.554 -0.297 0.233 -0.445 0.112 -0.926 0.265 0 0.589 0.926 0.265 0.817 0.112 0.84 -0.449 0.775 -0.81 0.651 -1.16 0.487 -1.501 0.203 -1.706 -0.001 -1.748 -0.003 -1.611 -0.074 -1.291 -0.503 -1.128 -1.046 0 -0.894 0 -1.251 0.25 -1.426 0.467 -1.432 0.448 -4.362 1.684" />
    <path class="write-flat-pen" fill="#0000FF" stroke-width="1.6" __comx="677.809" __comy="271.26" __timestamp="0x181ec77c3c1" d="M674.709 265.08 l2.338 -1.161 1.309 -0.684 1.18 -0.698 0.876 -0.472 0.482 -0.256 0.513 -0.14 0 -0.842 -0.709 -0.14 -0.78 0.198 -1.018 0.437 -1.219 0.666 -1.343 0.679 -2.127 1.609" />
    <path class="write-flat-pen" fill="#0000FF" stroke-width="1.6" __comx="679.267" __comy="271.26" __timestamp="0x181ec77c44a" d="M677.417 265.034 l-2.784 1.322 0.418 1.282 0.784 0.004 1.12 -0.503 1.309 -0.449 1.469 -0.582 1.381 -0.578 1.145 -0.468 0.76 -0.259 0.882 -0.147 0 -0.906 -1.034 -0.147 -1.008 0.195 -1.254 0.44 -1.397 0.558 -1.436 0.554 -1.343 0.46 -0.9 0.406 -0.478 0.004 0.418 1.282 2.109 -2.247" />
    <path class="write-flat-pen" fill="#0000FF" stroke-width="1.6" __comx="678.569" __comy="271.26" __timestamp="0x181ec77c595" d="M671.07 271.859 l0.631 1.631 2.331 -0.899 1.925 -0.673 2.002 -0.565 1.944 -0.566 1.893 -0.457 1.591 -0.463 1.154 -0.336 0.777 -0.132 0.265 -0.116 0.013 -0.017 -0.473 -1.054 -0.506 0.59 -0.667 0.834 -0.625 0.968 -0.557 1.197 -0.426 1.211 -0.221 1.244 -0.007 1.307 -0.004 1.136 -0.002 1.136 0 0.795 0.002 0.824 0.568 0.674 1.073 -0.022 -0.274 -1.249 -0.266 -0.822 -0.281 0 -0.266 0.822 -0.274 -0.113 0.947 -0.022 0.189 0.219 0.002 -0.312 0 -0.795 -0.002 -1.136 -0.004 -1.136 -0.007 -1.192 0.158 -1.028 0.332 -1.061 0.453 -1.075 0.511 -0.85 0.596 -0.757 0.504 -0.546 -0.473 -1.054 -0.24 -0.017 -0.367 0.112 -0.738 0.095 -1.245 0.345 -1.566 0.445 -1.896 0.452 -1.971 0.57 -2.039 0.571 -1.989 0.69 -1.205 0.464 -0.454 -0.321" />
    <path class="write-flat-pen" fill="#0000FF" stroke-width="1.6" __comx="685.731" __comy="271.26" __timestamp="0x181ec77c5fa" d="M683.018 277.319 l3.522 -3.082 0.953 -0.916 0.684 -0.822 0.56 -0.664 -0.114 -0.866 -1.005 0 -0.114 0.366 -0.324 0.245 -0.705 0.769 -0.941 0.902 -2.808 3.799" />
    <path class="write-flat-pen" fill="#0000FF" stroke-width="1.6" __comx="685.759" __comy="271.26" __timestamp="0x181ec77c723" d="M676.769 275.621 l-1.456 4.529 -0.304 1.086 -0.347 0.831 -0.196 0.364 0.073 -0.059 0.881 0.063 -0.227 0.396 -0.058 -0.341 0.042 0.038 0.063 0.114 0.821 0.09 1.228 0.061 1.744 0.583 2.299 0.593 2.722 0.592 2.98 0.118 2.918 0 2.721 -0.011 2.364 -0.526 2.306 -0.864 -0.301 -0.969 -2.326 0.572 -2.182 0.382 -2.582 -0.011 -2.89 0 -2.829 -0.109 -2.582 -0.544 -2.247 -0.543 -1.918 -0.553 -1.423 0.061 -0.821 0.09 -0.821 0.114 0.042 0.72 -0.058 0.341 -0.227 0.85 1.007 0.063 0.452 -0.513 0.309 -0.545 0.411 -0.986 0.328 -1.186 0.898 -4.687" />
    <path class="write-flat-pen" fill="#0000FF" stroke-width="1.6" __comx="717.711" __comy="271.26" __timestamp="0x181ec77c805" d="M708.677 262.589 l4.258 0.088 2.102 0.002 2.451 -0.119 2.657 -0.845 2.293 -1.053 1.925 -0.828 1.367 -0.609 1.017 -0.319 -0.168 -0.936 -1.182 0.076 -1.537 0.527 -1.99 0.763 -2.254 0.992 -2.394 0.745 -2.222 0.108 -2.065 0.002 -4.258 0.088" />
    <path class="write-flat-pen" fill="#0000FF" stroke-width="1.6" __comx="720.43" __comy="271.26" __timestamp="0x181ec77c9ba" d="M711.357 269.404 l-1.497 3.44 -0.026 1.581 -0.012 1.59 -0.003 1.704 0 1.363 0.001 0.682 0.008 0.227 1.387 0.189 -0.027 -0.253 0.161 -0.962 0.035 -1.192 -0.019 -1.279 0.196 -1.148 0.125 -1.014 0.468 -0.577 0.573 -0.533 0.504 -0.444 0.936 -0.608 1.204 -0.859 1.502 -0.865 1.719 -1.008 1.81 -1.109 1.851 -0.883 1.786 -0.774 1.413 -0.442 1.035 -0.309 0.655 0.004 0.401 0.009 -0.092 -0.019 0.189 0.641 0.359 1.442 0.371 1.907 0.441 2.389 0.437 2.134 0.245 2.096 0.062 1.774 0.003 1.464 0.005 1.136 0.01 0.568 0.017 -0.595 0.648 0.042 -0.422 -0.272 -1.216 -1.686 -0.6 0.333 0.885 2.094 0.841 0.864 1.28 0.042 0.017 -0.822 0.01 -0.568 0.005 -1.136 0.003 -1.49 -0.064 -1.861 -0.26 -2.22 -0.447 -2.183 -0.443 -2.382 -0.387 -1.955 -0.398 -1.512 -0.442 -1.404 -0.849 -0.247 -0.61 0.009 -0.86 0.004 -1.238 0.373 -1.491 0.467 -1.877 0.817 -1.938 0.934 -1.852 1.163 -1.69 1.037 -1.529 0.953 -1.196 0.958 -0.958 0.755 -0.506 0.692 -0.311 0.83 -0.163 0.786 -0.127 1.031 -0.309 1.124 -0.398 1.22 -0.344 1.08 -0.344 0.855 -0.154 0.202 1.387 0.189 0.008 -0.227 0.001 -0.682 0 -1.363 -0.003 -1.704 -0.012 -1.59 -0.026 -1.372 0.699 -3.474" />
    <path class="write-flat-pen" fill="#0000FF" stroke-width="1.6" __comx="721.808" __comy="271.26" __timestamp="0x181ec77ca8a" d="M720.242 259.738 l0.33 3.583 0.436 1.819 0.369 2.222 0.249 2.579 0.189 2.595 0.127 2.587 0.001 2.368 0.002 2.045 0.007 1.363 0.013 0.587 0.125 -0.342 0.378 0.062 0.253 0.117 -0.482 -0.786 -0.398 0.098 0.121 1.657 0.506 0.117 0.63 0.062 0.251 -0.796 0.013 -0.776 0.007 -1.363 0.002 -2.045 0.001 -2.403 -0.126 -2.639 -0.19 -2.63 -0.256 -2.646 -0.389 -2.322 -0.447 -1.816 -0.828 -3.447" />
    <path class="write-flat-pen" fill="#0000FF" stroke-width="1.6" __comx="717.989" __comy="271.26" __timestamp="0x181ec77cb92" d="M715.381 275.154 l3.538 -0.952 1.028 -0.365 0.606 -0.138 0.4 -0.03 -0.424 -0.006 0 -0.387 -0.326 0.51 -0.754 0.841 -0.914 1.004 -0.847 1 -0.901 1 -0.809 0.937 -0.677 1.07 -0.391 0.693 -0.195 0.352 -0.034 0.04 1.137 0.704 -0.074 -0.171 0.83 -1.604 -0.655 -0.431 -1.243 1.55 -0.2 0.283 1.137 0.704 0.218 -0.187 0.31 -0.557 0.367 -0.67 0.585 -0.975 0.706 -0.881 0.867 -1.045 0.794 -1.045 0.854 -1.041 0.762 -0.976 0.431 -0.854 0 -0.841 -0.551 -0.006 -0.485 -0.03 -0.783 0.09 -1.119 0.317 -3.469 1.149" />
    <path class="write-flat-pen" fill="#0000FF" stroke-width="1.6" __comx="726.322" __comy="271.26" __timestamp="0x181ec77cc74" d="M726.321 270.452 l2.57 0.005 -0.509 -0.462 -0.004 0.568 -0.028 0.647 -0.153 0.797 -0.441 0.912 -0.539 0.874 -0.547 1.019 -0.549 1.047 -0.477 1.291 -0.45 1.355 -0.346 0.933 -0.223 0.347 -0.317 0.102 -1.005 0.307 0 0.73 1.114 0.307 1.072 -0.125 0.661 -1.016 0.412 -1.111 0.434 -1.371 0.407 -1.208 0.461 -0.998 0.464 -1.026 0.471 -0.943 0.443 -1.133 0.1 -1.021 -0.028 -0.716 -0.004 -0.568 -0.509 -0.462 -2.521 0.5" />
    <path class="write-flat-pen" fill="#0000FF" stroke-width="1.6" __comx="755.653" __comy="271.26" __timestamp="0x181ec77cfca" d="M747.171 265.151 l4.116 -1.837 1.835 -0.545 2.208 -0.679 2.336 -0.682 2.212 -0.684 1.924 -0.586 1.45 -0.625 0.977 -0.636 0.391 -1.096 -0.779 -0.433 -0.547 0.592 -0.665 0.273 -1.328 0.511 -1.865 0.55 -2.208 0.679 -2.336 0.682 -2.212 0.684 -1.954 0.591 -4.041 2.282" />
    <path class="write-flat-pen" fill="#0000FF" stroke-width="1.6" __comx="758.534" __comy="271.26" __timestamp="0x181ec77d07f" d="M756.664 256.018 l1.261 4.462 0.623 1.681 0.414 1.264 0.075 0.911 0.058 0.746 -0.153 0.573 -1.116 0.95 0.285 0.475 1.631 -0.698 0.605 -1.017 0.058 -1.071 -0.052 -1.133 -0.471 -1.463 -0.64 -1.727 -2.181 -4.113" />
    <path class="write-flat-pen" fill="#0000FF" stroke-width="1.6" __comx="760.416" __comy="271.26" __timestamp="0x181ec77d105" d="M751.63 268.746 l-0.905 1.293 0.971 0.89 1.95 -0.677 2.487 -0.803 2.673 -1.151 2.822 -1.139 2.702 -1.047 2.341 -0.975 1.873 -1.015 1.562 -1.029 -0.27 -0.55 -1.766 0.604 -1.915 0.803 -2.331 0.843 -2.728 0.998 -2.86 1.133 -2.63 1.121 -2.438 0.787 -1.965 0.686 0.971 0.89 -0.182 -1.568" />
    <path class="write-flat-pen" fill="#0000FF" stroke-width="1.6" __comx="758.899" __comy="271.26" __timestamp="0x181ec77d1ee" d="M770.853 255.496 l-3.767 2.357 -1.022 1.811 -1.266 2.263 -1.503 2.583 -2.054 3.02 -2.567 3.151 -2.775 3.291 -2.645 3.173 -2.332 2.608 -1.755 2.03 -1.057 1.057 -0.516 0.312 -0.122 0.006 0.693 0.75 -0.019 -0.641 0.668 -1.119 1.048 -1.407 1.175 -1.827 -0.461 -0.355 -1.454 1.588 -1.225 1.32 -0.973 1.38 -0.145 0.95 0.693 0.75 0.51 0.006 1 -0.597 1.216 -1.215 1.781 -2.06 2.34 -2.617 2.659 -3.188 2.781 -3.297 2.611 -3.21 2.113 -3.114 1.527 -2.642 1.26 -2.281 0.872 -1.596 2.879 -3.036" />
    <path class="write-flat-pen" fill="#0000FF" stroke-width="1.6" __comx="757.852" __comy="271.26" __timestamp="0x181ec77d292" d="M755.841 274.664 l0.789 3.694 0.309 1.137 0.368 1.23 0.19 0.913 0.284 0.891 0.285 0.488 0.404 0.326 0.736 -0.065 0.453 -0.68 0.203 -1.385 -0.411 -0.127 -0.555 1.071 -0.178 0.002 0.231 -0.065 0.151 0.098 -0.093 -0.193 -0.221 -0.7 -0.189 -0.904 -0.389 -1.269 -0.323 -1.135 -1.422 -3.518" />
    <path class="write-flat-pen" fill="#0000FF" stroke-width="1.6" __comx="767.046" __comy="271.26" __timestamp="0x181ec77d37e" d="M761.427 275.411 l4.531 -1.875 0.794 -0.433 0.567 -0.195 0.268 -0.072 0.152 0.008 0.003 0.012 0.136 0.223 0.466 0.964 0.557 1.358 0.638 1.389 0.636 1.26 0.596 1.192 0.482 0.648 0.239 0.634 0.069 0.108 0.02 -0.777 0.61 0.098 -1.069 -0.171 -0.271 0.828 1.147 0.554 0.989 0.098 0.02 -1.004 -0.183 -0.346 -0.266 -0.729 -0.529 -0.715 -0.54 -1.08 -0.627 -1.239 -0.624 -1.337 -0.58 -1.368 -0.544 -1.08 -0.622 -0.913 -0.755 0.012 -0.353 0.008 -0.49 0.155 -0.696 0.259 -0.847 0.476 -4.27 2.33" />
    <path class="write-flat-pen" fill="#0000FF" stroke-width="1.6" __comx="767.488" __comy="271.26" __timestamp="0x181ec77d47a" d="M761.76 278.555 l3.755 0.121 1.11 -0.378 0.61 -0.073 -0.043 -0.083 0.07 0.373 0 1.194 -0.478 1.258 -0.749 1.276 -0.736 1.049 -0.446 0.488 -0.378 0.356 -0.186 0.287 0.611 1.038 0.336 0.016 1.069 -0.687 1.346 -0.93 1.632 -1.271 1.739 -1.296 2.23 -1.896 -0.624 -0.801 -2.359 1.682 -1.797 1.203 -1.651 1.228 -1.306 0.888 -0.699 0.449 0.083 0.016 0.611 1.038 0.067 -0.167 0.253 -0.325 0.437 -0.648 0.653 -1.223 0.641 -1.45 0.405 -1.468 0 -1.305 0.07 -1.217 -0.801 -0.083 -0.779 -0.073 -1.163 0.303 -3.566 0.609" />
    <path class="write-flat-pen" fill="#0000FF" stroke-width="1.6" __comx="789.85" __comy="271.26" __timestamp="0x181ec77d6b5" d="M788.48 261.308 l1.584 -0.559 1.44 -0.756 1.604 -0.778 1.379 -0.549 1.306 -0.347 0.976 -0.343 0.68 -0.121 0.322 -0.103 0.086 -0.004 -0.584 -1.091 -0.372 0.526 -0.746 0.89 -0.966 1.265 -1.082 1.479 -1.327 1.812 -1.525 2.05 -1.649 2.391 -1.767 2.494 -1.776 2.509 -1.651 2.513 -1.392 2.163 -0.979 1.541 -0.242 0.273 0.145 0.003 0.686 1.029 0.097 -0.32 0.739 -0.717 1.254 -1.185 1.372 -1.552 1.247 -1.662 1.204 -1.384 1.032 -0.983 0.894 -0.523 0.701 -0.248 0.665 -0.012 0.463 0.059 0.503 0.044 0.167 0.058 0.332 0.694 0.531 1.396 0.362 1.751 0.307 1.778 0.184 1.984 -0.001 1.785 0 1.704 0 1.25 -0.001 0.612 0.165 -0.298 0.579 0.003 0.022 0.073 -0.063 -1.533 -0.167 -2.384 -0.221 -3.02 -0.601 0 -0.221 3.034 -0.041 2.387 -0.063 1.874 0.527 0.982 1.085 0.003 0.418 -0.752 -0.001 -0.979 0 -1.25 0 -1.704 -0.001 -1.85 -0.195 -2.105 -0.324 -1.857 -0.395 -1.884 -0.605 -1.558 -0.678 -1.35 -0.97 -0.169 -0.634 0.044 -0.547 0.059 -0.851 0.216 -0.814 0.434 -1 0.613 -1.115 1.062 -1.322 1.342 -1.404 1.518 -1.406 1.401 -1.271 1.087 -1.028 0.874 -0.282 0.589 0.686 1.029 0.524 0.003 0.769 -0.863 1.041 -1.639 1.386 -2.154 1.632 -2.486 1.76 -2.489 1.769 -2.504 1.635 -2.38 1.506 -2.039 1.325 -1.823 1.065 -1.475 0.928 -1.234 0.769 -0.927 0.386 -0.61 -0.584 -1.091 -0.293 -0.004 -0.436 0.124 -0.709 0.106 -1.045 0.339 -1.346 0.334 -1.525 0.587 -1.68 0.812 -1.59 0.834 -1.007 1.513" />
    <path class="write-flat-pen" fill="#0000FF" stroke-width="1.6" __comx="801.572" __comy="271.26" __timestamp="0x181ec77d718" d="M796.14 272.637 l3.756 1.643 1.027 0.669 1.362 0.613 1.411 0.377 1.484 -0.058 1.823 -0.352 0 -0.615 -1.823 -0.352 -1.294 -0.058 -1.114 -0.305 -1.163 -0.523 -1.12 -0.694 -4.228 -0.751" />
    <path class="write-flat-pen" fill="#0000FF" stroke-width="1.6" __comx="814.866" __comy="271.26" __timestamp="0x181ec77d831" d="M813.152 257.926 l-0.048 4.564 0.507 1.863 0.306 2.224 0.375 2.707 0.249 2.917 0.125 3.149 0 3.061 0.064 2.84 0.001 1.923 0.004 1.022 0.008 0.114 1.462 0 -0.061 -1.124 -0.012 -1.76 0.397 -2.844 0.101 -3.589 -0.261 -0.029 -0.686 3.487 -0.74 2.836 -0.139 1.875 -0.061 1.148 1.462 0 0.008 -0.114 0.004 -1.022 0.001 -1.939 -0.062 -2.84 0 -3.074 -0.127 -3.212 -0.256 -2.99 -0.383 -2.746 -0.325 -2.32 -0.504 -1.772 -0.194 -4.373" />
    <path class="write-flat-pen" fill="#0000FF" stroke-width="1.6" __comx="827.647" __comy="271.26" __timestamp="0x181ec77d955" d="M818.758 262.363 l2.811 -3.405 0.823 -0.813 0.983 -0.758 1.123 -0.893 1.088 -0.761 0.882 -0.495 0.889 -0.187 0.871 0.002 0.65 0.003 0.385 0.191 0.565 0.742 0.653 1.073 0.786 1.641 0.737 1.991 0.742 2.449 0.686 3.142 0.692 3.619 0.628 3.611 0.441 3.49 0.253 2.794 0.001 2.239 0.001 1.59 0 0.795 0.003 -0.393 0.015 0.013 -1.198 -0.815 -1.412 -1.655 -1.398 -2.217 -0.749 -2.531 -0.89 -2.738 -0.363 0.088 0.461 2.851 0.64 2.694 1.254 2.554 1.493 1.98 1.707 1.23 1.909 0.013 0.003 -1.074 0 -0.795 0.001 -1.59 0.001 -2.305 -0.253 -2.886 -0.443 -3.553 -0.635 -3.659 -0.697 -3.651 -0.703 -3.219 -0.773 -2.549 -0.779 -2.098 -0.855 -1.767 -0.736 -1.199 -0.824 -1.076 -1.004 -0.491 -0.992 0.003 -1.024 0.002 -1.257 0.267 -1.138 0.641 -1.184 0.83 -1.151 0.924 -1.038 0.832 -0.945 1.005 -2.115 4.021" />
    <path class="write-flat-pen" fill="#0000FF" stroke-width="1.6" __comx="826.571" __comy="271.26" __timestamp="0x181ec77d9e7" d="M822.612 265.879 l1.821 -0.579 1.327 -0.692 1.39 -0.675 1.406 -0.49 1.156 -0.506 1.224 -0.18 0 -0.746 -1.416 -0.18 -1.369 0.403 -1.498 0.418 -1.514 0.688 -1.325 0.671 -1.607 0.963" />
    <path class="write-flat-pen" fill="#0000FF" stroke-width="1.6" __comx="825.319" __comy="271.26" __timestamp="0x181ec77db27" d="M822.434 270.373 l0.332 3.8 0.498 1.023 0.426 0.75 0.436 0.49 0.414 0.402 0.405 -0.112 0.477 -0.548 -0.433 -0.449 -0.593 -0.474 -0.395 -0.572 0.064 -0.355 0.118 -0.128 0.064 0.451 0.193 0.035 1.01 0.028 1.104 0.023 0.995 0.112 0.513 0.243 0.112 0.152 -0.006 0.237 -0.467 0.733 -1.277 0.927 -1.545 1.066 -1.244 0.389 -0.767 0.039 -1.177 -0.754 -0.602 0.669 1.26 1.439 1.506 0.039 1.661 -0.52 1.738 -1.206 1.501 -1.117 0.796 -1.312 -0.006 -1.126 -0.646 -0.757 -1.002 -0.439 -1.277 -0.115 -1.169 0.023 -1.01 0.028 -1.322 0.035 0.064 0.678 0.118 0.326 0.443 0.327 0.489 0.564 0.543 0.434 -0.307 0.46 0.477 -0.548 0.152 -0.112 0.035 -0.052 -0.322 -0.419 -0.332 -0.614 -0.386 -0.795 -0.687 -3.531" />
    <path class="write-flat-pen" fill="#0000FF" stroke-width="1.6" __comx="342.058" __comy="315.365" __timestamp="0x181ec77e0c4" d="M349.348 295.429 l-3.838 0.985 -1.451 1.491 -1.455 1.59 -1.627 1.689 -1.497 1.459 -1.363 1.226 -1.115 0.892 -0.87 0.67 -0.54 0.389 -0.353 0.128 -0.713 0.644 0.691 0.893 0.693 0.683 0.71 0.963 0.841 1.3 0.709 1.598 0.482 1.952 0.303 2.074 0.002 2.335 0.001 2.158 0.002 1.782 -0.116 1.156 -0.195 0.716 0.015 0.208 1.351 0 -0.084 -0.614 0.259 -1.765 -0.87 -0.201 -0.573 1.831 -0.084 0.749 1.351 0 0.015 -0.019 0.184 -0.647 0.137 -1.343 0.002 -1.853 0.001 -2.158 0.002 -2.436 -0.328 -2.242 -0.528 -2.138 -0.806 -1.81 -0.927 -1.427 -0.806 -1.082 -0.696 -0.68 0.186 0.212 -0.461 0.417 0.278 -0.1 0.723 -0.52 0.898 -0.693 1.158 -0.926 1.415 -1.273 1.533 -1.495 1.656 -1.719 1.449 -1.591 1.201 -1.236 3.291 -1.53" />
    <path class="write-flat-pen" fill="#0000FF" stroke-width="1.6" __comx="350.224" __comy="315.365" __timestamp="0x181ec77e1e3" d="M344.781 312.233 l3.219 -2.506 0.611 -0.364 0.39 -0.077 0.214 0.001 0.083 0.045 0.322 0.769 0.418 1.441 0.492 1.695 0.497 1.937 0.639 2.089 0.835 2.087 0.825 1.83 0.751 1.691 0.49 1.212 0.226 0.71 0.056 0.393 0.714 -0.82 -0.319 0.018 -0.773 -0.21 -1.122 -0.586 -1.509 -0.999 -0.115 0.111 1.002 1.615 1.151 1.004 1.121 0.471 0.565 0.018 0.714 -0.82 -0.07 -0.515 -0.279 -0.88 -0.52 -1.287 -0.764 -1.717 -0.817 -1.805 -0.807 -2.002 -0.624 -2 -0.513 -1.925 -0.518 -1.713 -0.466 -1.512 -0.562 -1.276 -0.801 -0.409 -0.67 0.001 -0.746 0.15 -0.904 0.544 -3.05 2.876" />
    <path class="write-flat-pen" fill="#0000FF" stroke-width="1.6" __comx="348.129" __comy="315.365" __timestamp="0x181ec77e2e0" d="M342.428 319.799 l3.865 -0.333 1.094 -0.333 0.665 -0.009 -0.168 -0.014 0.012 0.072 0 1.095 -0.74 1.324 -1.012 1.578 -0.888 1.442 -0.724 0.901 -0.273 0.436 -0.04 0.006 1.062 0.601 0.003 0.01 0.775 -1.049 1.489 -1.691 1.978 -2.301 2.125 -2.447 2.301 -2.638 -0.476 -0.463 -2.582 2.382 -2.294 2.324 -2.063 2.243 -1.542 1.716 -1.12 1.45 0.003 0.464 1.062 0.601 0.339 -0.221 0.358 -0.7 0.665 -0.916 0.879 -1.512 1.009 -1.603 0.901 -1.629 0 -1.405 0.012 -1.291 -1.052 -0.014 -0.851 -0.009 -1.179 0.349 -3.715 0.696" />
    <path class="write-flat-pen" fill="#0000FF" stroke-width="1.6" __comx="365.645" __comy="315.365" __timestamp="0x181ec77e45f" d="M362.421 302.219 l0.183 1.718 -0.017 1.386 -0.013 1.49 -0.467 1.553 -0.739 1.538 -0.753 1.568 -0.805 1.441 -0.618 0.997 -0.388 0.581 -0.14 0.253 1.217 0.759 0.25 -0.386 0.852 -0.722 1.223 -0.881 1.393 -0.872 1.437 -0.65 1.249 -0.411 1.153 0 1.035 0.001 0.649 0.075 0.604 0.926 0.704 1.699 0.479 2.281 0.245 2.774 0.06 2.922 -0.001 2.492 -0.002 2.158 0 1.59 0 0.795 0.001 0.341 1.417 0 -0.017 -0.355 -0.819 -0.908 -0.996 -1.258 -0.729 0.45 0.717 1.516 0.444 0.682 -0.017 -0.127 1.417 0 0.001 -0.341 0 -0.795 0 -1.59 -0.002 -2.158 -0.001 -2.507 -0.066 -2.985 -0.26 -2.905 -0.531 -2.49 -0.811 -1.936 -1.037 -1.574 -1.372 -0.153 -1.112 0.001 -1.373 0 -1.53 0.497 -1.594 0.713 -1.512 0.946 -1.303 0.936 -1.042 0.868 -0.382 0.523 1.217 0.759 0.112 -0.202 0.369 -0.555 0.645 -1.048 0.837 -1.512 0.762 -1.613 0.776 -1.642 0.543 -1.855 -0.013 -1.691 -0.017 -1.567 -0.778 -1.741" />
    <path class="write-flat-pen" fill="#0000FF" stroke-width="1.6" __comx="367.904" __comy="315.365" __timestamp="0x181ec77e4cc" d="M363.277 324.784 l6.249 -1.341 3.238 -1.529 -0.298 -0.762 -3.333 1.04 -6.089 1.619" />
    <path class="write-flat-pen" fill="#0000FF" stroke-width="1.6" __comx="398.862" __comy="315.929" __timestamp="0x181ec77f1e2" d="M392.54 311.487 l1.857 -2.166 1.728 -1.392 1.921 -1.226 1.985 -1.228 1.844 -0.885 1.582 -0.661 1.127 -0.344 0.735 -0.084 0.564 -0.126 0 -0.875 -0.564 -0.126 -0.907 -0.084 -1.399 0.337 -1.701 0.702 -1.944 0.933 -2.056 1.271 -1.993 1.273 -1.934 1.562 -1.544 2.622" />
    <path class="write-flat-pen" fill="#0000FF" stroke-width="1.6" __comx="395.292" __comy="315.929" __timestamp="0x181ec77f296" d="M392.716 312.865 l1.793 3.749 0.717 0.718 0.65 0.293 0.51 0.147 0.409 -0.025 0.521 -0.075 0.552 -0.958 -0.652 -0.483 -0.437 0.375 0.016 -0.075 -0.223 -0.025 -0.248 -0.081 -0.36 -0.162 -0.419 -0.418 -2.04 -3.403" />
    <path class="write-flat-pen" fill="#0000FF" stroke-width="1.6" __comx="401.412" __comy="315.929" __timestamp="0x181ec77f395" d="M392.889 313.419 l3.301 0.339 0.521 -0.482 0.031 -0.114 0.039 -0.148 0.517 -0.587 1.053 -0.961 1.454 -1.234 1.485 -1.33 1.714 -1.096 1.733 -0.997 1.406 -0.656 1.065 -0.4 0.637 0.007 0.382 0.007 -0.017 -0.002 0.155 0.594 0.111 1.174 0.057 1.215 -0.002 1.345 0 1.363 0 0.937 -0.514 0.838 -0.548 0.809 -0.62 0.51 -0.788 0.537 -0.618 0.214 -0.953 0.481 0.031 0.239 1.054 0.224 0.897 -0.013 1.106 -0.598 0.895 -0.626 0.715 -1.009 0.749 -1.206 0 -1.335 0 -1.363 -0.002 -1.381 -0.07 -1.284 -0.142 -1.325 -0.35 -1.224 -0.774 -0.456 -0.754 0.007 -0.878 0.007 -1.334 0.509 -1.499 0.707 -1.803 1.047 -1.822 1.176 -1.546 1.397 -1.451 1.265 -1.093 1.084 -0.746 1.004 0.039 0.534 0.031 0.114 0.521 -0.482 -3.313 -0.179" />
    <path class="write-flat-pen" fill="#0000FF" stroke-width="1.6" __comx="401.646" __comy="315.929" __timestamp="0x181ec77f427" d="M396.331 315.471 l5.065 -1.719 2.039 -0.917 1.738 -0.804 1.172 -0.501 0.948 -0.323 -0.14 -0.776 -1.091 0.044 -1.353 0.408 -1.798 0.787 -2.002 0.9 -4.909 2.019" />
    <path class="write-flat-pen" fill="#0000FF" stroke-width="1.6" __comx="406.734" __comy="315.929" __timestamp="0x181ec77f4b2" d="M401.704 316.51 l2.496 -1.452 1.96 -1.479 1.818 -1.379 1.498 -1.163 1.15 -0.942 0.796 -0.633 0.771 -0.621 -0.26 -0.481 -0.973 0.32 -0.972 0.503 -1.249 0.876 -1.533 1.109 -1.844 1.348 -1.955 1.475 -2.133 1.931" />
    <path class="write-flat-pen" fill="#0000FF" stroke-width="1.6" __comx="403.276" __comy="315.929" __timestamp="0x181ec77f5b2" d="M400.401 296.212 l0.967 5.284 0.816 2.956 0.749 3.504 0.811 3.844 0.623 4.166 0.374 4.053 0.125 3.492 0 2.828 0 1.818 0.003 0.964 0.054 -0.228 0.996 0.028 -0.079 0.003 -0.212 -1.644 -0.62 0 -0.212 1.702 0.048 1.139 1.123 0.028 0.18 -0.91 0.003 -1.081 0 -1.818 0 -2.851 -0.128 -3.551 -0.384 -4.125 -0.64 -4.24 -0.831 -3.881 -0.766 -3.539 -0.826 -2.951 -1.249 -5.184" />
    <path class="write-flat-pen" fill="#0000FF" stroke-width="1.6" __comx="398.253" __comy="315.929" __timestamp="0x181ec77f666" d="M403.782 314.551 l-4.319 2.832 -1.697 2.111 -1.586 2.165 -1.445 1.912 -1.137 1.36 -0.686 0.895 -0.296 0.319 1.073 0.421 -0.075 -0.405 0.618 -1.18 1.131 -1.984 -0.32 -0.226 -1.494 1.745 -1.023 1.319 -0.075 0.731 1.073 0.421 0.336 -0.362 0.703 -0.923 1.136 -1.367 1.459 -1.95 1.571 -2.152 1.586 -1.978 3.74 -3.347" />
    <path class="write-flat-pen" fill="#0000FF" stroke-width="1.6" __comx="412.326" __comy="315.929" __timestamp="0x181ec77f6d6" d="M401.22 319.391 l3.795 1.402 1.792 0.613 2.087 0.374 2.455 0.24 2.873 0 3.094 -0.004 3.094 -0.061 3.024 -0.242 0 -0.743 -3.024 -0.242 -3.094 -0.061 -3.094 -0.004 -2.809 0 -2.344 -0.215 -1.954 -0.308 -1.744 -0.523 -3.986 -0.808" />
    <path class="write-flat-pen" fill="#0000FF" stroke-width="1.6" __comx="440.759" __comy="315.929" __timestamp="0x181ec77f7f6" d="M432.265 307.611 l4.765 0.15 2.745 -0.587 2.633 -0.693 2.265 -0.794 1.858 -0.455 1.302 -0.354 0.801 -0.07 0.62 -0.063 0 -1.113 -0.62 -0.063 -0.967 -0.07 -1.476 0.328 -1.931 0.453 -2.281 0.797 -2.544 0.67 -2.559 0.549 -4.61 0.15" />
    <path class="write-flat-pen" fill="#0000FF" stroke-width="1.6" __comx="435.387" __comy="315.929" __timestamp="0x181ec77f8ae" d="M432.556 317.502 l-0.36 3.111 0.816 1.613 0.788 1.424 0.841 1.049 0.674 0.97 0.714 0.566 0.718 0.306 0.583 -0.048 0.762 -0.099 0.486 -1.546 -0.489 -0.238 -0.636 0.761 -0.122 -0.099 -0.301 -0.048 -0.292 -0.149 -0.422 -0.343 -0.589 -0.847 -0.801 -0.995 -0.727 -1.302 -0.7 -1.34 -0.751 -2.762" />
    <path class="write-flat-pen" fill="#0000FF" stroke-width="1.6" __comx="447.534" __comy="315.929" __timestamp="0x181ec77f9b6" d="M437.555 319.014 l4.593 -3.139 1.757 -1.086 1.965 -0.881 1.955 -0.766 1.997 -0.433 1.884 -0.213 1.664 0.005 1.171 0.01 0.66 0.452 0.509 1.115 0.406 1.808 0.176 2.19 -0.002 2.355 0 2.272 0 1.963 -0.341 1.535 -0.455 0.913 -0.365 0.307 -0.649 0.016 -0.84 -0.048 -0.856 -0.829 -1.279 -1.9 -0.696 0.387 1.002 2.204 1.164 1.443 1.433 0.179 1.245 0.016 1.024 -0.829 0.681 -1.359 0.416 -1.873 0 -2.126 0 -2.272 -0.002 -2.416 -0.203 -2.354 -0.478 -2.054 -0.753 -1.611 -1.36 -0.911 -1.607 0.01 -1.745 0.005 -2.031 0.242 -2.171 0.476 -2.086 0.824 -2.076 0.936 -1.906 1.186 -4.057 3.934" />
    <path class="write-flat-pen" fill="#0000FF" stroke-width="1.6" __comx="442.253" __comy="315.929" __timestamp="0x181ec77fa7c" d="M442.231 307.891 l-1.992 1.751 -0.002 2.27 -0.002 2.272 -0.001 1.818 0 1.496 0.072 1.292 0.511 1.067 0.766 0.568 0.945 -0.054 1.049 -0.419 0.694 -1.716 -0.224 -0.147 -1.094 1.007 -0.593 0.035 -0.317 -0.054 -0.118 -0.114 -0.246 -0.523 -0.054 -0.98 0 -1.457 -0.001 -1.818 -0.002 -2.272 -0.002 -1.82 0.794 -2.067" />
    <path class="write-flat-pen" fill="#0000FF" stroke-width="1.6" __comx="449.886" __comy="315.929" __timestamp="0x181ec77fb2c" d="M446.152 308.668 l0.104 3.656 0.243 1.731 0.252 1.84 0.33 1.545 0.476 1.347 0.581 1.044 0.728 0.724 0.936 0.407 1.09 0.236 1.15 -0.057 1.577 -0.155 0 -0.881 -1.577 -0.155 -0.996 -0.057 -0.804 -0.219 -0.579 -0.275 -0.409 -0.412 -0.429 -0.773 -0.408 -1.153 -0.302 -1.408 -0.253 -1.795 -0.262 -1.677 -0.344 -3.583" />
    <path class="write-flat-pen" fill="#0000FF" stroke-width="1.6" __comx="452.215" __comy="315.929" __timestamp="0x181ec77fbef" d="M443.05 330.18 l3.51 -1.455 3.007 -1.465 3.137 -1.231 3.309 -0.806 3.071 -0.42 2.791 -0.261 0 -0.724 -2.858 -0.261 -3.243 0.261 -3.51 0.785 -3.303 1.269 -3.054 1.488 -3.352 1.766" />
    <path class="write-flat-pen" fill="#0000FF" stroke-width="1.6" __comx="481.675" __comy="315.929" __timestamp="0x181ec77fd15" d="M477.406 322.405 l4.547 0.249 1.083 0.499 0.873 0.639 0.535 0.447 0.14 0.403 -0.011 0.448 -0.009 0.002 -0.025 0.011 -0.716 0.082 -1.032 -0.002 -0.492 0 -0.214 -0.257 -0.054 -0.544 -0.016 -0.84 0.825 -0.947 1.766 -1.642 -0.613 -0.744 -2.008 1.47 -1.321 1.325 -0.016 1.432 0.072 1.046 0.922 1.106 1.15 0 1.115 -0.002 1.179 -0.146 0.859 -0.67 -0.009 -0.68 -0.011 -0.688 -0.365 -0.96 -0.854 -0.689 -1.022 -0.724 -1.443 -0.637 -4.808 -0.006" />
  </g>
</svg>
