<svg class="write-page" color-interpolation="linearRGB" width="928px" height="800.468px" xmlns="http://www.w3.org/2000/svg" xmlns:xlink="http://www.w3.org/1999/xlink">
  <g class="write-content write-v3" xruling="0" yruling="0" marginLeft="0" papercolor="#FFFFFF" rulecolor="#9F000023">
    <g class="ruleline write-std-ruling write-scale-down" fill="none" stroke="#000023" stroke-opacity="0.624" stroke-width="1" shape-rendering="crispEdges" vector-effect="non-scaling-stroke">
      <rect class="pagerect" fill="#FFFFFF" stroke="none" x="0" y="0" width="928" height="800.468" />
    </g>
    <path class="write-stroke-pen" fill="none" stroke="#000000" stroke-width="1.6" stroke-linecap="round" stroke-linejoin="round" __comx="72.958" __comy="63.21" __timestamp="0x180d7c52917" d="M72.039 46.754 l0.063 0 0.19 0 0.38 0 0.317 0.057 0.38 0.172 0.317 0.057 0.127 0.057 0.063 0 0 0.229 -0.127 0.515" />
    <path class="write-stroke-pen" fill="none" stroke="#000000" stroke-width="1.6" stroke-linecap="round" stroke-linejoin="round" __comx="66.081" __comy="63.21" __timestamp="0x180d7c529e0" d="M65.827 54.084 l-0.063 0 0 0.057 0 0.115 0 0.229 0 0.286 0 0.458 0.063 0.401 0.063 0.458 0.063 0.286 0.063 0.115 0.063 0 0.063 0 0.127 0 0.127 0" />
    <path class="write-stroke-pen" fill="none" stroke="#000000" stroke-width="1.6" stroke-linecap="round" stroke-linejoin="round" __comx="75.049" __comy="63.21" __timestamp="0x180d7c52ae0" d="M65.827 54.084 l1.014 0.458 0.19 -0.229 0.254 -0.286 0.444 -0.344 0.634 -0.573 0.887 -0.63 1.268 -0.859 1.585 -0.974 1.838 -1.088 2.092 -1.088 2.028 -0.974 1.838 -0.687 1.521 -0.458 1.077 -0.172 0.761 -0.057 0.507 0 0.317 0.057 0.19 0.687 0 1.088 0 1.374 0 1.718 -0.063 1.718 -0.444 1.775 -0.57 1.603 -0.634 1.317 -0.634 1.031 -0.697 0.744 -0.634 0.573 -0.697 0.344" />
    <path class="write-stroke-pen" fill="none" stroke="#000000" stroke-width="1.6" stroke-linecap="round" stroke-linejoin="round" __comx="74.384" __comy="63.21" __timestamp="0x180d7c52cd2" d="M72.166 57.177 l0 0.172 0.127 0.63 0.19 0.744 0.127 0.687 0.063 0.515 0 0.286 0 0.172 0 0.057 -0.063 0 -0.254 0 -0.063 0 0 -0.573 0 -0.687 0 -0.687 0.254 -0.63 0.38 -0.458 0.38 -0.344 0.317 -0.115 0.317 0 0.38 0 0.444 0 0.444 0.172 0.507 0.286 0.38 0.229 0.317 0.229 0.19 0.115 0 0.115 0 0.115 -0.063 0.115 -0.38 0.115 -0.38 0.057 -0.317 0.057 -0.254 0.057 -0.127 0.057 -0.063 0 0 0.229 0 0.401 0 0.515 0 0.401 0 0.458 -0.063 0.286 -0.317 0.229 -0.38 0.229 -0.38 0.229 -0.57 0.172" />
    <path class="write-stroke-pen" fill="none" stroke="#000000" stroke-width="1.6" stroke-linecap="round" stroke-linejoin="round" __comx="74.257" __comy="63.21" __timestamp="0x180d7c52d94" d="M66.715 61.815 l-0.507 -0.057 -0.38 -0.057 -0.063 0 0 -0.057 0 -0.172 0.634 -0.344 1.394 -0.458 2.028 -0.687 2.282 -0.687 2.345 -0.744 2.282 -0.859 2.092 -0.802 1.711 -0.802 1.268 -0.515 0.697 -0.172 0.254 0" />
    <path class="write-stroke-pen" fill="none" stroke="#000000" stroke-width="1.6" stroke-linecap="round" stroke-linejoin="round" __comx="76.539" __comy="63.21" __timestamp="0x180d7c52e36" d="M75.842 60.785 l-1.204 0.744 -0.951 0.458 -0.57 0.286 -0.254 0.115 0.887 0 1.268 -0.344 1.521 -0.515 1.458 -0.458 1.141 -0.401 0.761 -0.229 0.317 -0.115" />
    <path class="write-stroke-pen" fill="none" stroke="#000000" stroke-width="1.6" stroke-linecap="round" stroke-linejoin="round" __comx="76.285" __comy="63.21" __timestamp="0x180d7c53230" d="M72.292 65.652 l-0.254 0.172 -0.127 0.115 0 0.057 -0.063 0.057 0 0.344 0 0.515 0 0.744 0 0.974 0 0.974 0 0.974 0 0.744 0 0.515 0 0.286 0.19 0 0.317 -0.458 0.317 -0.859 0.317 -0.974 0.254 -1.031 0.254 -1.088 0.254 -0.974 0.127 -0.802 0.19 -0.687 0.127 -0.458 0.317 -0.344 0.317 -0.286 0.444 -0.286 0.634 -0.229 0.697 -0.172 0.761 -0.172 0.824 -0.115 0.761 -0.115 0.634 0 0.507 0 0.38 0.057 0.254 0.859 0.19 1.203 0.063 1.432 0 1.489 0 1.374 0 1.26 0 0.859 0 0.573 0 0.286 -0.063 0 -0.444 -0.286 -0.634 -0.63 -0.697 -0.687 -0.761 -0.802 -0.634 -0.744 -0.57 -0.63 -0.38 -0.515 -0.317 -0.286 -0.127 -0.172 0 -0.057 0.063 0 0.38 0 0.507 0 0.507 0 0.444 0 0.254 0 0.063 0 -0.444 0 -0.761 0 -0.761 0.229 -0.887 0.401 -0.824 0.458 -0.634 0.401 -0.444 0.344 -0.19 0.229 -0.063 0.172 0 0.115 0.507 0 0.761 0 0.761 -0.172 0.761 -0.229 0.634 -0.172 0.38 -0.115 0.19 0 -0.38 0.515 -0.697 0.63 -0.824 0.63 -0.887 0.63 -0.887 0.573 -0.824 0.458 -0.57 0.458 -0.444 0.286 -0.19 0.172 0.317 0 0.887 -0.172 1.077 -0.401 1.077 -0.401 1.014 -0.401 0.824 -0.344 0.824 -0.229 0.761 -0.172 0.634 -0.115 0.444 -0.057 0.19 0 0 0.172 -0.697 0.859 -1.077 1.088 -1.331 1.145 -1.331 1.088 -1.331 0.974 -1.141 0.687 -0.824 0.458 -0.507 0.172 -0.063 0 0.317 -0.63 0.887 -0.744 1.077 -0.802" />
    <path class="write-stroke-pen" fill="none" stroke="#000000" stroke-width="1.6" stroke-linecap="round" stroke-linejoin="round" __comx="83.226" __comy="63.21" __timestamp="0x180d7c53291" d="M77.806 74.3 l1.268 -0.057 1.204 0 1.077 0.573 1.141 1.031 1.077 1.203 1.077 1.031 1.014 0.916 0.951 0.687 0.951 0.515 1.077 0.172" />
    <path class="write-stroke-pen" fill="none" stroke="#000000" stroke-width="1.6" stroke-linecap="round" stroke-linejoin="round" __comx="112.635" __comy="65.121" __timestamp="0x180d7c55694" d="M107.279 53.283 l0 -0.115 0.697 -0.057 1.204 -0.057 1.648 -0.115 1.711 -0.286 1.585 -0.286 1.204 -0.229 0.761 -0.057 0.38 0 0 0.458 -0.824 0.916 -1.204 1.145 -1.204 1.145 -1.204 1.031 -0.887 0.802 -0.507 0.63 -0.254 0.458 0 0.286 0.127 0.172 0.824 0.057 1.141 0 1.204 0 1.268 0 1.204 0 0.887 0.172 0.697 0.286 0.254 0.458 0 0.63 -0.063 0.859 -0.951 0.916 -1.268 0.916 -1.268 0.744 -1.204 0.573 -1.141 0.344 -1.014 0.057 -0.824 0 -0.697 0 -0.444 -0.573 -0.38 -0.687" />
    <path class="write-stroke-pen" fill="none" stroke="#000000" stroke-width="1.6" stroke-linecap="round" stroke-linejoin="round" __comx="110.575" __comy="65.121" __timestamp="0x180d7c5577c" d="M108.61 60.498 l0 -0.687 0 -0.573 0 -0.401 0 -0.115 0 -0.115 0.127 0.344 0.254 0.802 0.317 1.145 0.254 1.546 0.254 1.947 0.254 2.348 0.254 2.692 0.127 2.749 0.063 2.577 0.127 2.233 0.063 1.718 0.127 1.088 0.127 0.63 0.063 0.229 0.19 0 0.254 -0.115 0.317 -0.974 0.38 -1.145 0.38 -1.489" />
    <path class="write-stroke-pen" fill="none" stroke="#000000" stroke-width="1.6" stroke-linecap="round" stroke-linejoin="round" __comx="124.582" __comy="65.121" __timestamp="0x180d7c55928" d="M125.977 51.336 l0.19 -0.744 0.063 -0.458 0.127 -0.401 0 -0.229 0 -0.057 -0.507 0.687 -0.761 1.031 -0.887 1.145 -0.887 1.203 -0.887 1.031 -0.697 0.916 -0.507 0.573 -0.317 0.286 0 0.172 0.254 -0.057 0.951 -0.573 1.014 -0.744 1.204 -0.744 1.077 -0.63 0.951 -0.515 0.761 -0.286 0.507 0 0.444 0 0.19 0.172 0 0.802 0 1.145 -0.38 1.432 -0.761 1.546 -0.824 1.489 -0.887 1.374 -0.887 1.203 -0.824 0.974 -0.697 0.744 -0.57 0.344 -0.317 0.057 -0.19 0 0 -0.172" />
    <path class="write-stroke-pen" fill="none" stroke="#000000" stroke-width="1.6" stroke-linecap="round" stroke-linejoin="round" __comx="125.977" __comy="65.121" __timestamp="0x180d7c55a44" d="M122.744 56.49 l0 -0.057 0.317 0.344 0.57 0.458 0.761 0.401 0.824 0.229 0.57 0.172 0.38 0.172 0 0.286 0 0.458 -0.317 0.573 -0.887 0.63 -0.824 0.515 -0.697 0.401 -0.57 0.286 -0.254 0.172 -0.127 0 0.507 0 0.761 -0.229 0.824 -0.229 0.824 -0.229 0.824 -0.229 1.014 -0.344 1.077 -0.344 1.141 -0.458" />
    <path class="write-stroke-pen" fill="none" stroke="#000000" stroke-width="1.6" stroke-linecap="round" stroke-linejoin="round" __comx="136.561" __comy="65.121" __timestamp="0x180d7c55bac" d="M132.632 55.631 l-0.127 -0.115 0 -0.344 0 -0.344 0.761 -0.573 1.141 -0.802 1.458 -0.687 1.394 -0.63 1.268 -0.344 0.951 -0.229 0.697 -0.057 0.317 0 0.127 0 0 0.172 -0.063 0.859 -0.697 1.145 -0.887 1.374 -1.014 1.317 -1.014 1.26 -1.077 1.088 -1.014 0.802 -0.824 0.515 -0.57 0.344 -0.254 0.115 0.19 -0.344 0.761 -0.63 1.014 -0.573 1.077 -0.515 1.014 -0.229 0.761 -0.115 0.507 0 0.127 0 0 0.229 -0.19 0.515" />
    <path class="write-stroke-pen" fill="none" stroke="#000000" stroke-width="1.6" stroke-linecap="round" stroke-linejoin="round" __comx="132.948" __comy="65.121" __timestamp="0x180d7c55c76" d="M128.512 64.45 l-0.761 0.115 -0.57 0.115 -0.444 0.057 -0.127 0 -0.063 0 0.444 0 1.268 -0.401 1.838 -0.63 2.155 -0.687 2.092 -0.63 1.901 -0.573 1.521 -0.401 1.077 -0.172 0.507 0 0 0.458 -0.697 0.744" />
    <path class="write-stroke-pen" fill="none" stroke="#000000" stroke-width="1.6" stroke-linecap="round" stroke-linejoin="round" __comx="132.505" __comy="65.121" __timestamp="0x180d7c55dd1" d="M132.378 66.053 l-1.585 0.802 -1.394 0.63 -1.141 0.458 -0.697 0.229 -0.38 0.115 -0.063 0 0.063 0 0.951 0 1.458 -0.515 1.838 -0.687 1.838 -0.687 1.711 -0.63 1.394 -0.401 0.951 -0.115 0.444 0 0.127 0 -0.063 0 -0.634 0.344 -0.697 0.401 -0.57 0.344 -0.444 0.286 -0.254 0.229 -0.063 0.286 0 0.458 0 0.744 0 1.145 0.19 1.489 0.444 1.833 0.254 2.004 0.254 2.004 0.127 1.833 0 1.432 0 1.031 0 0.573 0 0.229 -0.254 -0.515 -0.317 -1.203 -0.317 -1.432 -0.254 -1.603" />
    <path class="write-stroke-pen" fill="none" stroke="#000000" stroke-width="1.6" stroke-linecap="round" stroke-linejoin="round" __comx="129.114" __comy="65.121" __timestamp="0x180d7c55e6e" d="M133.646 69.604 l-0.063 -0.229 0 -0.057 -0.063 0 -0.127 0 -0.38 0.515 -0.634 1.203 -0.951 1.546 -1.331 1.775 -1.458 1.661 -1.458 1.489 -1.268 1.317 -0.887 0.802 -0.444 0.401 0 -0.172" />
    <path class="write-stroke-pen" fill="none" stroke="#000000" stroke-width="1.6" stroke-linecap="round" stroke-linejoin="round" __comx="140.966" __comy="65.121" __timestamp="0x180d7c55ee1" d="M134.913 71.837 l1.394 0 1.521 0.229 1.775 0.687 2.028 0.744 1.965 0.63 1.838 0.573 1.585 0.401" />
    <path class="write-stroke-pen" fill="none" stroke="#000000" stroke-width="1.6" stroke-linecap="round" stroke-linejoin="round" __comx="170.977" __comy="65.121" __timestamp="0x180d7c56406" d="M169.773 48.358 l0.063 -0.115 0 -0.057 0.063 0 0.254 0 0.254 0.115 0.38 0.573 0.444 0.687 0.317 0.573 0.317 0.458 0.19 0.401 0.127 0.344 0 0.344 0 0.401 -0.254 0.515" />
    <path class="write-stroke-pen" fill="none" stroke="#000000" stroke-width="1.6" stroke-linecap="round" stroke-linejoin="round" __comx="171.073" __comy="65.121" __timestamp="0x180d7c56550" d="M164.703 55.86 l0.063 0 0.824 -0.115 1.268 -0.515 1.711 -0.573 2.028 -0.744 2.218 -0.802 2.092 -0.802 1.838 -0.687 1.268 -0.401 0.697 -0.229 0.317 0 -0.38 0.172 -0.634 0.401 -0.507 0.344 -0.444 0.401 -0.317 0.401 -0.317 0.401 -0.507 0.687 -0.507 0.916 -0.824 1.203 -1.077 1.432 -1.204 1.489 -1.394 1.661 -1.458 1.603 -1.458 1.603 -1.394 1.317 -1.268 1.031 -1.014 0.744 -0.824 0.458 -0.38 0.057" />
    <path class="write-stroke-pen" fill="none" stroke="#000000" stroke-width="1.6" stroke-linecap="round" stroke-linejoin="round" __comx="173.608" __comy="65.121" __timestamp="0x180d7c5660c" d="M165.844 59.983 l0.254 -0.172 0.254 0 0.634 0 0.951 0 1.394 0.286 1.775 0.458 2.028 0.286 2.092 0.286 1.965 0.172 1.585 0.115 1.204 0.115 0.761 0.115 0.444 0.172 0.19 0.229 0 0.344" />
    <path class="write-stroke-pen" fill="none" stroke="#000000" stroke-width="1.6" stroke-linecap="round" stroke-linejoin="round" __comx="171.548" __comy="65.121" __timestamp="0x180d7c56728" d="M167.682 68.115 l-0.444 0.057 -0.127 0 0 -0.172 0.444 -0.401 0.824 -0.515 0.951 -0.515 1.141 -0.515 1.268 -0.401 1.268 -0.401 1.141 -0.229 0.887 -0.172 0.57 -0.057 0.317 0 0.063 0 -0.127 0 -0.824 0.286 -0.951 0.515 -1.014 0.515 -0.887 0.573 -0.697 0.515 -0.697 0.515 -0.507 0.401 -0.444 0.344 -0.38 0.229" />
    <path class="write-stroke-pen" fill="none" stroke="#000000" stroke-width="1.6" stroke-linecap="round" stroke-linejoin="round" __comx="165.844" __comy="65.121" __timestamp="0x180d7c568e1" d="M167.682 68.115 l0.317 0.802 0 -0.057 -0.063 0.401 -0.19 0.974 -0.254 1.203 -0.317 1.432 -0.38 1.546 -0.444 1.546 -0.507 1.546 -0.507 1.489 -0.57 1.26 -0.507 0.974 -0.38 0.687 -0.19 0.286 0.38 -0.687" />
    <path class="write-stroke-pen" fill="none" stroke="#000000" stroke-width="1.6" stroke-linecap="round" stroke-linejoin="round" __comx="179.154" __comy="65.121" __timestamp="0x180d7c56ba5" d="M175.287 65.996 l0.19 -0.172 0 0.286 -0.19 0.916 -0.697 1.203 -0.887 1.26 -1.014 1.203 -1.077 1.088 -1.014 0.859 -0.887 0.63 -0.507 0.344 -0.254 0.115 0.19 -0.286 0.887 -0.802 1.268 -0.916 1.268 -0.859 1.394 -0.687 1.331 -0.458 1.268 -0.344 1.204 -0.172 0.824 0 0.507 0 0.127 0.172 0 0.744 -0.507 0.859 -1.141 0.974 -1.394 0.974 -1.394 0.744 -1.268 0.687 -0.951 0.458 -0.444 0.172 -0.19 0.115 0.063 0 0.761 0 1.204 -0.286 1.268 -0.344 1.394 -0.401 1.204 -0.344 0.951 -0.401 0.697 -0.344 0.317 -0.344 0.063 -0.344 0 -0.286 0 -0.401 -0.317 -0.401 -0.38 -0.458 -0.444 -0.573 -0.317 -0.687 -0.19 -0.687 -0.19 -0.515 -0.063 -0.344 -0.063 -0.172 0 -0.057 0 0.744 0 1.088 0 1.374 0 1.432 -0.063 1.374 -0.254 1.317 -0.317 1.203 -0.507 1.088 -0.57 0.859 -0.507 0.63 -0.444 0.344 -0.19 0.115 -0.063 0 0.063 0 0.761 -0.229 1.141 -0.401 1.458 -0.458 1.585 -0.401 1.775 -0.344 1.838 -0.344 1.838 -0.344 1.648 -0.286 1.331 -0.172 0.951 -0.344" />
    <path class="write-stroke-pen" fill="none" stroke="#000000" stroke-width="1.6" stroke-linecap="round" stroke-linejoin="round" __comx="206.059" __comy="65.121" __timestamp="0x180d7c56cc8" d="M205.394 56.146 l-0.444 -0.401 -0.127 -0.344 -0.063 -0.344 0 -0.344 0 -0.172 0.127 0.744 0.38 0.974 0.317 0.974 0.38 0.916 0.254 0.573 0.317 0.401 0.317 0.057 0.254 0 0.254 0" />
    <path class="write-stroke-pen" fill="none" stroke="#000000" stroke-width="1.6" stroke-linecap="round" stroke-linejoin="round" __comx="210.116" __comy="65.121" __timestamp="0x180d7c56da2" d="M205.394 56.146 l4.5 -2.062 0.507 -0.63 0.57 -0.401 0.697 -0.115 0.697 0 0.761 0 0.761 0.057 0.57 0.515 0.38 0.63 0 0.744 0 0.802 -0.444 0.687 -0.824 0.687 -0.887 0.63 -0.697 0.515 -0.57 0.344 -0.254 0.229 0 0.115 0 0.115 0.254 0.115 0.697 0.172 0.697 0.344 0.57 0.458 0.317 0.687" />
    <path class="write-stroke-pen" fill="none" stroke="#000000" stroke-width="1.6" stroke-linecap="round" stroke-linejoin="round" __comx="204.696" __comy="65.121" __timestamp="0x180d7c56f18" d="M200.323 73.269 l0 0.172 0 0.344 0 0.515 0.317 0.687 0.38 0.744 0.317 0.687 0.38 0.573 0.317 0.401 0.317 0.172 0.317 0 0.38 0 0.38 -0.401 0.444 -0.859 0.444 -0.916 0.444 -0.916 0.38 -0.802 0.444 -0.687 0.444 -0.573 0.57 -0.401 0.57 -0.229 0.507 0 0.57 0 0.38 0 0.317 0.401 0.127 0.687 0 0.916 0 0.916 -0.317 0.974 -0.634 0.802 -0.634 0.687 -0.57 0.458 -0.38 0.229 -0.19 0 -0.063 0 0 -0.115" />
    <path class="write-stroke-pen" fill="none" stroke="#000000" stroke-width="1.6" stroke-linecap="round" stroke-linejoin="round" __comx="220.447" __comy="65.121" __timestamp="0x180d7c5706a" d="M215.725 70.119 l0.444 -0.057 0.444 0 0.507 0.286 0.507 0.859 0.507 1.088 0.38 1.203 0.317 1.203 0.317 0.974 0.254 0.744 0.127 0.515 0.063 0.286 0 0.057 0.063 -0.057 0.127 -0.744 0.19 -0.802 0.317 -0.916 0.38 -0.802 0.507 -0.63 0.507 -0.458 0.507 -0.115 0.57 0 0.634 0 0.634 0.115 0.57 0.401 0.444 0.573 0.127 0.515 0 0.744 -0.19 0.744 -0.951 0.687 -1.204 0.687 -1.141 0.515 -0.887 0.286 -0.57 0.172 -0.127 0" />
    <path class="write-stroke-pen" fill="none" stroke="#000000" stroke-width="1.6" stroke-linecap="round" stroke-linejoin="round" __comx="252.169" __comy="65.121" __timestamp="0x180d7c5716a" d="M250.965 64.392 l0.127 0 0.317 0 0.57 0 0.634 0 0.444 0.172 0.317 0.401 0 0.63" />
    <path class="write-stroke-pen" fill="none" stroke="#000000" stroke-width="1.6" stroke-linecap="round" stroke-linejoin="round" __comx="252.898" __comy="65.121" __timestamp="0x180d7c571e4" d="M251.092 70.406 l-0.063 0 0.697 -0.115 0.951 -0.344 1.141 -0.115 0.951 -0.229" />
    <path class="write-stroke-pen" fill="none" stroke="#000000" stroke-width="1.6" stroke-linecap="round" stroke-linejoin="round" __comx="72.673" __comy="151.087" __timestamp="0x180d7c577a2" d="M70.771 137.179 l0 -0.057 0 -0.115 0 0.63 0.317 1.26 0.444 2.062 0.254 2.577 0.127 2.978 0 2.978 0 2.863 0 2.577 0 2.233 0 1.775 0.063 1.203 0.38 0.573 0.507 0 0.761 -0.344 0.951 -1.374" />
    <path class="write-stroke-pen" fill="none" stroke="#000000" stroke-width="1.6" stroke-linecap="round" stroke-linejoin="round" __comx="79.328" __comy="151.087" __timestamp="0x180d7c57964" d="M76.412 141.589 l-0.19 -0.687 -0.063 -0.744 0 -0.63 0 -0.744 0.634 -0.687 1.014 -0.802 1.394 -0.802 1.521 -0.63 1.521 -0.286 1.331 -0.057 0.951 0 0.57 0.229 0.127 0.802 0 1.088 -0.444 1.489 -1.204 1.603 -1.521 1.775 -1.775 1.603 -1.711 1.374 -1.521 1.26 -1.204 0.974 -0.824 0.744 -0.38 0.63 0 0.401 0 0.344 0.634 0.229 1.268 0.057 1.585 0 1.838 0 1.838 0 1.648 0 1.331 0 0.887 0 0.444 0.573 0 0.802 -0.063 0.916 -1.141 1.203 -1.521 1.432 -1.838 1.432 -2.028 1.489 -2.028 1.432 -1.838 1.203 -1.458 0.916 -1.014 0.573 -0.507 0.286 -0.127 0 0.507 -0.229 1.204 -0.802 1.775 -0.916 1.965 -0.974" />
    <path class="write-stroke-pen" fill="none" stroke="#000000" stroke-width="1.6" stroke-linecap="round" stroke-linejoin="round" __comx="91.338" __comy="151.087" __timestamp="0x180d7c57a36" d="M91.497 152.412 l0 -0.344 0 -0.115 0 0.344 0 0.974 0 1.26 0 1.432 0 1.374 0 1.203 0 0.802 0 0.401 -0.063 0 -0.063 -0.687 -0.19 -1.145" />
    <path class="write-stroke-pen" fill="none" stroke="#000000" stroke-width="1.6" stroke-linecap="round" stroke-linejoin="round" __comx="92.226" __comy="151.087" __timestamp="0x180d7c57acc" d="M88.645 146.113 l-0.127 -0.687 -0.063 -0.515 0 -0.286 0.57 0 0.697 0.172 0.887 0.401 1.077 0.401 1.077 0.401 1.077 0.63 1.141 0.63 1.014 0.859" />
    <path class="write-stroke-pen" fill="none" stroke="#000000" stroke-width="1.6" stroke-linecap="round" stroke-linejoin="round" __comx="103.349" __comy="151.087" __timestamp="0x180d7c57cd4" d="M102.525 153.099 l0.127 -0.344 0.063 -0.286 0.19 -0.401 0.127 -0.344 0.19 -0.458 0.19 -0.515 0.063 -0.401 0 -0.401 0 -0.286 0 -0.057 -0.254 0 -0.824 0 -1.014 0.687 -1.394 0.916 -1.458 1.203 -1.331 1.088 -1.141 1.088 -0.697 0.859 -0.254 0.515 0 0.286 0.507 0 0.887 -0.115 1.077 -0.458 1.077 -0.573 1.077 -0.344 1.014 -0.229 0.951 0 0.761 0 0.634 0.172 0.634 0.916 0.507 1.26 0.507 1.603 0.507 2.062 0.38 2.233 0.317 2.348 0 2.405 0 2.291 -0.19 2.176 -0.887 1.833 -1.077 1.661 -1.268 1.203 -1.268 0.802 -1.077 0.344 -1.077 0 -0.951 -0.229 -0.697 -1.145 -0.317 -1.432 0 -1.661 0.127 -1.775 1.014 -1.833 1.331 -1.833 1.585 -1.775 1.838 -1.661 1.838 -1.546 1.901 -1.489 1.775 -1.317 1.711 -1.203 1.331 -1.203" />
    <path class="write-stroke-pen" fill="none" stroke="#000000" stroke-width="1.6" stroke-linecap="round" stroke-linejoin="round" __comx="119.607" __comy="151.087" __timestamp="0x180d7c57d84" d="M114.695 150.694 l-0.063 0 0 -0.115 0.19 -0.229 1.014 -0.344 1.458 -0.401 1.775 -0.229 1.838 -0.057 1.648 0 1.331 0 0.697 0" />
    <path class="write-stroke-pen" fill="none" stroke="#000000" stroke-width="1.6" stroke-linecap="round" stroke-linejoin="round" __comx="145.086" __comy="151.087" __timestamp="0x180d7c58090" d="M145.054 137.007 l-0.19 -0.344 -0.063 -0.229 -0.063 -0.115 0 -0.057 0 0.115 0 1.031 0 1.603 0 2.176 0 2.577 0 2.806 0 2.692 -0.127 2.462 0 2.119 0 1.661 0 1.203 0 0.687 0.19 0.286 0.38 0 0.38 -0.401" />
    <path class="write-stroke-pen" fill="none" stroke="#000000" stroke-width="1.6" stroke-linecap="round" stroke-linejoin="round" __comx="152.692" __comy="151.087" __timestamp="0x180d7c58136" d="M148.223 141.989 l0.127 -0.458 0.19 -0.115 0.19 -0.286 0.57 -0.401 0.761 -0.458 1.077 -0.515 1.268 -0.458 1.268 -0.286 1.331 -0.115 1.077 0 0.761 0 0.317 0.687" />
    <path class="write-stroke-pen" fill="none" stroke="#000000" stroke-width="1.6" stroke-linecap="round" stroke-linejoin="round" __comx="152.882" __comy="151.087" __timestamp="0x180d7c581d4" d="M149.238 150.465 l-0.317 0 -0.063 0 0.254 0 0.951 -0.172 1.268 -0.344 1.521 -0.344 1.521 -0.172 1.458 0 1.077 0" />
    <path class="write-stroke-pen" fill="none" stroke="#000000" stroke-width="1.6" stroke-linecap="round" stroke-linejoin="round" __comx="154.53" __comy="151.087" __timestamp="0x180d7c58278" d="M149.238 157.681 l-0.317 0 0.063 -0.172 0.824 -0.229 1.141 -0.401 1.521 -0.344 1.775 -0.286 1.965 -0.286 2.028 -0.115 1.901 -0.115" />
    <path class="write-stroke-pen" fill="none" stroke="#000000" stroke-width="1.6" stroke-linecap="round" stroke-linejoin="round" __comx="167.65" __comy="151.087" __timestamp="0x180d7c5841c" d="M164.703 150.923 l-0.127 0 -0.063 0 -0.127 0.573 -0.063 0.916 -0.317 1.317 -0.38 1.374 -0.38 1.317 -0.317 1.26 -0.254 0.974 -0.19 0.63 0 0.344 0 0.115 0 -0.286 0.19 -0.859 0.634 -1.145 0.697 -1.203 0.824 -1.145 0.887 -1.088 0.761 -0.916 0.761 -0.744 0.634 -0.573 0.507 -0.515 0.444 -0.286 0.317 -0.172 0.19 -0.057 0.19 0 0.127 0 0.254 0.63 0.127 1.031 0.063 1.203 0.063 1.374 0 1.374 0 1.26 0.127 1.031 0.19 0.744 0.38 0.344 0.444 0 0.634 0 0.887 -0.401" />
    <path class="write-stroke-pen" fill="none" stroke="#000000" stroke-width="1.6" stroke-linecap="round" stroke-linejoin="round" __comx="179.978" __comy="151.087" __timestamp="0x180d7c58648" d="M181.816 154.932 l0.127 -0.458 0 -0.573 0.063 -0.573 0 -0.687 0 -0.687 0 -0.515 0 -0.515 0 -0.344 -0.317 -0.172 -0.57 0 -0.761 0 -1.204 0.286 -1.331 0.687 -1.521 0.974 -1.521 1.145 -1.331 1.374 -1.077 1.489 -0.697 1.603 -0.317 1.374 -0.19 1.031 0 0.63 0.317 0.115 1.014 0 1.458 -0.687 1.711 -1.26 1.775 -1.489 1.838 -1.775 1.775 -2.004 1.775 -2.233 1.521 -2.462 1.331 -2.692 1.014 -2.634 0.634 -2.577 0.444 -2.176 0.254 -1.947 0.254 -1.718 0.127 -1.432 0.127 -1.203 0.127 -0.802 0.063 -0.401 0.063 -0.172 0 -0.057 0 0.802 -0.317 1.145 -0.444 1.546 -0.507 1.89 -0.57 2.405 -0.634 2.921 -0.697 3.379 -0.634 3.493 -0.57 3.321 -0.38 2.863 -0.254 2.348 -0.127 1.661 0 1.145 0 0.573 0 0.115 0.38 0 0.634 -0.057 0.761 -0.744" />
    <path class="write-stroke-pen" fill="none" stroke="#000000" stroke-width="1.6" stroke-linecap="round" stroke-linejoin="round" __comx="192.369" __comy="151.087" __timestamp="0x180d7c5871f" d="M192.147 150.236 l0.127 0 0.19 0.401 0.063 0.916 0.063 1.203 0 1.374 0 1.432 0 1.203 0 0.974 0 0.63 0 0.286 0 -0.057 0 -0.802 0 -1.145" />
    <path class="write-stroke-pen" fill="none" stroke="#000000" stroke-width="1.6" stroke-linecap="round" stroke-linejoin="round" __comx="193.922" __comy="151.087" __timestamp="0x180d7c587b0" d="M190.879 142.963 l-0.19 -0.458 0 0.172 0.444 0.515 0.761 0.573 0.824 0.63 1.077 0.401 1.077 0.401 1.141 0.458 1.141 0.573" />
    <path class="write-stroke-pen" fill="none" stroke="#000000" stroke-width="1.6" stroke-linecap="round" stroke-linejoin="round" __comx="203.682" __comy="151.087" __timestamp="0x180d7c58978" d="M204.063 152.641 l0.127 -0.63 0.127 -0.401 0.254 -0.515 0.254 -0.515 0.127 -0.515 0.063 -0.458 0 -0.573 0 -0.401 0 -0.401 0 -0.344 0 -0.115 -0.38 0 -0.634 0 -0.887 0.515 -1.077 1.088 -1.014 1.317 -1.141 1.775 -1.077 1.833 -0.951 1.89 -0.697 1.89 -0.507 1.603 -0.254 1.26 0 0.63 0 0.057 0.444 0 1.014 -0.916 1.204 -1.203 1.394 -1.432 1.458 -1.374 1.458 -1.203 1.268 -1.145 1.141 -0.974 0.887 -0.63 0.507 -0.401 0.38 -0.057 0.19 0 0.063 0.515 0 1.031 0 1.26 0 1.145 0 1.145 0 0.859 0.127 0.515 0.19 0.229 0.38 0 0.444 0 0.57 -0.458 0.697 -0.744 0.761 -0.859" />
    <path class="write-stroke-pen" fill="none" stroke="#000000" stroke-width="1.6" stroke-linecap="round" stroke-linejoin="round" __comx="219.084" __comy="151.087" __timestamp="0x180d7c58afe" d="M213.57 149.148 l0.444 -1.203 0.507 -0.916 0.317 -0.573 0.254 -0.286 0.254 -0.057 0.19 0 0.063 0.573 0 1.203 0 1.661 0 1.833 -0.634 1.833 -0.634 1.775 -0.697 1.546 -0.444 1.26 -0.38 0.859 -0.127 0.573 0 0.172 0 -0.286 0.634 -0.974 0.697 -1.145 0.824 -1.203 0.887 -1.203 0.887 -1.26 0.951 -1.26 1.014 -1.145 0.951 -1.088 0.824 -0.744 0.761 -0.63 0.57 -0.344 0.444 -0.172 0.254 0 0.317 0 0.127 0.744 0.127 1.317 0 1.661 0 1.775 0 1.947 0 2.004 0.063 2.004 0.19 1.718 0.254 1.317 0.254 0.687 0.254 0.229 0.38 0 0.507 -0.057 0.634 -0.859" />
    <path class="write-stroke-pen" fill="none" stroke="#000000" stroke-width="1.6" stroke-linecap="round" stroke-linejoin="round" __comx="239.556" __comy="151.087" __timestamp="0x180d7c58ba4" d="M239.176 145.941 l0.19 -0.229 0.063 0.115 0.127 0.458 0.127 0.63 0.19 0.63 0.063 0.573 0 0.63 0 0.802 0 0.63" />
    <path class="write-stroke-pen" fill="none" stroke="#000000" stroke-width="1.6" stroke-linecap="round" stroke-linejoin="round" __comx="238.986" __comy="151.087" __timestamp="0x180d7c58c2a" d="M238.796 153.786 l-0.19 0.057 -0.127 0.286 0 0.115 0 0.057 0.063 0 0.444 0 0.38 0 0.127 0" />
    <path class="write-stroke-pen" fill="none" stroke="#000000" stroke-width="1.6" stroke-linecap="round" stroke-linejoin="round" __comx="257.557" __comy="189.819" __timestamp="0x180d7c59b9c" d="M249.824 181.847 l-0.063 0 0 -0.115 0.063 -0.172 1.077 -0.286 1.585 -0.515 2.155 -0.63 2.408 -0.687 2.409 -0.63 2.155 -0.515 1.775 -0.344 1.268 -0.115 0.697 0 0 0.172 -0.063 0.859" />
    <path class="write-stroke-pen" fill="none" stroke="#000000" stroke-width="1.6" stroke-linecap="round" stroke-linejoin="round" __comx="264.243" __comy="189.819" __timestamp="0x180d7c59ce3" d="M260.409 183.394 l0.063 0 0.063 0.229 0.19 0.974 0 1.603 0.063 1.833 0 2.004 0 2.119 0 2.062 -0.127 1.947 -0.19 1.718 -0.317 1.489 -0.38 1.26 -0.444 0.916 -0.57 0.515 -0.444 0.172 -0.317 0 -0.254 0 -0.127 0 0 -0.344 0.254 -0.515 0.887 -0.687 1.204 -0.687 1.585 -0.687 1.648 -0.744 1.901 -0.63 1.901 -0.687 1.965 -0.515 1.901 -0.63" />
    <path class="write-stroke-pen" fill="none" stroke="#000000" stroke-width="1.6" stroke-linecap="round" stroke-linejoin="round" __comx="278.663" __comy="189.819" __timestamp="0x180d7c59de4" d="M278.156 180.129 l-0.254 -0.286 -0.127 -0.057 0 0.802 0 1.546 0 2.291 0 2.634 0 2.978 0.127 2.863 0.19 2.634 0.254 2.062 0.317 1.489 0.19 0.802 0.254 0.344 0.19 0 0.127 -0.401 0.127 -1.317" />
    <path class="write-stroke-pen" fill="none" stroke="#000000" stroke-width="1.6" stroke-linecap="round" stroke-linejoin="round" __comx="283.353" __comy="189.819" __timestamp="0x180d7c59f88" d="M278.346 183.05 l0 -0.401 0 -0.286 0 -0.172 0.254 -0.286 0.824 -0.229 1.268 -0.286 1.458 -0.229 1.711 -0.172 1.775 -0.115 1.648 0 1.268 0 0.824 0 0.317 0.573 0 0.916 -0.507 1.26 -1.394 1.489 -1.775 1.432 -1.965 1.26 -1.775 1.031 -1.585 0.859 -1.014 0.63 -0.57 0.344 -0.127 0.229 0 0.115 0.444 0.172 1.141 0.286 1.585 0.229 1.838 0.401 1.901 0.344 1.838 0.515 1.648 0.687 1.204 0.573 0.697 0.573 0 0.63 0 0.744 -1.077 0.859 -1.711 0.974 -2.155 0.802 -2.408 0.687 -2.409 0.573 -2.218 0.401 -1.838 0.172 -1.268 0 -0.697 0 -0.063 -0.115 0.127 -0.744 1.268 -1.145" />
    <path class="write-stroke-pen" fill="none" stroke="#000000" stroke-width="1.6" stroke-linecap="round" stroke-linejoin="round" __comx="295.966" __comy="189.819" __timestamp="0x180d7c5a080" d="M298.248 179.557 l0 -0.057 0 0.057 0 0.974 0 1.546 0 2.062 0 2.462 -0.38 2.749 -0.824 2.863 -0.887 2.863 -0.951 2.348 -0.761 1.775 -0.444 1.031 -0.317 0.344 0 -0.974" />
    <path class="write-stroke-pen" fill="none" stroke="#000000" stroke-width="1.6" stroke-linecap="round" stroke-linejoin="round" __comx="314.315" __comy="189.819" __timestamp="0x180d7c5a206" d="M299.008 182.535 l0.317 -0.172 0.317 0 0.507 0 0.697 0.802 0.887 1.374 0.951 1.89 1.141 2.119 1.077 2.119 1.204 1.775 1.077 1.317 1.077 0.687 1.141 0.115 1.268 0 1.331 -1.317 1.394 -2.062 1.331 -2.463 1.141 -2.577 0.951 -2.52 0.697 -2.348 0.57 -2.176 0.444 -1.89 0.507 -1.317 0.317 -0.802 0.254 -0.344 0.127 -0.115 0.063 0 0.127 0 0.254 0.687 0.254 1.26 0.38 1.718 0.507 2.176 0.507 2.692 0.57 3.092 0.634 3.264 0.697 3.15 0.634 2.863 0.761 2.291 0.887 1.718 1.077 1.432 1.458 0.573 1.077 0" />
    <path class="write-stroke-pen" fill="none" stroke="#000000" stroke-width="1.6" stroke-linecap="round" stroke-linejoin="round" __comx="362.58" __comy="189.819" __timestamp="0x180d7c5aaa0" d="M358.904 179.557 l-0.19 -0.172 0.317 0 0.951 0 1.014 0.172 1.077 0.401 1.077 0.344 0.824 0.286 0.57 0.229 0.19 0.286 0 0.458 -0.444 0.63 -1.394 0.916 -1.775 0.859 -1.838 0.802 -1.585 0.63 -1.077 0.458 -0.444 0.229 -0.063 0.172 0 0.172 0.824 0.172 1.394 0.229 1.965 0.115 2.092 0.057 2.092 0.057 1.965 0.115 1.458 0.286 0.887 0.458 0.254 0.859 0 1.145 -1.014 1.432 -1.648 1.603 -2.028 1.489 -1.901 1.317 -1.648 0.974 -1.141 0.573 -0.634 0.286 -0.127 0 0 -0.115 1.141 -1.203 1.838 -1.89" />
    <path class="write-stroke-pen" fill="none" stroke="#000000" stroke-width="1.6" stroke-linecap="round" stroke-linejoin="round" __comx="378.108" __comy="189.819" __timestamp="0x180d7c5ac00" d="M379.566 174.231 l0.697 -0.401 0.57 -0.057 0.507 0 0.38 0.172 0 1.145 0 1.89 -0.507 2.52 -1.331 3.092 -1.648 3.665 -1.775 3.951 -1.711 3.951 -1.204 3.551 -0.634 2.749 -0.063 1.833 0 0.916 0.887 0.115 1.521 -0.115 1.965 -1.317 2.092 -1.718 1.965 -2.062 1.394 -2.004 0.634 -1.603 0.063 -1.317 0 -0.744 -0.697 -0.286 -1.077 0 -1.458 0 -1.521 0.63 -1.394 0.744 -1.141 0.63 -0.761 0.458 -0.317 0.229 0.317 0 1.458 -0.286" />
    <path class="write-stroke-pen" fill="none" stroke="#000000" stroke-width="1.6" stroke-linecap="round" stroke-linejoin="round" __comx="395.95" __comy="189.819" __timestamp="0x180d7c5ad08" d="M391.292 189.578 l0 0.573 0 1.031 0 1.374 0 1.432 0 1.317 0.507 0.974 1.014 0.515 1.268 0 1.585 0 1.585 -0.802 1.458 -1.088 1.077 -0.974 0.634 -1.088 0.19 -1.088 0 -1.088 -0.254 -1.031 -1.141 -0.916 -1.458 -0.515 -1.521 -0.286 -1.268 -0.115 -0.887 0 -0.444 0 0 -0.115 0 -0.344 0.761 -0.573" />
    <path class="write-stroke-pen" fill="none" stroke="#000000" stroke-width="1.6" stroke-linecap="round" stroke-linejoin="round" __comx="416.961" __comy="189.819" __timestamp="0x180d7c5ae11" d="M422.856 172.456 l0 -0.115 0.063 0 0 0.344 -0.063 1.26 -0.697 1.947 -1.014 2.634 -1.268 3.321 -1.458 4.123 -1.711 4.696 -1.838 4.982 -1.648 4.524 -1.204 3.608 -0.697 2.462 -0.317 1.374" />
    <path class="write-stroke-pen" fill="none" stroke="#000000" stroke-width="1.6" stroke-linecap="round" stroke-linejoin="round" __comx="437.18" __comy="189.819" __timestamp="0x180d7c5b000" d="M434.074 182.363 l-0.317 -0.573 0.38 0 0.761 0 1.014 0 1.331 0 1.394 0.344 1.141 0.344 0.887 0.344 0.507 0.286 0.063 0.515 0 0.573 -0.824 0.687 -1.458 0.744 -1.711 0.63 -1.521 0.515 -1.077 0.401 -0.634 0.344 -0.127 0.344 0 0.401 0.254 0.458 0.951 0.515 1.077 0.63 1.077 0.744 1.014 0.859 0.761 0.974 0.444 1.031 0.063 0.974 0 1.031 -0.57 1.031 -1.204 0.916 -1.331 0.802 -1.268 0.515 -0.887 0.229 -0.697 0 -0.38 -0.286 -0.063 -1.031 0 -1.374 0.38 -1.546" />
    <path class="write-stroke-pen" fill="none" stroke="#000000" stroke-width="1.6" stroke-linecap="round" stroke-linejoin="round" __comx="450.3" __comy="189.819" __timestamp="0x180d7c5b199" d="M446.117 180.301 l0.634 -0.573 0.444 -0.229 0.317 0 0.19 0.229 0.127 1.031 0 1.26 0 1.432 -0.254 1.489 -0.634 1.317 -0.444 1.088 -0.38 0.687 -0.19 0.344 -0.063 0 0 -0.172 0 -0.859 0 -1.145 0.127 -1.203 0.507 -1.088 0.507 -1.031 0.634 -0.859 0.697 -0.744 0.761 -0.687 0.761 -0.573 0.761 -0.401 0.697 -0.229 0.761 -0.229 0.697 -0.057 0.634 0 0.57 0 0.444 0.458 0.253 1.088 0.063 1.546 0 1.89 0 2.233 -0.317 2.176 -0.38 2.119 -0.254 1.89 -0.254 1.489 -0.127 0.974 0 0.573 0 0.229 0.253 -0.229" />
    <path class="write-stroke-pen" fill="none" stroke="#000000" stroke-width="1.6" stroke-linecap="round" stroke-linejoin="round" __comx="469.6" __comy="189.819" __timestamp="0x180d7c5b285" d="M464.117 186.372 l0.19 0 0.127 0 0.19 0.573 0.19 1.26 0.317 1.718 0.507 1.833 0.697 1.546 1.014 1.088 1.331 0.458 1.458 0 1.458 -0.515 1.394 -1.26 1.141 -1.603 0.697 -1.603 0.254 -1.661 0 -1.489 -1.141 -1.26 -1.838 -0.859 -1.965 -0.515 -1.901 0 -1.331 0 -0.634 0" />
    <path class="write-stroke-pen" fill="none" stroke="#000000" stroke-width="1.6" stroke-linecap="round" stroke-linejoin="round" __comx="512.351" __comy="189.819" __timestamp="0x180d7c5ba26" d="M512.477 192.614 l0 -0.057 0 1.031 -0.254 1.26" />
    <path class="write-stroke-pen" fill="none" stroke="#000000" stroke-width="1.6" stroke-linecap="round" stroke-linejoin="round" __comx="509.53" __comy="189.819" __timestamp="0x180d7c5be46" d="M511.717 191.926 l0 -0.057 0 -0.115 0 -0.057 0 -0.057 0 0.115 0 0.172 0 0.057 0 0.057 0 0.057 0.063 0 0.063 0 0.127 0 0.19 0 0.19 0 0.19 0 0.19 0 0.19 0 0.254 0.286 0.254 0.229 0.19 0.344 0.127 0.401 0 0.802 -0.19 1.088 -1.141 1.374 -1.648 1.432 -1.965 1.145 -1.901 0.859 -1.585 0.229" />
    <path class="write-stroke-pen" fill="none" stroke="#000000" stroke-width="1.6" stroke-linecap="round" stroke-linejoin="round" __comx="255.687" __comy="231.964" __timestamp="0x180d7c5c292" d="M256.923 221.82 l0 -0.057 0 0.344 0.127 1.031 0.063 1.432 0 1.661 0 1.947 -0.127 2.176 -0.507 2.291 -0.57 2.348 -0.507 2.062 -0.507 1.603 -0.38 1.088 -0.19 0.515 -0.063 0 0 -0.172 0.507 -1.317" />
    <path class="write-stroke-pen" fill="none" stroke="#000000" stroke-width="1.6" stroke-linecap="round" stroke-linejoin="round" __comx="271.849" __comy="231.964" __timestamp="0x180d7c5c402" d="M261.106 224.855 l0.127 -0.229 0.063 0 0.127 0 0.254 0.344 0.38 0.859 0.444 1.031 0.444 1.145 0.38 1.088 0.38 0.802 0.507 0.63 0.634 0.286 0.824 0 1.141 -0.286 1.331 -1.088 1.585 -1.374 1.585 -1.489 1.458 -1.489 1.204 -1.317 0.951 -1.145 0.761 -0.859 0.444 -0.515 0.317 -0.286 0.063 -0.057 0.063 0.115 0 0.859 0 1.374 0 1.775 0 2.004 0 2.291 0.127 2.348 0.317 2.176 0.38 1.89 0.697 1.374 0.697 0.859 0.824 0.401 0.824 0.057 0.824 0 0.697 -0.057 0.634 -0.573" />
    <path class="write-stroke-pen" fill="none" stroke="#000000" stroke-width="1.6" stroke-linecap="round" stroke-linejoin="round" __comx="287.409" __comy="231.964" __timestamp="0x180d7c5c502" d="M284.557 233.101 l0.127 0.115 0.254 0.515 0.317 0.63 0.38 0.515 0.57 0.344 0.634 0.172 0.887 0 0.951 -0.057 0.887 -0.63 0.761 -0.802 0.507 -0.802 0.19 -0.744 0 -0.744 0 -0.63 -0.57 -0.344 -1.077 -0.057 -1.458 0 -1.521 0.401 -1.394 0.802 -0.951 0.802 -0.254 0.344" />
    <path class="write-stroke-pen" fill="none" stroke="#000000" stroke-width="1.6" stroke-linecap="round" stroke-linejoin="round" __comx="304.491" __comy="231.964" __timestamp="0x180d7c5cc22" d="M299.705 230.009 l0 -0.057 0 -0.057 0.127 0 0.824 -0.057 1.141 -0.229 1.521 -0.401 1.521 -0.63 1.458 -0.63 1.268 -0.687 0.951 -0.573 0.57 -0.344 0.19 -0.229" />
    <path class="write-stroke-pen" fill="none" stroke="#000000" stroke-width="1.6" stroke-linecap="round" stroke-linejoin="round" __comx="312.223" __comy="231.964" __timestamp="0x180d7c5cdf0" d="M304.903 225.428 l0 -0.286 0 -0.057 0 -0.057 0 0.401 -0.19 1.088 -0.254 1.546 -0.38 1.661 -0.19 1.89 -0.063 1.833 0 1.718 0 1.489 0 1.145 0.317 0.802 0.507 0.458 0.634 0 1.014 0 1.141 -0.515 1.331 -0.859 1.394 -1.031 1.268 -0.974 1.141 -0.916 0.824 -0.802 0.444 -0.515 0.254 -0.344 0 0.115 0 0.916 -0.19 1.317 -0.254 1.317 0 1.088 0 0.687 0.19 0.401 0.824 0 1.141 -0.172 1.268 -0.974 1.331 -1.374 1.141 -1.374 0.761 -1.317 0.317 -1.088 0 -0.916 -0.19 -0.687 -1.077 -0.515 -1.394 -0.286 -1.394 -0.172 -1.141 0 -0.634 0 -0.253 0 0 -0.115 0.634 -0.229 1.204 -0.344" />
    <path class="write-stroke-pen" fill="none" stroke="#000000" stroke-width="1.6" stroke-linecap="round" stroke-linejoin="round" __comx="330.858" __comy="231.964" __timestamp="0x180d7c5cf09" d="M324.424 225.886 l0.507 -0.286 0.444 -0.172 0.634 0 0.761 0 0.697 0.344 0.634 0.974 0.57 1.26 0.317 1.546 0.19 1.661 0 1.661 0 1.603 0 1.26 0 0.859 0 0.458 0 0.172 0 -0.057 0 -0.859 0.317 -1.432 0.824 -1.546 1.141 -1.661 1.204 -1.374 1.268 -0.974 1.141 -0.802 1.014 -0.458 0.761 -0.115 0.444 -0.057" />
    <path class="write-stroke-pen" fill="none" stroke="#000000" stroke-width="1.6" stroke-linecap="round" stroke-linejoin="round" __comx="344.389" __comy="231.964" __timestamp="0x180d7c5d6c2" d="M340.65 230.811 l0 -0.344 0 -0.286 0 -0.115 0 -0.057 0 0.63 0 1.374 -0.063 1.546 -0.19 1.661 0 1.374 0 0.859 0 0.63 0.761 0.115 1.014 0 1.268 -0.515 1.331 -1.26 1.331 -1.374 1.014 -1.374 0.824 -1.203 0.38 -1.031 0.063 -0.916 0 -0.63 -0.634 -0.458 -1.204 -0.172 -1.458 0 -1.521 0 -1.141 0.115 -0.697 0.172 -0.317 0.115 0.063 0 1.141 0" />
    <path class="write-stroke-pen" fill="none" stroke="#000000" stroke-width="1.6" stroke-linecap="round" stroke-linejoin="round" __comx="358.46" __comy="231.964" __timestamp="0x180d7c5d804" d="M356.305 216.494 l0 -0.229 0 -0.115 0 0.573 0 1.145 0.063 1.603 0.063 2.004 0 2.291 0 2.749 0 3.035 0 3.207 0 2.978 0 2.405 0.254 1.775 0.444 1.031 0.507 0.63 0.634 0.172 0.634 0 0.761 0 0.951 -0.687" />
    <path class="write-stroke-pen" fill="none" stroke="#000000" stroke-width="1.6" stroke-linecap="round" stroke-linejoin="round" __comx="371.2" __comy="231.964" __timestamp="0x180d7c5d99a" d="M372.658 231.67 l0.38 -0.401 0.317 -0.515 0.444 -0.63 0.444 -0.687 0.38 -0.573 0.254 -0.515 0.063 -0.458 0 -0.344 0 -0.286 -0.317 -0.057 -0.951 0 -1.394 0 -1.521 0.859 -1.711 1.26 -1.711 1.489 -1.458 1.661 -1.204 1.432 -0.634 1.088 -0.317 0.687 0 0.344 0 0.172 0.697 0 1.204 -0.057 1.394 -0.63 1.394 -0.744 1.331 -0.63 1.077 -0.458 0.824 -0.458 0.57 -0.172 0.317 0 0.19 0.057 0.127 0.974 0.254 1.26 0.253 1.432 0.507 1.317 0.824 1.031 1.077 0.687 1.394 0.344 1.521 0" />
    <path class="write-stroke-pen" fill="none" stroke="#000000" stroke-width="1.6" stroke-linecap="round" stroke-linejoin="round" __comx="405.046" __comy="231.964" __timestamp="0x180d7c5e218" d="M402.954 219.93 l0.38 -0.573 0.127 -0.458 0.127 -0.401 0.19 -0.286 0.063 -0.286 0.127 -0.115 0 -0.057 0 0.63 -0.063 1.661 -0.507 2.348 -0.57 2.921 -0.57 3.092 -0.444 2.921 -0.19 2.806 0 2.463 0 1.833 0.19 1.374 0.634 0.744 0.887 0.115 1.014 0 1.077 -0.344 1.077 -0.916 0.951 -1.031 0.634 -0.974 0.38 -0.974 0 -0.687 0 -0.401 -0.38 -0.115 -0.951 0 -1.141 0 -1.077 0.344 -0.887 0.344 -0.444 0.172 -0.19 0 0 -0.057 0.444 -0.458" />
    <path class="write-stroke-pen" fill="none" stroke="#000000" stroke-width="1.6" stroke-linecap="round" stroke-linejoin="round" __comx="427.958" __comy="231.964" __timestamp="0x180d7c5e3cc" d="M420.638 231.498 l1.268 -0.744 1.268 -0.916 1.458 -0.974 1.394 -0.974 1.077 -0.974 0.761 -0.974 0.444 -0.974 0.063 -0.974 0 -0.859 0 -0.63 -0.57 -0.401 -0.887 -0.286 -1.014 0 -1.141 0 -1.077 0 -1.014 0.172 -0.761 0.458 -0.507 0.573 -0.19 0.859 0 0.916 0 1.145 0.444 1.203 0.951 1.26 1.141 1.374 1.204 1.489 1.077 1.546 0.697 1.546 0.19 1.432 0 1.203 -0.57 1.031 -1.268 0.802 -1.394 0.515 -1.394 0.172 -1.141 0 -0.824 -0.286 -0.444 -0.974 0 -1.26 0.127 -1.603 1.268 -1.718 1.711 -1.775 2.092 -1.718 2.408 -1.603 2.662 -1.603 2.852 -1.489 3.042 -1.432" />
    <path class="write-stroke-pen" fill="none" stroke="#000000" stroke-width="1.6" stroke-linecap="round" stroke-linejoin="round" __comx="447.733" __comy="231.964" __timestamp="0x180d7c5e524" d="M449.223 217.525 l-0.127 -0.458 -0.254 -0.172 -0.127 -0.115 -0.127 -0.115 -0.127 0 -0.063 0 -0.19 0 -0.254 0.515 -0.317 1.26 -0.38 1.947 -0.317 2.348 -0.254 2.749 -0.19 3.035 -0.127 3.264 -0.127 3.092 0 2.863 0 2.233 0 1.489 0.317 0.802 0.38 0.172 0.444 0 0.634 -0.859 0.697 -1.432" />
    <path class="write-stroke-pen" fill="none" stroke="#000000" stroke-width="1.6" stroke-linecap="round" stroke-linejoin="round" __comx="454.61" __comy="231.964" __timestamp="0x180d7c5e63a" d="M455.497 227.89 l0.254 -0.172 0.254 -0.172 0.254 -0.115 0.127 0 -0.063 0.172 -0.887 0.687 -1.204 0.802 -1.521 0.744 -1.648 0.63 -1.521 0.515 -1.204 0.286 -0.761 0.229 -0.317 0.115 0 0.057 0 0.172 0.824 0.458 1.585 0.573 2.218 0.802 2.409 0.802 2.345 0.916 2.218 0.974 1.711 1.145 1.394 0.974" />
    <path class="write-stroke-pen" fill="none" stroke="#000000" stroke-width="1.6" stroke-linecap="round" stroke-linejoin="round" __comx="486.554" __comy="231.964" __timestamp="0x180d7c5eda2" d="M488.076 238.656 l0 -0.344 0.063 -0.286 0.19 -0.115 0.19 -0.229 0.19 -0.229 0.19 -0.057 0.317 -0.115 0.38 0 0.317 0 0.19 1.088 0 1.89 -0.254 2.52 -1.711 2.921 -2.282 2.692 -2.852 1.661" />
    <path class="write-stroke-pen" fill="none" stroke="#FF0000" stroke-width="1.6" stroke-linecap="round" stroke-linejoin="round" __comx="256.289" __comy="272.006" __timestamp="0x180d7c5f8e2" d="M257.81 260.761 l-0.063 -0.229 0 -0.057 0 0.344 0 1.088 0.127 1.546 0.063 1.947 0 2.233 0 2.348 -0.38 2.462 -0.697 2.463 -0.697 2.233 -0.761 1.947 -0.444 1.317 -0.254 0.687 -0.063 0.057 0 -0.057 0.317 -1.203" />
    <path class="write-stroke-pen" fill="none" stroke="#FF0000" stroke-width="1.6" stroke-linecap="round" stroke-linejoin="round" __comx="272.768" __comy="272.006" __timestamp="0x180d7c5fa43" d="M261.74 264.885 l0.19 0 0 0.172 0.063 1.031 0.127 1.603 0.254 1.89 0.38 1.89 0.57 1.603 0.951 0.974 1.204 0.401 1.521 0 1.901 -0.515 1.965 -1.489 2.218 -1.833 1.901 -2.004 1.585 -1.947 1.204 -1.775 0.697 -1.432 0.38 -1.145 0.063 -0.744 0 -0.344 0 -0.115 0 0.916 0 1.203 0 1.661 0 1.89 0 2.119 0 2.348 0 2.233 0.317 2.062 0.38 1.661 0.507 1.26 0.697 0.687 0.887 0.115 1.014 0 1.077 -0.573" />
    <path class="write-stroke-pen" fill="none" stroke="#FF0000" stroke-width="1.6" stroke-linecap="round" stroke-linejoin="round" __comx="296.283" __comy="272.006" __timestamp="0x180d7c5fbfc" d="M289.881 263.625 l0.253 0 0.761 -0.115 1.141 -0.286 1.394 -0.344 1.394 -0.286 1.077 -0.229 0.634 -0.057 0.19 0 -0.127 0.286 -0.57 0.458 -0.634 0.458 -0.507 0.458 -0.38 0.458 -0.254 0.458 -0.127 0.515 0 0.687 0 0.974 0 1.26 0 1.489 0 1.661 0 1.718 -0.127 1.661 -0.317 1.546 -0.38 1.26 -0.57 0.859 -0.697 0.63 -0.697 0.401 -0.761 0.115 -0.507 0.115 -0.317 0 -0.19 0 0.507 -0.229 1.077 -0.515 1.585 -0.573 1.901 -0.63 2.092 -0.744 2.092 -0.687 1.838 -0.744 1.394 -0.63 0.951 -0.515" />
    <path class="write-stroke-pen" fill="none" stroke="#FF0000" stroke-width="1.6" stroke-linecap="round" stroke-linejoin="round" __comx="307.185" __comy="272.006" __timestamp="0x180d7c5fcd6" d="M306.361 261.506 l0 0.057 0 1.088 0 1.661 0 2.291 0.063 2.577 0.127 2.806 0.19 2.749 0.19 2.577 0.254 2.233 0.19 1.661 0.19 1.088 0.127 0.458 0.317 0" />
    <path class="write-stroke-pen" fill="none" stroke="#FF0000" stroke-width="1.6" stroke-linecap="round" stroke-linejoin="round" __comx="311.811" __comy="272.006" __timestamp="0x180d7c5fdc6" d="M308.452 263.797 l0 -0.687 0 -0.344 0.697 -0.286 0.887 -0.286 1.331 -0.172 1.521 0 1.711 0 1.711 0.458 1.331 0.916 0.887 1.088 0.254 1.317 0 1.546 -1.331 1.718 -2.092 1.775 -2.599 1.718 -2.599 1.374 -2.282 1.031 -1.648 0.458 -1.077 0.057 -0.317 0 0 -0.286" />
    <path class="write-stroke-pen" fill="none" stroke="#FF0000" stroke-width="1.6" stroke-linecap="round" stroke-linejoin="round" __comx="330.319" __comy="272.006" __timestamp="0x180d7c5ff4c" d="M338.178 263.052 l0 -0.286 0 -0.229 0 -0.172 -0.19 -0.115 -0.697 0 -1.141 0 -1.585 0 -1.965 0.573 -2.282 0.63 -2.218 0.687 -2.092 0.63 -1.648 0.63 -1.014 0.344 -0.507 0.286 -0.063 0.229 0 0.229 0.634 0.515 1.331 0.687 1.775 0.974 1.965 1.088 1.965 1.145 1.711 1.203 1.394 0.974 0.824 0.974 0.063 0.859 -0.063 0.859 -1.585 0.916 -2.155 0.744 -2.472 0.458 -2.409 0.172 -2.092 0 -1.204 0" />
    <path class="write-stroke-pen" fill="none" stroke="#000000" stroke-width="1.6" stroke-linecap="round" stroke-linejoin="round" __comx="362.77" __comy="272.006" __timestamp="0x180d7c6073e" d="M365.432 276.567 l-0.19 -0.057 -0.063 -0.115 -0.063 -0.115 -0.063 -0.057 -0.063 0 0 0.63 -0.127 1.432 -0.887 1.947 -1.141 2.119 -1.458 2.004 -1.268 1.374" />
    <path class="write-stroke-pen" fill="none" stroke="#000000" stroke-width="1.6" stroke-linecap="round" stroke-linejoin="round" __comx="261.391" __comy="315.82" __timestamp="0x180d7c613c0" d="M267.444 298.959 l-0.634 0.057 -1.077 0.401 -1.331 0.63 -1.585 0.802 -1.775 1.031 -1.838 1.145 -1.838 1.203 -1.585 1.145 -1.268 0.916 -0.887 0.687 -0.507 0.63 -0.19 0.401 0 0.401 0.317 0.286 1.141 0.229 1.711 0.115 2.092 0.115 2.282 0.057 2.345 0.172 2.218 0.344 1.965 0.401 1.648 0.515 0.951 0.573 0.254 0.63 0 0.859 -0.824 0.973 -1.521 1.203 -2.028 1.088 -2.345 1.088 -2.408 0.916 -2.155 0.802 -1.521 0.515 -0.887 0.172 -0.317 0 0.57 -0.057" />
    <path class="write-stroke-pen" fill="none" stroke="#000000" stroke-width="1.6" stroke-linecap="round" stroke-linejoin="round" __comx="274.163" __comy="315.82" __timestamp="0x180d7c614c1" d="M273.909 311.386 l0.063 -0.229 0.127 -0.172 0.19 -0.229 0.19 -0.115 0.127 0 0.063 0 0 0.115 0 1.203 0 1.947 -0.063 2.463 -0.254 2.806 -0.254 2.921 -0.254 2.749 -0.127 2.405 -0.063 1.775 0 1.031 0 0.286 0.19 -0.859 0.507 -1.603" />
    <path class="write-stroke-pen" fill="none" stroke="#000000" stroke-width="1.6" stroke-linecap="round" stroke-linejoin="round" __comx="276.73" __comy="315.82" __timestamp="0x180d7c615a9" d="M275.05 310.87 l0 -0.172 0 -0.172 0.444 -0.286 0.887 -0.286 1.141 -0.286 1.331 0 1.331 0 1.141 0.172 0.697 0.802 0.317 1.088 0 1.374 -0.761 1.432 -1.585 1.546 -2.028 1.489 -2.155 1.317 -1.901 1.031 -1.458 0.744 -0.824 0.229 -0.507 0.115 0 -0.229" />
    <path class="write-stroke-pen" fill="none" stroke="#000000" stroke-width="1.6" stroke-linecap="round" stroke-linejoin="round" __comx="285.857" __comy="315.82" __timestamp="0x180d7c6173c" d="M291.529 313.963 l0 -0.229 0 -0.344 0 -0.458 0 -0.515 0 -0.573 0 -0.401 -0.063 -0.286 -0.254 -0.115 -0.444 0 -0.824 0.057 -1.268 0.687 -1.648 1.031 -1.648 1.145 -1.648 1.317 -1.458 1.374 -1.204 1.317 -0.887 1.145 -0.507 0.916 -0.127 0.573 0 0.172 0.063 0 0.951 -0.057 1.331 -0.744 1.648 -0.916 1.711 -0.916 1.585 -0.744 1.458 -0.573 1.204 -0.344 0.824 -0.057 0.444 0 0.19 0.172 0.063 0.802 0 1.088 0 1.26 0 1.203 0 1.031 0.19 0.63 0.19 0.229 0.317 0 0.444 -0.115" />
    <path class="write-stroke-pen" fill="none" stroke="#000000" stroke-width="1.6" stroke-linecap="round" stroke-linejoin="round" __comx="303.445" __comy="315.82" __timestamp="0x180d7c61862" d="M296.283 309.725 l0.127 -0.458 0.19 -0.172 0.317 0 0.507 0.057 0.507 0.859 0.507 1.317 0.38 1.661 0.254 1.89 0.127 2.004 0 1.775 0 1.489 -0.127 1.088 -0.38 0.687 -0.254 0.229 -0.317 0 -0.254 -0.286 -0.127 -0.916 0 -1.203 0 -1.26 0.38 -1.26 0.951 -1.374 1.268 -1.26 1.458 -1.145 1.585 -0.916 1.648 -0.63 1.901 -0.401 1.838 -0.172 1.838 -0.115" />
    <path class="write-stroke-pen" fill="none" stroke="#000000" stroke-width="1.6" stroke-linecap="round" stroke-linejoin="round" __comx="322.491" __comy="315.82" __timestamp="0x180d7c61991" d="M326.643 306.976 l0 -0.172 0 -0.172 0 -0.115 -0.254 -0.115 -0.761 0 -1.077 0 -1.331 0.115 -1.521 0.802 -1.521 1.031 -1.521 1.26 -1.394 1.546 -1.141 1.718 -0.634 1.89 -0.063 1.833 0 1.718 1.141 1.317 1.711 0.859 2.028 0.344 2.218 0 2.345 -0.057 2.028 -0.687 1.585 -0.802 1.077 -0.974" />
    <path class="write-stroke-pen" fill="none" stroke="#000000" stroke-width="1.6" stroke-linecap="round" stroke-linejoin="round" __comx="344.77" __comy="315.82" __timestamp="0x180d7c62258" d="M347.242 315.394 l0.127 -0.401 0 -0.344 0 -0.057 0 -0.057 0 0.974 0 1.489 -0.317 1.833 -0.57 1.89 -1.077 1.546 -1.521 1.374 -1.711 0.859" />
    <path class="write-stroke-pen" fill="none" stroke="#000000" stroke-width="1.6" stroke-linecap="round" stroke-linejoin="round" __comx="255.085" __comy="353.033" __timestamp="0x180d7c62d62" d="M252.93 349.755 l0 -0.286 0 -0.286 0 -0.172 0 -0.115 0 -0.057 0 -0.057 0 -0.172 0.19 -0.115 0.127 -0.172 0.127 0 0.063 0 0 0.229 0.254 1.26 0.38 2.233 0.57 2.806 0.634 3.207 0.317 2.978 0.19 2.291 0 1.603 0 0.916 0 0.172 0.254 0 0.507 -0.974 0.697 -1.603" />
    <path class="write-stroke-pen" fill="none" stroke="#000000" stroke-width="1.6" stroke-linecap="round" stroke-linejoin="round" __comx="265.955" __comy="353.033" __timestamp="0x180d7c62df8" d="M259.205 354.909 l0.697 0 1.141 -0.057 1.648 -0.515 1.965 -0.687 2.218 -0.802 2.028 -0.859 1.775 -0.916 1.331 -0.687 0.697 -0.63" />
    <path class="write-stroke-pen" fill="none" stroke="#000000" stroke-width="1.6" stroke-linecap="round" stroke-linejoin="round" __comx="270.899" __comy="353.033" __timestamp="0x180d7c62ecc" d="M270.296 341.852 l-0.063 0 -0.063 0.286 0 1.203 0 1.775 0 2.348 0.063 2.692 0.254 2.921 0.127 2.921 0.063 2.749 0 2.291 0 1.661 0.127 0.974 0.127 0.401 0.254 0 0.444 -0.286" />
    <path class="write-stroke-pen" fill="none" stroke="#000000" stroke-width="1.6" stroke-linecap="round" stroke-linejoin="round" __comx="280.121" __comy="353.033" __timestamp="0x180d7c62fb5" d="M278.473 347.006 l0.063 -0.172 0 -0.057 0 0.744 0.19 1.775 0.38 2.577 0.634 3.15 0.507 3.092 0.38 2.749 0.317 2.062 0.127 1.317 0.127 0.687 0.19 0 0.127 -0.057 0.254 -1.26" />
    <path class="write-stroke-pen" fill="none" stroke="#000000" stroke-width="1.6" stroke-linecap="round" stroke-linejoin="round" __comx="283.702" __comy="353.033" __timestamp="0x180d7c6308e" d="M281.325 343.283 l0 -0.802 0 -0.515 0 -0.458 0 -0.286 0.444 -0.229 0.824 -0.115 1.204 0 1.394 0 1.521 0.458 1.331 0.859 1.141 0.974 0.634 1.26 0 1.718 -0.951 2.233 -2.472 2.405 -2.852 2.176 -2.662 1.603 -2.092 0.859 -1.204 0.229" />
    <path class="write-stroke-pen" fill="none" stroke="#000000" stroke-width="1.6" stroke-linecap="round" stroke-linejoin="round" __comx="310.575" __comy="353.033" __timestamp="0x180d7c63993" d="M309.783 347.006 l-0.127 -0.286 -0.19 -0.286 0 -0.344 0 -0.515 0 -0.515 0 -0.515 0 -0.401 0 -0.115 0 0.057 0.317 1.088 0.38 2.062 0.444 2.806 0.317 3.15 0.063 2.978 0.127 2.52 0.127 2.119 0 1.661 0.19 1.203 0 0.687 0.063 0.115 0.127 0 0.063 -0.802" />
    <path class="write-stroke-pen" fill="none" stroke="#000000" stroke-width="1.6" stroke-linecap="round" stroke-linejoin="round" __comx="315.234" __comy="353.033" __timestamp="0x180d7c63a92" d="M311.558 343.799 l0 -0.687 0.507 -0.515 0.761 -0.515 0.951 -0.458 1.268 -0.401 1.458 -0.172 1.458 0 1.458 0 1.077 0.286 0.761 0.802 0.254 1.031 0 1.26 -0.507 1.489 -1.268 1.546 -1.648 1.604 -1.965 1.432 -2.092 1.317 -1.901 1.088 -1.521 0.802 -1.014 0.401 -0.507 0.115 -0.127 0" />
    <path class="write-stroke-pen" fill="none" stroke="#000000" stroke-width="1.6" stroke-linecap="round" stroke-linejoin="round" __comx="325.85" __comy="353.033" __timestamp="0x180d7c63c90" d="M328.924 345.402 l-0.127 -0.229 -0.19 -0.115 -0.063 0 -0.063 0 -0.317 0.344 -0.444 0.916 -0.634 1.374 -0.634 1.775 -0.57 2.062 -0.634 2.176 -0.634 2.348 -0.57 2.291 -0.634 2.176 -0.38 1.89 -0.254 1.317 0 0.744 0 0.172 0.507 -1.088" />
    <path class="write-stroke-pen" fill="none" stroke="#000000" stroke-width="1.6" stroke-linecap="round" stroke-linejoin="round" __comx="333.678" __comy="353.033" __timestamp="0x180d7c63d78" d="M329.178 342.997 l0.063 -0.458 0 -0.458 0 -0.172 0 -0.057 0.254 0 0.444 0.172 0.697 1.145 0.887 1.718 0.951 2.233 1.077 2.52 1.141 2.577 1.077 2.463 0.887 2.291 0.761 1.947 0.507 1.489 0.254 1.145 0 0.687 0 0.344 -0.761 0.057 -1.268 0" />
    <path class="write-stroke-pen" fill="none" stroke="#000000" stroke-width="1.6" stroke-linecap="round" stroke-linejoin="round" __comx="333.678" __comy="353.033" __timestamp="0x180d7c63e05" d="M326.96 358.173 l0 -0.229 0 -0.344 0.57 -0.802 1.331 -1.145 1.775 -1.317 2.155 -1.26 2.155 -0.974 2.155 -0.573 1.838 -0.172 1.458 0" />
    <path class="write-stroke-pen" transform="translate(0,33.272)" fill="none" stroke="#000000" stroke-width="1.6" stroke-linecap="round" stroke-linejoin="round" __comx="77.553" __comy="464.624" __timestamp="0x180d7c650de" d="M73.37 411.753 l0 -0.286 0 -0.115 0 -0.057 0.063 0 0.063 0.573 0.063 1.088 0 1.603 0 2.062 0 2.749 -0.063 3.264 -0.38 3.608 -0.444 3.78 -0.444 3.436 -0.38 2.978 -0.254 2.233 -0.063 1.432 0 0.859 0.063 0.286 0.887 0 1.331 0 1.521 -0.458 1.711 -0.63 1.585 -0.63 1.394 -0.458 1.204 -0.401 0.951 -0.286 0.697 -0.286 0.444 -0.229 0.254 -0.229" />
    <path class="write-stroke-pen" transform="translate(0,33.272)" fill="none" stroke="#000000" stroke-width="1.6" stroke-linecap="round" stroke-linejoin="round" __comx="89.912" __comy="464.624" __timestamp="0x180d7c651c6" d="M90.103 432.484 l0 -0.115 0 0.515 0.127 1.088 0.063 1.432 0 1.603 0 1.546 0 1.317 0 1.088 -0.063 0.687 -0.19 0.401 -0.127 0.172 -0.19 0 -0.19 -0.344" />
    <path class="write-stroke-pen" transform="translate(0,33.272)" fill="none" stroke="#000000" stroke-width="1.6" stroke-linecap="round" stroke-linejoin="round" __comx="86.585" __comy="464.624" __timestamp="0x180d7c65272" d="M84.905 426.357 l-0.063 -0.229 -0.063 -0.115 0.507 0.401 0.697 0.458 0.634 0.515 0.697 0.573 0.507 0.63 0.57 0.687" />
    <path class="write-stroke-pen" transform="translate(0,33.272)" fill="none" stroke="#000000" stroke-width="1.6" stroke-linecap="round" stroke-linejoin="round" __comx="96.694" __comy="464.624" __timestamp="0x180d7c65336" d="M92.321 433.916 l-0.063 0 0 -0.401 0.761 -0.687 1.268 -0.744 1.521 -0.802 1.521 -0.573 1.458 -0.344 1.204 -0.286 0.761 0 0.38 0" />
    <path class="write-stroke-pen" transform="translate(0,33.272)" fill="none" stroke="#000000" stroke-width="1.6" stroke-linecap="round" stroke-linejoin="round" __comx="100.719" __comy="464.624" __timestamp="0x180d7c6541e" d="M97.075 425.727 l-0.063 -0.057 0 0.515 0 1.317 0 1.833 0 2.119 0 2.176 0 2.119 0.063 1.775 0.317 1.489 0.38 0.974 0.57 0.515 0.697 0.115 0.761 0 0.824 -0.172 1.014 -0.802 1.077 -0.974 0.951 -0.916 0.761 -0.859" />
    <path class="write-stroke-pen" transform="translate(0,33.272)" fill="none" stroke="#000000" stroke-width="1.6" stroke-linecap="round" stroke-linejoin="round" __comx="108.959" __comy="464.624" __timestamp="0x180d7c654c2" d="M106.138 432.885 l0.19 0 0.317 0 0.57 -0.057 0.697 -0.344 0.951 -0.515 1.014 -0.515 0.824 -0.63 0.697 -0.63 0.38 -0.515 0 -0.286 0 -0.229" />
    <path class="write-stroke-pen" transform="translate(0,33.272)" fill="none" stroke="#000000" stroke-width="1.6" stroke-linecap="round" stroke-linejoin="round" __comx="112.349" __comy="464.624" __timestamp="0x180d7c65594" d="M108.927 424.066 l0 0.286 0 1.088 0 1.603 0 2.119 -0.127 2.291 0 2.291 0 2.233 0 1.833 0.127 1.432 0.57 0.859 0.697 0.229 0.951 0 1.014 -0.172 1.014 -0.859 0.887 -0.974 0.761 -0.974 0.57 -0.974 0.507 -1.088" />
    <path class="write-stroke-pen" transform="translate(0,33.272)" fill="none" stroke="#000000" stroke-width="1.6" stroke-linecap="round" stroke-linejoin="round" __comx="121.255" __comy="464.624" __timestamp="0x180d7c656a5" d="M120.272 412.498 l0 -0.515 0 -0.344 0 -0.229 0 -0.057 0 0.172 0 1.031 0 1.603 0.063 2.291 0 2.921 0 3.608 0 4.123 0 4.18 0 3.951 0.127 3.321 0.127 2.577 0.254 1.718 0.254 0.974 0.254 0.286 0.317 0 0.254 -0.344 0.317 -1.031" />
    <path class="write-stroke-pen" transform="translate(0,33.272)" fill="none" stroke="#000000" stroke-width="1.6" stroke-linecap="round" stroke-linejoin="round" __comx="133.646" __comy="464.624" __timestamp="0x180d7c657f0" d="M126.864 436.493 l0.317 0 0.254 0 0.38 0 0.507 0 0.697 0 0.824 -0.229 1.014 -0.63 1.077 -0.744 0.887 -0.916 0.634 -1.088 0.38 -0.974 0.063 -0.916 0 -0.859 0 -0.573 -0.444 -0.344 -0.507 -0.229 -0.57 0 -0.57 0 -0.634 0.172 -0.697 0.802 -0.634 1.031 -0.57 1.317 -0.444 1.26 -0.317 1.317 0 1.317 0 1.203 0.317 1.088 0.951 0.916 1.204 0.687 1.458 0.401 1.521 0.172 1.585 0.057 1.648 0 1.521 0 1.711 -0.229" />
    <path class="write-stroke-pen" transform="translate(0,33.272)" fill="none" stroke="#000000" stroke-width="1.6" stroke-linecap="round" stroke-linejoin="round" __comx="170.914" __comy="465.506" __timestamp="0x180d7c667ee" d="M169.837 419.656 l0 -0.286 0 -0.057 0.063 0 0.063 0 0.127 0.515 0 1.031 0.063 1.489 0 2.062 0 2.405 0 2.692 0 2.921 -0.063 2.921 -0.19 2.806 -0.063 2.463 0 1.947 0 1.374 0 0.802 0 0.344 0.063 0 0.507 -0.744 0.697 -1.489 0.887 -2.004" />
    <path class="write-stroke-pen" transform="translate(0,33.272)" fill="none" stroke="#000000" stroke-width="1.6" stroke-linecap="round" stroke-linejoin="round" __comx="179.407" __comy="465.506" __timestamp="0x180d7c668a3" d="M172.562 424.982 l0 -0.115 0 -0.057 0 -0.057 0.824 -0.115 1.331 -0.115 1.775 -0.286 2.218 -0.401 2.218 -0.573 2.028 -0.515 1.648 -0.401 1.077 -0.172 0.57 0" />
    <path class="write-stroke-pen" transform="translate(0,33.272)" fill="none" stroke="#000000" stroke-width="1.6" stroke-linecap="round" stroke-linejoin="round" __comx="181.119" __comy="465.506" __timestamp="0x180d7c66946" d="M176.175 434.947 l0.824 -0.344 1.394 -0.63 1.838 -0.687 2.028 -0.515 1.838 -0.172 1.268 0 0.697 0.344" />
    <path class="write-stroke-pen" transform="translate(0,33.272)" fill="none" stroke="#000000" stroke-width="1.6" stroke-linecap="round" stroke-linejoin="round" __comx="182.291" __comy="465.506" __timestamp="0x180d7c669e4" d="M176.048 444.625 l0.127 0 1.014 -0.229 1.458 -0.515 2.028 -0.573 2.218 -0.687 2.155 -0.744 1.901 -0.687 1.585 -0.859" />
    <path class="write-stroke-pen" transform="translate(0,33.272)" fill="none" stroke="#000000" stroke-width="1.6" stroke-linecap="round" stroke-linejoin="round" __comx="194.967" __comy="465.506" __timestamp="0x180d7c66b72" d="M191.006 433.801 l0 0.458 0 1.031 -0.063 1.432 -0.19 1.661 -0.317 1.661 -0.317 1.546 -0.19 1.26 -0.127 0.974 -0.063 0.63 0 0.286 0.127 -0.744 0.57 -1.145 0.634 -1.432 0.634 -1.432 0.634 -1.374 0.634 -1.203 0.697 -1.088 0.697 -0.916 0.887 -0.744 0.824 -0.515 0.761 -0.286 0.697 -0.115 0.444 0 0.317 0 0.254 0.859 0 1.203 0 1.432 0 1.603 0 1.603 0 1.374 0 1.145 0 0.859 0 0.458 0.444 0 0.507 0 0.697 -0.286" />
    <path class="write-stroke-pen" transform="translate(0,33.272)" fill="none" stroke="#000000" stroke-width="1.6" stroke-linecap="round" stroke-linejoin="round" __comx="212.271" __comy="465.506" __timestamp="0x180d7c66d86" d="M212.809 435.92 l0.697 -0.744 0.634 -0.802 0.444 -0.802 0.317 -0.916 0.063 -0.859 0 -0.916 0 -0.859 -0.57 -0.687 -0.951 -0.286 -1.204 0 -1.458 0.344 -1.585 1.317 -1.648 1.546 -1.585 1.775 -1.394 1.89 -1.204 1.833 -0.824 1.661 -0.507 1.203 -0.127 0.744 0 0.286 0.063 0 1.014 -0.057 1.458 -0.859 1.775 -1.26 1.901 -1.546 1.965 -1.661 1.775 -1.833 1.775 -2.004 1.521 -2.233 1.331 -2.52 1.141 -2.749 0.951 -2.806 0.887 -2.692 0.824 -2.463 0.697 -1.947 0.634 -1.546 0.444 -1.088 0.38 -0.687 0.127 -0.344 0.063 -0.229 0 0.286 -0.127 1.145 -0.444 1.718 -0.507 2.348 -0.634 2.921 -0.634 3.493 -0.761 3.894 -0.761 4.009 -0.697 3.665 -0.507 3.092 -0.254 2.233 -0.063 1.432 0 0.744 0 0.286 0.19 0 0.761 -0.401 0.951 -1.031 1.077 -1.374" />
    <path class="write-stroke-pen" transform="translate(0,33.272)" fill="none" stroke="#000000" stroke-width="1.6" stroke-linecap="round" stroke-linejoin="round" __comx="227.577" __comy="465.506" __timestamp="0x180d7c66e43" d="M227.197 429.506 l0.317 -0.344 0.254 -0.229 0.127 -0.172 0.063 0 0.063 0 0 0.859 0 1.317 0 1.661 -0.254 1.603 -0.317 1.374 -0.19 0.974 -0.063 0.515 0 0.286 -0.063 -0.344" />
    <path class="write-stroke-pen" transform="translate(0,33.272)" fill="none" stroke="#000000" stroke-width="1.6" stroke-linecap="round" stroke-linejoin="round" __comx="228.179" __comy="465.506" __timestamp="0x180d7c66ed8" d="M225.232 424.009 l0 -0.63 0 -0.344 0 -0.057 0.254 0 0.57 0 0.761 0 0.951 0 0.887 0.573 1.014 0.744 0.761 0.802 0.697 1.031" />
    <path class="write-stroke-pen" transform="translate(0,33.272)" fill="none" stroke="#000000" stroke-width="1.6" stroke-linecap="round" stroke-linejoin="round" __comx="235.151" __comy="465.506" __timestamp="0x180d7c67075" d="M240.444 432.37 l0.19 -0.744 0 -0.744 0 -0.687 0 -0.63 -0.38 -0.515 -0.57 -0.401 -0.697 -0.229 -0.634 -0.057 -0.824 0 -0.887 0 -1.014 0.687 -1.014 1.203 -1.077 1.374 -1.077 1.603 -1.077 1.603 -0.887 1.26 -0.634 1.088 -0.317 0.687 0 0.344 0 0.057 0.57 0 1.077 0 1.331 -0.573 1.521 -0.916 1.458 -0.974 1.331 -1.088 1.141 -0.916 0.887 -0.687 0.57 -0.401 0.254 -0.115 0.127 0 0 0.229 0 0.859 0 1.203 -0.127 1.26 -0.063 1.203 0 1.031 0 0.687 0 0.515 0 0.172 0.254 0 0.38 0 0.507 -0.401" />
    <path class="write-stroke-pen" transform="translate(0,33.272)" fill="none" stroke="#000000" stroke-width="1.6" stroke-linecap="round" stroke-linejoin="round" __comx="251.219" __comy="465.506" __timestamp="0x180d7c67203" d="M247.035 428.59 l0.254 -0.172 0.127 0 0.19 0 0.127 0.515 0.063 0.974 0 1.203 0 1.432 -0.19 1.603 -0.507 1.546 -0.634 1.489 -0.444 1.26 -0.38 0.974 -0.127 0.515 -0.063 0.172 0 0.057 0 -0.229 0.254 -0.802 0.761 -1.145 0.824 -1.317 0.824 -1.145 0.761 -1.145 0.824 -1.088 0.824 -0.859 0.824 -0.802 0.697 -0.515 0.634 -0.286 0.57 -0.115 0.57 0 0.444 0 0.317 0.63 0.254 0.974 0.063 1.374 0 1.603 0 1.89 0 1.947 0 1.89 0 1.489 0.063 1.088 0.19 0.63 0.38 0.172 0.507 0 0.951 -0.172" />
    <path class="write-stroke-pen" transform="translate(0,33.272)" fill="none" stroke="#000000" stroke-width="1.6" stroke-linecap="round" stroke-linejoin="round" __comx="278.79" __comy="465.506" __timestamp="0x180d7c672ae" d="M278.092 425.039 l0.063 -0.057 0.127 0 0.127 0 0.253 0.229 0.38 0.63 0.317 0.802 0.127 0.802" />
    <path class="write-stroke-pen" transform="translate(0,33.272)" fill="none" stroke="#000000" stroke-width="1.6" stroke-linecap="round" stroke-linejoin="round" __comx="280.754" __comy="465.506" __timestamp="0x180d7c67336" d="M278.219 434.66 l0.127 0 0.634 0 0.951 0 1.014 -0.172 0.951 -0.172 0.824 0 0.57 0" />
    <path class="write-stroke-pen" fill="none" stroke="#000000" stroke-width="1.6" stroke-linecap="round" stroke-linejoin="round" __comx="268.363" __comy="512.346" __timestamp="0x180d7c6a831" d="M261.613 505.109 l0.38 0 1.268 0 1.711 -0.229 2.028 -0.458 1.965 -0.573 1.838 -0.515 1.648 -0.515 1.331 -0.458 0.887 -0.229 0.444 -0.229" />
    <path class="write-stroke-pen" fill="none" stroke="#000000" stroke-width="1.6" stroke-linecap="round" stroke-linejoin="round" __comx="272.483" __comy="512.346" __timestamp="0x180d7c6a8d2" d="M273.402 504.765 l0 0.286 0 0.286 0 0.286 0.254 0.401 0.254 0.63 0.063 0.744 0 0.974 0 1.145 0 1.203 -0.19 1.203 -0.444 1.374 -0.507 1.374 -0.634 1.546 -0.634 1.546 -0.57 1.374" />
    <path class="write-stroke-pen" fill="none" stroke="#000000" stroke-width="1.6" stroke-linecap="round" stroke-linejoin="round" __comx="276.635" __comy="512.346" __timestamp="0x180d7c6a94a" d="M270.296 521.716 l0.444 0 0.951 -0.573 1.204 -0.687 1.585 -0.802 1.711 -0.859 1.711 -0.744 1.648 -0.573 1.394 -0.458 1.077 -0.286 0.951 -0.344" />
    <path class="write-stroke-pen" fill="none" stroke="#000000" stroke-width="1.6" stroke-linecap="round" stroke-linejoin="round" __comx="290.705" __comy="512.346" __timestamp="0x180d7c6aad1" d="M286.205 511.122 l0 -0.057 0.127 0 0 0.115 0 0.916 0 1.374 0 1.546 0 1.546 0 1.26 0 1.031 0 0.63 0 0.286 0.254 0 0.507 -0.458 0.57 -0.916 0.57 -0.974 0.634 -0.974 0.507 -0.802 0.507 -0.744 0.634 -0.573 0.57 -0.401 0.444 -0.229 0.57 -0.057 0.444 0 0.38 0 0.38 0.744 0.19 1.031 0.127 1.203 0.063 1.203 0.127 1.088 0.127 0.916 0.19 0.573 0.19 0.286 0.127 0.115 0.127 0 0.19 0 0.444 -0.573" />
    <path class="write-stroke-pen" fill="none" stroke="#000000" stroke-width="1.6" stroke-linecap="round" stroke-linejoin="round" __comx="302.589" __comy="512.346" __timestamp="0x180d7c6ab6e" d="M297.487 514.959 l0.57 -0.115 1.141 -0.401 1.585 -0.687 1.901 -0.859 1.901 -0.859 1.521 -0.802 1.077 -0.458 0.507 -0.172" />
    <path class="write-stroke-pen" fill="none" stroke="#000000" stroke-width="1.6" stroke-linecap="round" stroke-linejoin="round" __comx="307.375" __comy="512.346" __timestamp="0x180d7c6ac56" d="M304.142 508.602 l0 0.802 -0.317 1.26 -0.444 1.603 -0.38 1.661 -0.254 1.546 0 1.374 0 1.031 0 0.687 0.697 0.344 0.824 0.057 1.141 0 1.268 0 1.331 -0.344 1.331 -0.286 1.077 -0.229 0.887 -0.115 0.697 0" />
    <path class="write-stroke-pen" fill="none" stroke="#000000" stroke-width="1.6" stroke-linecap="round" stroke-linejoin="round" __comx="320.241" __comy="512.346" __timestamp="0x180d7c6ad90" d="M313.206 517.994 l0.127 0 0.127 0 0.317 -0.057 0.57 -0.286 0.697 -0.515 1.204 -0.859 1.268 -0.974 1.268 -1.145 1.331 -1.088 1.077 -0.859 0.761 -0.573 0.38 -0.286 0 -0.115 -0.634 0 -0.824 0.115 -0.951 0.515 -0.951 0.687 -1.014 0.916 -0.887 1.031 -0.761 1.145 -0.57 1.088 -0.253 0.916 0 0.802 0 0.515 0.824 0.229 1.268 0 1.521 0 1.585 -0.401 1.648 -0.802 1.585 -0.859 1.331 -0.744 1.141 -0.744 0.887 -0.687" />
    <path class="write-stroke-pen" fill="none" stroke="#000000" stroke-width="1.6" stroke-linecap="round" stroke-linejoin="round" __comx="337.861" __comy="512.346" __timestamp="0x180d7c6ae64" d="M338.241 491.078 l0.38 -0.974 0.19 -0.286 0.254 -0.172 0 -0.115 0 0.344 0 1.775 -0.19 2.863 -0.19 4.066 -0.254 4.81 -0.317 5.211 -0.317 5.326 -0.57 5.097 -0.57 4.524" />
    <path class="write-stroke-pen" fill="none" stroke="#000000" stroke-width="1.6" stroke-linecap="round" stroke-linejoin="round" __comx="383.813" __comy="513.145" __timestamp="0x180d7c6b886" d="M376.27 515.76 l0 -0.916 0 -0.859 0 -0.744 0.254 -0.744 0.317 -0.802 0.19 -0.859 0.063 -1.031 0 -1.203 0 -1.203 -0.063 -1.203 -0.444 -1.145 -0.634 -0.916 -0.824 -0.687 -0.761 -0.401 -0.697 -0.057 -0.507 0 -0.38 0 -0.38 0.573 -0.317 0.974 0 1.317 0 1.489 0.253 1.661 0.887 1.661 1.014 1.603 0.951 1.546 0.761 1.432 0.507 1.317 0.127 1.26 0 1.145 0 1.088 -0.761 0.859 -0.951 0.63 -0.951 0.344 -0.951 0.115 -0.761 0 -0.444 -0.172 -0.127 -0.916 0 -1.317 0.254 -1.546 1.014 -1.489 1.331 -1.374 1.648 -1.145 1.775 -0.916 1.901 -0.744 1.965 -0.515 1.965 -0.401 1.838 -0.115 1.585 0 1.014 0 0.507 0.401 0.127 0.802 0 1.145 0 1.26 -0.317 1.26 -0.317 1.088 -0.127 0.802 0 0.401 0 0.115 0.507 0 1.014 -0.458 1.331 -0.916 1.394 -1.145 1.331 -1.145 1.141 -1.088 0.887 -1.031 0.57 -0.916 0 -0.802 0 -0.515 -1.204 -0.286 -1.711 0 -1.901 0 -1.775 0 -1.331 0.229 -0.761 0.172 -0.253 0.115 0.063 0 1.077 -0.344" />
    <path class="write-stroke-pen" fill="none" stroke="#000000" stroke-width="1.6" stroke-linecap="round" stroke-linejoin="round" __comx="405.299" __comy="513.145" __timestamp="0x180d7c6b932" d="M399.278 509.518 l0.063 0.172 0.254 0.344 0.761 0.63 1.394 0.974 1.711 1.145 1.838 1.145 2.028 1.031 1.711 0.802 1.331 0.573 0.824 0.229 0.127 0" />
    <path class="write-stroke-pen" fill="none" stroke="#000000" stroke-width="1.6" stroke-linecap="round" stroke-linejoin="round" __comx="405.521" __comy="513.145" __timestamp="0x180d7c6b9e6" d="M409.989 504.937 l-0.19 0.744 -1.077 1.031 -1.268 1.489 -1.204 1.947 -1.077 2.176 -1.268 2.176 -1.204 2.062 -0.951 1.661 -0.507 1.317 -0.19 0.859 0 0.286" />
    <path class="write-stroke-pen" fill="none" stroke="#000000" stroke-width="1.6" stroke-linecap="round" stroke-linejoin="round" __comx="429.511" __comy="513.145" __timestamp="0x180d7c6bba2" d="M423.807 513.813 l0.761 -0.916 0.634 -1.088 0.887 -1.26 0.887 -1.317 0.951 -1.26 0.697 -1.374 0.38 -1.203 0.127 -1.145 0 -0.974 -0.19 -0.744 -0.697 -0.515 -0.824 -0.229 -0.951 0 -0.887 0 -1.014 0.286 -0.887 0.687 -0.634 0.859 -0.507 1.088 -0.19 1.317 0 1.317 0 1.432 0.19 1.432 0.824 1.317 1.014 1.489 1.014 1.432 0.951 1.603 0.57 1.546 0.063 1.489 0 1.317 -1.141 1.031 -1.521 0.687 -1.648 0.286 -1.521 0 -1.204 0 -0.761 -0.859 -0.127 -1.26 0 -1.603 0.951 -1.89 1.648 -1.947 1.965 -2.004 2.345 -1.89 2.662 -1.775 2.852 -1.775 2.979 -1.718 2.916 -1.718 2.599 -1.661" />
    <path class="write-stroke-pen" fill="none" stroke="#000000" stroke-width="1.6" stroke-linecap="round" stroke-linejoin="round" __comx="447.733" __comy="513.145" __timestamp="0x180d7c6bcfa" d="M452.772 489.418 l0 -0.229 0 -0.115 -0.254 0.057 -0.634 1.203 -0.951 1.89 -1.268 2.577 -1.331 3.207 -1.521 3.551 -1.521 3.837 -1.394 4.009 -1.204 4.066 -0.697 3.665 -0.254 2.978 0 2.004 0.254 1.203 1.077 0.458 1.585 0 2.028 -0.229 2.155 -0.974 2.155 -1.145 1.711 -1.145 1.204 -1.203 0.507 -1.145 0 -0.916 -1.458 -0.573 -2.916 0 -3.169 0.744 -2.979 1.203 -2.092 1.031 -0.761 0.458" />
    <path class="write-stroke-pen" fill="none" stroke="#000000" stroke-width="1.6" stroke-linecap="round" stroke-linejoin="round" __comx="482.815" __comy="513.145" __timestamp="0x180d7c6c4f2" d="M485.223 517.707 l0 -0.115 -0.127 0 -0.38 0.744 -0.57 1.775 -0.824 2.119 -1.268 2.233 -1.648 1.947" />
    <path class="write-stroke-pen" fill="none" stroke="#000000" stroke-width="1.6" stroke-linecap="round" stroke-linejoin="round" __comx="273.307" __comy="554.017" __timestamp="0x180d7c6cc58" d="M270.36 543.454 l-0.127 -0.802 -0.127 -0.63 0 -0.458 0 -0.458 0 -0.344 0.063 -0.115 0.38 0 0.634 0.057 0.697 1.145 0.761 1.833 0.507 2.405 0.19 2.921 0.063 3.15 0 3.264 0 3.207 0.127 2.863 0.19 2.233 0.317 1.661 0.38 1.031 0.57 0.401 0.634 0 0.887 -0.401" />
    <path class="write-stroke-pen" fill="none" stroke="#000000" stroke-width="1.6" stroke-linecap="round" stroke-linejoin="round" __comx="280.374" __comy="554.017" __timestamp="0x180d7c6cd48" d="M276.191 540.132 l-0.127 -0.687 0 -0.229 0.063 -0.057 1.141 -0.057 1.521 0 1.838 0 1.901 0 1.775 0.744 1.585 1.145 1.331 1.89 0.887 2.692 0.19 3.436 -0.38 4.123 -1.965 4.18 -2.662 4.009 -2.916 3.551 -2.725 2.806 -2.662 2.233 -2.535 1.145" />
    <path class="write-stroke-pen" fill="none" stroke="#000000" stroke-width="1.6" stroke-linecap="round" stroke-linejoin="round" __comx="297.962" __comy="554.017" __timestamp="0x180d7c6d594" d="M297.994 540.819 l0 -0.115 0 -0.115 0 -0.115 0 -0.057 0 -0.057 0 -0.057 0 0.974 0.063 1.775 0.127 2.405 0.127 2.806 0 3.035 0 2.978 0 2.921 0 2.806 -0.127 2.348 -0.19 1.718 -0.127 1.031 -0.063 0.286 -0.19 0 0 -1.031 0 -1.775" />
    <path class="write-stroke-pen" fill="none" stroke="#000000" stroke-width="1.6" stroke-linecap="round" stroke-linejoin="round" __comx="305.346" __comy="554.017" __timestamp="0x180d7c6d648" d="M299.135 546.89 l0 -0.229 0 -0.057 0.38 -0.115 0.761 -0.115 1.141 -0.286 1.521 -0.286 1.711 -0.286 1.965 -0.286 1.901 -0.229 1.585 -0.229 1.014 -0.057 0.444 0" />
    <path class="write-stroke-pen" fill="none" stroke="#000000" stroke-width="1.6" stroke-linecap="round" stroke-linejoin="round" __comx="304.776" __comy="554.017" __timestamp="0x180d7c6d6e4" d="M299.896 555.079 l0.063 0 1.014 -0.458 1.521 -0.458 1.901 -0.458 1.965 -0.229 1.838 0 1.458 0" />
    <path class="write-stroke-pen" fill="none" stroke="#000000" stroke-width="1.6" stroke-linecap="round" stroke-linejoin="round" __comx="308.389" __comy="554.017" __timestamp="0x180d7c6d78a" d="M300.973 562.524 l-0.317 0 -0.063 0 0.19 0 1.204 -0.344 1.711 -0.401 2.409 -0.573 2.662 -0.573 2.662 -0.573 2.599 -0.458 2.155 -0.401" />
    <path class="write-stroke-pen" fill="none" stroke="#000000" stroke-width="1.6" stroke-linecap="round" stroke-linejoin="round" __comx="331.681" __comy="554.017" __timestamp="0x180d7c6d8bc" d="M330.509 545.057 l0.19 -1.031 0.317 -0.744 0.254 -0.63 0 -0.687 0 -0.515 -0.063 -0.172 -0.507 -0.115 -0.887 0 -1.204 0.229 -1.521 1.031 -1.775 1.603 -1.711 1.947 -1.521 2.233 -1.331 2.462 -0.824 2.462 -0.317 2.291 0 2.062 0.951 1.432 2.155 0.859 3.042 0.057 3.74 0 3.993 -1.031 3.803 -1.088 3.359 -0.859 3.106 -0.744" />
    <path class="write-stroke-pen" fill="none" stroke="#000000" stroke-width="1.6" stroke-linecap="round" stroke-linejoin="round" __comx="367.207" __comy="554.017" __timestamp="0x180d7c6e098" d="M359.411 541.907 l-0.317 -0.63 -0.127 -0.63 0 -0.573 0 -0.401 0 -0.229 0 -0.057 0.317 0 0.444 0.115 0.697 0.974 0.951 1.775 1.014 2.52 0.951 3.15 0.824 3.551 0.697 3.436 0.507 3.15 0.507 2.405 0.444 1.603 0.38 0.802 0.444 0 0.634 -0.458 0.951 -2.004 1.204 -2.863 1.394 -3.379 1.331 -3.608 0.887 -3.379 0.317 -3.035 0 -2.52 0 -1.833 -0.063 -1.26 0 -0.687 0 -0.344 0.57 0 0.634 0.115 0.444 0.974" />
    <path class="write-stroke-pen" fill="none" stroke="#000000" stroke-width="1.6" stroke-linecap="round" stroke-linejoin="round" __comx="383.845" __comy="554.017" __timestamp="0x180d7c6e260" d="M385.651 551.585 l0.19 -0.401 0 -0.458 0.063 -0.286 0.063 -0.401 0.063 -0.401 0 -0.515 0 -0.573 0 -0.401 -0.19 -0.286 -0.444 0 -0.57 0 -0.761 0.401 -1.014 0.974 -1.077 1.317 -1.077 1.489 -1.014 1.546 -0.824 1.432 -0.697 1.203 -0.444 0.859 -0.19 0.515 0 0.172 0.634 -0.057 1.014 -0.458 1.204 -0.573 1.331 -0.63 1.268 -0.573 1.268 -0.458 1.204 -0.458 0.887 -0.172 0.697 -0.057 0.317 -0.057 0.127 0 0 0.229 0.063 0.744 0.127 0.916 0.127 1.031 0.127 0.974 0.127 0.687 0.254 0.458 0.254 0.172 0.38 0 0.38 0 0.444 -0.286" />
    <path class="write-stroke-pen" fill="none" stroke="#000000" stroke-width="1.6" stroke-linecap="round" stroke-linejoin="round" __comx="400.672" __comy="554.017" __timestamp="0x180d7c6e333" d="M395.665 549.638 l0.063 0 0.254 0 0.507 0.515 0.951 0.974 1.141 1.26 1.268 1.374 1.331 1.26 1.204 1.031 1.077 0.859 1.014 0.687 0.697 0.458 0.38 0.229 0.127 0.057" />
    <path class="write-stroke-pen" fill="none" stroke="#000000" stroke-width="1.6" stroke-linecap="round" stroke-linejoin="round" __comx="400.672" __comy="554.017" __timestamp="0x180d7c6e3d0" d="M406.44 548.035 l0 0.401 -0.317 1.432 -1.077 2.119 -1.648 2.52 -1.901 2.577 -2.028 2.291 -1.901 1.89 -1.585 1.661 -1.077 1.145" />
    <path class="write-stroke-pen" fill="none" stroke="#000000" stroke-width="1.6" stroke-linecap="round" stroke-linejoin="round" __comx="423.965" __comy="554.017" __timestamp="0x180d7c6e9f0" d="M426.342 555.938 l0.127 -0.057 0.063 -0.057 0.063 0 0.127 0 0 0.687 0 1.489 -0.063 1.947 -0.824 2.233 -1.268 2.062 -1.585 1.603 -1.775 0.744" />
    <path class="write-stroke-pen" fill="none" stroke="#000000" stroke-width="1.6" stroke-linecap="round" stroke-linejoin="round" __comx="276.571" __comy="594.433" __timestamp="0x180d7c6f214" d="M274.099 584.457 l0 -0.115 0.063 0 0 0.401 0.19 1.546 0.38 2.577 0.697 3.436 0.697 3.722 0.634 3.665 0.57 3.092 0.317 2.692 0.38 2.062 0.317 1.26 0.19 0.573 0.127 0 0.19 -1.26 0.19 -2.062" />
    <path class="write-stroke-pen" fill="none" stroke="#000000" stroke-width="1.6" stroke-linecap="round" stroke-linejoin="round" __comx="284.747" __comy="594.433" __timestamp="0x180d7c6f318" d="M278.156 586.805 l0.063 -0.286 0.063 -0.172 0.254 -0.115 0.761 -0.057 1.204 -0.115 1.775 0 1.965 0 2.155 0 2.218 0.229 1.901 0.458 1.394 0.515 0.761 0.802 0 1.088 -0.19 1.718 -1.585 2.405 -2.345 2.749 -2.789 2.978 -2.789 3.035 -2.472 2.863 -1.838 2.405 -1.204 1.833 -0.57 1.031 -0.063 0.286 0.063 -0.115" />
    <path class="write-stroke-pen" fill="none" stroke="#000000" stroke-width="1.6" stroke-linecap="round" stroke-linejoin="round" __comx="297.455" __comy="594.433" __timestamp="0x180d7c6f426" d="M297.17 588.637 l-0.063 -0.057 0 0.344 0 1.26 0 2.176 0.317 2.749 0.317 3.035 0.063 2.806 0 2.348 0 1.833 0 1.26 -0.19 0.744 -0.19 0.172" />
    <path class="write-stroke-pen" fill="none" stroke="#000000" stroke-width="1.6" stroke-linecap="round" stroke-linejoin="round" __comx="303.825" __comy="594.433" __timestamp="0x180d7c6f4e2" d="M298.058 589.095 l0 -0.229 0.063 -0.172 0.57 -0.286 1.077 -0.401 1.585 -0.458 1.901 -0.344 2.092 -0.229 1.838 -0.057 1.458 -0.057 0.887 0 0.063 0.057" />
    <path class="write-stroke-pen" fill="none" stroke="#000000" stroke-width="1.6" stroke-linecap="round" stroke-linejoin="round" __comx="304.554" __comy="594.433" __timestamp="0x180d7c6f580" d="M298.818 599.06 l-0.127 0 0 -0.229 1.014 -0.458 1.458 -0.63 1.901 -0.573 2.092 -0.286 2.092 -0.115 1.838 0 1.331 0" />
    <path class="write-stroke-pen" fill="none" stroke="#000000" stroke-width="1.6" stroke-linecap="round" stroke-linejoin="round" __comx="304.839" __comy="594.433" __timestamp="0x180d7c6f616" d="M299.008 606.791 l-0.254 0 -0.19 0.057 1.014 -0.115 1.585 -0.458 2.218 -0.515 2.535 -0.458 2.662 -0.458 2.535 -0.458" />
    <path class="write-stroke-pen" fill="none" stroke="#000000" stroke-width="1.6" stroke-linecap="round" stroke-linejoin="round" __comx="333.171" __comy="594.433" __timestamp="0x180d7c6f74a" d="M334.565 587.32 l0 -0.974 -0.507 -0.744 -0.697 -0.687 -0.57 -0.515 -0.824 -0.401 -1.141 -0.115 -1.331 0 -1.521 0.115 -1.648 0.916 -1.521 1.374 -1.521 1.833 -1.141 2.291 -0.824 2.692 -0.444 2.634 0 2.348 0.697 1.775 2.092 0.974 3.169 0.229 3.93 0 4.31 -0.744 4.12 -0.916 3.486 -0.687 2.789 -0.687" />
    <path class="write-stroke-pen" fill="none" stroke="#000000" stroke-width="1.6" stroke-linecap="round" stroke-linejoin="round" __comx="370.725" __comy="594.433" __timestamp="0x180d7c6fe1c" d="M372.658 584.686 l0 -0.172 0 0.573 -0.38 1.317 -0.57 2.062 -0.697 2.577 -0.697 2.863 -0.57 2.749 -0.444 2.692 -0.317 2.291 -0.127 1.718 -0.063 1.317 0 0.63 0 0.057 0.38 -0.916" />
    <path class="write-stroke-pen" fill="none" stroke="#000000" stroke-width="1.6" stroke-linecap="round" stroke-linejoin="round" __comx="380.295" __comy="594.433" __timestamp="0x180d7c6feda" d="M376.841 586.003 l0.19 0 0.063 0 0.254 0.63 0.634 1.432 0.824 2.004 0.951 2.405 1.077 2.634 0.887 2.348 0.824 2.119 0.697 1.603 0.38 0.974 0.127 0.573 0 0.172" />
    <path class="write-stroke-pen" fill="none" stroke="#000000" stroke-width="1.6" stroke-linecap="round" stroke-linejoin="round" __comx="378.267" __comy="594.433" __timestamp="0x180d7c6ff6c" d="M370.756 601.465 l-0.127 0 -0.063 -0.115 0 -0.229 0.57 -0.344 1.648 -0.687 2.408 -0.916 2.916 -1.088 2.916 -1.145 2.725 -1.088 2.218 -0.974" />
    <path class="write-stroke-pen" fill="none" stroke="#000000" stroke-width="1.6" stroke-linecap="round" stroke-linejoin="round" __comx="390.721" __comy="594.433" __timestamp="0x180d7c7003e" d="M391.038 582.166 l0 -0.401 0 -0.172 0 0.229 0 1.317 0 2.119 0 2.692 0 2.978 0 2.806 0 2.462 -0.254 2.233 -0.127 1.89 -0.127 1.603 -0.127 1.145" />
    <path class="write-stroke-pen" fill="none" stroke="#000000" stroke-width="1.6" stroke-linecap="round" stroke-linejoin="round" __comx="398.359" __comy="594.433" __timestamp="0x180d7c7070a" d="M398.707 595.853 l0 -0.115 0 -0.057 0 0.401 0 1.145 0 1.89 0 2.463 0 2.863 0 2.978 0 2.863 -0.19 2.577 -0.254 2.119 -0.253 1.432 0 0.859 0 0.172" />
    <path class="write-stroke-pen" fill="none" stroke="#000000" stroke-width="1.6" stroke-linecap="round" stroke-linejoin="round" __comx="400.039" __comy="594.433" __timestamp="0x180d7c707f4" d="M398.961 596.941 l0 -1.145 0 -0.859 0.063 -0.63 0.697 -0.515 0.697 -0.344 0.824 -0.115 0.951 0 0.887 0.515 0.951 1.26 0.507 1.661 0.127 1.775 0 1.718 -0.824 1.661 -1.331 1.546 -1.585 1.317 -1.711 0.916 -1.521 0.573 -1.268 0.057 -0.761 0 -0.254 -0.687" />
    <path class="write-stroke-pen" fill="none" stroke="#000000" stroke-width="1.6" stroke-linecap="round" stroke-linejoin="round" __comx="415.25" __comy="594.433" __timestamp="0x180d7c709d4" d="M411.257 582.51 l0.127 -0.515 0 -0.344 0 -0.115 0 0.916 0 1.26 -0.063 1.775 -0.063 2.004 -0.254 2.348 -0.254 2.577 -0.38 2.749 -0.38 2.462 -0.317 1.947 -0.127 1.374 -0.063 0.744 0 0.286 0.127 -0.573 0.57 -1.031 0.697 -1.26 0.634 -1.317 0.634 -1.088 0.697 -1.031 0.634 -0.859 0.634 -0.515 0.634 -0.573 0.57 -0.458 0.444 -0.344 0.444 -0.344 0.254 -0.172 0.254 0 0.127 0 0.127 0.63 0.063 1.203 0.063 1.661 0.127 1.718 0.127 1.546 0.127 1.26 0.254 0.744 0.317 0.458 0.38 0.057 0.634 0 0.634 0 0.634 -0.458 0.697 -0.573" />
    <path class="write-stroke-pen" fill="none" stroke="#000000" stroke-width="1.6" stroke-linecap="round" stroke-linejoin="round" __comx="428.972" __comy="594.433" __timestamp="0x180d7c70b5a" d="M432.3 595.109 l0 -0.401 0 -0.515 0 -0.458 0 -0.573 0 -0.515 0 -0.458 0 -0.401 -0.634 -0.229 -0.761 0 -1.077 0 -1.204 0.744 -1.268 1.031 -1.331 1.374 -1.331 1.489 -1.141 1.546 -0.887 1.432 -0.57 0.974 -0.254 0.63 0 0.344 0.063 0 0.951 0 1.331 -0.057 1.648 -0.63 1.711 -0.802 1.585 -0.744 1.394 -0.515 1.141 -0.229 0.824 -0.057 0.444 0 0.063 0 0 0.573 0 0.974 0 1.145 0 1.203 0.38 1.031 0.761 0.744 0.951 0.458 1.014 0.172" />
    <path class="write-stroke-pen" fill="none" stroke="#000000" stroke-width="1.6" stroke-linecap="round" stroke-linejoin="round" __comx="464.688" __comy="594.433" __timestamp="0x180d7c71278" d="M467.35 580.448 l0.127 -0.458 0.063 -0.515 0.127 -0.344 0.063 -0.229 0 -0.115 -0.063 0.687 -1.014 1.26 -1.648 1.775 -1.965 2.233 -1.901 2.863 -1.394 3.436 -0.761 3.665 -0.063 3.78 0 3.207 0.761 2.52 1.521 1.947 1.901 1.145 2.345 0.515 2.472 0 2.535 -0.229" />
    <path class="write-stroke-pen" fill="none" stroke="#000000" stroke-width="1.6" stroke-linecap="round" stroke-linejoin="round" __comx="497.519" __comy="594.433" __timestamp="0x180d7c714b2" d="M487.378 585.259 l-0.127 -0.344 0 -0.286 0 -0.229 0 -0.115 0 -0.057 -0.063 0 -0.063 0 -0.127 0.744 -0.063 1.489 0 2.062 0 2.233 0 2.062 0 1.603 0.063 1.145 0.38 0.687 0.57 0.229 0.761 0 1.014 -0.573 1.077 -1.26 1.141 -1.489 0.887 -1.489 0.761 -1.432 0.507 -1.088 0.317 -0.802 0.19 -0.401 0.063 -0.172 0.254 0 0.507 0.687 0.761 1.833 1.204 2.462 1.204 2.577 1.331 2.176 1.331 1.317 1.204 0.515 1.204 0 1.077 -0.172 1.141 -1.489 1.014 -2.062 0.824 -2.405 0.38 -2.405 0 -2.062 0 -1.833 -1.014 -1.833 -1.141 -1.661 -1.014 -1.374 -0.761 -0.63 -0.507 0 -0.254 0.115" />
    <path class="write-stroke-pen" fill="none" stroke="#000000" stroke-width="1.6" stroke-linecap="round" stroke-linejoin="round" __comx="515.615" __comy="594.433" __timestamp="0x180d7c71854" d="M515.837 595.28 l0 -0.515 0.063 -0.401 0.063 -0.401 0 -0.344 0.063 -0.229 0 -0.115 0 -0.057 0 0.458 -0.254 1.432 -0.127 1.775 -0.063 2.004 0 1.775 0 1.317 -0.127 0.974 -0.127 0.687 -0.127 0.344 0 -0.515 0 -1.031 0 -1.317" />
    <path class="write-stroke-pen" fill="none" stroke="#000000" stroke-width="1.6" stroke-linecap="round" stroke-linejoin="round" __comx="515.044" __comy="594.433" __timestamp="0x180d7c718fa" d="M513.682 588.523 l-0.19 -0.458 -0.063 -0.172 0 0.286 0 0.573 0.444 0.744 0.697 0.573 0.697 0.401 0.697 0.229 0.697 0.057" />
    <path class="write-stroke-pen" fill="none" stroke="#000000" stroke-width="1.6" stroke-linecap="round" stroke-linejoin="round" __comx="525.217" __comy="594.433" __timestamp="0x180d7c71a86" d="M520.21 591.1 l0.063 0 0.127 0 0.127 0.057 0.19 0.401 0.127 0.744 0.127 1.203 0 1.489 0 1.603 0 1.603 -0.19 1.317 -0.254 0.916 -0.127 0.63 -0.063 0.229 0 -0.115 0 -0.744 0.254 -1.031 0.57 -1.203 0.634 -1.088 0.634 -1.088 0.57 -0.916 0.444 -0.859 0.38 -0.744 0.444 -0.573 0.38 -0.286 0.507 -0.172 0.444 -0.057 0.507 0 0.444 0.057 0.444 0.687 0.317 1.088 0.127 1.26 0.063 1.317 0 1.203 0 0.916 0 0.573 0.127 0.286 0.254 0 0.507 0 0.824 -0.172 1.014 -0.458" />
    <path class="write-stroke-pen" fill="none" stroke="#000000" stroke-width="1.6" stroke-linecap="round" stroke-linejoin="round" __comx="540.207" __comy="594.433" __timestamp="0x180d7c71c99" d="M540.429 595.338 l0.19 -0.344 0 -0.515 0.127 -0.63 0.127 -0.687 0.127 -0.744 0.127 -0.744 0.063 -0.515 0 -0.458 0 -0.344 0 -0.286 -0.254 -0.172 -0.824 0 -1.141 0 -1.331 0.687 -1.458 1.203 -1.394 1.546 -1.268 1.718 -1.014 1.718 -0.697 1.317 -0.444 1.088 0 0.63 0 0.286 0.317 0 1.141 0 1.394 -0.802 1.711 -1.088 1.838 -1.317 1.711 -1.374 1.711 -1.546 1.585 -1.603 1.394 -1.775 1.268 -2.004 1.077 -2.233 0.824 -2.462 0.697 -2.634 0.38 -2.692 0.19 -2.577 0.19 -2.119 0.063 -1.432 0.063 -0.63 0.063 0 0.063 0.057 0 0.63 0 0.573 -0.063 0.744 -0.57 1.317 -0.57 1.89 -0.57 2.348 -0.634 2.692 -0.697 2.806 -0.761 3.207 -0.824 3.379 -0.697 3.379 -0.507 2.921 -0.317 2.233 -0.127 1.489 0 0.687 0 0.229 0.317 0 0.697 -0.687 0.824 -1.145 0.951 -1.546" />
    <path class="write-stroke-pen" fill="none" stroke="#000000" stroke-width="1.6" stroke-linecap="round" stroke-linejoin="round" __comx="553.39" __comy="594.433" __timestamp="0x180d7c71db8" d="M552.661 592.646 l0.127 0.172 0 0.172 0 0.172 -0.444 0.63 -0.507 1.031 -0.317 1.432 -0.063 1.317 0 1.031 0 0.515 0.317 0.115 0.697 0 0.761 -0.344 0.887 -0.916 0.824 -1.203 0.697 -1.317 0.507 -1.203 0.254 -1.203 0 -1.088 0 -0.859 -0.38 -0.63 -0.824 -0.344 -1.077 0 -1.141 0 -1.141 0 -0.824 0.286 -0.507 0.115 -0.127 0.057 0.19 0 1.014 0" />
    <path class="write-stroke-pen" fill="none" stroke="#000000" stroke-width="1.6" stroke-linecap="round" stroke-linejoin="round" __comx="572.627" __comy="594.433" __timestamp="0x180d7c71f64" d="M563.626 590.47 l0 0.057 0.063 1.031 0 1.661 0 1.89 0 1.947 0 1.661 0 1.088 0.127 0.573 0.38 0.172 0.57 0 0.697 -0.515 0.761 -1.031 0.951 -1.203 0.887 -1.203 0.887 -1.145 0.824 -0.859 0.697 -0.573 0.57 -0.344 0.444 0 0.38 0 0.38 0.401 0.38 0.802 0.57 0.859 0.697 0.859 0.824 0.573 0.887 0.344 0.951 0.115 1.014 0 0.887 0 0.887 0 0.761 -0.115 0.634 -0.401 0.444 -0.573 0.254 -0.744 0.19 -0.859 0 -1.031 0 -1.203 0 -1.203 -0.127 -1.26 -0.38 -1.317 -0.38 -1.317 -0.253 -1.432 -0.19 -0.916 0 -0.458 0 -0.057" />
    <path class="write-stroke-pen" fill="none" stroke="#000000" stroke-width="1.6" stroke-linecap="round" stroke-linejoin="round" __comx="590.152" __comy="594.433" __timestamp="0x180d7c720d4" d="M594.683 584.915 l0.38 0.115 0.254 0.115 0.254 0.172 0 0.057 -0.38 0.115 -1.077 0.172 -1.331 0.344 -1.458 0.515 -1.268 0.687 -1.014 0.744 -0.634 0.687 -0.317 0.515 0 0.458 0 0.344 0.57 0.344 0.887 0.458 1.014 0.344 1.141 0.515 1.077 0.63 1.077 0.687 0.887 0.802 0.634 0.916 0.127 0.916 0 0.916 -0.634 0.916 -1.394 0.859 -1.775 0.744 -2.028 0.573 -1.838 0.229 -1.585 0 -1.141 0 -0.38 -0.63" />
    <path class="write-stroke-pen" fill="none" stroke="#000000" stroke-width="1.6" stroke-linecap="round" stroke-linejoin="round" __comx="621.938" __comy="594.433" __timestamp="0x180d7c7287a" d="M622.635 581.937 l0 -0.286 0 -0.172 0 -0.057 0 0.115 0 1.031 0 1.775 0 2.233 0 2.806 -0.38 3.035 -0.317 2.978 -0.38 2.749 -0.253 2.119 -0.063 1.489 0 0.744 0.317 0 0.824 -1.317" />
    <path class="write-stroke-pen" fill="none" stroke="#000000" stroke-width="1.6" stroke-linecap="round" stroke-linejoin="round" __comx="634.899" __comy="594.433" __timestamp="0x180d7c72980" d="M626.247 584.514 l0.38 0 0.444 0 0.761 0.802 1.014 1.718 1.331 2.348 1.648 2.806 1.838 2.749 1.901 2.233 1.775 1.432 1.648 0.802 1.331 0.057 1.141 -0.057 0.887 -1.374 0.634 -2.004 0.444 -2.233 0.127 -2.405 0 -2.291 -0.317 -2.291 -1.014 -2.348 -1.204 -2.405 -1.014 -2.004 -0.761 -1.26 -0.19 -0.458 0.444 0.286" />
    <path class="write-stroke-pen" fill="none" stroke="#000000" stroke-width="1.6" stroke-linecap="round" stroke-linejoin="round" __comx="658.667" __comy="594.433" __timestamp="0x180d7c72a82" d="M652.234 582.682 l0.57 -0.229 1.268 -0.744 1.838 -0.859 2.092 -0.744 2.028 -0.63 1.838 -0.344 1.521 -0.172 1.014 -0.115 0.57 -0.057 0.127 0 -0.57 0 -1.204 0.229" />
    <path class="write-stroke-pen" fill="none" stroke="#000000" stroke-width="1.6" stroke-linecap="round" stroke-linejoin="round" __comx="659.586" __comy="594.433" __timestamp="0x180d7c72b41" d="M658.445 582.166 l0 0.057 0 0.057 0 0.172 0 0.458 0.19 0.916 0.063 1.432 0 2.004 0 2.692 0 3.207 0 3.436 0 3.207 0 2.52 0 1.718 0.38 0.974 0.507 0.286 0.57 0 0.57 -0.515" />
    <path class="write-stroke-pen" fill="none" stroke="#000000" stroke-width="1.6" stroke-linecap="round" stroke-linejoin="round" __comx="683.164" __comy="594.433" __timestamp="0x180d7c72c42" d="M678.474 570.77 l0.697 -0.515 0.57 -0.344 0.824 0 1.458 0.115 1.711 1.26 1.838 1.947 1.775 2.863 1.585 3.608 1.141 4.352 0.507 4.982 0 5.04 -1.394 4.81 -2.472 4.41 -3.042 3.608 -3.106 2.749 -2.599 1.833 -2.218 0.458" />
    <path class="write-stroke-pen" fill="none" stroke="#000000" stroke-width="1.6" stroke-linecap="round" stroke-linejoin="round" __comx="710.83" __comy="594.433" __timestamp="0x180d7c72de7" d="M710.165 599.003 l0.19 -0.172 0.19 0 0.253 0 0.317 0 0.253 0.057 0.127 0.057 0 0.057 0 0.057 0 0.057 0 0.057 0 0.057 0 0.057 -0.063 0.057 -0.19 0" />
  </g>
</svg>
