<svg class="write-page" color-interpolation="linearRGB" width="920px" height="393.658px" xmlns="http://www.w3.org/2000/svg" xmlns:xlink="http://www.w3.org/1999/xlink">
  <g class="write-content write-v3" xruling="0" yruling="0" marginLeft="0" papercolor="#FFFFFF" rulecolor="#9F0000FF">
    <g class="ruleline write-std-ruling write-scale-down" fill="none" stroke="#0000FF" stroke-opacity="0.624" stroke-width="1" shape-rendering="crispEdges" vector-effect="non-scaling-stroke">
      <rect class="pagerect" fill="#FFFFFF" stroke="none" x="0" y="0" width="920" height="393.658" />
    </g>
    <path class="write-flat-pen" fill="#000000" stroke-width="1.6" __comx="87.226" __comy="33.547" __timestamp="0x181e6165830" d="M93.509 15.068 l-0.467 0.595 -0.25 0.651 -0.443 0.98 -0.785 1.3 -1.026 1.532 -1.374 1.852 -1.555 1.969 -1.668 2.07 -1.727 1.968 -1.55 1.76 -1.203 1.24 -0.772 0.8 -0.166 0.156 0.705 0.046 -0.313 0 -0.662 0 -0.313 1.287 1.052 0.046 0.645 -0.469 0.85 -0.867 1.23 -1.262 1.578 -1.784 1.749 -1.992 1.692 -2.099 1.573 -1.992 1.407 -1.9 1.06 -1.595 0.837 -1.41 0.483 -1.105 0.213 -0.6 0.207 -0.618" />
    <path class="write-flat-pen" fill="#000000" stroke-width="1.6" __comx="88.535" __comy="33.547" __timestamp="0x181e6165a18" d="M80.286 15.647 l1.079 1.705 1.213 1.16 1.498 1.359 1.601 1.555 1.719 1.766 1.836 1.971 1.724 1.966 1.544 1.853 1.205 1.652 0.945 1.275 0.662 0.757 0.298 0.318 1.172 -0.46 -0.016 -0.335 -0.752 -0.903 -0.886 -0.857 -1.168 -1.146 -0.378 0.267 0.721 1.525 0.736 1.019 0.406 0.556 -0.016 -0.126 1.172 -0.46 -0.281 -0.307 -0.612 -0.702 -0.909 -1.227 -1.228 -1.683 -1.585 -1.899 -1.752 -1.994 -1.871 -1.989 -1.756 -1.778 -1.643 -1.571 -1.515 -1.351 -1.22 -1.133 -1.771 -0.97" />
    <path class="write-flat-pen" fill="#000000" stroke-width="1.6" __comx="89.257" __comy="33.547" __timestamp="0x181e6165b2e" d="M87.954 12.709 l-0.24 2.61 -0.004 1.8 0.115 2.221 0.232 2.523 0.291 2.515 0.35 2.62 0.353 2.18 0.257 2.075 0.282 1.627 0.173 1.642 0.867 0 0.173 -1.726 -0.181 -1.708 -0.206 -2.094 -0.342 -2.197 -0.345 -2.591 -0.288 -2.487 -0.231 -2.48 -0.117 -2.157 -0.004 -1.744 -0.095 -2.6" />
    <path class="write-flat-pen" fill="#000000" stroke-width="1.6" __comx="128.108" __comy="33.547" __timestamp="0x181e616608e" d="M136.956 17.887 l-2.31 -1.164 -0.884 -0.004 -0.985 -0.005 -1.344 -0.001 -1.517 0.567 -1.602 0.64 -1.648 0.845 -1.691 0.836 -1.555 0.857 -1.391 0.977 -1.052 0.889 -0.885 1.02 -0.619 0.989 -0.215 1.031 0.001 0.908 0 1.127 1.211 1.226 1.532 0.804 1.834 0.659 2.172 0.432 2.117 0.208 1.924 0.205 1.534 0.097 0.896 0.178 0.123 0.066 0.002 0.002 0 0.434 -0.639 0.609 -1.345 1.104 -1.522 1.011 -1.496 0.894 -1.314 0.49 -0.863 0.273 -0.585 0 0.301 0.002 -0.012 0.498 -0.061 -0.135 0.489 -0.664 -0.624 -0.694 -1.132 0.794 -0.061 0.699 -0.012 0.915 1.112 0.002 0.805 0 1.106 -0.353 1.466 -0.552 1.632 -0.982 1.607 -1.073 1.435 -1.189 1.099 -1.058 0 -1.025 0.002 -0.831 -1.036 -0.56 -1.189 -0.239 -1.595 -0.112 -1.9 -0.212 -2.054 -0.209 -1.999 -0.402 -1.642 -0.591 -1.248 -0.656 -0.643 -0.65 0 -0.54 0.001 -0.76 0.133 -0.637 0.424 -0.679 0.737 -0.856 0.917 -0.779 1.274 -0.899 1.457 -0.81 1.669 -0.831 1.596 -0.822 1.526 -0.611 1.264 -0.475 1.089 -0.001 0.985 -0.005 0.622 -0.004 2.241 0.627" />
    <path class="write-flat-pen" fill="#000000" stroke-width="1.6" __comx="138.087" __comy="33.547" __timestamp="0x181e61661d8" d="M137.169 30.511 l-0.427 2.188 0.349 1.717 0.277 1.936 0.169 2.371 0.171 2.492 0.115 2.598 0.116 2.391 0.057 2.172 0.001 1.678 0.059 1.042 0.004 0.606 0.015 0.104 1.337 0 -0.121 -0.823 -0.259 -1.683 -0.443 -0.018 -0.393 1.678 -0.121 0.845 1.337 0 0.015 -0.104 0.004 -0.644 -0.057 -1.042 0.001 -1.658 -0.058 -2.205 -0.116 -2.403 -0.117 -2.613 -0.176 -2.511 -0.179 -2.423 -0.302 -2.024 -0.346 -1.618 -0.427 -2.05" />
    <path class="write-flat-pen" fill="#000000" stroke-width="1.6" __comx="140.068" __comy="33.547" __timestamp="0x181e61662f1" d="M137.855 30.775 l3.973 -0.716 0.207 0.036 0.19 0.344 0.092 0.773 -0.004 1.106 -0.006 1.193 -0.662 1.27 -1.023 1.417 -1.097 1.545 -1.137 1.426 -0.925 1.033 -0.517 0.62 -0.277 0.299 1.194 0.599 -0.021 -0.155 0.992 -1.392 -0.795 -0.663 -1.408 1.487 -0.137 0.47 1.194 0.599 0.302 -0.326 0.526 -0.631 0.929 -1.051 1.18 -1.492 1.105 -1.582 1.063 -1.501 0.844 -1.649 -0.006 -1.517 -0.004 -1.187 -0.14 -1.103 -0.621 -1.116 -1.067 -0.173 -4.167 0.964" />
    <path class="write-flat-pen" fill="#000000" stroke-width="1.6" __comx="151.764" __comy="33.547" __timestamp="0x181e6166487" d="M146.614 35.568 l3.849 -0.554 1.105 -0.819 0.871 -0.783 0.61 -0.73 0.373 -0.806 0.074 -0.668 0.001 -0.559 0.002 -0.593 -0.412 -0.745 -0.783 -0.427 -0.865 -0.364 -0.887 -0.128 -0.917 -0.005 -0.918 -0.009 -1.004 0.131 -0.953 0.785 -0.847 0.93 -0.651 1.161 -0.506 1.351 -0.32 1.482 -0.003 1.537 -0.002 1.429 0.283 1.404 0.883 1.06 1.139 0.768 1.261 0.251 1.174 0 1.39 -0.003 1.485 -0.24 1.483 -0.684 1.519 -0.767 1.288 -0.777 1.443 -0.757 1.317 -1.107 -0.136 -0.249 -1.597 0.489 -1.569 0.494 -1.377 0.682 -1.494 0.693 -1.298 0.567 -1.179 0.177 -1.275 -0.003 -1.027 0 -0.824 -0.166 -0.715 -0.483 -0.507 -0.608 -0.18 -0.889 -0.002 -1.281 -0.003 -1.381 0.259 -1.227 0.421 -1.15 0.508 -0.924 0.66 -0.737 0.553 -0.466 0.502 -0.077 0.82 -0.009 0.821 -0.005 0.619 0.08 0.641 0.262 0.375 0.199 0.052 0.088 0.002 0.241 0.001 0.484 -0.042 0.375 -0.206 0.445 -0.433 0.52 -0.751 0.676 -0.864 0.64 -3.293 1.588" />
    <path class="write-flat-pen" fill="#000000" stroke-width="1.6" __comx="163.829" __comy="33.547" __timestamp="0x181e61665d4" d="M167.65 30.63 l-0.467 -3.612 -0.607 -0.447 -0.558 -0.179 -0.68 -0.007 -1.002 0.143 -1.056 1.139 -1.065 1.275 -1.068 1.382 -1.013 1.493 -0.905 1.507 -0.613 1.31 -0.494 1.326 -0.263 1.173 -0.002 1.021 0 1.058 0.605 0.933 1.118 0.803 1.246 0.249 1.349 0.107 1.363 -0.006 1.536 -0.01 1.449 -0.891 1.135 -1.133 0.999 -1.111 1.144 -1.474 -0.603 -0.57 -1.395 1.214 -1.087 0.973 -1.066 0.951 -0.984 0.568 -1.128 -0.01 -1.302 -0.006 -1.2 -0.102 -0.839 -0.168 -0.62 -0.447 -0.206 -0.318 0 -0.61 -0.002 -0.855 0.201 -0.911 0.433 -1.176 0.545 -1.191 0.833 -1.411 0.957 -1.425 1.017 -1.328 1.02 -1.226 0.682 -0.737 0.388 -0.066 0.363 -0.007 0.138 0.029 -0.028 -0.03 0.757 2.991" />
    <path class="write-flat-pen" fill="#000000" stroke-width="1.6" __comx="172.448" __comy="33.547" __timestamp="0x181e61666b7" d="M171.132 29.918 l-0.053 1.374 0.154 1.019 0.165 1.542 0.168 1.652 0.114 1.758 0.115 1.777 0.116 1.472 0.116 1.146 0.07 0.879 0.402 0.715 0.9 -0.012 0.271 -0.574 0.148 -1.198 -0.319 -1.533 -0.207 -0.018 -0.569 1.383 -0.316 0.886 0.156 -0.366 0.784 -0.012 0.17 0.298 -0.046 -0.58 -0.116 -1.146 -0.115 -1.446 -0.117 -1.767 -0.118 -1.786 -0.18 -1.683 -0.183 -1.584 -0.193 -1.065 -0.544 -1.276" />
    <path class="write-flat-pen" fill="#000000" stroke-width="1.6" __comx="170.96" __comy="33.547" __timestamp="0x181e616675a" d="M167.728 26.319 l3.874 -0.099 0.84 0.127 1.3 0.669 0.516 -0.764 -1.318 -1.097 -1.245 -0.29 -4.032 0.383" />
    <path class="write-flat-pen" fill="#000000" stroke-width="1.6" __comx="184.1" __comy="33.547" __timestamp="0x181e6166959" d="M186.304 32.7 l-1.579 -3.175 -0.338 -0.457 -0.696 -0.359 -0.63 -0.003 -0.76 -0.007 -1.026 0.558 -0.925 1.056 -0.917 1.308 -0.785 1.403 -0.788 1.622 -0.554 1.645 -0.31 1.42 -0.187 1.328 -0.001 0.99 0 0.519 0.238 0.855 1.196 0 1.089 -0.142 1.227 -1.108 1.191 -1.189 1.232 -1.497 1.263 -1.572 1.042 -1.268 0.868 -1.166 0.626 -0.822 0.38 -0.455 0.01 -0.016 -0.756 0.013 -0.212 -0.367 0.09 0.709 0.167 1.159 0.232 1.377 0.299 1.406 0.433 1.337 0.516 1.044 0.578 0.776 0.753 0.495 0.624 -0.031 0.832 -0.103 0.663 -1.217 -0.349 -0.323 -0.819 0.383 -0.327 -0.103 -0.187 -0.031 -0.174 -0.13 -0.349 -0.475 -0.411 -0.832 -0.378 -1.165 -0.28 -1.303 -0.231 -1.333 -0.181 -1.134 -0.141 -0.959 -0.327 -0.575 -0.872 0.013 -0.337 0.609 -0.316 0.379 -0.648 0.845 -0.87 1.127 -1.044 1.234 -1.286 1.554 -1.201 1.421 -1.126 1.104 -0.858 0.768 -0.533 0.067 0.037 0 0.122 0.438 0 -0.315 -0.001 -0.886 0.161 -1.173 0.27 -1.289 0.489 -1.481 0.718 -1.505 0.721 -1.307 0.821 -1.194 0.697 -0.82 0.48 -0.276 0.399 -0.007 0.296 -0.003 0.115 0.058 0.126 0.169 2.289 2.661" />
    <path class="write-flat-pen" fill="#000000" stroke-width="1.6" __comx="193.723" __comy="33.547" __timestamp="0x181e6166a8c" d="M192.844 8.781 l-0.136 2.827 0.113 1.884 0.114 2.493 0.116 3.018 0.115 3.334 0.115 3.427 0 3.531 0.001 3.335 0.004 2.814 0.007 2.397 0.016 1.98 0.017 1.251 0.024 0.625 0.043 1.033 1.333 -0.131 0 -0.969 -0.1 -0.131 0.043 0.199 0.024 -0.625 0.017 -1.251 0.016 -1.98 0.007 -2.397 0.004 -2.814 0.001 -3.335 0 -3.556 -0.116 -3.452 -0.117 -3.337 -0.116 -3.027 -0.118 -2.51 -0.119 -1.868 -0.278 -2.79" />
    <path class="write-flat-pen" fill="#000000" stroke-width="1.6" __comx="212.194" __comy="33.547" __timestamp="0x181e6166ba2" d="M204.283 35.928 l4.824 0.256 1.768 -0.212 1.816 -0.105 1.82 -0.317 1.665 -0.21 1.631 -0.233 1.357 -0.516 0.941 -0.912 -0.205 -0.426 -1.223 0.126 -1.192 0.318 -1.497 0.183 -1.695 0.207 -1.772 0.309 -1.776 0.104 -1.707 0.205 -4.724 0.017" />
    <path class="write-flat-pen" fill="#000000" stroke-width="1.6" __comx="232.829" __comy="33.547" __timestamp="0x181e6166ff3" d="M231.462 32.39 l-0.265 4.091 -0.01 1.673 -0.006 1.997 0.111 2.327 0.286 2.829 0.288 3.02 0.289 3.019 0.231 2.704 0.174 2.189 0.116 1.355 0.056 0.701 0.005 0.95 1.265 -0.011 0.233 -1.483 0.241 -2.166 -0.944 -0.164 -0.502 2.113 -0.115 0.393 1.149 -0.011 0.005 0.325 -0.06 -0.758 -0.116 -1.355 -0.174 -2.189 -0.232 -2.715 -0.29 -3.026 -0.291 -3.025 -0.293 -2.799 -0.12 -2.259 -0.006 -1.964 -0.01 -1.662 -0.135 -4.087" />
    <path class="write-flat-pen" fill="#000000" stroke-width="1.6" __comx="235.499" __comy="33.547" __timestamp="0x181e616711f" d="M232.417 32.052 l3.437 -0.773 0.908 0.001 0.764 0.001 0.341 0.051 0.185 0.333 0.046 0.776 -0.007 1.076 -0.209 1.277 -0.911 1.434 -1.078 1.516 -1.255 1.424 -1.226 1.357 -0.847 1.013 -0.58 0.521 -0.205 0.246 1.198 0.434 -0.052 -0.002 0.473 -0.848 0.824 -1.689 -0.281 -0.204 -1.35 1.302 -0.917 1.028 -0.052 0.415 1.198 0.434 0.143 -0.171 0.579 -0.522 0.891 -1.071 1.207 -1.353 1.294 -1.494 1.123 -1.61 1.059 -1.693 0.255 -1.641 -0.007 -1.217 -0.07 -1.1 -0.626 -1.126 -1.049 -0.157 -0.858 0.001 -1.061 0.001 -3.551 0.953" />
    <path class="write-flat-pen" fill="#000000" stroke-width="1.6" __comx="248.034" __comy="33.547" __timestamp="0x181e61672c2" d="M242.655 30.828 l-1.149 4.44 -0.01 1.444 0.058 1.29 0.447 1.083 0.744 0.746 0.912 0.298 0.811 0 1.059 0 1.16 -0.657 1.007 -0.913 0.887 -0.982 0.834 -0.986 0.685 -1.031 0.425 -1.018 0.374 -1.023 0.128 -0.919 0.058 -0.625 0.063 -0.447 0.006 -0.254 0.01 -0.104 0.014 -0.104 -1.369 0 -0.033 0.625 -0.004 1.162 0.059 1.446 0.366 1.436 0.356 1.282 0.434 1.227 0.578 1.04 0.494 0.632 0.632 0.492 0.568 0.298 0.593 -0.087 0.72 -0.274 0 -0.629 -0.72 -0.274 -0.218 -0.087 -0.127 -0.119 -0.411 -0.342 -0.317 -0.411 -0.465 -0.836 -0.377 -1.066 -0.339 -1.22 -0.329 -1.274 -0.057 -1.264 -0.004 -1.131 -0.033 -0.625 -1.369 0 0.014 0.104 0.01 0.104 0.006 0.163 -0.053 0.387 -0.058 0.625 -0.104 0.749 -0.322 0.853 -0.386 0.858 -0.59 0.845 -0.788 0.89 -0.851 0.894 -0.847 0.754 -0.694 0.385 -0.679 0 -0.58 0 -0.363 -0.119 -0.299 -0.296 -0.248 -0.585 -0.058 -1.003 -0.01 -1.266 0.66 -4.395" />
    <path class="write-flat-pen" fill="#000000" stroke-width="1.6" __comx="260.853" __comy="33.547" __timestamp="0x181e6167405" d="M255.563 29.592 l1.735 2.862 0.093 1.157 0.052 1.534 -0.002 1.446 -0.002 1.333 -0.054 0.861 -0.082 0.368 -0.069 0.118 1.318 0.342 0.011 -0.184 0.049 -0.68 0.466 -1.025 0.603 -1.288 0.874 -1.189 0.965 -1.241 0.994 -1.215 0.967 -0.902 0.892 -0.719 0.663 -0.462 1.107 -0.431 -0.161 -0.669 -1.3 0.147 -0.959 0.372 -1.078 0.74 -1.118 0.974 -1.091 1.287 -1.005 1.261 -0.98 1.313 -0.672 1.422 -0.577 1.268 -0.067 0.987 0.011 0.233 1.318 0.342 0.163 -0.299 0.149 -0.674 0.062 -1.015 -0.002 -1.376 -0.002 -1.472 -0.063 -1.593 -0.139 -1.553 -2.285 -2.925" />
    <path class="write-flat-pen" fill="#000000" stroke-width="1.6" __comx="271.048" __comy="33.547" __timestamp="0x181e616754f" d="M270.138 31.653 l-0.222 4.938 -0.007 2.293 -0.004 2.421 0.171 2.518 0.111 2.493 0.115 2.607 0.115 2.277 0 2.079 0.058 1.668 0 1.062 0.069 0.719 0.223 0.769 1.193 -0.022 0.057 -1.317 0.173 -1.677 -0.122 -2.477 -0.258 -0.026 -0.612 2.367 -0.406 1.658 -0.059 0.143 1.078 -0.022 0.107 0.352 -0.047 -0.531 0 -1.022 -0.058 -1.668 0 -2.09 -0.117 -2.308 -0.116 -2.604 -0.121 -2.51 -0.177 -2.485 -0.004 -2.373 -0.007 -2.293 -0.222 -4.938" />
    <path class="write-flat-pen" fill="#000000" stroke-width="1.6" __comx="271.745" __comy="33.547" __timestamp="0x181e6167664" d="M270.344 31.5 l3.828 -1.881 0.338 0 -0.067 -0.016 0.084 0.48 -0.012 1.169 -0.122 1.529 -0.762 1.727 -1.146 1.939 -1.156 1.963 -1.198 1.839 -1.074 1.418 -0.792 0.916 -0.247 0.28 0.261 0.007 0.614 1.043 -0.016 -0.2 0.942 -1.309 -0.577 -0.534 -1.33 1.144 -0.248 0.217 0.614 1.043 0.376 0.007 0.679 -0.762 0.83 -0.96 1.127 -1.5 1.235 -1.913 1.161 -1.998 1.171 -2.021 0.86 -2.025 0.11 -1.806 -0.012 -1.333 -0.264 -1.396 -0.878 -0.224 -0.821 0 -3.956 2.321" />
    <path class="write-flat-pen" fill="#000000" stroke-width="1.6" __comx="282.24" __comy="33.547" __timestamp="0x181e616778e" d="M278.522 34.11 l0.233 3.358 0.266 0.992 0.533 0.811 0.863 0.347 0.837 0 1.065 -0.001 1.166 -0.928 0.916 -1.014 0.824 -1.118 0.653 -1.135 0.362 -0.959 0.116 -0.849 0 -0.827 -0.703 -0.647 -1.213 -0.036 -1.274 -0.03 -1.477 -0.024 -1.319 0.318 -1.094 0.317 -0.798 0.328 -0.332 0.15 -0.02 0.005 0 1.427 0.713 -0.058 0 -1.311 -0.713 -0.058 0 1.427 0.328 0.005 0.594 -0.267 0.708 -0.298 0.991 -0.308 1.114 -0.308 1.304 -0.024 1.274 -0.03 0.757 -0.036 -0.008 -0.022 0 0.215 -0.116 0.61 -0.333 0.709 -0.621 0.95 -0.798 0.966 -0.822 0.862 -0.687 0.531 -0.557 -0.001 -0.554 0 -0.18 -0.07 -0.162 -0.232 -0.198 -0.675 -0.712 -3.196" />
    <path class="write-flat-pen" fill="#000000" stroke-width="1.6" __comx="295.68" __comy="33.547" __timestamp="0x181e6167941" d="M299.355 28.338 l0.642 -1.543 -1.486 -0.009 -1.07 0.358 -1.268 0.543 -1.268 0.652 -1.206 0.758 -0.933 0.668 -0.783 0.757 -0.58 0.519 -0.257 0.615 -0.156 0.56 0 0.564 0.322 0.769 1.048 0.672 1.192 0.561 1.412 0.435 1.396 0.308 1.329 0.394 0.854 0.358 0.382 0.309 0.088 0.31 0 0.592 -0.218 0.522 -0.896 0.674 -1.359 0.681 -1.564 0.599 -1.328 0.395 -1.054 0.199 -0.569 0.093 -0.346 0.004 0.658 0.012 -0.058 0.661 0.286 -0.46 1.253 -1.182 -0.327 -0.476 -1.657 0.812 -0.872 0.791 -0.058 1.286 0.774 0.012 0.465 0.004 0.705 -0.115 1.147 -0.218 1.453 -0.438 1.68 -0.652 1.538 -0.778 1.306 -0.994 0.478 -1.146 0 -1.076 -0.259 -0.94 -0.893 -0.733 -1.116 -0.475 -1.452 -0.439 -1.385 -0.318 -1.253 -0.398 -1.009 -0.481 -0.574 -0.371 -0.025 -0.064 0 -0.061 0.076 -0.274 0.09 -0.219 0.347 -0.315 0.723 -0.702 0.805 -0.582 1.111 -0.702 1.165 -0.599 1.166 -0.5 0.784 -0.267 -0.211 -0.009 0.642 0.087" />
    <path class="write-flat-pen" fill="#000000" stroke-width="1.6" __comx="309.554" __comy="33.547" __timestamp="0x181e6167ac2" d="M302.846 36.395 l3.591 -1.495 1.152 -0.647 1.131 -0.855 1.166 -0.839 1.088 -0.87 0.949 -0.962 0.806 -0.782 0.541 -0.855 0.334 -0.842 0.143 -0.649 -0.001 -0.597 -0.001 -0.313 -0.003 -0.998 -1.207 0 -0.695 -0.004 -0.905 -0.002 -1.117 0.115 -1.155 0.454 -1.187 0.552 -1.067 0.775 -1.01 0.84 -1.035 0.864 -0.894 1.024 -0.683 1.105 -0.654 1.169 -0.209 1.234 -0.002 1.21 -0.001 1.384 1.149 1.035 1.501 0.704 1.786 0.459 2.067 -0.002 2.048 -0.006 2.082 -0.124 1.734 -0.565 1.373 -0.367 1.529 -0.602 -0.302 -1.006 -1.563 0.325 -1.408 0.259 -1.626 0.477 -1.858 0.084 -2.008 -0.006 -1.873 -0.002 -1.458 -0.375 -1.164 -0.546 -0.473 -0.424 -0.001 -0.701 -0.002 -1.083 0.139 -0.851 0.504 -0.916 0.592 -0.979 0.728 -0.852 0.934 -0.804 0.96 -0.827 0.903 -0.684 1.014 -0.49 0.931 -0.38 0.853 -0.094 0.832 -0.002 0.695 -0.004 -0.164 0 -0.003 -0.373 -0.001 0.313 -0.001 0.445 -0.089 0.393 -0.246 0.617 -0.386 0.604 -0.7 0.677 -0.904 0.914 -0.997 0.797 -1.151 0.828 -1.07 0.812 -1.05 0.604 -3.227 2.14" />
    <path class="write-flat-pen" fill="#000000" stroke-width="1.6" __comx="354.913" __comy="34.311" __timestamp="0x181e61684c8" d="M362.726 21.271 l-1.118 -2.888 -1.511 -0.002 -1.432 -0.002 -1.859 0.222 -1.814 0.65 -1.799 0.644 -1.672 0.963 -1.338 0.731 -1.255 0.751 -0.925 0.665 -0.613 0.55 -0.291 0.698 0 0.746 0.46 0.827 1.233 0.863 1.46 0.657 1.776 0.746 2.003 0.636 2.022 0.621 1.82 0.607 1.329 0.57 0.65 0.543 0.241 0.646 0.001 0.781 -0.364 0.902 -1.013 1.092 -1.35 0.874 -1.531 0.815 -1.395 0.7 -1.228 0.399 -0.881 0.296 -0.586 0.105 -0.814 0.293 0.015 1.206 1.404 0.121 1.433 -0.12 1.936 -0.36 0 -0.281 -1.936 -0.36 -1.348 -0.12 -0.103 -0.088 0.015 0.998 -0.235 0.084 0.572 -0.103 0.973 -0.329 1.321 -0.435 1.502 -0.759 1.597 -0.853 1.546 -1.002 1.304 -1.41 0.562 -1.391 0.001 -1.303 -0.455 -1.23 -1.088 -0.916 -1.568 -0.681 -1.888 -0.644 -2.033 -0.63 -1.936 -0.615 -1.7 -0.714 -1.321 -0.594 -0.852 -0.596 -0.119 -0.215 0 -0.088 0.057 -0.136 0.314 -0.283 0.813 -0.586 1.178 -0.708 1.326 -0.729 1.573 -0.913 1.677 -0.607 1.662 -0.6 1.617 -0.195 1.348 -0.002 0.69 -0.002 1.464 1.756" />
    <path class="write-flat-pen" fill="#000000" stroke-width="1.6" __comx="372.511" __comy="34.311" __timestamp="0x181e61686ae" d="M366.018 34.681 l0.27 3.944 0.895 0.405 0.666 0.133 0.764 -0.002 0.897 -0.019 0.853 -0.838 0.687 -0.729 0.519 -0.952 0.473 -0.891 0.525 -0.63 0.478 -0.726 0.451 -0.458 0.417 -0.368 0.134 -0.056 -0.104 0.051 -0.068 0.027 -0.254 -0.201 0.06 0.572 0.042 1.101 -0.008 1.442 -0.005 1.876 -0.004 2.293 -0.002 2.501 -0.002 2.598 -0.058 2.668 -0.285 2.354 -0.279 1.907 -0.428 1.252 -0.288 0.59 -0.223 0.12 -0.575 0 -0.638 0.004 -0.763 -0.552 -0.854 -0.841 -0.701 -1.052 -0.398 -0.805 -0.095 -0.682 0.007 -0.686 0.214 -0.68 0.918 -0.916 1.295 -1.215 1.544 -1.131 1.672 -1.352 1.763 -1.281 1.85 -1.588 1.623 -1.821 -0.235 -0.27 -2.007 1.332 -1.973 1.33 -1.829 1.22 -1.688 1.358 -1.585 1.162 -1.37 1.286 -1.168 1.169 -0.366 1.196 0.007 0.981 0.137 0.986 0.529 1.071 0.805 1.241 1 1.035 1.207 0.907 1.1 0.004 0.931 0 0.936 -0.505 0.523 -1.077 0.499 -1.458 0.3 -2.053 0.294 -2.441 0.058 -2.752 -0.002 -2.613 -0.002 -2.501 -0.004 -2.293 -0.005 -1.876 -0.008 -1.476 -0.074 -1.192 -0.172 -1.095 -0.486 -0.409 -0.415 0.027 -0.451 0.051 -0.329 0.569 -0.278 0.466 -0.36 0.584 -0.449 0.733 -0.517 0.621 -0.686 0.776 -0.64 0.715 -0.704 0.522 -0.537 0.413 -0.378 -0.019 -0.626 -0.002 -0.376 -0.075 -0.032 -0.012 -0.543 -3.118" />
    <path class="write-flat-pen" fill="#000000" stroke-width="1.6" __comx="381.233" __comy="34.311" __timestamp="0x181e616884a" d="M384.12 29.337 l-1.013 -0.436 -0.966 -0.009 -0.938 0.776 -0.978 0.724 -0.983 0.774 -0.791 0.875 -0.654 0.705 -0.373 0.798 -0.151 0.675 -0.001 0.496 0 0.765 1.156 0.567 1.057 0.119 1.083 0.107 1.253 -0.004 0.958 -0.006 0.698 0.163 0.252 0.134 0.049 0.146 0.001 0.467 -0.087 0.701 -0.642 0.821 -0.961 0.766 -0.989 0.69 -0.909 0.48 -0.648 0.25 -0.389 0 0.357 0.008 -0.053 0.496 -0.167 -1.318 -0.969 0 -0.167 1.318 -0.053 0.913 1.052 0.008 0.654 0 0.974 -0.376 1.061 -0.562 1.097 -0.769 1.125 -0.901 0.98 -1.264 0.145 -1.175 0.001 -0.784 -0.298 -0.896 -0.907 -0.492 -1.04 -0.254 -1.127 -0.006 -1.18 -0.004 -1.002 -0.102 -0.797 -0.09 -0.118 -0.058 0 0.139 -0.001 -0.337 0.08 -0.368 0.207 -0.453 0.504 -0.546 0.715 -0.792 0.871 -0.685 0.992 -0.736 0.568 -0.475 0.309 -0.009 0.966 -0.041" />
    <path class="write-flat-pen" fill="#000000" stroke-width="1.6" __comx="391.188" __comy="34.311" __timestamp="0x181e616892c" d="M385.831 34.146 l1.331 -0.451 1.451 -0.602 1.96 -0.622 1.941 -0.744 1.719 -0.731 1.29 -0.451 0.773 -0.456 0.25 -0.16 0.464 -0.116 0 -0.831 -0.598 -0.116 -0.561 0.049 -0.849 0.378 -1.259 0.383 -1.757 0.728 -1.883 0.715 -1.98 0.628 -1.561 0.649 -1.193 0.846" />
    <path class="write-flat-pen" fill="#000000" stroke-width="1.6" __comx="393.795" __comy="34.311" __timestamp="0x181e6168a16" d="M391.939 26.022 l-0.947 3.456 -0.309 1.713 -0.123 1.703 -0.123 1.692 -0.004 1.484 -0.003 1.251 0 0.913 0.2 0.899 0.956 0.574 0.952 -0.001 0.94 -0.001 1.091 -0.632 0.866 -0.565 0.713 -0.538 1.012 -0.446 -0.261 -0.872 -1.25 0.232 -0.909 0.504 -0.872 0.477 -0.763 0.41 -0.566 -0.001 -0.554 -0.001 -0.087 -0.052 -0.032 -0.143 0 -0.755 -0.003 -1.251 -0.004 -1.435 0.109 -1.643 0.109 -1.632 0.27 -1.622 0.524 -3.52" />
    <path class="write-flat-pen" fill="#000000" stroke-width="1.6" __comx="403.872" __comy="34.311" __timestamp="0x181e6168b85" d="M398.679 37.732 l3.06 -2.631 1.054 -0.898 1.194 -0.818 1.186 -0.854 1.024 -0.867 0.704 -0.691 0.499 -0.747 0 -0.619 0.001 -0.587 -0.612 -0.368 -0.876 -0.133 -0.977 0 -1.055 0 -1.124 0.238 -1.076 0.483 -0.822 0.682 -0.722 0.586 -0.552 0.851 -0.408 0.826 -0.274 1.049 -0.135 1.128 -0.005 1.186 -0.003 1.042 -0.002 1.047 0.67 1.055 0.935 0.561 1.004 0.258 1.135 0 1.309 -0.004 1.425 -0.379 1.338 -0.945 1.095 -0.999 0.912 -0.93 1.001 -1.206 -0.396 -0.44 -1.293 0.857 -1.057 0.738 -1.106 0.877 -1.095 0.723 -1.008 0.247 -1.124 -0.004 -0.95 0 -0.618 -0.159 -0.456 -0.273 -0.257 -0.404 -0.002 -0.621 -0.003 -1.042 -0.005 -1.106 0.097 -0.957 0.19 -0.827 0.287 -0.634 0.375 -0.608 0.553 -0.457 0.684 -0.569 0.778 -0.35 0.846 -0.179 0.915 0 0.877 0 0.515 0.076 -0.265 -0.16 0.001 -0.171 0 0.214 -0.196 0.295 -0.57 0.56 -0.946 0.801 -1.131 0.813 -1.239 0.849 -1.147 0.978 -2.67 3.097" />
    <path class="write-flat-pen" fill="#000000" stroke-width="1.6" __comx="419.252" __comy="34.311" __timestamp="0x181e6168e13" d="M411.067 28.836 l-0.411 2.734 -0.01 1.269 -0.006 1.459 -0.003 1.459 -0.002 1.355 -0.002 1.047 -0.218 0.785 -0.046 0.33 0.008 -0.015 1.373 0.356 0 -0.313 -0.011 -0.938 -0.019 -1.111 0.092 -0.969 0.546 -1.001 0.656 -1.015 0.668 -0.921 0.727 -0.907 0.658 -0.691 0.676 -0.608 0.521 -0.468 0.524 -0.282 0.453 -0.268 0.327 -0.078 0.267 -0.075 0.133 0.005 -0.452 0.005 -0.006 0.006 -0.016 0.979 -0.008 1.251 -0.005 1.426 -0.112 1.172 -0.217 0.955 -0.269 0.764 -0.256 0.572 -0.053 0.28 -0.057 0.103 1.378 0.357 -0.011 -0.104 -0.014 -0.529 0.179 -0.695 0.416 -0.956 0.546 -0.906 0.633 -1.062 0.62 -1.144 0.731 -1.133 0.737 -1.14 0.723 -1.021 0.684 -0.845 0.512 -0.725 0.438 -0.493 0.335 -0.36 -0.018 0.038 -0.237 0.011 -0.072 0.029 -0.055 -0.031 0.321 0.712 0.485 1.206 0.392 1.327 0.455 1.441 0.342 1.44 0.348 1.36 0.278 1.099 0.111 0.98 0.065 0.795 0.045 0.914 0.13 1.348 1.029 0 0.13 -1.348 0.045 -0.962 -0.051 -0.873 -0.121 -1.104 -0.302 -1.194 -0.347 -1.35 -0.353 -1.478 -0.472 -1.477 -0.419 -1.383 -0.558 -1.296 -0.49 -0.956 -0.518 -0.448 -0.419 0.029 -0.468 0.011 -0.25 0.455 -0.244 0.265 -0.489 0.549 -0.53 0.735 -0.707 0.823 -0.783 1.064 -0.769 1.153 -0.776 1.16 -0.654 1.149 -0.641 1.022 -0.613 0.97 -0.511 1.128 -0.285 0.973 -0.014 0.722 -0.011 0.104 1.378 0.357 0.174 -0.314 0.063 -0.346 0.208 -0.471 0.31 -0.904 0.246 -1.129 0.119 -1.33 -0.005 -1.492 -0.008 -1.251 -0.016 -1.106 -0.238 -1.245 -0.684 0.005 -0.33 0.005 -0.428 0.134 -0.484 0.131 -0.59 0.357 -0.635 0.343 -0.637 0.574 -0.714 0.642 -0.732 0.768 -0.779 0.969 -0.722 0.955 -0.735 1.069 -0.728 1.292 -0.14 1.324 -0.019 1.182 -0.011 0.938 0 0.313 1.373 0.356 0.124 -0.224 0.07 -0.504 0.245 -0.883 -0.002 -1.246 -0.002 -1.355 -0.003 -1.459 -0.006 -1.459 -0.01 -1.233 -0.135 -2.726" />
    <path class="write-flat-pen" fill="#000000" stroke-width="1.6" __comx="435.027" __comy="28.609" __timestamp="0x181e6169ad8" d="M438.205 27.15 l0.846 0.089 -0.168 -1.329 -0.306 -0.036 -0.949 0.359 -1.235 0.527 -1.411 0.634 -1.48 0.745 -1.291 0.737 -1.118 0.633 -0.837 0.533 -0.556 0.374 -0.41 0.49 0 0.54 0.151 0.808 1.402 0.445 1.327 0.416 1.588 0.529 1.763 0.422 1.574 0.404 1.275 0.496 0.738 0.332 0.21 0.28 0 0.387 0 0.485 -0.419 0.547 -1.055 0.722 -1.494 0.597 -1.459 0.606 -1.188 0.292 -0.831 0.137 -0.936 0.737 0.772 1.073 0.716 -0.452 0.559 -0.071 1.361 -0.333 1.553 -0.645 1.634 -0.654 1.378 -0.945 0.856 -1.12 0 -0.974 0 -0.864 -0.717 -0.97 -1.116 -0.502 -1.39 -0.546 -1.67 -0.43 -1.713 -0.412 -1.541 -0.513 -1.337 -0.418 -0.567 -0.18 0.035 0.182 0 0.123 -0.062 0.073 0.37 -0.251 0.785 -0.51 1.084 -0.618 1.258 -0.722 1.417 -0.714 1.37 -0.617 1.198 -0.515 0.673 -0.266 0.042 -0.036 -0.168 -1.329 -0.698 0.486" />
    <path class="write-flat-pen" fill="#000000" stroke-width="1.6" __comx="173.726" __comy="107.864" __timestamp="0x181e61710f6" d="M179.884 98.65 l0.625 -1.138 -1.366 -0.186 -0.05 0.192 -0.291 0.848 -0.818 1.368 -1.257 1.847 -1.499 2.071 -1.618 2.181 -1.738 2.293 -1.635 2.206 -1.343 1.996 -1.041 1.562 -0.684 1.013 -0.233 0.662 0.002 0.072 1.311 0.509 -0.022 -1.199 -0.8 -0.19 -0.56 1.06 1.311 0.509 0.118 -0.136 0.231 -0.588 0.59 -0.863 1.044 -1.564 1.322 -1.965 1.609 -2.171 1.738 -2.293 1.626 -2.197 1.514 -2.098 1.292 -1.905 0.92 -1.55 0.404 -1.237 -0.05 -0.434 -1.366 -0.186 -0.052 1.297" />
    <path class="write-flat-pen" fill="#000000" stroke-width="1.6" __comx="176.86" __comy="107.864" __timestamp="0x181e61711e8" d="M169.629 101.602 l3.079 1.373 1.448 1.066 1.635 1.524 1.692 1.725 1.522 2.029 1.367 2.05 1.028 1.746 0.692 1.242 0.469 0.831 0.183 0.308 1.348 -0.349 -0.111 -0.338 -0.904 -1.348 -0.602 0.268 0.29 1.339 -0.111 0.079 1.348 -0.349 -0.165 -0.318 -0.458 -0.837 -0.698 -1.259 -1.058 -1.798 -1.413 -2.119 -1.606 -2.14 -1.784 -1.818 -1.725 -1.603 -1.68 -1.227 -3.392 -1.104" />
    <path class="write-flat-pen" fill="#000000" stroke-width="1.6" __comx="175.96" __comy="107.864" __timestamp="0x181e61712c6" d="M176.031 94.998 l-0.649 3.246 -0.004 2.209 -0.002 2.501 -0.001 2.494 -0.057 2.685 -0.17 2.405 0.021 2.318 0.091 1.772 0.327 1.61 0.51 0 0.327 -1.61 0.091 -1.772 0.021 -2.268 0.177 -2.39 0.058 -2.735 -0.001 -2.509 -0.002 -2.501 -0.004 -2.169 -0.275 -3.259" />
    <path class="write-flat-pen" fill="#000000" stroke-width="1.6" __comx="208.301" __comy="111.479" __timestamp="0x181e6171ddb" d="M207.736 102.541 l0.626 -2.341 -0.485 0.011 -0.17 0.01 0.052 0.197 0.204 1.177 0.159 1.81 -0.004 2.154 -0.002 2.501 -0.001 2.606 0 2.501 0 2.189 0 1.668 0 1.042 0.001 0.417 1.491 0 -0.015 -0.313 -0.033 -1.355 -0.083 -1.868 -0.112 -2.619 -0.866 -0.023 -0.251 2.625 -0.083 1.884 -0.033 1.355 -0.015 0.313 1.491 0 0.001 -0.417 0 -1.042 0 -1.668 0 -2.189 0 -2.501 -0.001 -2.606 -0.002 -2.501 -0.004 -2.223 -0.188 -1.942 -0.259 -1.325 -0.412 -1.263 -0.865 0.01 -0.716 0.011 -0.168 3.614" />
    <path class="write-flat-pen" fill="#000000" stroke-width="1.6" __comx="215.514" __comy="111.479" __timestamp="0x181e6171f66" d="M210.301 102.665 l3.824 -1.555 1.112 -0.394 1.252 -0.404 1.03 -0.292 0.827 -0.092 0.597 0.001 -0.497 0.001 -0.002 0.05 -0.144 0.914 -0.857 1.176 -1.275 1.396 -1.409 1.217 -1.389 1.145 -1.202 1.03 -0.935 0.693 -0.664 0.398 -0.172 0.103 0.088 0 0 1.477 0.258 0.001 0.633 0.264 0.817 0.295 0.928 0.558 0.914 0.776 1 1.002 0.94 1.097 0.854 1.233 0.875 1.156 0.728 0.982 0.644 0.632 0.382 0.491 0.264 0.316 0.285 0.166 1.038 -0.278 -0.002 -0.242 0.048 -1.081 -0.86 -0.191 -0.375 0.821 -0.118 -0.033 1.038 -0.278 -0.062 -0.043 -0.084 -0.101 -0.429 -0.551 -0.631 -0.619 -0.662 -0.894 -0.863 -1.136 -0.884 -1.268 -1.03 -1.196 -1.086 -1.083 -1.055 -0.892 -1.157 -0.693 -0.921 -0.33 -0.873 -0.361 -0.553 0.001 0 1.477 0.32 0 0.523 -0.314 0.726 -0.435 1.035 -0.767 1.231 -1.055 1.391 -1.148 1.488 -1.285 1.39 -1.522 1.113 -1.534 0.203 -1.379 -0.002 -1.618 -0.96 0.001 -0.678 0.001 -1.027 0.116 -1.172 0.334 -1.296 0.429 -1.205 0.44 -3.625 2.142" />
    <path class="write-flat-pen" fill="#000000" stroke-width="1.6" __comx="227.846" __comy="111.479" __timestamp="0x181e61720ee" d="M222.775 115.464 l4.313 -3.204 1.417 -1.169 1.131 -1.072 0.815 -0.858 0.258 -0.779 -0.002 -0.842 -0.628 -0.565 -1.13 -0.133 -1.026 0 -0.985 -0.003 -1.126 -0.001 -1.078 0.256 -0.913 0.627 -0.729 0.707 -0.586 0.81 -0.51 0.901 -0.388 0.91 -0.254 0.9 -0.198 0.932 -0.003 1.015 -0.003 1.04 0.321 1.158 1.029 0.855 1.285 0.487 1.351 0.231 1.396 -0.002 1.665 -0.006 1.621 -0.466 1.522 -0.558 1.432 -0.591 1.771 -0.835 -0.325 -0.867 -1.876 0.532 -1.464 0.451 -1.49 0.484 -1.392 0.367 -1.463 -0.006 -1.269 -0.002 -1.083 -0.185 -0.916 -0.347 -0.477 -0.395 -0.142 -0.51 -0.003 -0.836 -0.003 -0.861 0.15 -0.736 0.21 -0.767 0.307 -0.757 0.417 -0.766 0.456 -0.649 0.545 -0.544 0.593 -0.415 0.66 -0.16 0.96 -0.001 0.985 -0.003 0.943 0 0.608 0.075 -0.165 -0.148 -0.002 -0.009 -0.09 0.263 -0.576 0.601 -1.07 1.013 -1.363 1.124 -4.162 3.364" />
    <path class="write-flat-pen" fill="#000000" stroke-width="1.6" __comx="236.085" __comy="111.479" __timestamp="0x181e6172289" d="M239.134 110.842 l-0.432 -2.116 -0.316 -0.207 -0.357 -0.268 -0.559 -0.176 -0.626 -0.006 -0.78 -0.004 -0.968 0.579 -0.911 1.052 -0.819 1.155 -0.931 1.147 -0.891 1.277 -0.709 1.057 -0.636 1.026 -0.264 0.829 -0.147 0.527 0 0.502 0.363 0.653 1.29 -0.001 1.147 -0.519 1.174 -0.895 1.168 -0.96 1.072 -0.933 0.989 -0.706 0.82 -0.498 0.637 -0.313 0.209 -0.125 -0.017 0.002 0.024 0.005 -0.224 -0.093 0.092 0.437 0.354 0.974 0.282 0.818 0.251 0.789 0.325 0.585 0.269 0.481 0.514 0.297 0.606 -0.032 0.506 -0.278 0.745 -1.151 -0.52 -0.481 -0.895 0.62 -0.073 -0.07 0.026 -0.032 0.166 0.089 -0.078 -0.145 -0.254 -0.458 -0.213 -0.67 -0.297 -0.849 -0.341 -0.902 -0.255 -1.022 -0.687 -0.301 -0.323 0.005 -0.365 0.002 -0.487 0.292 -0.637 0.313 -0.918 0.544 -1.097 0.754 -1.129 0.943 -1.149 0.917 -1.027 0.772 -0.707 0.315 -0.1 -0.001 0.247 0.445 0 0.085 0.085 -0.307 0.199 -0.63 0.523 -0.85 0.682 -1.027 0.847 -1.225 0.923 -1.146 0.803 -1.138 0.711 -0.824 0.423 -0.255 0.379 -0.004 0.417 -0.006 0.136 0.032 0.223 0.149 0.031 0.001 1.208 1.289" />
    <path class="write-flat-pen" fill="#000000" stroke-width="1.6" __comx="246.667" __comy="111.479" __timestamp="0x181e6172399" d="M245.69 93.789 l-0.085 0.822 0.109 1.32 0.172 1.973 0.172 2.587 0.115 3.004 0.059 3.425 0.005 3.537 0.012 3.335 0.02 2.814 0.034 2.189 0.072 1.668 0.189 1.356 0.836 0 0.189 -1.356 0.072 -1.668 0.034 -2.189 0.02 -2.814 0.012 -3.335 0.005 -3.55 -0.057 -3.454 -0.117 -3.041 -0.175 -2.624 -0.176 -1.987 -0.123 -1.39 -0.387 -0.809" />
    <path class="write-flat-pen" fill="#000000" stroke-width="1.6" __comx="261.749" __comy="111.479" __timestamp="0x181e61724fa" d="M255.21 116.145 l3.461 -1.423 1.941 -0.599 1.971 -0.406 2.008 -0.306 1.913 -0.019 2.287 -0.08 0 -1.33 -2.287 -0.08 -2.027 -0.019 -2.163 0.319 -2.084 0.428 -2.114 0.652 -3.407 1.789" />
    <path class="write-flat-pen" fill="#000000" stroke-width="1.6" __comx="285.565" __comy="111.479" __timestamp="0x181e6172c69" d="M278.203 103.172 l4.837 -1.967 2.462 -1.262 2.189 -1.242 2.006 -0.928 1.494 -0.727 0.935 -0.411 0.495 -0.202 0.125 -0.073 -0.582 -0.737 0.191 1.002 0.351 0.084 0.622 -0.808 -0.582 -0.737 -0.339 -0.073 -0.779 0.215 -1.035 0.423 -1.518 0.732 -2.049 0.948 -2.214 1.26 -2.405 1.24 -4.606 2.395" />
    <path class="write-flat-pen" fill="#000000" stroke-width="1.6" __comx="288.218" __comy="111.479" __timestamp="0x181e6172d4b" d="M286.731 100.997 l0.014 1.456 0.146 1.086 0.044 1.615 -0.004 2.176 -0.002 2.397 0 2.588 -0.115 2.375 -0.117 1.893 0 1.481 0.001 0.73 0.008 0.417 1.143 0.562 0.404 -0.408 0.722 -0.952 0.764 -1.417 -0.323 -0.269 -1.243 0.99 -0.784 0.715 -0.408 0.217 1.143 0.562 0.008 -0.417 0.001 -0.73 0 -1.437 0.115 -1.859 0.116 -2.419 0 -2.623 -0.002 -2.397 -0.004 -2.201 -0.071 -1.72 -0.201 -1.207 -0.614 -1.371" />
    <path class="write-flat-pen" fill="#000000" stroke-width="1.6" __comx="296.288" __comy="111.479" __timestamp="0x181e6172e17" d="M295.538 110.336 l0.11 4.11 -0.005 1.223 -0.004 0.938 -0.002 0.73 0 0.313 0.004 0.208 0.981 -0.634 -0.087 0.128 -0.547 -0.474 -0.365 0.135 0.052 1.142 0.377 0.336 0.981 -0.634 0.004 -0.208 0 -0.313 -0.002 -0.73 -0.004 -0.938 -0.005 -1.278 -0.544 -4.13" />
    <path class="write-flat-pen" fill="#000000" stroke-width="1.6" __comx="295.936" __comy="111.479" __timestamp="0x181e6172ec8" d="M294.185 103.488 l-0.019 2.812 0.62 0.988 0.637 0.875 0.756 0.685 0.878 0.916 0.65 -0.465 -0.63 -1.194 -0.635 -0.774 -0.522 -0.792 -0.423 -0.68 -0.436 -2.442" />
    <path class="write-flat-pen" fill="#000000" stroke-width="1.6" __comx="309.762" __comy="111.479" __timestamp="0x181e6173137" d="M301.104 110.786 l-0.004 1.529 0.041 1.092 0.053 1.442 -0.003 1.341 -0.002 1.042 -0.001 0.834 0 0.521 0 0.208 0.003 0.104 1.372 0.246 0.194 -0.634 0.387 -1.035 0.504 -1.249 0.504 -1.245 0.561 -1.248 0.494 -1.121 0.603 -1 0.551 -0.793 0.601 -0.688 0.572 -0.56 0.463 -0.273 0.383 -0.22 0.181 0.015 -0.081 0.013 -0.016 0.018 0.122 0.689 0.041 1.182 -0.01 1.339 -0.006 1.355 -0.005 1.335 -0.055 0.977 -0.173 0.918 -0.065 0.586 0 0.352 1.423 0 -0.007 -0.392 0.044 -0.695 0.466 -1.119 0.676 -1.333 0.679 -1.35 0.711 -1.311 0.826 -1.115 0.749 -0.983 0.749 -0.588 0.569 -0.467 0.32 -0.128 0.343 0.003 0.015 0.006 0.002 0.023 0.076 0.668 0.098 1.221 0.047 1.22 -0.005 1.547 -0.003 1.668 -0.002 1.772 0 1.668 0 1.459 0 0.834 0.003 0.521 0.007 0.898 1.24 -0.018 0.34 -1.2 0.346 -1.172 0.402 -1.999 -0.74 -0.219 -0.744 1.867 -0.465 1.121 -0.124 0.259 1.124 -0.018 0.007 0.481 0.003 -0.521 0 -0.834 0 -1.459 0 -1.668 -0.002 -1.772 -0.003 -1.668 -0.005 -1.579 -0.069 -1.282 -0.133 -1.28 -0.156 -1 -0.577 -0.811 -0.68 0.006 -0.584 0.003 -0.723 0.289 -0.706 0.575 -0.873 0.663 -0.873 1.102 -0.912 1.178 -0.795 1.398 -0.711 1.359 -0.714 1.376 -0.577 1.382 -0.072 0.973 -0.007 0.441 1.423 0 0 -0.273 0.051 -0.456 0.174 -0.958 0.061 -1.107 -0.005 -1.375 -0.006 -1.355 -0.01 -1.371 -0.075 -1.32 -0.226 -0.979 -0.479 -0.816 -0.66 0.013 -0.514 0.015 -0.66 0.405 -0.579 0.352 -0.702 0.691 -0.674 0.771 -0.608 0.875 -0.672 1.084 -0.548 1.172 -0.598 1.253 -0.539 1.257 -0.539 1.252 -0.424 1.049 -0.27 0.617 1.372 0.246 0.003 -0.104 0 -0.208 0 -0.521 -0.001 -0.834 -0.002 -1.042 -0.003 -1.369 -0.063 -1.477 -0.075 -1.201 -0.618 -1.508" />
    <path class="write-flat-pen" fill="#000000" stroke-width="1.6" __comx="327.783" __comy="111.479" __timestamp="0x181e6173296" d="M320.38 114.383 l4.303 0.393 1.278 -0.843 1.15 -0.762 1.051 -1.001 0.877 -1.015 0.587 -1.057 0.283 -0.892 0.001 -0.625 0 -0.659 -0.489 -0.586 -0.937 -0.154 -0.75 -0.001 -0.753 -0.004 -0.737 -0.002 -0.952 0.283 -0.787 0.762 -0.606 0.71 -0.451 0.904 -0.518 1.02 -0.265 1.38 -0.131 1.317 -0.005 1.389 -0.004 1.372 0.438 1.32 1.012 1.041 1.195 0.633 1.397 0.239 1.512 -0.002 1.476 -0.007 1.496 -0.125 1.544 -0.487 1.29 -0.846 1.297 -1.29 -0.48 -0.633 -1.537 0.858 -1.143 0.613 -1.237 0.347 -1.285 0.083 -1.421 -0.007 -1.385 -0.002 -1.036 -0.177 -0.775 -0.41 -0.61 -0.626 -0.257 -0.764 -0.004 -1.13 -0.005 -1.321 0.101 -1.185 0.199 -1.122 0.409 -0.856 0.36 -0.764 0.437 -0.541 0.488 -0.489 0.439 -0.134 0.538 -0.002 0.753 -0.004 0.641 -0.001 0.337 0.055 -0.141 -0.169 0 0.175 0.001 0.417 -0.18 0.567 -0.456 0.819 -0.745 0.861 -0.918 0.875 -1.052 0.697 -0.923 0.616 -3.898 0.162" />
    <path class="write-flat-pen" fill="#000000" stroke-width="1.6" __comx="365.839" __comy="111.479" __timestamp="0x181e61739e9" d="M372.083 99.526 l1.03 0.054 -0.249 -1.426 -0.116 -0.005 -0.753 -0.005 -1.24 0 -1.779 0.11 -2.017 0.551 -2 0.742 -1.974 0.731 -1.613 0.622 -1.176 0.403 -0.817 0.21 -0.814 0.293 0.001 0.731 0.001 0.664 0.922 0.749 1.148 0.87 1.68 0.971 1.849 0.934 1.895 1.134 1.787 1.033 1.389 0.891 0.784 0.698 0.278 0.558 0.002 0.597 -0.107 0.512 -0.791 0.63 -1.302 0.682 -1.415 0.585 -1.368 0.283 -1.201 -0.001 -0.985 -0.001 -0.695 0 0.486 0 -0.022 1.114 0.383 -0.189 1.283 -0.261 1.479 -0.43 1.631 -0.551 -0.034 -0.255 -1.752 -0.1 -1.533 0.195 -1.381 0.155 -1.471 0.436 -0.022 1.322 0.95 0 0.695 0 0.985 -0.001 1.348 -0.001 1.644 -0.343 1.597 -0.665 1.478 -0.777 1.294 -1.037 0.241 -1.155 0.002 -1.071 -0.534 -1.109 -1.07 -0.97 -1.507 -0.985 -1.805 -1.052 -1.929 -1.159 -1.858 -0.942 -1.564 -0.905 -1.053 -0.798 -0.352 -0.293 0.001 0.039 0.001 0.314 -0.235 0.085 0.805 -0.207 1.257 -0.431 1.631 -0.628 1.965 -0.728 1.939 -0.717 1.806 -0.492 1.581 -0.098 1.193 0 0.753 -0.005 0.116 -0.005 -0.249 -1.426 -0.759 0.698" />
    <path class="write-flat-pen" fill="#000000" stroke-width="1.6" __comx="378.244" __comy="111.479" __timestamp="0x181e6173ba7" d="M373.253 111.855 l1.357 1.046 0.139 0.603 0.102 0.791 0.065 0.595 0.311 0.838 0.65 -0.002 0.622 -0.01 0.843 -0.625 0.73 -1.152 0.783 -1.181 0.654 -1.134 0.713 -0.813 0.502 -0.606 0.23 -0.207 0.159 -0.035 0.267 0.024 -0.066 0.034 0.154 0.356 0.175 0.899 0.044 1.282 -0.01 1.653 -0.003 1.98 -0.002 2.27 -0.171 2.554 -0.397 2.653 -0.625 2.657 -0.741 2.359 -0.733 2.028 -0.713 1.382 -0.566 0.834 -0.203 0.182 0.027 0 0.09 0.065 -0.21 -0.756 -0.173 -1.389 -0.117 -1.627 -0.002 -1.644 0 -1.459 -0.001 -1.024 0.268 -0.722 0.476 -0.6 0.644 -0.582 0.942 -0.808 1.05 -0.74 1.34 -1.018 1.38 -1.329 -0.235 -0.348 -1.749 0.782 -1.441 0.858 -1.151 0.72 -1.028 0.86 -0.747 0.669 -0.683 0.859 -0.427 1.154 -0.001 1.268 0 1.459 -0.002 1.691 0.115 1.708 0.175 1.529 0.369 1.328 0.669 0.482 0.954 0 0.724 -0.651 0.708 -1.042 0.793 -1.536 0.773 -2.141 0.766 -2.435 0.649 -2.763 0.414 -2.766 0.176 -2.657 -0.002 -2.316 -0.003 -1.98 -0.01 -1.682 -0.072 -1.428 -0.288 -1.186 -0.657 -1.103 -0.645 0.034 -0.428 0.024 -0.536 0.173 -0.465 0.419 -0.541 0.645 -0.793 0.854 -0.736 1.159 -0.839 1.112 -0.661 0.932 -0.315 0.209 -0.189 -0.01 0.302 -0.002 0.079 0.213 -0.051 -0.447 -0.13 -0.877 -0.325 -1.273 -2.223 -0.689" />
    <path class="write-flat-pen" fill="#000000" stroke-width="1.6" __comx="389.155" __comy="111.479" __timestamp="0x181e6173d51" d="M393.594 110.742 l1.165 -2.561 0.007 -0.924 -1.22 -0.025 -1.043 -0.003 -1.593 -0.001 -1.678 0.695 -1.595 0.882 -1.528 1.21 -1.077 1.075 -0.866 0.888 -0.539 0.831 -0.082 0.733 0.002 0.913 0.856 0.684 1.185 0.591 1.386 0.339 1.416 0.211 1.147 0.194 0.725 0.26 0.071 0.047 0.003 0.138 0 0.373 -0.536 0.667 -1.189 0.875 -1.139 0.78 -1.205 0.471 -0.796 0.179 -0.326 0.001 0.481 0.006 -0.025 0.315 0.192 -0.728 1.229 -1.494 -0.675 -0.648 -1.62 1.474 -0.503 1.148 -0.025 1.357 0.945 0.006 0.485 0.001 1.058 -0.238 1.46 -0.571 1.294 -0.887 1.36 -1.001 0.97 -1.209 0 -0.878 0.003 -0.905 -0.856 -0.578 -1.013 -0.366 -1.286 -0.223 -1.365 -0.206 -1.163 -0.286 -0.9 -0.451 -0.187 -0.15 0.002 -0.13 0.034 -0.309 0.272 -0.42 0.756 -0.779 1.009 -1.009 1.368 -1.083 1.418 -0.786 1.334 -0.555 1.303 -0.001 1.043 -0.003 -0.178 -0.025 0.007 -0.716 -0.659 2.486" />
    <path class="write-flat-pen" fill="#000000" stroke-width="1.6" __comx="399.146" __comy="111.479" __timestamp="0x181e6173e10" d="M393.443 114.618 l4.033 -1.336 1.873 -0.841 1.863 -0.942 1.527 -0.743 1.263 -0.78 0.726 -0.629 0.371 -0.573 -0.208 -0.679 -0.558 0 -0.208 0.296 -0.209 0.053 -0.664 0.413 -1.171 0.679 -1.485 0.716 -1.845 0.934 -1.835 0.827 -3.719 2.038" />
    <path class="write-flat-pen" fill="#000000" stroke-width="1.6" __comx="401.623" __comy="111.479" __timestamp="0x181e6173ed8" d="M398.502 106.868 l-0.374 3.682 -0.007 1.784 -0.003 1.772 -0.003 1.563 -0.001 1.347 0.306 1.099 0.738 0.757 0.992 -0.005 1.068 -0.006 1.298 -0.856 1.251 -0.817 1.365 -1.231 -0.5 -0.66 -1.496 0.937 -1.298 0.643 -1.019 0.603 -0.67 -0.006 -0.399 -0.005 -0.073 -0.076 -0.158 -0.568 -0.001 -1.155 -0.003 -1.563 -0.003 -1.772 -0.007 -1.759 -0.11 -3.674" />
    <path class="write-flat-pen" fill="#000000" stroke-width="1.6" __comx="412.148" __comy="111.479" __timestamp="0x181e617401c" d="M407.373 115.05 l4.064 -1.153 1.463 -0.767 1.24 -0.85 1.023 -0.65 0.706 -0.636 0.307 -0.57 -0.004 -0.608 -0.26 -0.699 -1.147 -0.472 -1.118 0.002 -1.159 0 -1.258 -0.001 -1.207 0.6 -0.987 0.582 -0.742 0.83 -0.673 0.947 -0.354 1.103 -0.139 1.148 -0.01 0.978 -0.005 1.066 0.782 1.13 1.027 0.739 1.254 0.594 1.379 0.235 1.28 -0.01 1.336 -0.016 1.212 -0.677 0.911 -0.985 0.887 -1.411 -0.644 -0.517 -1.136 1.11 -0.827 0.683 -0.758 0.365 -0.981 -0.016 -1.153 -0.01 -1.054 -0.182 -0.948 -0.449 -0.711 -0.511 -0.376 -0.537 -0.005 -0.602 -0.01 -0.898 0.093 -0.936 0.225 -0.773 0.485 -0.72 0.533 -0.629 0.751 -0.46 0.878 -0.442 0.944 -0.001 1.159 0 0.852 0.002 0.359 0.153 -0.029 -0.074 -0.004 0.017 -0.041 0.056 -0.452 0.406 -0.947 0.601 -1.193 0.818 -1.317 0.692 -3.734 1.789" />
    <path class="write-flat-pen" fill="#000000" stroke-width="1.6" __comx="428.244" __comy="111.479" __timestamp="0x181e617424c" d="M419.839 107.637 l-0.192 2.612 -0.008 1.705 -0.336 1.799 -0.4 1.837 -0.398 1.326 -0.351 1.153 -0.211 0.758 -0.224 0.403 0 0.295 1.469 0.051 0.036 -0.689 0.508 -1.015 0.786 -1.535 0.833 -1.324 0.841 -1.237 0.826 -1.107 0.871 -0.888 0.82 -0.691 0.733 -0.507 0.53 -0.381 0.352 -0.154 0.269 -0.064 0.205 0.009 -0.116 0.009 -0.097 -0.113 0.077 0.816 -0.01 1.107 -0.003 1.355 -0.004 1.318 -0.107 1.037 -0.259 0.834 -0.217 0.52 0 0.356 1.471 0 -0.006 -0.35 0.134 -0.785 0.523 -1.148 0.714 -1.303 0.768 -1.103 0.879 -1.099 0.935 -0.897 0.949 -0.804 0.77 -0.554 0.78 -0.279 0.54 -0.191 0.348 -0.075 0.271 0.005 0.168 0.007 -0.212 -0.066 0.085 0.514 0.16 1.509 0.051 1.94 -0.003 2.117 0.238 2.038 0.254 1.586 0.692 1.347 1.621 0.734 0.576 -1.121 -1.122 -0.676 -0.351 -0.738 -0.21 -1.332 -0.225 -1.923 -0.003 -2.052 -0.065 -2.02 -0.188 -1.618 -0.263 -1.362 -0.791 -0.274 -0.412 0.007 -0.424 0.005 -0.579 0.134 -0.618 0.226 -0.958 0.347 -0.968 0.697 -1.02 0.864 -1.035 0.979 -0.974 1.194 -0.855 1.189 -0.792 1.407 -0.636 1.353 -0.213 1.091 -0.006 0.484 1.471 0 0 -0.061 0.13 -0.314 0.32 -1.042 0.125 -1.256 -0.004 -1.392 -0.003 -1.355 -0.01 -1.186 -0.155 -1.268 -0.56 -0.738 -0.58 0.009 -0.375 0.009 -0.542 0.145 -0.575 0.263 -0.628 0.453 -0.773 0.535 -0.917 0.768 -0.983 0.988 -0.912 1.186 -0.897 1.264 -0.905 1.386 -0.836 1.591 -0.651 1.278 -0.08 0.979 1.469 0.051 0 0.086 0.124 -0.222 0.252 -0.91 0.344 -1.14 0.413 -1.384 0.411 -1.915 0.36 -1.953 -0.008 -1.839 -0.192 -2.612" />
    <path class="write-flat-pen" fill="#000000" stroke-width="1.6" __comx="447.321" __comy="111.479" __timestamp="0x181e617478b" d="M450.757 108.249 l2.465 -2.278 0.098 -0.168 -0.881 -1.02 -1.152 0.408 -1.836 0.956 -2.201 1.146 -2.211 1.151 -1.692 0.944 -1.097 0.621 -0.549 0.294 -0.652 0.292 0 1.127 0.606 0.929 1.308 0.941 1.769 0.986 2.026 0.745 1.978 0.728 1.786 0.616 1.246 0.506 0.372 0.166 -0.002 -0.009 0 0.113 -0.492 0.294 -1.336 0.673 -1.423 0.286 -1.318 0.116 -0.361 0.062 -0.656 -0.821 -0.497 0.151 0.19 1.969 1.377 0.062 1.463 -0.093 1.705 -0.339 1.561 -0.786 1.245 -0.748 0 -1.137 -0.233 -0.843 -1.018 -0.459 -1.303 -0.536 -1.806 -0.635 -1.961 -0.731 -1.913 -0.714 -1.591 -0.89 -1.009 -0.727 -0.205 -0.321 0 0.293 -0.188 0.084 0.61 -0.331 1.104 -0.63 1.668 -0.932 2.191 -1.142 2.202 -1.147 1.756 -0.92 1.05 -0.426 -0.881 -1.02 -0.017 0.04 -1.826 2.635" />
    <path class="write-flat-pen" transform="translate(0,34.081)" fill="#000000" stroke-width="1.6" __comx="174.87" __comy="187.462" __timestamp="0x181e6174bf9" d="M180.244 143.963 l1.313 -2.417 -1.39 -0.239 -0.025 0.366 -0.158 1.08 -0.809 1.638 -1.301 2.236 -1.712 2.361 -1.786 2.384 -1.716 2.162 -1.475 1.633 -1.254 1.232 -0.756 0.735 -0.25 0.111 0.625 0.024 -0.04 0.089 -0.108 -1.263 0.402 -1.879 -0.672 -0.224 -0.864 1.919 -0.108 1.447 -0.04 1.34 1.089 0.024 0.793 -0.305 0.982 -0.933 1.294 -1.269 1.538 -1.702 1.759 -2.216 1.806 -2.411 1.764 -2.433 1.363 -2.35 0.929 -1.906 0.189 -1.421 -0.025 -0.468 -1.39 -0.239 -0.499 2.705" />
    <path class="write-flat-pen" transform="translate(0,34.081)" fill="#000000" stroke-width="1.6" __comx="178.631" __comy="187.462" __timestamp="0x181e6174cbe" d="M170.512 147.202 l3.974 0.736 1.847 0.89 2.168 1.136 2.026 1.218 1.793 1.412 1.397 1.307 0.935 1.088 0.54 0.772 0.133 0.219 0.024 -0.081 0.992 -0.618 -1.176 -0.383 -0.453 0.924 1.023 0.696 0.992 -0.618 0.024 -0.289 -0.331 -0.615 -0.619 -0.896 -1.035 -1.205 -1.5 -1.403 -1.915 -1.506 -2.145 -1.283 -2.235 -1.157 -2.092 -0.986 -4.274 -0.191" />
    <path class="write-flat-pen" transform="translate(0,34.081)" fill="#000000" stroke-width="1.6" __comx="177.251" __comy="187.462" __timestamp="0x181e6174d99" d="M177.698 136.407 l-1.114 4.085 -0.123 2.862 -0.234 3.432 -0.234 3.771 -0.058 3.878 0.012 3.445 0.047 2.969 0.519 2.409 1.01 -0.156 -0.216 -2.354 0.047 -2.868 0.012 -3.434 0.058 -3.834 0.23 -3.733 0.23 -3.447 0.109 -2.766 0.572 -4.079" />
    <path class="write-flat-pen" transform="translate(0,34.081)" fill="#000000" stroke-width="1.6" __comx="209.277" __comy="187.462" __timestamp="0x181e61753d3" d="M210.846 143.644 l-1.419 -0.232 -0.002 1.23 -0.004 1.146 -0.006 1.668 0 1.98 -0.001 2.293 0 2.35 -0.28 2.116 -0.398 1.942 -0.387 1.596 -0.393 0.911 -0.158 0.489 -0.015 0.052 1.317 0.341 -0.017 -0.104 -0.044 -1.042 -0.088 -1.611 0.262 -1.952 0.18 -2.186 -0.307 -0.063 -0.694 2.081 -0.549 2.008 -0.088 1.724 -0.044 1.042 -0.017 0.104 1.317 0.341 0.101 -0.156 0.19 -0.553 0.418 -0.965 0.424 -1.74 0.413 -2.018 0.299 -2.261 0 -2.445 -0.001 -2.293 0 -1.98 -0.006 -1.668 -0.004 -1.146 -0.002 0.188 0 -0.232" />
    <path class="write-flat-pen" transform="translate(0,34.081)" fill="#000000" stroke-width="1.6" __comx="220.339" __comy="187.462" __timestamp="0x181e6175548" d="M210.379 146.102 l2.745 0.408 0.628 1.601 0.841 2.373 0.742 2.502 0.829 2.366 0.96 1.74 1.227 0.968 1.545 0.001 1.637 -1.024 1.436 -2.246 1.36 -2.662 1.163 -2.867 0.806 -2.462 0.403 -1.96 0.102 -1.632 -0.004 -1.169 0 -0.786 -0.16 -0.874 -0.63 -0.001 -0.68 -0.003 -0.006 1.351 -0.005 0.938 -0.01 1.146 -0.008 1.212 0.246 1.257 0.414 1.198 0.456 1.25 0.451 1.335 0.45 1.533 0.339 1.434 0.286 1.35 0.229 1.033 0.134 0.724 0.369 0.661 0.464 -0.012 0.494 -0.041 0.395 -0.68 0.271 -1.2 -0.667 -0.265 -0.572 0.926 -0.069 -0.055 0.147 -0.041 0.348 -0.012 0.137 0.245 -0.098 -0.526 -0.235 -1.051 -0.293 -1.36 -0.356 -1.485 -0.477 -1.593 -0.476 -1.374 -0.471 -1.252 -0.397 -1.095 -0.217 -1.036 -0.008 -1.081 -0.01 -1.146 -0.005 -0.938 -0.006 -0.108 -0.564 -0.003 -0.398 -0.001 -0.044 -0.249 0 0.673 -0.004 1.124 -0.13 1.495 -0.408 1.792 -0.816 2.333 -1.154 2.761 -1.305 2.549 -1.229 1.923 -1.028 0.643 -0.656 0.001 -0.627 -0.491 -0.778 -1.387 -0.794 -2.22 -0.764 -2.501 -0.896 -2.421 -0.994 -2.36 -3.581 0.175" />
    <path class="write-flat-pen" transform="translate(0,34.081)" fill="#000000" stroke-width="1.6" __comx="236.85" __comy="187.462" __timestamp="0x181e61756c6" d="M231.946 150.005 l-0.344 3.158 -0.074 1.473 -0.011 1.368 -0.009 1.146 -0.006 0.807 0.202 0.922 0.854 0.439 0.742 0 1.057 -0.147 0.959 -1.068 0.796 -1.227 0.715 -1.428 0.515 -1.406 0.399 -1.199 0.235 -1.115 0.063 -0.589 0 -0.451 0.004 0.412 -0.944 0.029 -0.098 -0.159 0.257 0.668 0.27 0.937 0.453 1.244 0.392 1.433 0.402 1.467 0.405 1.363 0.349 1.152 0.255 0.801 0.438 0.787 0.586 0.25 0.648 -0.042 0.544 -0.525 0.198 -1.469 -0.57 -0.176 -0.557 0.977 -0.035 -0.108 0.069 -0.042 0.122 0.041 -0.141 -0.255 -0.209 -0.658 -0.346 -1.141 -0.406 -1.346 -0.409 -1.451 -0.419 -1.485 -0.474 -1.258 -0.31 -0.939 -0.322 -0.791 -0.329 -0.575 -1.06 0.029 0.004 0.829 0 0.383 -0.053 0.454 -0.228 0.969 -0.412 1.094 -0.528 1.304 -0.675 1.282 -0.71 1.065 -0.547 0.599 -0.449 0.061 -0.301 0 0.043 0.022 -0.029 -0.12 -0.006 -0.652 -0.009 -1.146 -0.011 -1.341 0.041 -1.445 -0.073 -3.173" />
    <path class="write-flat-pen" transform="translate(0,34.081)" fill="#000000" stroke-width="1.6" __comx="246.653" __comy="187.462" __timestamp="0x181e61757ce" d="M245.386 135.486 l-0.019 3.261 0.168 2.003 0.231 2.199 0.286 2.48 0.114 2.683 0.115 3.008 0 3.009 0.001 2.71 0.001 2.085 0.002 1.355 0.006 0.73 0.016 0.781 1.133 -0.052 0.502 -1.473 -0.835 -0.387 -0.464 0.612 1.017 -0.052 0.016 0.572 0.006 -0.73 0.002 -1.355 0.001 -2.085 0.001 -2.71 0 -3.036 -0.117 -3.037 -0.118 -2.737 -0.294 -2.523 -0.233 -2.179 -0.18 -1.958 -0.296 -3.217" />
    <path class="write-flat-pen" transform="translate(0,34.081)" fill="#000000" stroke-width="1.6" __comx="255.291" __comy="187.462" __timestamp="0x181e61758a6" d="M249.726 154.242 l4.107 -1.138 2.134 -0.959 1.89 -0.956 1.395 -0.838 0.979 -0.531 0.668 -0.439 0.267 -0.628 -0.093 -0.466 -0.62 -0.348 -0.434 0.482 0.094 0.294 -0.093 -0.258 -0.08 -0.003 -0.375 0.186 -0.991 0.511 -1.385 0.83 -1.818 0.92 -2.037 0.917 -3.921 1.466" />
    <path class="write-flat-pen" transform="translate(0,34.081)" fill="#000000" stroke-width="1.6" __comx="258.768" __comy="187.462" __timestamp="0x181e6175988" d="M254.786 144.953 l-0.216 4.485 -0.015 1.98 -0.009 1.876 -0.008 1.772 -0.005 1.601 0.127 1.181 0.467 1.084 0.603 0.93 1.048 0.156 0.99 -0.001 1.192 -0.257 1.286 -0.959 1.033 -1.014 0.94 -1.043 0.784 -1.303 -0.424 -0.341 -1.063 0.998 -1.03 0.833 -1.052 0.862 -1.031 0.708 -0.778 0.16 -0.748 -0.001 -0.342 -0.052 -0.208 -0.321 -0.344 -0.792 -0.105 -0.904 -0.005 -1.526 -0.008 -1.772 -0.009 -1.876 -0.015 -1.98 -0.216 -4.485" />
    <path class="write-flat-pen" transform="translate(0,34.081)" fill="#000000" stroke-width="1.6" __comx="266.518" __comy="187.462" __timestamp="0x181e6175a3c" d="M264.565 152.854 l1.413 1.143 0.282 0.842 0.327 1.405 0.221 1.32 0.166 1.316 0.054 1.022 0.057 0.815 0 0.497 0 0.208 1.385 0 -0.119 -0.208 -0.213 -1.299 -0.722 0 -0.213 1.299 -0.119 0.208 1.385 0 0 -0.208 0 -0.545 -0.059 -0.853 -0.062 -1.062 -0.182 -1.393 -0.242 -1.39 -0.368 -1.514 -0.529 -1.451 -2.344 -0.434" />
    <path class="write-flat-pen" transform="translate(0,34.081)" fill="#000000" stroke-width="1.6" __comx="268.009" __comy="187.462" __timestamp="0x181e6175ac4" d="M265.769 146.732 l2.863 0.439 1.186 0.393 0.43 -1.035 -1.356 -0.662 -3.123 0.439" />
    <path class="write-flat-pen" transform="translate(0,34.081)" fill="#000000" stroke-width="1.6" __comx="279.649" __comy="187.462" __timestamp="0x181e61762ea" d="M273.647 151.025 l0.251 -0.095 -0.443 0.009 -0.474 0.009 0.027 0.232 0.107 1.321 0.05 1.534 -0.001 1.655 0 1.355 -0.001 0.994 -0.103 0.74 -0.081 0.292 -0.017 0.032 1.304 0.338 -0.014 -0.313 -0.021 -1.042 -0.026 -1.197 0.205 -1.25 0.487 -1.397 0.497 -1.22 0.551 -1.109 0.603 -0.993 0.536 -0.675 0.487 -0.485 0.428 -0.385 0.109 -0.076 0.04 0.008 0.1 0.01 -0.138 -0.05 0.171 0.534 0.205 1.273 0.103 1.613 -0.004 1.853 -0.003 1.668 -0.003 1.563 -0.004 1.251 -0.001 0.864 -0.104 0.46 -0.06 0.324 1.339 0.123 -0.002 -0.104 -0.016 -0.778 0.201 -1.235 0.543 -1.398 0.612 -1.541 0.659 -1.319 0.653 -1.107 0.778 -1.012 0.667 -0.807 0.619 -0.607 0.514 -0.511 0.253 -0.225 0.089 -0.021 0.013 0.01 0.058 0.016 -0.465 0.01 0.001 0.07 0.043 1.204 0.044 1.653 -0.005 1.864 -0.002 1.772 0 1.563 0 1.355 0 0.834 0 0.417 0.002 0.104 1.342 0 -0.104 -0.016 0.082 -0.669 0.178 -1.01 -0.437 -0.174 -0.575 0.886 -0.382 0.79 -0.104 0.192 1.342 0 0.002 -0.104 0 -0.417 0 -0.834 0 -1.355 0 -1.563 -0.002 -1.772 -0.005 -1.888 -0.071 -1.682 -0.073 -1.298 -0.23 -1.181 -0.581 0.01 -0.058 0.016 -0.219 0.01 -0.49 0.188 -0.443 0.4 -0.529 0.531 -0.656 0.644 -0.723 0.861 -0.844 1.072 -0.738 1.186 -0.731 1.391 -0.663 1.585 -0.616 1.521 -0.262 1.475 -0.016 0.89 -0.002 0.104 1.339 0.123 0.056 -0.301 0.128 -0.582 -0.001 -1.012 -0.004 -1.251 -0.003 -1.563 -0.003 -1.668 -0.004 -1.899 -0.129 -1.722 -0.258 -1.437 -0.408 -1.133 -0.602 -0.258 -0.363 0.01 -0.424 0.008 -0.471 0.341 -0.499 0.449 -0.555 0.557 -0.623 0.785 -0.672 1.092 -0.608 1.184 -0.545 1.282 -0.556 1.522 -0.259 1.46 -0.026 1.305 -0.021 1.042 -0.014 0.313 1.304 0.338 0.099 -0.176 0.15 -0.541 0.129 -0.928 -0.001 -1.09 0 -1.355 -0.001 -1.68 -0.066 -1.593 -0.124 -1.389 -0.205 -1.435 -0.706 0.009 -0.559 0.009 -0.102 1.176" />
    <path class="write-flat-pen" transform="translate(0,34.081)" fill="#000000" stroke-width="1.6" __comx="295.31" __comy="187.462" __timestamp="0x181e6176448" d="M289.8 156.968 l4.557 -0.895 1.459 -0.765 1.269 -0.65 0.991 -0.779 0.773 -0.695 0.088 -0.794 -0.001 -0.763 -0.476 -0.642 -1.272 -0.398 -1.313 0.004 -1.217 0.002 -1.266 0 -1.03 0.364 -0.775 0.454 -0.65 0.453 -0.584 0.56 -0.522 0.564 -0.481 0.719 -0.356 0.867 -0.138 0.965 -0.002 0.882 -0.001 1.101 0.543 1.118 0.966 0.802 1.392 0.5 1.514 -0.004 1.622 -0.008 1.966 -0.356 1.733 -0.679 1.512 -0.387 1.667 -0.558 -0.17 -0.726 -1.724 0.237 -1.617 0.239 -1.742 0.572 -1.741 0.269 -1.506 -0.008 -1.267 -0.004 -0.926 -0.334 -0.54 -0.448 -0.268 -0.55 -0.001 -0.775 -0.002 -0.785 0.093 -0.703 0.223 -0.592 0.33 -0.532 0.405 -0.478 0.459 -0.483 0.508 -0.381 0.616 -0.38 0.708 -0.262 1.051 0 1.217 0.002 1.12 0.004 0.698 0.227 -0.013 -0.017 -0.001 0.279 -0.028 0.249 -0.386 0.347 -0.863 0.68 -1.164 0.601 -1.322 0.694 -4.324 1.189" />
    <path class="write-flat-pen" transform="translate(0,34.081)" fill="#000000" stroke-width="1.6" __comx="308.012" __comy="187.462" __timestamp="0x181e6176674" d="M311.579 155.035 l-1.475 -3.235 -0.705 -0.482 -0.714 -0.15 -1.022 -0.008 -1.165 0.52 -1.221 1.152 -1.209 1.515 -1.014 1.495 -0.901 1.503 -0.667 1.411 -0.349 0.936 -0.382 0.798 -0.079 0.572 0.002 0.852 1.045 -0.002 1.172 -0.396 1.297 -1.167 1.313 -1.511 1.285 -1.701 1.283 -1.799 1.283 -2.012 1.22 -2.115 1.108 -2.133 0.929 -2.344 0.761 -2.223 0.585 -2.107 0.466 -1.771 0.36 -1.271 0.188 -0.963 0.119 -0.596 0.14 -0.473 0.01 0.359 -1.27 0.017 -0.021 -0.568 -0.004 1.042 -0.005 1.459 -0.002 2.029 -0.341 2.14 -0.348 2.499 -0.464 2.811 -0.465 3.137 -0.406 3.028 -0.349 2.632 -0.113 2.009 -0.055 1.167 0.008 0.747 0.018 0.879 0.902 -0.036 0.949 -0.08 1.338 -0.924 -0.34 -0.642 -1.273 0.458 -0.673 -0.08 0.439 -0.036 0.018 0.462 0.008 -0.712 0.061 -1.126 0.118 -1.951 0.346 -2.579 0.405 -3.017 0.462 -3.116 0.463 -2.817 0.347 -2.504 0.354 -2.237 -0.002 -2.14 -0.005 -1.459 -0.004 -1.042 -0.021 -0.776 -1.386 0.017 0.01 0.776 -0.092 0.361 -0.113 0.654 -0.16 0.913 -0.335 1.231 -0.461 1.773 -0.573 2.062 -0.745 2.155 -0.925 2.241 -1.094 2.036 -1.213 2.054 -1.265 1.948 -1.266 1.744 -1.264 1.635 -1.236 1.407 -1.02 0.918 -0.682 0.23 0.582 -0.002 0.002 0.643 0.036 -0.262 0.314 -0.661 0.346 -0.94 0.608 -1.299 0.837 -1.416 0.956 -1.423 1.108 -1.404 0.98 -0.932 0.689 -0.314 0.601 -0.008 0.328 0.059 0.222 0.144 1.713 2.739" />
    <path class="write-flat-pen" transform="translate(0,34.081)" fill="#000000" stroke-width="1.6" __comx="322.259" __comy="187.462" __timestamp="0x181e617674c" d="M322.689 152.092 l-1.164 3.797 -0.182 1.299 -0.059 0.947 -0.06 0.541 0.001 0.245 1.321 0 -0.09 -0.313 -0.14 -1.369 -0.863 0 -0.14 1.369 -0.09 0.313 1.321 0 0.001 -0.172 0.056 -0.501 0.057 -0.929 0.165 -1.203 0.471 -3.896" />
    <path class="write-flat-pen" transform="translate(0,34.081)" fill="#000000" stroke-width="1.6" __comx="321.432" __comy="187.462" __timestamp="0x181e61767e6" d="M317.806 146.115 l3.674 2.801 1.421 0.774 1.711 1.089 0.446 -0.57 -1.524 -1.441 -1.36 -0.893 -3.708 -2.654" />
    <path class="write-flat-pen" transform="translate(0,34.081)" fill="#000000" stroke-width="1.6" __comx="332.109" __comy="187.462" __timestamp="0x181e6176973" d="M334.989 154.675 l0.372 -3.486 -0.562 -0.764 -0.806 -0.006 -0.737 -0.007 -1.143 0.547 -1.104 1.281 -1.138 1.613 -1.057 1.785 -1.061 1.679 -0.818 1.563 -0.62 1.006 -0.357 0.533 -0.188 0.338 0.635 1.08 0.3 -0.002 1.046 -0.382 1.323 -0.758 1.35 -0.757 1.243 -0.863 0.995 -0.705 0.819 -0.399 0.646 -0.317 0.264 -0.136 0.067 0.001 0.29 0.005 0.056 0.007 0.235 0.325 0.474 0.763 0.485 1.164 0.389 1.301 0.346 1.426 0.31 1.418 0.258 1.316 0.532 1.174 0.361 -0.04 0.26 -1.272 -0.09 -1.394 -0.269 -1.5 -0.35 -1.493 -0.422 -1.409 -0.558 -1.337 -0.569 -0.905 -0.692 -0.926 -0.755 0.007 -0.29 0.005 -0.397 0.001 -0.547 0.281 -0.629 0.309 -0.919 0.435 -1.09 0.754 -1.19 0.804 -1.315 0.703 -1.226 0.701 -0.692 0.244 -0.047 -0.002 0.635 1.08 0.159 -0.287 0.338 -0.509 0.654 -1.078 0.804 -1.563 1.025 -1.656 1.028 -1.758 1.064 -1.513 0.866 -1.012 0.595 -0.286 0.421 -0.007 0.121 -0.006 -0.099 -0.139 0.497 3.037" />
    <path class="write-flat-pen" transform="translate(0,34.081)" fill="#000000" stroke-width="1.6" __comx="370.823" __comy="187.462" __timestamp="0x181e6176f96" d="M375.458 144.563 l2.556 -2.598 -0.515 -1.132 -0.494 -0.024 -1.354 0.104 -1.645 0.657 -1.852 0.625 -1.891 0.744 -1.816 0.843 -1.599 0.746 -1.444 0.866 -1.073 0.751 -0.757 0.567 -0.525 0.568 0.001 0.915 0.7 0.626 1.43 0.466 1.84 0.534 2.206 0.418 2.214 0.612 2.166 0.716 1.776 0.695 1.195 0.744 0.548 0.597 0.086 0.573 0.002 0.762 -0.675 0.89 -1.224 0.957 -1.523 0.88 -1.41 0.488 -1.22 0.286 -0.847 0 -0.521 0.002 0.555 0.02 -0.042 0.228 0.249 -0.517 0.861 -0.724 1.53 -0.871 -0.274 -0.584 -1.719 0.654 -1.224 0.735 -0.678 0.942 -0.042 1.478 0.786 0.02 0.521 0.002 1.007 0 1.445 -0.34 1.603 -0.554 1.721 -0.996 1.441 -1.128 1.063 -1.403 0.002 -1.322 -0.146 -1.095 -0.958 -1.07 -1.469 -0.923 -1.931 -0.764 -2.236 -0.743 -2.305 -0.639 -2.197 -0.416 -1.752 -0.508 -1.119 -0.367 0.005 0 0.001 0.289 0.054 -0.058 0.633 -0.475 1.012 -0.708 1.337 -0.802 1.53 -0.714 1.776 -0.824 1.817 -0.716 1.856 -0.626 1.483 -0.594 1.079 -0.104 0.433 -0.024 -0.515 -1.132 -2.219 2.891" />
    <path class="write-flat-pen" transform="translate(0,34.081)" fill="#000000" stroke-width="1.6" __comx="386.393" __comy="187.462" __timestamp="0x181e6177149" d="M377.685 154.946 l2.283 1.01 0.389 0.481 0.493 0.558 0.568 0.511 0.688 0.309 0.664 -0.001 0.799 -0.004 0.936 -0.722 0.754 -1.061 0.595 -1.121 0.472 -1.198 0.304 -0.875 0.179 -0.747 0.103 -0.336 -0.132 0.283 -0.302 0.013 -0.173 0.008 0.111 0.272 0.485 1.018 0.49 1.506 0.511 1.856 0.505 1.928 0.222 2.005 0.057 2.151 0 2.18 0.001 1.991 -0.483 1.737 -0.658 1.479 -0.751 1.259 -0.764 0.83 -0.758 0.514 -0.671 0.161 -0.673 -0.001 -0.095 -0.001 -0.172 -0.362 -0.137 -0.889 0.003 -1.193 0.001 -1.316 0.492 -1.15 0.918 -1.261 1.185 -1.32 1.369 -1.436 1.649 -1.54 1.72 -1.48 1.531 -1.512 1.438 -1.423 1.272 -1.399 -0.432 -0.48 -1.525 1.117 -1.575 1.287 -1.597 1.406 -1.756 1.438 -1.711 1.587 -1.412 1.482 -1.248 1.39 -1.052 1.448 -0.667 1.559 0.001 1.603 0.003 1.308 0.21 1.195 0.639 1.305 0.948 -0.001 0.834 -0.001 1.067 -0.256 1.096 -0.736 0.974 -1.046 0.871 -1.451 0.733 -1.648 0.56 -2.015 0.001 -2.178 0 -2.198 -0.059 -2.227 -0.241 -2.164 -0.538 -2.033 -0.532 -1.896 -0.553 -1.621 -0.557 -1.067 -0.468 -0.979 -0.637 0.008 -0.418 0.013 -0.248 0.491 -0.129 0.497 -0.169 0.712 -0.275 0.793 -0.455 1.095 -0.564 0.963 -0.636 0.815 -0.454 0.32 -0.36 -0.004 -0.379 -0.001 -0.239 -0.107 -0.359 -0.323 -0.434 -0.484 -0.654 -0.77 -2.879 -0.384" />
    <path class="write-flat-pen" transform="translate(0,34.081)" fill="#000000" stroke-width="1.6" __comx="396.601" __comy="187.462" __timestamp="0x181e61772ac" d="M400.369 152.645 l0.305 -1.925 -0.756 -0.014 -0.647 -0.01 -1.077 0.383 -1.319 0.904 -1.281 1.048 -1.116 0.803 -0.843 0.505 -0.485 0.291 -0.621 0.279 0 0.574 0.003 0.71 1.143 0.194 1.109 0.312 1.373 0.212 1.238 0.196 1.117 0.295 0.558 0.166 0.193 0.153 0.026 0.198 0 0.568 -0.259 0.693 -0.732 0.79 -0.847 0.625 -0.766 0.258 -0.584 0.087 0.195 0.007 -0.031 0.094 -0.12 -0.527 0.111 -1.013 -0.208 -0.116 -0.931 0.862 -0.12 0.932 0.201 1.136 1.006 0.007 0.807 -0.121 1.088 -0.367 1.123 -0.834 1.005 -1.086 0.436 -1.183 0 -0.891 -0.089 -0.844 -0.85 -0.68 -0.833 -0.251 -1.201 -0.331 -1.311 -0.221 -1.292 -0.205 -1.092 -0.313 -0.016 -0.015 0.003 0.501 0 0.366 -0.158 0.071 0.558 -0.335 0.895 -0.537 1.201 -0.865 1.268 -1.037 1.114 -0.764 0.661 -0.242 0.395 -0.01 -0.64 -0.014 0.305 0.529" />
    <path class="write-flat-pen" transform="translate(0,34.081)" fill="#000000" stroke-width="1.6" __comx="408.276" __comy="187.462" __timestamp="0x181e6177360" d="M402.489 157.908 l4.92 -1.522 1.681 -0.859 1.656 -0.956 1.4 -0.945 1.171 -0.74 0.763 -0.621 0.312 -0.574 -0.208 -0.683 -0.611 0 -0.208 0.344 -0.152 0.051 -0.627 0.421 -1.146 0.719 -1.38 0.931 -1.588 0.92 -1.563 0.809 -4.749 1.725" />
    <path class="write-flat-pen" transform="translate(0,34.081)" fill="#000000" stroke-width="1.6" __comx="410.267" __comy="187.462" __timestamp="0x181e617742b" d="M407.329 151.01 l-0.159 3.061 0.103 1.664 0.109 1.646 -0.006 1.571 0.118 1.302 0.133 0.835 0.439 0.988 0.772 -0.002 0.667 -0.008 0.976 -0.286 1 -0.973 0.861 -0.895 1.02 -1.055 -0.428 -0.51 -1.228 0.833 -0.993 0.773 -0.853 0.694 -0.53 0.131 -0.492 -0.008 0.077 -0.002 -0.024 -0.055 -0.099 -0.624 -0.114 -1.199 -0.006 -1.556 -0.123 -1.69 -0.128 -1.671 -0.658 -3.001" />
    <path class="write-flat-pen" transform="translate(0,34.081)" fill="#000000" stroke-width="1.6" __comx="418.513" __comy="187.462" __timestamp="0x181e6177579" d="M414.728 158.364 l3.776 -1.418 1.064 -0.896 0.889 -0.846 0.67 -0.657 0.425 -0.546 0.315 -0.375 0.002 -0.437 0.006 -0.374 -0.319 -0.586 -0.994 -0.299 -0.846 -0.122 -0.856 -0.002 -1.082 -0.006 -1.092 0.779 -0.88 0.893 -0.81 0.988 -0.628 0.997 -0.519 1.033 -0.272 1.073 -0.066 1.024 -0.002 0.993 0.09 0.975 1.042 0.78 1.147 0.386 1.16 -0.003 1.281 -0.01 1.358 -0.507 1.221 -0.925 1.071 -0.895 0.895 -0.843 0.741 -1.194 -0.325 -0.294 -1.059 0.799 -0.959 0.616 -1.131 0.772 -1.097 0.742 -0.959 0.327 -1.036 -0.01 -0.926 -0.003 -0.707 -0.239 -0.349 -0.263 -0.026 -0.276 -0.002 -0.883 0.05 -0.852 0.191 -0.803 0.408 -0.843 0.531 -0.879 0.696 -0.888 0.742 -0.774 0.645 -0.471 0.656 -0.006 0.766 -0.002 0.66 0.086 0.396 0.118 -0.087 -0.169 0.006 0.042 0.002 -0.021 -0.032 0.042 -0.386 0.497 -0.604 0.594 -0.849 0.821 -0.905 0.772 -3.343 1.953" />
    <path class="write-flat-pen" transform="translate(0,34.081)" fill="#000000" stroke-width="1.6" __comx="431.459" __comy="187.462" __timestamp="0x181e61777a8" d="M424.147 152.087 l-0.046 2.28 -0.014 1.324 -0.007 1.459 -0.007 1.421 -0.107 0.935 -0.192 0.596 -0.228 0.41 -0.001 0.286 1.407 0 -0.006 -0.16 0.072 -0.692 0.471 -1.057 0.59 -1.306 0.688 -0.981 0.798 -0.944 0.66 -0.902 0.681 -0.565 0.531 -0.381 0.465 -0.249 0.449 -0.084 0.348 -0.08 0.153 0.01 -0.275 0.012 -0.09 -0.215 -0.014 0.716 -0.012 1.251 -0.008 1.365 -0.318 1.121 -0.436 1.069 -0.37 0.659 -0.117 0.416 -0.018 0.031 1.318 0.342 -0.019 -0.673 0.136 -0.899 0.516 -1.14 0.648 -1.088 0.765 -1 0.711 -0.796 0.748 -0.674 0.737 -0.474 0.573 -0.282 0.509 -0.183 0.357 -0.079 0.314 0.002 0.126 0.06 0.257 0.546 0.2 1.21 -0.004 1.508 -0.003 1.563 -0.005 1.563 -0.007 1.146 -0.004 0.834 -0.001 0.417 0 0.104 1.357 0 -0.085 -0.244 0.295 -0.611 0.738 -1.299 -0.537 -0.398 -1.05 1.114 -0.632 0.849 -0.085 0.589 1.357 0 0 -0.104 -0.001 -0.417 -0.004 -0.834 -0.007 -1.146 -0.005 -1.563 -0.003 -1.563 -0.004 -1.619 -0.264 -1.499 -0.554 -1.122 -0.801 -0.356 -0.728 0.002 -0.57 0.13 -0.649 0.234 -0.702 0.344 -0.885 0.569 -0.874 0.785 -0.795 0.872 -0.857 1.084 -0.742 1.205 -0.642 1.362 -0.212 1.185 -0.019 0.786 1.318 0.342 0.098 -0.177 0.114 -0.418 0.325 -0.592 0.491 -1.224 0.377 -1.381 -0.008 -1.553 -0.012 -1.251 -0.014 -0.951 -0.322 -0.84 -0.622 0.012 -0.311 0.01 -0.463 0.129 -0.593 0.124 -0.693 0.376 -0.628 0.453 -0.825 0.685 -0.73 0.974 -0.824 0.933 -0.818 1.103 -0.685 1.404 -0.571 1.236 -0.16 0.975 -0.006 0.257 1.407 0 -0.001 0.078 0.12 -0.215 0.271 -0.863 0.125 -1.15 -0.007 -1.498 -0.007 -1.459 -0.014 -1.386 -0.47 -2.294" />
    <path class="write-flat-pen" transform="translate(0,34.081)" fill="#000000" stroke-width="1.6" __comx="447.963" __comy="187.462" __timestamp="0x181e6177910" d="M447.624 151.501 l3.368 -2.082 0.307 -0.161 0.397 -0.162 -0.012 0.052 -0.323 0.021 -0.344 -1.243 -0.904 0.478 -1.159 0.729 -1.398 0.838 -1.11 0.736 -0.838 0.539 -0.537 0.428 -0.482 0.347 -0.21 0.758 0.002 0.765 0.319 0.757 1.069 0.685 1.268 0.454 1.227 0.315 1.3 0.425 1.175 0.211 0.738 0.204 0.168 0.038 -0.072 -0.13 0 0.215 -0.189 0.535 -1.036 0.884 -1.646 1.084 -1.872 0.793 -1.69 0.51 -1.052 0.32 -1.161 0.129 0 1.115 1.343 0.129 1.265 -0.306 1.786 -0.533 2.067 -0.875 1.83 -1.209 1.397 -1.2 0.39 -1.133 0 -0.827 -0.42 -0.755 -0.759 -0.171 -0.768 -0.213 -1.142 -0.206 -1.249 -0.409 -1.206 -0.311 -1.05 -0.38 -0.553 -0.357 -0.029 -0.077 0.002 -0.278 0.022 -0.076 0.098 -0.07 0.506 -0.405 0.784 -0.504 1.091 -0.723 1.383 -0.829 1.158 -0.73 0.834 -0.564 -0.344 -1.243 -0.439 0.021 -0.128 0.261 -0.067 0.047 -0.388 0.255 -3.127 2.5" />
    <path class="write-flat-pen" transform="translate(0,71.289)" fill="#000000" stroke-width="1.6" __comx="173.848" __comy="263.455" __timestamp="0x181e6177dc5" d="M181.062 180.14 l-3.745 4.824 -2.009 2.374 -2.152 2.51 -1.988 2.525 -1.803 2.512 -1.44 1.972 -1.038 1.355 -0.649 0.894 -0.163 0.181 1.1 0.49 -0.152 -0.721 -0.357 -1.763 -0.18 -0.006 -0.479 1.752 -0.152 0.738 1.1 0.49 0.3 -0.236 0.741 -0.982 1.047 -1.354 1.456 -1.989 1.789 -2.491 1.951 -2.478 2.135 -2.492 2.046 -2.42 3.419 -5.126" />
    <path class="write-flat-pen" transform="translate(0,71.289)" fill="#000000" stroke-width="1.6" __comx="176.822" __comy="263.455" __timestamp="0x181e6177e91" d="M168.196 184.508 l4.331 0.402 1.55 0.854 1.847 1.418 1.845 1.617 1.624 2.017 1.472 2.14 1.2 2.159 0.988 1.77 0.635 1.098 0.373 0.807 0.683 0.48 0.704 -0.782 -0.331 -0.432 -0.206 -0.652 -0.639 -1.195 -0.982 -1.773 -1.233 -2.218 -1.541 -2.238 -1.736 -2.152 -1.979 -1.718 -1.977 -1.5 -1.925 -1.022 -4.651 -0.066" />
    <path class="write-flat-pen" transform="translate(0,71.289)" fill="#000000" stroke-width="1.6" __comx="176.678" __comy="263.455" __timestamp="0x181e6177f5a" d="M176.795 177.903 l-0.234 4.569 -0.008 2.388 -0.12 2.774 -0.407 3.422 -0.349 3.772 -0.23 3.992 0.044 3.876 0.217 3.447 0.849 0 0.217 -3.447 0.044 -3.836 0.233 -3.929 0.346 -3.732 0.404 -3.457 0.111 -2.854 -0.008 -2.406 -0.104 -4.564" />
    <path class="write-flat-pen" transform="translate(0,71.289)" fill="#000000" stroke-width="1.6" __comx="212.889" __comy="263.455" __timestamp="0x181e6178544" d="M212.488 181.589 l-0.293 1.784 0.346 1.506 0.162 1.815 0.111 2.262 -0.001 2.484 -0.002 2.799 -0.114 2.554 -0.338 2.232 -0.404 1.761 -0.167 0.905 -0.158 0.476 1.334 0.217 -0.032 -0.208 -0.083 -1.028 0.468 -1.409 0.471 -1.83 -0.332 -0.135 -0.938 1.628 -0.807 1.509 -0.083 1.265 -0.032 0.208 1.334 0.217 0.189 -0.566 0.18 -0.971 0.407 -1.783 0.357 -2.354 0.118 -2.657 -0.002 -2.829 -0.001 -2.519 -0.121 -2.324 -0.185 -1.937 -0.349 -1.412 -0.136 -1.617" />
    <path class="write-flat-pen" transform="translate(0,71.289)" fill="#000000" stroke-width="1.6" __comx="220.672" __comy="263.455" __timestamp="0x181e61785cb" d="M214.444 195.101 l3.585 -0.193 1.957 -0.871 1.944 -0.952 1.815 -1.054 1.417 -0.847 1.045 -0.61 0.796 -0.842 -0.522 -0.653 -0.9 0.514 -1.04 0.432 -1.479 0.821 -1.776 1.031 -1.879 0.924 -1.751 0.797 -3.313 0.744" />
    <path class="write-flat-pen" transform="translate(0,71.289)" fill="#000000" stroke-width="1.6" __comx="227.235" __comy="263.455" __timestamp="0x181e61786b2" d="M227.181 181.667 l-0.272 3.614 -0.063 1.841 -0.231 2.16 -0.293 2.514 -0.178 2.621 -0.178 2.515 -0.059 2.212 0 1.572 0 1.042 0.002 1.097 0.796 -0.016 0.775 -0.073 1.084 -1.336 -0.658 -0.627 -0.933 0.781 -0.268 -0.073 0.564 -0.016 0.002 0.263 0 -1.042 0 -1.554 0.057 -2.165 0.169 -2.488 0.17 -2.59 0.286 -2.489 0.232 -2.217 0.052 -1.912 -0.272 -3.634" />
    <path class="write-flat-pen" transform="translate(0,71.289)" fill="#000000" stroke-width="1.6" __comx="234.403" __comy="263.455" __timestamp="0x181e6178869" d="M236.788 196.176 l1.431 -3.129 0.08 -0.519 0.014 -0.253 0.015 -0.884 -0.733 -0.012 -0.682 -0.01 -1.027 0.128 -1.228 0.858 -1.054 1.001 -1.079 1.291 -1.074 1.387 -0.9 1.398 -0.85 1.521 -0.546 1.417 -0.374 1.121 -0.133 0.949 0 1.084 0.779 0 1.076 -0.002 1.392 -0.879 1.378 -1.311 1.496 -1.47 1.318 -1.259 1.198 -1.156 0.874 -0.808 0.635 -0.42 0.087 -0.079 -0.818 0 -0.017 -0.216 -0.014 0.834 -0.009 1.042 -0.005 1.042 -0.001 1.089 0.123 0.887 0.115 0.73 0.063 0.455 0.213 0.744 0.628 -0.034 0.503 -0.081 0.313 -0.801 0.183 -1.273 -0.464 -0.143 -0.539 1.067 -0.151 0.033 0.155 -0.081 0.396 -0.034 0.097 0.327 -0.053 -0.379 -0.116 -0.729 -0.109 -0.781 -0.001 -0.995 -0.005 -1.042 -0.009 -1.042 -0.014 -0.834 -0.017 -1.05 -0.933 0 -0.376 0.338 -0.639 0.414 -0.98 0.859 -1.235 1.136 -1.347 1.242 -1.517 1.448 -1.287 1.191 -0.926 0.581 -0.661 -0.002 0.663 0 0 0.459 0.099 -0.719 0.321 -0.964 0.497 -1.293 0.772 -1.397 0.837 -1.312 1.012 -1.323 1.006 -1.21 0.916 -0.875 0.857 -0.601 0.595 -0.081 0.593 -0.01 -0.617 -0.012 0.015 -0.467 0.014 0.164 -0.036 0.314 -0.719 3.243" />
    <path class="write-flat-pen" transform="translate(0,71.289)" fill="#000000" stroke-width="1.6" __comx="248.087" __comy="263.455" __timestamp="0x181e61789ee" d="M241.859 193.11 l0.775 0.478 0.049 0.625 0.105 1.218 -0.004 1.533 -0.002 1.563 -0.001 1.355 -0.002 1.146 -0.002 0.73 -0.001 0.43 -0.033 0.12 1.316 0.18 0.001 -0.73 -0.005 -1.031 0.465 -1.333 0.595 -1.394 0.703 -1.101 0.784 -1.129 0.74 -0.934 0.63 -0.824 0.589 -0.673 0.419 -0.335 0.372 -0.167 0.169 -0.054 0.067 0.011 0.058 0.005 -0.295 0.003 0.026 0.074 0.143 0.98 0.279 1.339 0.167 1.522 0.113 1.352 0.12 1.199 0.264 1.072 0.364 0.655 0.546 0.652 0.88 0.14 0.834 -0.062 1.229 -0.484 -0.241 -0.872 -1.149 0.174 -0.557 -0.062 -0.279 -0.068 -0.149 -0.182 -0.215 -0.387 -0.2 -0.804 -0.112 -1.094 -0.119 -1.358 -0.181 -1.605 -0.301 -1.371 -0.204 -1.104 -0.437 -0.969 -0.527 0.003 -0.058 0.005 -0.281 0.011 -0.41 0.155 -0.555 0.25 -0.624 0.499 -0.685 0.786 -0.645 0.844 -0.766 0.942 -0.838 1.164 -0.803 1.192 -0.68 1.524 -0.578 1.585 -0.005 1.262 0.001 0.73 1.316 0.18 0.082 -0.297 -0.001 -0.613 -0.002 -0.73 -0.002 -1.146 -0.001 -1.355 -0.002 -1.563 -0.004 -1.594 -0.127 -1.283 -0.182 -1.668 -1.893 0.225" />
    <path class="write-flat-pen" transform="translate(0,71.289)" fill="#000000" stroke-width="1.6" __comx="261.804" __comy="263.455" __timestamp="0x181e6178c13" d="M262.154 196.532 l0.887 -3.467 0.019 -0.599 -0.313 -0.871 -0.936 -0.006 -0.679 -0.007 -1.118 0.13 -1.153 0.975 -1.098 0.987 -1.1 1.429 -0.904 1.408 -0.734 1.43 -0.502 1.462 -0.188 1.237 -0.062 0.886 -0.001 0.441 0 0.805 1.331 -0.001 1.224 -0.389 1.349 -1.156 1.265 -1.305 1.302 -1.711 1.286 -1.795 1.175 -1.809 1.109 -2.013 1.051 -2.004 0.887 -1.919 0.647 -1.804 0.589 -1.697 0.415 -1.598 0.288 -1.245 0.288 -1.038 0.232 -0.938 0.167 -0.6 0.129 -0.386 -0.107 0.128 -0.923 0.002 -0.008 -0.564 -0.006 0.938 -0.006 1.412 -0.286 2.033 -0.348 2.293 -0.349 2.513 -0.292 2.526 -0.177 2.629 -0.116 2.41 -0.058 1.997 0 1.469 0.001 1.042 0.005 0.625 0.019 0.878 1.123 -0.124 0.853 -1.376 -0.713 -0.51 -0.7 0.796 0.776 -0.124 0.019 0.461 0.005 -0.625 0.001 -1.042 0 -1.449 0.057 -1.963 0.115 -2.384 0.171 -2.583 0.287 -2.477 0.346 -2.489 0.347 -2.293 0.293 -2.136 -0.006 -1.507 -0.006 -0.938 -0.008 -0.773 -1.039 0.002 -0.454 0.545 -0.219 0.657 -0.181 0.651 -0.231 0.938 -0.291 1.047 -0.291 1.256 -0.396 1.529 -0.57 1.639 -0.628 1.74 -0.851 1.833 -1.034 1.957 -1.093 1.948 -1.142 1.735 -1.263 1.749 -1.247 1.624 -1.168 1.196 -1.084 0.929 -0.746 0.237 0.288 -0.001 0 0.597 -0.001 -0.393 0.054 -0.781 0.16 -1.056 0.425 -1.248 0.657 -1.28 0.834 -1.302 0.985 -1.281 0.987 -0.889 0.817 -0.692 0.62 -0.079 0.596 -0.007 -0.009 -0.006 -0.082 -0.246 0.019 0.235 -0.434 3.428" />
    <path class="write-flat-pen" transform="translate(0,71.289)" fill="#000000" stroke-width="1.6" __comx="280.521" __comy="265.217" __timestamp="0x181e617a9da" d="M277.625 181.549 l0.422 -3.033 0.034 -0.208 0.031 -0.208 0.031 0.528 -0.982 0.061 0.056 0.102 0.253 0.849 0.32 1.39 0.163 1.793 -0.001 2.051 -0.001 2.189 0 2.477 -0.17 2.548 -0.399 2.46 -0.4 2.161 -0.396 1.627 -0.281 0.909 -0.177 0.531 -0.063 0.226 1.413 0.193 -0.013 -0.997 0.149 -1.229 0.592 -1.576 0.662 -1.525 0.725 -1.349 0.61 -1.236 0.654 -1.001 0.615 -0.809 0.483 -0.582 0.43 -0.388 0.258 -0.231 0.29 -0.104 0.03 -0.026 -0.122 0.005 -0.383 0.009 -0.059 -0.131 0.196 0.867 0.153 1.405 0.105 1.535 0.055 1.759 0.053 1.58 0.114 1.478 0.119 1.295 0.18 0.865 0.12 0.648 0.088 0.317 0.105 0.173 1.062 0.177 0.208 -0.307 0.049 -0.851 -0.186 -0.947 -0.317 -0.05 -0.468 0.83 -0.182 0.399 -0.024 -0.098 1.062 0.177 -0.011 -0.036 -0.028 -0.099 -0.112 -0.603 -0.168 -0.803 -0.113 -1.207 -0.118 -1.44 -0.063 -1.547 -0.061 -1.784 -0.127 -1.592 -0.194 -1.513 -0.267 -1.009 -0.29 -0.757 -0.499 0.009 -0.354 0.005 -0.202 0.183 -0.29 0.104 -0.437 0.394 -0.497 0.446 -0.559 0.669 -0.66 0.858 -0.736 1.084 -0.665 1.265 -0.781 1.36 -0.728 1.601 -0.683 1.759 -0.199 1.481 -0.013 1.087 1.413 0.193 0.053 -0.191 0.17 -0.512 0.299 -0.967 0.415 -1.708 0.411 -2.216 0.412 -2.543 0.178 -2.663 0 -2.525 -0.001 -2.189 -0.001 -2.118 -0.185 -1.959 -0.375 -1.528 -0.326 -1.027 -0.523 -0.94 -1.097 0.061 0.031 0.736 0.031 0.208 0.034 0.208 0.422 3.033" />
    <path class="write-flat-pen" transform="translate(0,71.289)" fill="#000000" stroke-width="1.6" __comx="293.594" __comy="265.217" __timestamp="0x181e617ab29" d="M287.44 197.05 l3.528 -1.185 1.305 -0.883 1.136 -0.964 0.99 -0.89 0.676 -0.969 0.356 -1.024 0.001 -0.736 0 -0.827 -1.143 -0.558 -1.137 0 -1.076 0.003 -1.334 0.379 -1.07 0.963 -0.866 0.999 -0.765 1.138 -0.518 1.359 -0.332 1.366 -0.01 1.329 -0.005 1.169 0.464 1.26 1.172 0.849 1.38 0.251 1.544 0.001 1.81 -0.465 1.682 -1.008 1.609 -1.201 1.275 -1.199 1.042 -1.033 0.725 -1.204 0.166 -1.24 -0.241 -0.104 -0.749 0.877 -0.782 0.881 -1.044 0.843 -1.274 1.094 -1.519 1.092 -1.447 0.868 -1.434 0.369 -1.236 0.001 -0.938 -0.166 -0.566 -0.402 -0.231 -0.617 -0.005 -0.916 -0.01 -1.172 0.248 -1.136 0.409 -1.143 0.625 -0.947 0.756 -0.877 0.784 -0.705 0.867 -0.246 0.894 0.003 0.833 0 0.131 0.067 0 0.007 0.001 0.514 -0.224 0.644 -0.483 0.698 -0.863 0.778 -1.066 0.913 -1.128 0.784 -3.207 1.611" />
    <path class="write-flat-pen" transform="translate(0,71.289)" fill="#000000" stroke-width="1.6" __comx="301.829" __comy="265.217" __timestamp="0x181e617ac2b" d="M300.99 175.569 l-0.237 1.175 -0.005 1.668 -0.001 2.397 -0.001 2.71 -0.001 2.918 -0.001 3.127 0 3.022 0 2.71 0.001 2.189 0.002 1.251 0.004 0.625 0.015 0.773 0.784 -0.043 0.591 -0.097 0.772 -0.896 -0.387 -0.484 -0.755 0.325 -0.22 -0.097 0.553 -0.043 0.015 0.564 0.004 -0.625 0.002 -1.251 0.001 -2.189 0 -2.71 0 -3.022 -0.001 -3.127 -0.001 -2.918 -0.001 -2.71 -0.001 -2.397 -0.005 -1.668 -0.237 -1.175" />
    <path class="write-flat-pen" transform="translate(0,71.289)" fill="#000000" stroke-width="1.6" __comx="316.352" __comy="265.217" __timestamp="0x181e617ae67" d="M316.265 194.976 l1.34 -3.657 0.01 -0.713 0.009 -0.313 0.012 -0.645 -0.76 -0.353 -0.924 -0.006 -1.1 0.26 -1.222 0.977 -1.163 1.431 -1.141 1.62 -0.961 1.835 -0.829 1.913 -0.66 1.724 -0.365 1.527 -0.19 1.123 -0.001 0.788 0 1.121 1.669 -0.001 1.332 -0.883 1.461 -1.424 1.537 -1.814 1.53 -2.031 1.347 -2.245 1.155 -2.222 1.045 -2.119 0.814 -2.007 0.758 -1.889 0.646 -1.795 0.524 -1.674 0.517 -1.551 0.522 -1.462 0.408 -1.257 0.336 -1.006 0.316 -0.678 0.077 -0.553 0.003 -0.148 -1.268 0 -0.065 0.313 -0.004 1.095 -0.225 1.513 -0.294 1.996 -0.234 2.313 -0.232 2.607 -0.29 3.028 -0.233 3.139 -0.175 2.944 0 2.522 0.007 1.89 0.112 1.592 0.587 1.077 0.796 0.312 0.197 -0.164 -0.064 -0.719 -0.224 -0.799 -0.004 -1.326 0.007 -1.862 0 -2.48 0.173 -2.892 0.23 -3.114 0.289 -3.017 0.231 -2.604 0.229 -2.273 0.286 -1.964 0.238 -1.614 -0.004 -1.198 -0.065 -0.313 -1.268 0 0.003 0.061 -0.039 0.281 -0.264 0.573 -0.36 1.078 -0.403 1.244 -0.521 1.457 -0.525 1.575 -0.518 1.661 -0.629 1.748 -0.749 1.863 -0.808 1.953 -1.041 2.05 -1.163 2.155 -1.317 2.133 -1.483 1.93 -1.476 1.73 -1.32 1.285 -0.869 0.576 0.163 -0.001 0 0.287 -0.001 -0.671 0.158 -0.962 0.33 -1.391 0.614 -1.611 0.793 -1.839 0.893 -1.709 1.06 -1.506 1.038 -1.279 0.863 -0.69 0.637 -0.157 0.466 -0.006 -0.297 -0.145 0.012 -0.229 0.009 0.313 0.01 0.537 -0.692 3.655" />
    <path class="write-flat-pen" transform="translate(0,71.289)" fill="#000000" stroke-width="1.6" __comx="360.51" __comy="265.217" __timestamp="0x181e617b514" d="M366.057 184.865 l1.451 -3.034 0.249 -0.427 0.009 -0.595 0.009 -0.377 -0.128 -0.746 -1.108 -0.505 -1.192 -0.244 -1.52 -0.002 -1.7 -0.001 -2 0.112 -1.885 0.79 -1.641 0.874 -1.374 1.009 -0.951 1.027 -0.666 0.958 -0.363 1.046 0 0.957 0 0.938 0.761 1.231 1.211 0.917 1.422 1.066 1.617 0.97 1.595 0.819 1.397 1.004 0.999 0.755 0.504 0.74 0.233 0.831 0.002 0.668 -0.119 0.659 -0.598 0.619 -0.864 0.55 -1.059 0.454 -1.053 0.095 -0.895 0.101 -0.713 0 -0.463 0.001 0.532 0.01 -0.016 0.601 -0.045 -0.026 0.376 -0.452 1.053 -0.684 1.516 -1.014 -0.284 -0.519 -1.668 0.73 -1.264 0.567 -1.014 0.799 -0.045 0.599 -0.016 0.81 0.879 0.01 0.463 0.001 0.793 0 0.959 -0.108 1.264 -0.114 1.374 -0.589 1.105 -0.701 1.024 -1.049 0.228 -1.217 0.002 -0.999 -0.346 -1.253 -0.77 -1.137 -1.202 -0.913 -1.499 -1.08 -1.649 -0.849 -1.511 -0.906 -1.358 -1.019 -0.99 -0.75 -0.398 -0.645 0 -0.522 0 -0.71 0.216 -0.622 0.492 -0.709 0.787 -0.849 1.175 -0.867 1.487 -0.793 1.591 -0.669 1.708 -0.096 1.66 -0.001 1.376 -0.002 0.893 0.173 0.282 0.12 -0.012 -0.121 0.009 0.248 0.009 0.239 -0.099 0.198 -1.107 3.263" />
    <path class="write-flat-pen" transform="translate(0,71.289)" fill="#000000" stroke-width="1.6" __comx="374.579" __comy="265.217" __timestamp="0x181e617b6d5" d="M366.947 192.735 l2.207 3.35 0.422 0.658 0.64 0.659 0.737 0 0.743 0 0.854 -0.47 0.676 -1.008 0.468 -1.008 0.35 -0.872 0.293 -0.87 0.183 -0.657 0.122 -0.545 0.028 -0.13 -0.188 0.188 0.063 0.009 0.056 0.01 0.183 0.198 0.373 0.8 0.417 1.282 0.327 1.596 0.221 2.033 0.113 2.151 -0.002 2.483 -0.001 2.71 -0.001 2.524 -0.554 2.293 -0.617 1.919 -0.715 1.583 -0.647 0.986 -0.74 0.503 -0.676 0.244 -0.663 0.002 -0.524 -0.131 -0.437 -0.49 -0.38 -0.854 -0.1 -0.902 0.005 -0.949 0.138 -0.822 0.745 -0.981 1.061 -1.105 1.304 -1.224 1.486 -1.235 1.666 -1.344 1.665 -1.258 1.603 -1.301 1.37 -1.256 0.991 -1.543 -0.396 -0.34 -1.318 1.146 -1.41 1.037 -1.641 1.2 -1.695 1.244 -1.694 1.366 -1.526 1.267 -1.36 1.277 -1.14 1.188 -0.993 1.312 -0.21 1.263 0.005 1.136 0.131 1.183 0.547 1.23 0.837 0.969 1.098 0.286 1.075 0.002 1.062 -0.381 1.114 -0.748 0.859 -1.307 0.791 -1.753 0.657 -2.042 0.605 -2.502 -0.001 -2.688 -0.001 -2.71 -0.002 -2.519 -0.119 -2.227 -0.242 -2.136 -0.368 -1.739 -0.51 -1.428 -0.554 -1.076 -0.744 -0.636 -0.523 0.01 -0.516 0.009 -0.42 0.397 -0.088 0.496 -0.11 0.497 -0.165 0.594 -0.286 0.797 -0.345 0.795 -0.459 0.868 -0.482 0.659 -0.305 0.156 -0.416 0 -0.19 0 -0.171 -0.175 -0.389 -0.592 -2.723 -3.018" />
    <path class="write-flat-pen" transform="translate(0,71.289)" fill="#000000" stroke-width="1.6" __comx="384.924" __comy="265.217" __timestamp="0x181e617ba43" d="M388.206 189.796 l1.191 -0.988 -0.486 -1.013 -0.19 -0.047 -1.063 0.228 -1.299 0.556 -1.401 0.733 -1.326 0.622 -1.075 0.535 -0.893 0.532 -0.467 0.272 -0.602 0.215 -0.143 0.768 0 0.519 0.087 0.776 0.826 0.945 0.883 0.681 0.989 0.666 1.179 0.558 0.885 0.318 0.673 0.28 0.235 0.156 0.041 0.097 0.001 0.487 0 0.67 -0.394 0.788 -0.883 0.841 -1.049 0.894 -0.943 0.604 -0.766 0.5 -0.282 0.139 0.618 0.022 -0.032 0.607 0.053 -0.668 0.848 -1.338 -0.599 -0.466 -1.24 1.345 -0.294 1 -0.032 0.816 0.966 0.022 0.645 -0.278 0.856 -0.542 1.027 -0.647 1.152 -0.982 1.086 -1.035 0.649 -1.297 0 -0.997 0.001 -0.764 -0.307 -0.736 -0.692 -0.469 -0.833 -0.346 -0.853 -0.307 -1.023 -0.484 -0.864 -0.584 -0.739 -0.57 -0.448 -0.514 -0.029 -0.266 0 -0.314 -0.028 0.143 -0.023 0.007 0.576 -0.353 0.845 -0.51 1.011 -0.507 1.339 -0.628 1.379 -0.726 1.134 -0.486 0.791 -0.189 0.041 -0.047 -0.486 -1.013 -0.708 1.376" />
    <path class="write-flat-pen" transform="translate(0,71.289)" fill="#000000" stroke-width="1.6" __comx="393.53" __comy="265.217" __timestamp="0x181e617bafb" d="M388.125 197.624 l4.923 -1.524 1.907 -0.965 1.653 -0.956 1.319 -0.866 0.837 -0.723 0.464 -0.765 -0.054 -0.562 -0.226 -0.55 -1.387 -0.051 -0.088 0.632 0.751 0.245 -0.11 -0.133 -0.054 0.064 -0.232 0.277 -0.669 0.527 -1.23 0.802 -1.591 0.92 -1.801 0.911 -4.703 1.894" />
    <path class="write-flat-pen" transform="translate(0,71.289)" fill="#000000" stroke-width="1.6" __comx="395.865" __comy="265.217" __timestamp="0x181e617bbd3" d="M393.798 190.654 l-1.316 -0.29 -0.009 1.284 -0.008 1.146 -0.011 1.447 -0.064 1.667 -0.001 1.367 -0.005 1.146 -0.002 1.015 0.188 0.844 0.742 0.572 0.809 0.146 0.799 -0.002 1.034 -0.141 1.096 -0.618 0.839 -0.568 0.705 -0.5 0.756 -0.491 -0.148 -0.452 -0.971 0.074 -0.917 0.334 -0.899 0.475 -0.873 0.425 -0.704 0.067 -0.591 -0.002 -0.35 -0.063 -0.07 -0.054 -0.044 -0.199 -0.002 -0.861 -0.005 -1.146 -0.001 -1.343 0.052 -1.668 -0.011 -1.471 -0.008 -1.146 -0.009 0.033 0 -0.29" />
    <path class="write-flat-pen" transform="translate(0,71.289)" fill="#000000" stroke-width="1.6" __comx="405.707" __comy="265.217" __timestamp="0x181e617bd1a" d="M399.946 198.988 l3.452 -1.021 1.383 -0.858 1.419 -0.849 1.246 -0.958 1.111 -0.84 0.812 -0.673 0.479 -0.573 0.121 -0.434 0 -0.861 -1.188 0 -1.043 0.011 -1.415 0.001 -1.548 0.696 -1.34 0.765 -1.161 0.871 -0.889 0.786 -0.555 0.729 -0.378 0.794 -0.077 0.777 -0.004 0.658 -0.001 0.912 0.528 0.95 1.085 0.651 1.223 0.464 1.343 0.23 1.508 -0.005 1.419 -0.012 1.38 -0.382 1.186 -0.722 0.879 -0.739 0.804 -1.031 -0.507 -0.517 -0.987 0.727 -0.859 0.512 -1.015 0.529 -1.053 0.244 -1.245 -0.012 -1.388 -0.005 -1.09 -0.187 -0.978 -0.37 -0.653 -0.391 -0.167 -0.3 -0.001 -0.547 -0.004 -0.593 0.039 -0.474 0.201 -0.457 0.372 -0.522 0.733 -0.674 1.041 -0.797 1.209 -0.694 1.233 -0.555 1.134 0.001 1.043 0.011 -0.145 0 0 -0.653 0.005 -0.017 -0.216 0.26 -0.694 0.577 -1.09 0.827 -1.187 0.918 -1.362 0.819 -1.282 0.81 -3.122 1.53" />
    <path class="write-flat-pen" transform="translate(0,71.289)" fill="#000000" stroke-width="1.6" __comx="420.21" __comy="265.217" __timestamp="0x181e617bf7b" d="M412.856 192.909 l0.198 0.912 -0.023 0.954 -0.009 1.355 -0.005 1.402 -0.164 0.959 -0.213 0.852 -0.196 0.436 0.098 -0.177 1.049 -0.001 -0.005 0.448 0.128 -0.769 0.566 -1.033 0.78 -1.228 0.779 -1.135 0.771 -1.012 0.793 -0.82 0.707 -0.783 0.56 -0.366 0.494 -0.296 0.254 -0.13 0.081 0.001 0.232 0.009 -0.36 0.01 -0.007 0.063 0.041 0.982 -0.007 1.128 -0.005 1.355 -0.003 1.251 -0.004 0.857 -0.143 0.596 -0.139 0.328 -0.04 0.07 1.304 0.338 -0.001 -0.104 -0.011 -0.636 0.177 -0.669 0.574 -1.044 0.728 -1.029 0.728 -1.144 0.733 -0.935 0.729 -1.027 0.644 -0.689 0.562 -0.506 0.536 -0.482 0.372 -0.222 0.336 -0.349 -0.077 0.082 -0.182 0.011 -0.063 0.01 -0.232 -0.126 0.102 0.568 0.204 0.888 0.05 1.167 -0.003 1.443 -0.001 1.459 -0.002 1.251 -0.001 1.042 -0.001 0.73 0 0.521 0.002 0.208 0.015 0.787 1.145 -0.147 0.79 -0.576 -0.274 -0.609 -0.746 0.115 0.45 -0.147 0.015 0.578 0.002 -0.208 0 -0.521 -0.001 -0.73 -0.001 -1.042 -0.002 -1.251 -0.001 -1.459 -0.003 -1.475 -0.066 -1.334 -0.259 -0.988 -0.246 -1.1 -0.579 -0.335 -0.295 0.01 -0.298 0.011 -0.309 0.29 -0.243 0.276 -0.323 0.195 -0.623 0.56 -0.597 0.537 -0.746 0.771 -0.777 1.057 -0.773 0.941 -0.778 1.149 -0.778 1.055 -0.7 1.249 -0.286 0.999 -0.011 0.823 -0.001 0.104 1.304 0.338 0.076 -0.139 0.208 -0.505 0.205 -0.863 -0.004 -1.019 -0.003 -1.251 -0.005 -1.355 -0.007 -1.165 -0.075 -1.102 -0.239 -1.188 -0.707 0.01 -0.232 0.009 -0.382 0.001 -0.557 0.287 -0.549 0.329 -0.714 0.468 -0.8 0.884 -0.83 0.848 -0.851 1.073 -0.843 1.158 -0.842 1.274 -0.708 1.26 -0.22 1.107 -0.005 1.074 1.165 -0.001 0.33 -0.594 0.268 -0.606 0.25 -1.024 0.184 -1.125 -0.005 -1.516 -0.009 -1.355 -0.023 -1.339 -0.962 -0.876" />
    <path class="write-flat-pen" transform="translate(0,71.289)" fill="#000000" stroke-width="1.6" __comx="439.733" __comy="265.217" __timestamp="0x181e617c164" d="M443.667 188.105 l1.381 -1.439 -0.524 -0.953 -0.521 -0.103 -0.811 0 -1.181 0 -1.517 0.342 -1.454 0.545 -1.463 0.633 -1.26 0.54 -0.953 0.571 -0.758 0.606 -0.188 0.847 0.002 0.496 0 0.677 0.636 0.758 0.99 0.372 1.148 0.428 1.359 0.311 1.364 0.403 1.225 0.397 0.742 0.352 0.404 0.362 0.168 0.363 -0.001 0.476 -0.003 0.702 -0.04 0.428 -0.367 0.325 -0.657 0.541 -0.673 0.257 -0.746 0.205 -0.563 0.203 -0.344 0.082 -0.343 0.015 -0.614 0.43 0.104 0.461 0.104 0.525 0.842 0 0.104 -0.525 0.104 0.252 -0.267 0.222 0.12 0.015 0.583 -0.127 0.596 -0.214 0.76 -0.212 0.949 -0.369 0.849 -0.71 0.791 -0.718 0.076 -1.031 -0.003 -0.757 -0.001 -0.775 -0.411 -0.888 -0.755 -0.68 -0.996 -0.482 -1.324 -0.437 -1.417 -0.431 -1.306 -0.314 -1.053 -0.406 -0.632 -0.254 -0.06 -0.076 0 -0.156 0.002 -0.338 0.043 -0.196 0.285 -0.227 0.785 -0.471 1.173 -0.502 1.433 -0.618 1.327 -0.497 1.263 -0.284 1.02 0 0.811 0 0.521 -0.103 -0.524 -0.953 -0.716 1.862" />
    <path class="write-flat-pen" transform="translate(0,71.289)" fill="#000000" stroke-width="1.6" __comx="455.441" __comy="265.217" __timestamp="0x181e617c224" d="M454.008 197.143 l1.569 0.107 0.444 -0.009 0.689 -0.127 0.166 -0.553 -0.56 -0.501 -0.599 -0.217 -1.709 0.107" />
  </g>
</svg>
