<svg class="write-page" color-interpolation="linearRGB" width="920px" height="1654px" xmlns="http://www.w3.org/2000/svg" xmlns:xlink="http://www.w3.org/1999/xlink">
  <g class="write-content write-v3" xruling="0" yruling="40" marginLeft="100" papercolor="#FFFFFF" rulecolor="#9F0000FF">
    <g class="ruleline write-std-ruling write-scale-down" fill="none" stroke="#0000FF" stroke-opacity="0.624" stroke-width="1" shape-rendering="crispEdges" vector-effect="non-scaling-stroke">
      <rect class="pagerect" fill="#FFFFFF" stroke="none" x="0" y="0" width="920" height="1654" />
      <path class="yrule_1" d="M0 40 l920 0" />
      <path d="M0 80 l920 0" />
      <path d="M0 120 l920 0" />
      <path d="M0 160 l920 0" />
      <path d="M0 200 l920 0" />
      <path d="M0 240 l920 0" />
      <path d="M0 280 l920 0" />
      <path d="M0 320 l920 0" />
      <path d="M0 360 l920 0" />
      <path d="M0 400 l920 0" />
      <path d="M0 440 l920 0" />
      <path d="M0 480 l920 0" />
      <path d="M0 520 l920 0" />
      <path d="M0 560 l920 0" />
      <path d="M0 600 l920 0" />
      <path d="M0 640 l920 0" />
      <path d="M0 680 l920 0" />
      <path d="M0 720 l920 0" />
      <path d="M0 760 l920 0" />
      <path d="M0 800 l920 0" />
      <path d="M0 840 l920 0" />
      <path d="M0 880 l920 0" />
      <path d="M0 920 l920 0" />
      <path d="M0 960 l920 0" />
      <path d="M0 1000 l920 0" />
      <path d="M0 1040 l920 0" />
      <path d="M0 1080 l920 0" />
      <path d="M0 1120 l920 0" />
      <path d="M0 1160 l920 0" />
      <path d="M0 1200 l920 0" />
      <path d="M0 1240 l920 0" />
      <path d="M0 1280 l920 0" />
      <path d="M0 1320 l920 0" />
      <path d="M0 1360 l920 0" />
      <path d="M0 1400 l920 0" />
      <path d="M0 1440 l920 0" />
      <path d="M0 1480 l920 0" />
      <path d="M0 1520 l920 0" />
      <path d="M0 1560 l920 0" />
      <path d="M0 1600 l920 0" />
      <path d="M0 1640 l920 0" />
      <path class="leftmargin" stroke="#FF0000" d="M100 0 l0 1654" />
    </g>
    <path class="write-flat-pen" transform="translate(0,34.079)" fill="#000000" stroke-width="1.6" __comx="77.797" __comy="53.575" __timestamp="0x1823b163ab0" d="M81.179 19.318 l2.321 -2.422 0.353 -0.472 0.233 -0.386 0.23 -0.589 0.133 -0.29 0.162 -0.235 -0.007 0.118 -0.925 0.032 -0.118 -0.493 -0.052 0.503 -0.643 1.15 -0.896 2.073 -1.262 2.838 -1.45 3.29 -1.512 3.284 -1.566 3.271 -1.569 2.821 -1.315 2.371 -1.108 1.772 -0.837 1.078 -0.204 0.227 0.829 0.022 -0.043 0.551 -0.096 -1.136 -0.231 -1.658 -0.589 0 -0.231 1.658 -0.096 1.136 -0.043 0.779 1.081 0.022 0.68 -0.682 0.931 -1.193 1.165 -1.863 1.337 -2.4 1.588 -2.859 1.591 -3.318 1.519 -3.305 1.454 -3.298 1.264 -2.842 0.872 -2.016 0.746 -1.349 0.074 -0.86 -0.118 -0.721 -1.051 0.032 -0.133 0.572 -0.091 0.219 -0.119 0.392 -0.148 0.547 -0.145 0.295 -0.278 0.437 -1.864 2.755" />
    <path class="write-flat-pen" transform="translate(0,34.079)" fill="#000000" stroke-width="1.6" __comx="80.907" __comy="54.917" __timestamp="0x1823b163ba7" d="M73.068 16.254 l2.924 3.712 1.364 1.694 1.546 2.264 1.755 2.603 1.746 2.817 1.567 2.936 1.393 2.616 1.082 1.946 0.787 1.298 0.593 0.702 0.921 -0.027 -0.059 -0.876 -1.236 -1.143 -0.46 0.383 0.663 1.134 -0.059 -0.649 0.795 -0.027 -0.164 -0.206 -0.728 -1.201 -1.065 -1.916 -1.385 -2.609 -1.59 -2.971 -1.79 -2.863 -1.781 -2.622 -1.611 -2.28 -1.414 -1.714 -3.087 -3.582" />
    <path class="write-flat-pen" transform="translate(0,34.079)" fill="#000000" stroke-width="1.6" __comx="78.225" __comy="49.467" __timestamp="0x1823b163c64" d="M77.074 10.489 l-0.095 5.373 -0.029 4.218 0.238 5.135 0.38 5.235 0.379 4.662 0.429 4.194 1.125 -0.098 -0.301 -4.201 -0.378 -4.653 -0.378 -5.215 -0.268 -5.089 -0.029 -4.188 -0.095 -5.373" />
    <path class="write-flat-pen" transform="translate(0,34.079)" fill="#000000" stroke-width="1.6" __comx="124.382" __comy="65.558" __timestamp="0x1823b168cdf" d="M123.922 16.81 l-0.475 -0.566 -0.807 0.413 -0.13 0.341 -0.007 1.022 -0.005 1.477 -0.001 2.045 -0.003 2.385 0 2.644 0.315 3.322 0.315 3.755 0.442 3.869 0.379 3.638 0.38 3.073 0.254 2.059 0.202 1.212 0.308 0.831 1.182 -0.002 -0.025 -1.681 -0.052 -1.39 -0.375 -2.494 -0.871 0.081 0.084 2.467 -0.052 1.336 -0.025 0.364 1.056 -0.002 0.055 0.15 -0.177 -1.06 -0.251 -2.031 -0.377 -3.061 -0.379 -3.632 -0.442 -3.856 -0.316 -3.742 -0.317 -3.266 0 -2.581 -0.003 -2.385 -0.001 -2.045 -0.005 -1.477 -0.007 -1.022 -0.13 -0.341 -0.807 0.413 0.688 0.27" />
    <path class="write-flat-pen" transform="translate(0,34.079)" fill="#000000" stroke-width="1.6" __comx="130.024" __comy="65.558" __timestamp="0x1823b168f2e" d="M125.303 19.395 l0.817 -0.902 0.761 -0.353 1.028 -0.421 1.076 -0.301 1.109 0.008 1.01 0.002 0.898 0.004 0.578 0.09 0.253 0.155 0.128 0.35 -0.003 0.902 -0.004 1.019 -0.5 1.4 -1.007 1.492 -1.299 1.558 -1.345 1.544 -1.345 1.101 -1.368 1.121 -1.112 0.783 -0.789 0.546 -0.637 0.344 -0.176 0.127 0.088 0.001 -0.273 1.273 0.335 0.154 0.775 0.119 0.827 0.324 1.005 0.343 1.08 0.438 1.2 0.654 1.338 0.88 1.428 1.119 1.426 1.116 1.189 1.129 0.939 0.79 0.56 0.559 0.266 0.24 -0.106 -0.096 0.001 -0.899 0.069 0.008 -0.616 0.033 -0.599 -0.202 -0.556 -0.268 -0.581 -0.619 -0.494 0.275 0.325 1.012 0.706 0.641 0.916 0.48 0.899 0.033 1.332 0.008 0.001 -1.126 -0.358 -0.323 -0.239 -0.214 -0.576 -0.577 -0.955 -0.8 -1.21 -1.143 -1.479 -1.155 -1.476 -1.153 -1.44 -0.938 -1.326 -0.709 -1.193 -0.471 -1.015 -0.339 -0.941 -0.357 -0.74 -0.108 -0.17 -0.073 -0.273 1.273 0.341 0.001 0.455 -0.328 0.626 -0.338 0.852 -0.59 1.161 -0.807 1.41 -1.15 1.434 -1.171 1.433 -1.637 1.352 -1.623 1.14 -1.689 0.636 -1.781 -0.004 -1.253 -0.003 -1.142 -0.377 -1.013 -0.883 -0.527 -0.937 -0.137 -0.996 0.004 -1.01 0.002 -1.29 0.008 -1.323 0.381 -1.119 0.487 -1.133 0.556 -0.526 1.515" />
    <path class="write-flat-pen" transform="translate(0,34.079)" fill="#000000" stroke-width="1.6" __comx="143.278" __comy="65.558" __timestamp="0x1823b1690fa" d="M137.777 34.053 l3.706 0.928 1.227 -1.175 0.885 -1.099 0.676 -1.219 0.42 -1.018 0.143 -0.925 -0.005 -0.62 -0.004 -0.623 -0.354 -0.623 -0.856 -0.19 -0.766 0.001 -0.862 0.001 -1.067 0.138 -1.025 0.657 -0.788 0.589 -0.73 0.597 -0.624 0.614 -0.5 0.637 -0.383 0.677 -0.224 0.792 -0.143 0.884 -0.007 1.075 -0.006 1.311 0.741 1.357 0.979 1.143 1.033 0.752 1.236 0.744 1.29 0.389 1.429 0.123 1.293 0 1.492 -0.004 1.301 -0.67 1.012 -0.636 0.831 -0.822 0.525 -1.036 0.416 -1.238 -0.337 -0.211 -0.931 0.916 -0.611 0.781 -0.684 0.541 -0.883 0.5 -0.972 0.466 -1.16 -0.004 -1.233 0 -1.223 -0.104 -0.983 -0.293 -1.037 -0.619 -0.861 -0.611 -0.789 -0.902 -0.522 -0.915 -0.006 -0.96 -0.007 -0.97 0.109 -0.707 0.155 -0.571 0.248 -0.459 0.384 -0.499 0.513 -0.522 0.659 -0.539 0.728 -0.547 0.743 -0.479 0.701 -0.089 0.78 0.001 0.623 0.001 0.154 0.037 -0.101 -0.168 -0.004 0.286 -0.005 0.516 -0.109 0.665 -0.338 0.8 -0.587 1.053 -0.757 0.946 -0.667 0.642 -3.112 -0.377" />
    <path class="write-flat-pen" transform="translate(0,34.079)" fill="#000000" stroke-width="1.6" __comx="155.944" __comy="65.558" __timestamp="0x1823b1692bc" d="M161.272 25.657 l-1.312 -0.247 -0.884 -0.001 -1.012 0.39 -1.097 0.464 -1.213 0.572 -1.187 0.561 -1.131 0.479 -1.016 0.727 -0.821 0.61 -0.602 0.676 -0.379 0.676 -0.001 0.584 0.142 0.787 1.243 0.481 1.173 0.472 1.373 0.354 1.385 0.34 1.222 0.33 1.198 0.454 0.72 0.199 0.173 0.134 0.014 0.033 -0.002 0.316 -0.151 0.4 -0.71 0.639 -1.206 0.758 -1.3 0.779 -1.309 0.673 -1.106 0.586 -0.613 0.406 -0.556 0.134 -0.249 0.248 0.452 1.177 0.063 -0.063 0.934 -0.102 1.326 -1.247 -0.434 -0.551 -1.246 0.778 -0.581 -0.102 -0.063 -0.063 0.452 1.177 0.003 0.02 0.454 -0.093 0.776 -0.503 1.041 -0.55 1.343 -0.69 1.352 -0.811 1.319 -0.833 1.058 -0.952 0.354 -0.963 -0.002 -0.82 -0.239 -0.648 -0.711 -0.547 -0.922 -0.256 -1.202 -0.455 -1.304 -0.352 -1.393 -0.341 -1.279 -0.328 -1.1 -0.437 -0.525 -0.201 0.016 0.105 -0.001 -0.098 0.126 -0.232 0.408 -0.46 0.694 -0.526 0.878 -0.636 1.016 -0.43 1.212 -0.575 1.186 -0.563 1.05 -0.445 0.756 -0.292 0.632 -0.001 1.312 -0.247" />
    <path class="write-flat-pen" transform="translate(0,34.079)" fill="#000000" stroke-width="1.6" __comx="168.475" __comy="65.558" __timestamp="0x1823b169394" d="M162.113 32.68 l3.943 -0.459 1.689 -0.466 1.663 -0.575 1.607 -0.557 1.414 -0.333 0.98 -0.233 0.681 -0.117 0.899 -0.04 -0.067 -0.747 -0.147 -0.646 -0.838 0 -0.147 0.646 -0.067 -0.52 0.268 -0.04 -0.834 0.111 -1.04 0.221 -1.491 0.348 -1.676 0.579 -1.621 0.561 -1.594 0.443 -3.772 1.055" />
    <path class="write-flat-pen" transform="translate(0,34.079)" fill="#000000" stroke-width="1.6" __comx="171.357" __comy="65.558" __timestamp="0x1823b169484" d="M166.956 24.041 l-0.229 4.813 0.247 2.096 0.312 2.177 0.441 2.53 0.504 2.187 0.468 1.82 0.756 1.219 0.987 0.356 1.118 0 1.199 -0.869 1.056 -1.21 1.04 -1.285 1.133 -1.506 -0.802 -0.694 -1.328 1.341 -1.107 1.214 -0.964 1.062 -0.695 0.495 -0.397 0 -0.276 -0.099 -0.381 -0.599 -0.416 -1.587 -0.506 -2.129 -0.443 -2.469 -0.32 -2.139 -0.258 -1.994 -0.229 -4.729" />
    <path class="write-flat-pen" transform="translate(0,34.079)" fill="#000000" stroke-width="1.6" __comx="206.392" __comy="65.558" __timestamp="0x1823b169d0a" d="M209.688 32.838 l-0.227 0.631 1.263 0 0.061 -0.634 -0.338 -0.612 -0.328 -0.593 -0.454 -0.682 -0.751 -0.601 -0.874 -0.286 -0.93 -0.129 -1.058 0 -1.112 0 -1.164 0.131 -1.358 0.642 -1.245 0.873 -1.019 1.098 -0.959 1.234 -0.621 1.489 -0.407 1.467 -0.134 1.571 0.001 1.393 0.001 1.2 0.225 1.217 0.591 0.929 0.656 0.888 1.076 0.321 0.922 -0.002 1.243 -0.004 1.301 -1.384 1.054 -1.425 1.084 -1.863 1 -1.854 0.816 -1.74 0.67 -1.597 0.563 -1.157 0.382 -1.043 0.15 -0.364 0.269 -0.32 0.003 0.258 -0.747 0.016 -0.183 -0.15 0.136 0.533 0.3 0.922 0.374 1.244 0.44 1.379 0.446 1.268 0.449 1.157 0.46 1.063 0.425 0.763 0.618 0.725 0.679 -0.024 0.542 -0.081 0.77 -0.998 -0.562 -0.547 -0.66 0.473 -0.09 -0.081 -0.079 -0.024 -0.14 -0.184 -0.332 -0.6 -0.424 -0.982 -0.435 -1.115 -0.438 -1.231 -0.444 -1.347 -0.383 -1.255 -0.332 -0.896 -0.243 -0.83 -0.436 -0.377 -0.873 0.016 0.003 0.485 -0.11 0.134 -0.229 0.545 -0.375 1.002 -0.573 1.115 -0.719 1.584 -0.826 1.668 -1.02 1.781 -1.063 1.773 -0.966 1.301 -0.845 0.888 -0.651 -0.004 -0.719 -0.002 -0.439 -0.133 -0.354 -0.475 -0.419 -0.661 -0.154 -0.828 0.001 -1.072 0.001 -1.334 0.119 -1.383 0.351 -1.259 0.515 -1.238 0.809 -1.038 0.875 -0.947 1.028 -0.718 1.041 -0.494 0.856 -0.096 1.034 0 0.962 0 0.711 0.098 0.515 0.168 0.385 0.308 0.304 0.454 0.303 0.543 0.167 0.297 0.061 0.275 1.263 0 -0.227 -0.631" />
    <path class="write-flat-pen" transform="translate(0,34.079)" fill="#000000" stroke-width="1.6" __comx="218.517" __comy="65.558" __timestamp="0x1823b169ed2" d="M223.693 27.044 l-0.658 -0.253 -0.568 -0.004 -0.89 -0.002 -1.236 0.259 -1.367 0.735 -1.498 0.938 -1.387 1.067 -1.168 1.168 -1.042 1.054 -0.738 0.962 -0.512 0.79 -0.18 0.642 0 0.778 0.737 0.53 1.159 0.139 1.366 0 1.515 0.001 1.578 0 1.606 0 1.389 -0.117 1.046 -0.002 0.695 -0.002 -0.286 -0.002 0.002 -0.551 0 0.441 -0.225 0.548 -0.894 0.903 -1.027 0.87 -1.1 0.77 -0.864 0.555 -0.487 0.294 -0.204 0.067 0.687 0.009 -0.073 0.798 0.529 -0.59 1.181 -1.517 -0.554 -0.493 -1.332 1.309 -0.986 0.773 -0.073 1.025 0.813 0.009 0.554 -0.16 0.65 -0.388 0.904 -0.581 1.173 -0.82 1.12 -0.948 1.126 -1.141 0.406 -1.042 0 -0.695 0.002 -0.778 -1.043 -0.002 -0.695 -0.002 -1.101 -0.002 -1.389 0.111 -1.551 0 -1.578 0 -1.515 0.001 -1.286 0 -0.735 -0.088 0.105 0.076 0 0.096 0.073 -0.267 0.372 -0.573 0.651 -0.855 0.978 -0.991 1.105 -1.104 1.264 -0.978 1.407 -0.88 1.158 -0.628 0.911 -0.195 0.751 -0.002 0.568 -0.004 0.658 -0.253" />
    <path class="write-flat-pen" transform="translate(0,34.079)" fill="#000000" stroke-width="1.6" __comx="229.361" __comy="65.558" __timestamp="0x1823b16a052" d="M233.332 24.954 l0.114 -0.686 -0.967 -0.626 -0.611 0.259 -0.823 0.738 -0.996 0.784 -1.273 1.031 -1.212 1.036 -1.155 1.036 -0.849 0.822 -0.496 0.558 -0.374 0.339 -0.143 0.516 0.001 0.504 0.401 0.722 1.151 0.444 1.271 0.361 1.497 0.234 1.486 0.223 1.31 0.321 1.039 0.416 0.548 0.329 0.262 0.472 0.002 0.613 0 0.787 -0.738 0.972 -1.527 1.056 -1.913 1.117 -1.979 1.026 -1.731 0.823 -1.015 0.537 -0.801 0.553 0.192 0.535 0.997 -0.094 1.132 -0.372 1.805 -0.768 2.062 -1.019 2.002 -1.155 1.757 -1.215 1.156 -1.527 0 -1.257 0.002 -0.977 -0.622 -1.118 -0.967 -0.58 -1.234 -0.493 -1.468 -0.36 -1.545 -0.232 -1.408 -0.221 -1.128 -0.32 -0.617 -0.238 0.022 0.04 0.001 0.05 -0.017 0.062 0.131 -0.116 0.514 -0.578 0.792 -0.768 1.118 -1.009 1.187 -1.009 1.252 -1.013 1.025 -0.806 0.692 -0.625 0.399 -0.196 -0.967 -0.626 0.114 0.686" />
    <path class="write-flat-pen" transform="translate(0,34.079)" fill="#000000" stroke-width="1.6" __comx="245.623" __comy="65.558" __timestamp="0x1823b16a89c" d="M240.802 28.545 l-1.212 -0.47 -0.702 0.623 -0.042 0.341 -0.006 1.136 -0.013 1.704 -0.008 2.158 -0.006 2.326 0.321 2.113 0.379 1.952 0.319 1.504 0.359 1.293 0.742 0.958 0.793 0 0.97 0 1.16 -1.044 1.011 -1.578 0.902 -1.63 0.832 -1.75 0.64 -1.646 0.44 -1.523 0.385 -1.524 0.185 -1.314 0.062 -1.072 -0.003 -0.815 -0.001 -0.568 0.001 -0.454 0 -0.341 0.002 -0.227 0 -0.114 -1.299 0 -0.016 0.341 -0.007 0.986 0.323 1.42 0.247 1.472 0.312 1.473 0.251 1.612 0.398 1.434 0.46 1.194 0.435 0.914 0.516 0.557 0.659 0.188 0.633 -0.013 0.614 -0.486 0.455 -1.268 0.14 -1.874 -0.581 -0.124 -0.615 1.661 -0.429 0.776 -0.018 -0.032 0.002 -0.013 -0.098 -0.039 -0.115 -0.124 -0.322 -0.676 -0.424 -1.078 -0.36 -1.292 -0.254 -1.569 -0.32 -1.48 -0.258 -1.482 -0.308 -1.306 -0.007 -0.832 -0.016 -0.341 -1.299 0 0 0.114 0.002 0.227 0 0.341 0.001 0.454 -0.001 0.568 -0.003 0.775 -0.064 0.973 -0.194 1.185 -0.373 1.43 -0.444 1.431 -0.622 1.535 -0.81 1.658 -0.865 1.551 -0.884 1.376 -0.608 0.546 -0.419 0 -0.091 0 -0.142 -0.178 -0.273 -0.979 -0.313 -1.449 -0.379 -1.91 -0.31 -1.977 -0.006 -2.218 -0.008 -2.158 -0.013 -1.704 -0.006 -1.136 -0.042 -0.341 -0.702 0.623 1.289 -0.17" />
    <path class="write-flat-pen" transform="translate(0,34.079)" fill="#000000" stroke-width="1.6" __comx="258.949" __comy="65.558" __timestamp="0x1823b16a9fc" d="M253.768 24.39 l0.548 4.747 0.305 1.934 0.305 1.911 0.175 2.026 0.183 1.927 0.121 1.559 -0.001 1.14 0.063 0.682 0 0.311 1.308 0 -0.001 -0.114 -0.003 -0.909 -0.008 -1.477 -0.005 -1.704 -0.002 -1.59 -0.007 -1.433 0.175 -1.287 0.283 -1.139 0.525 -0.954 0.466 -0.841 0.685 -0.724 0.73 -0.659 0.749 -0.649 0.809 -0.442 0.892 -0.477 0.935 -0.402 1.133 -0.46 -0.119 -0.496 -1.257 0.113 -1.085 0.279 -1.002 0.432 -0.958 0.467 -0.893 0.714 -0.785 0.704 -0.83 0.867 -0.544 0.976 -0.612 1.091 -0.348 1.36 -0.204 1.439 -0.007 1.52 -0.002 1.59 -0.005 1.704 -0.008 1.477 -0.003 0.909 -0.001 0.114 1.308 0 0 -0.371 -0.063 -0.682 -0.001 -1.132 -0.131 -1.622 -0.196 -1.935 -0.204 -2.064 -0.327 -1.952 -0.326 -1.929 -0.969 -4.677" />
    <path class="write-flat-pen" transform="translate(0,34.079)" fill="#000000" stroke-width="1.6" __comx="273.17" __comy="65.558" __timestamp="0x1823b16aba8" d="M265.311 35.434 l3.829 -0.479 1.572 -0.857 1.492 -1.048 1.367 -1.054 1.167 -1.167 0.914 -0.942 0.581 -0.784 0.318 -0.865 -0.005 -0.449 -0.001 -0.613 -1.176 -0.205 -1.031 0.007 -1.19 0.128 -1.197 0.507 -1.101 0.698 -1.005 0.563 -0.983 0.583 -0.77 0.57 -0.769 0.49 -0.513 0.641 -0.497 0.617 -0.395 0.835 -0.149 1.138 -0.072 0.948 -0.005 1.086 0.143 1.244 0.855 1.122 1.114 0.882 1.303 0.74 1.51 0.494 1.685 0.242 1.627 -0.005 1.819 -0.016 1.725 -0.657 1.442 -0.89 1.274 -1.159 0.987 -1.23 -0.1 -0.125 -1.411 0.687 -1.378 0.886 -1.337 0.7 -1.432 0.479 -1.591 -0.016 -1.53 -0.005 -1.472 -0.213 -1.269 -0.415 -1.096 -0.623 -0.906 -0.708 -0.535 -0.695 -0.11 -0.8 -0.005 -0.959 0.054 -0.869 0.104 -0.907 0.236 -0.529 0.387 -0.519 0.371 -0.495 0.62 -0.419 0.745 -0.566 0.911 -0.553 1.016 -0.573 1.045 -0.665 0.95 -0.402 0.957 -0.099 0.864 0.007 0.087 0.023 -0.001 -0.386 -0.005 0.233 -0.187 0.498 -0.43 0.58 -0.854 0.875 -1.106 1.105 -1.285 0.99 -1.412 0.997 -1.333 0.733 -3.57 0.801" />
    <path class="write-flat-pen" transform="translate(0,34.079)" fill="#000000" stroke-width="1.6" __comx="289.964" __comy="65.558" __timestamp="0x1823b16addb" d="M288.894 33.334 l0.148 -3.356 -0.262 -0.808 -0.349 -0.673 -0.538 -0.582 -0.633 -0.35 -0.579 -0.025 -0.786 -0.021 -0.898 0.472 -0.934 1.277 -0.866 1.539 -0.714 1.727 -0.773 1.732 -0.533 1.759 -0.397 1.641 -0.204 1.535 -0.067 1.179 -0.006 0.928 -0.002 0.632 0.346 0.622 1.15 0 1.069 -0.592 1.171 -1.243 1.228 -1.633 1.263 -1.845 1.254 -1.957 1.203 -1.965 1.059 -2.079 1 -1.961 0.879 -2.094 0.695 -2.094 0.57 -2.425 0.431 -2.421 0.25 -2.406 0.252 -2.388 0.189 -1.928 0.189 -1.587 0.13 -1.126 0.136 -0.794 0.061 -0.473 -0.068 0.153 -0.786 0.048 -0.059 0.09 -0.013 0.994 -0.131 1.452 -0.135 1.732 -0.009 2.297 -0.005 2.953 -0.003 3.521 0 4.007 0.382 4.261 0.64 3.801 0.776 3.118 0.798 2.341 0.782 1.476 0.906 0.905 1.328 -0.163 0 -0.871 -0.806 -0.163 -0.357 -0.458 -0.607 -1.25 -0.717 -2.203 -0.739 -3.016 -0.623 -3.696 -0.375 -4.145 0 -3.945 -0.003 -3.521 -0.005 -2.953 -0.009 -2.247 0.117 -1.676 0.121 -1.502 -0.013 -1.051 -0.059 -1.273 -1.038 0.048 -0.321 0.607 -0.065 0.663 -0.117 0.796 -0.123 1.146 -0.19 1.594 -0.19 1.934 -0.253 2.383 -0.255 2.365 -0.453 2.35 -0.567 2.346 -0.694 1.995 -0.889 1.995 -1.02 1.901 -1.088 2.011 -1.197 1.897 -1.272 1.905 -1.263 1.79 -1.172 1.547 -0.976 1.029 -0.572 0.317 0.013 0 0.22 0.395 -0.002 -0.276 -0.006 -0.89 0.06 -1.093 0.175 -1.418 0.361 -1.54 0.478 -1.649 0.742 -1.675 0.675 -1.681 0.776 -1.415 0.708 -0.995 0.364 -0.21 0.477 -0.021 0.305 -0.025 0.251 0.104 0.346 0.327 0.282 0.463 0.243 0.555 0.148 3.189" />
    <path class="write-flat-pen" transform="translate(0,34.079)" fill="#000000" stroke-width="1.6" __comx="329.46" __comy="65.558" __timestamp="0x1823b16b095" d="M319.982 30.742 l4.863 -1.262 2.264 -0.678 2.47 -0.796 2.471 -0.798 2.284 -0.799 1.886 -0.684 1.394 -0.489 0.809 -0.397 0.692 -0.404 -0.316 -0.878 -0.818 0.139 -0.832 0.284 -1.384 0.42 -1.902 0.68 -2.262 0.791 -2.454 0.793 -2.455 0.794 -2.282 0.685 -4.604 2.097" />
    <path class="write-flat-pen" transform="translate(0,34.079)" fill="#000000" stroke-width="1.6" __comx="335.083" __comy="65.558" __timestamp="0x1823b16b19a" d="M329.754 20.317 l-0.203 4.632 -0.008 2.272 -0.015 2.499 -0.015 2.499 -0.016 2.397 0.057 1.961 0.13 1.598 0.439 1.113 0.749 0.449 1.115 -0.001 1.201 -0.868 1.217 -1.465 1.338 -2.088 1.364 -2.192 1.228 -2.194 1.13 -2.085 1.204 -2.324 -0.643 -0.378 -1.447 2.181 -1.269 2.005 -1.298 2.122 -1.415 2.124 -1.314 2.002 -1.056 1.261 -0.693 0.496 -0.274 -0.001 -0.008 -0.005 -0.192 -0.477 -0.122 -1.355 -0.069 -1.901 -0.016 -2.374 -0.015 -2.499 -0.015 -2.499 -0.008 -2.272 -0.203 -4.632" />
    <path class="write-flat-pen" transform="translate(0,34.079)" fill="#000000" stroke-width="1.6" __comx="350.427" __comy="65.558" __timestamp="0x1823b16b38b" d="M343.82 8.902 l0 0.536 -0.024 1.199 -0.016 1.568 -0.137 1.904 -0.198 2.384 -0.193 2.731 -0.194 2.95 -0.254 3.189 -0.128 3.193 -0.127 2.95 -0.125 2.606 -0.127 2.042 -0.062 1.119 -0.065 0.587 0.001 0.153 1.404 0 -0.007 0.1 0.573 -0.853 0.831 -1.266 0.877 -1.486 0.93 -1.474 0.849 -1.344 0.971 -1.224 0.851 -1.003 0.715 -0.715 0.371 -0.557 0.023 -0.017 -0.172 0 -0.568 0.02 -0.052 -0.177 -0.009 1.052 0.126 1.536 0.258 1.52 0.321 1.504 0.325 1.299 0.433 1.171 0.622 0.745 0.446 0.668 0.763 0.457 0.698 0.245 0.703 0.239 0.94 0.104 0.74 -0.039 0.884 -0.08 0.792 -0.12 0.873 -0.665 -0.182 -0.37 -0.886 0.199 -0.597 -0.12 -0.884 -0.08 -0.649 -0.039 -0.702 -0.124 -0.56 -0.215 -0.565 -0.21 -0.374 -0.225 -0.311 -0.468 -0.515 -0.618 -0.324 -0.873 -0.306 -1.2 -0.311 -1.45 -0.247 -1.433 -0.127 -1.418 -0.009 -0.993 -0.052 -1.086 -0.695 0.02 -0.298 0 -0.483 0.437 -0.386 0.579 -0.674 0.648 -0.917 1.041 -1.049 1.275 -0.919 1.383 -0.965 1.48 -0.891 1.468 -0.81 1.233 -0.816 1.192 -0.007 0.327 1.404 0 0.001 -0.075 0.061 -0.549 0.064 -1.153 0.125 -2.047 0.128 -2.619 0.125 -2.957 0.125 -3.168 0.251 -3.172 0.185 -2.957 0.186 -2.721 0.181 -2.388 0.116 -1.959 -0.016 -1.612 -0.024 -1.527 -0.614 -0.569" />
    <path class="write-flat-pen" transform="translate(0,34.079)" fill="#000000" stroke-width="1.6" __comx="362.381" __comy="65.558" __timestamp="0x1823b16b552" d="M362.706 31.572 l0.886 -3.282 0.005 -0.614 0.009 -0.568 0.004 -0.713 -0.662 -0.408 -0.753 -0.011 -0.758 -0.007 -0.978 0.584 -0.981 0.878 -0.949 1.214 -0.793 1.305 -0.733 1.428 -0.536 1.563 -0.332 1.542 -0.197 1.417 -0.067 1.185 0 1.042 0 0.568 0 0.934 1.023 -0.003 0.651 -0.003 0.962 -0.638 0.943 -1.228 1.004 -1.264 0.994 -1.369 0.908 -1.112 0.847 -0.881 0.615 -0.554 0.287 -0.258 0.096 -0.034 0.016 0.007 0.063 0.019 -0.333 0.016 -0.205 -0.338 0.108 0.803 0.258 1.303 0.456 1.524 0.461 1.303 0.491 1.01 0.529 0.671 0.478 0.421 0.607 0.325 0.744 -0.055 1.02 -0.369 -0.17 -0.852 -0.968 0.028 -0.266 -0.055 -0.15 -0.129 -0.279 -0.261 -0.355 -0.465 -0.393 -0.808 -0.423 -1.196 -0.428 -1.43 -0.247 -1.197 -0.144 -1.015 -0.331 -0.565 -0.46 0.016 -0.063 0.019 -0.237 0.007 -0.536 0.193 -0.471 0.424 -0.648 0.582 -0.921 0.936 -0.986 1.16 -1.026 1.357 -1.016 1.235 -0.825 1.044 -0.427 0.271 -0.233 -0.003 0.391 -0.003 0 0.48 0 -0.568 0 -1.003 0.059 -1.087 0.182 -1.309 0.299 -1.411 0.474 -1.391 0.656 -1.298 0.722 -1.194 0.819 -1.058 0.786 -0.713 0.537 -0.325 0.379 -0.007 0.384 -0.011 -0.284 -0.181 0.004 -0.032 0.009 0.568 0.005 0.522 -0.063 3.308" />
    <path class="write-flat-pen" transform="translate(0,34.079)" fill="#000000" stroke-width="1.6" __comx="374.001" __comy="65.558" __timestamp="0x1823b16b624" d="M367.037 31.35 l4.343 0.29 2.02 -0.239 1.99 -0.716 1.751 -0.788 1.515 -0.456 1.021 -0.476 0.598 -0.244 0.204 -0.128 0.486 -0.116 0 -0.92 -0.687 -0.116 -0.428 0.099 -0.664 0.21 -0.999 0.433 -1.516 0.453 -1.785 0.802 -1.798 0.647 -1.768 0.216 -4.252 0.032" />
    <path class="write-flat-pen" transform="translate(0,34.079)" fill="#000000" stroke-width="1.6" __comx="379.646" __comy="65.558" __timestamp="0x1823b16b724" d="M375.78 23.645 l-0.895 1.809 -0.005 1.768 -0.002 2.045 -0.005 2.158 -0.004 2.272 -0.006 2.158 -0.005 2.073 0.135 1.739 0.576 1.333 1.057 0.693 1.164 -0.001 1.375 0 1.605 -1.19 1.319 -1.208 1.239 -1.59 1.105 -2.182 -0.991 -0.551 -1.214 1.989 -1.16 1.364 -1.207 1.063 -1.173 0.855 -0.898 0 -0.73 -0.001 -0.332 -0.215 -0.308 -0.712 -0.117 -1.442 -0.005 -2.016 -0.006 -2.158 -0.004 -2.272 -0.005 -2.158 -0.002 -2.045 -0.005 -1.64 -0.211 -1.884" />
    <path class="write-flat-pen" transform="translate(0,34.079)" fill="#000000" stroke-width="1.6" __comx="441.286" __comy="64.414" __timestamp="0x1823b16edc0" d="M440.083 15.513 l-0.59 -0.772 -0.797 1.159 0.389 0.463 0.791 0.389 0.729 0.44 0.809 0.486 0.527 0.21 0.562 0.434 0.222 -0.004 -0.323 -0.308 0.254 0.609 0.966 0 0.254 -1.265 -0.575 -0.535 -0.283 -0.004 -0.322 -0.248 -0.609 -0.244 -0.706 -0.423 -0.786 -0.468 -0.598 -0.293 -0.242 -0.219 -0.797 1.159 0.96 -0.153" />
    <path class="write-flat-pen" transform="translate(0,34.079)" fill="#000000" stroke-width="1.6" __comx="441.589" __comy="64.414" __timestamp="0x1823b16ee88" d="M436.749 25.634 l2.782 0.859 1.796 -0.646 1.564 -0.705 1.306 -0.729 0.999 -0.729 0.614 -0.487 0.62 -0.428 -0.118 -0.526 -0.917 -0.083 -0.901 0.422 -1.022 0.634 -1.219 0.634 -1.467 0.659 -1.362 0.49 -2.498 -0.226" />
    <path class="write-flat-pen" transform="translate(0,34.079)" fill="#000000" stroke-width="1.6" __comx="444.068" __comy="64.414" __timestamp="0x1823b16ef34" d="M441.126 30.533 l3.252 -1.101 1.024 -0.599 0.893 -0.501 1.102 -0.654 -0.369 -0.821 -1.234 0.397 -1.001 0.408 -0.996 0.537 -3.058 1.331" />
    <path class="write-flat-pen" transform="translate(0,34.079)" fill="#000000" stroke-width="1.6" __comx="445.408" __comy="64.414" __timestamp="0x1823b16efd4" d="M442.597 34.733 l4.042 -2.781 0.767 -0.442 0.549 -0.268 0.58 -0.217 0 -0.561 -0.739 -0.217 -0.84 0.187 -1.001 0.467 -3.674 3.441" />
    <path class="write-flat-pen" transform="translate(0,34.079)" fill="#000000" stroke-width="1.6" __comx="444.599" __comy="64.414" __timestamp="0x1823b16f07e" d="M442.64 38.319 l2.082 1.768 0.624 0.282 0.429 -0.082 0.577 0.047 0.205 -0.57 -0.624 -0.385 -0.328 -0.082 -0.26 -0.172 -2.093 -1.571" />
    <path class="write-flat-pen" transform="translate(0,34.079)" fill="#000000" stroke-width="1.6" __comx="447.416" __comy="64.414" __timestamp="0x1823b16f159" d="M443.014 38.628 l4.937 -0.421 0.272 -0.108 0.283 -0.054 0.362 -0.176 0.338 -0.09 0.551 -0.212 0.394 -0.085 0.375 0 0.442 0 -0.287 -0.001 0 -0.262 -0.001 0.733 -0.155 0.726 -0.552 0.79 -0.641 0.804 -0.512 0.803 -0.144 0.195 -0.104 0.055 0.855 0.553 -0.111 -0.085 0.45 -1.138 -0.463 -0.29 -0.976 1.143 -0.111 0.369 0.855 0.553 0.401 -0.173 0.361 -0.487 0.498 -0.787 0.622 -0.787 0.711 -1.028 0.224 -1.091 -0.001 -0.857 0 -0.943 -0.918 -0.001 -0.442 0 -0.509 0 -0.616 0.142 -0.585 0.242 -0.42 0.137 -0.395 0.278 -0.222 0.173 -0.106 0.119 -4.729 0.559" />
    <path class="write-flat-pen" transform="translate(0,34.079)" fill="#000000" stroke-width="1.6" __comx="456.647" __comy="64.414" __timestamp="0x1823b16f240" d="M453.439 21.472 l2.656 -0.288 1.032 -0.464 0.902 -0.221 0.812 -0.263 0.407 -0.225 0.182 -0.074 0.6 -0.141 0 -0.822 -0.6 -0.141 -0.45 -0.074 -0.603 0.229 -0.703 0.191 -0.993 0.233 -0.989 0.445 -2.429 0.57" />
    <path class="write-flat-pen" transform="translate(0,34.079)" fill="#000000" stroke-width="1.6" __comx="458.735" __comy="64.414" __timestamp="0x1823b16f2cf" d="M454.776 26.129 l4.162 -1.795 1.314 -0.717 1.019 -0.832 0.964 -0.752 0.784 -0.907 -0.332 -0.406 -1.011 0.562 -1.056 0.611 -1.002 0.759 -1.212 0.646 -3.955 2.165" />
    <path class="write-flat-pen" transform="translate(0,34.079)" fill="#000000" stroke-width="1.6" __comx="460.453" __comy="64.414" __timestamp="0x1823b16f3fa" d="M455.884 15.062 l0.468 3.061 0.26 1.422 0.037 1.658 0.046 1.704 0.033 1.748 -0.524 1.643 -0.496 1.449 -0.554 1.103 -0.344 0.542 -0.03 -0.056 0.231 -0.05 0.368 0.959 0.392 -0.271 1.108 -0.762 1.511 -1.017 1.678 -1.118 1.669 -0.897 1.53 -0.783 1.281 -0.472 0.847 -0.365 0.872 -0.124 0 -0.788 -1.053 -0.124 -1.047 0.317 -1.371 0.437 -1.627 0.807 -1.741 0.921 -1.732 1.154 -1.52 1.028 -1.165 0.828 -0.366 0.411 0.368 0.959 0.357 -0.05 0.222 -0.511 0.287 -0.594 0.583 -1.169 0.514 -1.504 0.612 -1.764 0.033 -1.887 0.046 -1.704 0.037 -1.75 -0.245 -1.531 -0.709 -3.027" />
    <path class="write-flat-pen" transform="translate(0,34.079)" fill="#000000" stroke-width="1.6" __comx="457.365" __comy="64.414" __timestamp="0x1823b16f4ce" d="M456.101 33.475 l0.258 3.718 0.256 1.394 0.257 1.269 0.311 1.231 0.125 0.861 0.072 0.721 0.093 0.275 1.156 -0.158 -0.22 -0.823 -0.737 0 -0.22 0.823 1.156 -0.158 -0.033 -0.179 -0.054 -0.642 -0.127 -0.957 -0.32 -1.268 -0.249 -1.23 -0.249 -1.332 -0.473 -3.645" />
    <path class="write-flat-pen" transform="translate(0,34.079)" fill="#000000" stroke-width="1.6" __comx="465.611" __comy="64.414" __timestamp="0x1823b16f5f2" d="M459.879 33.72 l3.363 -2.959 0.637 -0.404 0.435 -0.281 0.199 -0.046 0.094 0.011 -0.078 0.01 0.166 0.311 0.427 1.015 0.613 1.228 0.499 1.468 0.707 1.513 0.695 1.478 0.748 1.571 0.618 1.556 0.433 1.223 0.313 1.011 0.252 0.785 0.103 0.35 0.018 -0.652 0.315 0.05 -0.71 -0.438 -1.065 -1.17 -0.604 0.448 0.898 1.479 1.057 0.925 1.452 0.05 0.018 -0.879 -0.149 -0.559 -0.253 -0.805 -0.318 -1.034 -0.451 -1.276 -0.645 -1.624 -0.767 -1.61 -0.694 -1.475 -0.682 -1.44 -0.511 -1.485 -0.65 -1.271 -0.457 -1.03 -0.592 -1.052 -0.709 0.01 -0.284 0.011 -0.558 0.181 -0.576 0.401 -0.752 0.504 -2.7 3.771" />
    <path class="write-flat-pen" transform="translate(0,34.079)" fill="#000000" stroke-width="1.6" __comx="465.449" __comy="64.414" __timestamp="0x1823b16f6e8" d="M463.605 35.823 l-0.375 -0.854 -0.112 1.148 0.613 -0.227 0.706 -0.216 0.538 -0.134 0.389 -0.04 -0.396 -0.028 0.019 -0.182 0 0.566 -0.374 0.736 -0.652 0.697 -0.667 0.543 -0.337 0.357 -0.51 0.207 -0.017 1.192 1.042 -0.004 1.209 -0.799 1.535 -0.932 2.25 -1.358 -0.396 -0.758 -2.422 1.082 -1.622 0.885 -0.938 0.564 0.663 -0.004 -0.017 0.965 -0.005 -0.021 0.42 -0.552 0.596 -0.593 0.737 -0.894 0.51 -1.082 0 -0.798 0.019 -0.863 -0.649 -0.028 -0.495 -0.04 -0.725 0.093 -0.809 0.238 -0.65 0.227 -0.112 1.148 0.93 -0.072" />
    <path class="write-flat-pen" transform="translate(0,34.079)" fill="#000000" stroke-width="1.6" __comx="489.129" __comy="64.414" __timestamp="0x1823b16f858" d="M487.06 18.119 l0.197 1.134 0.844 0.688 0.775 0.581 0.565 0.388 0.349 0.387 0.254 0.463 0.184 1.084 0.784 0 0.184 -1.291 -0.252 -0.9 -0.535 -0.749 -0.698 -0.521 -0.74 -0.555 -0.545 -0.448 -0.531 -0.611" />
    <path class="write-flat-pen" transform="translate(0,34.079)" fill="#000000" stroke-width="1.6" __comx="489.117" __comy="64.414" __timestamp="0x1823b16f8e0" d="M485.102 28.547 l4.087 -1.533 1.39 -0.705 1.462 -0.516 1.353 -0.409 -0.043 -0.454 -1.5 -0.139 -1.695 0.392 -1.514 0.658 -3.803 2.138" />
    <path class="write-flat-pen" transform="translate(0,34.079)" fill="#000000" stroke-width="1.6" __comx="494.972" __comy="64.414" __timestamp="0x1823b16f9f6" d="M490.773 32.782 l1.515 -0.92 0.778 -0.4 0.673 -0.187 0.607 0 0.631 -0.002 0.309 0.001 0.215 0.145 0.359 0.649 0.546 1.096 0.553 1.436 0.499 1.453 0.435 1.451 0.32 1.232 0.256 0.972 0.077 0.606 0.024 -0.377 0.286 0.07 -0.487 -0.045 -0.687 -0.589 -0.694 -1.086 -0.234 0.13 0.573 1.193 0.576 1.002 0.776 0.409 1.044 0.07 0.024 -0.831 -0.049 -0.758 -0.249 -1.073 -0.312 -1.267 -0.449 -1.502 -0.511 -1.501 -0.584 -1.517 -0.59 -1.176 -0.525 -0.941 -0.796 -0.537 -0.702 0.001 -0.631 -0.002 -0.782 0 -0.969 0.268 -0.99 0.509 -1.406 1.244" />
    <path class="write-flat-pen" transform="translate(0,34.079)" fill="#000000" stroke-width="1.6" __comx="491.278" __comy="64.414" __timestamp="0x1823b16fab8" d="M493.153 28.588 l-0.961 0.739 -0.358 1.379 -0.377 1.572 -0.566 1.801 -0.577 1.949 -0.51 2.054 -0.453 1.726 -0.254 1.483 -0.202 0.849 0.014 0.304 0.877 0.594 0.601 -0.432 1.027 -1.646 -0.168 -0.153 -1.399 1.021 -0.536 0.022 0.877 0.594 0.014 -0.15 0.177 -0.741 0.251 -1.47 0.431 -1.682 0.501 -2.035 0.56 -1.913 0.57 -1.834 0.38 -1.608 0.273 -1.12 0.319 -0.906" />
    <path class="write-flat-pen" transform="translate(0,34.079)" fill="#000000" stroke-width="1.6" __comx="505.927" __comy="64.414" __timestamp="0x1823b16fc82" d="M505.976 17.253 l-0.797 2.982 -0.545 1.63 -0.728 1.637 -0.914 1.532 -0.88 1.246 -0.611 0.99 -0.473 0.532 0.008 -0.009 0.256 0 0.455 1.187 0.478 -0.452 1.007 -0.798 1.241 -1.12 1.134 -0.752 1.221 -0.659 1.149 -0.545 1.004 -0.338 0.659 -0.291 0.363 0.002 0.126 0.009 -0.572 0.002 0.016 0.383 0.056 1.456 -0.006 1.916 -0.004 2.386 -0.001 2.491 -0.062 2.569 -0.307 2.45 -0.371 2.222 -0.483 1.764 -0.478 1.418 -0.456 0.954 -0.309 0.516 -0.138 0.125 0.144 0.103 -0.523 -0.941 -0.472 0.131 0.24 1.803 0.901 0.103 0.746 -0.33 0.575 -0.847 0.555 -1.091 0.532 -1.536 0.527 -1.871 0.387 -2.322 0.324 -2.548 0.064 -2.657 -0.001 -2.508 -0.004 -2.386 -0.006 -1.946 -0.07 -1.498 -0.11 -1.662 -0.698 0.002 -0.126 0.009 -0.647 0.002 -0.856 0.39 -1.016 0.343 -1.25 0.591 -1.304 0.704 -1.265 0.838 -1.284 1.152 -1.013 0.792 -0.532 0.457 0.455 1.187 0.382 0 0.387 -0.464 0.537 -0.604 0.651 -1.055 0.888 -1.253 0.981 -1.649 0.787 -1.771 0.592 -1.778 0.389 -3.152" />
    <path class="write-flat-pen" transform="translate(0,34.079)" fill="#000000" stroke-width="1.6" __comx="510.561" __comy="64.414" __timestamp="0x1823b16fd2e" d="M501.573 31.283 l3.727 4.49 1.895 1.657 2.192 1.396 2.226 1.373 2.011 1.128 1.688 1.11 1.534 0.987 1.306 0.788 0.962 0.781 0.434 -0.344 -0.645 -1.243 -1.345 -1.03 -1.497 -1.058 -1.721 -1.161 -2.03 -1.144 -2.194 -1.353 -2.102 -1.33 -1.767 -1.524 -4.043 -4.094" />
    <path class="write-flat-pen" transform="translate(0,34.079)" fill="#000000" stroke-width="1.6" __comx="530.14" __comy="64.414" __timestamp="0x1823b17041a" d="M530.157 26.733 l0.746 -0.034 -0.739 0.013 -0.001 0.17 -0.004 1.477 -0.002 1.64 -0.297 1.712 -0.492 1.66 -0.38 1.256 -0.251 0.918 -0.107 0.46 0.694 0.913 0.329 -0.063 0.919 -1.447 -0.358 -0.37 -1.093 0.502 0.203 -0.063 0.694 0.913 0.146 -0.449 0.254 -0.899 0.378 -1.243 0.518 -1.748 0.334 -1.924 -0.002 -1.768 -0.004 -1.477 -0.001 -1.647 -0.991 0.013 -0.835 0.535" />
    <path class="write-flat-pen" transform="translate(0,34.079)" fill="#000000" stroke-width="1.6" __comx="545.315" __comy="64.414" __timestamp="0x1823b170530" d="M538.843 24.989 l-1.024 3.143 -0.211 1.312 -0.011 1.301 -0.01 1.25 -0.011 0.993 0.256 1.096 0.923 0.833 1.045 0.294 1.297 0.124 1.613 0 1.791 0 1.835 -0.118 1.884 -0.351 1.602 -0.348 1.371 -0.357 1.128 -0.42 0.731 -0.788 -0.053 -0.618 -0.085 -0.562 -0.982 -0.545 -0.316 0.307 0.209 0.68 -0.085 0.12 -0.053 0.064 -0.153 0.121 -0.766 0.261 -1.281 0.324 -1.555 0.333 -1.778 0.33 -1.701 0.109 -1.745 0 -1.544 0 -1.102 -0.103 -0.597 -0.16 -0.34 -0.303 -0.123 -0.494 -0.011 -0.825 -0.01 -1.25 -0.011 -1.198 0.168 -1.187 0.21 -3.272" />
    <path class="write-flat-pen" transform="translate(0,34.079)" fill="#000000" stroke-width="1.6" __comx="544.516" __comy="64.414" __timestamp="0x1823b1705ea" d="M541.254 24.536 l1.998 3.855 0.729 1.073 0.815 0.971 0.741 0.617 0.995 0.486 1.247 -0.295 0 -0.539 -0.934 -0.295 -0.52 -0.423 -0.522 -0.519 -0.7 -0.847 -0.66 -0.972 -2.301 -3.621" />
    <path class="write-flat-pen" transform="translate(0,34.079)" fill="#000000" stroke-width="1.6" __comx="559.432" __comy="64.414" __timestamp="0x1823b170691" d="M552.572 25.472 l4.255 1.893 1.109 1.326 1.217 1.659 1.175 2.015 1.142 1.94 1.137 1.817 1.193 1.971 1.666 1.62 0.826 -0.751 -1.358 -1.705 -1.08 -1.892 -1.136 -1.818 -1.131 -1.922 -1.224 -2.075 -1.309 -1.749 -1.416 -1.627 -4.878 -1.248" />
    <path class="write-flat-pen" fill="#000000" stroke-width="1.6" __comx="718.017" __comy="30.036" __timestamp="0x1823b171e4a" d="M709.686 23.642 l-3.697 -0.242 -0.704 -0.041 -0.446 0.081 -0.483 -0.03 -0.326 0.256 0 0.984 0.403 0.401 1.413 0.137 1.737 0.233 2.13 0.001 2.147 0 2.02 -0.002 1.578 -0.002 1.073 -0.003 0.046 -0.004 0.033 0.163 0.004 1.011 -0.278 1.3 -1.002 1.694 -1.294 1.773 -1.301 1.56 -1.244 1.342 -1.007 1.019 -0.801 0.835 -0.469 0.672 0 1.123 1.407 -0.01 1.395 -0.4 1.737 -1.234 1.857 -1.526 1.757 -1.763 1.657 -1.753 1.58 -1.637 1.339 -1.258 1.083 -0.757 0.717 -0.265 0.485 0.035 -0.014 0.063 0.096 0.368 0.274 1.098 0.361 1.391 0.449 1.313 0.598 1.225 0.655 0.925 0.929 0.697 0.902 0.296 0.802 -0.001 1.04 0 0.782 -1.114 0.539 -0.997 0.354 -1.068 -0.008 -0.902 0 -0.725 -0.1 -0.723 -0.826 -0.744 -0.714 -0.524 -0.866 -0.37 -0.807 -0.41 -0.783 -0.012 -0.505 -0.004 -0.253 0 -0.189 0.009 -0.705 0.02 0 1.283 0.705 0.02 0.189 0.009 0.253 0 0.505 -0.004 0.479 -0.012 0.582 0.271 0.775 0.312 0.549 0.385 0.437 0.392 0.026 0.186 0 0.638 -0.008 0.689 -0.277 0.75 -0.471 0.821 -0.355 0.477 -0.349 0 -0.587 -0.001 -0.487 -0.158 -0.586 -0.439 -0.482 -0.665 -0.538 -1.047 -0.435 -1.186 -0.396 -1.335 -0.358 -1.174 -0.536 -0.995 -0.645 0.063 -0.651 0.035 -0.925 0.417 -1.19 0.833 -1.439 1.241 -1.703 1.544 -1.752 1.654 -1.779 1.645 -1.805 1.428 -1.546 1.038 -1.004 0.281 0.144 -0.01 0 0.669 0.163 -0.236 0.715 -0.755 1.013 -1.026 1.282 -1.385 1.351 -1.621 1.358 -1.862 1.145 -1.941 0.354 -1.654 0.004 -1.261 -0.219 -1.427 -1.217 -0.004 -1.073 -0.003 -1.578 -0.002 -2.02 -0.002 -2.147 0 -2.038 0.001 -1.672 -0.222 -0.986 -0.09 -0.102 -0.053 0 0.984 -0.073 0.028 0.149 -0.03 0.438 -0.146 0.559 -0.041 3.697 -0.242" />
    <path class="write-flat-pen" fill="#000000" stroke-width="1.6" __comx="738.819" __comy="30.036" __timestamp="0x1823b171f9d" d="M732.343 24.759 l3.777 -0.43 1.531 -0.33 1.51 -0.113 1.113 -0.222 0.82 0 0.127 -0.001 -0.138 -0.249 -0.007 0.742 -0.011 1.223 -0.121 1.472 -0.6 1.603 -0.752 1.799 -0.691 1.577 -0.642 1.38 -0.374 0.997 -0.258 0.452 -0.191 0.505 -0.002 0.93 1.074 0 1.16 -0.697 1.273 -1.096 1.319 -1.515 1.453 -1.502 1.68 -1.771 -0.616 -0.657 -1.881 1.572 -1.578 1.452 -1.333 1.438 -1.127 0.949 -0.734 0.439 0.695 0 -0.002 0.703 0.062 -0.177 0.247 -0.457 0.384 -1.047 0.621 -1.347 0.698 -1.603 0.763 -1.836 0.663 -1.805 0.131 -1.709 -0.011 -1.276 -0.007 -1.075 -0.391 -0.703 -0.883 -0.001 -0.948 0 -1.16 0.232 -1.52 0.114 -1.626 0.352 -3.595 1.258" />
    <path class="write-flat-pen" fill="#000000" stroke-width="1.6" __comx="754.056" __comy="30.036" __timestamp="0x1823b1720d8" d="M748.227 24.402 l0.856 -0.678 0.646 -0.329 0.848 -0.407 0.658 -0.099 0.708 -0.106 0.455 0.001 -0.082 0.002 -0.027 -0.046 -0.011 0.733 -0.007 1.363 -0.007 1.518 -0.361 1.718 -0.56 1.886 -0.637 1.814 -0.45 1.487 -0.353 1.122 -0.004 0.677 -0.006 0.227 0 0.849 0.925 0.002 0.878 0 1.238 -0.655 1.274 -0.701 1.269 -0.789 1.442 -0.558 1.354 -0.302 1.831 -0.304 -0.065 -0.828 -1.901 -0.012 -1.551 0.153 -1.715 0.578 -1.383 0.801 -1.251 0.662 -0.909 0.481 -0.512 0 0.546 0.002 0 0.622 -0.006 -0.227 -0.004 -0.459 0.279 -0.923 0.433 -1.466 0.626 -1.821 0.577 -1.976 0.397 -1.917 -0.007 -1.663 -0.007 -1.363 -0.011 -1.084 -0.532 -0.955 -0.713 0.002 -0.555 0.001 -0.807 0.121 -0.858 0.129 -1.047 0.502 -1.122 0.58 0.027 1.559" />
    <path class="write-flat-pen" fill="#000000" stroke-width="1.6" __comx="766.046" __comy="30.036" __timestamp="0x1823b172166" d="M763.652 33.566 l2.562 1.605 0.45 0.105 0.459 0.183 1.056 0.126 0.261 -1.014 -0.842 -0.362 -0.425 -0.271 -0.434 -0.122 -2.617 -1.136" />
    <path class="write-flat-pen" fill="#000000" stroke-width="1.6" __comx="780.348" __comy="30.036" __timestamp="0x1823b1722d5" d="M779.571 21.035 l-0.268 2.714 0.199 1.199 0.129 0.813 0.148 0.632 0.393 0.984 1.219 -0.452 -0.311 -0.916 -0.104 -0.504 -0.123 -0.777 -0.179 -1.073 -0.113 -2.592" />
    <path class="write-flat-pen" fill="#000000" stroke-width="1.6" __comx="785.741" __comy="30.036" __timestamp="0x1823b1723c6" d="M779.985 21.69 l2.062 -0.501 0.729 -0.404 0.801 -0.27 0.921 -0.298 1.179 -0.556 1.081 -0.539 1.209 -0.55 1.083 -0.552 0.862 -0.4 0.603 -0.091 0.261 -0.08 -0.617 0.012 -0.015 -0.347 -0.012 1.25 -0.009 1.931 -0.004 2.467 -0.253 2.793 -0.378 2.943 -0.379 3.185 -0.317 2.739 -0.188 2.271 -0.187 1.621 0.018 1.065 0.036 0.568 0.073 0.824 1.194 0 0.073 -0.824 0.036 -0.568 0.018 -0.979 0.192 -1.56 0.191 -2.273 0.314 -2.713 0.378 -3.176 0.38 -2.964 0.252 -2.887 -0.004 -2.531 -0.009 -1.931 -0.012 -1.25 -0.015 -1.029 -0.996 0.012 -0.37 0.147 -0.66 0.136 -1.032 0.509 -1.064 0.584 -1.191 0.586 -1.065 0.597 -1.094 0.58 -0.846 0.384 -0.841 0.411 -0.66 0.505 -1.812 0.941" />
    <path class="write-flat-pen" fill="#000000" stroke-width="1.6" __comx="798.69" __comy="30.036" __timestamp="0x1823b172454" d="M796.114 36.827 l3.29 2.226 1.368 0.565 0.494 -0.893 -1.167 -0.838 -3.364 -2.03" />
    <path class="write-flat-pen" fill="#000000" stroke-width="1.6" __comx="823.846" __comy="29.006" __timestamp="0x1823b173588" d="M818.193 28.049 l-1.4 -0.236 0.132 1.334 0.063 0.045 0.859 0 1.104 -0.115 1.32 -0.113 1.232 -0.111 1.041 0 0.821 0 -0.06 0 0.034 0.09 0 0.666 0.001 1.121 -0.433 1.17 -0.897 1.397 -0.887 1.255 -0.623 1.008 -0.41 0.528 -0.349 0.417 0 0.374 0.877 0.702 0.676 -0.152 1.061 -0.89 1.258 -0.907 1.417 -1.176 1.314 -1.275 1.28 -1.151 1.223 -1.092 1.102 -1.299 0.95 -1.517 -0.157 -0.135 -1.332 1.139 -1.298 0.973 -1.302 0.953 -1.372 1.121 -1.338 1.224 -1.361 1.096 -1.267 0.91 -0.834 0.7 -0.335 0.075 0.877 0.702 0 0.147 0.03 -0.037 0.474 -0.608 0.64 -1.037 0.881 -1.244 0.997 -1.556 0.578 -1.556 0.001 -1.378 0 -0.924 -0.471 -1.273 -0.944 0 -0.821 0 -1.106 0 -1.293 0.116 -1.332 0.115 -1.043 0.112 -0.783 0 -0.063 0.045 0.132 1.334 1.201 -0.756" />
    <path class="write-flat-pen" fill="#000000" stroke-width="1.6" __comx="835.508" __comy="22.934" __timestamp="0x1823b1736c0" d="M834.56 16.965 l-1.146 3.528 -0.694 2.697 -0.773 3.097 -0.522 3.244 -0.2 3.237 -0.01 2.861 -0.002 2.417 0.799 1.963 1.204 1.3 1.507 0.285 1.683 -0.011 1.914 -0.903 1.882 -1.428 1.747 -1.388 1.415 -1.076 0.825 -0.916 0 -1.204 -1.582 -0.005 -2.501 0.081 -3.378 1.02 -3.506 1.116 -2.931 1.127 -2.092 0.823 -1.375 0.902 0.809 1.236 1.25 -0.815 1.949 -0.767 2.878 -1.145 3.439 -1.156 3.188 -1.025 2.298 -0.146 0.312 -0.005 0 -0.523 -0.438 0.447 -1.363 0.969 -1.789 1.338 -1.781 1.298 -1.496 0.688 -1.221 -0.011 -0.892 -0.169 -0.69 -0.745 -0.59 -1.445 -0.002 -2.127 -0.01 -2.818 0.179 -3.124 0.489 -3.117 0.743 -3.037 0.695 -2.756 0.032 -3.771" />
  </g>
</svg>
