<svg class="write-page" color-interpolation="linearRGB" width="1100px" height="1660px" xmlns="http://www.w3.org/2000/svg" xmlns:xlink="http://www.w3.org/1999/xlink">
  <g class="write-content write-v3" xruling="0" yruling="0" marginLeft="0" papercolor="#FFFFFF" rulecolor="#9F000023">
    <g class="ruleline write-std-ruling write-scale-down" fill="none" stroke="#000023" stroke-opacity="0.624" stroke-width="1" shape-rendering="crispEdges" vector-effect="non-scaling-stroke">
      <rect class="pagerect" fill="#FFFFFF" stroke="none" x="0" y="0" width="1100" height="1660" />
    </g>
    <path class="write-flat-pen" fill="#000000" stroke-width="1.6" __comx="125.632" __comy="32.315" __timestamp="0x180ae2e3e21" d="M117.837 20.352 l-0.26 -0.491 -0.256 -0.26 0.235 -0.052 0.043 0.835 0.201 0.167 1.204 0.018 1.856 0.012 2.209 -0.113 2.261 -0.346 2.291 -0.402 1.903 -0.343 1.619 -0.293 1.19 -0.34 0.829 -0.117 0.638 -0.201 0.354 -0.146 0.503 -0.277 -0.057 -1.039 -1.148 0 -0.057 0.224 0.25 -0.163 -0.28 0.083 -0.503 0.143 -0.819 0.112 -1.218 0.348 -1.55 0.28 -1.9 0.344 -2.273 0.4 -2.176 0.341 -2.101 0.116 -1.82 0.012 -1.204 0.018 -1.194 0.167 0.043 1.064 0.362 -0.052 -0.002 -0.03 0.347 0.332" />
    <path class="write-flat-pen" fill="#000000" stroke-width="1.6" __comx="124.511" __comy="32.315" __timestamp="0x180ae2e3f8d" d="M129.156 22.596 l-0.167 -0.052 0.122 0.159 0.044 -0.123 0.034 -0.172 0.038 -0.115 -1.05 0 -0.099 0.401 -0.013 0.868 0.256 1.268 0.306 1.533 0.307 1.918 0.244 2.255 0.122 2.378 0.061 2.216 -0.001 1.88 -0.001 1.489 -0.004 1.088 -0.003 0.589 -0.057 0.074 -0.304 0.08 -0.859 -0.002 -1.141 0 -1.314 0.001 -1.334 -0.312 -1.283 -0.493 -1.288 -0.519 -1.152 -0.359 -0.801 -0.12 -0.624 0.029 -0.889 0.06 0 1.143 0.889 0.06 0.517 0.029 0.594 0.109 1.003 0.328 1.247 0.511 1.379 0.538 1.582 0.375 1.475 0.001 1.141 0 1.042 -0.002 0.964 -0.264 0.577 -0.842 -0.003 -1.015 -0.004 -1.088 -0.001 -1.489 -0.001 -1.899 -0.066 -2.251 -0.131 -2.432 -0.263 -2.326 -0.327 -1.976 -0.328 -1.559 -0.251 -1.137 -0.013 -0.735 -0.099 -0.401 -1.05 0 0.038 0.115 0.034 0.172 0.044 0.335 0.249 0.388 0.614 -0.052" />
    <path class="write-flat-pen" fill="#000000" stroke-width="1.6" __comx="141.647" __comy="32.315" __timestamp="0x180ae2e4319" d="M136.901 32.757 l0.169 -0.384 0.043 -0.115 0.054 -0.057 0.044 -0.057 -1.043 0 -0.115 0.515 -0.013 0.859 -0.013 0.974 -0.009 1.031 -0.005 1.1 0.2 0.99 0.197 0.901 0.284 0.838 0.338 0.612 0.514 0.465 0.601 0.362 0.698 0.001 0.57 -0.001 0.856 -0.001 0.878 -0.635 0.753 -0.869 0.799 -0.968 0.662 -1.146 0.642 -1.168 0.521 -1.072 0.338 -0.868 0.21 -0.826 0.074 -0.598 0 -0.384 0.001 -0.172 0.005 -0.057 -1.328 -0.112 -0.149 0.757 -0.135 1.088 -0.001 1.188 -0.001 1.26 -0.002 1.131 0.318 1.081 0.595 0.771 0.566 0.365 0.496 0.268 0.557 -0.001 0.254 -0.014 0.324 -0.052 0.591 -0.242 0.045 -1.014 -0.496 -0.157 -0.365 0.283 0.084 -0.128 -0.183 -0.052 -0.254 -0.014 -0.204 -0.001 -0.138 -0.076 -0.321 -0.207 -0.292 -0.374 -0.189 -0.637 -0.002 -0.931 -0.001 -1.26 -0.001 -1.103 0.119 -0.973 0.104 -0.732 -1.328 -0.112 0.005 0.057 0.001 0.172 0 0.303 -0.053 0.433 -0.17 0.663 -0.296 0.736 -0.493 0.989 -0.625 1.123 -0.606 1.031 -0.722 0.865 -0.642 0.735 -0.39 0.282 -0.412 -0.001 -0.57 -0.001 -0.316 0.001 -0.16 -0.096 -0.246 -0.222 -0.17 -0.304 -0.223 -0.651 -0.183 -0.817 -0.181 -0.843 -0.005 -0.961 -0.009 -1.031 -0.013 -0.974 -0.013 -0.859 -0.115 -0.515 -1.043 0 0.044 0.057 0.054 0.057 0.043 0.115 0.169 0.384" />
    <path class="write-flat-pen" fill="#000000" stroke-width="1.6" __comx="158.69" __comy="32.315" __timestamp="0x180ae2e4607" d="M150.069 33.218 l0.062 -0.617 0.052 -0.172 0.056 -0.057 0.025 -0.115 0.026 -0.057 -1.219 0 -0.039 0.515 -0.016 0.813 0.191 0.96 0.116 0.929 0.057 0.873 -0.002 0.835 -0.001 0.802 -0.002 0.63 -0.001 0.573 0 0.401 0 0.286 0 0.115 0 0.057 1.372 0 -0.005 -0.548 0.047 -0.746 0.338 -0.973 0.486 -1.051 0.552 -1.111 0.611 -1 0.621 -0.956 0.549 -0.776 0.462 -0.574 0.517 -0.468 0.225 -0.306 0.113 -0.076 0.072 -0.032 0.111 0 0.38 0.001 0.238 0.001 0.025 0.011 0.178 0.395 0.168 0.832 0.181 1.057 0.119 1.087 0 1.108 -0.002 0.974 -0.001 0.859 -0.001 0.63 -0.001 0.475 0.063 0.286 -0.001 0.665 0.746 0 0.551 -0.001 0.449 -0.922 0.308 -0.808 0.427 -0.897 0.411 -0.865 0.615 -0.839 0.502 -0.863 0.608 -0.83 0.539 -0.707 0.615 -0.612 0.573 -0.633 0.468 -0.475 0.429 -0.332 0.226 -0.203 -0.015 0.01 -0.114 0.001 0.19 0.003 -0.072 0.005 -0.051 -0.031 0.265 0.532 0.289 1.183 0.367 1.635 0.306 1.915 0.25 1.997 0.257 1.874 0.342 1.361 0.595 1.251 1.493 -0.029 -0.189 -2.243 -0.699 -0.035 -0.351 0.975 0.606 -0.029 -0.166 -0.353 -0.291 -1.159 -0.25 -1.791 -0.257 -2.012 -0.328 -1.979 -0.394 -1.687 -0.345 -1.337 -0.495 -0.957 -0.558 -0.374 -0.325 0.005 -0.19 0.003 -0.241 0.001 -0.395 0.239 -0.281 0.255 -0.458 0.356 -0.546 0.555 -0.568 0.627 -0.653 0.648 -0.602 0.782 -0.66 0.888 -0.512 0.855 -0.653 0.879 -0.477 0.967 -0.461 0.936 -0.325 0.796 -0.058 0.108 0.297 -0.001 0.619 0 -0.001 0.551 -0.063 -0.286 -0.001 -0.326 -0.001 -0.63 -0.001 -0.859 -0.002 -0.974 0 -1.183 -0.135 -1.203 -0.2 -1.119 -0.212 -1 -0.456 -0.979 -0.736 -0.332 -0.523 0.001 -0.38 0.001 -0.396 0 -0.435 0.197 -0.394 0.267 -0.282 0.381 -0.497 0.449 -0.552 0.686 -0.592 0.827 -0.647 0.992 -0.657 1.062 -0.589 1.179 -0.528 1.125 -0.422 1.203 -0.079 0.972 -0.005 0.598 1.372 0 0 -0.057 0 -0.115 0 -0.286 0 -0.401 -0.001 -0.573 -0.002 -0.63 -0.001 -0.802 -0.002 -0.883 -0.07 -0.96 -0.137 -1.018 -0.19 -0.872 -0.016 -0.676 -0.039 -0.515 -1.219 0 0.026 0.057 0.025 0.115 0.056 0.057 0.052 0.172 0.062 0.617" />
    <path class="write-flat-pen" fill="#000000" stroke-width="1.6" __comx="171.443" __comy="32.315" __timestamp="0x180ae2e4a59" d="M171.736 31.946 l-0.416 -0.428 -0.662 -0.05 -0.117 0.561 -0.015 0.744 -0.03 1.338 0.11 1.85 0.115 2.348 0.181 2.853 0.059 3.191 0.062 3.55 0.063 3.487 0 3.201 0 2.634 0 1.775 0.003 1.145 0.004 0.458 1.292 0 -0.027 -0.229 -0.077 -1.145 -0.177 -2.082 -0.728 0 -0.177 2.082 -0.077 1.145 -0.027 0.229 1.292 0 0.004 -0.458 0.003 -1.145 0 -1.775 0 -2.634 0 -3.213 -0.063 -3.499 -0.065 -3.551 -0.068 -3.223 -0.199 -2.874 -0.138 -2.348 -0.144 -1.815 -0.03 -1.296 -0.015 -0.744 -0.117 0.332 -0.535 -0.05 0.241 0.166" />
    <path class="write-flat-pen" fill="#000000" stroke-width="1.6" __comx="174.691" __comy="32.315" __timestamp="0x180ae2e4b7d" d="M172.132 31.435 l-0.591 -0.475 0.142 0 0.051 0.325 0.022 0.146 -0.012 0.028 0.912 -0.344 1.383 -0.49 1.551 -0.5 1.601 -0.387 1.319 -0.215 1.152 0.003 0.667 0 -0.019 -0.008 0.034 0.531 -0.004 0.959 -0.374 1.099 -1.03 1.237 -1.393 1.201 -1.646 1.156 -1.955 0.994 -2.051 0.795 -1.905 0.715 -1.281 0.618 -0.967 0.438 0.178 0.724 1.151 -0.084 1.381 -0.527 1.898 -0.659 2.133 -0.809 2.101 -1.068 1.777 -1.249 1.523 -1.319 1.252 -1.512 0.513 -1.536 -0.004 -1.218 -0.093 -1.301 -0.906 -0.467 -0.981 0 -1.257 0.003 -1.47 0.243 -1.695 0.414 -1.618 0.531 -1.406 0.54 -1.116 0.458 -0.519 0.486 0.022 0.375 0.051 0.44 0.522 0.114 0.636 0.19" />
    <path class="write-flat-pen" fill="#000000" stroke-width="1.6" __comx="217.284" __comy="31.669" __timestamp="0x180ae2e5a5f" d="M215.222 19.92 l-0.587 -0.492 -0.224 -0.226 -0.26 -0.246 -0.283 -0.163 -0.025 -0.052 0.027 -0.014 -0.568 1.096 0.466 0.139 1.039 0.368 1.363 0.193 1.314 0.061 1.22 0.002 1.014 0 0.697 -0.002 0.38 -0.014 0.757 -0.052 -0.057 -1.26 -0.7 0.127 -0.841 0.239 0 0.415 0.841 0.239 -0.446 0.127 -0.057 -1.146 0.503 -0.052 -0.38 -0.014 -0.697 -0.002 -1.014 0 -1.189 0.002 -1.221 -0.054 -1.172 -0.151 -0.99 -0.319 -0.549 -0.09 -0.568 1.096 0.153 0.1 0.229 0.063 0.224 0.066 0.248 0.098 0.283 0.117 0.641 0.395" />
    <path class="write-flat-pen" fill="#000000" stroke-width="1.6" __comx="217.755" __comy="31.669" __timestamp="0x180ae2e5b22" d="M214.492 20.209 l3.721 0.2 -0.087 -0.12 -0.058 0.229 -0.065 0.344 -0.039 0.486 0.04 0.735 0.299 0.886 0.158 1.028 0.173 1.307 0.176 1.399 0.055 1.642 0.12 1.718 0.059 1.763 0.062 1.718 0.065 1.749 0.191 1.494 0.064 1.209 0.14 0.944 0.121 0.352 0.02 0.069 0.062 0.115 0.057 0.586 1.057 0 0.057 -0.586 0.062 -0.115 0.02 -0.275 -0.133 -0.45 -0.113 -0.774 -0.063 -1.196 -0.189 -1.484 -0.062 -1.687 -0.065 -1.718 -0.068 -1.787 -0.133 -1.718 -0.072 -1.679 -0.204 -1.465 -0.208 -1.328 -0.223 -1.148 -0.335 -0.832 -0.087 -0.525 -0.039 -0.431 -0.065 -0.344 -0.058 -0.229 -0.087 -0.463 -4.31 -0.042" />
    <path class="write-flat-pen" fill="#000000" stroke-width="1.6" __comx="223.028" __comy="31.669" __timestamp="0x180ae2e5bd6" d="M216.776 39.686 l-0.481 -0.063 0.036 0.961 0.843 0.102 1.191 -0.342 1.482 -0.325 1.714 -0.284 1.733 -0.404 1.736 -0.406 1.473 -0.464 1.206 -0.347 0.884 -0.314 0.596 -0.264 0.607 -0.544 -0.357 -0.659 -0.686 0.157 -0.545 0.079 -0.891 0.259 -1.203 0.34 -1.443 0.453 -1.687 0.396 -1.69 0.398 -1.708 0.288 -1.56 0.362 -1.091 0.345 -0.678 0.217 0.036 0.961 0.481 -0.063" />
    <path class="write-flat-pen" fill="#000000" stroke-width="1.6" __comx="234.039" __comy="31.669" __timestamp="0x180ae2e5daf" d="M230.531 30.729 l0.042 -0.793 -0.333 -0.282 0.007 -0.058 -0.028 -0.096 -1.051 0.467 -0.021 0.057 -0.003 0.744 -0.011 1.031 -0.009 1.203 -0.004 1.203 -0.004 1.088 -0.002 0.974 -0.001 0.687 -0.002 0.401 -0.001 0.801 1.216 -0.002 0.467 -0.86 0.314 -0.903 0.431 -1.104 0.36 -1.153 0.421 -1.073 0.375 -0.922 0.303 -0.771 0.343 -0.619 0.372 -0.504 0.3 -0.487 0.282 -0.305 0.237 -0.264 0.097 -0.084 -0.076 0.044 -0.068 0.008 -0.352 0.009 -0.017 -0.027 0.166 1.012 0.243 1.277 0.31 1.373 0.25 1.329 0.327 1.25 0.336 0.973 0.379 0.821 0.533 0.562 0.567 0.303 0.49 -0.014 0.317 -0.041 0.619 -0.115 0.314 -1.171 -0.385 -0.213 -0.533 0.36 -0.015 -0.115 -0.317 -0.041 -0.144 -0.014 -0.067 -0.041 -0.227 -0.24 -0.255 -0.554 -0.298 -0.86 -0.307 -1.155 -0.257 -1.306 -0.324 -1.376 -0.264 -1.243 -0.214 -1.049 -0.271 -0.944 -0.605 0.009 -0.195 0.008 -0.329 0.158 -0.283 0.26 -0.27 0.308 -0.352 0.382 -0.333 0.544 -0.388 0.526 -0.418 0.755 -0.331 0.832 -0.385 0.911 -0.466 1.103 -0.4 1.138 -0.456 1.072 -0.32 0.815 -0.04 0.056 0.963 -0.002 -0.001 0.571 -0.002 -0.401 -0.001 -0.687 -0.002 -0.974 -0.004 -1.088 -0.004 -1.203 -0.009 -1.203 -0.011 -1.031 -0.003 -0.744 -0.021 -0.057 -1.051 0.467 0.098 0.019 0.133 0.056 0.047 -0.053 0.042 0.273" />
    <path class="write-flat-pen" fill="#000000" stroke-width="1.6" __comx="242.243" __comy="31.669" __timestamp="0x180ae2e5f5a" d="M245.907 29.965 l0.062 -0.571 0.059 -0.057 0.041 -0.115 0.021 -0.172 0.019 -0.229 0.013 -0.47 -0.54 -0.494 -0.726 -0.168 -0.773 -0.064 -0.788 -0.001 -1.016 -0.002 -1.071 0.207 -0.859 0.517 -0.775 0.445 -0.494 0.511 -0.488 0.441 -0.227 0.616 0.001 0.466 0 0.494 0.214 0.775 0.931 0.689 0.958 0.496 1.094 0.465 1.015 0.459 0.901 0.38 0.601 0.394 0.303 0.274 0.065 0.138 0 0.361 0 0.325 -0.423 0.38 -0.839 0.505 -0.979 0.364 -0.906 0.218 -0.724 0.164 -0.368 0.048 -0.146 0.003 0.485 1.168 0.423 -0.648 1.172 -1 -0.401 -0.592 -1.448 0.775 -0.718 0.498 0.485 1.168 0.234 0.003 0.52 -0.067 0.797 -0.18 0.996 -0.24 1.176 -0.438 1.062 -0.64 0.972 -0.88 0 -0.935 0 -0.67 -0.315 -0.664 -0.584 -0.528 -0.793 -0.522 -1.001 -0.421 -1.013 -0.458 -1.061 -0.451 -0.816 -0.42 -0.464 -0.342 -0.039 -0.141 0 -0.308 0.001 -0.221 0.026 -0.071 0.272 -0.246 0.393 -0.405 0.619 -0.357 0.663 -0.399 0.704 -0.137 0.885 -0.002 0.733 -0.001 0.622 0.051 0.288 0.061 -0.16 -0.151 0.013 -0.127 0.019 0.229 0.021 0.172 0.041 0.115 0.059 0.057 0.062 0.571" />
    <path class="write-flat-pen" fill="#000000" stroke-width="1.6" __comx="253.125" __comy="31.669" __timestamp="0x180ae2e601d" d="M249.047 32.806 l0.057 -0.548 0.053 0.21 -0.103 0.134 0.441 -0.237 0.848 -0.432 1.302 -0.499 1.459 -0.573 1.441 -0.565 1.403 -0.461 1.15 -0.493 0.68 -0.463 0.516 -0.464 -0.115 -0.828 -0.867 0 -0.115 0.268 -0.117 -0.006 -0.588 0.339 -1.005 0.423 -1.386 0.455 -1.475 0.581 -1.456 0.573 -1.36 0.532 -0.926 0.484 -0.573 0.335 -0.357 0.363 0.053 0.325 0.057 0.548" />
    <path class="write-flat-pen" fill="#000000" stroke-width="1.6" __comx="255.499" __comy="31.669" __timestamp="0x180ae2e6123" d="M250.889 26.695 l0.617 0.037 -0.049 0.035 0.128 0.546 0.036 1.008 -0.018 1.416 -0.017 1.718 -0.014 1.833 -0.014 1.833 -0.012 1.775 -0.015 1.432 -0.009 0.974 -0.01 1.151 1.059 0.142 0.878 0.005 1.171 -0.77 1.207 -1.149 1.215 -1.387 1.126 -1.22 0.862 -1.076 0.576 -0.812 0.505 -0.956 -0.519 -0.402 -0.785 0.709 -0.692 0.677 -0.913 0.986 -1.156 1.185 -1.193 1.362 -1.075 1.027 -0.73 0.49 -0.39 0.005 0.171 0.027 -0.01 0.005 -0.009 -0.974 -0.015 -1.432 -0.012 -1.775 -0.014 -1.833 -0.014 -1.833 -0.017 -1.718 -0.018 -1.448 -0.091 -1.168 -0.379 -1.057 -0.556 -0.194 -0.803 0.037" />
    <path class="write-flat-pen" fill="#000000" stroke-width="1.6" __comx="264.814" __comy="31.669" __timestamp="0x180ae2e627d" d="M261.409 29.022 l0.075 -0.658 0.061 -0.115 0.044 -0.057 0.024 -0.057 -1.146 0.377 0.044 0.106 0.207 0.636 0.288 1.013 0.114 1.307 0.121 1.515 -0.003 1.575 -0.001 1.432 -0.003 1.088 -0.003 0.744 -0.001 0.401 -0.005 0.172 1.405 0 0.007 -0.172 0 -0.663 0.051 -0.764 0.367 -0.806 0.522 -0.788 0.587 -0.745 0.729 -0.715 0.664 -0.66 0.796 -0.616 0.734 -0.632 0.742 -0.536 0.624 -0.565 0.478 -0.46 0.336 -0.45 0.014 -0.566 -0.464 -0.171 -0.284 0.241 -0.298 0.123 -0.536 0.342 -0.643 0.465 -0.78 0.495 -0.787 0.628 -0.852 0.644 -0.731 0.714 -0.793 0.774 -0.681 0.859 -0.619 0.93 -0.52 1.141 -0.076 1.069 0 0.712 0.007 0.172 1.405 0 -0.005 -0.172 -0.001 -0.401 -0.003 -0.744 -0.003 -1.088 -0.001 -1.432 -0.003 -1.632 -0.133 -1.577 -0.139 -1.442 -0.346 -1.163 -0.3 -0.853 -0.21 -0.238 -1.146 0.377 0.024 0.057 0.044 0.057 0.061 0.115 0.075 0.658" />
    <path class="write-flat-pen" fill="#000000" stroke-width="1.6" __comx="275.975" __comy="31.669" __timestamp="0x180ae2e64a7" d="M270.264 28.625 l-0.057 0.597 -0.005 0.63 -0.011 1.031 -0.019 1.374 -0.011 1.489 -0.015 1.546 -0.01 1.28 0.065 1.168 0.427 1.016 0.707 0.554 0.794 0.161 0.873 0.002 1.13 -0.145 0.997 -0.832 0.983 -0.95 0.917 -1.018 0.841 -1.124 0.849 -1.203 0.587 -1.204 0.587 -1.25 0.412 -1.306 0.133 -1.261 0.131 -1.064 0.001 -0.898 0 -0.687 0.003 -0.401 0.004 -0.229 0.007 -0.768 -0.717 -0.008 -0.649 -0.011 -0.152 1.059 -0.069 0.888 -0.068 1.285 -0.003 1.449 -0.008 1.603 -0.004 1.661 -0.004 1.603 -0.002 1.374 -0.001 1.088 0 0.813 0.285 0.769 0.741 0.266 0.503 -0.008 0.523 -0.024 0.495 -0.433 0.359 -1.122 -0.629 -0.348 -0.623 0.653 -0.012 -0.09 -0.111 -0.024 -0.257 -0.008 0.107 0.037 0.031 0.081 0 -0.561 -0.001 -1.088 -0.002 -1.374 -0.004 -1.603 -0.004 -1.661 -0.008 -1.603 -0.003 -1.414 0.059 -1.235 0.058 -0.83 -0.026 0.143 -0.522 -0.011 -0.59 -0.008 0.007 -0.539 0.004 0.229 0.003 0.401 0 0.687 0.001 0.82 -0.123 0.997 -0.121 1.144 -0.348 1.099 -0.554 1.155 -0.554 1.087 -0.799 1.088 -0.807 1.052 -0.857 0.929 -0.918 0.882 -0.651 0.543 -0.644 0.084 -0.648 0.002 -0.346 -0.068 -0.18 -0.133 -0.206 -0.473 -0.062 -0.894 -0.01 -1.239 -0.015 -1.546 -0.011 -1.489 -0.019 -1.374 -0.011 -1.031 -0.005 -0.63 -0.057 -0.597" />
    <path class="write-flat-pen" fill="#000000" stroke-width="1.6" __comx="288.806" __comy="31.669" __timestamp="0x180ae2e6627" d="M290.853 30.655 l0.045 -0.974 0.059 -0.63 0.042 -0.63 0.024 -0.515 0.018 -0.458 0.012 -0.286 0.01 -0.115 0.012 -0.68 -0.985 -0.037 -0.757 0.249 -0.831 0.813 -0.855 0.995 -0.912 1.098 -0.925 1.238 -0.869 1.438 -0.674 1.511 -0.47 1.568 -0.274 1.457 -0.068 1.268 -0.002 0.993 0 0.84 0.411 0.929 0.992 0.572 1.062 0.255 1.144 0.243 1.28 0.06 1.221 -0.005 1.341 -0.013 1.314 -0.554 1.144 -0.792 0.796 -1.549 -0.728 -0.474 -0.946 1.126 -0.884 0.468 -0.968 0.363 -1.068 -0.013 -1.187 -0.005 -1.128 -0.054 -1.01 -0.215 -0.84 -0.203 -0.402 -0.23 -0.096 -0.216 0 -0.534 -0.002 -0.955 0.059 -1.137 0.233 -1.291 0.417 -1.409 0.594 -1.352 0.779 -1.311 0.85 -1.167 0.863 -1.078 0.793 -0.952 0.564 -0.561 0.257 -0.095 -0.478 -0.037 0.012 -0.565 0.01 0.115 0.012 0.286 0.018 0.458 0.024 0.515 0.042 0.63 0.059 0.63 0.045 0.974" />
    <path class="write-flat-pen" fill="#000000" stroke-width="1.6" __comx="299.317" __comy="31.669" __timestamp="0x180ae2e6743" d="M294.986 32.524 l-0.668 -0.048 -0.063 -0.069 0.076 1.185 0.482 0.023 1.134 -0.231 1.378 -0.408 1.603 -0.576 1.605 -0.58 1.49 -0.644 1.113 -0.534 0.829 -0.489 0.49 -0.712 -0.097 -0.623 -0.592 -0.442 -0.513 0.378 0.04 0.414 -0.097 -0.165 -0.144 0.09 -0.565 0.312 -1.042 0.497 -1.426 0.616 -1.564 0.565 -1.566 0.569 -1.284 0.393 -1.021 0.227 -0.406 0.137 0.076 1.185 0.063 -0.069 0.668 -0.048" />
    <path class="write-flat-pen" fill="#000000" stroke-width="1.6" __comx="303.422" __comy="31.669" __timestamp="0x180ae2e6834" d="M298.599 25.091 l-0.199 0.638 -0.024 0.916 -0.018 1.203 -0.012 1.603 -0.008 1.89 -0.007 1.947 -0.006 2.03 0.126 1.746 0.345 1.384 0.493 1.048 0.928 0.589 0.958 0.146 1.014 0.001 1.278 -0.272 1.257 -0.828 1.104 -0.829 1.201 -0.798 1.492 -1.025 -0.418 -0.732 -1.648 0.767 -1.334 0.691 -1.178 0.775 -1.025 0.661 -0.877 0.186 -0.761 0.001 -0.563 -0.083 -0.34 -0.212 -0.268 -0.556 -0.289 -1.136 -0.127 -1.575 -0.006 -1.978 -0.007 -1.947 -0.008 -1.89 -0.012 -1.603 -0.018 -1.203 -0.024 -0.916 -0.199 -0.638" />
    <path class="write-flat-pen" fill="#000000" stroke-width="1.6" __comx="313.378" __comy="31.669" __timestamp="0x180ae2e690e" d="M313.964 29.721 l0.057 -0.498 0.065 -0.057 -1.114 -0.122 -0.152 0.317 -0.073 1.028 -0.075 1.395 -0.007 1.619 -0.003 1.661 -0.002 1.489 0 1.203 -0.001 0.802 0 0.458 0 0.115 1.348 0 -0.031 -0.172 -0.118 -0.795 -0.568 -1.142 -0.367 0.072 -0.116 1.172 -0.118 0.694 -0.031 0.172 1.348 0 0 -0.115 0 -0.458 -0.001 -0.802 0 -1.203 -0.002 -1.489 -0.003 -1.661 -0.007 -1.588 0.052 -1.354 0.053 -0.919 -0.025 -0.255 -1.114 -0.122 0.065 0.057 0.057 0.498" />
    <path class="write-flat-pen" fill="#000000" stroke-width="1.6" __comx="311.659" __comy="31.669" __timestamp="0x180ae2e69ba" d="M309.319 23.228 l0.936 0.624 0.794 0.615 0.756 0.731 0.708 0.883 0.919 0.87 0.567 -0.386 -0.481 -1.186 -0.687 -1.064 -0.892 -0.873 -0.981 -0.76 -1.233 -0.356" />
    <path class="write-flat-pen" fill="#000000" stroke-width="1.6" __comx="325.907" __comy="31.669" __timestamp="0x180ae2e6b11" d="M322.144 30.492 l-0.094 0.735 -0.036 0.315 -0.353 0.659 -0.561 1.146 -0.353 1.464 -0.281 1.625 -0.009 1.434 -0.003 1.203 0.202 1.284 1.289 0.486 1.138 0 1.429 -0.203 1.508 -1.037 1.395 -1.2 1.234 -1.355 1.112 -1.251 0.89 -1.369 0.57 -1.423 0.14 -1.399 0 -1.342 -0.418 -1.438 -1.357 -0.921 -1.483 -0.269 -1.411 -0.004 -1.537 0.062 -1.421 0.576 -1.141 0.606 -0.714 0.469 -0.721 0.437 0.018 0.902 0.529 0.386 1.471 -0.184 0 -0.924 -0.974 -0.184 0.402 0.272 0.018 0.559 0.04 -0.021 0.681 -0.447 1.014 -0.539 1.114 -0.454 1.252 -0.053 1.251 -0.004 1.053 0.189 0.671 0.454 0.216 0.738 0 1.063 -0.114 1.121 -0.444 1.097 -0.758 1.151 -1.043 1.154 -1.174 1.279 -1.267 1.09 -1.155 0.795 -0.98 0.141 -0.764 0 -0.232 -0.087 -0.052 -0.319 -0.003 -1.087 -0.009 -1.315 0.226 -1.468 0.28 -1.284 0.453 -1.03 0.408 -0.944 -0.036 -0.601 -0.094 -0.735" />
    <path class="write-flat-pen" fill="#000000" stroke-width="1.6" __comx="340.687" __comy="31.669" __timestamp="0x180ae2e6cd3" d="M333.259 28.889 l0.525 -0.082 0.073 0.035 0.144 0.034 0.184 0.037 0.317 0.023 0.045 0.02 0.031 0.046 0.16 0.499 0.105 0.912 -0.003 1.329 -0.004 1.661 -0.001 1.647 -0.062 1.593 -0.247 1.334 -0.13 0.881 -0.07 0.57 -0.001 0.103 1.492 0.069 0.053 -0.565 0.458 -1.036 0.561 -1.3 0.668 -1.333 0.728 -1.219 0.741 -1.072 0.76 -1.096 0.7 -1.036 0.705 -1.042 0.576 -0.926 0.464 -0.732 0.501 -0.503 0.347 -0.312 0.188 -0.079 0.227 -0.029 0.199 0.005 -0.031 0.003 -0.032 -0.024 0.298 0.819 0.303 1.274 0.375 1.598 0.379 1.715 0.387 1.691 0.454 1.466 0.394 1.187 0.42 0.936 0.307 0.459 0.127 0.256 0.184 0.629 0.984 0 0.184 -0.813 -0.127 -0.661 -0.327 -0.571 -0.34 -0.782 -0.366 -1.104 -0.433 -1.397 -0.374 -1.63 -0.382 -1.721 -0.386 -1.609 -0.33 -1.36 -0.463 -1.242 -0.666 -0.597 -0.538 0.003 -0.308 0.005 -0.533 0.085 -0.572 0.265 -0.541 0.49 -0.639 0.643 -0.55 0.871 -0.565 0.907 -0.69 1.02 -0.695 1.026 -0.762 1.081 -0.78 1.104 -0.793 1.301 -0.726 1.416 -0.58 1.334 -0.556 1.254 -0.074 0.809 1.492 0.069 -0.001 -0.012 0.057 -0.461 0.123 -0.837 0.26 -1.414 0.065 -1.729 -0.001 -1.675 -0.004 -1.661 -0.003 -1.419 -0.149 -1.149 -0.347 -0.99 -0.729 -0.641 -0.589 0.02 -0.317 0.023 -0.323 0.037 -0.363 0.148 -0.18 0.149 -0.368 0.456" />
    <path class="write-flat-pen" fill="#000000" stroke-width="1.6" __comx="33.068" __comy="110.288" __timestamp="0x180ae2eb7d7" d="M36.23 99.63 l0.05 -0.541 0.066 -0.295 -0.038 -0.233 -0.029 -0.277 -0.135 -0.325 -0.055 -0.141 -0.005 -0.141 -0.072 -0.341 -0.053 -0.11 0.014 -0.189 -0.131 -0.263 -1.209 0.312 -0.02 0.802 -0.005 1.145 -0.004 1.664 -0.306 1.863 -0.566 2.21 -0.572 2.406 -0.636 2.528 -0.574 2.707 -0.509 2.529 -0.444 2.404 -0.44 2.162 -0.382 1.676 -0.182 1.16 -0.204 0.567 0.01 0.177 1.321 0 -0.02 -0.115 -0.052 -1.218 0.505 -1.775 0.705 -2.789 -0.511 -0.171 -1.114 2.647 -0.763 1.89 -0.052 1.416 -0.02 0.115 1.321 0 0.01 0.062 0.177 -0.464 0.199 -1.245 0.379 -1.646 0.447 -2.19 0.444 -2.406 0.505 -2.511 0.567 -2.676 0.632 -2.512 0.568 -2.404 0.575 -2.257 0.328 -2.031 -0.004 -1.772 -0.005 -1.145 -0.02 -0.802 -1.209 0.312 -0.005 -0.034 0.014 0.269 0.2 0.233 0.055 0.117 0.122 0.317 0.198 0.203 0.119 0.134 0.098 0.181 0.089 0.11 0.066 0.163 0.05 0.541" />
    <path class="write-flat-pen" fill="#000000" stroke-width="1.6" __comx="43.002" __comy="110.288" __timestamp="0x180ae2eb9af" d="M34.416 102.199 l-0.286 -0.282 0.005 -0.029 -0.729 0.578 0.021 0.217 0.703 0.8 0.896 1.179 0.98 1.517 1.056 1.818 1.014 1.846 0.994 1.566 1.133 1.162 1.276 0.289 1.382 0.001 1.339 -1.063 1.093 -1.605 0.98 -1.89 0.77 -1.82 0.643 -1.821 0.443 -1.689 0.385 -1.459 0.254 -1.462 0.19 -1.155 0.134 -0.91 0 -0.562 0.002 -0.286 0.003 -0.172 0.003 -0.057 0.007 -0.057 -1.292 0 -0.019 0.401 -0.005 0.916 -0.004 1.317 -0.004 1.775 -0.003 1.947 -0.006 2.405 -0.003 2.692 -0.004 2.754 0.453 2.521 0.325 1.881 0.432 1.3 0.517 0.7 0.53 0.357 0.467 -0.009 0.254 -0.01 0.469 -0.025 0.525 -0.616 0.167 -0.265 0.113 -0.173 0.581 -0.316 0 -0.16 -0.72 -0.316 -0.521 0.056 -0.467 0.307 -0.236 0.186 0.089 -0.025 -0.254 -0.01 -0.04 -0.009 0.023 0.013 -0.244 -0.33 -0.329 -0.991 -0.308 -1.784 -0.435 -2.404 -0.004 -2.63 -0.003 -2.692 -0.006 -2.405 -0.003 -1.947 -0.004 -1.775 -0.004 -1.317 -0.005 -0.916 -0.019 -0.401 -1.292 0 0.007 0.057 0.003 0.057 0.003 0.172 0.002 0.286 0 0.469 -0.119 0.808 -0.191 1.136 -0.254 1.401 -0.375 1.405 -0.444 1.633 -0.624 1.729 -0.752 1.73 -0.922 1.775 -0.935 1.373 -0.816 0.655 -0.773 0.001 -0.753 -0.169 -0.769 -0.785 -0.908 -1.412 -1.014 -1.819 -1.099 -1.847 -1.049 -1.575 -1.005 -1.226 -0.691 -0.689 -0.106 -0.012 -0.729 0.578 0.132 0.085 0.528 0.086" />
    <path class="write-flat-pen" fill="#000000" stroke-width="1.6" __comx="59.356" __comy="110.288" __timestamp="0x180ae2ebb81" d="M62.935 114.553 l0.045 -0.461 0.053 -0.401 0.031 -0.63 0.019 -0.711 -0.053 -0.793 -0.119 -0.784 -0.132 -0.655 -0.261 -0.574 -0.478 -0.445 -0.671 -0.108 -0.611 -0.016 -0.824 -0.011 -1.105 0.206 -0.972 0.74 -0.871 0.786 -0.88 0.976 -0.736 1.088 -0.653 1.12 -0.605 1.155 -0.281 0.887 -0.149 0.674 0.001 0.417 0.001 0.729 1.243 -0.004 1.11 -0.215 1.159 -0.916 1.046 -0.945 0.967 -0.993 0.742 -0.791 0.612 -0.558 0.253 -0.228 0.014 -0.003 -0.043 0 -0.257 -0.078 0.099 0.387 0.246 0.968 0.253 1.098 0.326 1.129 0.341 0.929 0.431 0.78 0.41 0.515 0.506 0.356 0.458 0.089 0.325 -0.039 0.364 -0.083 0.74 -0.254 -0.144 -0.797 -0.69 0.004 -0.27 -0.083 -0.182 -0.039 -0.049 -0.025 -0.128 -0.102 -0.224 -0.286 -0.329 -0.595 -0.292 -0.789 -0.308 -1.048 -0.254 -1.078 -0.261 -0.979 -0.281 -1.102 -0.637 -0.193 -0.297 0 -0.493 0.111 -0.508 0.459 -0.655 0.587 -0.78 0.812 -0.934 0.954 -0.982 0.888 -0.869 0.688 -0.665 0.129 0.229 -0.004 0.001 0.615 0.001 -0.27 0.104 -0.472 0.227 -0.716 0.536 -1.022 0.614 -1.056 0.658 -0.974 0.768 -0.857 0.777 -0.703 0.676 -0.52 0.67 -0.137 0.697 -0.011 0.53 -0.016 0.216 0.007 0.029 0.013 0.119 0.227 0.122 0.491 0.134 0.705 0.074 0.696 0.019 0.664 0.031 0.63 0.053 0.401 0.045 0.461" />
    <path class="write-flat-pen" fill="#000000" stroke-width="1.6" __comx="69.994" __comy="110.288" __timestamp="0x180ae2ebcad" d="M70.702 113.255 l0.496 -0.853 0.338 -0.583 0.203 -0.533 0.17 -0.497 0.117 -0.285 0.03 -0.305 0.022 -0.667 -0.863 -0.052 -0.746 -0.006 -0.912 0.748 -0.934 0.964 -0.924 1.131 -0.873 1.274 -0.614 1.354 -0.411 1.359 -0.141 1.186 -0.002 0.898 -0.001 0.515 0 0.791 1.557 0 1.2 -0.204 1.33 -0.824 1.332 -0.935 1.177 -0.838 0.977 -0.752 1.097 -0.914 -0.475 -0.683 -1.234 0.706 -1.051 0.623 -1.232 0.765 -1.33 0.898 -1.078 0.665 -0.828 0.14 -0.091 0 0 0.562 -0.001 -0.515 -0.002 -0.82 0.113 -0.99 0.35 -1.161 0.527 -1.166 0.775 -1.131 0.851 -1.045 0.841 -0.869 0.482 -0.398 0.268 -0.006 -0.356 -0.052 0.022 -0.552 0.03 0.153 -0.01 0.173 -0.083 0.534 -0.051 0.497 -0.169 0.562 -0.382 0.892" />
    <path class="write-flat-pen" fill="#000000" stroke-width="1.6" __comx="80.578" __comy="110.288" __timestamp="0x180ae2ebeb9" d="M76.443 97.823 l-0.249 -1.13 -0.049 -0.471 0.058 -0.382 -0.085 -0.316 -0.066 -0.164 -1.131 0.292 -0.026 0.344 -0.004 1.19 0.243 1.821 0.304 2.282 0.309 2.845 0.249 3.195 0.247 3.486 0.186 3.419 0.061 3.074 -0.001 2.398 0 1.603 -0.001 0.802 0.001 0.229 1.363 0.058 0.058 -0.681 0.366 -1.326 0.365 -1.586 0.537 -1.596 0.6 -1.278 0.538 -1.044 0.529 -0.762 0.426 -0.557 0.361 -0.44 0.257 -0.28 0.194 -0.132 0.097 -0.065 0.177 0.004 0.065 -0.052 0.459 0.009 0.009 -0.048 -1.113 0.013 -0.061 -0.253 0.117 0.838 0.179 1.271 0.254 1.458 0.323 1.419 0.388 1.232 0.338 1.039 0.402 0.726 0.327 0.683 0.656 0.141 0.533 -0.02 0.496 -0.392 0.373 -0.77 0.161 -1.036 -0.386 -0.178 -0.651 0.725 -0.388 0.376 -0.011 -0.048 0.025 -0.02 0.149 0.026 -0.053 -0.119 -0.359 -0.648 -0.296 -0.908 -0.372 -1.173 -0.311 -1.33 -0.253 -1.405 -0.201 -1.248 -0.136 -0.881 -0.188 -0.825 -1.24 0.013 0.009 0.066 0.332 0.009 -0.062 0.062 -0.077 0.004 -0.41 0.279 -0.313 0.211 -0.377 0.408 -0.4 0.476 -0.461 0.589 -0.612 0.841 -0.603 1.132 -0.668 1.356 -0.604 1.725 -0.396 1.621 -0.394 1.423 -0.069 0.808 1.363 0.058 0.001 -0.229 -0.001 -0.802 0 -1.603 -0.001 -2.412 -0.065 -3.111 -0.195 -3.453 -0.26 -3.501 -0.258 -3.219 -0.325 -2.882 -0.33 -2.299 -0.264 -1.73 -0.004 -1.1 -0.026 -0.344 -1.131 0.292 0.061 0.065 0.042 0.028 0.058 0.305 0.204 0.56 0.324 1.115" />
    <path class="write-flat-pen" fill="#000000" stroke-width="1.6" __comx="88.993" __comy="110.288" __timestamp="0x180ae2ebf8b" d="M88.584 113.937 l0.28 -0.574 0.162 -0.113 -0.016 0.154 -0.176 0.038 -0.303 0.028 0.026 0.174 0.092 1.017 0.042 1.281 -0.009 1.359 -0.005 1.203 -0.005 0.974 0 0.573 0.001 0.229 1.314 -0.178 -0.064 -0.187 -0.163 -0.803 -0.229 -1.051 -0.251 -1.512 -0.669 0.035 -0.089 1.562 0.025 1.126 0.09 0.915 0.062 0.271 1.314 -0.178 0.001 -0.229 0 -0.573 -0.005 -0.974 -0.005 -1.203 -0.009 -1.39 -0.085 -1.353 -0.162 -1.16 -0.354 -1.086 -0.557 0.028 -0.429 0.038 -0.142 0.383 -0.091 0.23 -0.198 0.722" />
    <path class="write-flat-pen" fill="#000000" stroke-width="1.6" __comx="87.456" __comy="110.288" __timestamp="0x180ae2ec031" d="M86.899 106.36 l-0.267 -0.473 0.066 0.074 0.045 -0.057 -0.695 0.629 0.409 0.062 0.526 0.337 0.674 0.562 1.122 0.907 0.659 -0.669 -0.942 -1.127 -0.72 -0.698 -0.869 -0.579 -0.732 -0.052 -0.695 0.629 0.045 0.057 0.066 0.303 0.656 0.64" />
    <path class="write-flat-pen" fill="#000000" stroke-width="1.6" __comx="101.329" __comy="110.288" __timestamp="0x180ae2ec202" d="M97.255 110.393 l-0.401 0.664 -0.004 0.859 -0.004 1.29 -0.124 1.504 -0.19 1.468 -0.191 1.313 -0.131 0.927 -0.071 0.619 -0.002 -0.418 1.308 -0.002 0 0.515 -0.002 -0.636 0.264 -0.836 0.417 -0.944 0.426 -0.963 0.486 -0.956 0.482 -0.885 0.615 -0.898 0.567 -0.856 0.558 -0.784 0.559 -0.73 0.473 -0.583 0.383 -0.342 0.205 -0.141 -0.003 0.006 0.095 0.004 -0.265 0.004 0.079 0.237 0.283 1.076 0.177 1.449 0.246 1.714 0.189 1.669 0.26 1.543 0.33 1.191 0.274 0.863 0.339 0.678 0.295 0.252 0.265 0.209 0.505 -0.074 0.639 -0.13 0 -0.899 -0.639 -0.13 -0.002 -0.074 0.139 0.094 -0.085 -0.092 -0.168 -0.352 -0.233 -0.74 -0.304 -1.099 -0.247 -1.435 -0.191 -1.653 -0.261 -1.722 -0.203 -1.529 -0.351 -1.215 -0.428 -1.138 -0.645 0.004 -0.285 0.004 -0.383 0.12 -0.429 0.317 -0.505 0.46 -0.541 0.677 -0.582 0.759 -0.583 0.819 -0.574 0.862 -0.653 0.934 -0.532 0.948 -0.528 0.991 -0.461 0.985 -0.47 1.003 -0.369 1.111 -0.002 0.853 0 0.858 1.434 -0.002 -0.002 -0.876 0.056 -0.526 0.122 -0.906 0.189 -1.321 0.19 -1.51 0.129 -1.589 -0.004 -1.345 -0.004 -0.859 -0.401 -0.664" />
    <path class="write-flat-pen" fill="#000000" stroke-width="1.6" __comx="117.439" __comy="110.288" __timestamp="0x180ae2ec387" d="M109.354 115.361 l0.587 0.063 0.465 0.017 0.926 -0.049 1.135 -0.37 1.312 -0.644 1.476 -0.752 1.426 -0.82 1.244 -0.828 1.051 -0.831 0.818 -0.74 0.539 -0.696 0.263 -0.716 -0.001 -0.458 -0.002 -0.675 -0.909 -0.466 -1.104 -0.064 -1.16 0.001 -1.141 0 -1.264 0 -1.098 0.706 -0.941 0.907 -0.72 1.278 -0.49 1.474 -0.288 1.533 -0.014 1.492 -0.009 1.433 0.229 1.423 1.125 1.166 1.438 0.719 1.605 0.441 1.618 0.061 1.598 0 1.458 -0.003 1.285 -0.01 1.216 -0.086 1.11 -0.32 1.387 -0.843 -0.298 -0.7 -1.468 0.371 -0.918 0.138 -1.066 0.029 -1.25 -0.01 -1.458 -0.003 -1.571 0 -1.424 -0.054 -1.31 -0.36 -1.097 -0.541 -0.649 -0.666 -0.152 -0.868 -0.009 -1.316 -0.014 -1.372 0.219 -1.331 0.397 -1.275 0.547 -1.013 0.707 -0.696 0.677 -0.439 0.891 0 1.141 0 1.122 0.001 0.798 0.051 -0.022 -0.008 -0.002 -0.102 -0.001 0.229 -0.117 0.315 -0.348 0.45 -0.703 0.634 -0.977 0.772 -1.165 0.776 -1.362 0.783 -1.44 0.737 -1.223 0.615 -0.893 0.317 -0.722 0.065 -0.423 0.017 -0.587 0.063" />
    <path class="write-flat-pen" fill="#000000" stroke-width="1.6" __comx="172.037" __comy="110.288" __timestamp="0x180ae2ec747" d="M176.165 99.521 l0.218 -0.502 0.089 -0.16 0.123 -0.057 0.047 -0.057 0.063 -0.115 0.021 -0.291 -0.119 -0.713 -0.86 -0.521 -0.773 -0.386 -0.895 -0.273 -1.117 -0.065 -1.282 -0.001 -1.578 0.259 -1.722 0.995 -1.709 1.187 -1.649 1.489 -1.52 1.731 -1.219 1.895 -0.749 2.274 -0.269 2.345 -0.002 2.465 0.135 2.459 1.077 2.143 1.6 1.445 2.025 0.72 2.278 0.001 2.461 0 2.572 -0.856 2.279 -1.18 2.037 -1.164 1.579 -0.945 1.268 -0.821 1.019 -0.484 1.216 -0.38 -0.158 -0.815 -1.374 0.121 -1.263 0.432 -1.394 0.783 -1.59 0.888 -2.019 1.127 -2.158 1.111 -2.245 0.747 -2.229 0 -2.032 0.001 -1.524 -0.54 -1.189 -1.075 -0.825 -1.637 -0.119 -2.122 -0.002 -2.345 0.238 -2.121 0.646 -1.964 1.062 -1.656 1.396 -1.59 1.52 -1.375 1.587 -1.103 1.448 -0.838 1.211 -0.199 1.127 -0.001 0.911 0.05 0.626 0.185 0.621 0.301 0.28 0.166 0.008 -0.025 0.021 0.167 0.063 0.115 0.047 0.057 0.123 0.057 0.089 0.069 -0.047 0.455" />
    <path class="write-flat-pen" fill="#000000" stroke-width="1.6" __comx="186.733" __comy="110.288" __timestamp="0x180ae2ec891" d="M186.321 109.668 l0.037 -0.747 -0.105 -0.48 -0.604 -0.27 -0.538 -0.038 -0.679 -0.035 -0.847 0.744 -0.543 1.084 -0.299 1.208 -0.081 1.106 -0.01 0.937 -0.008 0.904 0.586 0.856 1.036 0.256 1.115 0.002 1.327 -0.564 1.189 -1.138 1.118 -1.263 0.859 -1.281 0.59 -1.17 0.358 -1.011 -0.001 -0.801 0 -0.981 -1.145 -0.233 -1.141 -0.008 -1.403 -0.009 -1.458 0.62 -1.186 0.497 -0.815 0.275 -0.337 0.126 0.002 0 0 1.373 0.444 -0.033 1.014 -0.064 1.786 -0.134 0 -0.91 -1.786 -0.134 -1.014 -0.064 -0.444 -0.033 0 1.373 0.255 0 0.551 -0.217 0.833 -0.297 1.223 -0.534 1.204 -0.526 1.132 -0.009 1.014 -0.008 -0.004 -0.004 0 -0.065 -0.001 0.573 -0.276 0.707 -0.551 1.006 -0.789 1.124 -1.037 1.143 -0.966 0.923 -0.828 0.352 -0.66 0.002 -0.358 -0.087 -0.047 -0.06 -0.008 -0.471 -0.01 -0.896 0.045 -0.956 0.209 -0.968 0.344 -0.749 0.294 -0.287 0.208 -0.035 0.349 -0.038 0.03 -0.041 0.022 -0.136 0.037 0.597" />
    <path class="write-flat-pen" fill="#000000" stroke-width="1.6" __comx="199.387" __comy="110.288" __timestamp="0x180ae2ecaf1" d="M199.978 110.408 l0.531 -0.416 0.074 -0.424 0.044 -0.286 0.026 -0.401 0.028 -0.344 0.02 -0.401 0.011 -0.612 -0.411 -0.572 -0.646 -0.595 -0.841 -0.312 -0.94 -0.071 -0.868 -0.009 -1.156 0.064 -1.141 0.752 -1.078 0.912 -1.003 1.082 -1.056 1.368 -0.935 1.504 -0.738 1.688 -0.475 1.58 -0.207 1.476 -0.001 0.965 -0.001 1.275 1.248 0.126 1.335 0 1.581 -1.088 1.59 -1.736 1.605 -1.973 1.65 -2.19 1.645 -2.189 1.526 -2.143 1.405 -2.145 1.221 -2.044 1.035 -2.107 0.967 -2.33 0.833 -2.431 0.764 -2.357 0.701 -2.245 0.516 -1.805 0.325 -1.524 0.193 -1.102 0.13 -0.761 0.073 -0.572 0.002 -0.156 -1.285 -0.309 -0.378 0.707 -0.685 1.068 -0.874 1.454 -0.598 1.908 -0.704 2.186 -0.775 2.78 -0.704 3.23 -0.767 3.74 -0.639 3.925 -0.447 3.926 -0.256 3.575 -0.127 2.832 0 2.078 0 1.317 0.002 0.841 0.239 0.839 1.227 -0.014 0.834 -0.723 0.805 -0.931 1.021 -1.338 -0.571 -0.553 -1.306 1.066 -0.843 0.787 -0.433 0.308 0.34 -0.014 0.112 0.38 0.002 -0.648 0 -1.317 0 -2.045 0.127 -2.781 0.251 -3.526 0.441 -3.862 0.628 -3.863 0.754 -3.704 0.69 -3.184 0.746 -2.718 0.69 -2.167 0.543 -1.757 0.774 -1.295 0.709 -1.108 0.382 -0.782 -1.285 -0.309 0.002 0.073 -0.054 0.459 -0.124 0.728 -0.188 1.074 -0.309 1.454 -0.498 1.745 -0.694 2.222 -0.757 2.339 -0.815 2.38 -0.934 2.251 -0.993 2.016 -1.188 1.965 -1.384 2.092 -1.516 2.094 -1.65 2.163 -1.646 2.162 -1.564 1.921 -1.453 1.585 -1.081 0.745 -0.82 0 0.107 0.012 -0.001 0.015 -0.001 -0.867 0.174 -1.273 0.412 -1.398 0.657 -1.519 0.84 -1.36 0.972 -1.266 0.898 -0.979 0.95 -0.806 0.761 -0.508 0.745 -0.051 0.78 -0.009 0.708 0.043 0.427 0.146 0.368 0.321 0.096 0.115 0.011 0.189 0.02 0.401 0.028 0.344 0.026 0.401 0.044 0.286 0.074 0.034 -0.178 0.224" />
    <path class="write-flat-pen" fill="#000000" stroke-width="1.6" __comx="218.055" __comy="110.288" __timestamp="0x180ae2ecc85" d="M210.697 113.426 l-0.932 0.191 -0.257 0.003 0.171 1.187 1.021 0.004 1.339 -0.63 1.618 -0.873 1.606 -0.985 1.543 -0.986 1.314 -0.949 1.025 -0.926 0.708 -0.925 0.168 -0.91 -0.001 -0.793 -0.757 -0.797 -1.431 -0.068 -1.411 0 -1.703 0 -1.731 0.626 -1.624 0.793 -1.312 1.057 -1.047 1.189 -0.722 1.35 -0.367 1.539 -0.011 1.513 -0.008 1.657 0.824 1.706 1.508 1.434 1.96 0.951 2.383 0.493 2.796 0 3.055 -0.485 2.951 -1.207 2.643 -1.415 2.196 -1.899 -0.483 -0.663 -2.396 1.447 -2.554 1.22 -2.753 1.084 -2.776 0.432 -2.528 0 -2.054 -0.424 -1.589 -0.767 -1.154 -1.086 -0.57 -1.157 -0.008 -1.321 -0.011 -1.351 0.266 -1.21 0.546 -1.055 0.854 -0.987 1.097 -0.89 1.418 -0.696 1.438 -0.52 1.466 0 1.377 0 0.85 0.047 0.004 0.005 -0.001 0.123 -0.086 0.464 -0.432 0.564 -0.877 0.792 -1.222 0.883 -1.499 0.961 -1.563 0.962 -1.551 0.845 -1.069 0.515 -0.754 0.119 0.171 1.187 0.25 -0.111 0.924 -0.288" />
    <path class="write-flat-pen" fill="#000000" stroke-width="1.6" __comx="257.774" __comy="110.288" __timestamp="0x180ae2ecfb0" d="M259.797 93.671 l-0.346 -0.034 -0.161 -0.158 -0.195 -0.276 -0.137 -0.285 -0.201 -0.473 -0.162 -0.398 -0.331 -0.48 -0.379 -0.401 -0.228 -0.257 -0.267 -0.281 -0.278 -0.043 -0.69 -0.025 -0.05 1.257 -0.007 1.489 -0.012 2.233 -0.014 2.806 -0.007 3.15 -0.005 3.608 -0.003 3.825 -0.128 3.688 -0.317 3.374 -0.128 2.726 0 1.85 0 0.974 0.001 0.401 1.454 0 -0.019 -1.234 0.452 -2.034 0.678 -2.779 0.49 -3.453 -0.706 -0.148 -0.925 3.324 -0.843 2.719 -0.562 2.204 -0.019 1.401 1.454 0 0.001 -0.401 0 -0.974 0 -1.815 0.125 -2.658 0.317 -3.383 0.126 -3.756 -0.003 -3.849 -0.005 -3.608 -0.007 -3.15 -0.014 -2.806 -0.012 -2.233 -0.007 -1.489 -0.05 -0.003 -0.563 -0.025 -0.152 -0.043 -0.013 -0.051 0.279 0.201 0.382 0.286 0.303 0.321 0.219 0.289 0.306 0.443 0.244 0.287 0.312 0.296 0.346 0.185 0.458 -0.034" />
    <path class="write-flat-pen" fill="#000000" stroke-width="1.6" __comx="263.868" __comy="110.288" __timestamp="0x180ae2ed081" d="M257.537 96.179 l0.844 0.061 1.15 0.039 1.562 -0.346 1.749 -0.572 1.781 -0.623 1.641 -0.569 1.371 -0.45 1 -0.272 0.61 -0.07 -0.247 -0.044 0.127 -0.315 0.382 1.066 0.185 0 0.382 -1.066 0.127 -0.887 -1.008 -0.044 -0.784 0.045 -1.155 0.301 -1.418 0.466 -1.655 0.576 -1.768 0.637 -1.673 0.573 -1.353 0.341 -1.005 0.039 -0.844 0.061" />
    <path class="write-flat-pen" fill="#000000" stroke-width="1.6" __comx="264.704" __comy="110.288" __timestamp="0x180ae2ed12f" d="M258.766 104.638 l-0.678 0.024 -0.66 0.096 -0.055 0.572 -0.026 0.711 1.224 0.009 1.303 0.018 1.769 -0.178 2.114 -0.774 2.075 -0.795 1.98 -0.62 1.669 -0.422 1.386 -0.12 1.195 -0.34 0 -0.361 -1.195 -0.34 -1.529 -0.12 -1.88 0.379 -2.077 0.64 -2.108 0.808 -1.943 0.715 -1.527 0.165 -1.232 0.018 0.083 0.009 -0.026 0.597 -0.055 0.343 -0.153 -0.019 0.563 -0.537" />
    <path class="write-flat-pen" fill="#000000" stroke-width="1.6" __comx="273.665" __comy="110.288" __timestamp="0x180ae2ed2cb" d="M271.579 113.846 l-0.419 -0.22 -0.089 -0.18 -0.268 -0.064 -0.58 -0.035 -0.262 1.174 -0.085 0.981 -0.012 1.111 -0.008 1.005 0.085 0.991 0.909 0.822 0.966 0.002 1.132 0.001 1.37 -0.757 1.369 -1.243 1.124 -1.46 0.868 -1.431 0.419 -1.382 -0.005 -1.187 0 -1.08 -0.56 -1.017 -1.289 -0.586 -1.339 -0.198 -1.377 -0.012 -1.332 -0.009 -1.189 0.46 -0.821 0.488 -0.542 0.348 -0.415 0.5 0.01 0.98 1.246 -0.14 1.376 -0.173 0 -0.724 -1.376 -0.173 0.105 -0.14 0.01 0.865 -0.035 0.042 0.346 -0.224 0.701 -0.428 0.84 -0.342 1.077 -0.009 1.285 -0.012 1.069 0.145 0.739 0.33 0.201 0.357 0 0.752 -0.005 0.989 -0.342 1.023 -0.78 1.204 -1.031 1.289 -1.166 1.047 -0.911 0.503 -0.77 0.001 -0.428 0.002 -0.105 -0.095 -0.042 -0.383 -0.008 -0.942 -0.012 -1.065 0.042 -0.852 -0.008 -0.086 -0.454 -0.035 -0.141 -0.064 0.037 -0.066 0.667 0.107" />
    <path class="write-flat-pen" fill="#000000" stroke-width="1.6" __comx="286.138" __comy="110.288" __timestamp="0x180ae2ed3e1" d="M280.191 109.604 l0.5 0.063 0.127 0.035 -0.078 0.045 0.135 0.426 0.347 1.159 0.296 1.453 0.306 1.699 0.244 1.685 0.118 1.572 0.058 1.234 -0.005 0.842 -0.003 0.515 -0.009 0.115 1.231 -0.405 -0.138 -0.206 -0.097 -0.751 0 -1.272 -0.002 -1.302 0.213 -1.008 0.583 -0.914 0.854 -0.823 1.061 -0.75 1.323 -0.718 1.458 -0.63 1.519 -0.554 1.854 -0.573 -0.212 -0.901 -1.963 0.327 -1.65 0.477 -1.585 0.63 -1.465 0.771 -1.221 0.854 -1.048 1.01 -0.811 1.262 -0.295 1.397 -0.002 1.447 0 1.362 0.156 1.196 0.369 0.481 1.231 -0.405 -0.009 -0.115 -0.003 -0.515 -0.005 -0.876 -0.068 -1.286 -0.135 -1.635 -0.263 -1.751 -0.328 -1.737 -0.338 -1.525 -0.414 -1.246 -0.498 -1.177 -0.712 0.045 -0.127 0.035 -0.5 0.063" />
    <path class="write-flat-pen" fill="#000000" stroke-width="1.6" __comx="300.335" __comy="110.288" __timestamp="0x180ae2ed665" d="M293.948 108.98 l-0.654 0.204 -0.37 0.087 -0.221 0.442 -0.096 0.659 -0.078 0.978 -0.143 1.357 -0.201 1.667 -0.134 1.834 -0.192 1.757 -0.191 1.514 -0.255 1.248 -0.116 0.716 -0.216 0.452 -0.002 0.33 1.404 0 0.001 -0.286 -0.002 -0.957 0.042 -1.162 0.542 -1.158 0.79 -1.236 0.737 -1.181 0.78 -0.991 0.933 -1.019 0.88 -0.97 0.882 -0.91 0.81 -0.843 0.721 -0.651 0.678 -0.501 0.358 -0.273 0.178 -0.05 -0.356 0.008 -0.131 -0.338 0.042 0.801 -0.016 1.294 -0.008 1.433 -0.249 1.467 -0.317 1.351 -0.257 1.079 -0.202 0.768 -0.059 0.364 -0.04 0.105 1.395 0.249 -0.001 -0.657 0.212 -0.883 0.516 -1.174 0.709 -1.263 0.85 -1.183 0.868 -1.2 0.985 -1.249 0.934 -1.077 0.86 -0.949 0.703 -0.635 0.502 -0.327 0.383 0.005 -0.079 0.011 0.067 0.241 0.099 1.21 -0.014 1.514 -0.007 1.654 -0.304 1.619 -0.502 1.684 -0.441 1.527 -0.507 1.431 -0.384 1.331 -0.308 1.007 -0.327 0.893 -0.131 0.678 -0.068 0.356 0.03 0.791 1.126 -0.175 0.911 -1.013 -0.195 -0.281 -1.018 0.328 0.493 -0.175 0.03 0.676 0.059 -0.217 0.122 -0.582 0.307 -0.825 0.326 -1.055 0.376 -1.303 0.507 -1.432 0.446 -1.565 0.512 -1.752 0.33 -1.818 -0.007 -1.782 -0.014 -1.579 -0.155 -1.424 -0.44 -1.248 -0.84 0.011 -0.758 0.005 -0.892 0.59 -0.819 0.74 -0.915 0.998 -0.968 1.099 -1.043 1.271 -0.907 1.205 -0.925 1.222 -0.813 1.371 -0.625 1.345 -0.295 1.178 -0.001 0.832 1.395 0.249 0.087 -0.239 0.068 -0.438 0.179 -0.721 0.25 -1.098 0.317 -1.398 0.258 -1.625 -0.008 -1.545 -0.016 -1.34 -0.084 -1.032 -0.257 -0.681 -0.736 0.008 -0.583 0.179 -0.529 0.414 -0.716 0.53 -0.8 0.723 -0.838 0.875 -0.893 0.922 -0.894 0.977 -0.968 1.043 -0.868 1.07 -0.785 1.224 -0.858 1.284 -0.726 1.477 -0.085 1.473 -0.002 0.99 0.001 0.286 1.404 0 -0.002 -0.014 0.165 -0.35 0.138 -0.887 0.252 -1.272 0.19 -1.578 0.188 -1.794 0.119 -1.831 0.179 -1.654 0.111 -1.392 0.049 -0.969 0.031 -0.487 -0.094 0.099 -0.116 -0.028 0.585 -0.356" />
    <path class="write-flat-pen" fill="#000000" stroke-width="1.6" __comx="319.776" __comy="110.288" __timestamp="0x180ae2ed84d" d="M323.97 114.557 l0.258 -1.204 0.096 -0.818 0.122 -0.706 0.026 -0.6 0.02 -0.401 0.019 -0.229 0.016 -0.788 -1.18 -0.02 -0.867 -0.007 -1.082 0.556 -1.18 0.824 -1.349 0.922 -1.429 1.108 -1.479 1.275 -1.345 1.212 -1.304 1.235 -0.85 1.002 -0.693 0.812 -0.333 0.675 -0.1 0.45 0 0.923 1.6 -0.002 1.218 -0.619 1.235 -0.886 1.387 -0.924 1.436 -1.032 1.421 -0.855 1.177 -0.678 0.881 -0.426 0.614 -0.186 0.281 0.001 -0.175 0.001 -0.052 -0.103 0.044 0.822 -0.007 1.237 -0.005 1.317 -0.003 1.246 0.149 1.223 0.524 0.873 0.709 0.549 0.808 0.08 0.845 -0.006 0.95 -0.33 0.84 -0.907 1.002 -1.258 -0.705 -0.668 -1.187 1.051 -0.681 0.582 -0.445 0.128 -0.55 -0.006 -0.333 -0.035 -0.179 -0.138 -0.236 -0.387 -0.104 -0.838 -0.003 -1.159 -0.005 -1.317 -0.007 -1.282 -0.082 -1.125 -0.432 -0.905 -0.682 0.001 -0.48 0.001 -0.907 0.273 -1.02 0.49 -1.231 0.697 -1.494 0.863 -1.479 1.03 -1.402 0.908 -1.174 0.832 -0.811 0.412 0.206 -0.002 0 0.694 0.027 -0.123 0.174 -0.356 0.575 -0.677 0.798 -0.945 1.232 -1.17 1.317 -1.193 1.436 -1.245 1.36 -1.068 1.313 -0.911 1.102 -0.78 0.692 -0.36 0.527 -0.007 -0.166 -0.02 0.016 -0.559 0.019 0.229 0.02 0.401 0.026 0.545 -0.005 0.669 -0.03 0.785 -0.147 1.177" />
    <path class="write-flat-pen" fill="#000000" stroke-width="1.6" __comx="334.676" __comy="110.288" __timestamp="0x180ae2ed91f" d="M329.454 110.247 l-0.594 -0.113 -0.127 -0.038 -0.728 -0.047 -0.029 1.473 1.262 0.025 1.46 -0.243 1.889 -0.704 2.054 -0.675 1.986 -0.506 1.652 -0.341 1.259 -0.128 0.794 -0.046 0.444 -0.084 0.598 -0.162 0 -0.816 -0.598 -0.162 -0.444 -0.084 -0.854 -0.046 -1.403 0.101 -1.771 0.347 -2.071 0.525 -2.129 0.7 -1.787 0.67 -1.202 0.215 0.248 0.025 -0.029 1.244 -0.602 -0.047 0.127 -0.038 0.594 -0.113" />
    <path class="write-flat-pen" fill="#000000" stroke-width="1.6" __comx="338.565" __comy="110.288" __timestamp="0x180ae2eda25" d="M333.062 102.237 l-0.339 0.974 -0.07 1.507 0.071 2.006 -0.036 2.156 -0.027 2.233 -0.018 2.004 -0.013 1.661 -0.008 1.26 -0.006 1.031 -0.005 1.014 0.553 0.908 1.062 0.439 1.164 0.001 1.416 0 1.7 -0.387 1.628 -0.873 1.447 -0.947 1.459 -0.892 1.48 -1.504 -0.588 -0.687 -1.616 1.145 -1.457 0.712 -1.468 0.885 -1.414 0.73 -1.342 0.3 -1.246 0 -0.864 0.001 -0.332 -0.133 -0.081 -0.123 -0.005 -0.589 -0.006 -1.031 -0.008 -1.26 -0.013 -1.661 -0.018 -2.004 -0.027 -2.233 -0.036 -2.196 -0.182 -2.003 -0.07 -1.471 -0.339 -0.974" />
    <path class="write-flat-pen" fill="#000000" stroke-width="1.6" __comx="363.52" __comy="110.352" __timestamp="0x180ae2ee517" d="M362.533 110.223 l-0.057 1.096 0.865 0.069 0.38 -0.013 0.317 -0.077 0.527 -0.127 0 -0.8 -0.527 -0.127 -0.317 -0.077 -0.38 -0.013 0.231 0.069 -0.057 0" />
    <path class="write-flat-pen" fill="#000000" stroke-width="1.6" __comx="365.133" __comy="115.2" __timestamp="0x180ae2ee59d" d="M363.3 114.81 l-0.093 0.963 0.5 0.37 0.631 0.399 0.85 0.581 1.411 0.624 0.461 -0.892 -1.256 -0.753 -0.798 -0.565 -0.637 -0.403 -0.007 0.027 -0.093 -0.35" />
    <path class="write-flat-pen" fill="#000000" stroke-width="1.6" __comx="123.281" __comy="183.177" __timestamp="0x180ae2eec8a" d="M120.778 183.728 l-0.375 -0.838 -0.172 -0.234 -0.082 -0.192 -0.192 -0.413 -0.508 -0.025 -0.591 -0.022 -0.246 0.826 -0.008 1.184 -0.006 1.489 -0.007 1.775 -0.007 1.73 0.515 1.474 0.766 1.115 1.045 0.711 1.178 0.071 1.262 0.003 1.522 -0.688 1.462 -1.321 1.278 -1.582 0.945 -1.654 0.622 -1.716 0.055 -1.563 -0.008 -1.352 -0.933 -1.177 -1.965 -0.546 -2.062 0 -2.187 -0.002 -1.992 0.178 -1.357 0.345 -0.876 0.141 -0.524 0.473 0 0.941 1.124 0.724 1.598 0.359 2.231 0.37 0.222 -0.947 -2.139 -0.653 -1.317 -0.443 -0.27 -0.192 0 0.483 -0.27 0.243 0.519 -0.088 1.305 -0.342 1.811 -0.166 2.123 -0.002 1.868 0 1.331 0.37 0.334 0.427 -0.008 0.824 -0.072 1.3 -0.518 1.376 -0.829 1.438 -1.131 1.396 -1.2 1.085 -1.013 0.458 -0.893 0.003 -0.724 -0.043 -0.477 -0.32 -0.501 -0.718 -0.373 -1.046 -0.007 -1.477 -0.007 -1.775 -0.006 -1.489 -0.008 -0.992 -0.119 0.368 -0.464 -0.022 -0.254 -0.025 -0.065 -0.184 0.298 0.266 0.208 0.11 0.523 0.583" />
    <path class="write-flat-pen" fill="#000000" stroke-width="1.6" __comx="137.046" __comy="184.891" __timestamp="0x180ae2eee27" d="M137.994 180.205 l-0.399 -0.459 -0.13 -0.362 -1.001 -0.039 -0.064 1.406 -0.005 1.432 -0.008 2.176 -0.015 2.692 -0.007 3.264 -0.007 3.722 -0.009 3.78 -0.006 3.551 -0.001 2.863 0 2.004 0 1.256 -0.095 0.562 0.205 -0.366 1.081 0.006 -0.018 -0.37 -0.059 -1.661 -0.213 -2.546 -0.855 0 -0.213 2.546 -0.059 1.661 -0.018 1.806 1.208 0.006 0.332 -0.595 0.158 -0.927 0 -1.379 0 -2.004 -0.001 -2.863 -0.006 -3.551 -0.009 -3.78 -0.007 -3.722 -0.007 -3.264 -0.015 -2.692 -0.008 -2.176 -0.005 -1.432 -0.064 -0.197 -0.874 -0.039 -0.004 -0.133 0.621 0.464" />
    <path class="write-flat-pen" fill="#000000" stroke-width="1.6" __comx="140.335" __comy="180.365" __timestamp="0x180ae2eef17" d="M138.088 179.546 l0.043 -0.092 -0.109 0.064 0.78 -0.024 1.309 0.007 1.561 0.02 1.395 0.113 0.951 0.591 0.561 0.762 0.052 1.083 -0.054 1.296 -1.085 1.365 -1.864 1.456 -2.055 1.139 -1.946 0.655 -1.457 0.384 -0.734 0.104 0.593 0.029 -0.057 0 -1.227 0 -0.057 1.342 0.846 0.029 0.914 -0.125 1.585 -0.418 2.11 -0.719 2.255 -1.266 2.065 -1.637 1.45 -1.842 0.073 -1.796 -0.075 -1.552 -0.96 -1.3 -1.457 -0.898 -1.774 -0.116 -1.608 0.02 -1.353 0.007 -0.868 0.091 -0.87 0.179 0.043 1.048" />
    <path class="write-flat-pen" fill="#000000" stroke-width="1.6" __comx="373.362" __comy="187.026" __timestamp="0x180ae2eff89" d="M380.37 186.947 l0.092 -0.469 0.059 -0.057 0.06 -0.205 -0.129 -0.447 -0.167 -0.133 -0.03 -0.179 -0.202 -0.538 -0.316 -0.485 -0.3 -0.62 -0.372 -0.625 -0.524 -0.486 -0.615 -0.494 -0.872 -0.289 -0.994 -0.128 -1.058 -0.003 -1.372 -0.001 -1.404 0.734 -1.28 0.974 -1.278 1.215 -0.998 1.383 -0.913 1.414 -0.796 1.498 -0.475 1.286 -0.275 1.184 -0.069 1.052 0.001 0.652 0.001 0.817 0.96 0.496 0.939 -0.003 1.233 -0.28 1.425 -1.095 1.373 -1.42 1.391 -1.56 1.263 -1.399 1.078 -1.328 0.956 -1.104 0.649 -0.88 0.5 -0.679 0.342 -0.433 0.231 -0.416 0.001 -0.22 0.005 -0.057 -1.271 0 -0.038 0.286 -0.002 0.842 -0.066 1.215 -0.19 1.42 -0.131 1.519 -0.066 1.518 -0.002 1.332 0 1.088 0.001 0.802 0 0.684 0.471 0.624 0.659 -0.016 0.317 -0.053 0.853 -0.136 0 -0.945 -0.853 -0.136 -0.317 -0.053 0.025 -0.016 0.218 0.28 0 -0.232 0.001 -0.802 0 -1.088 -0.002 -1.303 0.061 -1.46 0.122 -1.459 0.191 -1.444 0.06 -1.305 -0.002 -0.876 -0.038 -0.286 -1.271 0 0.005 0.057 0.001 -0.105 -0.023 0.042 -0.291 0.369 -0.514 0.695 -0.619 0.838 -0.946 1.072 -1.077 1.306 -1.272 1.349 -1.397 1.532 -1.289 1.329 -1.11 0.852 -0.795 0.178 -0.456 -0.003 0.073 0.038 0.001 0.015 0.001 -0.608 0.058 -0.895 0.232 -0.992 0.412 -1.119 0.725 -1.365 0.862 -1.335 0.903 -1.251 1.131 -1.076 1.128 -0.859 1.004 -0.526 1.036 -0.001 0.97 -0.003 0.78 0.101 0.523 0.169 0.399 0.308 0.364 0.315 0.262 0.406 0.334 0.64 0.318 0.431 0.178 0.378 0.223 0.508 0.213 0.096 -0.002 -0.104 0.06 0.024 0.059 0.057 0.092 0.469" />
    <path class="write-flat-pen" fill="#000000" stroke-width="1.6" __comx="389.185" __comy="187.026" __timestamp="0x180ae2f0225" d="M390.911 191.02 l0.276 -0.476 0.046 -0.286 0.057 -0.515 -0.118 -0.66 -0.05 -0.627 -0.12 -0.709 -0.125 -0.788 -0.219 -0.673 -0.338 -0.624 -0.686 -0.546 -0.848 -0.09 -0.727 -0.005 -0.887 -0.007 -1.111 -0.007 -1.181 0.595 -1.029 0.616 -0.924 0.827 -0.766 1.006 -0.616 1.109 -0.473 1.158 -0.337 1.152 -0.21 1.069 -0.001 0.983 0 0.63 0 1.091 1.07 0 1.206 0.001 1.499 -1.284 1.579 -1.78 1.617 -2.28 1.592 -2.534 1.588 -2.475 1.402 -2.427 1.273 -2.313 1.09 -2.215 0.901 -2.232 0.641 -2.155 0.575 -2.03 0.382 -1.784 0.38 -1.487 0.259 -1.171 0.124 -0.728 0.142 -0.512 0.002 -0.261 -1.318 -0.056 -0.066 0.617 -0.463 0.935 -0.583 1.4 -0.717 1.82 -0.579 2.262 -0.827 2.809 -0.832 3.405 -0.767 3.686 -0.639 3.58 -0.385 3.25 -0.129 2.503 0 1.678 0.001 0.916 0.002 0.401 0.01 0.731 1.251 -0.017 0.89 -0.611 0.804 -0.839 1.029 -1.125 -0.545 -0.604 -1.223 0.91 -0.844 0.65 -0.504 0.305 0.49 -0.017 0.01 0.617 0.002 -0.401 0.001 -0.916 0 -1.643 0.125 -2.422 0.375 -3.164 0.629 -3.521 0.755 -3.644 0.816 -3.352 0.821 -2.803 0.562 -2.204 0.678 -1.731 0.558 -1.349 0.551 -1.126 0.06 -0.872 -1.318 -0.056 0.002 0.082 -0.111 0.404 -0.13 0.761 -0.248 1.119 -0.381 1.491 -0.379 1.766 -0.566 1.978 -0.627 2.083 -0.874 2.121 -1.065 2.138 -1.262 2.268 -1.386 2.384 -1.581 2.45 -1.578 2.506 -1.552 2.187 -1.464 1.656 -1.037 0.892 -0.695 0.001 0.31 0 0 0.289 0 -0.63 -0.001 -0.85 0.17 -0.878 0.297 -1.024 0.414 -1.018 0.525 -0.953 0.628 -0.826 0.724 -0.662 0.872 -0.529 0.847 -0.435 0.79 -0.007 0.887 -0.007 0.668 -0.005 0.42 0.024 0.202 0.141 0.169 0.292 0.161 0.472 0.128 0.701 0.133 0.665 0.077 0.633 0.136 0.6 0.057 0.401 0.046 0.286 0.276 0.476" />
    <path class="write-flat-pen" fill="#000000" stroke-width="1.6" __comx="403.339" __comy="187.026" __timestamp="0x180ae2f048d" d="M403.227 190.206 l0.057 -0.521 0.056 -0.229 0.029 -0.286 0.023 -0.401 0.001 -0.573 0.005 -0.63 0.003 -0.559 -0.102 -0.774 -0.649 -0.479 -0.771 -0.168 -0.804 -0.01 -1.122 0.133 -1.316 0.726 -1.168 0.992 -0.994 1.132 -0.957 1.168 -0.625 1.433 -0.465 1.43 -0.346 1.422 -0.001 1.17 -0.002 0.744 0 1.156 1.141 0.001 1.179 0 1.556 -1.137 1.574 -1.54 1.614 -1.811 1.537 -1.988 1.409 -2.045 1.28 -2.156 1.159 -2.167 0.968 -2.405 0.763 -2.371 0.824 -2.529 0.764 -2.592 0.698 -2.523 0.7 -2.473 0.508 -2.126 0.449 -1.745 0.192 -1.282 0.125 -0.677 0.074 -0.401 0.001 -0.173 -1.276 0 -0.005 0.265 -0.319 0.714 -0.643 1.212 -0.587 1.464 -0.709 1.798 -0.715 2.268 -0.707 2.653 -0.77 3.114 -0.702 3.627 -0.702 3.797 -0.511 3.692 -0.319 3.167 -0.193 2.21 0 1.518 0.001 0.916 0.001 0.515 0.008 0.892 0.979 -0.024 0.696 -0.04 0.719 -0.62 0.647 -0.98 -0.507 -0.449 -0.816 0.672 -0.421 0.181 -0.318 -0.04 0.346 -0.024 0.008 0.433 0.001 -0.515 0.001 -0.916 0 -1.46 0.187 -2.142 0.315 -3.133 0.503 -3.638 0.692 -3.762 0.692 -3.589 0.752 -3.071 0.688 -2.616 0.679 -2.199 0.686 -1.753 0.554 -1.4 0.625 -1.193 0.442 -1.005 -0.005 -0.537 -1.276 0 0.001 0.056 -0.053 0.286 -0.129 0.697 -0.188 1.237 -0.439 1.691 -0.507 2.111 -0.695 2.451 -0.697 2.516 -0.758 2.562 -0.824 2.511 -0.758 2.325 -0.933 2.291 -1.123 2.071 -1.255 2.082 -1.38 1.963 -1.506 1.906 -1.555 1.739 -1.468 1.437 -1.106 0.81 -0.723 0 0.254 0.001 0 0.239 -0.002 -0.744 -0.001 -1.006 0.288 -1.212 0.423 -1.319 0.516 -1.201 0.817 -1.008 0.907 -1.044 0.987 -0.841 0.966 -0.534 0.78 -0.096 0.591 -0.01 0.37 0.061 -0.015 -0.021 0.024 0.142 0.003 0.472 0.005 0.63 0.001 0.573 0.023 0.401 0.029 0.286 0.056 0.229 0.057 0.521" />
    <path class="write-flat-pen" fill="#000000" stroke-width="1.6" __comx="418.879" __comy="187.026" __timestamp="0x180ae2f0613" d="M414.194 181.942 l0.192 -0.847 0.055 -0.286 0.052 -0.229 -1.147 0 -0.069 0.744 -0.007 1.603 -0.011 2.119 -0.007 2.405 -0.002 2.291 -0.006 2.062 -0.002 1.89 -0.002 1.489 -0.001 0.936 -0.053 0.481 -0.049 0.176 1.337 0.182 0.004 -0.115 0.001 -0.859 0 -1.317 -0.005 -1.403 0.344 -1.36 0.52 -1.267 0.782 -1.143 0.733 -1.05 0.85 -0.932 0.991 -1.008 1.063 -0.96 1.061 -0.959 0.967 -0.765 0.932 -0.588 0.642 -0.324 0.512 -0.077 0.782 -0.131 0 -0.803 -0.782 -0.131 -0.756 -0.077 -1.006 0.363 -1.096 0.671 -1.062 0.839 -1.094 0.988 -1.092 0.987 -1.037 1.054 -0.925 1.015 -0.788 1.126 -0.866 1.262 -0.621 1.482 -0.417 1.618 -0.005 1.575 0 1.317 0.001 0.859 0.004 0.115 1.337 0.182 0.077 -0.282 0.073 -0.664 -0.001 -1.011 -0.002 -1.489 -0.002 -1.89 -0.006 -2.062 -0.002 -2.291 -0.007 -2.405 -0.011 -2.119 -0.007 -1.603 -0.069 -0.744 -1.147 0 0.052 0.229 0.055 0.286 0.192 0.847" />
    <path class="write-flat-pen" fill="#000000" stroke-width="1.6" __comx="427.304" __comy="187.026" __timestamp="0x180ae2f079f" d="M420.339 191.418 l-0.167 1.05 -0.077 0.768 -0.045 0.753 0.722 0.782 1.068 0.243 1.325 0.018 1.51 -0.25 1.661 -0.993 1.585 -1.193 1.388 -1.373 1.127 -1.375 0.811 -1.282 0.485 -1.128 0.218 -0.878 -0.004 -0.656 -0.004 -0.627 -0.382 -0.685 -1.137 -0.079 -1.038 0 -1.197 -0.001 -1.327 0.504 -1.132 0.479 -1.022 0.613 -0.937 0.712 -0.73 1.047 -0.506 1.091 -0.289 1.343 -0.007 1.273 -0.003 1.151 0.234 1.281 0.93 1.055 0.972 0.745 1.295 0.412 1.249 0 1.423 -0.002 1.479 -0.723 1.246 -0.729 1.258 -0.655 0.955 -0.416 1.284 -0.091 -0.059 -0.908 -1.399 0.083 -1.2 0.271 -1.404 0.605 -1.289 0.646 -1.183 0.537 -1.113 -0.002 -1.033 0 -0.86 -0.275 -0.676 -0.515 -0.592 -0.663 -0.147 -0.78 -0.003 -1.025 -0.007 -1.132 0.218 -1.063 0.381 -0.856 0.538 -0.785 0.711 -0.548 0.879 -0.533 1.023 -0.437 1.081 -0.412 0.958 -0.001 0.99 0 0.384 0.035 -0.128 -0.226 -0.004 0.289 -0.004 0.489 -0.162 0.611 -0.402 0.934 -0.71 1.123 -1.028 1.259 -1.274 1.261 -1.458 1.097 -1.382 0.84 -1.152 0.208 -1.083 0.018 -0.58 -0.1 -0.166 -0.134 -0.045 -0.278 -0.077 -0.721 0.041 -1.015" />
    <path class="write-flat-pen" fill="#000000" stroke-width="1.6" __comx="438.217" __comy="187.026" __timestamp="0x180ae2f0979" d="M440.584 183.608 l0.257 -0.738 0.046 -0.401 0.066 -0.286 0.051 -0.286 0.031 -0.172 0.025 -0.115 0.025 -0.057 -1.077 -0.389 -0.448 0.46 -0.586 0.919 -0.855 1.088 -0.983 1.05 -0.953 0.913 -0.692 0.734 -0.519 0.46 -0.456 0.513 -0.001 0.552 0 0.344 0 0.631 0.596 0.808 0.969 0.607 1.014 0.49 1.101 0.41 0.983 0.388 0.764 0.373 0.577 0.364 0.177 0.134 0.026 0.083 0 0.35 -0.001 0.334 -0.535 0.514 -0.896 0.752 -1.03 0.656 -1.124 0.677 -1.003 0.567 -0.832 0.463 -0.639 0.387 -0.302 0.279 -0.057 0.065 0.937 1.037 0.563 -0.79 0.884 -1.27 -0.263 -0.273 -1.29 0.826 -0.831 0.47 0.937 1.037 0.07 -0.05 0.205 -0.18 0.502 -0.3 0.815 -0.453 1.025 -0.579 1.157 -0.697 1.124 -0.719 1.005 -0.852 0.986 -0.975 -0.001 -0.926 0 -0.567 -0.227 -0.719 -0.583 -0.438 -0.691 -0.438 -0.884 -0.429 -1.045 -0.414 -1.054 -0.391 -0.887 -0.426 -0.679 -0.423 -0.164 -0.223 0 -0.17 0 -0.344 -0.001 -0.021 0.051 -0.059 0.495 -0.456 0.703 -0.755 0.949 -0.92 1.045 -1.127 0.92 -1.203 0.555 -0.914 0.312 -0.456 -1.077 -0.389 0.025 0.057 0.025 0.115 0.031 0.172 0.051 0.286 0.066 0.286 0.046 0.401 0.257 0.738" />
    <path class="write-flat-pen" fill="#000000" stroke-width="1.6" __comx="450.835" __comy="187.026" __timestamp="0x180ae2f0af7" d="M454.637 182.723 l0.057 -0.655 -1.27 -0.227 -0.061 0.041 -0.551 0.636 -0.858 0.938 -1.071 0.965 -0.872 0.896 -0.924 0.716 -0.8 0.655 -0.545 0.546 -0.478 0.513 -0.11 0.677 0 0.556 0.099 0.89 0.953 0.861 1.098 0.682 1.158 0.582 1.133 0.627 1.041 0.554 0.797 0.566 0.404 0.405 0.097 0.295 0 0.582 -0.174 0.623 -0.886 0.842 -1.378 0.918 -1.392 0.765 -1.195 0.487 -1.08 0.335 -0.648 0.212 -0.924 0.306 0 0.73 1.074 0.306 0.873 -0.132 1.202 -0.352 1.341 -0.544 1.524 -0.838 1.538 -1.029 1.269 -1.22 0.333 -1.21 0 -1.021 -0.283 -0.85 -0.737 -0.74 -0.977 -0.694 -1.114 -0.592 -1.149 -0.633 -1.124 -0.564 -0.93 -0.578 -0.442 -0.398 -0.028 -0.255 0 -0.36 0.017 -0.125 0.156 -0.174 0.469 -0.485 0.721 -0.604 0.978 -0.773 0.903 -0.936 1.084 -0.982 0.917 -1.009 0.716 -0.853 0.066 -0.303 -1.27 -0.227 0.057 0.655" />
    <path class="write-flat-pen" fill="#000000" stroke-width="1.6" __comx="318.498" __comy="163.686" __timestamp="0x180ae2f4d15" d="M86.458 166.784 l464.095 -4.597 -0.016 -1.6 -464.095 4.597" />
    <path class="write-flat-pen" fill="#000000" stroke-width="1.6" __comx="320.843" __comy="211.332" __timestamp="0x180ae2f5945" d="M86.205 214.603 l469.293 -4.942 -0.017 -1.6 -469.293 4.942" />
    <path class="write-flat-pen" fill="#000000" stroke-width="1.6" __comx="552.344" __comy="170.121" __timestamp="0x180ae2f5efb" d="M550.235 161.956 l2.62 49.244 1.598 -0.085 -2.62 -49.244" />
    <path class="write-flat-pen" fill="#000000" stroke-width="1.6" __comx="186.062" __comy="174.622" __timestamp="0x180ae2f67af" d="M185.394 167.062 l-0.263 45.352 1.6 0.009 0.263 -45.352" />
    <path class="write-flat-pen" fill="#000000" stroke-width="1.6" __comx="89.374" __comy="174.587" __timestamp="0x180ae2f6dbf" d="M88.541 166.609 l0.066 47.872 1.6 -0.002 -0.066 -47.872" />
    <path class="write-flat-pen" fill="#000000" stroke-width="1.6" __comx="94.954" __comy="153.952" __timestamp="0x180ae2f7f69" d="M92.623 146.983 l-0.304 -0.329 0.042 0.195 0.033 0.586 -0.453 0.02 0.507 0.014 0.634 0.006 0.502 0.007 0.394 0.083 0.422 0.239 0.401 0.211 0.308 0.232 0.166 0.15 0.029 0.065 0.003 0.392 0.004 0.467 -0.175 0.576 -0.641 0.78 -0.831 0.757 -0.919 0.722 -0.86 0.611 -0.667 0.421 -0.409 0.37 -0.298 0.403 0 0.278 0 0.177 0.239 0.65 1.118 0.184 1.069 0.062 1.223 0 1.331 0.002 1.204 0.001 0.986 -0.001 0.352 0.029 0.016 0.023 0.001 0.477 0 0.76 -0.39 0.793 -0.91 0.925 -1.085 0.87 -1.09 0.711 -0.926 0.503 -0.588 0.322 -0.267 0.104 0.89 0.625 -0.057 0.212 0.338 -0.46 1.144 -1.059 -0.374 -0.509 -1.393 0.804 -0.93 0.685 -0.057 0.327 0.89 0.625 0.367 -0.125 0.679 -0.366 0.975 -0.528 1.191 -0.778 1.197 -0.962 1.118 -1.136 0.624 -1.269 0 -1.073 0.001 -0.898 -0.618 -0.894 -1.043 -0.086 -1.042 -0.001 -1.204 0.001 -1.331 0.002 -1.185 0 -0.96 -0.053 -0.277 -0.045 0.113 0.307 0 0.062 0 0.163 -0.045 0.059 0.225 -0.203 0.6 -0.38 0.915 -0.649 0.983 -0.767 0.944 -0.847 0.88 -1.053 0.332 -1.028 0.004 -0.679 0.003 -0.639 -0.225 -0.622 -0.467 -0.422 -0.452 -0.341 -0.486 -0.247 -0.592 -0.333 -0.747 -0.147 -0.639 0.007 -0.634 0.006 -0.507 0.014 -0.834 0.02 0.033 0.701 0.042 0.31 0.733 0.607" />
    <path class="write-flat-pen" fill="#000000" stroke-width="1.6" __comx="104.795" __comy="153.952" __timestamp="0x180ae2f8077" d="M103.53 148.365 l0.065 -0.781 0.101 -0.216 0.105 -0.137 0.132 -0.174 0.02 0.396 -0.789 0.042 -0.321 -0.274 0.035 0.492 0.117 1.267 0.185 1.828 0.188 2.25 0.383 2.549 0.447 2.602 0.514 2.264 0.453 1.693 0.42 1.219 0.154 0.135 1.127 -0.291 -0.286 -0.601 -0.629 0 -0.286 0.601 1.127 -0.291 0.028 -0.094 -0.341 -1.071 -0.434 -1.629 -0.5 -2.203 -0.44 -2.552 -0.378 -2.491 -0.193 -2.217 -0.195 -1.837 -0.137 -1.253 -0.092 -0.997 -0.448 -0.389 -0.916 0.042 0.02 0.51 0.005 0.055 -0.022 0.322 -0.026 0.356 0.065 0.876" />
    <path class="write-flat-pen" fill="#000000" stroke-width="1.6" __comx="199.973" __comy="153.952" __timestamp="0x180ae2f8baf" d="M194.054 152.098 l0.755 0.181 0.57 0.017 0.634 0.007 0.527 0.006 0.305 0.108 0.225 0.177 0.17 0.224 0.063 0.298 -0.007 0.606 -0.006 0.916 -0.005 0.832 -0.228 0.918 -0.298 0.852 -0.32 0.691 -0.216 0.643 -0.09 0.396 -0.001 0.191 0 0.762 1.536 0.001 1.197 -0.473 1.275 -0.788 1.147 -0.819 1.264 -0.884 1.082 -0.881 1.135 -0.716 1.123 -1.054 -0.3 -0.442 -1.347 0.62 -1.274 0.543 -1.2 0.837 -1.272 0.834 -1.135 0.785 -1.133 0.701 -0.831 0.328 0.141 0.001 0 0.647 -0.001 -0.038 0.037 -0.177 0.165 -0.502 0.314 -0.684 0.336 -0.98 0.279 -1.144 -0.005 -1 -0.006 -0.916 -0.007 -0.769 -0.19 -0.733 -0.463 -0.577 -0.535 -0.396 -0.709 -0.236 -0.741 0.006 -0.634 0.007 -0.57 0.017 -0.755 0.181" />
    <path class="write-flat-pen" fill="#000000" stroke-width="1.6" __comx="208.867" __comy="153.952" __timestamp="0x180ae2f8cf3" d="M208.461 148.915 l0.057 -0.926 -0.526 -0.057 -0.127 -0.093 -0.691 -0.014 -0.023 1.001 -0.08 0.744 -0.013 0.773 -0.008 0.802 -0.012 1.018 0.632 0.936 0.544 0.746 0.757 0.755 0.659 0.539 0.631 0.519 0.657 0.537 0.539 0.367 0.323 0.209 -0.016 -0.023 0 0.124 -0.002 0.418 -0.027 0.217 -0.478 0.357 -0.874 0.526 -0.993 0.422 -1.09 0.33 -0.996 0.266 -0.792 0.056 -0.8 0.016 0.057 0.037 -0.125 -0.078 -0.37 -1.311 -0.55 0.032 -0.211 1.416 0.128 1.296 1.071 0.037 0.847 0.016 0.983 -0.059 1.159 -0.307 1.191 -0.358 1.162 -0.495 1.028 -0.619 1.043 -0.788 0.099 -0.928 -0.002 -0.498 0 -0.563 -0.397 -0.596 -0.565 -0.364 -0.475 -0.32 -0.611 -0.494 -0.636 -0.512 -0.609 -0.492 -0.637 -0.62 -0.47 -0.628 -0.382 -0.552 -0.012 -0.586 -0.008 -0.802 -0.013 -0.716 0.047 -0.745 -0.023 0.199 -0.564 -0.014 0.127 -0.093 -0.399 -0.057 0.057 0" />
    <path class="write-flat-pen" fill="#000000" stroke-width="1.6" __comx="210.74" __comy="153.952" __timestamp="0x180ae2f8d6b" d="M207.014 151.32 l0.693 -0.984 0.782 -0.709 1.232 -0.986 1.526 -1.048 2.005 -1.046 2.181 -1.625 -0.462 -0.731 -2.353 1.242 -2.051 1.016 -1.643 1.128 -1.303 1.076 -0.866 0.894 -0.71 1.13" />
    <path class="write-flat-pen" fill="#000000" stroke-width="1.6" __comx="542.563" __comy="145.025" __timestamp="0x180ae2f92c4" d="M541.1 144.255 l-0.735 -0.097 -0.19 -0.027 -0.417 -0.046 -0.551 0.295 -0.28 0.881 -0.21 0.946 -0.274 1.354 -0.135 1.582 -0.136 1.63 -0.004 1.401 -0.004 1.198 0.355 1.073 1.224 0.184 1.309 0.002 1.426 -0.814 1.421 -1.284 1.248 -1.497 0.991 -1.464 0.618 -1.453 0.205 -1.276 0 -1.127 -0.177 -1.283 -1.432 -0.764 -1.483 -0.389 -1.477 -0.01 -1.354 -0.002 -1.18 0.082 -0.525 0.848 0.067 0.944 1.204 -0.407 0 -0.353 -0.037 -0.407 0.067 0.6 -0.018 0.046 0.468 -0.033 1.308 -0.002 1.312 -0.01 1.179 0.298 0.723 0.381 0.077 0.549 0 0.934 -0.175 1.014 -0.523 1.181 -0.91 1.285 -1.16 1.366 -1.241 1.122 -0.983 0.561 -0.846 0.002 -0.297 -0.045 -0.025 -0.072 -0.004 -0.978 -0.004 -1.348 0.117 -1.577 0.118 -1.51 0.233 -1.28 0.17 -0.887 0.101 -0.379 -0.17 0.066 0.09 -0.046 0.19 -0.027 0.735 -0.097" />
    <path class="write-flat-pen" fill="#000000" stroke-width="1.6" __comx="164.198" __comy="150.651" __timestamp="0x180ae2fc07e" d="M160.954 149.639 l-0.576 -0.313 -0.195 -0.165 0.038 -0.046 0.315 0.223 0.069 0.859 -0.149 0.024 0.55 0.003 0.588 0.27 0.701 0.423 0.579 0.421 0.469 0.424 0.182 0.296 0.045 0.438 0.001 0.63 -0.285 0.695 -0.668 0.81 -0.811 0.788 -0.832 0.54 -0.68 0.447 -0.51 0.29 -0.105 0.071 0.144 0 0.195 1.323 0.246 -0.067 0.738 -0.364 1.016 -0.457 1.279 -0.636 1.281 -0.637 1.143 -0.632 0.965 -0.512 0.816 -0.37 0.692 -0.288 0.91 -0.322 -0.157 -0.783 -1.014 0.064 -0.829 0.17 -0.959 0.317 -1.063 0.518 -1.138 0.628 -1.255 0.623 -1.256 0.624 -1.012 0.459 -0.657 0.324 -0.134 0.047 0.195 1.323 0.271 0 0.402 -0.273 0.504 -0.282 0.714 -0.469 0.943 -0.605 0.964 -0.93 0.853 -1.022 0.476 -1.137 0.001 -0.974 -0.082 -0.822 -0.452 -0.735 -0.672 -0.607 -0.689 -0.495 -0.821 -0.493 -0.933 -0.417 -0.844 0.003 -1.163 0.024 0.069 0.974 0.442 0.337 0.165 -0.046 0.059 -0.051 0.616 0.225" />
    <path class="write-flat-pen" fill="#000000" stroke-width="1.6" __comx="174.563" __comy="146.822" __timestamp="0x180ae2fc1f3" d="M173.315 144.359 l-0.152 -0.608 0.011 -0.095 0.058 -0.083 -0.385 -0.392 -0.798 -0.068 -0.377 0.992 -0.209 1.199 -0.327 1.728 -0.264 1.969 -0.263 2.25 -0.198 2.444 -0.005 2.318 -0.002 2.004 0 1.669 0.873 1.139 1.149 0.238 1.214 -0.003 1.453 -0.556 1.257 -1.207 1.128 -1.278 0.815 -1.381 0.428 -1.26 -0.005 -0.911 0 -1.1 -1.592 -0.001 -1.503 -0.002 -1.597 0.915 -1.277 1.091 -0.908 0.957 -0.173 0.819 0.057 0.711 1.167 0 0.057 -0.571 0.081 -0.327 0.613 -0.647 1.131 -0.971 1.191 -0.688 1.159 -0.002 0.309 -0.001 0 -0.183 -0.005 0.692 -0.332 0.916 -0.706 1.139 -1.027 1.127 -1.024 0.969 -0.955 0.36 -0.814 -0.003 -0.498 -0.106 -0.268 -0.35 0 -1.194 -0.002 -2.004 -0.005 -2.263 0.183 -2.367 0.244 -2.217 0.243 -1.925 0.306 -1.708 0.171 -1.092 0.003 -0.039 -0.544 -0.068 -0.258 -0.278 0.058 0.032 0.264 0.134 0.21 0.373" />
  </g>
</svg>
