<svg class="write-page" color-interpolation="linearRGB" width="920px" height="1654px" xmlns="http://www.w3.org/2000/svg" xmlns:xlink="http://www.w3.org/1999/xlink">
  <g class="write-content write-v3" xruling="0" yruling="40" marginLeft="100" papercolor="#FFFFFF" rulecolor="#9F0000FF">
    <g class="ruleline write-std-ruling write-scale-down" fill="none" stroke="#0000FF" stroke-opacity="0.624" stroke-width="1" shape-rendering="crispEdges" vector-effect="non-scaling-stroke">
      <rect class="pagerect" fill="#FFFFFF" stroke="none" x="0" y="0" width="920" height="1654" />
      <path class="yrule_1" d="M0 40 l920 0" />
      <path d="M0 80 l920 0" />
      <path d="M0 120 l920 0" />
      <path d="M0 160 l920 0" />
      <path d="M0 200 l920 0" />
      <path d="M0 240 l920 0" />
      <path d="M0 280 l920 0" />
      <path d="M0 320 l920 0" />
      <path d="M0 360 l920 0" />
      <path d="M0 400 l920 0" />
      <path d="M0 440 l920 0" />
      <path d="M0 480 l920 0" />
      <path d="M0 520 l920 0" />
      <path d="M0 560 l920 0" />
      <path d="M0 600 l920 0" />
      <path d="M0 640 l920 0" />
      <path d="M0 680 l920 0" />
      <path d="M0 720 l920 0" />
      <path d="M0 760 l920 0" />
      <path d="M0 800 l920 0" />
      <path d="M0 840 l920 0" />
      <path d="M0 880 l920 0" />
      <path d="M0 920 l920 0" />
      <path d="M0 960 l920 0" />
      <path d="M0 1000 l920 0" />
      <path d="M0 1040 l920 0" />
      <path d="M0 1080 l920 0" />
      <path d="M0 1120 l920 0" />
      <path d="M0 1160 l920 0" />
      <path d="M0 1200 l920 0" />
      <path d="M0 1240 l920 0" />
      <path d="M0 1280 l920 0" />
      <path d="M0 1320 l920 0" />
      <path d="M0 1360 l920 0" />
      <path d="M0 1400 l920 0" />
      <path d="M0 1440 l920 0" />
      <path d="M0 1480 l920 0" />
      <path d="M0 1520 l920 0" />
      <path d="M0 1560 l920 0" />
      <path d="M0 1600 l920 0" />
      <path d="M0 1640 l920 0" />
      <path class="leftmargin" stroke="#FF0000" d="M100 0 l0 1654" />
    </g>
  </g>
</svg>
