<svg class="write-page" color-interpolation="linearRGB" width="928px" height="1660px" xmlns="http://www.w3.org/2000/svg" xmlns:xlink="http://www.w3.org/1999/xlink">
  <g class="write-content write-v3" xruling="0" yruling="40" marginLeft="100" papercolor="#FFFFFF" rulecolor="#9F000023">
    <g class="ruleline write-std-ruling write-scale-down" fill="none" stroke="#000023" stroke-opacity="0.624" stroke-width="1" shape-rendering="crispEdges" vector-effect="non-scaling-stroke">
      <rect class="pagerect" fill="#FFFFFF" stroke="none" x="0" y="0" width="928" height="1660" />
      <path class="yrule_1" d="M0 40 l928 0" />
      <path d="M0 80 l928 0" />
      <path d="M0 120 l928 0" />
      <path d="M0 160 l928 0" />
      <path d="M0 200 l928 0" />
      <path d="M0 240 l928 0" />
      <path d="M0 280 l928 0" />
      <path d="M0 320 l928 0" />
      <path d="M0 360 l928 0" />
      <path d="M0 400 l928 0" />
      <path d="M0 440 l928 0" />
      <path d="M0 480 l928 0" />
      <path d="M0 520 l928 0" />
      <path d="M0 560 l928 0" />
      <path d="M0 600 l928 0" />
      <path d="M0 640 l928 0" />
      <path d="M0 680 l928 0" />
      <path d="M0 720 l928 0" />
      <path d="M0 760 l928 0" />
      <path d="M0 800 l928 0" />
      <path d="M0 840 l928 0" />
      <path d="M0 880 l928 0" />
      <path d="M0 920 l928 0" />
      <path d="M0 960 l928 0" />
      <path d="M0 1000 l928 0" />
      <path d="M0 1040 l928 0" />
      <path d="M0 1080 l928 0" />
      <path d="M0 1120 l928 0" />
      <path d="M0 1160 l928 0" />
      <path d="M0 1200 l928 0" />
      <path d="M0 1240 l928 0" />
      <path d="M0 1280 l928 0" />
      <path d="M0 1320 l928 0" />
      <path d="M0 1360 l928 0" />
      <path d="M0 1400 l928 0" />
      <path d="M0 1440 l928 0" />
      <path d="M0 1480 l928 0" />
      <path d="M0 1520 l928 0" />
      <path d="M0 1560 l928 0" />
      <path d="M0 1600 l928 0" />
      <path d="M0 1640 l928 0" />
      <path class="leftmargin" stroke="#FF0000" d="M100 0 l0 1660" />
    </g>
    <path class="write-flat-pen" fill="#000000" stroke-width="1.6" __comx="139.168" __comy="69.738" __timestamp="0x1818e96b6c2" d="M139.207 56.776 l0.202 -0.822 0.092 -0.679 0.168 -0.578 0.058 -0.579 0.107 -0.455 0.042 -0.425 0.039 -0.173 0.092 -0.107 0.021 -0.235 -0.975 0 -0.067 0.286 -0.009 0.974 -0.014 1.669 0.054 2.234 -0.006 2.741 -0.001 3.092 -0.002 3.258 -0.063 3 -0.313 2.663 -0.252 2.128 -0.121 1.429 -0.124 1 0.017 0.553 0.055 0.286 0.093 0.586 1.064 -0.208 0 -0.412 -0.236 -0.208 0.093 0.242 0.055 -0.286 0.017 -0.478 0.13 -0.947 0.132 -1.434 0.256 -2.11 0.321 -2.721 0.064 -3.07 -0.002 -3.27 -0.001 -3.092 -0.006 -2.757 -0.073 -2.233 -0.014 -1.653 -0.009 -0.974 -0.067 -0.286 -0.975 0 0.021 -0.006 -0.035 0.122 0.039 0.4 0.042 0.376 -0.019 0.461 0.058 0.566 -0.086 0.567 -0.034 0.695 -0.102 0.823" />
    <path class="write-flat-pen" fill="#000000" stroke-width="1.6" __comx="178.307" __comy="69.738" __timestamp="0x1818e96b94d" d="M173.079 56.103 l-0.241 -0.599 -0.073 -0.276 0.038 -0.044 0.035 -0.057 0.02 -0.057 -0.973 0 -0.046 0.721 0.504 1.489 0.408 2.117 0.298 2.885 0.244 3.467 0.06 3.701 -0.001 3.603 0 3.207 -0.001 2.462 0.001 1.661 0 0.859 0.001 0.286 1.203 0 -0.001 -0.344 -0.004 -1.031 -0.022 -1.374 -0.018 -1.418 0.046 -1.154 0.374 -0.94 0.631 -0.829 0.684 -0.672 0.996 -0.583 1.096 -0.497 1.222 -0.442 1.351 -0.333 1.219 -0.217 1.03 -0.051 0.683 0.004 -0.164 0.001 -0.006 -0.105 -0.059 0.705 -0.949 1.035 -1.504 1.455 -1.624 1.404 -1.632 1.242 -1.385 1.02 -1.033 0.714 -0.532 0.262 0.419 0.005 -0.059 -0.046 0.65 -1.166 1.343 -2.083 -0.428 -0.321 -1.64 1.895 -0.998 1.354 -0.059 1.557 1.053 0.005 0.862 -0.425 1.122 -0.775 1.404 -1.042 1.664 -1.278 1.672 -1.459 1.538 -1.523 1.206 -1.37 0.068 -1.128 -0.006 -1.021 -0.924 0.001 -0.712 0.004 -1.125 0.063 -1.317 0.241 -1.438 0.354 -1.313 0.475 -1.186 0.534 -1.159 0.677 -0.837 0.817 -0.764 1.004 -0.513 1.236 -0.08 1.366 -0.018 1.446 -0.022 1.374 -0.004 1.031 -0.001 0.344 1.203 0 0.001 -0.286 0 -0.859 0.001 -1.661 -0.001 -2.462 0 -3.207 -0.001 -3.613 -0.067 -3.744 -0.263 -3.52 -0.335 -2.956 -0.48 -2.236 -0.51 -1.375 -0.046 -0.538 -0.973 0 0.02 0.057 0.035 0.057 0.038 0.185 0.18 0.411 0.291 0.603" />
    <path class="write-flat-pen" fill="#000000" stroke-width="1.6" __comx="190.892" __comy="69.738" __timestamp="0x1818e96ba45" d="M192.329 49.584 l-0.057 0.445 -0.001 0.974 -0.034 1.48 -0.086 1.689 -0.275 2.198 -0.468 2.679 -0.463 3.043 -0.451 3.493 -0.508 3.485 -0.507 3.266 -0.379 2.751 -0.317 2.117 -0.195 1.36 0.004 0.672 0.01 0.057 1.094 0.206 0.28 -0.953 1.041 -1.696 -0.611 -0.423 -1.283 1.665 -0.481 0.994 1.094 0.206 0.01 -0.057 0.004 -0.588 0.186 -1.274 0.317 -2.121 0.382 -2.747 0.507 -3.262 0.506 -3.502 0.437 -3.494 0.424 -3.027 0.419 -2.704 0.232 -2.269 0.04 -1.747 -0.034 -1.498 -0.001 -0.974 -0.057 -0.445" />
    <path class="write-flat-pen" fill="#000000" stroke-width="1.6" __comx="200.871" __comy="69.738" __timestamp="0x1818e96bb53" d="M196.186 70.81 l0.237 1.232 0.149 1.192 0.141 1.365 0.104 1.395 0.194 1.02 0.462 0.954 0.961 0.18 1.158 0.002 1.371 -0.456 1.485 -1.051 1.305 -1.223 0.988 -1.296 0.602 -1.254 0.212 -0.968 0 -0.822 -0.577 -0.424 -1.285 -0.033 -1.575 0.28 -1.793 0.763 -1.678 0.855 -1.259 0.667 -0.791 0.351 -0.298 0.202 0.348 1.134 1.062 -0.132 1.847 -0.482 -0.143 -0.729 -1.798 0.234 -0.967 -0.132 0.348 1.134 0.209 -0.142 0.73 -0.336 1.277 -0.707 1.617 -0.863 1.63 -0.726 1.34 -0.293 0.869 -0.033 -0.07 -0.081 0 0.209 -0.168 0.75 -0.539 1.037 -0.913 1.109 -1.23 1.068 -1.304 0.897 -1.037 0.345 -0.87 0.002 -0.307 -0.049 -0.171 -0.306 -0.187 -0.812 -0.15 -1.354 -0.239 -1.384 -0.231 -1.214 -0.31 -1.242" />
    <path class="write-flat-pen" fill="#000000" stroke-width="1.6" __comx="214.698" __comy="69.738" __timestamp="0x1818e96bc69" d="M213.657 73.017 l0.629 -0.411 0.267 -0.312 0.19 -0.336 0.124 -0.254 0.044 -0.142 0.053 -0.684 -0.886 -0.024 -1.022 -0.003 -1.379 0.654 -1.471 1.085 -1.457 1.373 -1.075 1.388 -0.777 1.392 -0.227 1.356 -0.009 1.095 0.463 1.105 1.282 0.547 1.46 0.128 1.632 0 2.019 -0.124 2.088 -0.807 2.003 -1.074 1.843 -1.138 1.64 -1.183 1.645 -1.677 -0.389 -0.449 -1.847 1.346 -1.656 0.993 -1.833 1.038 -1.927 0.987 -1.842 0.682 -1.784 0.105 -1.537 0 -1.202 -0.101 -0.62 -0.255 -0.171 -0.384 -0.009 -0.738 0.154 -1.049 0.618 -1.128 0.953 -1.246 1.331 -1.262 1.318 -0.977 1.03 -0.491 0.753 -0.003 -0.252 -0.024 0.053 -0.455 0.044 -0.027 -0.003 0.089 -0.064 0.237 -0.113 0.146 -0.52 0.368" />
    <path class="write-flat-pen" fill="#000000" stroke-width="1.6" __comx="225.856" __comy="69.738" __timestamp="0x1818e96bd51" d="M225.725 53.472 l-0.076 1.024 -0.028 1.374 -0.018 1.947 -0.013 2.44 -0.265 3.015 -0.263 3.492 -0.319 3.776 -0.318 3.793 -0.125 3.453 -0.059 2.645 0.012 1.914 0.101 1.259 0.934 0.52 1.166 -0.083 1.015 -1.243 -0.134 -0.158 -1.172 0.609 -0.609 -0.083 -0.207 -0.167 -0.026 -0.688 0.012 -1.866 0.068 -2.624 0.129 -3.419 0.316 -3.767 0.315 -3.783 0.244 -3.494 0.242 -3.055 -0.013 -2.485 -0.018 -1.947 -0.028 -1.374 -0.076 -1.024" />
    <path class="write-flat-pen" fill="#000000" stroke-width="1.6" __comx="233.174" __comy="69.738" __timestamp="0x1818e96be4f" d="M236.977 68.01 l0.094 -0.743 0.032 -0.582 -0.617 -0.102 -0.812 0.054 -1.276 0.757 -1.589 0.975 -1.847 1.15 -1.655 1.092 -1.427 0.936 -1.026 0.864 -0.695 0.834 -0.264 0.851 -0.005 0.928 0.265 1.049 1.222 0.971 1.473 0.908 1.845 0.77 2.201 0.741 2.319 0.602 2.323 0.495 2.77 0.393 0.15 -0.765 -2.686 -0.673 -2.24 -0.65 -2.245 -0.658 -2.109 -0.748 -1.704 -0.719 -1.316 -0.81 -0.806 -0.632 -0.116 -0.44 -0.005 -0.561 0.116 -0.409 0.446 -0.54 0.875 -0.739 1.361 -0.896 1.641 -1.084 1.829 -1.14 1.58 -0.972 1.006 -0.617 0.456 -0.06 -0.49 -0.102 0.032 -0.468 0.094 0.743" />
    <path class="write-flat-pen" fill="#000000" stroke-width="1.6" __comx="271.658" __comy="69.738" __timestamp="0x1818e96bf4f" d="M267.919 70.687 l-0.855 -0.084 0.161 1.092 0.367 -0.023 1.287 -0.222 1.819 -0.283 2.071 -0.236 1.8 -0.237 1.843 -0.153 0 -0.824 -1.896 -0.153 -1.876 0.107 -2.112 0.223 -1.858 0.289 -1.375 0.237 -0.394 0.206 0.161 1.092 0.855 -0.084" />
    <path class="write-flat-pen" fill="#000000" stroke-width="1.6" __comx="273.493" __comy="69.738" __timestamp="0x1818e96bfcd" d="M268.69 74.749 l-0.054 0.936 -0.011 0.577 0.859 0.314 1.257 0 1.867 -0.003 2.704 -0.288 3.051 -1.448 -0.214 -0.579 -3.106 0.827 -2.493 0.17 -1.809 -0.003 -1.025 0 0.225 0.085 -0.011 0.347 -0.054 -0.936" />
    <path class="write-flat-pen" fill="#000000" stroke-width="1.6" __comx="309.757" __comy="69.738" __timestamp="0x1818e96c29d" d="M305.668 64.484 l0.073 -0.71 0.085 -0.344 0.06 -0.229 0.064 -0.115 0.053 0.472 -0.667 0.072 0.095 0.086 0.61 1.267 0.785 2.343 0.735 3.263 0.494 3.662 0.125 3.564 -0.001 3.033 0.064 2.322 0.139 1.445 0.472 1.056 0.979 -0.011 1.041 -0.183 1.116 -1.486 1.267 -1.742 1.315 -2.401 -0.426 -0.275 -1.622 2.148 -1.395 1.579 -0.912 1.034 -0.48 0.047 -0.035 -0.011 -0.036 -0.09 -0.114 -1.189 -0.063 -2.259 -0.001 -3.038 -0.129 -3.652 -0.521 -3.783 -0.786 -3.38 -0.863 -2.468 -0.784 -1.596 -0.666 -0.487 -0.794 0.072 0.053 0.587 0.064 0.115 0.06 0.229 0.085 0.344 0.073 0.71" />
    <path class="write-flat-pen" fill="#000000" stroke-width="1.6" __comx="328.608" __comy="69.738" __timestamp="0x1818e96c3a0" d="M318.735 70.133 l0.911 -0.141 0.722 0.048 0.824 0.071 0.887 0.043 0.998 0.039 0.935 0.082 1.03 0.081 0.879 0.018 0.569 0.058 0.284 0.132 0.167 0.205 0.041 0.587 -0.005 1.222 -0.065 1.303 -0.654 1.489 -0.629 1.36 -0.502 1.007 -0.427 0.763 -0.095 0.504 -0.003 0.23 0 0.703 1.596 0.001 1.626 0.001 2.317 -0.299 2.576 -0.824 2.705 -0.787 3.173 -1.071 -0.243 -0.845 -3.249 0.775 -2.746 0.701 -2.495 0.779 -2.12 0.274 -1.543 0.001 -0.305 0.001 0 0.588 -0.003 -0.113 0.032 -0.184 0.334 -0.611 0.512 -1.054 0.638 -1.389 0.741 -1.718 0.062 -1.561 -0.005 -1.298 -0.086 -1.017 -0.593 -0.711 -0.73 -0.326 -0.825 -0.056 -0.895 0.018 -0.998 -0.034 -0.967 -0.033 -1.03 0.039 -0.887 0.043 -0.824 0.071 -0.799 0.048 -0.948 0.317" />
    <path class="write-flat-pen" fill="#000000" stroke-width="1.6" __comx="350.514" __comy="69.738" __timestamp="0x1818e96c631" d="M348.367 72.575 l-0.069 -1.599 0.02 -1.418 0.024 -1.603 0.009 -1.631 0.192 -1.696 0.143 -1.633 0.01 -1.511 0.007 -1.481 -0.57 -1.487 -0.908 -1.265 -1.059 -0.9 -1.106 -0.535 -1.145 -0.143 -1.078 -0.007 -1.107 0.924 -0.666 1.605 -0.135 2.067 -0.003 2.285 0.266 2.527 1.061 2.516 1.285 2.379 1.333 2.351 1.257 2.269 0.992 2.129 0.671 1.919 0.244 1.674 0.004 1.488 -0.049 0.99 -0.576 0.695 -0.726 0.468 -0.784 0.187 -0.817 -0.004 -0.372 -0.005 -0.088 -0.153 0.02 -0.959 0.013 -1.33 0.921 -1.758 1.597 -2.164 2.116 -2.306 2.431 -2.318 2.671 -2.173 2.673 -1.978 3.031 -2.172 -0.504 -0.749 -3.168 1.997 -2.778 1.916 -2.78 2.18 -2.513 2.378 -2.194 2.39 -1.699 2.303 -1.107 2.136 0.013 1.648 0.02 1.332 0.673 0.992 1.022 -0.005 0.958 -0.004 1.117 -0.272 1.049 -0.677 0.945 -1.138 0.078 -1.415 0.004 -1.605 -0.264 -1.876 -0.724 -2.09 -1.036 -2.223 -1.278 -2.313 -1.329 -2.345 -1.251 -2.317 -0.968 -2.295 -0.241 -2.283 -0.003 -2.182 0.119 -1.827 0.475 -1.144 0.541 -0.451 0.57 -0.007 0.883 0.086 0.795 0.381 0.843 0.704 0.74 1.026 0.444 1.147 0.007 1.267 0.01 1.467 -0.11 1.574 -0.188 1.74 0.009 1.691 0.024 1.603 0.02 1.445 0.11 1.624" />
    <path class="write-flat-pen" fill="#000000" stroke-width="1.6" __comx="388.184" __comy="69.738" __timestamp="0x1818e96c830" d="M383.438 54.342 l-0.504 -1.264 -0.301 -0.752 -0.251 -0.527 -0.17 -0.296 -0.838 0.302 -0.081 0.344 -0.006 1.432 -0.014 2.315 0.234 2.997 0.181 3.073 0.061 3.131 -0.004 3.029 -0.001 2.806 -0.001 2.432 -0.186 1.834 -0.245 1.318 -0.242 0.818 -0.192 0.577 -0.092 0.324 0 0.758 1.027 -0.014 0.961 -0.547 1.25 -0.734 1.672 -0.783 1.816 -0.736 1.824 -0.681 1.657 -0.576 1.387 -0.569 1.212 -0.381 0.836 -0.159 0.387 -0.046 -0.457 0.005 -0.004 -0.229 -0.207 0.77 -0.848 1.061 -1.273 1.2 -1.347 0.992 -1.212 0.763 -0.951 0.429 -0.506 0.183 0.488 0.006 -0.063 0.736 0.573 -0.608 1.376 -1.152 -0.233 -0.362 -1.648 0.799 -1.201 0.766 -0.063 1.08 0.995 0.006 0.762 -0.275 1.077 -0.487 1.323 -0.84 1.442 -1.07 1.389 -1.32 1.054 -1.344 0.3 -1.177 -0.004 -1.145 -0.837 0.005 -0.5 0.068 -0.939 0.185 -1.323 0.421 -1.402 0.577 -1.639 0.57 -1.852 0.693 -1.86 0.753 -1.75 0.821 -1.285 0.755 -0.686 0.37 0.519 -0.014 0 0.643 0.035 -0.134 0.188 -0.568 0.265 -0.9 0.263 -1.431 0.194 -1.945 -0.001 -2.493 -0.001 -2.806 -0.004 -3.041 -0.066 -3.168 -0.199 -3.111 -0.273 -2.959 -0.014 -2.266 -0.006 -1.432 -0.081 -0.344 -0.838 0.302 0.21 0.162 0.256 0.39 0.333 0.737 0.822 1.131" />
    <path class="write-flat-pen" fill="#000000" stroke-width="1.6" __comx="407.862" __comy="69.738" __timestamp="0x1818e96c9c4" d="M397.785 74.095 l0.777 -0.068 0.335 0.058 0.165 0.057 0.339 0.408 0.503 0.848 0.495 1.028 0.637 1.103 0.538 0.974 0.766 0.831 0.952 0.428 0.952 0.12 0.928 -0.019 0.952 -0.25 0.824 -0.755 0.639 -0.769 0.337 -0.719 0.394 -0.612 0.025 -0.498 0.027 -0.115 -1.199 0 -0.046 0.401 -0.001 1.432 -0.001 2.004 -0.001 2.577 0 2.72 -0.25 2.762 -0.376 2.717 -0.496 2.576 -0.732 2.207 -0.843 1.687 -0.867 1.201 -0.861 0.68 -0.744 0.271 -0.445 0 -0.216 -0.097 -0.166 -0.719 -0.059 -1.3 0.001 -1.48 0.224 -1.411 0.976 -1.453 1.459 -1.71 1.953 -1.677 2.544 -1.775 2.812 -1.828 2.754 -1.909 2.423 -1.821 1.857 -1.799 -0.141 -0.174 -2.12 1.435 -2.521 1.615 -2.824 1.757 -2.892 1.723 -2.653 1.775 -2.104 1.759 -1.583 1.84 -1.179 1.754 -0.283 1.796 0.001 1.612 0.067 1.449 0.341 1.457 1.052 0.475 0.95 0 1.157 -0.416 1.168 -0.923 1.034 -1.433 0.932 -1.864 0.789 -2.375 0.518 -2.693 0.385 -2.781 0.258 -2.851 0 -2.778 -0.001 -2.577 -0.001 -2.004 -0.001 -1.432 -0.046 -0.401 -1.199 0 0.027 0.115 0.025 0.189 -0.24 0.419 -0.297 0.655 -0.502 0.605 -0.57 0.505 -0.57 0.093 -0.72 -0.019 -0.696 -0.109 -0.569 -0.26 -0.502 -0.544 -0.476 -0.858 -0.63 -1.073 -0.52 -1.034 -0.638 -0.985 -0.801 -0.738 -0.596 0.057 -0.425 0.058 -0.819 0.293" />
    <path class="write-flat-pen" fill="#000000" stroke-width="1.6" __comx="422.31" __comy="69.738" __timestamp="0x1818e96ca77" d="M418.01 72.062 l-0.931 -0.296 -0.434 -0.072 -0.127 -0.048 -0.063 -0.014 0 1.234 0.912 0.023 1.525 -0.116 1.958 -0.413 1.985 -0.523 1.847 -0.539 1.474 -0.509 1.044 -0.494 0.61 -0.441 0.358 -0.419 -0.172 -0.334 -0.076 -0.233 -0.238 0 -0.076 0.233 -0.172 0.009 -0.149 0.039 -0.531 0.246 -0.984 0.308 -1.442 0.407 -1.829 0.492 -1.945 0.508 -1.845 0.389 -1.391 0.113 -0.862 0.023 0 1.234 0.063 -0.014 0.127 -0.048 0.326 -0.072 0.862 0.109" />
    <path class="write-flat-pen" fill="#000000" stroke-width="1.6" __comx="427.644" __comy="69.738" __timestamp="0x1818e96cb16" d="M425.597 68.492 l-0.65 -0.145 -0.479 -0.088 -0.275 0.663 -0.033 0.921 -0.018 1.317 -0.014 1.489 -0.011 1.775 -0.007 1.775 -0.003 1.661 -0.001 1.432 0 1.003 0.092 0.968 0.756 0.671 1.022 -0.031 1.249 -0.105 1.777 -0.831 2.177 -1.337 -0.228 -0.448 -2.327 0.952 -1.645 0.543 -1.033 0.01 -0.499 -0.031 -0.005 -0.016 -0.035 -0.406 0 -0.944 -0.001 -1.432 -0.003 -1.661 -0.007 -1.775 -0.011 -1.775 -0.014 -1.489 -0.018 -1.317 -0.033 -0.797 -0.148 0.09 -0.225 -0.088 0.65 -0.145" />
    <path class="write-flat-pen" fill="#000000" stroke-width="1.6" __comx="444.332" __comy="69.738" __timestamp="0x1818e96cc2b" d="M439.584 76.367 l0.745 -0.339 0.639 -0.441 1.148 -0.74 1.427 -1.048 1.421 -1.164 1.302 -1.176 0.978 -1.06 0.757 -0.872 0.423 -0.844 0 -1.217 -1.857 -0.002 -1.723 0.649 -2.001 1.507 -1.951 1.759 -1.706 1.888 -1.264 1.849 -0.775 1.556 -0.231 1.243 -0.008 1.212 0.438 1.278 1.451 0.875 1.873 0.501 2.25 0.166 2.69 -0.042 2.984 -0.11 3.162 -1.148 -0.101 -0.403 -3.198 0.441 -2.847 -0.11 -2.634 -0.042 -2.06 -0.178 -1.55 -0.415 -0.831 -0.499 -0.196 -0.555 -0.008 -0.849 0.149 -0.934 0.619 -1.307 1.145 -1.702 1.59 -1.777 1.852 -1.677 1.802 -1.357 1.32 -0.497 0.298 -0.002 0 -0.415 -0.21 0.415 -0.637 0.731 -0.924 1.002 -1.233 1.115 -1.368 1.126 -1.362 1.014 -1.134 0.749 -0.629 0.475 -0.575 0.556" />
    <path class="write-flat-pen" fill="#000000" stroke-width="1.6" __comx="503.923" __comy="69.738" __timestamp="0x1818e96cece" d="M498.099 67.484 l-0.899 -0.557 -0.684 -0.314 -0.509 -0.23 -0.442 -0.191 -0.264 -0.056 -0.063 -0.038 -0.127 -0.024 0 1.239 0.697 0.023 1.648 0.005 2.472 0.003 2.916 0.001 2.789 0 2.561 -0.016 2.112 -0.24 1.379 -0.251 1.05 -0.317 -0.024 -0.365 -1.09 -0.179 -1.409 -0.022 -2.071 0.104 -2.509 -0.016 -2.789 0 -2.916 0.001 -2.472 0.003 -1.648 0.005 -0.697 0.023 0 1.239 0.127 -0.024 0.063 -0.038 0.116 -0.056 0.318 0.038 0.506 0.114 0.71 0.259 1.081 0.082" />
    <path class="write-flat-pen" fill="#000000" stroke-width="1.6" __comx="511.664" __comy="69.738" __timestamp="0x1818e96cf65" d="M503.099 70.349 l0.569 0.063 1.014 0.012 1.733 0.008 2.341 -0.172 2.59 -0.525 2.382 -0.64 2.397 -0.828 1.98 -1.072 2.123 -1.397 -0.391 -0.66 -2.213 1.17 -1.95 0.875 -2.293 0.775 -2.308 0.62 -2.48 0.506 -2.222 0.172 -1.689 0.008 -1.014 0.012 -0.569 0.063" />
    <path class="write-flat-pen" fill="#000000" stroke-width="1.6" __comx="521.194" __comy="69.738" __timestamp="0x1818e96d017" d="M522.899 57.137 l0.061 -0.054 -0.128 0.033 0.478 0.102 0.504 0.58 0.518 1.054 0.147 1.577 -0.017 2.005 -0.608 2.299 -1.343 2.35 -1.675 2.29 -1.69 1.922 -1.331 1.497 -0.738 0.95 -0.408 0.518 0.454 0.67 0.769 -0.28 0.91 -0.997 1.331 -1.481 1.733 -1.972 1.747 -2.406 1.446 -2.575 0.66 -2.626 -0.017 -2.232 -0.233 -1.859 -0.75 -1.351 -0.89 -0.909 -0.917 -0.127 -0.889 0.033 0.061 0.989" />
    <path class="write-flat-pen" fill="#000000" stroke-width="1.6" __comx="575.197" __comy="69.738" __timestamp="0x1818e96d39b" d="M564.709 64.084 l-0.197 -0.879 0.021 -0.347 0.037 -0.344 0.034 0.015 0.298 -0.099 1.033 -0.09 1.556 0.022 1.957 0.014 2.08 0.07 2 0.5 1.628 0.547 1.068 0.613 0.558 0.596 0.146 0.901 -0.008 1.4 -0.524 1.781 -1.283 2.206 -1.563 2.372 -1.642 2.168 -1.333 1.889 -1.075 1.425 -0.663 0.895 -0.361 0.643 -0.008 0.9 0.861 0.016 1.014 0.005 1.585 0.003 2.135 0.002 2.347 -0.295 2.446 -0.466 2.178 -0.533 1.923 -0.552 1.54 -0.576 1.155 -0.583 1.206 -0.974 -0.318 -0.513 -1.335 0.604 -1.127 0.333 -1.503 0.455 -1.88 0.479 -2.132 0.498 -2.371 0.45 -2.217 0.278 -2.048 0.002 -1.585 0.003 -1.014 0.005 0.481 0.016 -0.008 0.785 0.146 -0.273 0.605 -0.823 1.08 -1.439 1.329 -1.89 1.654 -2.184 1.606 -2.438 1.379 -2.376 0.616 -2.113 -0.008 -1.692 -0.234 -1.39 -0.963 -1.008 -1.341 -0.762 -1.795 -0.598 -2.183 -0.531 -2.23 -0.045 -1.973 0.014 -1.613 0.022 -1.249 0.139 -1.096 0.474 0.034 0.703 0.037 0.344 0.021 0.454 0.259 0.974" />
    <path class="write-flat-pen" fill="#000000" stroke-width="1.6" __comx="587.376" __comy="69.738" __timestamp="0x1818e96d514" d="M587.805 44.469 l-0.536 -0.897 -0.176 -0.422 -0.146 -0.276 -0.068 -0.128 -0.372 0.967 0.063 0.072 0.317 0.002 0.253 0.001 0.078 0.003 -0.014 -0.006 0.081 0.074 0.051 0.049 -0.01 -0.033 -0.001 0.314 -0.003 0.687 -0.005 1.088 -0.003 1.301 -0.063 1.261 -0.179 1.023 -0.202 0.8 0.006 0.368 0.021 0.115 1.248 0 -0.229 -0.624 -0.79 0 -0.229 0.624 1.248 0 0.021 -0.115 0.006 -0.204 0.178 -0.689 0.202 -1.153 0.064 -1.374 -0.003 -1.333 -0.005 -1.088 -0.003 -0.687 -0.001 -0.488 -0.137 -0.491 -0.33 -0.294 -0.173 -0.155 -0.394 -0.235 -0.429 0.003 -0.253 0.001 -0.317 0.002 -0.063 0.072 -0.372 0.967 0.059 -0.014 0.107 0.068 0.204 0.38 0.653 0.894" />
    <path class="write-flat-pen" fill="#000000" stroke-width="1.6" __comx="593.311" __comy="69.738" __timestamp="0x1818e96d5dd" d="M589.535 42.309 l1.161 -0.845 0.864 -0.543 0.913 -0.459 0.99 -0.299 0.949 -0.32 0.673 -0.173 0.612 0.026 0.162 0.009 0.134 0.169 0.192 1.56 0.041 2.989 -0.01 3.944 -0.005 4.753 0 5.203 -0.125 4.967 -0.175 4.419 0.078 3.48 0.49 2.277 0.654 -0.064 0.046 -2.271 0.078 -3.393 0.205 -4.4 0.128 -4.997 0 -5.22 -0.005 -4.753 -0.01 -3.958 -0.086 -3.081 -0.315 -1.991 -0.753 -0.862 -0.726 0.009 -0.783 0.026 -0.848 0.285 -0.953 0.367 -1.038 0.388 -0.988 0.572 -0.91 0.603 -1.148 0.921" />
    <path class="write-flat-pen" fill="#000000" stroke-width="1.6" __comx="497.862" __comy="148.367" __timestamp="0x1818e96e1f7" d="M492.418 149.662 l0.105 -0.331 0.059 -0.057 0.123 -0.057 0.121 -0.057 0.026 -0.057 0.016 -0.329 -0.225 -0.432 -0.34 -0.394 -0.404 -0.297 -0.493 -0.272 -0.415 -0.007 -0.594 -0.01 -0.903 0.245 -0.989 1.1 -0.813 1.286 -0.68 1.471 -0.347 1.432 -0.071 0.994 -0.001 0.595 0 1.002 1.419 0 1.179 -0.001 1.479 -0.468 1.568 -1.235 1.432 -1.304 1.361 -1.548 1.046 -1.438 0.729 -1.335 0.436 -1.119 0 -0.802 0.001 -0.798 -0.901 -0.275 -1.105 -0.006 -1.268 -0.001 -1.204 -0.002 -0.919 0 -0.57 0.059 0.39 0.01 -0.115 0.653 0.072 -0.344 0.603 -0.511 0.703 -0.254 0.542 -0.054 0.244 0.006 0.127 0.062 0.063 0.245 0.063 0.06 0.317 0.034 0.94 0.012 1.399 -0.236 2.067 -0.467 2.431 -0.753 2.378 -0.774 2.169 -0.581 1.853 -0.425 1.606 -0.303 -0.04 -0.491 -1.674 -0.034 -1.949 0.262 -2.268 0.45 -2.439 0.715 -2.386 0.736 -1.989 0.449 -1.263 0.222 -0.835 0.012 -0.317 0.034 -0.063 0.06 -0.063 0.245 -0.127 0.062 -0.263 0.006 -0.599 0.06 -0.819 0.204 -0.918 0.405 -0.562 0.573 -0.115 0.883 0.897 0.01 0.57 -0.056 0.856 0 1.204 -0.002 1.268 -0.001 0.924 -0.006 -0.14 -0.046 0.001 -0.111 0 0.572 -0.325 0.828 -0.665 1.185 -0.982 1.311 -1.301 1.43 -1.357 1.216 -1.347 1.056 -1.057 0.334 -0.976 -0.001 -0.102 0 0 0.315 -0.001 -0.55 0.056 -0.839 0.287 -1.202 0.587 -1.278 0.708 -1.12 0.659 -0.732 0.364 -0.099 0.42 -0.01 0.092 -0.007 0.141 0.072 0.23 0.161 0.167 0.179 0.028 0.026 0.016 0.015 0.026 0.057 0.121 0.057 0.123 0.057 0.059 0.057 0.105 0.331" />
    <path class="write-flat-pen" fill="#000000" stroke-width="1.6" __comx="504.979" __comy="148.367" __timestamp="0x1818e96e2f5" d="M509.938 137.217 l-0.273 -1.333 -0.155 -1.049 -0.335 -1.11 -0.21 -1.135 -0.307 -1.22 -0.309 -1.162 -0.255 -0.86 -0.259 -0.55 -0.278 -0.648 -0.594 -0.006 -0.371 -0.001 -0.772 0.299 -0.754 1.431 -0.845 1.941 -0.838 2.621 -0.832 3.059 -0.77 3.294 -0.574 3.401 -0.507 3.211 -0.445 2.885 -0.188 2.153 -0.048 1.403 0.038 0.701 0.818 0.509 0.748 -0.75 -0.199 -0.404 -1.05 0.137 0.818 0.509 0.038 -0.673 0.079 -1.346 0.193 -2.085 0.442 -2.842 0.507 -3.203 0.567 -3.356 0.752 -3.235 0.816 -3.011 0.81 -2.533 0.803 -1.839 0.514 -0.974 0.115 -0.045 0.136 -0.001 -0.214 -0.006 -0.024 -0.075 0.248 0.481 0.252 0.743 0.325 1.128 0.327 1.185 0.297 1.156 0.425 1.067 0.226 1.013 0.538 1.304" />
    <path class="write-flat-pen" fill="#000000" stroke-width="1.6" __comx="515.619" __comy="148.367" __timestamp="0x1818e96e393" d="M506.391 146.976 l0.825 0.093 1.075 0.015 1.806 -0.355 2.58 -0.814 2.866 -1.036 2.793 -1.036 2.52 -1.012 1.982 -0.861 2.006 -0.966 -0.178 -0.475 -2.145 0.586 -2.074 0.628 -2.55 0.935 -2.784 1.025 -2.838 1.026 -2.49 0.79 -1.617 0.332 -0.953 0.015 -0.825 0.093" />
    <path class="write-flat-pen" fill="#000000" stroke-width="1.6" __comx="518.676" __comy="148.367" __timestamp="0x1818e96e47b" d="M524.545 134.379 l-0.895 -1.199 -0.51 -0.772 -0.378 -0.729 -0.251 -0.655 -0.227 -0.72 -0.182 -0.603 -0.074 -0.199 0.013 -0.669 -0.691 -0.011 -0.484 -0.007 -0.435 0.984 -0.706 2.088 -1.078 3.151 -1.337 4.026 -1.271 4.541 -1.211 4.437 -0.764 4.097 -0.63 3.669 -0.505 2.898 -0.124 2.002 0.017 1.207 0.444 0.704 1.845 -0.548 -0.168 -0.792 -1.101 0.078 0.19 0.246 0.017 -0.854 0.129 -1.892 0.509 -2.829 0.638 -3.661 0.758 -4.035 1.197 -4.382 1.264 -4.507 1.325 -3.991 1.077 -3.148 0.689 -2.035 0.072 -0.162 -0.357 -0.007 -0.564 -0.011 0.013 -0.326 0.18 0.373 0.198 0.542 0.28 0.769 0.383 0.719 0.509 0.76 0.631 0.832 1.29 0.907" />
    <path class="write-flat-pen" fill="#000000" stroke-width="1.6" __comx="530.306" __comy="148.367" __timestamp="0x1818e96e601" d="M535.78 144.042 l0.602 -0.436 0.019 -0.23 0.048 -0.172 0.048 -0.115 0.039 -0.471 -0.446 -0.456 -0.858 -0.029 -1.21 -0.011 -1.663 0.376 -1.773 0.888 -1.726 0.806 -1.548 0.869 -1.114 0.644 -0.775 0.564 -0.566 0.591 -0.098 0.709 0.001 0.814 0.555 0.827 1.196 0.888 1.501 0.884 1.529 0.803 1.304 0.727 0.892 0.589 0.271 0.245 0.055 0.196 0 0.109 -0.31 0.303 -1.192 0.558 -1.599 0.498 -1.739 0.503 -1.481 0.278 -1.05 0.167 -0.519 0.055 -0.094 0.01 0 1.279 0.718 -0.142 1.438 -0.222 2.108 -0.648 -0.133 -0.535 -2.103 0.402 -1.351 0.007 -0.677 -0.142 0 1.279 0.159 0.01 0.622 -0.06 1.105 -0.176 1.561 -0.294 1.811 -0.528 1.696 -0.533 1.471 -0.702 0.83 -0.842 0 -0.807 -0.198 -0.72 -0.616 -0.557 -1.01 -0.671 -1.358 -0.762 -1.513 -0.801 -1.415 -0.834 -0.959 -0.716 -0.205 -0.319 0.001 -0.332 0.029 -0.207 0.195 -0.211 0.62 -0.467 1.041 -0.615 1.494 -0.849 1.696 -0.798 1.65 -0.83 1.379 -0.311 1.071 -0.011 0.409 -0.029 -0.193 -0.227 0.039 -0.013 0.048 0.115 0.048 0.172 0.019 -0.116 -0.238 0.323" />
    <path class="write-flat-pen" fill="#000000" stroke-width="1.6" __comx="542.354" __comy="148.367" __timestamp="0x1818e96e735" d="M535.726 153.243 l0.808 -0.281 0.351 -0.04 0.402 -0.066 0.716 -0.188 0.924 -0.274 1.325 -0.582 1.492 -0.812 1.559 -0.935 1.48 -1.101 1.3 -0.94 0.871 -0.85 0.587 -0.667 0.274 -0.663 0 -0.62 -0.415 -0.75 -1.293 -0.157 -1.24 -0.005 -1.484 -0.004 -1.586 0.839 -1.363 1.098 -1.153 1.333 -0.878 1.388 -0.677 1.454 -0.411 1.402 -0.21 1.294 -0.006 1.255 -0.002 1.157 0.687 1.169 1.302 0.761 1.364 0.389 1.615 0.056 1.597 -0.021 1.584 -0.343 1.464 -0.746 1.305 -0.994 1.197 -1.23 -0.136 -0.188 -1.526 0.738 -1.357 0.724 -1.324 0.514 -1.332 0.229 -1.445 -0.021 -1.427 -0.058 -1.044 -0.298 -0.853 -0.499 -0.327 -0.549 -0.002 -0.79 -0.006 -1.151 0.171 -1.111 0.349 -1.232 0.591 -1.295 0.77 -1.246 1.002 -1.187 1.172 -0.964 1.203 -0.65 1.178 -0.004 1.168 -0.005 0.609 0.073 -0.035 -0.063 0 0.068 -0.107 0.253 -0.427 0.479 -0.777 0.753 -1.235 0.893 -1.436 1.075 -1.483 0.898 -1.423 0.791 -1.211 0.563 -0.851 0.299 -0.679 0.27 -0.359 0.163 -0.41 0.189 -0.712 0.634" />
    <path class="write-flat-pen" fill="#000000" stroke-width="1.6" __comx="558.118" __comy="148.367" __timestamp="0x1818e96e7e1" d="M551.518 149.668 l0.573 0.063 0.444 0.017 0.697 0.016 1.041 0.016 1.458 -0.108 1.741 -0.713 1.843 -0.746 1.854 -0.809 1.587 -0.78 1.121 -0.663 0.739 -0.555 0.101 -0.64 -0.245 -0.163 -0.442 0.178 -0.655 0.247 -1.16 0.482 -1.582 0.709 -1.822 0.794 -1.833 0.743 -1.555 0.661 -1.204 0.121 -0.987 0.016 -0.697 0.016 -0.444 0.017 -0.573 0.063" />
    <path class="write-flat-pen" fill="#000000" stroke-width="1.6" __comx="565.387" __comy="148.367" __timestamp="0x1818e96e895" d="M560.05 142.036 l-1.086 -0.063 -0.045 0.887 -0.019 1.088 -0.027 1.661 -0.011 2.201 0.184 2.514 0.386 2.476 0.654 2.199 0.814 1.901 1.146 1.359 1.42 0.877 1.643 0.192 1.939 -0.021 2.111 -0.93 2.754 -1.993 -0.494 -0.741 -2.805 1.708 -1.819 0.674 -1.61 -0.021 -1.273 -0.152 -0.988 -0.612 -0.882 -1.046 -0.707 -1.649 -0.614 -2.039 -0.375 -2.335 -0.196 -2.411 -0.011 -2.151 -0.027 -1.661 -0.019 -1.088 -0.045 0.2 0 -0.063" />
    <path class="write-flat-pen" fill="#000000" stroke-width="1.6" __comx="606.857" __comy="148.367" __timestamp="0x1818e96eb14" d="M609.051 142.831 l-0.602 -0.083 -0.577 -0.058 -0.449 0.022 -0.444 0.003 -0.38 0 -0.395 -0.011 -0.416 0.112 -0.334 0.237 -0.338 0.237 -0.205 0.309 -0.249 0.453 0.208 0.115 0.246 -0.443 0.175 -0.264 0.296 -0.221 0.299 -0.222 0.345 -0.117 0.366 -0.011 0.38 0 0.444 0.003 0.438 0.022 0.564 0.057 0.604 0.053" />
    <path class="write-flat-pen" fill="#000000" stroke-width="1.6" __comx="605.456" __comy="148.367" __timestamp="0x1818e96ec15" d="M600.378 145.26 l0.643 0.135 0.887 0.008 1.425 0.01 1.745 -0.16 1.58 -0.166 1.361 -0.112 0.988 -0.005 0.634 -0.017 -0.067 -0.08 0.184 0.326 0.775 -0.122 -0.065 -1.25 -0.828 -0.08 -0.634 -0.017 -1.04 -0.005 -1.428 0.117 -1.59 0.178 -1.677 0.184 -1.364 0.01 -0.887 0.008 -0.643 0.135" />
    <path class="write-flat-pen" fill="#000000" stroke-width="1.6" __comx="608.985" __comy="148.367" __timestamp="0x1818e96ecaa" d="M601.795 152.101 l-0.057 1.103 0.742 0.05 0.839 0.021 1.269 -0.055 1.669 -0.345 1.933 -0.225 2.216 -0.236 2.626 -0.342 3.202 -0.911 -0.16 -0.726 -3.228 0.509 -2.572 0.231 -2.221 0.222 -1.997 0.233 -1.626 0.342 -1.14 0.059 -0.809 0.021 0.361 0.05 -0.057 0" />
    <path class="write-flat-pen" fill="#000000" stroke-width="1.6" __comx="647.539" __comy="148.367" __timestamp="0x1818e96ee9f" d="M643.712 136.33 l-0.303 -0.463 0.052 -0.481 -1.23 -0.078 -0.013 1.061 -0.061 0.977 -0.249 1.441 -0.368 1.713 -0.544 1.419 -0.535 1.146 -0.392 0.636 -0.279 0.384 0.014 0.048 0.56 0.071 -0.062 0.258 -0.007 -0.613 0.269 -0.73 0.668 -0.843 0.896 -0.995 0.954 -0.986 1.194 -1.026 1.368 -0.981 1.552 -0.931 1.797 -0.877 1.718 -0.653 1.503 -0.371 1.191 -0.1 0.564 0.01 0.112 0.072 0.226 0.98 0.054 2.099 -0.005 3.129 -0.126 3.833 -0.812 4.4 -1.009 4.215 -1.008 3.946 -0.812 3.156 -0.495 2.083 -0.242 1.338 0.037 0.633 0.9 0.465 0.733 -1.065 -0.146 -0.205 -1.247 0.34 0.9 0.465 0.037 -0.512 0.265 -1.182 0.519 -2.04 0.837 -3.143 1.021 -3.957 1.019 -4.26 0.836 -4.534 0.128 -3.955 -0.005 -3.17 -0.073 -2.254 -0.408 -1.655 -0.902 -0.5 -0.957 0.01 -1.344 0.129 -1.666 0.43 -1.832 0.721 -1.879 0.955 -1.617 1.016 -1.421 1.081 -1.215 1.15 -0.948 1.076 -0.878 1.067 -0.726 0.989 -0.364 0.988 -0.007 0.762 -0.062 0.717 0.94 0.071 0.395 -0.41 0.355 -0.418 0.495 -0.739 0.605 -1.259 0.597 -1.559 0.392 -1.838 0.258 -1.537 0.065 -1.084 -0.013 0.145 -1.103 -0.078 0.052 -0.252 0.626 0.656" />
    <path class="write-flat-pen" fill="#000000" stroke-width="1.6" __comx="691.371" __comy="148.367" __timestamp="0x1818e96f095" d="M687.176 128.376 l0.035 -0.635 0.019 -0.057 -1.033 0 -0.084 0.229 0.261 1.372 0.424 2.379 0.292 3.272 0.056 3.749 -0.001 3.992 -0.126 3.728 -0.562 3.49 -0.693 3.072 -0.568 2.502 -0.502 1.756 -0.314 1.074 -0.183 0.551 -0.06 0.162 1.26 0.316 0.099 -0.793 0.677 -1.183 1.029 -1.436 1.278 -1.381 1.313 -1.135 1.414 -0.748 1.41 -0.478 1.484 -0.161 1.488 0.001 1.204 0.001 0.651 0.002 -0.075 -0.039 -0.007 0.39 -0.009 0.853 -0.836 0.977 -1.386 1.191 -1.641 1.039 -1.581 0.768 -1.382 0.488 -0.967 0.209 -0.691 0.017 0.353 0.037 -0.108 0.556 0.681 -0.761 -0.435 -0.53 -1.243 0.82 -0.108 1.129 0.86 0.037 0.83 0.017 1.188 -0.25 1.534 -0.542 1.715 -0.836 1.782 -1.137 1.53 -1.329 1.192 -1.428 -0.009 -1.324 -0.007 -1.099 -0.835 -0.497 -0.997 0.002 -1.204 0.001 -1.555 0.001 -1.685 0.183 -1.632 0.553 -1.629 0.855 -1.475 1.27 -1.384 1.482 -1.126 1.542 -0.844 1.452 -0.154 1.039 1.26 0.316 0.067 -0.182 0.197 -0.594 0.319 -1.102 0.512 -1.794 0.573 -2.538 0.701 -3.113 0.579 -3.611 0.127 -3.831 -0.001 -4.025 -0.071 -3.81 -0.342 -3.371 -0.463 -2.431 -0.246 -1.263 -0.084 -0.115 -1.033 0 0.019 0.057 0.035 0.635" />
    <path class="write-flat-pen" fill="#000000" stroke-width="1.6" __comx="707.362" __comy="148.367" __timestamp="0x1818e96f152" d="M707.449 151.401 l0.497 0.287 -0.122 0.025 0.045 0.292 0.08 1.191 -0.017 1.69 -0.018 1.872 -0.493 1.897 -0.622 1.673 -0.51 1.21 -0.217 0.65 0.017 -0.001 0.646 0.037 -0.057 0.508 -0.187 -1.467 -0.643 0 -0.187 1.467 -0.057 0.623 1.027 0.037 0.524 -0.574 0.29 -0.839 0.504 -1.195 0.646 -1.763 0.521 -2.112 -0.018 -2.022 -0.017 -1.746 -0.174 -1.329 -0.335 -1.083 -0.629 0.025 -0.497 0.287" />
    <path class="write-flat-pen" fill="#000000" stroke-width="1.6" __comx="706.784" __comy="148.367" __timestamp="0x1818e96f1df" d="M702.502 145.91 l-0.097 0.784 0.473 0.784 0.998 0.633 1.271 0.448 1.66 0.18 1.909 0.149 2.364 0.076 0.081 -0.901 -2.339 -0.349 -1.894 -0.194 -1.509 -0.164 -1.01 -0.354 -0.65 -0.398 -0.161 -0.247 -0.097 -0.446" />
    <path class="write-flat-pen" fill="#000000" stroke-width="1.6" __comx="719.784" __comy="148.367" __timestamp="0x1818e96f295" d="M713.172 150.154 l0.216 1.019 0.603 0.337 0.781 0.22 1.287 0.006 2 0.009 2.185 -0.238 1.976 -0.595 1.737 -0.678 1.275 -0.703 0.685 -0.598 0.48 -0.677 -0.247 -0.273 -0.681 0.371 -0.709 0.319 -1.26 0.443 -1.686 0.582 -1.827 0.55 -1.998 0.22 -1.93 0.009 -1.121 0.006 -0.487 -0.124 -0.031 -0.007 -0.2 -0.488" />
    <path class="write-flat-pen" fill="#000000" stroke-width="1.6" __comx="727.204" __comy="148.367" __timestamp="0x1818e96f35e" d="M722.82 146.324 l-0.849 -0.323 -0.486 -0.088 -0.617 0.351 -0.207 1.216 -0.214 1.554 -0.209 2.016 -0.204 2.403 -0.27 2.577 -0.205 2.542 -0.075 2.259 -0.01 1.9 -0.009 1.655 0.624 1.281 0.975 1.031 1.366 0.363 1.387 -0.002 1.829 -0.139 2.108 -1.189 2.224 -1.425 2.328 -1.694 2.638 -2.341 -0.508 -0.628 -2.807 2.061 -2.362 1.513 -2.213 1.324 -1.822 0.987 -1.467 0.09 -1.148 -0.002 -0.789 -0.21 -0.546 -0.572 -0.391 -0.781 -0.009 -1.323 -0.01 -1.88 0.052 -2.208 0.176 -2.497 0.238 -2.577 0.176 -2.408 0.171 -1.992 0.166 -1.538 0.046 -0.731 -0.11 0.007 0.148 -0.088 0.857 -0.183" />
    <path class="write-flat-pen" fill="#000000" stroke-width="1.6" __comx="247.86" __comy="228.23" __timestamp="0x1818e979d9c" d="M242.197 217.123 l-0.33 -0.372 -0.212 -0.327 -0.152 -0.208 0.003 -0.251 -0.095 -0.241 -0.008 -0.186 0.044 -0.286 -0.208 -0.226 -0.352 0.915 0.127 0.038 0.951 0.007 1.268 0.009 1.51 0.009 1.363 0.06 1.307 0.43 1.251 0.454 1.01 0.4 0.64 0.24 0.204 0.209 0.043 0.508 -0.001 0.975 -0.802 1.543 -1.552 2.075 -1.882 2.436 -1.995 2.14 -1.86 1.737 -1.62 1.192 -1.342 0.526 -0.904 0.203 -0.566 -0.001 0.352 -0.001 0.002 0.19 0.234 -0.419 1.033 -0.686 1.716 -0.72 2.133 -0.85 2.37 -0.789 2.693 -0.678 2.601 -0.56 2.47 -0.112 2.014 0 1.253 0 0.373 0.279 0.046 0.731 0 1.383 -0.861 1.704 -1.658 2.108 -1.926 2.077 -2.187 1.918 -1.944 1.587 -1.692 1.244 -1.308 0.9 -0.727 0.438 -0.425 0.221 0.49 1.123 0.637 -0.38 1.569 -1.189 -0.352 -0.546 -1.639 0.881 -0.631 0.079 0.49 1.123 0.462 -0.237 0.794 -0.478 1.354 -0.932 1.731 -1.275 1.985 -1.62 2.25 -1.976 2.003 -2.16 1.765 -2.244 1.04 -2.076 0 -1.71 -0.081 -1.331 -1.148 -0.866 -1.663 0 -2.042 0 -2.6 0.117 -2.723 0.586 -2.758 0.696 -2.447 0.815 -2.177 0.868 -1.834 0.769 -1.376 0.918 -0.526 0.956 0.002 1.336 0.86 -0.001 0.701 -0.001 1.124 -0.255 1.574 -0.619 1.803 -1.327 1.942 -1.814 2.062 -2.212 1.921 -2.489 1.617 -2.163 0.973 -1.893 -0.001 -1.316 -0.084 -0.981 -0.684 -0.707 -0.881 -0.332 -1.018 -0.402 -1.285 -0.463 -1.482 -0.486 -1.553 -0.055 -1.533 0.009 -1.268 0.009 -0.951 0.007 -0.127 0.038 -0.352 0.915 -0.081 -0.112 0.044 -0.057 0.118 0.387 0.158 0.217 0.13 0.322 0.355 0.25 0.295 0.246 0.421 0.307" />
    <path class="write-flat-pen" fill="#000000" stroke-width="1.6" __comx="279.415" __comy="228.23" __timestamp="0x1818e979f13" d="M269.246 215.79 l0.411 -0.533 -0.044 0.098 -0.077 0.039 0.34 0.024 0.662 -0.046 1.078 -0.071 1.438 -0.087 1.815 -0.044 2.019 0.007 2.028 0.005 1.669 0.008 1.094 0.154 0.667 0.405 0.304 0.667 -0.003 1.35 -0.008 1.755 -0.947 2.189 -1.432 2.473 -1.57 2.438 -1.636 2.331 -1.392 1.886 -1.099 1.517 -0.728 1.246 -0.078 1.034 -0.001 0.839 0.394 0.99 1.521 0.725 1.857 0.315 2.084 0 2.395 -0.002 2.376 -0.367 2.156 -0.679 1.854 -0.823 1.88 -1.073 -0.333 -0.71 -1.999 0.749 -1.822 0.666 -2.027 0.581 -2.187 0.321 -2.295 -0.002 -1.973 0 -1.566 -0.258 -0.888 -0.42 -0.113 -0.27 -0.001 -0.535 0.049 -0.684 0.54 -0.93 1.056 -1.461 1.397 -1.894 1.66 -2.365 1.599 -2.487 1.484 -2.566 1.081 -2.507 -0.008 -2.024 -0.003 -1.628 -0.583 -1.28 -1.235 -0.741 -1.441 -0.19 -1.754 0.008 -2.028 0.005 -2.038 0.007 -1.861 0.07 -1.478 0.142 -1.077 0.158 -0.605 0.069 -0.294 0.024 -0.457 0.039 -0.171 0.327 -0.354 0.503" />
    <path class="write-flat-pen" fill="#000000" stroke-width="1.6" __comx="311.409" __comy="228.23" __timestamp="0x1818e979fe5" d="M305.937 224.64 l0.603 0.327 0.593 0.111 0.791 0.094 1.163 0.014 1.344 0.012 1.469 -0.06 1.433 -0.357 1.284 -0.264 1.037 -0.212 1.229 -0.3 -0.027 -0.48 -1.279 -0.158 -1.118 0.017 -1.378 0.194 -1.356 0.331 -1.32 0.054 -1.318 0.012 -1.119 0.014 -0.731 -0.02 -0.421 -0.004 -0.496 -0.169" />
    <path class="write-flat-pen" fill="#000000" stroke-width="1.6" __comx="336.6" __comy="228.23" __timestamp="0x1818e97a246" d="M333.28 214.743 l0.163 -0.586 0.045 -0.172 -1.013 0 -0.102 0.789 -0.065 1.475 -0.431 1.818 -0.568 1.987 -0.504 1.705 -0.38 1.144 -0.195 0.645 -0.065 0.236 1.216 0.165 -0.018 -0.034 -0.008 -0.684 0.469 -1.151 0.6 -1.507 0.621 -1.381 0.497 -1.185 0.551 -0.94 0.544 -0.81 0.653 -0.623 0.585 -0.389 0.71 -0.289 0.745 -0.234 0.802 -0.024 0.87 0.022 0.595 0.013 0.546 0.36 0.569 1.065 0.461 1.888 0.297 2.959 -0.009 3.918 -0.004 4.622 -0.252 4.885 -0.568 4.565 -0.381 3.732 -0.254 2.725 0.008 1.634 0.017 0.95 0.459 0.545 1.286 -0.114 1.285 -1.35 -0.348 -0.409 -1.279 0.831 -0.362 -0.114 0.205 0.201 0.017 -0.539 0.008 -1.573 0.253 -2.658 0.379 -3.713 0.572 -4.598 0.255 -4.965 -0.004 -4.655 -0.009 -3.985 -0.337 -3.112 -0.553 -2.121 -0.825 -1.454 -1.102 -0.671 -0.926 0.013 -0.905 0.022 -0.973 0.091 -0.903 0.339 -0.812 0.398 -0.682 0.527 -0.742 0.751 -0.597 0.908 -0.59 1.007 -0.517 1.221 -0.647 1.368 -0.668 1.471 -0.672 1.254 -0.135 0.919 -0.018 0.081 1.216 0.165 0.062 -0.222 0.186 -0.615 0.381 -1.147 0.51 -1.731 0.573 -2.022 0.457 -1.961 0.062 -1.617 -0.102 -0.814 -1.013 0 0.045 0.172 0.163 0.586" />
    <path class="write-flat-pen" fill="#000000" stroke-width="1.6" __comx="365.485" __comy="228.23" __timestamp="0x1818e97a2e2" d="M360.08 230.212 l1.423 0.02 1.077 0.002 1.394 0.014 1.394 0 1.331 -0.006 1.394 -0.012 1.227 -0.041 1.444 0.109 0.124 -0.776 -1.487 -0.358 -1.308 -0.041 -1.394 -0.012 -1.331 -0.006 -1.394 0 -1.394 0.014 -1.077 0.002 -1.423 0.02" />
    <path class="write-flat-pen" fill="#000000" stroke-width="1.6" __comx="370.877" __comy="228.23" __timestamp="0x1818e97a362" d="M366.766 236.228 l-0.715 0.342 0.332 1.193 0.063 0.024 0.824 0.001 1.151 0 1.93 -0.071 2.518 -0.771 2.833 -1.608 -0.282 -0.61 -2.974 1.079 -2.299 0.603 -1.747 0.043 -1.13 0 -0.824 0.001 -0.063 0.024 0.332 1.193 0.637 -0.472" />
    <path class="write-flat-pen" fill="#000000" stroke-width="1.6" __comx="421.097" __comy="228.23" __timestamp="0x1818e97a5b1" d="M406.981 217.804 l0.338 -0.555 0.062 -0.172 0.05 0.432 0.151 0.062 1.472 0.006 2.098 0.357 2.587 0.467 2.402 0.459 2.007 0.397 1.172 0.303 0.494 0.41 0.227 0.808 -0.016 1.615 -0.068 2.246 -0.797 2.593 -0.878 2.602 -0.889 2.121 -0.521 1.587 -0.285 1.022 -0.004 0.609 -0.005 0.87 1.238 0.697 1.338 0.451 1.699 0.186 2.148 0 2.414 -0.131 2.609 -1.05 2.691 -1.513 2.584 -1.793 2.557 -2.559 -0.3 -0.349 -2.863 2.093 -2.613 1.528 -2.633 1.35 -2.334 0.897 -2.149 0.098 -2.035 0 -1.47 -0.158 -1.071 -0.351 -0.41 -0.22 -0.005 -0.046 -0.004 -0.422 0.222 -0.811 0.493 -1.505 0.885 -2.117 0.897 -2.667 0.851 -2.79 0.059 -2.45 -0.016 -1.821 -0.406 -1.368 -1.027 -0.85 -1.49 -0.384 -2.049 -0.404 -2.415 -0.457 -2.61 -0.449 -2.212 -0.33 -1.57 0.006 -1.244 0.062 0.05 0.661 0.062 0.172 0.338 0.555" />
    <path class="write-flat-pen" fill="#000000" stroke-width="1.6" __comx="445.134" __comy="228.23" __timestamp="0x1818e97a6cf" d="M444.291 217.098 l-0.099 1.354 -0.013 1.593 -0.075 1.833 -0.385 2.021 -0.35 2.002 -0.018 1.656 -0.009 1.544 0.512 1.535 0.974 1.267 1.114 1.196 1.23 1.117 1.139 0.976 1.141 1.035 0.851 0.716 0.566 0.667 0.236 0.358 -0.001 0.414 -0.002 0.6 -0.542 0.647 -1.262 0.933 -1.636 0.739 -1.941 0.428 -2.077 0.014 -2.01 -0.335 -1.716 -1.141 -1.51 -2.299 -0.681 0.377 1.275 2.734 2.087 1.608 2.427 0.467 2.359 0.014 2.242 -0.488 1.914 -0.865 1.526 -1.129 0.98 -1.185 -0.002 -1.118 -0.001 -0.846 -0.524 -0.787 -0.701 -0.822 -0.924 -0.773 -1.141 -1.027 -1.143 -0.971 -1.178 -1.06 -1.041 -1.095 -0.801 -1.024 -0.375 -1.1 -0.009 -1.32 -0.018 -1.55 0.284 -1.892 0.376 -2.103 0.052 -1.947 -0.013 -1.614 -0.099 -1.354" />
    <path class="write-flat-pen" fill="#000000" stroke-width="1.6" __comx="451.031" __comy="228.23" __timestamp="0x1818e97a749" d="M441.691 223.956 l2.004 -0.955 1.816 -1.078 2.173 -1.369 2.413 -1.606 2.597 -1.734 2.493 -1.79 2.782 -1.592 2.912 -1.691 -0.342 -0.663 -3.074 1.4 -2.923 1.501 -2.578 1.761 -2.6 1.702 -2.404 1.6 -2.137 1.379 -1.733 1.098 -1.906 1.042" />
    <path class="write-flat-pen" fill="#000000" stroke-width="1.6" __comx="513.27" __comy="228.23" __timestamp="0x1818e97a845" d="M513.898 231.555 l-1.256 0 0 0.939 1.256 0" />
    <path class="write-flat-pen" fill="#000000" stroke-width="1.6" __comx="505.714" __comy="231.239" __timestamp="0x1818e97ac2c" d="M513.536 204.914 l-1.098 -0.081 -1.22 0.184 -1.728 1.032 -1.97 1.745 -2.272 2.32 -2.208 2.968 -2.021 3.382 -1.505 3.806 -1.041 4.434 -0.515 4.994 -0.065 5.416 -0.001 5.889 0.771 5.632 1.287 5.173 1.823 4.511 2.391 3.487 3.014 2.472 3.607 1.363 0.309 -0.73 -3.334 -1.581 -2.69 -2.338 -2.172 -3.271 -1.726 -4.309 -1.248 -5.02 -0.75 -5.477 -0.001 -5.794 0.062 -5.35 0.499 -4.856 0.987 -4.27 1.411 -3.638 1.909 -3.261 2.102 -2.873 2.165 -2.262 1.833 -1.691 1.442 -0.915 0.935 -0.16 1.018 -0.081" />
    <path class="write-flat-pen" fill="#000000" stroke-width="1.6" __comx="542.88" __comy="231.239" __timestamp="0x1818e97ae03" d="M534.525 231.021 l-0.898 -0.853 -0.234 -0.041 0 1.159 0.436 0.039 1.645 -0.287 2.346 -0.441 2.972 -0.501 3.108 -0.515 2.871 -0.519 2.327 -0.544 1.705 -0.625 1.053 -0.558 0.543 -0.664 0.075 -0.601 -0.247 -0.94 -0.273 0 -0.247 0.822 -0.178 0.201 -0.344 0.253 -0.849 0.358 -1.591 0.52 -2.237 0.487 -2.834 0.512 -3.103 0.516 -2.986 0.53 -2.344 0.475 -1.524 0.286 -0.325 0.039 0 1.159 -0.107 -0.041 0.828 0.36" />
    <path class="write-flat-pen" fill="#000000" stroke-width="1.6" __comx="552.117" __comy="231.239" __timestamp="0x1818e97aebf" d="M547.663 218.153 l-0.582 0.615 -0.323 1.781 -0.421 2.387 -0.598 2.906 -0.581 2.98 -0.521 2.84 -0.206 2.631 -0.015 2.344 0.195 2.2 1.238 1.861 1.763 1.129 2.028 0.253 2.294 -0.022 2.487 -1.403 2.566 -1.896 2.829 -2.32 -0.376 -0.499 -2.994 2.065 -2.631 1.654 -2.204 1.117 -1.889 -0.022 -1.648 -0.205 -1.279 -0.818 -0.917 -1.346 -0.185 -1.808 -0.015 -2.238 0.175 -2.523 0.494 -2.773 0.56 -2.976 0.542 -2.935 0.34 -2.423 0.184 -1.54 0.33 -0.484" />
    <path class="write-flat-pen" fill="#000000" stroke-width="1.6" __comx="565.641" __comy="231.239" __timestamp="0x1818e97b017" d="M570.322 230.649 l0.637 -0.441 0.081 -0.245 0.069 -0.229 0.04 -0.744 0.018 -1.088 0.004 -1.585 -0.493 -1.601 -0.768 -1.255 -1.311 -0.673 -1.501 -0.01 -1.873 0.448 -2.178 1.779 -2.205 2.28 -2.138 2.626 -1.68 2.619 -1.295 2.218 -0.728 1.605 -0.367 1.055 0 1.15 1.093 -0.001 1.753 -0.444 2.494 -1.366 2.918 -1.729 2.953 -1.713 2.729 -1.347 1.947 -0.661 1.287 -0.267 0.475 0 0.145 0.205 0.106 1.053 -0.008 1.799 -0.009 2.004 -0.004 1.834 -0.251 1.525 -0.067 1.086 0.008 1.156 0.93 -0.028 1.321 -0.068 2.194 -1.106 -0.317 -0.756 -2.111 0.7 -1.087 -0.068 0.423 -0.028 0.008 0.24 0.06 -0.975 0.256 -1.567 -0.004 -1.946 -0.009 -2.004 -0.008 -1.866 -0.148 -1.466 -0.742 -1.055 -1.3 0 -1.502 0.305 -2.11 0.713 -2.849 1.402 -3.005 1.723 -2.913 1.707 -2.323 1.268 -1.416 0.358 0.459 -0.001 0 0.463 0.267 -0.778 0.666 -1.487 1.24 -2.135 1.616 -2.535 2.045 -2.528 2.105 -2.187 1.879 -1.543 1.423 -0.354 1.034 -0.01 0.717 0.358 0.499 0.807 0.395 1.262 0.004 1.393 0.018 1.088 0.04 0.744 0.069 0.229 0.081 -0.131 -0.224 0.337" />
    <path class="write-flat-pen" fill="#000000" stroke-width="1.6" __comx="588.554" __comy="233.984" __timestamp="0x1818e97b1d5" d="M588.336 230.257 l0.429 -1.364 0.336 -1.064 0.479 -1.281 0.532 -1.299 0.458 -1.186 0.346 -0.761 0.175 -0.581 0.007 -0.863 -1.325 -0.023 -1.482 1.062 -1.759 1.588 -1.991 2.087 -1.931 2.151 -1.436 1.944 -0.996 1.679 -0.578 1.434 0 1.28 0.001 1.289 0.561 1.301 1.17 1.053 1.381 0.887 1.501 0.957 1.519 1.152 1.426 1.503 1.004 1.758 0.651 1.977 0.181 2.182 0 2.366 -0.477 2.37 -1.146 2.399 -1.598 2.388 -1.917 2.235 -1.971 1.892 -1.909 1.39 -1.583 0.989 -1.085 0.462 -0.498 0.084 0.569 -0.008 0.018 -0.111 0.857 -1.751 1.793 -2.626 2.436 -3.054 2.876 -3.123 3.009 -2.91 3.007 -2.74 3.055 -2.463 3.112 -2.248 3.598 -2.347 -0.474 -0.779 -3.773 2.136 -3.226 2.219 -3.157 2.462 -3.078 2.757 -3.075 2.931 -2.955 3.176 -2.508 3.131 -1.883 2.757 -1.045 2.143 0.018 1.836 0.949 -0.008 0.77 -0.145 1.323 -0.569 1.712 -1.073 2.021 -1.473 2.085 -2.002 2.013 -2.346 1.698 -2.537 1.262 -2.64 0.537 -2.669 0 -2.559 -0.199 -2.399 -0.744 -2.26 -1.151 -2.022 -1.616 -1.704 -1.65 -1.254 -1.541 -0.99 -1.281 -0.831 -0.859 -0.779 -0.326 -0.761 0.001 -1.002 0 -1.011 0.436 -1.086 0.906 -1.528 1.353 -1.836 1.872 -2.087 1.939 -2.036 1.664 -1.504 1.053 -0.771 -0.437 -0.023 0.007 -0.634 -0.079 0.335 -0.287 0.727 -0.429 1.22 -0.483 1.335 -0.408 1.353 -0.298 1.112 -0.295 1.414" />
    <path class="write-flat-pen" fill="#000000" stroke-width="1.6" __comx="624.441" __comy="233.984" __timestamp="0x1818e97b295" d="M615.811 240.534 l0.739 0.142 0.847 0.005 1.526 -0.684 2.163 -0.913 2.666 -1.262 2.836 -1.256 2.466 -1.052 1.893 -0.901 1.271 -0.634 0.821 -0.592 0.031 -0.952 -0.338 -0.125 -0.474 0.417 -0.573 0.21 -1.264 0.511 -1.91 0.817 -2.478 1.01 -2.869 1.263 -2.658 1.258 -2.147 0.919 -1.263 0.576 -0.547 0.005 -0.739 0.142" />
    <path class="write-flat-pen" fill="#000000" stroke-width="1.6" __comx="625.589" __comy="233.984" __timestamp="0x1818e97b323" d="M625.962 226.732 l-0.666 -0.063 -0.598 0.676 0.026 0.522 0.18 1.474 0.181 2.599 0.049 3.584 -0.005 4.117 0 4.123 0.013 3.837 0.091 3.663 1.142 0 0.091 -3.663 0.013 -3.837 0 -4.123 -0.005 -4.129 -0.078 -3.631 -0.2 -2.669 -0.201 -1.504 -0.101 -0.509 -0.598 0.676 0.666 -0.063" />
    <path class="write-flat-pen" fill="#000000" stroke-width="1.6" __comx="682.755" __comy="233.984" __timestamp="0x1818e97ba2b" d="M666.022 217.701 l0.464 -0.264 0.366 -0.166 0.826 -0.487 1.25 -0.666 1.451 -0.73 1.468 -0.709 1.207 -0.327 0.855 -0.23 0.663 -0.128 0.414 -0.081 0.146 -0.064 0.25 -0.021 0.195 -0.216 -0.836 -0.371 0.027 0.057 -0.013 0.744 -0.03 1.031 -0.033 1.374 -0.023 1.833 -0.017 2.233 -0.011 2.704 -0.441 2.927 -0.508 2.973 -0.445 2.702 -0.319 2.368 -0.188 1.955 -0.184 1.703 -0.184 1.253 -0.122 0.921 -0.066 0.498 0.003 0.678 0.829 -0.008 1.126 -0.814 1.417 -1.274 1.968 -1.721 2.147 -2.008 2.254 -1.961 2.253 -1.985 1.937 -1.76 1.746 -1.635 1.476 -1.355 1.234 -1.075 0.95 -0.881 0.634 -0.63 0.42 -0.335 0.178 -0.125 0.068 0.004 -0.702 -0.312 -0.086 0.057 -0.016 1.252 -0.087 1.998 -0.64 2.624 -0.77 2.786 -0.706 2.349 -0.448 1.719 -0.331 1.132 -0.065 0.65 -0.07 0.316 0.004 0.18 1.182 0.077 0.075 -0.874 0.803 -1.508 1.225 -1.926 1.353 -1.747 1.268 -1.317 1.099 -0.68 0.822 -0.247 0.688 0.002 0.324 0.095 0.262 0.742 0.166 1.411 0.041 1.628 -0.019 1.88 -0.012 1.693 -0.128 1.398 -0.13 1.113 0 0.663 0.017 0.786 0.78 -0.057 1.299 -0.273 -0.101 -0.786 -1.262 0.058 0.399 -0.057 0.017 0.328 0 -0.597 0.124 -1.063 0.126 -1.465 -0.012 -1.743 -0.019 -1.9 -0.085 -1.693 -0.214 -1.567 -0.498 -1.319 -0.944 -0.248 -0.96 0.002 -1.079 0.326 -1.309 0.809 -1.394 1.432 -1.436 1.803 -1.31 1.969 -0.971 1.699 -0.179 1.073 1.182 0.077 0.004 -0.049 0.057 -0.257 0.061 -0.61 0.303 -1.045 0.44 -1.718 0.689 -2.347 0.751 -2.826 0.627 -2.76 0.04 -2.126 -0.016 -1.268 -0.086 -0.057 -0.702 -0.312 -0.058 0.118 -0.076 0.218 -0.34 0.352 -0.634 0.63 -0.952 0.837 -1.301 0.986 -1.567 1.279 -1.804 1.572 -1.993 1.676 -2.31 1.909 -2.31 1.933 -2.163 2.001 -1.962 1.715 -1.372 1.246 -0.775 0.56 0.702 -0.008 0.003 0.563 0.061 -0.418 0.132 -0.912 0.197 -1.267 0.196 -1.733 0.192 -1.94 0.315 -2.328 0.442 -2.681 0.506 -2.983 0.447 -3.029 -0.011 -2.793 -0.017 -2.233 -0.023 -1.833 -0.033 -1.374 -0.03 -1.031 -0.013 -0.744 0.027 -0.057 -0.836 -0.371 0.068 -0.101 -0.004 -0.021 -0.234 0.051 -0.347 0.034 -0.731 0.101 -0.92 0.228 -1.328 0.36 -1.575 0.78 -1.465 0.759 -1.285 0.708 -0.822 0.544 -0.395 0.292 -0.384 0.502" />
    <path class="write-flat-pen" fill="#000000" stroke-width="1.6" __comx="712.653" __comy="233.984" __timestamp="0x1818e97bc13" d="M710.365 234.748 l0.179 -0.819 0.146 -0.661 0.214 -0.823 0.084 -0.858 0.007 -0.822 0.008 -0.776 -0.701 -0.56 -0.941 -0.082 -1.191 -0.01 -1.325 1.189 -1.436 1.527 -1.492 1.981 -1.477 2.186 -1.286 1.96 -0.909 1.568 -0.549 1.04 -0.146 0.521 0.601 0.789 0.646 -0.006 1.504 -0.718 1.898 -1.377 2.049 -1.816 2.156 -2.079 2.288 -2.198 2.294 -2.566 2.296 -3.016 2.237 -3.362 1.981 -3.759 1.787 -3.863 1.47 -3.753 1.15 -3.638 0.829 -3.229 0.57 -2.593 0.313 -1.677 0.131 -0.849 0 -0.154 -0.997 0 -0.002 0.172 -0.006 1.384 -0.439 2.276 -0.901 3.071 -0.966 3.659 -1.212 4.053 -1.272 4.242 -1.268 4.577 -1.454 4.628 -1.457 4.581 -1.325 4.172 -1.196 3.366 -0.951 2.524 -0.51 1.498 -0.246 0.747 1.035 0.367 -0.036 -0.143 1.081 -1.733 -0.565 -0.4 -1.347 1.696 -0.163 0.201 1.035 0.367 0.261 -0.742 0.504 -1.48 0.951 -2.516 1.212 -3.392 1.337 -4.189 1.459 -4.582 1.461 -4.649 1.267 -4.586 1.263 -4.234 1.197 -4.079 0.936 -3.672 0.874 -3.114 0.448 -2.42 -0.006 -1.479 -0.002 -0.172 -0.997 0 0 0.075 -0.123 0.755 -0.321 1.644 -0.57 2.561 -0.819 3.185 -1.131 3.578 -1.446 3.692 -1.763 3.811 -1.948 3.686 -2.2 3.281 -2.268 2.94 -2.269 2.474 -2.275 2.154 -2.154 2.044 -2.008 1.735 -1.778 1.257 -1.158 0.542 -0.368 -0.006 0.601 0.789 0.107 -0.396 0.465 -0.907 0.866 -1.524 1.249 -1.934 1.438 -2.166 1.424 -1.913 1.353 -1.451 0.956 -0.873 0.711 -0.01 0.58 0.032 0.06 0.013 0.008 0.255 0.007 0.782 -0.043 0.745 -0.166 0.781 -0.108 0.713 -0.053 0.857" />
    <path class="write-flat-pen" fill="#000000" stroke-width="1.6" __comx="727.012" __comy="233.984" __timestamp="0x1818e97bd55" d="M720.802 235.105 l0.087 0.996 0.241 0.586 0.569 0.473 0.801 0.087 1.052 0.003 1.296 -0.387 1.431 -0.98 1.322 -1.19 1.145 -1.339 0.759 -1.56 0.271 -1.496 -0.009 -1.251 -0.004 -1.009 -0.354 -0.935 -1.118 0 -1.11 -0.012 -1.398 0.927 -1.222 1.396 -1.141 1.786 -0.868 2.115 -0.737 2.107 -0.414 2.042 -0.013 1.606 -0.003 1.413 0.604 1.17 1.339 0.709 1.42 0.252 1.387 -0.016 1.508 -0.015 1.585 -1.074 1.276 -1.452 1.341 -1.503 1.375 -1.987 -0.408 -0.327 -1.613 1.742 -1.448 1.361 -1.259 1.297 -1.203 0.758 -1.154 -0.015 -1.275 -0.016 -1.115 -0.207 -0.816 -0.436 -0.283 -0.548 -0.003 -1.107 -0.013 -1.487 0.347 -1.852 0.658 -2.016 0.779 -2.009 1.014 -1.65 1.06 -1.238 1.011 -0.676 0.792 -0.012 0.403 0 0.027 0.096 -0.004 0.823 -0.009 1.154 -0.236 1.253 -0.636 1.303 -1.01 1.181 -1.214 1.1 -1.231 0.852 -0.985 0.3 -0.849 0.003 -0.466 -0.028 -0.192 -0.1 -0.139 -0.216 -0.14 -0.845" />
    <path class="write-flat-pen" fill="#000000" stroke-width="1.6" __comx="742.428" __comy="233.984" __timestamp="0x1818e97bde5" d="M736.711 232.023 l0.64 1.885 0.597 1.809 0.871 1.95 0.977 1.724 1.092 1.356 1.325 0.942 1.293 0.512 1.186 0.053 1.054 -0.031 1.015 -0.424 0.674 -1.115 0.71 -1.311 -0.241 -0.169 -0.98 1.106 -0.721 0.717 -0.633 0.149 -0.848 -0.031 -0.969 -0.061 -0.989 -0.404 -1.083 -0.776 -0.936 -1.163 -0.924 -1.597 -0.903 -1.829 -0.671 -1.741 -0.787 -1.841" />
    <path class="write-flat-pen" fill="#000000" stroke-width="1.6" __comx="741.494" __comy="233.984" __timestamp="0x1818e97be82" d="M750.012 227.655 l-0.551 -0.075 -0.328 -0.046 -0.438 0.647 -0.525 1.207 -1.121 1.953 -1.689 2.425 -2.073 2.548 -2.27 2.498 -2.268 2.329 -2.063 1.92 -1.643 1.278 -1.102 0.575 -0.064 0.063 -0.219 -0.296 -0.461 0 -0.219 1.195 1.203 0.063 1.433 -0.685 1.779 -1.357 2.12 -1.974 2.296 -2.367 2.294 -2.542 2.11 -2.606 1.733 -2.5 1.16 -2.056 0.489 -1.198 0.069 -0.155 -0.201 -0.046 0.551 -0.075" />
    <path class="write-flat-pen" fill="#000000" stroke-width="1.6" __comx="776.936" __comy="233.984" __timestamp="0x1818e97bf7b" d="M773.7 198.436 l1.09 0.036 0.678 0.379 1.189 0.766 1.335 1.38 1.13 2.269 0.975 3.621 0.553 5.015 -0.003 6.708 -0.377 8.064 -1.928 8.92 -2.782 9.423 -3.599 9.535 0.819 0.319 3.819 -9.495 2.923 -9.475 2.002 -9.062 0.384 -8.2 -0.003 -6.807 -0.588 -5.178 -1.053 -3.824 -1.278 -2.541 -1.58 -1.598 -1.346 -0.838 -0.97 -0.538 -1.39 0.036" />
    <path class="write-flat-pen" fill="#000000" stroke-width="1.6" __comx="191.048" __comy="333.782" __timestamp="0x1818e987477" d="M179.755 339.555 l-0.299 -0.674 -0.269 0.943 0.681 -0.053 0.966 -0.28 1.193 -0.259 1.26 -0.046 1.24 0.006 1.145 0.055 0.971 0.606 0.821 0.944 0.621 1.339 0.344 1.575 -0.001 1.873 0 1.996 -0.353 1.806 -0.777 1.726 -0.866 1.454 -0.741 1.227 -0.663 0.871 -0.476 0.552 -0.309 0.557 -0.006 0.915 0.747 0.008 1.163 0.008 1.935 -0.117 2.318 -0.657 2.504 -0.929 2.487 -0.981 2.283 -0.984 2.055 -0.868 1.727 -0.615 1.916 -0.735 -0.268 -0.888 -2.015 0.449 -1.822 0.53 -2.128 0.85 -2.281 0.963 -2.456 0.966 -2.44 0.903 -2.119 0.603 -1.741 0.112 -1.119 0.008 0.62 0.008 -0.006 0.801 0.071 -0.13 0.411 -0.478 0.732 -0.961 0.78 -1.293 0.908 -1.524 0.871 -1.939 0.407 -2.088 0 -2.127 -0.001 -2.021 -0.416 -1.861 -0.773 -1.639 -1.08 -1.232 -1.437 -0.883 -1.517 -0.06 -1.296 0.006 -1.402 0.069 -1.343 0.314 -0.935 0.293 -0.587 0.176 -0.269 0.943 0.701 0.229" />
    <path class="write-flat-pen" fill="#000000" stroke-width="1.6" __comx="200.944" __comy="333.782" __timestamp="0x1818e9875bb" d="M200.755 315.202 l-0.622 -0.042 -0.257 -0.028 -0.402 0.297 -0.109 1.041 -0.015 1.34 -0.019 1.833 -0.018 2.115 0.377 2.27 0.248 2.201 0.125 1.935 0.126 1.714 0.068 1.242 0.2 0.923 0.634 0.391 0.562 -0.095 0.92 -0.211 0 -0.573 -0.92 -0.211 -0.198 -0.095 0.126 0.047 -0.053 -0.336 -0.059 -1.163 -0.127 -1.722 -0.128 -1.96 -0.259 -2.266 -0.384 -2.197 -0.018 -2.008 -0.019 -1.833 -0.015 -1.294 0.018 -0.563 -0.275 0.183 -0.13 -0.028 0.622 -0.042" />
    <path class="write-flat-pen" fill="#000000" stroke-width="1.6" __comx="211.636" __comy="333.782" __timestamp="0x1818e9876f5" d="M211.38 312.347 l-0.149 1.258 -0.481 1.667 -0.534 2.132 -0.526 2.703 -0.537 2.778 -0.214 2.575 -0.008 2.257 -0.004 1.621 0.33 1.414 1.077 0.709 1.019 0 1.369 0 1.27 -1.016 1.171 -1.068 1.056 -1.143 0.763 -1.07 0.328 -0.814 0.003 -1.101 -1.332 -0.007 -1.622 -0.007 -2.055 0.235 -2.087 0.587 -1.831 0.57 -1.393 0.36 -1.028 0.58 0.09 1.097 1.093 0 0.09 -0.34 0.239 -0.108 1.269 -0.328 1.845 -0.576 1.969 -0.558 1.875 -0.223 1.547 -0.007 0.062 -0.007 0.003 -0.414 -0.179 0.446 -0.631 0.877 -0.972 1.033 -1.11 0.994 -0.885 0.703 -0.913 0 -0.629 0 -0.317 -0.208 -0.178 -0.762 -0.004 -1.471 -0.008 -2.209 0.166 -2.464 0.477 -2.719 0.488 -2.68 0.48 -2.106 0.406 -1.769 0.043 -1.357" />
    <path class="write-flat-pen" fill="#000000" stroke-width="1.6" __comx="239.785" __comy="333.782" __timestamp="0x1818e987d5f" d="M234.26 325.251 l0.152 1.47 0.485 1.876 0.49 2.749 0.245 3.557 0.062 3.987 -0.001 4.004 -0.001 3.722 0 3.035 -0.001 2.405 0 1.758 -0.061 1.083 -0.113 0.563 0.07 -0.257 1.053 -0.001 0.003 0.119 -0.001 -0.859 -0.005 -1.109 0.101 -0.886 0.509 -0.695 0.674 -0.714 0.864 -0.521 1.033 -0.55 1.053 -0.425 1.105 -0.211 0.956 -0.056 0.807 -0.001 0.301 0 -0.009 -0.012 0.045 0.566 -0.006 0.999 -0.221 1.032 -0.806 1.295 -1.091 1.254 -1.231 1.161 -1.219 0.987 -1.163 0.717 -0.83 0.481 -0.474 0.171 -0.205 0.001 0.507 0.006 -0.072 0.463 0.312 -0.608 0.982 -1.218 -0.391 -0.406 -1.325 1.005 -0.702 0.881 -0.072 1.15 0.76 0.006 0.429 0.001 0.793 -0.287 0.944 -0.549 1.246 -0.772 1.317 -1.074 1.304 -1.244 1.191 -1.38 0.968 -1.569 0.286 -1.373 -0.006 -1.177 -0.082 -1.038 -0.643 -0.699 -0.84 0 -0.841 -0.001 -1.072 0.058 -1.304 0.247 -1.228 0.491 -1.122 0.595 -1.038 0.624 -0.847 0.889 -0.758 1.023 -0.152 1.29 -0.005 1.182 -0.001 0.859 0.003 1.15 1.18 -0.001 0.197 -0.716 0.14 -0.697 0.066 -1.208 0 -1.793 -0.001 -2.405 0 -3.035 -0.001 -3.722 -0.001 -4.014 -0.065 -4.031 -0.262 -3.658 -0.524 -2.864 -0.529 -1.904 -0.544 -1.361" />
    <path class="write-flat-pen" fill="#000000" stroke-width="1.6" __comx="257.338" __comy="355.325" __timestamp="0x1818e988121" d="M252.563 350.504 l-0.133 -0.734 0.027 -0.443 -0.008 -0.349 0.043 -0.129 0.029 -0.657 -1.178 -0.03 -0.028 0.916 -0.002 1.071 0.193 1.473 0.251 1.824 0.187 1.827 0.193 1.63 0.261 1.357 0.209 0.819 0.268 0.563 0.392 0.349 0.359 -0.007 0.648 -0.014 0.395 -1.002 0.383 -0.992 0.39 -1.177 0.313 -1.188 0.347 -0.882 0.419 -0.611 0.152 -0.109 0.186 0.005 0.06 0.002 0.218 0.344 0.336 1.249 0.241 1.875 0.062 2.366 0.001 2.741 -0.001 2.837 -0.249 2.865 -0.495 2.629 -0.677 2.224 -0.73 1.649 -0.683 1.131 -0.692 0.536 -0.564 0.126 -0.358 -0.002 -0.1 -0.08 -0.13 -0.635 0 -1.025 0.001 -1.079 0.433 -1.028 0.828 -1.175 1.119 -1.236 1.195 -1.366 1.447 -1.49 1.525 -1.688 1.361 -1.701 1.248 -1.612 1.107 -1.62 -0.314 -0.272 -1.446 1.328 -1.414 1.48 -1.427 1.621 -1.517 1.634 -1.468 1.488 -1.213 1.382 -1.163 1.284 -0.947 1.344 -0.581 1.378 0.001 1.326 0 1.151 0.251 1.198 0.787 0.608 0.909 -0.002 0.957 -0.218 1.083 -0.838 0.839 -1.389 0.791 -1.787 0.717 -2.357 0.519 -2.754 0.258 -2.977 -0.001 -2.89 0.001 -2.757 -0.065 -2.444 -0.266 -2.02 -0.424 -1.5 -0.67 -1.03 -0.701 0.002 -0.574 0.005 -0.609 0.463 -0.595 0.878 -0.414 1.066 -0.321 1.217 -0.371 1.114 -0.378 0.956 -0.112 0.258 0.141 -0.014 0.106 -0.007 0.138 0.12 -0.112 -0.239 -0.171 -0.67 -0.246 -1.278 -0.187 -1.577 -0.193 -1.838 -0.256 -1.841 -0.187 -1.39 -0.002 -0.991 -0.028 0.229 -1.051 -0.03 0.029 -0.428 0.043 0.215 0.119 0.339 0.027 0.473 0.291 0.8" />
    <path class="write-flat-pen" fill="#000000" stroke-width="1.6" __comx="265.8" __comy="355.325" __timestamp="0x1818e9881d3" d="M261.794 354.612 l-0.815 -0.189 -0.19 -0.029 -0.682 -0.03 -0.038 1.206 1.164 0.011 1.153 0.014 1.578 -0.053 1.698 -0.675 1.686 -0.769 1.433 -0.845 1.091 -0.792 0.841 -0.695 0.412 -0.522 0.407 -0.538 -0.451 -0.499 -0.599 0.371 -0.475 0.395 -0.807 0.565 -1.064 0.697 -1.356 0.758 -1.61 0.72 -1.471 0.585 -1.338 0.062 -1.129 0.014 0.023 0.011 -0.038 1.092 -0.429 -0.03 0.19 -0.029 0.815 -0.189" />
    <path class="write-flat-pen" fill="#000000" stroke-width="1.6" __comx="270.208" __comy="355.325" __timestamp="0x1818e9882a5" d="M267.786 346.344 l-0.809 -0.19 -0.078 0.95 0.081 1.082 0.219 1.377 0.163 1.621 0.045 1.695 0.053 1.764 -0.004 1.565 0.129 1.357 0.136 1.043 0.24 0.724 0.372 0.5 0.561 0.396 0.642 -0.018 0.634 -0.067 0.887 -0.073 1.014 -0.096 1.447 -0.117 0 -0.485 -1.447 -0.117 -1.014 -0.096 -0.887 -0.073 -0.634 -0.067 -0.245 -0.018 -0.073 -0.062 -0.135 -0.187 -0.14 -0.422 -0.118 -0.904 -0.124 -1.277 -0.004 -1.527 -0.074 -1.786 -0.082 -1.741 -0.217 -1.7 -0.288 -1.371 -0.173 -0.979 -0.078 -0.081 0 -0.19" />
    <path class="write-flat-pen" fill="#000000" stroke-width="1.6" __comx="286.919" __comy="355.325" __timestamp="0x1818e9883d1" d="M276.204 358.79 l0.858 -0.269 0.622 -0.197 0.655 -0.268 0.735 -0.234 0.829 -0.44 0.988 -0.622 1.129 -0.83 1.181 -1.182 1.29 -1.395 1.228 -1.514 1.102 -1.522 0.846 -1.41 0.615 -1.172 0.221 -0.998 0.002 -0.751 0.002 -0.746 -0.629 -0.69 -1.08 -0.08 -0.959 -0.01 -1.109 0.426 -1.152 1.097 -1.027 1.469 -0.809 1.794 -0.673 1.954 -0.415 2.038 -0.08 1.84 -0.011 1.501 -0.009 1.518 1.207 1.095 1.412 0.606 1.792 0.187 2.03 -0.007 2.261 -0.197 2.237 -0.738 2.016 -0.788 2.064 -0.774 2.159 -1.078 -0.204 -0.538 -2.309 0.615 -2.119 0.6 -2.04 0.701 -2.073 0.636 -2.049 0.147 -1.9 -0.007 -1.504 -0.157 -0.996 -0.425 -0.567 -0.508 -0.009 -0.887 -0.011 -1.477 0.046 -1.71 0.345 -1.856 0.594 -1.826 0.712 -1.642 0.874 -1.28 0.876 -0.85 0.666 -0.261 0.689 -0.01 0.568 0.034 0.004 -0.003 0.002 0.285 0.002 0.623 -0.159 0.72 -0.526 1.004 -0.802 1.338 -1.053 1.456 -1.181 1.464 -1.246 1.354 -1.101 1.109 -1.026 0.773 -0.913 0.637 -0.692 0.477 -0.66 0.339 -0.613 0.419 -0.518 0.376 -0.734 0.516" />
    <path class="write-flat-pen" fill="#000000" stroke-width="1.6" __comx="336.017" __comy="331.635" __timestamp="0x1818e98aca1" d="M364.274 324.151 l-0.582 0.086 -0.484 -0.009 -0.014 0.23 0.088 -0.1 -0.279 0.082 -0.601 0.28 -0.93 0.446 -1.261 0.867 -1.558 1.33 -2.064 2.024 -2.631 3.175 -3.066 4.26 -3.625 5.795 -4.122 6.639 -4.622 7.265 -5.06 7.487 -5.373 7.203 -5.372 6.801 -5.104 5.772 -4.459 4.47 -3.142 2.855 -2.359 1.274 0.138 0.313 2.645 -0.926 3.323 -2.872 4.541 -4.464 5.164 -5.796 5.403 -6.829 5.401 -7.228 5.081 -7.517 4.632 -7.281 4.118 -6.647 3.6 -5.772 3.018 -4.216 2.566 -3.125 1.992 -1.985 1.484 -1.305 1.148 -0.851 0.845 -0.47 0.54 -0.293 0.355 -0.147 0.214 -0.215 -0.014 0.115 -0.103 -0.009 0.63 -0.133" />
    <path class="write-flat-pen" fill="#000000" stroke-width="1.6" __comx="378.089" __comy="347.574" __timestamp="0x1818e98d33d" d="M371.003 343.295 l-0.104 -0.631 0.002 -0.37 0.025 -0.458 0.021 -0.401 0.019 -0.573 0.018 -0.418 0.204 -0.374 0.335 -0.388 0.393 -0.344 0.488 -0.283 0.507 -0.141 0.653 -0.143 0.575 -0.032 0.674 0.007 0.634 0.003 0.508 0.126 0.491 0.449 0.51 0.723 0.528 1.068 0.419 1.416 0.302 1.707 0.062 1.957 0.002 2.053 0.002 2.02 -0.3 1.919 -0.606 1.825 -0.794 1.776 -0.93 1.458 -0.745 1.178 -0.663 0.817 -0.382 0.392 -0.008 0 0.083 -0.006 0 1.068 0.063 0.003 0.801 0 1.174 -0.174 1.386 -0.171 1.455 -0.175 1.532 -0.182 1.421 -0.246 1.31 -0.32 1.12 -0.47 0.981 -0.628 0.861 -1.147 -0.184 -0.19 -1.104 0.755 -0.921 0.403 -1.035 0.332 -1.226 0.253 -1.368 0.212 -1.51 0.162 -1.461 0.169 -1.403 0.173 -1.108 0.169 -0.72 0 -0.063 0.003 0 1.068 0.21 -0.006 0.372 -0.229 0.506 -0.525 0.731 -0.901 0.776 -1.228 0.971 -1.52 0.854 -1.889 0.661 -1.955 0.334 -2.089 0.002 -2.104 0.002 -2.07 -0.065 -2.052 -0.332 -1.843 -0.468 -1.562 -0.613 -1.222 -0.631 -0.88 -0.777 -0.696 -0.887 -0.218 -0.761 0.003 -0.72 0.007 -0.692 0.083 -0.741 0.201 -0.634 0.203 -0.653 0.404 -0.495 0.457 -0.426 0.529 -0.303 0.657 0.018 0.612 0.019 0.573 0.021 0.401 0.025 0.458 0.002 0.431 0.139 0.686" />
    <path class="write-flat-pen" fill="#000000" stroke-width="1.6" __comx="393.391" __comy="347.574" __timestamp="0x1818e98d518" d="M388.564 325.428 l0.05 -0.486 -0.728 0 -0.129 0.172 -0.007 0.744 -0.004 0.974 0 0.802 0 0.573 0.007 0.229 0.018 0.057 0.8 0.355 0.135 -0.219 0.373 -0.741 0.2 -0.833 0.254 -0.786 0.261 -0.799 0.253 -0.766 0.306 -0.57 0.427 -0.621 0.586 -0.613 0.681 -0.481 0.699 -0.553 0.709 -0.467 0.714 -0.314 0.613 -0.244 0.591 -0.038 0.548 0.014 0.265 0.007 0.245 0.257 0.382 1.049 0.355 1.64 0.178 2.341 -0.004 2.954 -0.004 3.379 0 3.436 0.001 3.135 -0.125 2.567 -0.057 1.962 0.024 1.348 0.15 1.108 1.265 0.765 0.442 -0.598 -0.727 -0.708 0.023 -0.61 0.024 -1.286 0.07 -1.932 0.129 -2.587 0.001 -3.165 0 -3.436 -0.004 -3.379 -0.004 -3.002 -0.202 -2.47 -0.405 -1.796 -0.505 -1.356 -0.769 -0.774 -0.749 0.007 -0.593 0.014 -0.804 0.077 -0.782 0.328 -0.808 0.373 -0.812 0.564 -0.696 0.592 -0.713 0.55 -0.682 0.761 -0.46 0.754 -0.328 0.69 -0.254 0.838 -0.246 0.804 -0.253 0.818 -0.181 0.77 -0.261 0.519 -0.119 0.01 0.8 0.355 0.018 -0.057 0.007 -0.229 0 -0.573 0 -0.802 -0.004 -0.974 -0.007 -0.744 -0.129 -0.172 -0.728 0 0.05 0.486" />
    <path class="write-flat-pen" fill="#000000" stroke-width="1.6" __comx="437.908" __comy="347.574" __timestamp="0x1818e98d678" d="M433.987 351.809 l0.658 0.052 0.254 0.016 0.444 0.007 0.601 0.004 0.91 0.11 1.145 0.172 1.081 0.107 1.21 0.129 1.464 0.024 0.077 -0.728 -1.419 -0.283 -1.199 -0.215 -1.074 -0.122 -1.137 -0.171 -0.992 -0.119 -0.667 0.004 -0.444 0.007 -0.254 0.016 -0.658 0.052" />
    <path class="write-flat-pen" fill="#000000" stroke-width="1.6" __comx="442.331" __comy="347.574" __timestamp="0x1818e98d70e" d="M436.554 358.247 l0.826 0.224 0.863 0.181 1.267 0.059 1.76 -0.001 2.128 -0.259 2.45 -0.959 2.258 -1.271 -0.084 -0.223 -2.528 0.531 -2.367 0.759 -1.928 0.199 -1.662 -0.001 -1.141 -0.056 -0.785 -0.162 -0.868 -0.082" />
    <path class="write-flat-pen" fill="#000000" stroke-width="1.6" __comx="488.4" __comy="347.574" __timestamp="0x1818e98d922" d="M480.369 350.23 l-0.856 -0.703 0 -0.106 -0.179 -0.325 0.053 0.048 0.002 0.136 0.006 0.516 -0.066 0.028 0.95 0.003 1.229 0.268 1.39 0.497 1.252 0.6 1.025 0.728 0.65 0.793 0.423 0.918 0.112 1.121 -0.003 1.386 -0.062 1.335 -0.624 1.226 -0.671 1.098 -0.505 0.682 -0.374 0.578 -0.003 0.477 -0.002 0.71 1.201 0.395 1.425 0.245 1.958 0.055 2.237 -0.017 2.376 -0.578 2.486 -0.953 2.753 -1.261 -0.261 -0.663 -2.854 0.947 -2.457 0.765 -2.187 0.453 -2.073 -0.017 -1.845 -0.059 -1.237 -0.213 -0.194 -0.063 -0.002 0.252 -0.003 -0.095 0.133 -0.223 0.509 -0.693 0.724 -1.192 0.77 -1.523 0.065 -1.643 -0.003 -1.477 -0.141 -1.399 -0.591 -1.258 -0.871 -1.04 -1.256 -0.875 -1.41 -0.66 -1.526 -0.533 -1.433 -0.304 -1.078 0.003 -1.08 0.028 0.006 0.631 0.002 0.365 0.18 0.162 -0.052 -0.096 0 0.352 1.279 1.033" />
    <path class="write-flat-pen" fill="#000000" stroke-width="1.6" __comx="507.723" __comy="347.574" __timestamp="0x1818e98dad6" d="M513.189 335.349 l-0.266 -2.03 0.025 -1.286 -0.057 -1.552 -0.387 -1.484 -0.382 -1.467 -0.527 -1.273 -0.653 -1.104 -0.729 -0.949 -0.807 -0.699 -0.881 -0.63 -0.852 -0.401 -0.978 -0.264 -1.092 -0.138 -0.923 -0.005 -0.824 -0.001 -0.57 0 -0.502 -0.003 -0.526 0.472 -0.001 0.345 0 0.706 1.029 -0.006 0.951 0 1.331 -0.004 1.36 -0.006 1.284 -0.127 1.049 -0.056 0.693 0 0.515 0.326 0.575 1.248 0.344 2.097 -0.014 3.038 -0.015 3.599 -0.82 4.108 -0.896 4.138 -0.578 3.888 -0.192 3.086 0.008 2.255 0.018 1.68 0.967 1.071 1.34 0.574 1.701 -0.209 0 -0.733 -1.44 -0.209 -0.815 -0.457 -0.428 -0.533 0.018 -1.184 0.008 -2.212 0.188 -2.984 0.563 -3.786 0.879 -4.108 0.828 -4.253 -0.015 -3.731 -0.014 -3.147 -0.416 -2.37 -0.82 -1.73 -1.133 -0.705 -1.082 0 -1.105 0.058 -1.252 0.102 -1.302 -0.006 -1.331 -0.004 -0.951 0 0.268 -0.006 0 0.591 -0.001 0.23 -0.272 0.243 0.005 -0.003 0.57 0 0.824 -0.001 0.851 -0.005 0.937 0.091 0.797 0.194 0.669 0.286 0.767 0.516 0.714 0.561 0.666 0.769 0.615 0.957 0.487 1.132 0.379 1.396 0.374 1.379 0.07 1.426 0.025 1.348 0.491 2.072" />
    <path class="write-flat-pen" fill="#000000" stroke-width="1.6" __comx="504.683" __comy="324.613" __timestamp="0x1818e990045" d="M509.12 331.496 l-0.134 -0.396 -0.023 -0.237 -0.037 -0.162 0.04 -0.067 0.051 -0.128 0.059 -0.146 0.02 -0.322 0.012 -0.802 0.002 -1.145 0.005 -1.175 0.126 -1.275 0.193 -1.258 0.134 -1.287 0.068 -1.231 0.005 -0.989 0.008 -0.859 0.009 -0.671 -0.092 -0.72 -0.555 -0.517 -0.476 -0.385 -0.456 -0.304 -0.571 -0.393 -0.66 -0.226 -0.676 -0.07 -0.73 -0.003 -0.937 0 -1.109 0.644 -1.053 1.015 -0.941 1.336 -0.845 1.467 -0.716 1.35 -0.446 1.037 -0.282 0.563 -0.222 0.301 0.005 0.982 1.222 -0.012 1.077 -0.003 1.472 -0.007 1.594 -0.757 1.695 -0.887 1.495 -1.057 1.269 -0.916 0.896 -0.635 0.398 -0.303 0.06 -0.026 -0.888 -0.573 -0.027 0.057 -0.004 0.948 -0.13 1.603 -0.382 2.166 -0.262 2.454 -0.067 2.431 -0.065 2.242 -0.001 2.186 -0.001 2.176 0 1.947 0.005 1.603 0.007 1.207 0.167 0.829 0.437 0.803 1.167 -0.138 0 -0.935 -0.402 -0.138 0.056 0.001 -0.087 -0.545 0.007 -1.084 0.005 -1.603 0 -1.947 -0.001 -2.176 -0.001 -2.167 0.061 -2.224 0.06 -2.379 0.245 -2.356 0.378 -2.186 0.123 -1.719 -0.004 -0.999 -0.027 -0.057 -0.888 -0.573 -0.194 0.089 -0.489 0.384 -0.879 0.625 -1.267 0.917 -1.421 1.005 -1.601 0.831 -1.321 0.617 -1.19 -0.007 -1.077 -0.003 0.081 -0.012 0.005 0.753 0.032 -0.043 0.351 -0.697 0.441 -1.025 0.679 -1.284 0.803 -1.396 0.834 -1.184 0.848 -0.818 0.666 -0.387 0.584 0 0.664 -0.003 0.464 0.044 0.354 0.118 0.443 0.294 0.431 0.269 0.411 0.302 0.206 0.17 0.034 0.196 0.009 0.588 0.008 0.859 0.005 0.958 -0.059 1.174 -0.119 1.233 -0.187 1.261 -0.128 1.36 0.005 1.23 0.002 1.145 0.012 0.802 0.02 0.594 0.186 0.083 0.051 0.101 0.167 0.162 0.09 0.067 0.103 0.222 0.348 0.331" />
    <path class="write-flat-pen" fill="#000000" stroke-width="1.6" __comx="509.856" __comy="370.836" __timestamp="0x1818e993941" d="M484.529 380.943 l-0.55 -0.134 -0.276 -0.033 -0.063 -0.046 0.351 -0.081 0.127 0.242 0.009 -0.115 0.007 -0.355 0.782 -0.848 1.744 -1.515 2.568 -2.032 3.196 -2.034 3.64 -2.039 4.208 -1.872 4.676 -1.77 4.94 -1.888 5.074 -1.834 4.772 -1.9 4.393 -1.96 3.819 -1.901 3.242 -1.728 2.487 -1.387 1.635 -1.036 0.744 -0.411 -0.259 -0.071 0.116 0.055 0.666 0 0.116 -0.954 -0.892 -0.071 -1.031 0.505 -1.661 1.026 -2.457 1.361 -3.223 1.708 -3.786 1.879 -4.353 1.934 -4.735 1.88 -5.067 1.831 -4.948 1.891 -4.705 1.781 -4.285 1.908 -3.712 2.085 -3.268 2.089 -2.629 2.091 -1.805 1.577 -1.119 1.213 0.007 0.791 0.009 0.115 0.127 0.586 0.477 -0.081 0.063 -0.046 0.231 -0.033 0.517 0.059" />
    <path class="write-flat-pen" fill="#000000" stroke-width="1.6" __comx="525.718" __comy="370.836" __timestamp="0x1818e993aa1" d="M511.878 380.956 l0.045 -0.465 0.008 -0.039 0.124 -0.16 0.555 -0.277 0.806 -0.361 0.905 -0.289 1.093 -0.198 1.239 -0.149 1.422 -0.097 1.373 0.006 1.204 0.005 0.837 0.004 0.266 0.05 0.107 0.289 0 1.044 -0.002 1.514 -0.181 1.58 -0.488 1.657 -0.435 1.243 -0.326 0.885 -0.118 0.473 -0.098 0.176 -0.002 0.628 0.573 0.26 1.2 0.002 1.727 0.004 2.233 -0.119 2.546 -0.712 2.742 -0.935 2.848 -1.071 3.038 -1.223 3.195 -1.704 -0.254 -0.529 -3.292 1.414 -3.047 1.067 -2.856 0.991 -2.709 0.897 -2.398 0.662 -2.077 0.11 -1.696 0.004 -0.955 0.002 0.319 0.146 -0.002 0.399 0.028 -0.053 0.136 -0.558 0.307 -0.833 0.452 -1.277 0.526 -1.779 0.199 -1.742 -0.002 -1.579 0 -1.246 -0.4 -1.085 -1.002 -0.179 -0.938 0.004 -1.204 0.005 -1.416 0.006 -1.493 0.132 -1.296 0.194 -1.189 0.26 -0.996 0.398 -0.842 0.441 -0.712 0.41 -0.383 0.527 0.008 0.305 0.045 0.465" />
    <path class="write-flat-pen" fill="#000000" stroke-width="1.6" __comx="570.803" __comy="370.836" __timestamp="0x1818e993bb0" d="M565.808 364.57 l-1.068 -0.19 -0.05 1.232 1.027 0 0.761 0.004 1.196 -0.001 1.606 -0.301 1.551 -0.467 1.514 -0.456 1.467 -0.411 1.3 -0.518 0.932 -0.332 0.87 -0.304 -0.024 -0.312 -0.964 -0.166 -1.096 0.126 -1.362 0.398 -1.449 0.39 -1.528 0.46 -1.491 0.449 -1.436 0.271 -1.086 -0.001 -0.761 0.004 0.14 0 -0.05 1.003 0 -0.19" />
    <path class="write-flat-pen" fill="#000000" stroke-width="1.6" __comx="576.596" __comy="370.836" __timestamp="0x1818e993c37" d="M574.009 369.688 l-1.116 -0.063 -0.025 0.73 -0.002 0.516 0.738 0.571 1.069 0.414 1.323 -0.034 1.795 -0.119 2.535 -0.979 -0.282 -0.792 -2.439 0.792 -1.628 -0.004 -1.086 -0.034 -0.706 -0.273 -0.149 -0.116 -0.002 0.058 -0.025 0.386 0 -0.063" />
    <path class="write-flat-pen" fill="#000000" stroke-width="1.6" __comx="615.36" __comy="370.836" __timestamp="0x1818e993da5" d="M603.736 361.773 l0.397 0.063 0.29 0.287 0.681 0.744 0.897 0.874 0.902 0.872 0.685 0.98 0.454 1.026 0.287 1.235 0.002 1.526 0.002 1.647 -0.058 1.421 -0.443 1.154 -0.522 0.839 -0.353 0.478 -0.148 0.176 -0.254 0.224 -0.007 0.539 0.216 0.593 1.187 0.414 1.508 0.25 2.211 0 2.587 -0.007 3.15 -0.494 3.215 -1.15 3.245 -1.233 3.119 -1.836 -0.332 -0.636 -3.222 1.474 -3.22 1.058 -3.123 1.026 -2.935 0.422 -2.484 -0.007 -2.099 0 -1.28 -0.208 -0.461 -0.159 0.09 0.249 -0.007 0.31 -0.127 0.11 0.233 -0.282 0.408 -0.552 0.618 -0.993 0.571 -1.48 0.069 -1.671 0.002 -1.675 0.002 -1.681 -0.347 -1.513 -0.56 -1.265 -0.836 -1.197 -0.999 -0.96 -0.878 -0.844 -0.713 -0.745 -0.725 -0.629 -0.893 0.063" />
    <path class="write-flat-pen" fill="#000000" stroke-width="1.6" __comx="635.921" __comy="338.777" __timestamp="0x1818e993f67" d="M633.935 348.654 l0.05 -1.024 -0.036 -0.445 -0.249 -0.723 -0.275 -1.009 -0.35 -1.508 -0.299 -1.972 -0.311 -2.411 -0.442 -2.591 -0.446 -2.533 -0.526 -2.41 -0.802 -2.032 -0.957 -1.724 -1.223 -1.166 -1.264 -0.599 -1.091 -0.127 -0.956 0 -0.977 0.526 -0.562 1.446 -0.14 1.777 -0.007 2.063 0.26 2.482 1.134 2.596 1.619 2.633 1.927 2.724 2.036 2.522 1.747 2.362 1.213 2.132 0.527 1.845 0.003 1.686 0.001 1.448 -0.424 0.809 -0.766 0.519 -0.889 0.138 -0.993 -0.003 -0.769 -0.622 -0.57 -1.391 0.017 -2.085 0.122 -2.571 1.48 -2.621 2.032 -2.621 2.363 -2.361 2.436 -2.149 2.453 -1.881 2.265 -1.775 2.25 -1.619 2.201 -1.63 2.024 -2.125 -0.442 -0.489 -2.267 1.753 -2.236 1.462 -2.314 1.588 -2.298 1.776 -2.491 1.898 -2.507 2.203 -2.454 2.45 -2.151 2.762 -1.689 2.991 -0.131 2.927 0.017 2.382 0.824 1.931 1.386 1.096 1.542 -0.003 1.265 -0.206 1.262 -0.855 0.717 -1.367 0.001 -1.759 0.003 -1.864 -0.614 -2.164 -1.323 -2.334 -1.803 -2.449 -2.02 -2.517 -1.876 -2.659 -1.55 -2.521 -1.021 -2.329 -0.247 -2.214 -0.007 -1.946 0.114 -1.544 0.325 -0.845 0.291 -0.161 0.565 0 0.81 0.102 0.891 0.432 0.932 0.896 0.818 1.483 0.72 1.862 0.488 2.286 0.441 2.506 0.445 2.563 0.323 2.4 0.334 2.037 0.411 1.584 0.359 1.053 0.258 0.651 0.091 0.242 0.05 0.931" />
    <path class="write-flat-pen" fill="#000000" stroke-width="1.6" __comx="253.871" __comy="431.898" __timestamp="0x1818e9a6edb" d="M245.362 431.249 l0.458 -0.56 0.064 -0.115 0.102 -0.057 0.007 0.359 0.138 -0.041 0.992 -0.155 1.336 -0.108 1.364 0.001 1.331 0.001 1.031 0 0.722 0.218 0.452 0.335 0.23 0.45 0.051 0.853 -0.002 1.297 -0.231 1.551 -0.759 1.581 -0.997 1.631 -0.827 1.38 -0.558 0.952 -0.322 0.466 -0.082 0.147 0.659 1.117 0.57 0 1.051 0.001 1.405 -0.38 1.52 -0.597 1.499 -0.708 1.625 -0.885 1.546 -1.008 1.332 -0.966 1.218 -1.06 0.927 -1.736 -0.453 -0.342 -1.317 1.238 -1.19 0.773 -1.33 0.867 -1.496 0.94 -1.544 0.833 -1.416 0.667 -1.396 0.548 -1.131 0.308 -0.85 0.001 -0.57 0 0.659 1.117 0.045 -0.082 0.312 -0.451 0.583 -0.995 0.82 -1.369 1.032 -1.691 0.889 -1.855 0.276 -1.885 -0.002 -1.452 -0.075 -1.209 -0.531 -1.039 -0.943 -0.696 -1.18 -0.355 -1.25 0 -1.331 0.001 -1.425 0.001 -1.453 0.121 -1.163 0.188 -1.256 0.417 0.007 0.703 0.102 0.057 0.064 0.115 0.458 0.56" />
    <path class="write-flat-pen" fill="#000000" stroke-width="1.6" __comx="270.276" __comy="434.733" __timestamp="0x1818e9a7ca7" d="M268.622 424.808 l0.229 -0.519 0.08 -0.714 -1.046 -0.159 -0.519 0.696 -0.62 1.173 -0.592 1.481 -0.598 1.68 -0.277 1.619 -0.001 1.438 0.229 1.593 1.273 1.489 1.5 1.17 1.814 1.032 1.912 0.715 1.821 0.588 1.472 0.347 0.958 0.27 0.194 0.078 -0.018 -0.06 0.003 0.463 -0.383 0.871 -1.306 1.335 -1.915 1.302 -2.178 1.044 -2.088 0.652 -1.851 0.174 -1.491 0.023 -0.942 -0.112 -0.59 -0.979 -0.448 -2.069 -0.507 0.033 -0.161 2.332 0.804 1.884 1.72 0.346 1.678 0.023 2.078 -0.169 2.349 -0.722 2.385 -1.132 2.142 -1.447 1.609 -1.643 0.631 -1.42 0.003 -1.026 -0.272 -0.862 -0.947 -0.381 -1.07 -0.302 -1.444 -0.34 -1.728 -0.558 -1.764 -0.659 -1.609 -0.915 -1.289 -1.006 -0.882 -1.031 -0.151 -1.041 -0.001 -1.197 0.23 -1.359 0.543 -1.527 0.548 -1.382 0.521 -1.003 -0.012 0.009 -0.919 -0.159 0.08 -0.485 0.229 0.519" />
    <path class="write-flat-pen" fill="#000000" stroke-width="1.6" __comx="273.818" __comy="434.733" __timestamp="0x1818e9a7d28" d="M266.253 430.755 l0.905 -0.133 0.52 -0.222 0.737 -0.292 1.377 -0.494 1.804 -0.671 2.156 -0.557 2.396 -0.448 2.467 -0.149 3.019 -0.131 0 -1.126 -3.051 -0.131 -2.603 0.081 -2.548 0.468 -2.281 0.589 -1.872 0.703 -1.412 0.537 -0.784 0.396 -0.368 0.237 -0.715 0.232" />
    <path class="write-flat-pen" fill="#000000" stroke-width="1.6" __comx="292.231" __comy="434.733" __timestamp="0x1818e9a7dde" d="M287.751 434.873 l-1.318 -0.19 -0.029 1.576 1.132 0.02 0.812 0.012 1.324 -0.187 1.717 -0.595 1.76 -0.625 1.646 -0.517 1.68 -0.365 1.582 -0.727 -0.156 -0.605 -1.684 0.117 -1.742 0.207 -1.777 0.514 -1.789 0.635 -1.579 0.55 -1.084 0.157 -0.709 0.012 0.245 0.02 -0.029 1.118 0 -0.19" />
    <path class="write-flat-pen" fill="#000000" stroke-width="1.6" __comx="315.786" __comy="434.733" __timestamp="0x1818e9a7fa5" d="M313.842 430.531 l0.057 -1.047 0.165 -0.971 0.025 -1.475 0.011 -1.833 0.006 -1.947 0.007 -1.939 -0.278 -2.032 -1.019 -1.649 -1.298 -1.177 -1.567 -0.712 -1.482 -0.323 -1.472 -0.005 -1.488 -0.003 -1.438 0.936 -0.903 1.223 -0.527 1.426 0 1.45 0 1.716 1.243 1.851 1.712 1.726 2.059 1.861 2.277 1.83 2.175 2.021 1.901 2.105 1.382 2.17 0.768 2.076 0.24 1.988 0.001 1.604 -0.392 1.107 -1.065 0.825 -1.564 0.555 -1.838 0.107 -1.687 0 -1.239 -0.449 -0.697 -1.014 -0.102 -1.546 0.002 -1.805 0.967 -2.004 1.638 -2.083 1.981 -2.069 2.377 -2.091 2.508 -2.097 2.879 -2.094 2.935 -1.942 2.921 -1.758 2.918 -1.842 -0.407 -0.756 -3.163 1.429 -3.037 1.678 -3.022 1.952 -2.952 2.144 -2.562 2.141 -2.44 2.147 -2.076 2.169 -1.785 2.27 -1.188 2.463 0.002 2.204 0.151 2.005 1.204 1.735 1.93 0.696 1.989 0 2.091 -0.122 1.986 -0.705 1.597 -1.237 0.622 -1.756 0.001 -1.947 -0.267 -2.25 -0.88 -2.391 -1.533 -2.412 -2.029 -2.247 -2.262 -2.102 -2.286 -1.836 -1.997 -1.804 -1.584 -1.596 -0.912 -1.356 0 -1.262 0 -1.184 0.36 -0.979 0.618 -0.839 0.843 -0.553 1.048 -0.003 1.317 -0.005 1.18 0.249 1.222 0.548 0.983 0.884 0.756 1.215 0.229 1.633 0.007 1.841 0.006 1.947 0.011 1.833 0.025 1.388 -0.089 0.976 0.057 1.129" />
    <path class="write-flat-pen" fill="#000000" stroke-width="1.6" __comx="353.462" __comy="434.733" __timestamp="0x1818e9a811b" d="M350.525 432.264 l-0.685 -0.089 0 1.293 0.063 0.088 0.38 0.002 0.938 0.002 1.385 -0.438 1.312 -0.452 1.275 -0.353 1.133 -0.317 0.757 -0.493 -0.035 -0.383 -0.893 -0.344 -1.275 0.141 -1.387 0.334 -1.35 0.465 -1.15 0.364 -0.71 0.002 -0.38 0.002 -0.063 0.088 0 1.293 0.685 -0.089" />
    <path class="write-flat-pen" fill="#000000" stroke-width="1.6" __comx="356.537" __comy="434.733" __timestamp="0x1818e9a81a4" d="M352.435 438.121 l-1.129 0.441 -0.014 1.607 1.401 0.015 1.238 0 1.94 -0.182 2.622 -0.801 3.29 -1.423 -0.406 -1.041 -3.329 1.16 -2.449 0.688 -1.736 0.162 -1.171 0 0.007 0.015 -0.014 0.691 0.266 -0.19" />
    <path class="write-flat-pen" fill="#000000" stroke-width="1.6" __comx="381.179" __comy="434.733" __timestamp="0x1818e9a8499" d="M380.772 429.029 l0.172 -1.234 -1.518 -0.094 -0.021 1.112 -0.01 1.338 0.121 2.329 0.307 3.094 0.186 3.34 -0.001 3.373 0.128 3.054 0.129 2.544 0.197 1.802 0.147 1.122 0.354 0.89 1.197 -0.069 0.803 -1.787 -0.767 -0.449 -0.787 0.927 0.563 -0.069 0.1 0.203 -0.106 -0.94 -0.184 -1.748 -0.124 -2.495 -0.126 -3.016 -0.001 -3.384 -0.194 -3.417 -0.326 -3.091 -0.133 -2.252 -0.01 -1.297 -0.021 0.31 -1.138 -0.094 0.172 0" />
    <path class="write-flat-pen" fill="#000000" stroke-width="1.6" __comx="394.24" __comy="434.733" __timestamp="0x1818e9a8537" d="M393.623 429.673 l-0.175 1.145 -0.047 1.107 0.041 1.146 -0.007 1.011 0 0.573 0.003 0.994 1.165 -0.063 0.479 -1.548 -0.652 -0.333 -0.615 0.593 1.038 -0.063 0.003 0.421 0 -0.573 -0.007 -1.05 -0.086 -1.145 -0.047 -1.069 -0.175 -1.145" />
    <path class="write-flat-pen" fill="#000000" stroke-width="1.6" __comx="401.048" __comy="434.733" __timestamp="0x1818e9a85e3" d="M394.254 430.642 l1.905 -3.538 0.18 -0.393 0.27 -0.198 0.742 -0.259 1.199 -0.362 1.427 -0.2 1.721 -0.048 1.621 0.007 1.156 0.05 1.023 0.752 0.817 1.433 0.586 2.516 0.117 3.693 -0.002 4.656 -0.377 5.161 -0.693 5.205 -0.421 4.901 -0.109 4.471 1.228 0.061 0.332 -4.43 0.466 -4.835 0.701 -5.218 0.384 -5.261 -0.002 -4.736 -0.136 -3.866 -0.681 -2.867 -1.085 -1.889 -1.639 -1.196 -1.633 -0.065 -1.675 0.007 -1.828 0.067 -1.615 0.258 -1.336 0.439 -1.033 0.428 -0.618 0.719 -0.073 0.638 -1.602 3.56" />
  </g>
</svg>
