<svg class="write-page" color-interpolation="linearRGB" width="928px" height="1660px" xmlns="http://www.w3.org/2000/svg" xmlns:xlink="http://www.w3.org/1999/xlink">
  <g class="write-content write-v3" xruling="0" yruling="40" marginLeft="100" papercolor="#FFFFFF" rulecolor="#9F000023">
    <g class="ruleline write-std-ruling write-scale-down" fill="none" stroke="#000023" stroke-opacity="0.624" stroke-width="1" shape-rendering="crispEdges" vector-effect="non-scaling-stroke">
      <rect class="pagerect" fill="#FFFFFF" stroke="none" x="0" y="0" width="928" height="1660" />
      <path class="yrule_1" d="M0 40 l928 0" />
      <path d="M0 80 l928 0" />
      <path d="M0 120 l928 0" />
      <path d="M0 160 l928 0" />
      <path d="M0 200 l928 0" />
      <path d="M0 240 l928 0" />
      <path d="M0 280 l928 0" />
      <path d="M0 320 l928 0" />
      <path d="M0 360 l928 0" />
      <path d="M0 400 l928 0" />
      <path d="M0 440 l928 0" />
      <path d="M0 480 l928 0" />
      <path d="M0 520 l928 0" />
      <path d="M0 560 l928 0" />
      <path d="M0 600 l928 0" />
      <path d="M0 640 l928 0" />
      <path d="M0 680 l928 0" />
      <path d="M0 720 l928 0" />
      <path d="M0 760 l928 0" />
      <path d="M0 800 l928 0" />
      <path d="M0 840 l928 0" />
      <path d="M0 880 l928 0" />
      <path d="M0 920 l928 0" />
      <path d="M0 960 l928 0" />
      <path d="M0 1000 l928 0" />
      <path d="M0 1040 l928 0" />
      <path d="M0 1080 l928 0" />
      <path d="M0 1120 l928 0" />
      <path d="M0 1160 l928 0" />
      <path d="M0 1200 l928 0" />
      <path d="M0 1240 l928 0" />
      <path d="M0 1280 l928 0" />
      <path d="M0 1320 l928 0" />
      <path d="M0 1360 l928 0" />
      <path d="M0 1400 l928 0" />
      <path d="M0 1440 l928 0" />
      <path d="M0 1480 l928 0" />
      <path d="M0 1520 l928 0" />
      <path d="M0 1560 l928 0" />
      <path d="M0 1600 l928 0" />
      <path d="M0 1640 l928 0" />
      <path class="leftmargin" stroke="#FF0000" d="M100 0 l0 1660" />
    </g>
    <path class="write-flat-pen" fill="#000000" stroke-width="1.6" __comx="118.486" __comy="34.076" __timestamp="0x18148c94c0b" d="M125.773 22.543 l0.053 -0.841 0.022 -0.351 -0.26 -0.739 -0.241 -0.771 -0.404 -0.87 -0.495 -0.856 -0.751 -0.761 -0.902 -0.552 -1.075 -0.352 -1.319 -0.004 -1.541 -0.002 -1.737 0.717 -1.706 1.231 -1.61 1.635 -1.338 1.933 -1.069 2.231 -0.728 2.626 -0.457 3.056 -0.195 3.319 -0.001 3.343 0 3.174 0.56 2.528 1.4 1.863 1.853 1.005 2.088 0.25 2.14 -0.002 2.051 -0.376 1.953 -0.865 1.684 -1.027 1.325 -0.929 0.95 -0.838 0.932 -0.929 -0.267 -0.414 -1.257 0.484 -1.079 0.651 -1.337 0.789 -1.612 0.92 -1.723 0.738 -1.752 0.311 -1.917 -0.002 -1.715 -0.208 -1.316 -0.713 -1.009 -1.344 -0.454 -2.053 0 -3.011 -0.001 -3.3 0.186 -3.209 0.43 -2.9 0.666 -2.413 0.959 -2.007 1.197 -1.732 1.432 -1.457 1.463 -1.06 1.305 -0.543 1.248 -0.002 1.09 -0.004 0.7 0.221 0.619 0.364 0.517 0.499 0.392 0.633 0.357 0.733 0.266 0.718 0.247 0.52 0.022 0.107 0.053 0.841" />
    <path class="write-flat-pen" fill="#000000" stroke-width="1.6" __comx="129.375" __comy="34.076" __timestamp="0x18148c94d2e" d="M128.433 38.232 l-0.548 0.583 -0.114 0.88 -0.088 1.055 -0.016 0.938 -0.007 0.802 -0.002 0.97 0.919 0.332 1.105 -0.002 1.163 -1.056 0.947 -1.485 0.897 -1.724 0.646 -1.58 0.269 -1.221 0 -0.762 0.009 -0.892 -1.55 -0.017 -1.406 -0.016 -1.701 0.687 -1.507 0.873 -1.296 0.75 -0.831 0.569 -0.183 0.108 0.144 0 0.074 1.487 0.729 -0.098 1.262 -0.801 1.476 -0.975 1.448 -0.969 1.462 -1.06 -0.263 -0.471 -1.67 0.692 -1.594 0.749 -1.566 0.858 -1.02 0.574 -0.412 0.017 0.074 1.487 0.271 0 0.577 -0.35 0.817 -0.577 1.239 -0.739 1.409 -0.845 1.341 -0.573 1.129 -0.016 0.225 -0.017 0.009 -0.433 0 0.612 -0.238 0.955 -0.621 1.398 -0.878 1.598 -0.827 1.264 -0.611 0.547 -0.289 -0.002 0.285 0.103 -0.002 0.054 -0.007 -0.802 -0.016 -0.895 0.039 -1.006 0.012 -0.838 -0.374 -0.67" />
    <path class="write-flat-pen" fill="#000000" stroke-width="1.6" __comx="140.448" __comy="34.076" __timestamp="0x18148c94e97" d="M134.28 35.015 l0.355 0.332 0.016 0.228 0.275 0.453 0.275 0.346 0.201 0.362 0.229 0.392 0.186 0.352 0.082 0.394 -0.004 0.608 -0.003 0.802 -0.002 0.786 -0.1 0.487 -0.147 0.353 -0.107 0.193 1.388 0.359 0.001 -0.026 0.04 -0.499 0.563 -0.743 0.741 -0.951 0.78 -0.87 0.772 -0.7 0.772 -0.592 0.783 -0.49 0.641 -0.369 0.444 -0.178 0.242 -0.036 0.043 0.003 -0.035 -0.028 0.25 0.734 0.372 1.133 0.371 1.238 0.318 1.211 0.323 0.996 0.239 0.721 0.579 0.654 0.465 0 0.747 -0.004 0.242 -1.366 -0.027 -1.213 -0.059 -1.317 -0.098 -1.127 -0.072 -1.357 -0.783 -0.051 -0.25 1.372 -0.098 1.163 -0.059 1.317 -0.027 1.078 -0.011 0.009 0.494 -0.004 0.211 0 0.072 0.082 -0.141 -0.425 -0.31 -0.951 -0.316 -1.194 -0.39 -1.281 -0.389 -1.158 -0.383 -1.099 -0.669 -0.6 -0.717 0.003 -0.519 0.078 -0.697 0.28 -0.753 0.433 -0.865 0.541 -0.876 0.668 -0.876 0.789 -0.868 0.962 -0.78 0.996 -0.832 1.09 -0.087 0.99 0.001 0.089 1.388 0.359 0.146 -0.266 0.233 -0.563 0.154 -0.773 -0.002 -0.932 -0.003 -0.802 -0.004 -0.767 -0.171 -0.752 -0.321 -0.564 -0.278 -0.41 -0.307 -0.44 -0.358 -0.341 -0.232 -0.235 -0.238 -0.344 -0.74 -0.328" />
    <path class="write-flat-pen" fill="#000000" stroke-width="1.6" __comx="149.405" __comy="34.076" __timestamp="0x18148c94f36" d="M145.093 34.62 l-0.318 1.053 -0.065 0.517 -0.047 0.286 -0.029 0.732 1.351 0.021 1.154 -0.122 1.438 -0.897 1.353 -1.045 1.425 -1.053 1.134 -1.093 0.851 -1.053 0.574 -0.981 0.187 -0.747 0.074 -0.803 -0.663 -0.21 -0.389 0.662 -0.32 0.513 -0.567 0.737 -0.797 0.895 -1.021 0.968 -1.364 1.008 -1.309 1.017 -1.097 0.706 -0.747 0.108 0.083 0.021 -0.029 0.618 -0.047 -0.286 -0.065 -0.4 0.131 -0.975" />
    <path class="write-flat-pen" fill="#000000" stroke-width="1.6" __comx="162.151" __comy="34.076" __timestamp="0x18148c951fd" d="M150.787 27.537 l-0.47 -0.063 -0.604 -0.071 -0.049 0.827 -0.029 0.687 -0.026 1.088 -0.024 1.422 0.246 1.835 0.304 1.832 0.244 1.895 0.322 1.787 0.472 1.419 0.555 1.085 0.977 0.619 0.998 0 1.127 -0.084 0.916 -1.278 0.737 -1.275 0.582 -1.448 0.422 -1.352 0.347 -1.196 0.143 -0.998 -0.014 -0.806 -0.064 -0.536 -0.008 -0.344 0 -0.344 0.046 -0.323 -0.202 -0.368 -0.293 -0.332 -0.95 -0.043 -0.078 1.073 0.345 0.974 0.427 1.246 0.427 1.397 0.368 1.573 0.306 1.46 0.18 1.21 0.061 0.906 0.06 0.49 0 0.127 1.46 0 0.001 -0.229 -0.004 -0.821 0.107 -1.093 0.328 -1.069 0.569 -1.042 0.621 -0.829 0.741 -0.674 0.742 -0.517 0.863 -0.417 0.902 -0.305 0.965 -0.103 1.041 0 0.925 0.002 0.477 0.039 0.255 0.263 0.176 0.667 0.047 1.107 -0.013 1.355 -0.008 1.374 -0.009 1.088 -0.004 0.744 0 0.983 1.272 0 1.008 -0.581 1.001 -1.361 0.917 -1.555 0.769 -1.66 0.647 -1.62 0.337 -1.453 -0.005 -1.113 0 -0.75 -0.177 -0.974 -1.401 -0.007 -1.149 -0.011 -1.365 0.812 -1.138 0.953 -0.99 0.883 -0.678 0.731 -0.296 0.374 -0.081 0.073 1.243 0.552 -0.024 0.205 0.474 -0.527 1.463 -1.533 -0.657 -0.728 -1.673 1.301 -1.047 0.847 -0.024 0.435 1.243 0.552 0.173 -0.156 0.338 -0.428 0.589 -0.644 0.912 -0.835 1.017 -0.88 0.916 -0.563 0.753 -0.011 0.247 -0.007 -0.05 -0.286 0 0.624 -0.005 0.948 -0.297 1.181 -0.62 1.472 -0.752 1.547 -0.858 1.423 -0.774 1.045 -0.387 0.221 0.638 0 0 0.525 -0.004 -0.744 -0.009 -1.088 -0.008 -1.374 -0.013 -1.393 -0.08 -1.298 -0.331 -1.166 -0.886 -0.882 -1.044 -0.076 -0.977 0.002 -1.114 0 -1.19 0.126 -1.127 0.382 -1.039 0.499 -0.906 0.628 -0.907 0.815 -0.774 1.004 -0.698 1.249 -0.432 1.337 -0.147 1.312 -0.004 0.897 0.001 0.229 1.46 0 0 -0.217 -0.067 -0.54 -0.065 -0.926 -0.2 -1.31 -0.328 -1.517 -0.393 -1.634 -0.46 -1.466 -0.461 -1.274 -0.289 -0.744 -0.078 0.385 -0.697 -0.043 -0.039 -0.103 0.051 -0.024 0.046 0.021 0 0.344 -0.008 0.344 -0.064 0.495 -0.141 0.683 -0.238 0.834 -0.413 1.094 -0.465 1.283 -0.559 1.301 -0.658 1.13 -0.479 0.669 -0.394 0.031 -0.523 0 -0.29 -0.182 -0.332 -0.633 -0.415 -1.215 -0.312 -1.649 -0.263 -1.884 -0.329 -1.834 -0.261 -1.716 -0.024 -1.327 -0.026 -1.088 -0.029 -0.687 -0.049 0.254 -0.477 -0.071 0.47 -0.063" />
    <path class="write-flat-pen" fill="#000000" stroke-width="1.6" __comx="189.398" __comy="34.076" __timestamp="0x18148c952fd" d="M190.89 13.35 l-0.324 -1.168 -0.076 -0.433 -0.497 -0.414 -0.372 -0.251 -0.543 -0.013 -0.636 0.276 -0.26 1.697 -0.069 2.281 -0.067 3.091 -0.132 3.844 -0.004 4.422 -0.003 4.639 0 4.524 0 3.951 0.004 2.863 0.02 1.833 0.082 0.401 1.301 0 -0.115 -0.651 -1.072 0 -0.115 0.651 1.301 0 0.082 -0.401 0.02 -1.833 0.004 -2.863 0 -3.951 0 -4.524 -0.003 -4.639 -0.004 -4.397 0.121 -3.829 0.06 -3.094 0.058 -2.186 0.12 -0.822 -0.382 0.161 -0.162 -0.013 0.008 -0.022 0.136 0.045 0.05 0.025 0.53 1.145" />
    <path class="write-flat-pen" fill="#000000" stroke-width="1.6" __comx="237.705" __comy="34.076" __timestamp="0x18148c956ff" d="M230.608 11.366 l0.054 -0.745 -0.06 0.261 -0.298 0.042 -0.326 0.034 0.038 0.214 0.161 1.442 0.232 2.308 -0.008 3.057 -0.006 3.608 -0.005 4.123 -0.005 4.144 -0.442 4.026 -0.445 3.712 -0.442 3.185 -0.439 2.37 -0.377 1.529 -0.159 0.667 -0.044 0.058 1.247 0.41 0.001 -0.894 0.567 -1.393 0.917 -1.795 1.035 -1.794 1.15 -1.559 1.157 -1.291 0.94 -0.917 0.985 -0.581 0.635 -0.288 0.568 -0.047 0.482 0 0.312 0.003 -0.119 -0.018 0.093 0.252 0.158 0.622 0.18 0.991 0.324 1.027 0.34 0.941 0.592 0.944 0.728 0.659 0.933 0.383 0.959 -0.001 1.177 -0.006 1.283 -0.41 1.276 -0.699 1.551 -0.819 -0.358 -0.837 -1.694 0.57 -1.259 0.561 -0.999 0.277 -0.978 -0.006 -0.689 -0.001 -0.462 -0.19 -0.413 -0.372 -0.422 -0.66 -0.294 -0.777 -0.309 -0.92 -0.201 -0.956 -0.223 -0.753 -0.414 -0.893 -0.626 -0.133 -0.448 0.003 -0.532 0 -0.827 0.068 -0.886 0.399 -1.17 0.679 -1.089 1.03 -1.252 1.343 -1.258 1.648 -1.12 1.871 -0.985 1.87 -0.7 1.7 0.001 1.167 1.247 0.41 0.21 -0.286 0.221 -0.936 0.383 -1.563 0.448 -2.441 0.445 -3.229 0.443 -3.732 0.445 -4.106 -0.005 -4.217 -0.005 -4.123 -0.006 -3.608 -0.008 -3.128 -0.275 -2.387 -0.22 -1.536 -0.342 -1.16 -0.579 0.034 -0.425 0.042 -0.186 0.604 0.054 0.918" />
    <path class="write-flat-pen" fill="#000000" stroke-width="1.6" __comx="249.602" __comy="34.076" __timestamp="0x18148c9588e" d="M254.437 38.278 l0.103 -0.599 0.049 -0.459 -0.119 -0.701 -0.182 -0.81 -0.193 -0.926 -0.427 -0.917 -0.546 -0.788 -0.813 -0.499 -0.938 -0.078 -1.067 -0.006 -1.23 0.344 -1.154 0.905 -1.082 1.09 -0.943 1.269 -0.792 1.366 -0.654 1.291 -0.524 1.18 -0.333 0.898 -0.227 0.747 0 0.446 0 0.749 0.934 -0.003 0.952 -0.143 1.148 -0.715 1.089 -0.757 1.044 -0.728 0.868 -0.476 0.665 -0.231 0.457 0 0.444 0 -0.104 0.003 0.059 0.127 0.24 0.551 0.271 0.678 0.357 0.566 0.565 0.409 0.661 0.081 0.487 -0.022 0.747 -0.05 0.745 -0.593 0.843 -0.938 -0.319 -0.423 -1.101 0.526 -0.522 0.208 -0.394 -0.05 -0.4 -0.022 -0.227 -0.034 -0.068 -0.049 -0.15 -0.236 -0.236 -0.582 -0.267 -0.595 -0.449 -0.904 -0.738 0.003 -0.444 0 -0.684 0 -0.983 0.342 -1.033 0.555 -1.111 0.761 -1.066 0.732 -0.88 0.545 -0.569 0.086 0.554 -0.003 0 0.635 0 -0.241 0.154 -0.512 0.301 -0.82 0.49 -1.111 0.614 -1.229 0.729 -1.268 0.832 -1.136 0.947 -0.971 0.874 -0.699 0.798 -0.229 0.835 -0.006 0.584 0.036 0.328 0.188 0.341 0.472 0.333 0.686 0.188 0.792 0.199 0.794 0.134 0.559 0.049 0.343 0.103 0.599" />
    <path class="write-flat-pen" fill="#000000" stroke-width="1.6" __comx="263.575" __comy="34.076" __timestamp="0x18148c959ca" d="M253.778 38.401 l4.684 -1.803 0.047 -0.408 0.04 -0.115 0.025 0.157 0.271 -0.161 0.923 -0.422 1.092 -0.57 1.194 -0.619 1.088 -0.515 0.778 -0.43 0.4 -0.12 -0.486 0 -0.001 -0.166 -0.112 0.979 -0.643 1.263 -0.767 1.555 -0.729 1.552 -0.408 1.525 -0.209 1.237 -0.002 0.918 -0.002 0.846 0.626 0.709 1.016 0.085 0.936 0.001 1.225 -0.065 1.327 -0.573 1.379 -0.639 1.401 -0.584 1.508 -0.498 1.544 -0.394 1.772 -0.612 -0.129 -0.573 -1.842 0.204 -1.625 0.179 -1.662 0.418 -1.515 0.561 -1.41 0.62 -1.081 0.458 -0.93 0.049 -0.838 0.001 -0.378 -0.029 0.119 0.136 -0.002 -0.299 -0.002 -0.8 0.172 -1.054 0.353 -1.338 0.666 -1.426 0.754 -1.537 0.751 -1.485 0.142 -1.311 -0.001 -1.311 -1.12 0 -0.741 0.224 -0.87 0.487 -1.067 0.516 -1.215 0.641 -1.063 0.575 -0.978 0.495 -0.87 0.64 0.025 0.501 0.04 0.115 0.047 -0.294 -3.958 1.723" />
    <path class="write-flat-pen" fill="#000000" stroke-width="1.6" __comx="275.994" __comy="34.076" __timestamp="0x18148c95b4f" d="M278.531 37.989 l0.086 -0.768 0.085 -0.515 0.062 -0.573 0.033 -0.742 -0.281 -0.769 -0.396 -0.802 -0.461 -0.737 -0.549 -0.76 -0.688 -0.632 -0.669 -0.313 -0.77 -0.148 -0.807 -0.008 -1.054 0.154 -0.952 1.07 -0.82 1.169 -0.666 1.435 -0.599 1.375 -0.339 1.338 -0.208 1.172 -0.002 0.862 -0.002 0.649 0.201 0.908 1.194 0 0.988 -0.003 1.234 -0.906 1.103 -1.069 1.041 -1.024 0.968 -0.783 0.783 -0.567 0.569 -0.173 0.476 0 0.306 0.001 -0.029 -0.01 0.099 0.411 0.11 0.856 0.055 1.009 0.057 0.925 0.07 0.84 0.279 0.756 0.508 0.449 0.621 -0.018 0.662 -0.146 0.656 -1.009 0.543 -1.062 0.42 -1.262 -0.136 -0.084 -0.932 0.936 -0.725 0.885 -0.485 0.479 -0.099 -0.031 -0.013 -0.018 0.127 0.105 -0.101 -0.275 -0.056 -0.649 -0.069 -0.908 -0.072 -1.053 -0.143 -0.976 -0.281 -1.078 -0.789 -0.354 -0.582 0.001 -0.665 0 -0.952 0.285 -0.992 0.693 -1.06 0.821 -1.114 1.038 -1.052 0.992 -0.794 0.583 -0.533 -0.003 -0.074 0 0.074 0.335 -0.002 -0.496 -0.002 -0.742 0.173 -1.004 0.294 -1.182 0.542 -1.26 0.602 -1.313 0.702 -1.008 0.569 -0.648 0.468 -0.075 0.587 -0.008 0.497 0.081 0.345 0.145 0.453 0.399 0.465 0.614 0.427 0.638 0.365 0.687 0.226 0.491 0.033 0.518 0.062 0.573 0.085 0.515 0.086 0.768" />
    <path class="write-flat-pen" fill="#000000" stroke-width="1.6" __comx="291.55" __comy="34.076" __timestamp="0x18148c95c4c" d="M283.725 33.711 l0.489 -0.406 0.24 -0.057 0.388 0.021 0.605 0.058 0.544 0.03 0.455 0.396 0.449 0.66 0.262 0.892 0.166 1.107 -0.01 1.265 -0.007 1.381 -0.17 1.123 -0.387 0.899 -0.402 0.622 -0.137 0.183 0.167 -0.077 0.768 -0.005 0.004 0.341 0 -0.841 0.206 -0.937 0.778 -1.111 0.964 -1.043 1.144 -1.107 1.327 -0.955 1.383 -0.912 1.56 -0.664 1.6 -0.484 1.637 -0.271 1.835 -0.066 0 -0.513 -1.846 -0.066 -1.786 -0.157 -1.823 0.432 -1.736 0.71 -1.533 0.921 -1.461 0.992 -1.265 1.184 -1.065 1.133 -0.996 1.409 -0.301 1.353 0 0.992 0.004 1.029 0.895 -0.005 0.421 -0.192 0.37 -0.504 0.486 -0.752 0.5 -1.163 0.21 -1.396 -0.007 -1.482 -0.01 -1.369 -0.214 -1.298 -0.372 -1.17 -0.691 -0.943 -0.939 -0.749 -0.977 0.03 -0.663 0.058 -0.627 0.135 -0.52 0.401 -0.12 0.833" />
    <path class="write-flat-pen" fill="#000000" stroke-width="1.6" __comx="310.96" __comy="34.076" __timestamp="0x18148c95e0e" d="M305.151 36.302 l0.56 0.555 0.418 0.268 0.36 0.06 0.568 0.056 0.614 -0.673 0.494 -0.931 0.424 -1.005 0.148 -0.975 0.005 -0.731 0.012 -0.656 -0.201 -0.775 -1.071 -0.009 -1.058 0.064 -1.211 1.024 -1.12 1.241 -1.173 1.402 -0.989 1.417 -0.789 1.358 -0.515 1.034 -0.409 0.731 -0.184 0.566 -0.004 0.163 1.037 0.6 0.775 -0.435 1.201 -1.144 1.523 -1.434 1.708 -1.662 1.951 -1.837 2.029 -1.911 1.976 -2.029 1.916 -2.082 1.869 -2.213 1.684 -2.455 1.496 -2.642 1.113 -2.824 0.787 -2.877 0.392 -2.577 0.194 -2.08 0.129 -1.319 0.068 -0.777 0.003 -0.201 -1.372 0 -0.01 0.682 -0.547 1.527 -0.585 2.511 -0.646 3.186 -0.453 3.697 -0.448 4.134 -0.382 4.243 -0.381 4.131 -0.253 3.813 0.013 3.059 0.041 2.363 0.595 1.961 0.986 -0.218 -0.257 -1.888 0.041 -2.218 0.013 -3.011 0.254 -3.747 0.38 -4.115 0.378 -4.232 0.439 -4.113 0.434 -3.634 0.621 -3.114 0.556 -2.414 0.594 -1.68 -0.01 -0.922 -1.372 0 0.003 0.143 -0.059 0.712 -0.125 1.315 -0.187 2.044 -0.369 2.462 -0.735 2.735 -1.042 2.673 -1.419 2.512 -1.612 2.355 -1.807 2.14 -1.887 2.042 -1.954 1.98 -2.027 1.869 -1.979 1.828 -1.715 1.66 -1.519 1.43 -1.081 1.032 -0.619 0.367 1.037 0.6 -0.004 0.049 0.069 -0.236 0.352 -0.644 0.499 -1.028 0.733 -1.276 0.913 -1.332 1.109 -1.347 1.035 -1.164 0.817 -0.694 0.59 -0.05 0.069 -0.009 -0.075 -0.317 0.012 0.489 0.005 0.643 -0.105 0.743 -0.337 0.828 -0.393 0.787 -0.147 0.244 -0.065 0.056 -0.147 0.06 -0.216 -0.075 -0.643 -0.35" />
    <path class="write-flat-pen" fill="#000000" stroke-width="1.6" __comx="70.618" __comy="98.885" __timestamp="0x18148c97d8d" d="M73.663 94.431 l-0.077 1.03 -0.022 1.242 -0.137 1.54 -0.637 2.179 -0.834 2.619 -0.953 2.789 -1.075 2.794 -1.018 2.57 -0.892 2.172 -0.775 1.922 -0.401 1.57 -0.054 1.153 0.056 0.927 0.673 0.519 0.425 -0.377 -0.21 -0.479 0.056 -0.561 0.073 -1.023 0.36 -1.408 0.747 -1.857 0.882 -2.18 1.01 -2.584 1.08 -2.818 0.948 -2.824 0.814 -2.65 0.63 -2.288 0.116 -1.667 -0.022 -1.277 -0.077 -1.03" />
    <path class="write-flat-pen" fill="#000000" stroke-width="1.6" __comx="77.833" __comy="115.479" __timestamp="0x18148c97e0c" d="M76.854 114.988 l-0.015 0.631 -0.006 0.229 -0.002 0.508 0.264 0.715 0.666 0.739 0.519 0.55 0.555 -0.23 -0.091 -0.921 -0.601 -0.75 -0.116 -0.316 -0.002 -0.294 -0.006 -0.229 -0.015 -0.631" />
    <path class="write-flat-pen" fill="#000000" stroke-width="1.6" __comx="136.678" __comy="261.286" __timestamp="0x18148c9a323" d="M127.126 253.711 l-0.035 2.629 0.193 3.039 0.902 3.435 1.08 3.404 1.143 3.047 1.007 2.685 0.815 2.448 0.62 2.084 0.31 1.794 0.188 1.39 0.004 0.999 0.001 0.573 0 -0.083 0.252 -0.116 -0.276 0 -0.164 0.004 0.011 0.012 0.005 -0.505 0.001 -0.634 0.146 -0.655 0.933 -0.843 1.279 -0.825 1.61 -0.839 1.739 -0.73 1.675 -0.56 1.612 -0.391 1.287 -0.222 0.973 -0.055 0.685 0.002 0.069 0.021 0.066 0.444 -0.009 0.992 -0.005 1.07 -0.335 1.102 -0.818 1.106 -0.975 1.042 -0.909 0.765 -0.791 0.547 -0.433 0.254 -0.17 0 0.335 0.004 -0.014 0.511 0.058 -0.545 0.698 -0.732 1.376 -1.171 -0.303 -0.419 -1.579 0.965 -1.077 0.871 -0.195 0.944 -0.014 0.626 0.715 0.004 0.464 0 0.708 -0.434 0.856 -0.598 0.992 -0.839 1.054 -1.134 0.956 -1.299 0.425 -1.418 -0.005 -1.221 -0.009 -1.07 -0.188 -1.159 -0.818 -0.208 -0.837 0.002 -1.056 0.06 -1.375 0.237 -1.684 0.411 -1.748 0.585 -1.81 0.759 -1.686 0.879 -1.383 0.893 -1.222 1.104 -0.234 1.063 0.001 0.74 0.005 0.87 0.518 0.585 0.597 0.004 0.485 0 0.505 -0.23 0 -0.541 0.001 -0.573 0.004 -1.063 -0.192 -1.474 -0.324 -1.871 -0.647 -2.154 -0.833 -2.477 -1.021 -2.699 -1.138 -3.023 -1.075 -3.354 -0.873 -3.323 -0.187 -2.917 -0.035 -2.598" />
    <path class="write-flat-pen" fill="#000000" stroke-width="1.6" __comx="157.215" __comy="273.86" __timestamp="0x18148c9a44e" d="M151.733 277.707 l0.739 0.044 0.444 0.018 0.832 0.034 1 -0.511 1.085 -0.843 1.013 -1.033 0.841 -1.225 0.841 -1.052 0.513 -0.933 0.423 -0.623 0.326 -0.555 -0.027 -0.442 -0.019 -0.39 -0.452 -0.403 -0.989 -0.2 -1.063 -0.06 -1.091 -0.003 -1.155 -0.009 -1.015 0.619 -0.838 0.937 -0.386 1.326 -0.021 1.391 -0.014 1.531 0.564 1.62 1.058 1.349 1.338 0.957 1.443 0.521 1.372 -0.008 1.362 -0.023 1.504 -0.584 1.337 -1.518 -0.453 -0.475 -1.42 1.112 -1.158 0.333 -1.173 -0.023 -1.163 -0.008 -1.092 -0.395 -1.07 -0.761 -0.843 -1.056 -0.45 -1.243 -0.014 -1.332 -0.021 -1.244 0.247 -0.965 0.556 -0.667 0.633 -0.412 0.873 -0.009 1.064 -0.003 0.965 0.054 0.659 0.143 -0.072 -0.059 -0.019 -0.046 -0.027 0.131 -0.181 0.247 -0.464 0.636 -0.501 0.9 -0.807 1.009 -0.807 1.18 -0.889 0.914 -0.943 0.76 -0.648 0.405 -0.563 0.034 -0.444 0.018 -0.739 0.044" />
    <path class="write-flat-pen" fill="#000000" stroke-width="1.6" __comx="178.005" __comy="271.917" __timestamp="0x18148c9a621" d="M170.581 272.309 l0.173 -0.808 0.001 -0.802 0.006 -0.974 0.033 -1.031 0.014 -0.802 0.005 -0.63 0.008 -0.286 0.008 -0.172 -0.966 0 -0.045 0.172 -0.023 0.974 -0.007 1.32 -0.305 1.526 -0.434 1.498 -0.507 1.3 -0.377 1.057 -0.366 0.697 -0.287 0.508 0.036 -0.14 0.984 -0.002 0 0.08 -0.001 -0.81 0.323 -0.883 0.518 -0.892 0.638 -0.792 0.759 -0.693 0.769 -0.536 0.761 -0.423 0.622 -0.234 0.655 0.001 0.334 0.004 0.477 0.683 0.587 1.405 0.546 1.778 0.432 2.095 0.502 2.308 0.631 2.421 0.698 2.599 0.956 2.824 1.018 3.049 1.153 2.952 1.217 2.659 1.114 2.238 1.218 1.568 1.227 1.144 1.374 0.844 1.47 0.108 0.138 -0.761 -1.193 -0.374 -1.035 -0.759 -1.055 -1.032 -1.064 -1.41 -1.041 -2.114 -1.191 -2.609 -1.129 -2.889 -1.01 -3.021 -0.945 -2.788 -0.696 -2.555 -0.637 -2.389 -0.512 -2.273 -0.455 -2.143 -0.595 -1.887 -0.681 -1.573 -0.918 -1.265 -0.934 0.004 -0.866 0.001 -0.899 0.339 -0.887 0.493 -0.879 0.61 -0.889 0.796 -0.757 0.926 -0.623 1.056 -0.437 1.179 -0.001 1.022 0 1.111 1.111 -0.002 0.163 -0.598 0.22 -0.408 0.395 -0.792 0.384 -1.119 0.508 -1.334 0.453 -1.594 0.329 -1.681 -0.007 -1.429 -0.023 -0.974 -0.045 -0.172 -0.966 0 0.008 0.172 0.008 0.286 0.005 0.63 0.014 0.802 0.033 1.031 0.006 0.974 0.001 0.802 0.173 0.808" />
    <path class="write-flat-pen" fill="#000000" stroke-width="1.6" __comx="133.605" __comy="184.74" __timestamp="0x18148c9ac05" d="M136.765 172.914 l-0.571 0.354 -0.336 1.336 -0.503 1.952 -0.571 2.464 -0.696 2.741 -0.76 2.857 -0.763 2.691 -0.634 2.398 -0.632 1.987 -0.502 1.474 -0.37 0.948 -0.056 0.115 0.708 0 -0.01 -0.043 -0.058 -1.374 -0.125 -2.112 -0.559 0 -0.125 2.112 -0.058 1.374 -0.01 0.988 0.835 0 0.324 -0.686 0.39 -0.999 0.512 -1.504 0.635 -2.021 0.634 -2.413 0.759 -2.692 0.761 -2.87 0.698 -2.756 0.57 -2.461 0.511 -1.942 0.298 -1.184 0.016 -0.53" />
    <path class="write-flat-pen" fill="#000000" stroke-width="1.6" __comx="142.545" __comy="184.74" __timestamp="0x18148c9ad55" d="M134.556 175.336 l0.905 -0.172 0.753 0.006 1.189 0.644 1.435 1.291 1.607 1.86 1.555 2.087 1.37 2.319 1.253 2.387 1.057 2.257 0.682 2.03 0.492 1.621 0.179 1.13 -0.001 0.648 0 -0.212 0.308 0 -0.62 0.007 -0.756 -0.217 -1.042 -0.691 -1.283 -0.791 -1.335 -0.862 -1.132 -0.688 -0.768 -0.549 -0.254 -0.298 0.019 -0.062 0.021 0.009 0.087 -0.101 0.79 -0.401 1.228 -0.686 1.409 -0.866 1.595 -1.037 1.534 -1.041 1.356 -1.047 1.244 -0.795 1.252 -0.781 -0.189 -0.417 -1.447 0.438 -1.418 0.694 -1.433 1.014 -1.509 1.02 -1.575 1.024 -1.38 0.852 -1.18 0.688 -0.984 0.515 -0.42 0.587 0.021 0.468 0.146 0.397 0.506 0.504 0.88 0.596 1.15 0.687 1.327 0.856 1.253 0.812 1.113 0.798 1.018 0.355 0.774 0.007 0.689 0 0 -0.785 -0.001 -0.726 -0.202 -1.276 -0.522 -1.7 -0.713 -2.094 -1.098 -2.324 -1.283 -2.424 -1.419 -2.377 -1.614 -2.15 -1.689 -1.92 -1.607 -1.343 -1.473 -0.73 -1.022 0.006 -0.977 0.206" />
    <path class="write-flat-pen" fill="#000000" stroke-width="1.6" __comx="163.536" __comy="184.74" __timestamp="0x18148c9ae4e" d="M156.083 182.471 l0.53 0.19 0.288 -0.252 0.275 -0.148 0.194 -0.039 0.236 0.027 0.18 0.033 0.191 0.213 0.368 0.834 0.365 1.338 0.44 1.499 0.45 1.458 0.536 1.343 0.704 1.029 0.82 0.746 0.975 0.411 1.066 0.193 1.194 0 1.22 0 1.423 -0.395 1.25 -0.825 1.134 -0.778 1.066 -1.209 -0.37 -0.409 -1.245 0.879 -1.147 0.597 -1.158 0.664 -1.112 0.292 -1.062 0 -1.088 0 -0.835 -0.15 -0.673 -0.277 -0.575 -0.514 -0.564 -0.804 -0.478 -1.177 -0.437 -1.406 -0.447 -1.479 -0.395 -1.41 -0.52 -1.113 -0.697 -0.589 -0.58 0.033 -0.397 0.027 -0.439 0.19 -0.359 0.31 -0.092 0.092 -0.235 0.19" />
    <path class="write-flat-pen" fill="#000000" stroke-width="1.6" __comx="178.744" __comy="184.74" __timestamp="0x18148c9af63" d="M170.556 180.308 l0.264 0.903 0.565 0.805 0.724 1.157 0.932 1.397 1.123 1.631 1.275 1.709 1.435 1.492 1.464 1.158 1.507 0.751 1.398 0.325 1.35 0.005 1.338 -0.067 1.228 -1.311 0.896 -1.489 0.61 -1.893 0.267 -1.927 0 -1.76 0 -1.705 -0.58 -1.696 -1.203 -1.366 -1.859 -1.446 -0.61 0.707 1.636 1.569 0.952 1.154 0.434 1.282 0 1.502 0 1.676 -0.24 1.738 -0.531 1.658 -0.752 1.26 -0.8 0.865 -0.817 0.047 -1.185 0.005 -1.137 -0.248 -1.282 -0.623 -1.325 -1.018 -1.353 -1.371 -1.261 -1.613 -1.158 -1.576 -0.969 -1.352 -0.797 -1.133 -0.576 -0.684 -0.344 -0.746" />
    <path class="write-flat-pen" fill="#000000" stroke-width="1.6" __comx="132.455" __comy="145.342" __timestamp="0x18148c9b421" d="M134.555 134.443 l-0.043 0.418 -0.001 0.974 -0.005 1.603 -0.008 2.049 -0.126 2.122 -0.557 2.117 -0.689 1.918 -0.69 1.634 -0.755 1.471 -0.628 1.178 -0.547 0.82 -0.302 0.36 -0.074 0.033 0.304 0.007 -0.066 -0.327 -0.074 -1.451 -0.645 0 -0.074 1.485 0.061 1.162 0.684 0.007 0.433 -0.196 0.459 -0.556 0.594 -0.898 0.64 -1.227 0.766 -1.507 0.704 -1.688 0.705 -1.976 0.584 -2.235 0.128 -2.23 -0.008 -2.074 -0.005 -1.603 -0.001 -0.974 -0.043 -0.418" />
    <path class="write-flat-pen" fill="#000000" stroke-width="1.6" __comx="140.463" __comy="145.342" __timestamp="0x18148c9b56c" d="M132.934 138.275 l0.592 -0.23 0.438 0.029 0.552 0.048 0.781 0.723 1.094 1.299 1.3 1.648 1.226 1.867 1.107 2.034 0.92 2.02 0.609 1.882 0.303 1.76 0.061 1.5 0 1.134 0 0.734 -0.275 0.249 -0.497 0.084 -0.799 0.002 -0.752 -0.315 -0.807 -0.829 -0.801 -0.889 -0.481 -0.651 -0.159 -0.256 0.005 -0.132 0.004 -0.286 0.174 -0.388 0.752 -0.826 1.252 -1.12 1.46 -1.315 1.508 -1.363 1.557 -1.238 1.35 -0.944 1.134 -0.622 0.804 -0.394 0.878 -0.418 -0.126 -0.512 -1.028 0.052 -0.971 0.293 -1.275 0.638 -1.439 1.003 -1.612 1.282 -1.534 1.386 -1.456 1.32 -1.283 1.171 -0.896 1.006 -0.333 0.758 0.004 0.515 0.005 0.44 0.348 0.546 0.534 0.723 0.847 0.943 0.968 1.003 1.15 0.487 1.103 0.002 0.897 -0.145 0.866 -0.782 0 -1.213 0 -1.156 -0.065 -1.592 -0.331 -1.905 -0.659 -2.013 -0.981 -2.103 -1.175 -2.09 -1.309 -1.913 -1.362 -1.674 -1.187 -1.335 -1.12 -0.88 -0.842 0.048 -0.576 0.029 -0.69 0.349" />
    <path class="write-flat-pen" fill="#000000" stroke-width="1.6" __comx="159.181" __comy="145.342" __timestamp="0x18148c9b663" d="M151.711 139.565 l0.324 0.625 0.298 0.441 0.327 0.886 0.41 1.071 0.344 1.294 0.418 1.65 0.365 1.709 0.375 1.732 0.448 1.73 0.676 1.421 0.867 1.183 1.223 0.693 1.296 0.199 1.399 0.001 1.582 -0.454 1.45 -1.061 1.216 -1.18 0.978 -0.975 0.944 -1.194 -0.566 -0.537 -1.114 0.976 -1.05 0.858 -1.193 1.111 -1.212 0.886 -1.207 0.348 -1.136 0.001 -0.986 -0.145 -0.806 -0.452 -0.654 -0.879 -0.591 -1.213 -0.439 -1.591 -0.386 -1.704 -0.395 -1.727 -0.469 -1.672 -0.416 -1.34 -0.477 -1.105 -0.434 -0.947 -0.336 -0.476 -0.336 -0.568" />
    <path class="write-flat-pen" fill="#000000" stroke-width="1.6" __comx="176.2" __comy="145.342" __timestamp="0x18148c9b75b" d="M167.637 142.733 l0.491 0.036 -0.059 0.001 0.194 0.353 0.459 1.07 0.679 1.511 0.949 1.873 1.345 2.172 1.507 1.972 1.832 1.55 1.977 0.775 1.908 0.009 1.975 -0.909 1.607 -1.883 1.204 -2.412 0.796 -2.635 0.263 -2.674 -0.007 -2.412 -0.229 -2.19 -1.162 -1.709 -1.151 -1.063 -1.518 -0.763 -0.38 0.595 1.232 0.991 0.877 0.998 0.866 1.384 0.152 1.819 -0.007 2.284 -0.244 2.48 -0.725 2.404 -1.078 2.17 -1.308 1.553 -1.448 0.694 -1.388 0.009 -1.573 -0.599 -1.591 -1.313 -1.409 -1.808 -1.317 -2.066 -0.953 -1.792 -0.716 -1.467 -0.555 -1.107 -0.567 -0.792 -0.439 0.001 -0.491 0.036" />
    <path class="write-flat-pen" fill="#000000" stroke-width="1.6" __comx="156.222" __comy="227.378" __timestamp="0x18148c9bb06" d="M154.974 227.046 l-0.727 -0.067 -0.317 0.979 0.671 0.475 0.947 0.485 1.265 0.477 1.703 -0.1 0 -0.803 -1.509 -0.1 -1.017 -0.439 -0.828 -0.431 -0.597 -0.441 -0.317 0.979 0.727 -0.067" />
    <path class="write-flat-pen" fill="#000000" stroke-width="1.6" __comx="176.311" __comy="230.332" __timestamp="0x18148c9bb9b" d="M173.894 230.483 l0.811 0.513 0.549 0.187 0.781 0.293 1.024 0.246 1.626 0.037 0.044 -0.876 -1.531 -0.121 -0.878 -0.212 -0.74 -0.28 -0.465 -0.157 -0.743 -0.423" />
    <path class="write-flat-pen" fill="#000000" stroke-width="1.6" __comx="189.657" __comy="231.834" __timestamp="0x18148c9bc19" d="M186.578 232.317 l1.584 0.268 1.377 0.031 1.728 -0.028 1.469 -0.809 -0.064 -0.223 -1.543 0.057 -1.568 -0.028 -1.285 -0.084 -1.517 -0.257" />
    <path class="write-flat-pen" transform="translate(-128.918,22.105)" fill="#000000" stroke-width="1.6" __comx="295.707" __comy="254.608" __timestamp="0x18148c9c0c1" d="M412.323 230.663 l0.775 0.147 1.077 0 1.591 0.007 2.354 -0.043 2.739 -0.7 2.995 -0.919 3.049 -0.974 2.918 -0.974 2.575 -0.861 2.24 -0.607 2.291 -0.619 -0.15 -0.735 -2.373 0.333 -2.324 0.538 -2.622 0.858 -2.913 0.973 -3.035 0.973 -2.963 0.914 -2.585 0.675 -2.21 0.072 -1.578 0.007 -1.077 0 -0.775 0.147" />
    <path class="write-flat-pen" transform="translate(-128.918,22.105)" fill="#000000" stroke-width="1.6" __comx="306.352" __comy="254.608" __timestamp="0x18148c9c1ec" d="M443.794 218.762 l-1.39 -0.998 -1.234 -0.9 -1.447 -1.028 -1.553 -1.258 -1.511 -1.38 -1.526 -1.272 -1.338 -1.107 -1.238 -0.89 -1.019 -0.557 -0.875 -0.276 -0.644 -0.008 -0.871 -0.016 -0.405 1.068 -0.267 1.432 -0.26 1.91 -0.257 2.416 -0.256 2.755 -0.257 3.156 -0.255 3.669 -0.254 3.957 -0.192 3.969 0 3.736 0 2.978 0.004 2.189 0.075 1.534 0.751 0.757 1.006 -0.046 1.372 -0.59 -0.269 -0.743 -1.273 0.366 -0.388 -0.046 -0.136 -0.159 -0.051 -1.1 0.004 -2.163 0 -2.978 0 -3.709 0.188 -3.934 0.253 -3.946 0.252 -3.661 0.25 -3.144 0.251 -2.742 0.25 -2.394 0.247 -1.87 0.24 -1.317 0.102 -0.306 0.143 -0.016 0.497 -0.008 0.646 0.182 0.883 0.474 1.171 0.828 1.324 1.069 1.517 1.247 1.531 1.369 1.616 1.262 1.468 1.033 1.302 0.932 1.725 0.471" />
    <path class="write-flat-pen" transform="translate(-128.918,22.105)" fill="#000000" stroke-width="1.6" __comx="320.385" __comy="254.608" __timestamp="0x18148c9c3ff" d="M436.977 236.299 l-0.176 1.299 -0.018 1.01 0.115 0.98 0.606 0.771 0.691 0.015 1.074 0.015 1.321 -0.983 1.305 -1.238 1.303 -1.425 0.908 -1.383 0.612 -1.147 0.137 -1.105 0 -0.778 0.002 -0.936 -1 -0.553 -1.082 -0.079 -1.258 -0.018 -1.42 0.178 -1.413 0.82 -1.029 0.86 -0.688 0.808 -0.468 0.709 -0.082 0.572 0.035 0.754 0.601 -0.059 0.984 -0.086 1.381 -0.357 1.568 -0.859 1.634 -0.71 1.521 -0.63 1.277 -0.465 1.013 -0.21 0.872 -0.089 0.73 0.003 0.746 0.061 0.623 0.048 0.33 0.143 0.381 0.496 0.317 0.953 0.224 1.279 -0.006 1.549 -0.002 1.675 -0.242 1.672 -0.62 1.724 -0.503 1.517 -0.513 1.093 -0.189 0.607 -0.036 0.053 1.109 0.613 0.372 -0.655 0.93 -1.335 1.327 -1.769 1.447 -1.989 1.627 -1.922 1.57 -1.763 1.486 -1.579 1.265 -1.11 1.033 -0.741 0.647 -0.407 0.831 -0.279 0 -0.316 -1.006 -0.279 -1.001 0.281 -1.249 0.748 -1.397 1.181 -1.556 1.628 -1.599 1.787 -1.669 1.972 -1.469 2.02 -1.335 1.782 -0.972 1.414 -0.389 0.719 1.109 0.613 0.09 -0.176 0.191 -0.653 0.501 -1.083 0.511 -1.575 0.648 -1.827 0.265 -1.879 -0.002 -1.761 -0.006 -1.658 -0.284 -1.47 -0.443 -1.223 -0.759 -0.878 -0.811 -0.201 -0.772 0.048 -0.775 0.061 -0.791 0.117 -0.902 0.255 -1.015 0.362 -1.259 0.566 -1.522 0.63 -1.662 0.664 -1.601 0.63 -1.281 0.101 -0.917 -0.086 0.474 -0.059 0.035 0.41 0.045 -0.23 0.293 -0.437 0.58 -0.681 0.872 -0.744 1.123 -0.669 1.115 -0.166 1.151 -0.018 0.819 0.036 0.267 0.134 0.002 0.324 0 0.711 -0.117 0.842 -0.529 0.914 -0.867 1.251 -1.232 1.324 -1.23 1.167 -0.96 0.735 -0.701 0.015 -0.196 0.015 -0.154 -0.145 -0.138 -0.624 -0.018 -0.937 -0.176 -1.299" />
    <path class="write-flat-pen" transform="translate(-128.918,22.105)" fill="#000000" stroke-width="1.6" __comx="344.955" __comy="254.608" __timestamp="0x18148c9c5c1" d="M465.118 232.398 l-0.189 0.562 -0.032 0.648 0.041 1.003 0.109 1.283 0.178 1.389 0.186 1.346 0.267 1.181 0.429 0.921 0.403 0.549 0.603 0.218 0.8 0 0.689 -0.619 0.707 -1.086 0.52 -1.18 0.569 -1.168 0.371 -1.031 0.372 -0.735 0.186 -0.449 0.013 -0.019 -0.181 0.082 -0.335 0 0.149 0.159 0.463 0.802 0.656 1.149 0.879 0.984 0.894 0.875 1 0.582 1.028 0.401 1.072 0.065 1.01 0.002 1.142 -0.368 0.968 -1.008 0.811 -1.099 0.738 -1.334 0.6 -1.507 0.402 -1.512 0.201 -1.573 0.001 -1.302 0.003 -0.859 0.008 -0.946 -0.901 -0.422 -0.654 -0.01 -0.682 0 -0.664 0.367 -0.331 0.746 0.045 0.55 0.109 0.578 0.775 0.664 0.492 -0.389 -0.248 -0.629 0.109 -0.224 0.045 -0.252 0.049 -0.055 -0.03 0.023 0.332 0 0.36 -0.01 -0.14 -0.078 0.008 0.085 0.003 0.859 0.001 1.218 -0.179 1.404 -0.359 1.352 -0.541 1.357 -0.656 1.186 -0.71 0.962 -0.68 0.71 -0.632 0.205 -0.765 0.002 -0.83 -0.049 -0.746 -0.286 -0.775 -0.449 -0.754 -0.729 -0.769 -0.848 -0.612 -1.027 -0.551 -0.916 -0.612 -0.643 -0.461 0 -0.434 0.196 -0.241 0.439 -0.194 0.468 -0.388 0.754 -0.389 1.03 -0.571 1.123 -0.495 1.11 -0.56 0.861 -0.198 0.183 -0.087 0 -0.031 -0.011 -0.104 -0.138 -0.332 -0.682 -0.24 -0.995 -0.195 -1.288 -0.202 -1.36 -0.144 -1.237 -0.086 -0.944 -0.032 -0.612 -0.189 -0.562" />
    <path class="write-flat-pen" transform="translate(-128.918,22.105)" fill="#000000" stroke-width="1.6" __comx="361.683" __comy="254.608" __timestamp="0x18148c9c71b" d="M488.605 234.605 l-0.035 1.104 -0.066 0.744 -0.066 0.802 -0.04 0.776 0.062 0.74 0.435 0.71 0.677 0.209 0.689 0.004 0.862 -0.085 0.748 -0.976 0.616 -0.989 0.435 -1.115 0.07 -1.144 0 -1.049 0.001 -1.018 -0.149 -1.022 -0.559 -0.947 -0.636 -0.517 -0.583 -0.321 -0.531 -0.096 -0.429 -0.014 -0.317 -0.013 -0.564 -0.006 -0.512 0.573 -0.213 0.386 -0.291 0.437 0 0.324 0.001 0.057 1.384 0 -0.057 -0.692 -1.27 0 -0.057 0.692 1.384 0 0.001 -0.057 0 0.095 0.089 -0.136 0.167 -0.301 -0.005 0.001 -0.057 -0.006 0.317 -0.013 0.331 -0.014 0.229 0.019 0.304 0.137 0.378 0.285 0.328 0.542 0.105 0.696 0.001 0.929 0 1.012 -0.057 0.917 -0.326 0.833 -0.525 0.844 -0.393 0.513 -0.279 0.029 -0.452 0.004 -0.083 -0.02 -0.072 -0.092 -0.065 -0.405 -0.04 -0.713 -0.066 -0.802 -0.066 -0.744 -0.035 -1.104" />
    <path class="write-flat-pen" transform="translate(-128.918,22.105)" fill="#000000" stroke-width="1.6" __comx="373.953" __comy="253.204" __timestamp="0x18148c9daa6" d="M496.693 229.509 l-0.183 -0.336 0.054 -0.201 -0.092 -0.079 0.043 0.024 -0.107 -0.261 -1.144 0.295 -0.061 0.468 1.022 1.262 1.163 1.615 1.164 2.112 0.976 2.263 0.484 2.027 0.243 1.809 -0.001 1.386 0 0.916 0 0.127 0.415 -0.187 -0.177 0.001 -0.335 -0.27 -0.468 -0.88 -0.286 -1.27 -0.001 -1.32 0.379 -1.337 1.092 -1.461 1.45 -1.384 1.529 -1.244 1.638 -1.133 1.668 -0.887 1.602 -0.628 1.78 -0.448 -0.053 -0.378 -1.894 0.062 -1.821 0.403 -1.881 0.831 -1.785 1.158 -1.64 1.276 -1.593 1.479 -1.316 1.746 -0.509 1.755 -0.001 1.658 0.348 1.594 0.673 1.296 0.932 0.76 0.964 0.001 0.668 -0.302 0 -1.018 0 -0.916 -0.001 -1.478 -0.264 -1.97 -0.53 -2.211 -1.052 -2.433 -1.244 -2.24 -1.245 -1.706 -0.753 -0.914 -0.061 0.01 -1.144 0.295 0.02 -0.032 0.043 0.368 0.161 0.035 0.054 0.028 0.772 0.311" />
    <path class="write-flat-pen" transform="translate(-128.918,22.105)" fill="#000000" stroke-width="1.6" __comx="395.527" __comy="250.079" __timestamp="0x18148c9dc49" d="M523.775 234.403 l0.937 0.155 0.38 0.013 0.509 0.037 0.051 -0.903 0.036 -0.917 -0.495 -1.15 -0.835 -1.09 -1 -0.782 -1.11 -0.475 -1.068 -0.07 -1.11 -0.008 -1.147 0.88 -0.848 1.444 -0.723 1.643 -0.721 1.816 -0.462 1.704 -0.34 1.434 -0.078 1.047 -0.007 0.48 -0.007 0.729 1.273 0.009 1.163 -0.834 1.432 -1.294 1.604 -1.569 1.664 -1.796 1.718 -1.96 1.723 -2.021 1.676 -2.156 1.421 -2.217 1.23 -2.164 0.913 -2.062 0.587 -1.708 0.332 -1.198 0.145 -0.835 0.006 -0.287 -1.372 0 -0.022 0.892 -0.437 1.838 -0.389 2.621 -0.324 3.087 -0.001 3.244 0 3.182 0.264 2.898 0.669 2.452 0.577 2.051 0.759 1.903 0.804 -0.231 -0.359 -1.993 -0.438 -2.072 -0.599 -2.358 -0.243 -2.714 0 -3.117 -0.001 -3.17 0.31 -2.983 0.372 -2.533 0.451 -1.942 -0.022 -1.056 -1.372 0 0.006 0.172 -0.108 0.654 -0.302 1.093 -0.554 1.614 -0.861 1.947 -1.179 2.074 -1.368 2.135 -1.62 2.082 -1.7 1.987 -1.704 1.935 -1.632 1.754 -1.565 1.524 -1.357 1.226 -0.738 0.541 0.512 0.009 -0.007 0.615 -0.007 -0.437 0.048 -0.9 0.294 -1.315 0.425 -1.617 0.673 -1.734 0.672 -1.564 0.673 -1.19 0.628 -0.495 0.665 -0.008 0.834 0.045 0.791 0.327 0.774 0.593 0.686 0.857 0.393 0.797 0.036 0.686 0.051 0.013 0.382 0.037 -0.38 0.013 -0.937 0.155" />
    <path class="write-flat-pen" fill="#000000" stroke-width="1.6" __comx="70.038" __comy="375.496" __timestamp="0x18148c9e424" d="M63.709 374.037 l-1.466 -0.017 -0.824 -0.011 -0.267 -0.044 0.333 0.098 0.026 0.256 0.013 0.029 0.545 -0.272 1.339 -0.597 1.764 -0.484 1.879 -0.322 1.719 0.001 1.185 0 0.64 0.655 0.38 1.471 0 2.323 -0.002 2.895 -0.251 3.096 -0.506 3.015 -0.386 2.668 -0.134 2.093 -0.075 1.394 -0.011 0.817 -0.006 0.858 1.622 0.001 1.488 -0.805 1.564 -1.354 1.725 -1.352 1.701 -1.134 2.071 -0.811 -0.212 -0.755 -2.36 0.431 -1.975 1.157 -1.825 1.397 -1.479 1.28 -1.048 0.57 0.1 0.001 -0.006 0.515 -0.011 -0.786 0.052 -1.354 0.12 -2.03 0.375 -2.601 0.509 -3.056 0.256 -3.204 -0.002 -2.947 0 -2.487 -0.507 -1.965 -1.262 -1.292 -1.73 0 -1.831 0.001 -2.051 0.365 -1.912 0.547 -1.449 0.663 -1.229 0.644 0.013 0.717 0.026 0.485 0.587 0.212 0.493 -0.044 0.824 -0.011 1.466 -0.017" />
    <path class="write-flat-pen" fill="#000000" stroke-width="1.6" __comx="91.21" __comy="390.827" __timestamp="0x18148c9e493" d="M88.203 391.293 l0.724 0.078 0.167 0.007 0.374 0.101 0.815 0.178 0.967 0.273 1.17 0.406 1.21 0.634 0.587 -0.867 -1.177 -0.985 -1.365 -0.51 -1.061 -0.3 -0.833 -0.166 -0.513 -0.128 -0.34 0.007 -0.724 0.078" />
    <path class="write-flat-pen" fill="#000000" stroke-width="1.6" __comx="153.387" __comy="426.391" __timestamp="0x18148c9e97f" d="M146.602 443.639 l-1.047 0.621 -0.313 0.102 0.346 -0.041 0.088 0.198 0.014 -1.424 0.002 -2.393 0.126 -3.161 0.564 -3.74 0.698 -4.006 0.636 -4.021 0.511 -3.858 0.319 -3.693 0.127 -3.291 -0.004 -2.875 -0.004 -2.219 -0.221 -1.488 -0.694 -1.065 -0.841 0.005 -0.815 0.231 -0.484 1.531 -0.397 1.96 -0.132 2.462 -0.006 2.993 -0.008 3.483 0.634 4.027 1.144 4.45 1.332 4.432 1.338 3.98 1.298 3.171 1.453 2.127 1.791 0.944 2.033 -0.004 2.114 -1.279 2.036 -2.177 2.06 -3.349 -0.735 -0.488 -2.231 3.113 -1.894 1.947 -1.689 1.011 -1.389 -0.004 -1.251 -0.66 -1.209 -1.767 -1.237 -3.014 -1.324 -3.923 -1.33 -4.387 -1.138 -4.369 -0.634 -3.876 -0.008 -3.389 -0.006 -2.963 0.121 -2.349 0.364 -1.82 0.276 -0.874 0.072 0.002 0.047 0.005 0.194 0.31 0.159 1.146 -0.004 2.133 -0.004 2.852 -0.126 3.238 -0.314 3.637 -0.504 3.816 -0.632 3.996 -0.697 4.011 -0.576 3.82 -0.128 3.253 0.002 2.417 0.014 1.554 0.215 0.771 0.726 -0.041 0.574 -0.242 1.073 -0.772" />
    <path class="write-flat-pen" fill="#000000" stroke-width="1.6" __comx="177.092" __comy="429.521" __timestamp="0x18148c9eb15" d="M166.03 426.979 l-0.013 2.102 0.128 2.083 0.174 2.427 0.301 2.353 0.173 2.069 0.247 1.721 0.361 1.281 0.737 0.766 1.067 0 1.114 -0.619 1.116 -1.832 1.038 -2.176 0.889 -2.459 0.627 -2.223 0.379 -1.809 0.201 -1.149 0.001 -0.623 -1.114 0.251 0.161 0.355 0.426 1.631 0.761 2.272 1.029 2.58 1.317 2.276 1.54 1.711 1.666 1.202 1.653 0.463 1.498 0.009 1.546 -0.065 1.245 -1.261 0.967 -1.432 0.625 -1.625 0.274 -1.669 0.001 -1.487 0.001 -1.374 0 -1.336 -0.531 -1.301 -0.74 -0.934 -0.857 -0.692 -0.926 -0.255 -0.67 0.102 -0.973 0.246 0 0.551 0.973 0.246 0.471 0.102 0.468 0.204 0.538 0.454 0.528 0.669 0.357 0.875 0 1.069 0.001 1.374 0.001 1.376 -0.233 1.423 -0.516 1.353 -0.807 1.203 -0.783 0.801 -0.989 0.049 -1.29 0.009 -1.263 -0.339 -1.376 -0.974 -1.376 -1.496 -1.218 -2.076 -0.999 -2.459 -0.76 -2.194 -0.462 -1.691 -0.219 -0.447 -1.114 0.251 0.001 0.522 -0.179 1.027 -0.382 1.742 -0.641 2.129 -0.886 2.352 -0.991 2.062 -0.912 1.489 -0.534 0.297 -0.2 0 -0.15 -0.15 -0.273 -0.895 -0.26 -1.6 -0.207 -2.054 -0.333 -2.342 -0.206 -2.383 -0.125 -2.04 -0.013 -2.068" />
    <path class="write-flat-pen" fill="#000000" stroke-width="1.6" __comx="144.969" __comy="469.077" __timestamp="0x18148c9f0cc" d="M148.519 460.742 l0.065 -1.153 0.049 -0.802 0.044 -0.744 0.045 -0.515 0.029 -0.537 -0.265 -0.531 -0.727 -0.02 -0.416 0.717 -0.284 1.513 -0.515 2.272 -0.705 2.971 -0.827 3.432 -0.893 3.611 -0.764 3.382 -0.697 2.969 -0.566 2.209 -0.495 1.565 -0.311 0.788 -0.063 0.18 1.237 0.221 -0.011 -0.057 -0.023 -1.356 0.511 -2.159 0.793 -3 0.759 -3.384 -0.605 -0.164 -1.053 3.292 -0.982 2.955 -0.63 2.308 -0.023 1.508 -0.011 0.057 1.237 0.221 0.063 -0.164 0.323 -0.816 0.519 -1.642 0.575 -2.258 0.697 -2.987 0.757 -3.376 0.882 -3.605 0.821 -3.44 0.69 -2.985 0.499 -2.309 0.223 -1.35 -0.036 0.029 -0.6 -0.02 -0.138 -0.302 0.029 0.265 0.045 0.515 0.044 0.744 0.049 0.802 0.065 1.153" />
    <path class="write-flat-pen" fill="#000000" stroke-width="1.6" __comx="150.283" __comy="469.077" __timestamp="0x18148c9f1f0" d="M146.17 463.733 l0.749 -0.033 0.603 0.023 0.687 0.301 0.987 0.675 1.074 0.896 1.032 1.128 1.02 1.158 0.77 1.403 0.599 1.528 0.359 1.631 0.122 1.769 0.002 1.583 0.01 1.318 -0.238 0.654 -0.403 0.278 -0.582 0.042 -0.88 -0.384 -1.087 -1.042 -1.225 -1.252 -1.276 -1.21 -1.058 -1.011 -0.791 -0.725 -0.36 -0.414 0.059 -0.036 0.042 0.059 0.016 0.167 0.427 -0.234 1.045 -0.699 1.355 -0.989 1.482 -1.223 1.51 -1.378 1.488 -1.242 1.585 -1.587 -0.574 -0.636 -1.713 1.393 -1.555 1.163 -1.533 1.371 -1.434 1.183 -1.307 0.958 -0.983 0.675 -0.967 0.567 0.016 0.511 0.042 0.288 0.312 0.307 0.528 0.388 0.857 0.649 1.097 0.936 1.26 1.195 1.183 1.268 1.068 1.249 1.148 0.647 1.066 0.042 0.992 -0.524 0.522 -1.179 0.01 -1.545 0.002 -1.624 -0.131 -1.896 -0.402 -1.805 -0.669 -1.679 -0.878 -1.575 -1.135 -1.247 -1.123 -1.163 -1.208 -0.937 -1.168 -0.699 -0.961 -0.272 -0.791 0.023 -0.783 0.164" />
    <path class="write-flat-pen" fill="#000000" stroke-width="1.6" __comx="165.508" __comy="469.077" __timestamp="0x18148c9f2d1" d="M159.11 460.298 l-0.322 0.551 -0.021 0.845 0.172 1.257 0.302 1.733 0.364 1.896 0.428 2.293 0.437 2.281 0.654 1.939 0.87 1.526 1.256 0.762 1.372 0.002 1.635 -0.532 1.459 -1.318 1.414 -1.524 1.166 -1.397 1.014 -1.157 0.937 -1.539 -0.417 -0.346 -1.31 1.168 -1.141 1.019 -1.242 1.352 -1.374 1.454 -1.203 1.087 -1.154 0.384 -0.783 0.002 -0.645 -0.384 -0.651 -1.109 -0.613 -1.726 -0.451 -2.186 -0.46 -2.288 -0.396 -1.884 -0.331 -1.703 -0.208 -1.148 -0.021 -0.758 -0.322 -0.551" />
    <path class="write-flat-pen" fill="#000000" stroke-width="1.6" __comx="186.785" __comy="469.077" __timestamp="0x18148c9f5c6" d="M180.13 462.851 l-0.917 -0.047 -0.02 0.737 -0.027 1.235 0.233 2.016 0.618 2.459 0.814 2.621 0.951 2.354 1.054 1.948 1.251 1.289 1.433 0.374 1.668 -0.213 1.469 -1.912 1.37 -2.412 1.289 -2.785 1.152 -2.776 0.895 -2.484 0.712 -2.113 0.33 -1.771 -0.029 -1.381 -0.053 -1.263 -1.724 -0.499 -0.312 0.806 0.857 0.501 -0.053 0.455 -0.029 1.254 -0.304 1.551 -0.682 2.01 -0.88 2.441 -1.13 2.722 -1.247 2.713 -1.292 2.284 -1.066 1.409 -0.867 0.131 -0.848 -0.198 -0.903 -0.887 -0.974 -1.717 -0.951 -2.228 -0.834 -2.533 -0.649 -2.351 -0.274 -1.878 -0.027 -1.17 -0.02 0.164 0.017 -0.047" />
    <path class="write-flat-pen" fill="#000000" stroke-width="1.6" __comx="149.507" __comy="501.163" __timestamp="0x18148ca00ff" d="M145.015 499.34 l-0.627 -0.948 -0.485 -0.853 -0.396 -0.869 -0.33 -0.801 -0.222 -0.714 -0.206 -0.459 -0.052 -0.323 -0.146 -0.176 -0.842 0.52 0.113 0.545 0.85 1.382 1.108 1.995 1.238 2.434 1.121 2.77 1.005 2.843 0.876 2.719 0.62 2.588 0.371 2.42 0.184 1.957 -0.001 1.632 -0.001 1.088 0 0.63 0.001 0.172 1.238 0 -0.012 -0.687 -0.018 -1.203 -0.012 -1.477 0.052 -1.457 0.409 -1.276 0.4 -0.935 0.612 -0.756 0.639 -0.53 0.694 -0.241 0.732 -0.153 0.829 0.001 0.511 0.001 0.352 0.392 0.365 0.716 0.161 1.011 -0.007 1.327 -0.004 1.36 -0.065 1.195 -0.386 0.884 -0.414 0.635 -0.216 0.313 0.028 -0.006 0.843 0.544 -0.071 -0.133 -0.014 -0.744 0.554 -1.273 -0.211 -0.147 -1.114 1.114 -0.267 0.974 -0.071 0.21 0.843 0.544 0.282 -0.121 0.418 -0.604 0.474 -0.739 0.501 -1.178 0.062 -1.439 -0.004 -1.388 -0.007 -1.422 -0.22 -1.279 -0.522 -1.002 -0.789 -0.868 -1.01 0.001 -0.945 0.001 -0.916 0.191 -0.954 0.331 -0.882 0.729 -0.783 0.962 -0.487 1.126 -0.478 1.473 -0.075 1.635 -0.012 1.501 -0.018 1.203 -0.012 0.687 1.238 0 0.001 -0.172 0 -0.63 -0.001 -1.088 -0.001 -1.69 -0.197 -2.051 -0.39 -2.505 -0.648 -2.681 -0.898 -2.779 -1.024 -2.884 -1.16 -2.842 -1.298 -2.491 -1.173 -2.014 -0.798 -1.252 -0.141 -0.371 -0.842 0.52 -0.019 -0.061 0.075 0.135 0.301 0.457 0.285 0.66 0.43 0.802 0.491 0.849 0.529 0.865 0.661 0.945" />
    <path class="write-flat-pen" fill="#000000" stroke-width="1.6" __comx="169.846" __comy="511.556" __timestamp="0x18148ca021d" d="M162.5 515.323 l1.322 0.265 0.983 0.161 1.04 0.055 1.273 0.041 1.157 -0.944 1.074 -1.315 0.984 -1.474 0.855 -1.605 0.532 -1.441 0.27 -1.104 0.066 -0.756 -0.005 -0.746 -0.597 -0.359 -0.98 0.009 -1.07 0 -1.22 0.548 -1.068 1.09 -0.899 1.418 -0.618 1.767 -0.343 2.08 -0.141 2.108 -0.01 2.023 -0.007 1.821 0.791 1.441 1.184 0.687 1.347 -0.001 1.59 -0.523 1.746 -1.339 1.761 -1.565 1.623 -1.339 2.054 -1.33 -0.365 -0.65 -2.272 1.097 -1.8 1.295 -1.789 1.528 -1.55 1.181 -1.199 0.393 -0.808 -0.001 -0.591 -0.343 -0.477 -0.85 -0.007 -1.5 -0.01 -1.986 0.113 -2.015 0.291 -1.928 0.522 -1.555 0.749 -1.216 0.833 -0.857 0.808 -0.369 0.831 0 0.668 0.009 -0.217 -0.13 -0.005 0.056 -0.061 0.618 -0.237 0.958 -0.482 1.307 -0.792 1.487 -0.918 1.389 -0.955 1.205 -0.745 0.66 -0.882 0.041 -0.988 0.055 -0.918 -0.068 -1.309 -0.21" />
    <path class="write-flat-pen" fill="#000000" stroke-width="1.6" __comx="189.611" __comy="510.852" __timestamp="0x18148ca0399" d="M187.173 509.781 l-0.175 -1.275 -0.113 -1.017 -0.043 -1.106 -0.187 -0.95 -0.139 -0.713 -0.403 -0.399 -0.637 -0.032 -0.614 0.606 -0.485 1.233 -0.71 1.725 -0.719 2.07 -0.769 2.222 -0.771 2.063 -0.578 1.773 -0.436 1.16 -0.306 0.609 -0.005 0.309 1.078 0.344 0.563 -0.793 0.991 -1.288 1.221 -1.346 1.192 -1.088 1.14 -0.623 1.067 -0.257 0.972 0 0.935 0.358 0.94 1.464 1.031 2.615 0.923 3.395 0.935 4.224 0.939 4.412 0.946 4.237 0.76 3.619 0.702 2.711 0.52 1.873 0.483 1.18 0.61 0.892 1.074 -0.053 0.034 -1.016 -0.624 -0.173 -0.265 0.066 0.44 -0.053 -0.151 -0.254 -0.404 -0.996 -0.494 -1.792 -0.692 -2.673 -0.761 -3.597 -0.955 -4.238 -0.962 -4.407 -0.967 -4.252 -0.979 -3.477 -1.124 -2.768 -1.215 -1.858 -1.473 -0.559 -1.31 0 -1.342 0.316 -1.396 0.751 -1.343 1.203 -1.315 1.403 -1.038 1.346 -0.578 0.81 1.078 0.344 -0.005 -0.035 0.201 -0.422 0.452 -1.245 0.563 -1.778 0.75 -2.06 0.752 -2.244 0.675 -2.053 0.685 -1.711 0.402 -1.057 0.146 -0.195 -0.13 -0.032 -0.023 -0.056 0.115 0.433 0.193 0.883 0.084 1.07 0.14 1.044 0.178 1.281" />
    <path class="write-flat-pen" fill="#000000" stroke-width="1.6" __comx="258.015" __comy="482.129" __timestamp="0x18148ca096b" d="M261.81 462.704 l-0.698 -0.365 -0.638 -0.006 -0.627 -0.005 -0.808 0.193 -0.953 0.48 -1.1 0.618 -1.301 0.736 -1.56 1.094 -1.86 1.435 -2.24 1.844 -2.482 2.298 -2.723 2.46 -2.787 2.517 -2.649 2.335 -2.578 2.041 -2.396 1.707 -2.019 1.418 -1.696 1.074 -1.323 0.792 -0.839 0.485 -0.551 0.194 -0.37 0.081 -0.182 0.159 0.107 0.967 0.493 0.285 1 0.622 1.704 1.092 2.41 1.555 3.109 1.899 3.865 2.356 4.628 2.756 5.074 2.985 5.463 3.104 5.595 2.93 5.158 2.533 4.794 2.021 4.168 1.39 3.54 0.871 3.056 0.468 2.585 -0.006 2.244 -0.023 1.787 -1.047 0.389 -2.108 -0.25 -0.095 -0.974 1.463 -1.255 0.557 -1.939 -0.023 -2.486 -0.006 -2.901 -0.448 -3.432 -0.847 -4.071 -1.359 -4.713 -1.987 -5.11 -2.507 -5.56 -2.912 -5.439 -3.081 -5.067 -2.971 -4.626 -2.741 -3.867 -2.34 -3.102 -1.88 -2.407 -1.538 -1.719 -1.084 -1.028 -0.638 -0.521 -0.287 0.107 0.967 -0.055 0.045 0.137 -0.034 0.717 -0.264 0.936 -0.546 1.339 -0.812 1.727 -1.103 2.037 -1.446 2.421 -1.729 2.62 -2.082 2.675 -2.361 2.791 -2.523 2.728 -2.465 2.462 -2.283 2.197 -1.821 1.816 -1.428 1.482 -1.082 1.235 -0.753 1.055 -0.641 0.821 -0.437 0.586 -0.15 0.514 -0.005 0.503 -0.006 0.654 0.042" />
    <path class="write-flat-pen" fill="#000000" stroke-width="1.6" __comx="293.042" __comy="482.129" __timestamp="0x18148ca0cbc" d="M299.887 474.429 l0.01 -1.153 0.074 -0.718 0.173 -0.574 0.247 -0.57 0.111 -0.469 0.096 -0.229 0.123 -0.213 0.046 -0.148 -0.78 -0.503 -0.449 0.09 -1.07 0.597 -1.427 0.994 -1.642 1.197 -1.894 1.254 -1.84 1.26 -1.725 1.152 -1.566 1.179 -1.324 1.256 -1.021 1.23 -0.657 1.256 -0.148 1.134 0.001 1.082 0.73 1.245 1.589 1.184 1.878 1.169 2.143 1.173 2.217 0.88 2.067 0.637 1.741 0.461 1.3 0.278 0.661 0.247 0.018 0.011 0.001 -0.02 0.001 0.278 -0.231 0.268 -0.828 0.548 -0.974 0.414 -0.825 0.199 -0.684 0.005 0.163 0.03 -0.079 -0.023 -0.177 -1.611 -0.702 0 -0.177 1.611 -0.079 1.237 1.05 0.03 0.837 0.005 1.077 -0.259 1.181 -0.502 1.073 -0.712 0.657 -0.763 0.001 -0.753 0.001 -0.707 -0.742 -0.447 -0.86 -0.326 -1.362 -0.294 -1.682 -0.456 -1.99 -0.623 -2.093 -0.837 -2.04 -1.118 -1.798 -1.121 -1.327 -0.993 -0.411 -0.703 0.001 -0.636 0.106 -0.813 0.484 -0.92 0.88 -1.061 1.211 -1.149 1.476 -1.111 1.698 -1.139 1.836 -1.26 1.909 -1.266 1.654 -1.208 1.362 -0.953 0.958 -0.548 0.311 -0.253 -0.78 -0.503 0.046 -0.033 -0.004 0.131 -0.03 0.343 -0.016 0.447 -0.134 0.576 -0.08 0.686 0.074 0.771 0.01 1.153" />
    <path class="write-flat-pen" fill="#000000" stroke-width="1.6" __comx="311.435" __comy="482.129" __timestamp="0x18148ca0d67" d="M305.046 484.913 l1.181 0.357 1.149 0.001 1.46 0.005 1.762 -0.425 1.849 -0.835 1.681 -0.997 1.534 -1.009 1.166 -0.926 0.787 -0.947 0.21 -1.189 -0.356 -0.131 -0.555 0.885 -0.734 0.656 -1.116 0.792 -1.509 0.938 -1.615 0.95 -1.701 0.768 -1.534 0.377 -1.329 0.005 -1.006 0.001 -1.061 -0.251" />
    <path class="write-flat-pen" fill="#000000" stroke-width="1.6" __comx="317.578" __comy="482.129" __timestamp="0x18148ca0e3a" d="M310.278 476.426 l-0.013 2.291 -0.001 2.245 0.115 2.646 0.758 2.716 0.947 2.578 1.148 2.253 1.205 1.723 1.452 1.06 1.516 0.268 1.443 0.001 1.55 -0.667 1.295 -1.305 1.133 -1.37 0.989 -1.446 1.078 -1.668 -0.226 -0.198 -1.528 1.306 -1.166 1.303 -1.148 1.264 -1.113 1.1 -1.112 0.478 -1.093 0.001 -1.146 -0.19 -1.083 -0.773 -1.077 -1.484 -1.134 -2.099 -0.955 -2.461 -0.764 -2.553 -0.138 -2.508 -0.001 -2.222 -0.013 -2.291" />
    <path class="write-flat-pen" fill="#000000" stroke-width="1.6" __comx="333.033" __comy="482.129" __timestamp="0x18148ca0f8b" d="M331.052 484.221 l0.071 -0.923 0.007 -0.802 0.009 -1.031 0.008 -1.26 0.003 -1.254 -0.517 -1.022 -0.665 -0.692 -0.698 -0.1 -0.961 -0.043 -0.84 1.32 -0.67 1.789 -0.656 2.329 -0.529 2.492 -0.394 2.416 -0.329 1.965 -0.136 1.397 -0.071 0.773 -0.005 0.256 1.103 0.425 0.584 -0.642 1.029 -1.278 1.202 -1.547 1.173 -1.465 1.069 -1.079 0.974 -0.641 0.9 -0.144 0.896 -0.001 0.967 0.69 1.005 1.337 0.993 1.572 0.853 1.485 0.894 0.943 0.865 0.391 1.052 -0.004 0.57 -1.513 0.576 -2.433 -0.841 -0.246 -0.811 2.303 -0.318 0.663 0.038 -0.004 -0.402 -0.182 -0.627 -0.66 -0.795 -1.378 -1.036 -1.635 -1.15 -1.527 -1.441 -1.028 -1.386 -0.001 -1.255 0.199 -1.307 0.848 -1.212 1.211 -1.236 1.512 -1.207 1.545 -0.999 1.242 -0.557 0.618 1.103 0.425 -0.005 -0.202 0.056 -0.716 0.118 -1.352 0.305 -1.929 0.367 -2.395 0.485 -2.433 0.612 -2.252 0.597 -1.647 0.427 -0.741 0.307 -0.043 0.316 0.014 0.35 0.339 0.37 0.696 0.003 1.036 0.008 1.26 0.009 1.031 0.007 0.802 0.071 0.923" />
    <path class="write-flat-pen" fill="#000000" stroke-width="1.6" __comx="345.392" __comy="482.129" __timestamp="0x18148ca106b" d="M341.603 463.64 l0.044 -0.501 -0.975 0 -0.079 0.057 -0.022 1.051 0.114 1.86 0.242 2.819 0.374 3.506 0.506 3.919 0.765 4.048 0.963 3.712 1.037 2.927 1.077 2.116 1.159 1.236 1.245 0.19 1.279 -0.244 0.884 -2.114 -0.484 -0.258 -1.022 1.463 -0.622 -0.015 -0.657 -0.154 -0.742 -0.825 -0.952 -1.893 -0.991 -2.799 -0.939 -3.618 -0.757 -3.97 -0.508 -3.869 -0.387 -3.48 -0.265 -2.793 -0.14 -1.805 -0.022 -1.01 -0.079 -0.057 -0.975 0 0.044 0.501" />
    <path class="write-flat-pen" fill="#000000" stroke-width="1.6" __comx="354.528" __comy="482.129" __timestamp="0x18148ca111f" d="M349.378 456.01 l0.116 0.977 0.617 1.673 0.921 2.442 0.989 3.505 0.932 4.55 0.878 5.202 0.951 5.504 1.082 5.692 1.355 5.402 1.544 5.119 0.914 -0.247 -1.238 -5.187 -1.307 -5.364 -1.073 -5.647 -0.95 -5.491 -0.896 -5.221 -0.97 -4.613 -1.04 -3.596 -0.981 -2.483 -0.651 -1.534 -0.172 -0.845" />
    <path class="write-flat-pen" fill="#000000" stroke-width="1.6" __comx="72.671" __comy="617.935" __timestamp="0x18148ca1a69" d="M67.616 616.142 l-0.133 -0.667 -0.452 0.844 0.732 -0.008 1.389 -0.175 1.863 -0.405 2.027 -0.456 1.863 -0.392 1.465 -0.11 0.549 -0.001 -0.095 -0.118 0 0.726 -0.566 1.318 -1.407 1.762 -1.693 1.927 -1.828 1.877 -1.574 1.589 -1.223 1.098 -0.659 0.756 -0.47 0.495 -0.006 0.868 1.219 0.002 1.268 0.001 1.521 0 1.648 -0.001 1.648 -0.002 1.4 -0.003 0.942 0.188 0.425 0.348 0.139 0.714 0 1.228 -0.524 1.624 -1.148 1.908 -1.478 1.779 -1.412 1.441 -1.132 0.861 -0.586 0.324 -0.529 0.092 0 0.96 0.812 0.092 0.935 -0.478 1.277 -0.971 1.504 -1.537 1.564 -1.886 1.26 -2.101 0.617 -1.927 0 -1.521 -0.241 -1.233 -0.97 -0.798 -1.339 -0.271 -1.516 -0.003 -1.648 -0.002 -1.648 -0.001 -1.521 0 -1.268 0.001 -0.049 0.002 -0.006 0.754 0.164 -0.193 0.609 -0.733 1.185 -1.078 1.595 -1.618 1.848 -1.902 1.729 -1.968 1.509 -1.903 0.702 -1.66 0 -1.336 -0.475 -0.577 -1.099 -0.001 -1.577 0.119 -1.94 0.41 -2.03 0.46 -1.813 0.397 -1.273 0.169 -0.663 -0.008 -0.452 0.844 0.563 0.381" />
    <path class="write-flat-pen" fill="#000000" stroke-width="1.6" __comx="84.134" __comy="632.742" __timestamp="0x18148ca1aea" d="M82.185 632.714 l0.561 0.709 0.362 0.267 0.54 0.422 0.823 0.428 1.233 0.456 0.379 -0.838 -1.126 -0.61 -0.698 -0.373 -0.474 -0.38 -0.272 -0.191 -0.504 -0.573" />
    <path class="write-flat-pen" fill="#000000" stroke-width="1.6" __comx="155.908" __comy="700.015" __timestamp="0x18148ca2197" d="M148.578 695.161 l0.012 -0.929 0.025 -0.344 0.023 -0.179 -0.074 0.166 0.079 0.007 0.3 0.027 0.385 0.212 0.629 1.067 0.909 1.909 0.986 2.544 0.994 3.119 0.875 3.356 0.815 3.518 0.501 3.463 0.375 3.007 0.124 2.539 -0.002 1.818 0 1.145 -0.001 0.687 0 0.115 1.123 -0.339 -0.087 -0.133 -0.009 -0.96 -0.01 -1.409 0.108 -1.535 0.696 -1.531 0.909 -1.43 0.966 -1.211 0.954 -0.927 0.882 -0.644 0.792 -0.409 0.568 -0.14 0.439 0.001 0.225 0.001 -0.217 -0.126 -0.007 0.484 -0.007 1.215 -0.241 1.477 -0.789 1.692 -0.866 1.722 -1.036 1.423 -0.954 1.07 -0.859 0.613 -0.562 0.271 -0.303 0.039 0.526 0.001 -0.019 0.267 0.248 -0.813 0.801 -1.133 1.007 -1.487 -0.115 -0.115 -1.517 1.033 -1.101 1.158 -0.512 1.134 -0.019 1.183 0.779 0.001 0.584 -0.075 0.833 -0.416 1.043 -0.761 1.074 -1.221 1.119 -1.555 0.909 -1.828 0.859 -1.858 0.266 -1.73 -0.007 -1.305 -0.007 -1.12 -0.598 -0.355 -0.536 0.001 -0.575 0.001 -0.827 0.204 -0.983 0.507 -1.019 0.731 -1.074 1.02 -1.062 1.309 -0.993 1.547 -0.825 1.79 -0.146 1.787 -0.01 1.454 -0.009 1.33 0.293 0.44 1.123 -0.339 0 -0.115 -0.001 -0.687 0 -1.145 -0.002 -1.847 -0.129 -2.615 -0.386 -3.064 -0.513 -3.524 -0.833 -3.583 -0.899 -3.401 -1.034 -3.18 -1.042 -2.61 -0.993 -1.986 -0.892 -1.338 -0.883 -0.361 -0.587 0.027 -0.555 0.121 -0.201 0.395 0.023 0.394 0.025 0.344 0.012 0.929" />
    <path class="write-flat-pen" fill="#000000" stroke-width="1.6" __comx="173.65" __comy="711.707" __timestamp="0x18148ca22da" d="M167.383 716.29 l0.741 0.176 0.57 0.006 0.939 0.028 1.27 -0.577 1.161 -1.094 1.24 -1.342 1.186 -1.537 0.934 -1.688 0.468 -1.462 0.204 -1.117 -0.007 -0.853 -0.001 -0.856 -1.16 -0.375 -1.101 0 -1.416 -0.003 -1.465 0.856 -1.225 1.282 -1.141 1.558 -0.806 1.73 -0.672 1.839 -0.347 1.806 -0.076 1.659 -0.007 1.501 -0.005 1.378 0.919 1.087 1.291 0.292 1.461 0 1.779 -0.709 1.718 -1.318 1.817 -1.444 1.784 -1.319 1.639 -1.033 1.56 -1.13 -0.242 -0.441 -1.796 0.715 -1.784 0.915 -1.892 1.315 -1.859 1.42 -1.578 1.202 -1.39 0.551 -1.074 0 -0.737 -0.167 -0.348 -0.402 -0.005 -0.912 -0.007 -1.477 0.051 -1.548 0.287 -1.63 0.596 -1.711 0.715 -1.592 1.014 -1.42 1.057 -1.124 1.07 -0.633 1.119 -0.003 0.927 0 0.234 0.083 -0.001 0.06 -0.007 0.751 -0.176 0.945 -0.419 1.287 -0.841 1.519 -1.096 1.441 -1.169 1.292 -0.994 0.968 -0.885 0.454 -0.709 0.028 -0.57 0.006 -0.741 0.176" />
    <path class="write-flat-pen" fill="#000000" stroke-width="1.6" __comx="189.307" __comy="709.955" __timestamp="0x18148ca2493" d="M192.139 709.232 l-0.152 -1.248 -0.112 -0.907 -0.016 -0.91 -0.265 -0.792 -0.37 -0.66 -0.591 -0.42 -0.647 -0.169 -0.809 -0.015 -1.004 0.439 -0.986 1.334 -1.035 1.637 -1.029 1.912 -1.024 2.021 -0.834 1.848 -0.647 1.499 -0.388 0.973 -0.239 0.557 -0.002 0.174 1.043 0.368 0.499 -0.596 1.047 -1.052 1.436 -1.297 1.478 -1.224 1.514 -0.934 1.255 -0.569 1.012 -0.054 0.42 -0.001 0.308 0.697 0.177 2.28 -0.006 3.47 -0.005 4.467 -0.006 4.581 -0.006 4.329 0.384 3.561 0.59 2.674 0.756 1.676 0.871 1.1 0.912 -0.013 0.956 -0.374 -0.06 -2.352 -0.821 -0.034 -0.22 1.562 -0.058 -0.03 -0.102 -0.013 -0.397 -0.503 -0.639 -1.417 -0.551 -2.48 -0.376 -3.425 -0.006 -4.261 -0.006 -4.581 -0.005 -4.467 -0.006 -3.517 -0.203 -2.53 -0.706 -1.594 -1.228 -0.001 -1.27 0.061 -1.534 0.691 -1.655 1.013 -1.564 1.295 -1.479 1.338 -1.108 1.125 -0.515 0.664 1.043 0.368 -0.002 0.059 0.141 -0.359 0.373 -0.974 0.621 -1.479 0.813 -1.817 1.005 -1.987 0.999 -1.868 0.993 -1.57 0.788 -1.071 0.517 -0.248 0.459 -0.015 0.368 0.06 0.296 0.153 0.264 0.371 0.242 0.582 0.111 0.808 0.141 0.926 0.192 1.242" />
    <path class="write-flat-pen" fill="#000000" stroke-width="1.6" __comx="157.135" __comy="670.683" __timestamp="0x18148ca2789" d="M152.225 685.754 l-0.028 -1.398 -0.042 -1.531 0.014 -2.223 0.009 -2.686 0.067 -3.067 0.318 -3.37 0.191 -3.504 0.189 -3.608 0.191 -3.617 0.061 -3.439 0.127 -3.155 0 -2.645 0.002 -1.947 0.001 -1.26 0.002 -0.573 -1.083 0 -0.001 1.145 -0.01 2.119 -0.006 2.916 -0.065 3.471 -0.32 3.89 -0.13 3.97 -0.069 3.846 -0.006 3.441 -0.01 2.767 0.539 2.125 0.942 1.399 1.115 0.728 1.384 0.134 1.297 0 1.399 -0.013 1.393 -0.337 1.257 -0.643 1.072 -0.651 1.134 -0.879 -0.383 -0.593 -1.234 0.649 -1.083 0.494 -1.151 0.503 -1.142 0.236 -1.263 -0.013 -1.238 0 -1.024 -0.095 -0.66 -0.418 -0.706 -1.007 -0.476 -1.769 -0.01 -2.616 -0.006 -3.431 0.058 -3.828 0.124 -3.933 0.314 -3.898 0.062 -3.516 -0.006 -2.926 -0.01 -2.119 -0.001 -1.145 -1.083 0 0.002 0.573 0.001 1.26 0.002 1.947 0 2.623 -0.127 3.145 -0.066 3.433 -0.19 3.599 -0.191 3.607 -0.19 3.482 -0.316 3.388 -0.06 3.118 0.009 2.697 0.014 2.244 0.085 1.562 0.154 1.402" />
    <path class="write-flat-pen" fill="#000000" stroke-width="1.6" __comx="176.697" __comy="670.683" __timestamp="0x18148ca292d" d="M165.263 666.411 l-0.354 -0.707 -0.672 -0.047 -0.069 1.145 -0.027 1.317 -0.033 1.833 -0.022 2.056 0.375 2.087 0.507 1.777 0.527 1.349 0.64 0.979 0.681 0.622 0.732 0.168 0.841 0.001 0.892 -0.645 0.768 -1.2 0.831 -1.468 0.751 -1.569 0.69 -1.401 0.427 -1.084 0.304 -0.557 0.138 -0.104 -0.002 0.001 0.404 0.337 0.756 1.24 1.077 1.86 1.422 1.943 1.623 1.831 1.663 1.454 1.789 0.941 1.605 0.323 1.482 0.005 1.501 -0.425 1.191 -1.606 0.878 -2.008 0.532 -2.222 0.197 -2.309 0 -2.089 0.001 -1.857 -0.424 -1.661 -0.834 -1.38 -0.748 -0.915 -0.722 -0.72 -1.132 0.02 0.238 1.675 0.75 0 0.238 -0.449 -0.625 0.02 0.292 0.311 0.646 0.803 0.687 1.14 0.336 1.317 0.001 1.694 0 2.034 -0.184 2.157 -0.482 2.016 -0.77 1.771 -0.837 1.143 -0.907 0.262 -1.18 0.005 -1.31 -0.25 -1.507 -0.777 -1.506 -1.295 -1.546 -1.72 -1.367 -1.837 -1.078 -1.805 -0.892 -1.394 -0.863 -0.693 -0.763 0.001 -0.623 0.469 -0.456 0.818 -0.46 1.092 -0.705 1.348 -0.77 1.524 -0.817 1.396 -0.626 0.976 -0.375 0.271 -0.3 0.001 -0.282 -0.061 -0.333 -0.294 -0.501 -0.739 -0.487 -1.171 -0.507 -1.659 -0.385 -1.922 -0.022 -1.953 -0.033 -1.833 -0.027 -1.317 -0.069 -0.344 -0.545 -0.047 0.21 0.311" />
    <path class="write-flat-pen" fill="#000000" stroke-width="1.6" __comx="228.122" __comy="670.683" __timestamp="0x18148ca2bdf" d="M240.01 667.25 l0.056 -0.736 -0.88 -0.12 -0.162 0.064 -0.615 0.683 -1.002 1.059 -1.26 1.181 -1.45 1.354 -1.687 1.4 -2 1.463 -2.253 1.469 -2.451 1.419 -2.602 1.433 -2.423 1.44 -2.238 1.386 -1.943 1.346 -1.445 1.246 -1.191 1.255 -0.858 1.163 -0.372 1.404 0 1.459 -0.002 1.804 1.03 2.246 1.756 2.534 2.376 2.906 2.952 3.078 3.337 2.9 3.29 2.448 3.109 1.696 2.768 1.221 2.304 0.864 1.912 0.684 1.662 0.561 1.49 0.443 1.748 -0.058 0.043 -0.911 -1.572 -0.216 -1.298 -0.473 -1.634 -0.584 -1.891 -0.691 -2.259 -0.854 -2.683 -1.184 -2.976 -1.626 -3.175 -2.362 -3.254 -2.827 -2.879 -2.992 -2.314 -2.821 -1.667 -2.391 -0.871 -1.877 -0.002 -1.517 0 -1.29 0.262 -1.001 0.663 -0.899 1.091 -1.15 1.344 -1.159 1.86 -1.288 2.199 -1.363 2.394 -1.424 2.595 -1.43 2.492 -1.444 2.31 -1.509 2.057 -1.515 1.736 -1.463 1.466 -1.394 1.275 -1.224 1.026 -1.117 0.779 -0.92 -0.035 -0.394 -0.88 -0.12 0.056 0.736" />
    <path class="write-flat-pen" fill="#000000" stroke-width="1.6" __comx="248.587" __comy="670.683" __timestamp="0x18148ca2e2f" d="M251.939 666.805 l0.044 -0.91 -0.906 -0.19 -0.84 0.197 -1.024 0.491 -1.104 0.587 -1.168 0.703 -0.99 0.656 -0.798 0.656 -0.543 0.817 0.001 0.769 0.003 0.668 0.283 0.937 1.058 0.735 1.112 0.5 1.278 0.363 1.226 0.233 1.044 0.224 0.624 0.189 0.03 0.024 -0.001 0.193 -0.003 0.521 -0.236 0.674 -0.827 0.846 -0.925 0.78 -0.777 0.649 -0.305 0.175 0.622 0.01 -0.14 -0.093 0.558 -1.743 -0.307 -0.164 -1.253 1.656 -0.14 1.625 1.002 0.01 0.709 -0.398 0.871 -0.726 0.976 -0.823 1.075 -1.101 0.398 -1.159 -0.003 -0.739 -0.001 -0.838 -0.73 -0.549 -0.897 -0.269 -1.111 -0.234 -1.183 -0.225 -1.131 -0.324 -0.916 -0.416 -0.59 -0.41 -0.097 -0.323 0.003 -0.477 0.001 -0.376 0.218 -0.328 0.596 -0.49 0.911 -0.604 1.114 -0.672 1.051 -0.558 0.878 -0.425 0.554 -0.147 -0.145 -0.19 0.044 0.014" />
    <path class="write-flat-pen" fill="#000000" stroke-width="1.6" __comx="258.83" __comy="670.683" __timestamp="0x18148ca2ed5" d="M255.259 670.03 l-0.683 -0.046 0.155 1.055 0.459 -0.112 1.075 -0.648 1.338 -0.736 1.491 -0.934 1.395 -1.031 1.225 -0.791 0.886 -0.577 0.638 -0.628 -0.199 -0.396 -0.899 0.143 -1.015 0.454 -1.31 0.812 -1.394 1.03 -1.424 0.899 -1.324 0.753 -0.953 0.612 -0.301 0.118 0.155 1.055 0.683 -0.046" />
    <path class="write-flat-pen" fill="#000000" stroke-width="1.6" __comx="263.781" __comy="670.683" __timestamp="0x18148ca2fae" d="M259.745 661.862 l-0.945 -0.052 -0.019 0.696 -0.033 1.135 -0.084 1.66 -0.018 2.072 -0.016 2.356 0.047 2.406 0.448 2.326 0.654 1.939 0.836 1.399 1.055 0.96 1.255 0.072 1.162 -0.001 1.391 -0.605 1.242 -0.994 1.138 -1.025 1.076 -1.376 -0.147 -0.172 -1.505 0.833 -1.27 0.808 -1.167 0.838 -1.017 0.426 -0.866 -0.001 -0.773 -0.042 -0.593 -0.529 -0.685 -1.12 -0.614 -1.726 -0.439 -2.141 -0.08 -2.29 -0.016 -2.34 -0.018 -2.051 0.043 -1.661 -0.033 -1.155 -0.019 0.238 0.012 -0.052" />
    <path class="write-flat-pen" fill="#000000" stroke-width="1.6" __comx="274.844" __comy="670.683" __timestamp="0x18148ca3107" d="M274.615 667.979 l-0.101 -0.815 0.007 -0.397 -0.051 -0.607 -0.341 -0.565 -0.501 -0.481 -0.508 -0.196 -0.829 -0.01 -1.048 0.616 -0.911 1.76 -1.035 2.216 -0.843 2.504 -0.654 2.226 -0.275 1.803 -0.01 1.019 -0.01 1.152 0.763 0.003 0.995 0 1.201 -1.017 1.416 -1.283 1.34 -1.412 1.063 -1.213 0.98 -1.021 0.521 -0.479 0.365 -0.11 0.107 0 0.047 0.063 0.253 0.932 0.231 1.348 0.241 1.392 0.262 1.159 0.369 0.877 0.565 0.715 0.72 -0.002 0.946 -0.095 1.053 -1.073 1.243 -1.954 -0.616 -0.472 -1.51 1.639 -0.721 0.645 -0.448 0.02 -0.041 -0.002 -0.069 -0.087 -0.265 -0.612 -0.245 -1.017 -0.266 -1.357 -0.276 -1.401 -0.38 -1.244 -0.587 -0.624 -0.781 0 -0.776 0.234 -0.747 0.666 -1.048 1.041 -1.092 1.192 -1.322 1.337 -1.373 1.237 -0.827 0.701 -0.526 0 0.509 0.003 -0.01 0.121 -0.01 -0.928 0.232 -1.633 0.613 -2.126 0.805 -2.421 0.993 -2.136 0.737 -1.447 0.473 -0.3 0.311 -0.01 0.125 0.033 0.259 0.206 0.166 0.237 0.076 0.309 0.007 0.405 0.167 0.88" />
    <path class="write-flat-pen" fill="#000000" stroke-width="1.6" __comx="286.595" __comy="670.683" __timestamp="0x18148ca31f3" d="M284.467 647.572 l-0.082 2.326 -0.005 2.643 -0.015 3.207 -0.008 3.493 -0.006 3.555 0.053 3.412 0.381 3.133 0.451 2.621 0.522 1.754 0.365 1.085 0.559 0.574 0.696 -0.04 0.653 -0.601 0.808 -1.735 -0.455 -0.252 -0.965 1.468 -0.361 0.2 0.062 -0.04 -0.075 -0.113 -0.269 -0.862 -0.492 -1.682 -0.436 -2.533 -0.38 -3.052 -0.074 -3.346 -0.006 -3.546 -0.008 -3.493 -0.015 -3.207 -0.005 -2.626 0.078 -2.31" />
    <path class="write-flat-pen" fill="#000000" stroke-width="1.6" __comx="295.648" __comy="670.683" __timestamp="0x18148ca32a3" d="M293.7 646.814 l-0.299 0.638 0.055 1.976 0.362 3.163 0.317 3.95 0.508 4.479 0.647 4.869 0.658 4.989 0.946 5.084 0.832 4.732 0.167 -0.018 -0.2 -4.827 -0.828 -5.11 -0.609 -4.975 -0.621 -4.866 -0.506 -4.455 -0.317 -3.953 -0.398 -3.136 -0.072 -1.918 -0.299 -0.623" />
    <path class="write-flat-pen" fill="#000000" stroke-width="1.6" __comx="255.1" __comy="712.018" __timestamp="0x18148ca357a" d="M258.662 705.663 l0.187 -0.723 0.042 -0.401 0.06 -0.188 0.036 0.032 0.065 0.024 0.172 -0.033 -0.658 -0.713 -0.1 -0.039 -0.674 0.525 -1.051 0.773 -1.292 0.83 -1.372 0.728 -1.404 0.747 -1.211 0.691 -1.032 0.583 -0.784 0.515 -0.546 0.593 0.001 0.487 0.005 0.677 0.964 0.682 1.354 0.61 1.674 0.58 1.775 0.623 1.742 0.615 1.445 0.706 1.059 0.743 0.592 0.578 0.135 0.61 -0.001 0.848 -0.002 0.833 -0.629 0.9 -0.826 0.96 -0.849 0.666 -0.666 0.33 -0.365 0.067 0.296 0.08 -0.176 -0.34 -0.679 0 -0.176 1.371 0.803 0.08 0.649 -0.047 0.982 -0.472 1.053 -0.823 0.948 -1.102 0.892 -1.276 -0.002 -1.229 -0.001 -0.985 -0.245 -1.108 -0.93 -0.911 -1.222 -0.861 -1.598 -0.783 -1.807 -0.645 -1.775 -0.636 -1.622 -0.566 -1.182 -0.535 -0.304 -0.234 0.005 -0.01 0.001 0.029 0.088 -0.094 0.611 -0.401 0.996 -0.563 1.197 -0.684 1.385 -0.742 1.416 -0.761 1.37 -0.888 1.104 -0.83 0.847 -0.735 0.027 -0.268 -0.658 -0.713 -0.082 0.081 -0.315 0.139 -0.218 0.49 0.06 0.385 0.042 0.401 0.187 0.723" />
    <path class="write-flat-pen" fill="#000000" stroke-width="1.6" __comx="267.215" __comy="712.018" __timestamp="0x18148ca361f" d="M261.852 714.904 l0.797 0.064 0.816 -0.059 1.11 -0.818 1.307 -1.093 1.478 -1.439 1.532 -1.498 1.345 -1.446 1.059 -1.199 0.827 -0.884 0.456 -1.165 -0.656 -0.363 -0.668 0.865 -0.821 0.72 -1.096 1.206 -1.317 1.417 -1.51 1.48 -1.437 1.425 -1.229 1.083 -0.791 0.671 -0.452 0.056 -0.751 0.064" />
    <path class="write-flat-pen" fill="#000000" stroke-width="1.6" __comx="275.086" __comy="712.018" __timestamp="0x18148ca3709" d="M266.759 703.25 l-0.071 0.689 0.104 1.187 0.624 1.722 0.675 2.118 0.811 2.359 0.816 2.361 0.83 2.168 0.934 1.771 1.093 1.189 1.259 0.57 1.231 0 1.438 -0.073 1.38 -1.197 1.282 -1.306 1.235 -1.481 1.121 -1.375 0.964 -1.162 1 -1.078 -0.117 -0.147 -1.302 0.758 -1.191 1.014 -1.287 1.259 -1.301 1.383 -1.253 1.214 -1.028 0.864 -0.971 0.042 -0.924 0 -0.769 -0.346 -0.809 -0.873 -0.841 -1.55 -0.818 -2.07 -0.831 -2.334 -0.837 -2.337 -0.72 -2.119 -0.644 -1.599 -0.15 -0.989 -0.071 -0.63" />
    <path class="write-flat-pen" fill="#000000" stroke-width="1.6" __comx="288.279" __comy="712.018" __timestamp="0x18148ca3853" d="M285.975 710.364 l0.458 -0.078 0.246 -0.257 0.085 -0.164 0.063 -0.233 -0.117 -0.615 -0.657 -0.346 -0.479 -0.313 -0.667 -0.23 -0.668 0 -0.832 -0.001 -1.016 0.763 -0.848 1.465 -0.728 1.964 -0.587 2.212 -0.53 2.278 -0.214 1.958 -0.011 1.406 -0.006 0.802 0 0.882 1.39 0.003 1.099 -0.359 1.311 -1.062 1.281 -1.18 1.242 -1.263 1.232 -1.02 0.968 -0.771 0.811 -0.441 0.677 -0.094 0.507 0.001 0.438 0.364 0.547 1.067 0.483 1.345 0.512 1.35 0.546 1.121 0.635 0.789 0.699 0.36 0.96 -0.011 0.814 -0.517 0.904 -1.462 0.568 -2.056 -0.332 -0.147 -1.101 1.713 -0.871 1.058 -0.326 0.17 -0.308 -0.011 -0.188 -0.099 -0.379 -0.471 -0.468 -0.941 -0.502 -1.284 -0.531 -1.404 -0.72 -1.338 -0.956 -0.781 -1.014 0.001 -0.971 0.135 -1.091 0.59 -1.06 0.833 -1.304 1.041 -1.293 1.256 -1.255 1.111 -1.097 0.885 -0.675 0.213 0.122 0.003 0 0.424 -0.006 -0.802 -0.011 -1.343 0.167 -1.822 0.484 -2.189 0.554 -2.14 0.666 -1.816 0.673 -1.169 0.505 -0.382 0.436 -0.001 0.473 0 0.347 0.114 0.408 0.26 0.231 0.112 0.01 -0.042 0.063 0.111 0.085 -0.049 0.119 -0.028 -0.167 0.205" />
    <path class="write-flat-pen" fill="#000000" stroke-width="1.6" __comx="300.087" __comy="712.018" __timestamp="0x18148ca3925" d="M296.034 696.845 l0.274 0.041 0.176 0.685 0.414 1.923 0.479 2.733 0.488 3.434 0.627 3.845 0.691 4.071 0.699 3.908 0.764 3.452 0.584 2.447 0.567 1.456 0.571 0.602 1.032 -0.041 0.74 -1.826 -0.778 -0.363 -0.637 1.128 0.145 -0.041 -0.063 -0.086 -0.447 -1.178 -0.557 -2.363 -0.757 -3.42 -0.695 -3.88 -0.703 -4.061 -0.64 -3.829 -0.526 -3.438 -0.535 -2.765 -0.473 -1.971 -0.458 -1.377 -0.981 0.041" />
    <path class="write-flat-pen" fill="#000000" stroke-width="1.6" __comx="308.857" __comy="712.018" __timestamp="0x18148ca39c9" d="M304.497 692.624 l-0.158 1.832 0.492 2.749 0.727 3.945 0.742 5.147 0.945 5.918 1.338 6.505 1.79 6.556 2.158 6.388 0.846 -0.259 -1.777 -6.484 -1.759 -6.501 -1.324 -6.438 -0.956 -5.879 -0.78 -5.161 -0.794 -3.958 -0.523 -2.634 -0.158 -1.727" />
    <path class="write-flat-pen" fill="#000000" stroke-width="1.6" __comx="223.773" __comy="272.02" __timestamp="0x18148cbb707" d="M192.328 279.319 l0.715 -0.629 0.941 -0.478 1.551 -0.549 2.33 -0.671 2.785 -0.728 3.355 -0.841 3.998 -0.887 4.634 -1.126 5.256 -1.252 5.443 -1.2 5.256 -1.081 4.671 -0.909 3.959 -0.511 3.324 -0.227 2.834 -0.008 2.605 -0.002 2.429 -0.064 2.189 -0.186 1.819 -0.297 1.578 -0.441 0.944 -0.476 0.823 -0.704 -0.391 -0.556 -0.873 0.488 -0.831 0.326 -1.464 0.36 -1.73 0.276 -2.121 0.158 -2.388 0.051 -2.592 -0.002 -2.871 -0.008 -3.394 0.231 -4.027 0.52 -4.71 0.924 -5.266 1.095 -5.459 1.205 -5.266 1.267 -4.62 1.165 -3.988 0.945 -3.363 0.877 -2.793 0.761 -2.36 0.703 -1.618 0.597 -1.088 0.553 -0.782 0.723" />
    <path class="write-flat-pen" fill="#000000" stroke-width="1.6" __comx="262.412" __comy="259.471" __timestamp="0x18148cbb7ff" d="M252.535 260.486 l0.417 -0.377 0.506 -0.003 0.951 0 1.36 0.014 1.566 -0.169 1.673 -0.27 2.053 -0.38 2.294 -0.545 2.577 -0.552 2.433 -0.392 1.916 -0.167 1.27 0 0.185 0.061 0 0.955 -0.243 2.097 -1.407 2.984 -1.877 3.471 -1.918 3.277 -1.574 2.782 -1.392 2.456 0.484 0.319 1.716 -2.267 1.722 -2.715 2.011 -3.251 1.926 -3.515 1.509 -3.201 0.264 -2.369 0 -1.908 -1.21 -0.397 -1.519 0 -2.014 0.176 -2.511 0.409 -2.62 0.593 -2.269 0.6 -2.003 0.422 -1.623 0.303 -1.477 0.175 -1.302 0.014 -0.951 0 -0.889 -0.003 -0.701 0.634" />
  </g>
</svg>
