<svg class="write-page" color-interpolation="linearRGB" width="928px" height="1660px" xmlns="http://www.w3.org/2000/svg" xmlns:xlink="http://www.w3.org/1999/xlink">
  <g class="write-content write-v3" xruling="0" yruling="40" marginLeft="100" papercolor="#FFFFFF" rulecolor="#9F000023">
    <g class="ruleline write-std-ruling write-scale-down" fill="none" stroke="#000023" stroke-opacity="0.624" stroke-width="1" shape-rendering="crispEdges" vector-effect="non-scaling-stroke">
      <rect class="pagerect" fill="#FFFFFF" stroke="none" x="0" y="0" width="928" height="1660" />
      <path class="yrule_1" d="M0 40 l928 0" />
      <path d="M0 80 l928 0" />
      <path d="M0 120 l928 0" />
      <path d="M0 160 l928 0" />
      <path d="M0 200 l928 0" />
      <path d="M0 240 l928 0" />
      <path d="M0 280 l928 0" />
      <path d="M0 320 l928 0" />
      <path d="M0 360 l928 0" />
      <path d="M0 400 l928 0" />
      <path d="M0 440 l928 0" />
      <path d="M0 480 l928 0" />
      <path d="M0 520 l928 0" />
      <path d="M0 560 l928 0" />
      <path d="M0 600 l928 0" />
      <path d="M0 640 l928 0" />
      <path d="M0 680 l928 0" />
      <path d="M0 720 l928 0" />
      <path d="M0 760 l928 0" />
      <path d="M0 800 l928 0" />
      <path d="M0 840 l928 0" />
      <path d="M0 880 l928 0" />
      <path d="M0 920 l928 0" />
      <path d="M0 960 l928 0" />
      <path d="M0 1000 l928 0" />
      <path d="M0 1040 l928 0" />
      <path d="M0 1080 l928 0" />
      <path d="M0 1120 l928 0" />
      <path d="M0 1160 l928 0" />
      <path d="M0 1200 l928 0" />
      <path d="M0 1240 l928 0" />
      <path d="M0 1280 l928 0" />
      <path d="M0 1320 l928 0" />
      <path d="M0 1360 l928 0" />
      <path d="M0 1400 l928 0" />
      <path d="M0 1440 l928 0" />
      <path d="M0 1480 l928 0" />
      <path d="M0 1520 l928 0" />
      <path d="M0 1560 l928 0" />
      <path d="M0 1600 l928 0" />
      <path d="M0 1640 l928 0" />
      <path class="leftmargin" stroke="#FF0000" d="M100 0 l0 1660" />
    </g>
    <path class="write-flat-pen" fill="#000000" stroke-width="1.6" __comx="272.404" __comy="114.094" __timestamp="0x1815698b909" d="M217.118 118.837 l-2.019 5.998 -1.224 6.625 -0.609 7.532 -0.047 8.218 0.536 8.54 2.21 8.116 3.627 7.54 4.859 6.74 6.146 5.639 6.982 4.586 7.325 3.202 7.721 1.57 7.939 0.117 8.633 -0.578 9.334 -2.311 9.621 -3.455 9.555 -4.323 8.609 -5.076 7.584 -5.661 6.507 -6.068 5.419 -6.593 4.411 -6.951 2.881 -7.546 1.339 -7.826 -0.024 -8.109 -1.683 -8.4 -3.659 -8.147 -4.979 -7.959 -6.119 -7.163 -6.643 -5.793 -6.926 -4.026 -7.15 -2.173 -7.072 -0.376 -7.277 0.564 -7.269 2.607 -7.47 3.691 -7.706 4.719 -7.933 5.515 -8.423 5.91 -8.552 6.022 -7.984 5.69 -6.732 5.123 -5.231 4.579 -3.389 4.218 -1.886 3.856 0.668 0.345 2.008 -3.684 3.33 -4.028 5.164 -4.469 6.705 -5.071 7.989 -5.649 8.561 -6.004 8.436 -5.887 7.913 -5.48 7.632 -4.673 7.361 -3.639 7.055 -2.547 7.047 -0.582 6.872 0.311 6.921 2.064 6.765 3.877 6.541 5.66 6.05 7.039 4.909 7.847 3.567 8.002 1.613 8.207 -0.024 7.926 -1.323 7.636 -2.824 7.344 -4.336 6.793 -5.356 6.464 -6.423 5.959 -7.501 5.563 -8.504 5.003 -9.459 4.267 -9.52 3.417 -9.173 2.271 -8.48 0.568 -7.78 -0.112 -7.49 -1.523 -7.126 -3.097 -6.835 -4.462 -6.023 -5.47 -4.775 -6.546 -3.599 -7.349 -2.227 -7.919 -0.605 -8.411 -0.047 -8.16 0.532 -7.472 1.185 -6.547 1.991 -5.957" />
    <path class="write-flat-pen" fill="#000000" stroke-width="1.6" __comx="567.939" __comy="100.641" __timestamp="0x1815698bd40" d="M542.043 90.318 l-1.847 -0.621 -0.96 -0.257 -0.759 -0.015 -0.975 -0.009 -1.196 1.189 -1.571 1.932 -1.771 2.918 -1.769 4.132 -1.439 5.459 -0.845 6.892 -0.008 8.307 0.685 9.916 2.223 11.007 3.301 11.565 4.139 11 4.857 9.535 5.405 7.268 5.655 4.757 5.833 2.428 5.666 0.53 5.716 -0.292 5.833 -1.873 5.719 -2.73 5.568 -3.562 5.336 -4.419 4.619 -5.537 3.832 -6.466 2.675 -7.514 1.008 -8.752 -0.207 -9.621 -3.141 -10.02 -5.047 -10.216 -7.009 -9.519 -8.02 -8.707 -8.614 -7.218 -8.636 -5.152 -7.976 -3.022 -7.025 -0.747 -6.204 0.255 -5.708 1.969 -5.66 2.358 0.206 0.545 5.786 -1.971 5.574 -1.81 5.965 -0.203 6.793 0.741 7.742 2.934 8.477 5.042 8.499 7.099 7.952 8.588 6.935 9.379 4.968 10.056 3.07 9.794 0.174 9.392 -1.02 8.543 -2.649 7.261 -3.774 6.248 -4.508 5.344 -5.185 4.286 -5.46 3.425 -5.563 2.653 -5.575 1.792 -5.439 0.281 -5.362 -0.501 -5.449 -2.268 -5.373 -4.521 -5.243 -7.048 -4.777 -9.363 -4.1 -10.876 -3.291 -11.456 -2.214 -10.869 -0.71 -9.784 -0.008 -8.186 0.803 -6.738 1.35 -5.308 1.654 -4 1.652 -2.809 1.471 -1.848 0.832 -0.872 0.546 -0.009 0.635 -0.015 0.815 0.201 1.825 0.586" />
    <path class="write-flat-pen" fill="#000000" stroke-width="1.6" __comx="308.262" __comy="45.914" __timestamp="0x1815698bf89" d="M285.891 48.425 l-0.126 1.072 0 1.546 -0.007 1.89 -0.004 1.981 0.269 1.876 0.94 1.206 1.483 0.346 2.091 0.017 2.829 -0.813 3.395 -1.419 3.875 -1.591 4.193 -1.825 4.318 -1.893 4.578 -2.183 5.206 -2.655 5.719 -3.204 6.12 -4.6 -0.363 -0.511 -6.306 4.238 -5.69 3.096 -5.189 2.614 -4.549 2.169 -4.302 1.886 -4.174 1.84 -3.858 1.616 -3.324 1.445 -2.622 0.79 -1.839 0.017 -1.053 -0.227 -0.581 -0.741 -0.238 -1.56 -0.004 -1.913 -0.007 -1.89 0 -1.546 -0.126 -1.072" />
    <path class="write-flat-pen" fill="#000000" stroke-width="1.6" __comx="588.43" __comy="36.88" __timestamp="0x1815698c284" d="M604.146 34.446 l-0.697 -0.955 -0.483 -0.656 -0.315 -0.473 -0.388 -0.336 -0.447 -0.19 -0.685 -0.033 -0.973 0.64 -1.266 1.68 -1.91 2.758 -2.661 3.889 -3.289 4.57 -3.73 4.912 -3.847 4.736 -3.524 3.824 -2.893 2.905 -2.116 1.874 -1.17 0.891 -1.038 0.107 0 0.741 1.351 0.107 1.492 -1.056 2.194 -1.906 2.938 -2.936 3.575 -3.85 3.886 -4.771 3.749 -4.938 3.302 -4.593 2.663 -3.9 1.893 -2.74 1.142 -1.527 0.548 -0.391 0.202 -0.033 0.187 0.039 0.246 0.122 0.319 0.329 0.531 0.604 0.698 0.937" />
    <path class="write-flat-pen" fill="#000000" stroke-width="1.6" __comx="594.214" __comy="45.774" __timestamp="0x1815698c31a" d="M577.851 40.46 l2.788 3.688 3.354 4.61 4.579 5.24 5.073 5.507 5.265 5.674 5.602 5.778 5.528 5.196 0.537 -0.547 -5.287 -5.42 -5.553 -5.79 -5.256 -5.665 -5.069 -5.488 -4.548 -5.183 -3.365 -4.552 -2.799 -3.69" />
    <path class="write-flat-pen" fill="#000000" stroke-width="1.6" __comx="761.291" __comy="42.968" __timestamp="0x1815698d89c" d="M752.038 33.449 l-1.105 -0.02 -0.317 -0.024 0 1.029 0.647 0.05 1.535 -0.408 2.087 -0.556 2.59 -0.619 2.907 -0.678 3.017 -0.622 2.702 -0.393 2.258 -0.283 1.61 -0.115 0.993 -0.019 0.13 -0.053 0.005 -0.291 0.157 0.83 0.556 0 0.157 -0.986 -0.122 -0.635 -0.884 -0.053 -1.035 -0.019 -1.686 0.114 -2.305 0.289 -2.749 0.409 -3.067 0.638 -2.924 0.696 -2.607 0.641 -2.096 0.589 -1.381 0.394 -0.494 0.05 0 1.029 0.317 -0.024 1.105 -0.02" />
    <path class="write-flat-pen" fill="#000000" stroke-width="1.6" __comx="768.848" __comy="42.968" __timestamp="0x1815698d948" d="M767.39 34.206 l-0.041 0.631 -0.006 0.859 -0.017 1.425 -0.099 2.285 -0.087 3.099 -0.02 3.556 -0.019 3.951 -0.007 3.894 0 3.392 0.133 2.766 0.502 1.822 0.819 1.015 1.086 -0.063 0.964 -1.268 -0.41 -0.389 -0.946 0.745 -0.182 -0.063 -0.321 -0.474 -0.385 -1.5 -0.121 -2.617 0 -3.365 -0.007 -3.894 -0.019 -3.951 -0.02 -3.545 0.04 -3.086 0.028 -2.296 -0.017 -1.438 -0.006 -0.859 -0.041 -0.631" />
    <path class="write-flat-pen" fill="#000000" stroke-width="1.6" __comx="790.85" __comy="42.968" __timestamp="0x1815698da24" d="M781.362 37.789 l1.102 -0.388 1.257 -0.34 1.836 -0.556 2.341 -0.555 2.472 -0.673 2.439 -0.555 2.297 -0.336 1.859 -0.112 1.44 -0.006 0.986 -0.014 0.311 -0.017 0.223 0.113 0.262 0.659 0.413 -0.046 0.089 -0.899 -0.411 -0.803 -0.83 -0.132 -1.042 -0.014 -1.475 -0.006 -1.944 0.117 -2.393 0.351 -2.505 0.59 -2.472 0.701 -2.349 0.59 -1.84 0.589 -1.279 0.348 -1.136 0.421" />
    <path class="write-flat-pen" fill="#000000" stroke-width="1.6" __comx="797.588" __comy="42.968" __timestamp="0x1815698dab8" d="M797.508 36.598 l-0.725 0.351 -0.046 0.579 -0.044 0.63 -0.027 1.26 -0.024 2.004 -0.028 3.035 -0.014 4.005 -0.073 4.796 -0.254 5.33 0.003 5.226 0.015 4.74 0.649 3.882 1.356 2.634 0.605 -0.261 -0.934 -2.667 -0.492 -3.677 0.015 -4.651 0.003 -5.197 0.253 -5.322 0.054 -4.825 -0.014 -4.013 -0.028 -3.035 -0.024 -2.004 -0.027 -1.26 -0.044 -0.63 -0.046 -0.108 0.245 -0.233" />
    <path class="write-flat-pen" fill="#000000" stroke-width="1.6" __comx="832.274" __comy="45.793" __timestamp="0x1815698e480" d="M831.456 42.617 l-1.145 -0.02 -0.743 0.654 -0.823 1.197 -0.859 1.56 -0.978 1.889 -0.964 2.001 -0.962 1.944 -0.826 1.774 -0.697 1.425 -0.512 1.035 -0.298 0.652 -0.289 0.42 -0.341 0.503 -0.274 0.623 -0.312 0.784 -0.311 1.131 -0.298 1.279 -0.311 1.393 -0.235 1.431 -0.3 1.257 -0.191 0.951 -0.065 0.759 -0.077 0.475 -0.003 0.316 -0.005 0.115 0.818 0.237 0.259 -0.394 0.652 -0.993 0.646 -1.342 0.761 -1.546 0.824 -1.724 0.82 -1.776 0.888 -1.838 0.83 -1.901 0.767 -1.849 0.575 -1.675 0.511 -1.49 0.389 -1.161 0.178 -0.689 0.229 -0.346 0.143 -0.228 0.034 0.333 -0.6 0.035 0.158 0.343 0.609 1.136 0.668 1.628 0.751 1.999 0.889 2.3 0.952 2.315 1.034 2.161 1.118 1.844 1.168 1.367 1.238 0.79 1.311 0.329 1.153 0 1.092 0 1.082 -0.526 0.821 -1.077 0.67 -1.332 0.656 -1.597 0.59 -2.006 0.455 -2.422 0.129 -3.093 0 -3.563 -0.011 -3.744 -0.284 -3.595 -0.546 -2.827 -0.704 -2.354 -0.533 0.112 0.294 2.416 0.341 2.785 0.223 3.506 -0.011 3.701 0 3.538 -0.124 2.978 -0.432 2.274 -0.551 1.888 -0.611 1.495 -0.598 1.188 -0.573 0.756 -0.566 0.275 -0.81 0 -1.002 0 -0.971 -0.244 -0.917 -0.585 -0.986 -1.152 -1.037 -1.707 -0.995 -2.077 -0.949 -2.266 -0.886 -2.281 -0.77 -2.01 -0.726 -1.694 -0.658 -1.155 -0.476 -0.917 -1.107 0.035 0.034 0.448 0.016 0.001 -0.278 0.455 -0.202 0.8 -0.372 1.129 -0.504 1.488 -0.566 1.647 -0.754 1.816 -0.818 1.878 -0.887 1.827 -0.828 1.774 -0.824 1.713 -0.76 1.546 -0.622 1.292 -0.615 0.954 -0.248 0.408 0.818 0.237 -0.005 -0.115 -0.003 -0.256 0.05 -0.441 0.062 -0.73 0.189 -0.881 0.334 -1.263 0.272 -1.432 0.323 -1.356 0.336 -1.241 0.323 -1.045 0.322 -0.705 0.233 -0.522 0.293 -0.413 0.344 -0.496 0.336 -0.723 0.502 -1.027 0.698 -1.438 0.822 -1.776 0.94 -1.95 0.938 -2.007 0.924 -1.89 0.789 -1.533 0.698 -1.093 0.398 -0.377 0.814 -0.02" />
    <path class="write-flat-pen" fill="#000000" stroke-width="1.6" __comx="861.475" __comy="54.848" __timestamp="0x1815698fc3d" d="M858.748 42.021 l-1.094 -0.324 -0.822 -0.216 -0.742 -0.223 -0.685 -0.207 -0.703 -0.211 -0.633 -0.142 -0.46 -0.127 -0.292 -0.131 -0.2 -0.075 -0.16 1.084 0.063 0.015 1.204 0 1.711 -0.003 2.282 0 2.472 -0.001 2.386 -0.011 2.121 0.145 1.67 0.201 1.303 0.293 0.869 0.205 0.734 0.489 0.378 -0.418 -0.698 -0.805 -1.032 -0.368 -1.359 -0.394 -1.753 -0.257 -2.189 -0.199 -2.43 -0.011 -2.472 -0.001 -2.282 0 -1.711 -0.003 -1.204 0 -0.063 0.015 -0.16 1.084 0.18 0.039 0.342 0.098 0.554 0.102 0.635 0.087 0.692 0.133 0.71 0.137 0.779 0.121 0.826 0.128 1.085 0.282" />
    <path class="write-flat-pen" fill="#000000" stroke-width="1.6" __comx="865.073" __comy="54.848" __timestamp="0x1815698fd2a" d="M864.629 46.377 l-0.052 0.551 0.294 0.619 0.18 1.016 0.029 2.017 -0.018 2.914 -0.003 3.486 -0.126 3.759 -0.308 3.419 -0.313 2.814 -0.121 2.201 0.014 1.444 0.033 0.94 0.376 0.553 0.482 -0.213 -0.091 -0.502 0.033 -0.778 0.014 -1.419 0.132 -2.151 0.321 -2.798 0.325 -3.453 0.127 -3.8 -0.003 -3.501 -0.018 -2.927 -0.098 -2.106 -0.327 -1.16 -0.34 -0.526 -0.052 -0.398" />
    <path class="write-flat-pen" fill="#000000" stroke-width="1.6" __comx="876.768" __comy="54.848" __timestamp="0x1815698fe43" d="M880.473 50.027 l-0.778 -0.038 -0.493 1.103 -0.477 1.446 -0.535 1.943 -0.722 2.392 -0.78 2.56 -0.897 2.558 -0.884 2.397 -0.76 1.944 -0.568 1.485 -0.376 0.921 -0.115 0.357 0.834 0.149 -0.057 -0.019 0.087 -0.871 0.527 -1.364 0.582 -1.713 -0.248 -0.102 -0.787 1.627 -0.614 1.385 -0.293 0.961 -0.057 0.096 0.834 0.149 0.139 -0.33 0.385 -0.912 0.573 -1.493 0.762 -1.95 0.891 -2.414 0.878 -2.596 0.741 -2.594 0.673 -2.419 0.479 -1.951 0.41 -1.417 0.268 -0.73 0.378 -0.038" />
    <path class="write-flat-pen" fill="#000000" stroke-width="1.6" __comx="883.859" __comy="54.848" __timestamp="0x1815698ff38" d="M876.68 59.331 l0.548 -1.362 0.419 -1.045 0.52 -0.723 0.472 -0.414 0.386 -0.145 0.49 0.02 0.273 0.019 0.38 0.414 0.435 1 0.416 1.455 0.432 1.644 0.375 1.769 0.384 1.618 0.392 1.416 0.479 1.114 0.586 0.794 0.791 0.568 0.851 0.132 0.8 -0.001 0.73 -0.004 1.02 -0.146 0.896 -0.953 0.868 -1.271 0.722 -1.67 0.575 -1.952 0.321 -2.292 0.047 -2.265 -0.035 -2.125 -0.129 -2.265 -0.522 0 -0.129 2.265 -0.035 2.113 -0.08 2.202 -0.313 2.174 -0.566 1.827 -0.672 1.537 -0.78 1.134 -0.625 0.651 -0.628 0.083 -0.664 -0.004 -0.721 -0.001 -0.544 -0.097 -0.477 -0.348 -0.428 -0.58 -0.408 -0.948 -0.369 -1.333 -0.377 -1.589 -0.385 -1.781 -0.456 -1.677 -0.472 -1.523 -0.579 -1.176 -0.761 -0.731 -0.614 0.019 -0.65 0.02 -0.628 0.313 -0.542 0.616 -0.494 0.881 -0.342 1.131 -0.426 1.405" />
    <path class="write-flat-pen" fill="#000000" stroke-width="1.6" __comx="900.454" __comy="54.848" __timestamp="0x1815699004e" d="M896.335 45.176 l-0.525 -0.377 -0.132 -0.043 0 0.871 0.507 0.039 0.964 0.014 1.119 -0.057 1.359 -0.234 1.332 -0.233 1.26 -0.244 1.11 -0.204 0.852 -0.141 1.055 -0.171 0 -0.358 -1.078 -0.171 -0.923 -0.026 -1.171 0.14 -1.275 0.214 -1.33 0.225 -1.303 0.224 -1.036 0.058 -0.938 0.014 -0.507 0.039 0 0.871 -0.005 -0.043 0.516 0" />
    <path class="write-flat-pen" fill="#000000" stroke-width="1.6" __comx="907.717" __comy="54.848" __timestamp="0x18156990131" d="M908.533 44.493 l-0.18 0.54 -0.028 0.387 -0.023 0.63 -0.032 1.088 -0.037 1.546 -0.028 2.223 -0.136 2.847 -0.264 3.656 -0.317 4.062 -0.38 4.407 -0.38 4.358 -0.25 3.959 -0.178 3.395 0.024 2.533 0.035 1.753 0.675 1.036 0.443 -0.21 -0.296 -1.011 0.035 -1.568 0.024 -2.507 0.202 -3.363 0.257 -3.944 0.381 -4.347 0.38 -4.412 0.316 -4.07 0.243 -3.674 0.117 -2.88 -0.028 -2.244 -0.037 -1.546 -0.032 -1.088 -0.023 -0.63 -0.028 -0.301 0.1 -0.473" />
    <path class="write-flat-pen" fill="#000000" stroke-width="1.6" __comx="244.788" __comy="223.396" __timestamp="0x18156991db4" d="M223.136 226.144 l0.592 0.011 0.761 0.02 1.268 0.027 1.965 0.032 2.794 0.024 3.511 -0.039 4.154 -0.334 4.457 -0.572 4.572 -0.686 4.441 -0.688 4.193 -0.692 3.622 -0.701 3.121 -0.664 2.342 -0.727 1.512 -0.724 -0.11 -0.382 -1.658 0.188 -2.349 0.533 -3.091 0.596 -3.604 0.674 -4.173 0.682 -4.433 0.687 -4.555 0.689 -4.416 0.574 -4.085 0.353 -3.461 0.075 -2.784 0.024 -1.965 0.032 -1.268 0.027 -0.761 0.02 -0.592 0.011" />
    <path class="write-flat-pen" fill="#000000" stroke-width="1.6" __comx="254.479" __comy="229.757" __timestamp="0x18156992389" d="M251.646 226.922 l-0.442 -0.226 -0.103 -0.123 -0.182 -0.035 -0.063 -0.044 -0.371 0.502 0.231 1.089 0.798 1.869 1.1 2.738 1.18 3.525 1.193 4.146 0.944 4.663 0.836 5.017 0.676 4.945 0.397 4.983 0.633 -0.026 -0.009 -5.042 -0.591 -5.02 -0.812 -5.062 -0.957 -4.729 -1.215 -4.215 -1.228 -3.576 -1.182 -2.76 -0.85 -1.796 -0.402 -0.973 -0.371 0.502 0.063 -0.044 -0.055 -0.035 0.023 -0.009 0.543 0.219" />
    <path class="write-flat-pen" fill="#000000" stroke-width="1.6" __comx="333.476" __comy="218.245" __timestamp="0x18156992dca" d="M319.499 221.428 l-0.898 -0.238 -0.117 -0.015 0 0.877 0.317 0.062 1.276 0.04 1.866 -0.014 2.496 -0.206 3.263 -0.324 3.786 -0.686 4.098 -1.039 4.292 -1.389 4.3 -1.809 4.291 -2.473 -0.548 -0.984 -4.298 2.313 -4.193 1.742 -4.201 1.36 -4.015 1.023 -3.693 0.689 -3.202 0.363 -2.448 0.252 -1.81 0.1 -1.259 0.04 -0.317 0.062 0 0.877 0.01 -0.015 0.797 0.199" />
    <path class="write-flat-pen" fill="#000000" stroke-width="1.6" __comx="341.099" __comy="225.382" __timestamp="0x18156993ca9" d="M342.213 222.052 l-0.384 -0.469 -0.251 -0.232 -0.193 -0.256 -0.252 -0.211 -0.212 -0.239 -0.239 -0.246 -0.179 -0.184 -0.109 -0.135 -0.047 -0.076 -0.784 0.349 -0.047 0.401 -0.013 1.173 0.503 1.608 0.424 1.97 0.437 2.376 0.312 2.782 0.313 3.294 0.064 3.81 0 4.29 0.004 4.854 -0.244 5.242 -0.484 5.252 -0.549 4.879 -0.202 4.098 0.084 2.992 0.12 1.515 0.51 0 0.12 -1.515 0.084 -2.964 0.306 -4.034 0.592 -4.857 0.531 -5.285 0.263 -5.295 0.004 -4.881 0 -4.3 -0.063 -3.864 -0.321 -3.349 -0.322 -2.83 -0.451 -2.434 -0.464 -2.038 -0.511 -1.485 -0.013 -1.003 -0.047 -0.401 -0.784 0.349 0.08 0.038 0.145 0.094 0.201 0.16 0.269 0.213 0.295 0.219 0.255 0.133 0.187 0.202 0.256 0.227 0.363 0.432" />
    <path class="write-flat-pen" fill="#000000" stroke-width="1.6" __comx="365.854" __comy="238.715" __timestamp="0x18156994e3a" d="M345.955 243.196 l-0.788 -0.007 -0.253 -0.013 -0.063 -0.037 0.24 0.865 0.172 -0.034 0.94 -0.302 1.666 -0.371 2.381 -0.331 3.109 -0.392 3.82 -0.574 4.265 -0.803 4.521 -0.978 4.521 -1.208 4.452 -1.323 4.197 -1.394 3.995 -1.532 3.967 -1.687 -0.308 -0.777 -4.036 1.484 -3.992 1.446 -4.169 1.355 -4.422 1.311 -4.479 1.197 -4.479 0.969 -4.228 0.801 -3.786 0.571 -3.102 0.41 -2.435 0.356 -1.757 0.43 -1.088 0.385 -0.208 0.196 0.24 0.865 0.063 -0.037 0.253 -0.013 0.788 -0.007" />
    <path class="write-flat-pen" fill="#000000" stroke-width="1.6" __comx="328.916" __comy="241.909" __timestamp="0x18156995659" d="M328.947 239.279 l-0.461 -0.521 -0.183 -0.217 -0.109 -0.148 -0.049 -0.099 -0.06 -0.116 -0.039 -0.128 -0.66 0.17 -0.048 0.156 0.578 1.15 0.529 1.846 0.608 2.654 0.367 3.39 0.125 4.097 0.001 4.689 0.001 4.788 -0.432 4.605 -0.548 3.832 -0.254 2.44 -0.098 0.999 0.334 0.106 0.514 -0.939 0.38 -2.484 0.593 -3.841 0.456 -4.672 0.001 -4.833 0.001 -4.703 -0.128 -4.149 -0.394 -3.482 -0.66 -2.729 -0.612 -1.934 -0.563 -1.026 -0.048 0.041 -0.66 0.17 0.088 0.101 0.066 0.113 0.077 0.13 0.144 0.196 0.197 0.241 0.468 0.528" />
  </g>
</svg>
